<?xml version="1.0" standalone="no"?>
<!DOCTYPE svg PUBLIC "-//W3C//DTD SVG 1.1//EN" "http://www.w3.org/Graphics/SVG/1.1/DTD/svg11.dtd" >
<svg xmlns="http://www.w3.org/2000/svg" xmlns:xlink="http://www.w3.org/1999/xlink" version="1.1">
<metadata>
Created by FontForge 20170731 at Tue Dec  1 19:23:02 2015
 By Aleksey,,,
Copyright 2015, Sungsit Sawaiwan (https://fontuni.com | uni@fontuni.com). This Font Software is licensed under the SIL Open Font License, Version 1.1 (http://scripts.sil.org/OFL).
</metadata>
<defs>
<font id="BoonJot-400" horiz-adv-x="720" >
  <font-face 
    font-family="BoonJot"
    font-weight="400"
    font-stretch="normal"
    units-per-em="1200"
    panose-1="2 0 6 3 0 0 0 0 0 0"
    ascent="960"
    descent="-240"
    x-height="601"
    cap-height="798"
    bbox="-554 -440 1157 1306"
    underline-thickness="30"
    underline-position="-150"
    unicode-range="U+0009-FEFF"
  />
<missing-glyph 
d="M516 564q-100 -2 -193 -2q-84 0 -116 1q5 -237 13 -519q69 -4 164 -4q75 0 129 3q-6 220 -6 409q0 20 0.5 52.5t0.5 45.5q0 8 8 14zM556 571q12 -5 12 -15q0 -14 -0.5 -48.5t-0.5 -55.5q0 -209 6 -423q0 -8 -8.5 -15.5t-22.5 -8.5q-53 -5 -164 -5q-116 0 -194 5
q-23 2 -23 16q-8 242 -14 560q0 24 33 24h4q52 -2 119 -2q76 0 238 3q25 0 25 -17v-3q-2 -10 -10 -15z" />
    <glyph glyph-name="ellipsis" unicode="&#x2e;&#x200d;&#x2e;&#x200d;&#x2e;" 
d="M417 108l3 -4q4 -4 7 -8t5.5 -11t2.5 -15q0 -4 -2 -12q-3 -20 -26 -38t-56 -18q-31 0 -48.5 16t-17.5 39q0 22 21.5 45t62.5 23q10 0 13 -1l16 -4q12 -3 19 -12zM642 108l4 -4l6 -8t5.5 -11t2.5 -15q0 -4 -2 -12q-3 -20 -26 -38t-56 -18q-31 0 -48.5 16t-17.5 39
q0 22 21.5 45t62.5 23q10 0 13 -1l16 -4q12 -3 19 -12zM192 108l4 -4l6 -8t5.5 -11t2.5 -15q0 -4 -2 -12q-3 -20 -26 -38t-56 -18q-31 0 -48.5 16t-17.5 39q0 22 21.5 45t62.5 23q10 0 13 -1l16 -4q12 -3 19 -12z" />
    <glyph glyph-name="uniF880" unicode="&#xe4f;&#x200d;&#x2e;&#x200d;&#x2e;" horiz-adv-x="750" 
d="M467 958l19 1h2q15 0 25 -7.5t10 -17.5q-2 -171 -12 -228q-2 -11 -18.5 -22t-32.5 -11q-24 0 -27 26q-2 21 -4.5 102t-4.5 123v2q0 11 10.5 21t32.5 11zM270 956l19 1h2q15 0 25 -7.5t10 -17.5q-2 -197 -8 -231q-2 -11 -18.5 -22t-32.5 -11q-24 0 -27 26q-2 18 -4 54
t-4.5 89.5t-4.5 84.5v2q0 11 10.5 21t32.5 11zM391 398q7 3 15 3q5 0 13 -2q68 -28 68 -106q0 -36 -30.5 -62.5t-74.5 -31.5h-14q-42 0 -71.5 26.5t-29.5 66.5q0 38 23.5 71t73.5 38h12q9 0 15 -3zM472 523q-6 -2 -17 -2q-12 0 -16 2q-25 8 -70 8q-77 0 -132.5 -45.5
t-71.5 -125.5q-5 -28 -5 -53q0 -119 61.5 -183.5t156.5 -64.5q79 0 134.5 44.5t72.5 128.5q5 24 5 61q0 68 -29 123.5t-78 85.5q-11 6 -11 18v3zM498 551q6 2 18 2q16 0 23 -5q64 -37 97.5 -102.5t33.5 -144.5q0 -31 -7 -69q-21 -102 -101 -166.5t-196 -64.5q-132 0 -209 82
t-77 216q0 31 6 61q20 97 99.5 163t195.5 66q55 0 98 -14q19 -6 19 -22v-2z" />
    <glyph glyph-name="uniF881" unicode="&#xe24;&#x200d;&#xe45;" horiz-adv-x="965" 
d="M322 47q3 -6 3 -11q0 -26 -33 -38q-49 -17 -78 -17q-133 0 -133 134q0 52 15 162.5t15 157.5q0 23 -7 48t-11 29q-7 7 -7 18q0 21 27 34q109 52 276 52q62 0 109.5 -24t65.5 -70q69 88 159 94h14q67 0 105 -41t38 -113q0 -16 -1 -24q-25 -279 -25 -596v-46
q0 -14 -14 -26.5t-34 -14.5h-8q-18 0 -30 8t-12 21v47q0 317 25 601q1 8 1 23q0 50 -19 70t-42 20h-4q-33 -2 -74.5 -33t-59.5 -81q-3 -7 -10 -14q-10 -393 -10 -497q0 -61 3 -124v-1q0 -14 -13.5 -25.5t-33.5 -14.5q-1 0 -4 -0.5t-5 -0.5q-17 0 -29 8.5t-13 21.5
q-3 63 -3 126q0 83 5.5 310.5t5.5 239.5q0 84 -101 84q-95 0 -177 -24q11 -33 11 -75q0 -55 -15 -165.5t-15 -154.5q0 -42 11.5 -57t37.5 -15h2q2 0 28 9q9 4 23 4q31 0 41 -19z" />
    <glyph glyph-name="uniF882" unicode="&#xe26;&#x200d;&#xe45;" horiz-adv-x="965" 
d="M519 -245q-1 0 -4 -0.5t-5 -0.5q-17 0 -29 8.5t-13 21.5q-3 63 -3 126q0 83 5.5 310.5t5.5 239.5q0 84 -101 84q-104 0 -192 -23q4 -30 15 -104.5t16 -111.5t10 -87.5t5 -82.5v-23q0 -36 -4 -52q-10 -47 -48 -65q-22 -11 -49 -11q-13 0 -26 2.5t-19.5 5.5t-19.5 8.5
t-17 7.5q-20 8 -20 27q0 11 9 22q17 19 48 19q12 0 21 -4q14 -6 24 -10q3 15 3 63q0 40 -7 101t-22.5 163.5t-20.5 141.5v3q0 22 27 35q50 23 129.5 35t151.5 12q62 0 109.5 -24t65.5 -70q69 88 159 94h14q67 0 105 -41t38 -113q0 -16 -1 -24q-25 -279 -25 -596v-46
q0 -14 -14 -26.5t-34 -14.5h-8q-18 0 -30 8t-12 21v47q0 317 25 601q1 8 1 23q0 50 -19 70t-42 20h-4q-33 -2 -74.5 -33t-59.5 -81q-3 -7 -10 -14q-10 -393 -10 -497q0 -61 3 -124v-1q0 -14 -13.5 -25.5t-33.5 -14.5z" />
    <glyph glyph-name="uniFB01" unicode="f&#x200d;i" horiz-adv-x="790" 
d="M691 842q18 -18 18 -41q0 -9 -1 -13q-4 -23 -29.5 -43t-63.5 -20q-35 0 -54.5 18t-19.5 43q0 24 23 50t71 26q8 0 16 -2l16 -4q16 -5 24 -14zM683 -8q-18 -13 -41 -13q-16 0 -29 8q-44 31 -44 111q0 18 2 60q2 69 2 175q0 41 -2 231q0 14 14.5 26.5t34.5 14.5h8
q17 0 29 -8t12 -21q2 -190 2 -232q0 -106 -2 -176v-23q0 -91 18 -102q12 -9 12 -22q0 -17 -16 -29zM215 -20h-7q-18 0 -30 8.5t-12 21.5q0 15 0.5 43.5t0.5 42.5q0 226 -18 427q-41 1 -92 6q-16 1 -26.5 10t-10.5 21q0 3 2 9q5 14 21 23t35 9h5q41 -4 64 -5q-10 68 -14 101
q-1 6 -1 18q0 78 63 122q50 37 119 37q82 0 154 -52q11 -8 11 -21q0 -17 -17 -29q-18 -13 -40 -13q-18 0 -30 9q-47 35 -89 35q-27 0 -44 -13q-31 -23 -31 -66q0 -2 0.5 -5.5t0.5 -5.5q2 -36 8 -120q50 0 128 3h2q18 0 30 -8.5t12 -21.5v-4q-2 -14 -18 -25.5t-36 -12.5
q-63 -3 -107 -3q17 -204 17 -415q0 -14 -0.5 -42.5t-0.5 -43.5q0 -14 -14.5 -26t-34.5 -14z" />
    <glyph glyph-name="uniFB02" unicode="f&#x200d;l" horiz-adv-x="800" 
d="M775 3q-17 -26 -52 -26q-6 0 -14 2q-137 33 -143 166q-5 126 -5 270q0 13 5 385q0 14 14.5 26t34.5 14h7q18 0 30 -8.5t12 -21.5q-5 -373 -5 -385q0 -142 5 -268q1 -31 9 -52.5t23 -32.5t26.5 -16t28.5 -9q29 -6 29 -29q0 -7 -5 -15zM215 -20h-7q-18 0 -30 8.5t-12 21.5
q0 15 0.5 43.5t0.5 42.5q0 226 -18 427q-41 1 -92 6q-16 1 -26.5 10t-10.5 21q0 3 2 9q5 14 21 23t35 9h5q41 -4 64 -5q-10 68 -14 101q-1 6 -1 18q0 78 63 122q50 37 119 37q82 0 154 -52q11 -8 11 -21q0 -17 -17 -29q-18 -13 -40 -13q-18 0 -30 9q-47 35 -89 35
q-27 0 -44 -13q-31 -23 -31 -66q0 -2 0.5 -5.5t0.5 -5.5q2 -36 8 -120q50 0 128 3h2q18 0 30 -8.5t12 -21.5v-4q-2 -14 -18 -25.5t-36 -12.5q-63 -3 -107 -3q17 -204 17 -415q0 -14 -0.5 -42.5t-0.5 -43.5q0 -14 -14.5 -26t-34.5 -14z" />
    <glyph glyph-name=".notdef" 
d="M516 564q-100 -2 -193 -2q-84 0 -116 1q5 -237 13 -519q69 -4 164 -4q75 0 129 3q-6 220 -6 409q0 20 0.5 52.5t0.5 45.5q0 8 8 14zM556 571q12 -5 12 -15q0 -14 -0.5 -48.5t-0.5 -55.5q0 -209 6 -423q0 -8 -8.5 -15.5t-22.5 -8.5q-53 -5 -164 -5q-116 0 -194 5
q-23 2 -23 16q-8 242 -14 560q0 24 33 24h4q52 -2 119 -2q76 0 238 3q25 0 25 -17v-3q-2 -10 -10 -15z" />
    <glyph glyph-name="glyph1" horiz-adv-x="0" 
 />
    <glyph glyph-name="glyph1" horiz-adv-x="0" 
 />
    <glyph glyph-name="uni000D" unicode="&#xd;" horiz-adv-x="330" 
 />
    <glyph glyph-name="uni0009" unicode="&#x9;" horiz-adv-x="330" 
 />
    <glyph glyph-name="uni0009" unicode="&#xa0;" horiz-adv-x="330" 
 />
    <glyph glyph-name="uni0009" unicode=" " horiz-adv-x="330" 
 />
    <glyph glyph-name="exclam" unicode="!" horiz-adv-x="330" 
d="M136 828l40 7q3 1 11 1q33 0 33 -24v-1q0 -12 -0.5 -98.5t-3.5 -187.5t-11 -222q-1 -13 -17.5 -24t-34.5 -11q-27 0 -28 27q-2 43 -10 246.5t-14 252.5v2q0 11 10.5 20.5t24.5 11.5zM231 112q18 -18 18 -41q0 -9 -1 -13q-4 -23 -29.5 -43t-63.5 -20q-35 0 -54.5 18
t-19.5 43q0 24 23 50t71 26q8 0 16 -2l16 -4q16 -5 24 -14z" />
    <glyph glyph-name="quotedbl" unicode="&#x22;" horiz-adv-x="510" 
d="M347 838l19 1h2q15 0 25 -7.5t10 -17.5q-2 -171 -12 -228q-2 -11 -18.5 -22t-32.5 -11q-24 0 -27 26q-2 21 -4.5 102t-4.5 123v2q0 11 10.5 21t32.5 11zM150 836l19 1h2q15 0 25 -7.5t10 -17.5q-2 -197 -8 -231q-2 -11 -18.5 -22t-32.5 -11q-24 0 -27 26q-2 18 -4 54
t-4.5 89.5t-4.5 84.5v2q0 11 10.5 21t32.5 11z" />
    <glyph glyph-name="numbersign" unicode="#" 
d="M305 829q15 0 24.5 -7t9.5 -18v-3q-10 -62 -38 -227q64 -1 191 -1q7 38 39 236q1 12 14.5 21t29.5 9q15 0 24.5 -7t9.5 -18v-3q-30 -187 -39 -237h96q14 0 23.5 -7t9.5 -18v-4q-2 -12 -15.5 -20.5t-29.5 -8.5h-95q-16 -90 -42 -222h109q14 0 23.5 -7t9.5 -18v-4
q-2 -12 -15.5 -20.5t-29.5 -8.5h-108q-8 -41 -25.5 -124t-21.5 -102q-2 -12 -15.5 -20.5t-29.5 -8.5q-14 0 -23.5 7t-9.5 18v4q7 31 23 108.5t24 116.5q-125 0 -190 1q-8 -40 -25 -120t-24 -116q-2 -12 -15.5 -20.5t-29.5 -8.5q-14 0 -23.5 7t-9.5 18v4l49 238q-61 2 -108 3
q-14 1 -23 8t-9 17q0 1 0.5 2.5t0.5 2.5q3 11 16.5 19.5t28.5 8.5h2q46 -1 104 -3q26 132 42 222q-63 2 -122 3q-14 1 -23 8t-9 17q0 1 0.5 2.5t0.5 2.5q3 11 16.5 19.5t28.5 8.5h2q56 -1 116 -3q16 90 37 223q1 12 14.5 21t29.5 9zM291 516q-21 -120 -41 -221
q130 -2 189 -2q34 170 43 222q-127 0 -191 1z" />
    <glyph glyph-name="dollar" unicode="$" 
d="M360 926h5q14 0 23 -6t9 -16q0 -14 -0.5 -41.5t-0.5 -40.5h4q99 0 156.5 -51.5t57.5 -122.5q0 -7 -2 -23t-20 -28t-40 -13h-2q-20 0 -33 9.5t-13 23.5v4q1 5 1 15q0 42 -31.5 73t-78.5 35q0 -23 -1.5 -132t-1.5 -164q21 -7 44 -15t44 -15.5t26 -9.5q83 -27 125.5 -78.5
t42.5 -113.5q0 -64 -44 -122q-81 -103 -230 -115q1 -12 1.5 -37t0.5 -37v-1q0 -10 -10.5 -19t-25.5 -11q-1 0 -3.5 -0.5t-3.5 -0.5q-13 0 -21.5 6.5t-9.5 15.5q-2 58 -3 85q-92 9 -154.5 54t-90.5 113q-2 6 -2 10q0 13 11 25t29 17q12 3 23 3q34 0 43 -23q37 -93 139 -116
q-5 188 -5 312q-19 7 -47.5 17t-34.5 12q-82 27 -124 77t-42 109q0 16 3 32q14 68 81.5 122.5t167.5 71.5q0 13 0.5 39.5t0.5 40.5q0 11 11 20t26 10zM319 474q0 74 2 264q-59 -12 -95 -43.5t-45 -72.5q-2 -14 -2 -20q0 -37 28.5 -69t86.5 -51q3 -1 11.5 -4t13.5 -4z
M393 350q0 -151 4 -294q93 4 140 68q28 37 28 79q0 41 -28.5 75t-86.5 52q-20 7 -57 20z" />
    <glyph glyph-name="percent" unicode="%" 
d="M577 285q-16 16 -29 16q-3 0 -7.5 -1.5t-15.5 -16t-18 -38.5q-9 -34 -9 -70q0 -27 6 -50t14.5 -37t18.5 -24t17.5 -14t11.5 -4q2 0 6 1.5t13.5 15t16.5 37.5q10 32 10 73q0 28 -8.5 54t-21.5 37q-6 4 -6 14q0 5 1 7zM657 291q33 -38 33 -108q0 -49 -10 -83
q-13 -45 -46.5 -75.5t-83.5 -30.5q-62 0 -96 48t-34 123q0 47 10 80q14 47 48.5 77.5t85.5 30.5q56 0 91 -44q4 -6 4 -11q0 -3 -2 -7zM187 735q-16 16 -29 16q-3 0 -7.5 -1.5t-15.5 -16t-18 -38.5q-9 -34 -9 -70q0 -27 6 -50t14.5 -37t18.5 -24t17.5 -14t11.5 -4q2 0 6 1.5
t13.5 15t16.5 37.5q10 32 10 73q0 28 -8.5 54t-21.5 37q-6 4 -6 14q0 5 1 7zM267 741q33 -39 33 -108q0 -49 -10 -83q-13 -45 -46.5 -75.5t-83.5 -30.5q-62 0 -96 48t-34 123q0 47 10 80q14 47 48.5 77.5t85.5 30.5q56 0 91 -44q4 -6 4 -11q0 -3 -2 -7zM648 790
q21 -5 21 -20q0 -7 -4 -12q-328 -466 -541 -731q-16 -18 -42 -18q-4 0 -12 2q-19 4 -19 19q0 8 5 13q212 264 539 729q13 19 43 19q7 0 10 -1z" />
    <glyph glyph-name="ampersand" unicode="&#x26;" horiz-adv-x="800" 
d="M352 475q77 67 94 149q4 24 4 33q0 38 -20.5 57.5t-56.5 19.5q-15 0 -27 -4q-17 -7 -28.5 -35t-11.5 -66q0 -79 46 -154zM659 399q19 0 32.5 -9.5t13.5 -23.5q0 -1 -0.5 -3t-0.5 -3q-26 -117 -77 -199q77 -83 124 -127q8 -7 8 -18q0 -20 -21 -32q-15 -9 -35 -9
q-21 0 -34 11q-64 62 -99 99q-107 -114 -268 -114q-109 0 -172.5 51.5t-63.5 131.5q0 37 16.5 73t50.5 70.5t63.5 59.5t77.5 60q-72 101 -72 209q0 112 92 159q41 21 93 21q81 0 121 -41t40 -101q0 -23 -4 -40q-24 -118 -140 -206q-1 0 -2.5 -2t-2.5 -2q107 -121 157 -177
q27 60 40 123q4 16 22.5 27.5t40.5 11.5zM507 153q-120 131 -184 205q-76 -60 -112.5 -104.5t-36.5 -87.5q0 -55 38.5 -86t105.5 -31q110 0 189 104z" />
    <glyph glyph-name="quotesingle" unicode="'" horiz-adv-x="330" 
d="M158 841l21 1h2q17 0 27.5 -8.5t10.5 -19.5q-2 -187 -10 -233q-2 -13 -21 -25t-37 -12q-27 0 -30 29q-2 22 -5.5 107t-5.5 123v2q0 12 11.5 23.5t36.5 12.5z" />
    <glyph glyph-name="parenleft" unicode="(" horiz-adv-x="360" 
d="M262 -105q-13 -7 -27 -7q-17 0 -28 12q-56 62 -104 199t-48 316q0 285 154 459q16 18 40 18q8 0 17 -3q15 -5 15 -20q0 -12 -10 -23q-126 -142 -126 -421q0 -172 42 -304t86 -181q7 -8 7 -19q0 -16 -18 -26z" />
    <glyph glyph-name="parenright" unicode=")" horiz-adv-x="360" 
d="M98 885q13 7 27 7q17 0 28 -12q56 -62 104 -199t48 -316q0 -285 -154 -459q-16 -18 -40 -18q-8 0 -17 3q-15 5 -15 20q0 12 10 23q126 142 126 421q0 172 -42 304t-86 181q-7 8 -7 19q0 16 18 26z" />
    <glyph glyph-name="asterisk" unicode="*" horiz-adv-x="600" 
d="M293 848q2 0 4.5 0.5t3.5 0.5q13 0 22.5 -6.5t10.5 -16.5q2 -34 2 -51q0 -16 -0.5 -34.5t-1.5 -41t-1 -35.5q23 15 64 44t49 35q14 9 31 9q15 0 25 -7q9 -6 9 -16q0 -13 -15 -24q-34 -24 -138 -82q135 -70 145 -76q13 -8 13 -20q0 -11 -11 -20q-13 -12 -33 -12
q-12 0 -23 6q-4 2 -114 70q10 -128 10 -147q0 -11 -12 -21t-28 -11h-5q-15 0 -25 7t-10 17q0 29 3 84.5t4 71.5q-109 -70 -121 -77q-13 -7 -28 -7q-18 0 -27 9q-7 7 -7 15q0 15 18 25q26 15 78.5 42t71.5 38q-30 16 -85 40.5t-73 33.5q-15 7 -15 21q0 10 9 19q14 14 37 14
q11 0 19 -4q40 -18 121 -68q-2 27 -7 74.5l-7 66.5v1q0 11 10.5 21t26.5 12z" />
    <glyph glyph-name="plus" unicode="+" horiz-adv-x="600" 
d="M81 349q4 13 18 22t31 9h5q68 -6 122 -7q-1 48 -7 121v3q0 13 12.5 24.5t29.5 13.5h7q16 0 28 -8t13 -21q5 -55 7 -134q62 0 131 3h2q17 0 28.5 -9.5t11.5 -22.5v-1q-1 -14 -15.5 -25t-32.5 -12q-64 -3 -123 -3q1 -38 1 -118q0 -14 -13.5 -25.5t-31.5 -13.5h-5
q-17 0 -28.5 9t-11.5 22q0 87 -1 127q-88 2 -144 7q-15 1 -25 10.5t-10 21.5q0 5 1 7z" />
    <glyph glyph-name="comma" unicode="," horiz-adv-x="330" 
d="M73 58q-8 8 -8 17q0 16 20 28q8 6 13 8q30 16 65 16h5q43 -3 68 -33q25 -31 25 -79q0 -53 -33.5 -105.5t-101.5 -85.5q-12 -6 -27 -6q-22 0 -33 13q-5 7 -5 14q0 20 23 31q42 21 64 58.5t22 74.5q0 30 -13 46l-9 7q-4 0 -13 -5q-15 -9 -33 -9q-19 0 -29 10z" />
    <glyph glyph-name="hyphen" unicode="-" horiz-adv-x="600" 
d="M77 349q5 14 21 23t35 9h5q85 -8 199 -8q68 0 143 3h2q18 0 30 -8.5t12 -21.5v-4q-2 -14 -18 -25.5t-36 -12.5q-78 -3 -148 -3q-117 0 -210 8q-16 1 -26.5 10t-10.5 21q0 3 2 9z" />
    <glyph glyph-name="period" unicode="." horiz-adv-x="330" 
d="M231 112q18 -18 18 -41q0 -9 -1 -13q-4 -23 -29.5 -43t-63.5 -20q-35 0 -54.5 18t-19.5 43q0 24 23 50t71 26q8 0 16 -2l16 -4q16 -5 24 -14z" />
    <glyph glyph-name="slash" unicode="/" horiz-adv-x="480" 
d="M409 828q30 -2 30 -24q0 -5 -1 -7q-139 -424 -321 -803q-11 -23 -43 -23q-1 0 -3.5 0.5t-3.5 0.5q-12 1 -19 8.5t-7 16.5q0 3 2 9q182 383 319 797q8 25 44 25h3z" />
    <glyph glyph-name="zero" unicode="0" horiz-adv-x="710" 
d="M562 685q87 -91 87 -269q0 -192 -70.5 -308.5t-197.5 -129.5q-20 -2 -29 -2q-129 0 -210 114t-81 294q0 319 191 411q53 26 111 26q59 0 111.5 -26.5t88.5 -71.5q6 -7 6 -18q0 -12 -7 -20zM459 686q-49 56 -109 56q-28 0 -51 -12q-51 -26 -90.5 -110.5t-39.5 -223.5
q0 -86 21.5 -155t54.5 -107t66.5 -58t62.5 -20h7q17 2 36.5 13t42 37.5t40 64t29.5 98.5t12 135t-22 141t-58 97q-10 9 -10 22t8 22z" />
    <glyph glyph-name="one" unicode="1" horiz-adv-x="630" 
d="M50 610q-4 5 -4 14q0 27 33 40q154 62 225 127q36 21 64 21q31 0 31 -34v-3q-7 -196 -7 -335q0 -107 7 -343q0 -10 18 -13.5t66 -6.5t86 -9q7 -1 22.5 -17.5t15.5 -31.5q0 -28 -64 -28h-2h-72q-129 0 -374 -10h-3q-20 0 -33 9.5t-13 23.5v4q2 16 19.5 28t39.5 13
q182 8 188 8q-2 8 -2 16q-7 238 -7 346q0 118 4 247q-62 -38 -167 -80q-11 -5 -27 -5q-33 0 -44 19z" />
    <glyph glyph-name="two" unicode="2" horiz-adv-x="690" 
d="M101 622q-30 6 -30 32q0 10 5 18q37 60 104.5 98.5t144.5 46.5q26 2 38 2q101 0 168.5 -56.5t67.5 -156.5q0 -69 -43 -132t-105 -110.5t-124 -91t-107.5 -93t-49.5 -98.5q37 -10 148 -10q155 0 267 13h8q20 0 33 -9.5t13 -23.5q0 -16 -16 -29.5t-38 -15.5
q-193 -19 -292 -19q-172 0 -217 41q-15 15 -15 31q0 47 18.5 90.5t48.5 77t69 67t79 60.5t79 57t69 57t48.5 60t18.5 66q0 75 -42.5 110.5t-102.5 35.5q-14 0 -21 -1q-100 -11 -151 -91q-19 -28 -58 -28q-5 0 -15 2z" />
    <glyph glyph-name="three" unicode="3" horiz-adv-x="690" 
d="M78 633q-27 8 -27 31q0 10 7 20q40 56 106.5 91t139.5 43q26 2 37 2q100 0 166.5 -54t66.5 -150q0 -110 -111 -180q71 -15 118.5 -66.5t47.5 -133.5t-39.5 -142t-110.5 -91q-67 -30 -149 -30q-88 0 -166 34.5t-118 90.5q-5 6 -5 16q0 25 31 39q17 7 31 7q28 0 41 -18
q29 -42 86.5 -65t118.5 -23q48 0 84 15q88 38 88 155q0 148 -170 148q-34 0 -86 -6q-55 -5 -58 -5q-29 0 -29 21q0 10 6.5 24t13.5 22l6 9q14 4 45.5 8.5t57 8.5t56.5 15t52.5 26t36 43t14.5 66q0 70 -40.5 103.5t-99.5 33.5q-15 0 -22 -1q-99 -11 -152 -84q-20 -26 -56 -26
q-9 0 -18 3z" />
    <glyph glyph-name="four" unicode="4" 
d="M330 829h8q20 0 33 -9.5t13 -23.5q0 -52 -9.5 -103.5t-28 -99.5t-36 -86.5t-45 -81.5t-42.5 -65.5t-41.5 -57.5t-29.5 -40q57 -9 155 -9q80 0 149 4q0 26 -0.5 81t-0.5 82q0 28 0.5 80t0.5 75q0 16 16 29t38 15h7q20 0 33.5 -10t13.5 -24q0 -23 -0.5 -76t-0.5 -81
t0.5 -83t0.5 -82q25 2 73 6h5q20 0 33.5 -10t13.5 -24v-1q-1 -16 -17.5 -29t-38.5 -14q-12 -1 -35.5 -2.5t-33.5 -2.5q1 -103 5 -169v-1q0 -16 -15 -29t-37 -16q-1 0 -5 -0.5t-5 -0.5q-19 0 -32 9.5t-14 23.5q-4 69 -5 176q-93 -5 -170 -5q-255 0 -255 60q0 21 25 59.5
t61 88t72 108.5t61.5 137t25.5 157q0 16 16 29.5t38 15.5z" />
    <glyph glyph-name="five" unicode="5" horiz-adv-x="710" 
d="M99 154q13 6 28 6q30 0 43 -19q25 -39 79 -63.5t110 -24.5q15 0 22 1q63 6 106.5 49.5t43.5 140.5q0 83 -41 126q-38 39 -111 39q-94 0 -200 -59q-29 -16 -53 -16q-30 0 -30 34v9q22 231 22 319q0 23 -2 61q-1 3 -1 7q0 9 3 17t16 16t34 8q12 0 19 -1q84 -10 186 -10
q116 0 184 10q1 0 5 0.5t5 0.5q19 0 32.5 -9t14.5 -23v-3q0 -15 -14.5 -28t-36.5 -16q-66 -10 -206 -10q-74 0 -131 3v-15q0 -107 -15 -253q94 36 186 36q155 0 213 -104q29 -52 29 -127q0 -120 -72.5 -194t-185.5 -86q-28 -2 -40 -2q-86 0 -160.5 34t-110.5 91q-4 5 -4 14
q0 12 9 23.5t24 17.5z" />
    <glyph glyph-name="six" unicode="6" 
d="M45 262q-13 7 -13 20q0 15 20 32q20 16 30 23q2 1 6.5 4t6.5 5q1 4 2 11t2 11q22 116 93 231.5t189 213.5q21 16 48 16q18 0 29 -7q16 -10 16 -27q0 -16 -15 -28q-181 -150 -240 -344q109 53 204 53q120 0 182.5 -70.5t62.5 -165.5q0 -24 -5 -52q-18 -87 -94.5 -152
t-201.5 -65q-130 0 -200.5 80t-76.5 200h-4q-23 0 -41 11zM199 318v-12q0 -4 -0.5 -11t-0.5 -10q0 -109 52 -172.5t133 -63.5q72 0 116 36.5t57 101.5q4 19 4 41q0 70 -43.5 119.5t-109.5 49.5q-79 0 -186 -65q-12 -7 -22 -14z" />
    <glyph glyph-name="seven" unicode="7" horiz-adv-x="690" 
d="M353 794q72 0 235 10q5 1 12 1q43 0 43 -26q0 -9 -7 -23q-100 -189 -159 -350.5t-109 -386.5q-4 -16 -22.5 -27t-40.5 -11q-19 0 -32.5 10t-13.5 24q0 1 0.5 3t0.5 3q47 212 103 369t144 331q-78 -5 -170 -5q-20 0 -170 9q20 -81 27 -126v-4q0 -13 -12.5 -24.5
t-31.5 -15.5q-4 -1 -12 -1q-37 0 -42 27q-4 28 -40 173q-2 5 -2 12q0 35 54 35h7q168 -7 238 -7z" />
    <glyph glyph-name="eight" unicode="8" horiz-adv-x="695" 
d="M227 428q-77 35 -116 83.5t-39 101.5q0 15 3 30q14 71 87.5 123.5t170.5 52.5q157 0 240 -106q6 -7 6 -17q0 -24 -29 -38q-14 -7 -32 -7q-27 0 -41 16q-61 74 -160 74q-48 0 -87 -28t-48 -70q-2 -12 -2 -18q0 -87 138 -139q4 2 11.5 7.5t11.5 8.5l160 105q19 13 42 13
q21 0 35 -11q11 -8 11 -22q0 -19 -19 -33q-8 -8 -149 -99q108 -36 165.5 -102.5t57.5 -141.5q0 -68 -45 -125q-39 -50 -108 -80t-154 -30q-127 0 -201.5 64.5t-74.5 147.5q0 73 44.5 130.5t121.5 109.5zM325 394q-84 -55 -120 -95.5t-36 -98.5q0 -57 51.5 -101.5
t132.5 -44.5q112 0 160 73q21 31 21 73q0 61 -50.5 114.5t-152.5 78.5q-1 0 -3 0.5t-3 0.5z" />
    <glyph glyph-name="nine" unicode="9" 
d="M675 538q13 -7 13 -20q0 -15 -20 -32q-20 -16 -30 -23q-2 -1 -6.5 -4t-6.5 -5q-1 -4 -2 -11t-2 -11q-22 -116 -93 -231.5t-189 -213.5q-21 -16 -48 -16q-18 0 -29 7q-16 10 -16 27q0 16 15 28q181 150 240 344q-109 -53 -204 -53q-120 0 -182.5 70.5t-62.5 165.5
q0 24 5 52q18 87 94.5 152t201.5 65q130 0 200.5 -80t76.5 -200h4q23 0 41 -11zM521 482v12q0 4 0.5 11t0.5 10q0 109 -52 172.5t-133 63.5q-72 0 -116 -36.5t-57 -101.5q-4 -19 -4 -41q0 -70 43.5 -119.5t109.5 -49.5q79 0 186 65q12 7 22 14z" />
    <glyph glyph-name="colon" unicode=":" horiz-adv-x="330" 
d="M231 592q18 -18 18 -41q0 -9 -1 -13q-4 -23 -29.5 -43t-63.5 -20q-35 0 -54.5 18t-19.5 43q0 24 23 50t71 26q8 0 16 -2l16 -4q16 -5 24 -14zM231 112q18 -18 18 -41q0 -9 -1 -13q-4 -23 -29.5 -43t-63.5 -20q-35 0 -54.5 18t-19.5 43q0 24 23 50t71 26q8 0 16 -2l16 -4
q16 -5 24 -14z" />
    <glyph glyph-name="semicolon" unicode=";" horiz-adv-x="330" 
d="M73 58q-8 8 -8 17q0 16 20 28q8 6 13 8q30 16 65 16h5q43 -3 68 -33q25 -31 25 -79q0 -53 -33.5 -105.5t-101.5 -85.5q-12 -6 -27 -6q-22 0 -33 13q-5 7 -5 14q0 20 23 31q42 21 64 58.5t22 74.5q0 30 -13 46l-9 7q-4 0 -13 -5q-15 -9 -33 -9q-19 0 -29 10zM231 592
q18 -18 18 -41q0 -9 -1 -13q-4 -23 -29.5 -43t-63.5 -20q-35 0 -54.5 18t-19.5 43q0 24 23 50t71 26q8 0 16 -2l16 -4q16 -5 24 -14z" />
    <glyph glyph-name="less" unicode="&#x3c;" horiz-adv-x="600" 
d="M521 80q-17 -15 -43 -15q-15 0 -27 6q-65 37 -176.5 109t-196.5 133q-15 10 -15 24q0 16 26 30q118 65 354 236q18 13 39 13q18 0 30 -9t12 -21q0 -17 -17 -29q-207 -151 -317 -216q196 -136 329 -212q15 -9 15 -23t-13 -26z" />
    <glyph glyph-name="equal" unicode="=" horiz-adv-x="600" 
d="M77 249q5 14 21 23t35 9h5q85 -8 199 -8q68 0 143 3h2q18 0 30 -8.5t12 -21.5v-4q-2 -14 -18 -25.5t-36 -12.5q-78 -3 -148 -3q-117 0 -210 8q-16 1 -26.5 10t-10.5 21q0 3 2 9zM77 449q5 14 21 23t35 9h5q85 -8 199 -8q68 0 143 3h2q18 0 30 -8.5t12 -21.5v-4
q-2 -14 -18 -25.5t-36 -12.5q-78 -3 -148 -3q-117 0 -210 8q-16 1 -26.5 10t-10.5 21q0 3 2 9z" />
    <glyph glyph-name="greater" unicode="&#x3e;" horiz-adv-x="600" 
d="M79 601q16 15 43 15q15 0 27 -6q65 -37 176.5 -109t196.5 -133q15 -10 15 -24q0 -16 -26 -30q-118 -65 -354 -236q-18 -13 -39 -13q-18 0 -30 9t-12 21q0 17 17 29q207 151 317 216q-196 136 -329 212q-15 9 -15 23t13 26z" />
    <glyph glyph-name="question" unicode="?" horiz-adv-x="480" 
d="M229 258q-10 -3 -20 -3q-22 0 -31 20q-17 40 -17 76q0 39 19.5 76t47.5 65.5t56 56t47.5 57.5t19.5 59q0 38 -17 67q-31 52 -104 52q-32 0 -62 -11q-60 -25 -60 -71q0 -22 18 -54q4 -8 4 -13q0 -23 -31 -36q-13 -5 -25 -5q-29 0 -40 18q-23 37 -23 77q0 47 32.5 86
t87.5 60q52 21 112 21q59 0 108 -22.5t75 -65.5q23 -40 23 -93q0 -48 -20.5 -88t-49.5 -67.5t-58 -52.5t-49.5 -54t-20.5 -59q0 -24 11 -49q2 -6 2 -10q0 -25 -35 -37zM301 112q18 -18 18 -41q0 -9 -1 -13q-4 -23 -29.5 -43t-63.5 -20q-35 0 -54.5 18t-19.5 43q0 24 23 50
t71 26q8 0 16 -2l16 -4q16 -5 24 -14z" />
    <glyph glyph-name="at" unicode="@" horiz-adv-x="1020" 
d="M690 345q-10 -88 -10 -125q0 -106 25 -121l14 7q69 43 107.5 121t38.5 166q0 154 -103 245q-83 73 -210 73q-145 0 -250.5 -104t-137.5 -261q-11 -55 -11 -104q0 -155 92 -259t263 -104q42 0 91.5 16t74.5 31q14 8 28 8q18 0 27 -9q7 -7 7 -15q0 -15 -18 -26
q-37 -22 -98 -42.5t-124 -20.5q-108 0 -191.5 34.5t-132.5 94t-73.5 131.5t-24.5 154q0 54 11 111q16 80 55 154t97.5 135t143.5 97.5t183 36.5q161 0 262 -91q58 -52 88.5 -125.5t30.5 -154.5q0 -100 -46 -190t-134 -144q-32 -20 -67 -23h-6q-68 0 -77 118
q-51 -121 -150 -121q-90 0 -131 52.5t-41 131.5q0 37 7 68q10 46 31.5 90.5t55.5 84.5t85.5 64.5t112.5 24.5q40 0 68 -15t39.5 -37.5t15.5 -38t4 -27.5q0 -13 -13.5 -24t-31.5 -13h-7q-16 0 -27 8t-11 19q0 18 -15.5 41t-35.5 23q-60 0 -113 -57.5t-70 -142.5
q-6 -30 -6 -56q0 -60 27 -96t70 -36q33 0 65.5 62t58.5 167q7 31 40 31q8 0 19.5 -4t19.5 -8z" />
    <glyph glyph-name="A" unicode="A" horiz-adv-x="800" 
d="M227 196q-54 -119 -95 -185q-15 -27 -56 -27q-8 0 -12 1q-30 6 -30 29q0 8 4 15q33 55 81 156q-5 -1 -17.5 -2.5t-18.5 -2.5q-4 -1 -12 -1q-17 0 -29 8t-14 20v2q0 13 14.5 25t34.5 16q54 8 76 10q110 250 202 514q4 10 5 14q11 32 43 32q12 0 26 -4.5t22 -9.5l8 -4
q96 -178 179.5 -392t123.5 -346q0 -2 2 -5.5t2 -5.5q2 -8 2 -12q0 -18 -17 -28t-39 -10q-36 0 -47 21q-10 20 -22.5 54.5t-21.5 52.5t-26.5 39t-46.5 30t-72 9q-100 0 -249 -13zM260 269q151 12 234 12q43 0 86 -9q-77 204 -164 387q-89 -239 -156 -390z" />
    <glyph glyph-name="B" unicode="B" horiz-adv-x="790" 
d="M233 353q-1 -58 -2.5 -156t-1.5 -125q26 -13 93 -13q70 0 141 19.5t114 60.5q52 51 59 127q0 2 0.5 7t0.5 8q0 114 -155 114q-22 0 -33 -1q-21 -1 -58 -7q-68 -24 -125 -35q-20 14 -33 31v-30zM233 421l6 3q7 4 19 7q46 17 108 30q45 17 75 31q45 20 70.5 55.5t25.5 74.5
q0 34 -21 63q-40 57 -142 57q-110 0 -270 -74q-15 -7 -34 -7q-27 0 -39 16q-5 6 -5 17q0 24 30 38q190 87 336 87q103 0 170 -42q84 -53 84 -143q0 -93 -88 -164q83 -11 135 -56t52 -122q0 -12 -1 -18q-5 -68 -40.5 -123t-89.5 -88.5t-112.5 -53t-121.5 -26.5q-45 -5 -80 -5
q-132 0 -170 49q-9 11 -9 27q0 19 2 133.5t2 188.5q0 157 -9 220v4q0 15 14 27t35 16q4 1 12 1q18 0 31.5 -8.5t15.5 -21.5q7 -56 9 -192v-1z" />
    <glyph glyph-name="C" unicode="C" horiz-adv-x="740" 
d="M674 178q15 -3 24 -12t9 -21q0 -7 -5 -17q-36 -58 -105 -97.5t-150 -48.5q-15 -2 -44 -2q-148 0 -246.5 104.5t-98.5 302.5q0 189 97 302.5t242 129.5q26 2 38 2q101 0 169.5 -52.5t68.5 -136.5q0 -17 -17 -30.5t-40 -15.5h-8q-21 0 -35 9.5t-14 24.5q0 56 -41 87.5
t-99 31.5q-15 0 -22 -1q-36 -4 -72.5 -23t-72 -56t-58 -104.5t-22.5 -155.5q0 -93 23.5 -162t62 -105.5t79.5 -53t85 -16.5q17 0 25 1q105 12 151 87q18 29 62 29q9 0 14 -1z" />
    <glyph glyph-name="D" unicode="D" horiz-adv-x="800" 
d="M34 675q-8 8 -8 19q0 22 25 36q115 64 236 83q42 7 88 7q147 0 244.5 -82.5t114.5 -243.5q5 -48 5 -82q0 -104 -31.5 -185.5t-86 -131.5t-117.5 -77.5t-134 -35.5q-28 -3 -57 -3q-67 0 -118 16t-68 47q-6 9 -6 22q0 18 2 126.5t2 178.5q0 160 -9 227v4q0 15 14 27t35 16
q4 1 12 1q18 0 31.5 -8.5t15.5 -21.5q9 -69 9 -226q0 -70 -2 -179t-2 -129q25 -21 104 -21q100 0 169 47q128 85 128 294q0 40 -4 76q-15 139 -87 202.5t-178 63.5q-33 0 -66 -6q-96 -16 -186 -66q-16 -9 -35 -9q-26 0 -40 14z" />
    <glyph glyph-name="E" unicode="E" 
d="M694 32q-2 -16 -19.5 -28t-39.5 -13q-34 -1 -142 -8t-160 -7q-104 0 -160.5 24t-56.5 86v10q9 144 13 264q-2 0 -5.5 0.5t-5.5 0.5q-18 1 -30 10.5t-12 23.5q0 5 1 8q4 14 19.5 24t34.5 12q0 15 0.5 47t0.5 48t-0.5 49.5t-0.5 50.5q-1 49 -8.5 68t-26.5 27q-10 3 -13 4
q-1 9 -1 21q0 55 37 55h2q106 -5 224 -5q157 0 265 10h8q20 0 33 -9.5t13 -23.5q0 -16 -16 -29.5t-38 -15.5q-98 -10 -270 -10q-71 0 -111 1q10 -31 10 -81q0 -19 0.5 -55.5t0.5 -53.5q0 -18 -0.5 -52t-0.5 -50q72 -2 100 -2q73 0 195 6h3q20 0 33.5 -9.5t13.5 -23.5v-3
q-2 -16 -19 -28.5t-39 -13.5q-125 -6 -205 -6q-55 0 -84 1q-3 -109 -13 -252v-3q0 -25 26.5 -35t90.5 -10q3 0 304 13h3q20 0 33 -9.5t13 -23.5v-4z" />
    <glyph glyph-name="F" unicode="F" horiz-adv-x="690" 
d="M664 781q0 -16 -16 -29.5t-38 -15.5q-98 -10 -271 -10q-70 0 -110 1q10 -30 10 -81q2 -142 2 -211q72 -2 99 -2q74 0 194 6h3q20 0 33.5 -9.5t13.5 -23.5v-3q-2 -16 -19 -28.5t-39 -13.5q-123 -6 -203 -6q-53 0 -81 1q0 -191 -8 -327q-1 -16 -17.5 -29t-38.5 -14h-5
q-20 0 -33.5 10t-13.5 24v1q8 139 8 339q-2 0 -8 0.5t-8 0.5q-18 1 -30 10.5t-12 23.5q0 5 1 8q4 14 20 24t36 12q-1 32 -1.5 97t-0.5 98q-1 49 -8.5 68t-26.5 27q-10 3 -13 4q-14 4 -14 15q0 10 13 25.5t26 25.5l13 10q106 -5 224 -5q157 0 265 10h8q20 0 33 -9.5t13 -23.5
z" />
    <glyph glyph-name="G" unicode="G" horiz-adv-x="770" 
d="M377 316q-1 3 -1 9q0 13 11.5 25t30.5 17q91 26 168 32q2 0 5.5 0.5t4.5 0.5q14 0 26 -3q93 -18 93 -133q0 -30 -6 -58q-8 -40 -29.5 -78t-57.5 -73.5t-93 -57t-127 -21.5q-154 0 -247.5 110t-93.5 301q0 189 97 302.5t240 128.5q26 2 38 2q100 0 167 -52t67 -136
q0 -16 -16 -29.5t-38 -15.5h-8q-20 0 -33 9.5t-13 23.5q0 57 -41.5 89t-100.5 32q-15 0 -22 -1q-29 -3 -58.5 -15t-61 -38t-55 -63t-39 -95.5t-15.5 -129.5q0 -89 22.5 -157.5t59 -108t79 -59.5t88.5 -20q77 0 123 42t60 110q4 17 4 36q0 29 -8.5 51.5t-16.5 27.5
q-56 -6 -138 -28q-9 -3 -19 -3q-38 0 -46 26z" />
    <glyph glyph-name="H" unicode="H" horiz-adv-x="810" 
d="M661 -9q-1 0 -4 -0.5t-5 -0.5q-19 0 -32 10t-14 24q-4 148 -5 334q-105 -3 -223 -3q-58 0 -162 2q0 -120 -2 -326q0 -16 -16 -29.5t-38 -15.5h-8q-20 0 -33 9.5t-13 23.5q2 214 2 342h-5q-18 1 -30 10.5t-12 23.5q0 5 1 8q8 28 46 35q-2 216 -12 324v3q0 15 14 27t36 16
q4 1 12 1q19 0 31.5 -8.5t14.5 -22.5q10 -115 12 -342q105 -3 224 -3q59 0 161 2q0 27 -0.5 82t-0.5 83t0.5 81.5t0.5 77.5q0 16 16 29.5t38 15.5h8q20 0 33 -9.5t13 -23.5q0 -25 -0.5 -80t-0.5 -83t0.5 -84.5t0.5 -84.5q18 -2 29 -11t11 -22v-3q-2 -13 -13 -24t-27 -15
q1 -181 5 -328v-1q0 -16 -15.5 -28.5t-37.5 -15.5z" />
    <glyph glyph-name="I" unicode="I" horiz-adv-x="460" 
d="M45 38q6 13 24 22t37 9h3q14 -1 39 -2.5t34 -1.5q-4 13 -4 28q0 91 3 245t3 236q0 16 -0.5 48.5t-0.5 50.5q0 17 -2.5 25.5t-11.5 14t-17.5 7t-31 5t-41.5 7.5q-2 0 -6 1t-6 1v5q0 59 40 59h2q80 -3 149 -3q62 0 113 3h5q17 0 28.5 -7.5t11.5 -18.5v-4q-2 -13 -19 -23.5
t-38 -12.5q-7 -1 -81 -3q9 -18 9 -42q0 -18 0.5 -51t0.5 -49q0 -83 -3 -236t-3 -244v-2q0 -20 5 -24t32 -4h8q9 0 63 -2q24 -1 24 -15q0 -8 -8.5 -20.5t-17.5 -20.5l-8 -8q-76 -14 -149 -14q-28 0 -83.5 3t-66.5 3q-16 1 -27 8t-11 18q0 3 2 9z" />
    <glyph glyph-name="J" unicode="J" horiz-adv-x="520" 
d="M412 229q0 -35 -2 -60.5t-11.5 -60t-27 -57t-51 -41t-79.5 -23.5q-10 -1 -31 -1q-64 0 -117 27t-82 65q-5 6 -5 16q0 24 30 38q14 7 32 7q29 0 41 -17q17 -23 52 -40.5t65 -17.5q3 0 8 0.5t7 0.5q33 3 50 36.5t17 114.5q0 278 -20 455q-2 17 -8.5 26t-20 14t-27.5 7
t-40.5 6t-49.5 10v5q0 59 40 59h2q79 -3 149 -3q62 0 113 3h5q18 0 29.5 -8t11.5 -19v-3q-2 -13 -19.5 -23.5t-38.5 -12.5q-9 -1 -27.5 -1.5t-28.5 -0.5q11 -17 14 -41q20 -183 20 -460z" />
    <glyph glyph-name="K" unicode="K" horiz-adv-x="770" 
d="M124 807q6 2 19 2q37 0 45 -25q20 -67 28 -240q114 64 218 133.5t156 114.5q19 17 47 17q19 0 30 -7q17 -8 17 -26q0 -15 -14 -28q-65 -57 -186.5 -135.5t-256.5 -149.5q84 -38 173.5 -102t160 -130.5t110 -107.5t62.5 -69q6 -7 6 -17q0 -24 -28 -38q-18 -8 -35 -8
q-27 0 -39 15q-26 31 -77 84.5t-151 139.5t-188 137q3 -145 3 -336q0 -16 -16 -29.5t-38 -15.5h-8q-20 0 -33 9.5t-13 23.5q0 215 -5 400q-3 1 -13 4q-39 6 -39 23q0 15 40 35l5 2.5t4 2.5q-8 211 -26 270q-1 2 -1 8q0 14 12 26.5t31 16.5z" />
    <glyph glyph-name="L" unicode="L" horiz-adv-x="650" 
d="M624 32q-2 -16 -19.5 -28t-39.5 -13q-39 -2 -132.5 -8t-135.5 -6q-90 0 -135.5 23t-45.5 84v12q18 276 18 418q0 141 -13 242v4q0 15 14 27t35 16q4 1 12 1q18 0 31.5 -8.5t15.5 -21.5q13 -95 13 -249q0 -142 -18 -421v-10q0 -23 13.5 -31t54.5 -8q22 0 60 2t101 6t122 6
h3q20 0 33 -9.5t13 -23.5v-4z" />
    <glyph glyph-name="M" unicode="M" horiz-adv-x="890" 
d="M110 -19h-3q-20 0 -33 9.5t-13 23.5v4q21 174 36 632q1 20 2.5 55.5t1.5 49.5q47 38 80 38q17 0 25 -14q13 -22 51 -92q33 -60 66 -128.5t52.5 -111.5t45.5 -103.5t32 -73.5q6 14 51 118t90.5 201.5t95.5 194.5q42 21 71 21q28 0 28 -24q0 -5 0.5 -15t0.5 -15
q11 -507 39 -712v-4q0 -15 -14 -27t-35 -16q-4 -1 -12 -1q-18 0 -31.5 8.5t-15.5 21.5q-21 160 -35 577q-49 -99 -95 -208.5t-69.5 -162.5t-41.5 -69q-24 -21 -43 -21q-16 0 -32 16q-14 13 -35.5 65t-67 158t-100.5 210q-15 -418 -33 -564q-2 -16 -19.5 -28t-39.5 -13z" />
    <glyph glyph-name="N" unicode="N" horiz-adv-x="810" 
d="M160 -14h-8q-20 0 -33 9.5t-13 23.5q0 28 0.5 87.5t0.5 90.5q0 362 -15 550q0 3 -0.5 8t-0.5 7q45 42 79 42q16 0 24 -12q66 -90 225.5 -331t188.5 -284v72q0 368 -12 508v3q0 15 14.5 28t36.5 16q1 0 5 0.5t5 0.5q19 0 32.5 -9t14.5 -23q12 -149 12 -515q0 -113 -2 -223
q-1 -43 -46 -43q-11 0 -24 3t-20 5l-8 3l-10 10q-21 24 -84 119.5t-155.5 236.5t-156.5 233q5 -133 5 -356q0 -38 -0.5 -110t-0.5 -105q0 -16 -16 -29.5t-38 -15.5z" />
    <glyph glyph-name="O" unicode="O" horiz-adv-x="820" 
d="M588 623q-19 57 -67 88t-105 31q-28 0 -52 -7q-35 -9 -67 -31.5t-62 -61.5t-48 -102t-18 -143q0 -87 24 -155t63 -107t81.5 -58.5t85.5 -19.5q13 0 19 1q36 4 71 23.5t68 56t53 99t20 141.5q0 55 -21 113.5t-37 67.5q-29 9 -29 32q0 9 5 17q6 9 16 15zM681 616
q41 -31 61 -94t20 -132q0 -173 -89.5 -284t-230.5 -126q-26 -2 -38 -2q-147 0 -245 110.5t-98 296.5q0 170 77 280t203 144q47 12 92 12q93 0 164.5 -46t96.5 -123q1 -3 1 -8q0 -16 -14 -28z" />
    <glyph glyph-name="P" unicode="P" horiz-adv-x="745" 
d="M174 -24h-7q-20 0 -33 9.5t-13 23.5v1q4 108 4 252v77q-36 11 -72 26q-22 9 -22 29q0 13 10 24q19 21 53 21q14 0 23 -4q1 -1 2.5 -1t2.5 -1q-3 95 -11 163v4q0 15 14 27t35 16q4 1 12 1q18 0 31.5 -8.5t15.5 -21.5q11 -73 14 -217q69 -18 130 -18q119 0 181 68
q43 47 43 115q0 53 -29 97.5t-83 66.5q-44 18 -101 18q-119 0 -274 -76q-14 -7 -32 -7q-27 0 -41 16q-6 7 -6 17q0 24 29 38q186 91 341 91q80 0 147 -27q78 -31 119 -90.5t41 -129.5q0 -92 -66 -164q-100 -110 -287 -110q-55 0 -111 10q0 -135 -5 -292q-1 -16 -17 -29
t-38 -15z" />
    <glyph glyph-name="Q" unicode="Q" horiz-adv-x="820" 
d="M542 93q57 37 92.5 108.5t35.5 178.5q0 64 -22.5 99t-54.5 35q-28 0 -53 -26.5t-37 -86.5q-7 -35 -7 -81q0 -117 46 -227zM455 58q-53 126 -53 254q0 52 8 89q16 78 63 131.5t134 53.5q45 0 77 -18t49 -48t24.5 -62t7.5 -68q0 -123 -51.5 -218.5t-138.5 -144.5
q72 -124 179 -165q20 -8 20 -26q0 -12 -9 -22q-18 -20 -49 -20q-12 0 -20 4q-126 53 -208 195q-26 -6 -44 -8q-14 -2 -41 -2q-147 0 -244.5 109t-97.5 293q0 170 77 280t203 144q47 12 92 12q93 0 164.5 -46t96.5 -123q1 -3 1 -8q0 -14 -11.5 -26t-30.5 -17q-9 -3 -19 -3
q-38 0 -46 26q-19 57 -66.5 87.5t-105.5 30.5q-28 0 -52 -7q-35 -9 -67 -31.5t-62 -61.5t-48 -102t-18 -143q0 -87 24.5 -155t63.5 -107t82.5 -59t87.5 -20q11 0 17 1q7 0 11 1z" />
    <glyph glyph-name="R" unicode="R" horiz-adv-x="770" 
d="M174 -24h-7q-20 0 -33 9.5t-13 23.5v1q4 104 4 245q0 233 -14 341v4q0 15 14 27t35 16q4 1 12 1q18 0 31.5 -8.5t15.5 -21.5q10 -68 13 -188q14 14 31 14q10 0 21 -4q75 -25 136 -25q52 0 89 17q42 19 66.5 59.5t24.5 86.5q0 53 -31 94q-57 77 -181 77q-123 0 -289 -77
q-14 -7 -32 -7q-29 0 -41 17q-5 6 -5 16q0 24 30 38q196 90 353 90q91 0 158.5 -29t104.5 -80q43 -58 43 -131q0 -66 -38.5 -124.5t-114.5 -93.5q-70 -32 -153 -32h-7q221 -211 330 -293q12 -9 12 -23q0 -19 -19 -32q-17 -13 -43 -13q-21 0 -34 10q-129 95 -410 369v-77
q0 -145 -4 -253q-1 -16 -17 -29t-38 -15z" />
    <glyph glyph-name="S" unicode="S" horiz-adv-x="690" 
d="M103 199q12 3 23 3q34 0 43 -23q50 -123 201 -123q101 0 152 68q28 37 28 79q0 41 -28.5 75t-86.5 52q-97 33 -214 74q-82 27 -124 77t-42 109q0 16 3 32q17 82 107 141t220 59q99 0 156.5 -51.5t57.5 -122.5q0 -7 -2 -23t-20 -28t-40 -13h-2q-20 0 -33 9.5t-13 23.5v4
q1 5 1 15q0 45 -35 76.5t-86 31.5q-86 0 -139.5 -35t-63.5 -87q-2 -14 -2 -20q0 -37 28.5 -69t86.5 -51q24 -8 109.5 -38t102.5 -36q83 -27 125.5 -78.5t42.5 -113.5q0 -64 -44 -122q-40 -51 -108.5 -83.5t-152.5 -32.5q-110 0 -184 46t-105 123q-2 6 -2 10q0 13 11 25
t29 17z" />
    <glyph glyph-name="T" unicode="T" horiz-adv-x="710" 
d="M679 772q-2 -16 -19.5 -28t-39.5 -13q-200 -9 -223 -9q6 -15 7 -34q8 -116 8 -347q0 -136 -3 -316q0 -16 -16 -29t-39 -15h-7q-19 0 -32.5 10t-13.5 24q3 180 3 315q0 227 -8 342q-1 16 -6 24t-10.5 10t-16.5 3q-20 2 -73.5 5t-89.5 8.5t-53 15.5q-27 16 -27 31
q0 12 15 21.5t30 13.5l15 4q16 2 30 2q17 0 106 -5t161 -5q4 0 253 9h2q20 0 33.5 -9.5t13.5 -23.5v-4z" />
    <glyph glyph-name="U" unicode="U" horiz-adv-x="810" 
d="M651 799h8q20 0 33.5 -9.5t13.5 -23.5q1 -84 7 -237t6 -203q0 -62 -10 -112q-21 -105 -98.5 -171.5t-213.5 -66.5q-158 0 -232 83.5t-74 254.5q0 44 5.5 205t5.5 235q0 16 16 29.5t38 15.5h8q20 0 33 -9.5t13 -23.5q0 -76 -5.5 -237t-5.5 -203q0 -155 52 -213.5
t162 -58.5q85 0 128.5 37.5t60.5 122.5q9 45 9 100q0 48 -6 201t-7 239q0 16 15.5 29.5t37.5 15.5z" />
    <glyph glyph-name="V" unicode="V" horiz-adv-x="790" 
d="M717 791q18 -1 30 -10.5t12 -23.5q0 -5 -1 -8q-33 -110 -122 -329.5t-191 -408.5q-38 -32 -69 -32q-25 0 -34 27q-2 8 -4 13q-64 188 -149 400.5t-154 325.5q-4 5 -4 14q0 27 33 40q11 5 27 5q33 0 44 -19q103 -170 272 -643q80 165 150 345t95 268q4 15 22.5 25.5
t39.5 10.5h3z" />
    <glyph glyph-name="W" unicode="W" horiz-adv-x="1080" 
d="M1004 799q18 -1 29.5 -11t11.5 -23q0 -4 -2 -10q-20 -56 -38.5 -114.5t-41.5 -141t-36.5 -131.5t-45 -171t-45.5 -174q-44 -33 -76 -33q-21 0 -28 20q0 2 -1 5t-2 5q-19 52 -92 275.5t-106 312.5q-30 -90 -99 -316.5t-86 -275.5q-45 -29 -76 -29q-24 0 -29 21
q-119 479 -204 738q-1 3 -1 8q0 14 11.5 26t30.5 17q9 3 19 3q38 0 46 -26q76 -233 165 -605q13 42 39 132t43.5 148.5t38.5 126t35 108t21 52.5q21 36 48 36q12 0 23.5 -6.5t17.5 -13.5l6 -6q34 -52 204 -578q4 16 22 92.5t23.5 99t20.5 85t23 92t21 77t24.5 83t23.5 68.5
q14 34 57 34h5z" />
    <glyph glyph-name="X" unicode="X" horiz-adv-x="770" 
d="M117 793q15 6 30 6q30 0 42 -18q106 -157 188 -268q122 155 216 264q20 23 54 23q7 0 21 -4q24 -9 24 -30q0 -12 -9 -23q-146 -173 -249 -307q134 -180 298 -369q7 -8 7 -19q0 -22 -27 -36q-18 -8 -34 -8q-26 0 -40 15q-140 162 -269 331q-74 -98 -241 -334
q-17 -25 -56 -25q-12 0 -18 2q-28 8 -28 32q0 10 6 19q160 226 279 383q-88 119 -220 312q-5 8 -5 16q0 24 31 38z" />
    <glyph glyph-name="Y" unicode="Y" horiz-adv-x="710" 
d="M642 799q17 -1 27.5 -10.5t10.5 -22.5q0 -6 -3 -12q-68 -159 -146 -282q-23 -36 -50.5 -76t-38.5 -56.5t-19.5 -36t-8.5 -38.5q-1 -24 -1 -71q0 -79 6 -166v-3q0 -15 -14.5 -28t-36.5 -16q-2 0 -5 -0.5t-5 -0.5q-19 0 -32.5 9t-14.5 23q-6 88 -6 171q0 48 1 72q0 24 8 50
q-70 36 -137 143q-83 129 -145 307q-2 6 -2 9q0 14 11.5 26t30.5 17q10 3 20 3q38 0 46 -25q58 -168 139 -295q59 -90 78 -108q2 3 31 44.5t47 69.5q74 116 140 270q6 14 24 23.5t38 9.5h7z" />
    <glyph glyph-name="Z" unicode="Z" horiz-adv-x="730" 
d="M699 51q-2 -17 -22 -30.5t-46 -15.5q-192 -18 -325 -18q-270 0 -270 71q0 27 23.5 72t75.5 115.5t100 130.5t133.5 165.5t138.5 173.5q-109 -6 -199 -6q-85 0 -207 6q-20 2 -32.5 10t-12.5 21q0 6 3 12q7 16 29 26.5t46 10.5h5q119 -6 198 -6q98 0 279 11h14q49 0 49 -22
q0 -6 -3.5 -13.5t-7.5 -11.5l-3 -4q-55 -70 -139.5 -177t-135 -171t-105 -135t-83.5 -115t-36 -66q43 -11 189 -11q171 0 284 11h9q22 0 36.5 -9t14.5 -23v-2z" />
    <glyph glyph-name="bracketleft" unicode="[" horiz-adv-x="360" 
d="M299 -60q-2 -12 -15.5 -20.5t-29.5 -8.5q-3 0 -45 -1t-74 -1h-27q-15 0 -24 7.5t-9 17.5v1q17 239 17 472q0 264 -21 446v5q0 31 43 31h4q58 -2 101 -2q35 0 43 1h5q14 0 23.5 -7t9.5 -17v-1q-1 -12 -13 -20.5t-29 -10.5q-34 -2 -72 -2h-33q18 -173 18 -424
q0 -225 -15 -440q27 0 65.5 1.5t44.5 1.5q14 0 23.5 -7t9.5 -18v-4z" />
    <glyph glyph-name="backslash" unicode="\" horiz-adv-x="480" 
d="M71 827q10 2 14 2q28 0 34 -19q140 -424 319 -797q2 -6 2 -8q0 -20 -28 -31q-9 -3 -17 -3q-25 0 -33 16q-185 389 -321 803q-1 2 -1 6q0 22 31 31z" />
    <glyph glyph-name="bracketright" unicode="]" horiz-adv-x="360" 
d="M61 858q2 12 15.5 20.5t29.5 8.5q3 0 45 1t74 1h27q15 0 24 -7.5t9 -17.5v-1q-17 -239 -17 -472q0 -264 21 -446v-5q0 -31 -43 -31h-4q-58 2 -101 2q-35 0 -43 -1h-5q-14 0 -23.5 7t-9.5 17v1q1 12 13 20.5t29 10.5q34 2 72 2h33q-18 173 -18 424q0 225 15 440
q-27 0 -65.5 -1.5t-44.5 -1.5q-14 0 -23.5 7t-9.5 18v4z" />
    <glyph glyph-name="asciicircum" unicode="^" horiz-adv-x="510" 
d="M288 834q57 -57 119.5 -145.5t75.5 -115.5q-1 -5 -3 -12t-11.5 -18.5t-21.5 -11.5q-10 0 -20 6q-12 7 -38.5 36t-66.5 76t-66 75q-6 -7 -23 -26t-24.5 -27.5t-22.5 -25t-23 -25.5t-20.5 -22t-20.5 -20.5t-17 -16.5t-16 -14.5t-13 -8.5q-17 -6 -32 -6q-21 0 -21 15
q0 6 5 18q11 25 193 261q14 23 36 23q16 0 31 -15z" />
    <glyph glyph-name="underscore" unicode="_" horiz-adv-x="600" 
d="M32 -21q5 14 21 23t35 9h5q76 -7 274 -7q112 0 158 2h2q18 0 30 -8.5t12 -21.5v-4q-2 -14 -18 -25.5t-36 -12.5q-84 -3 -188 -3q-169 0 -260 8q-16 1 -26.5 10t-10.5 21q0 3 2 9z" />
    <glyph glyph-name="grave" unicode="`" horiz-adv-x="360" 
d="M27 798l26 30q15 20 36 20q15 0 30 -14q58 -55 125.5 -141t78.5 -110q-2 -42 -27 -42q-9 0 -19 6q-12 7 -56 46.5t-101 91.5t-91 79q-9 8 -9 18q0 7 7 16z" />
    <glyph glyph-name="a" unicode="a" horiz-adv-x="675" 
d="M535 360q45 -290 93 -301q26 -6 26 -29q0 -11 -5 -17q-17 -24 -47 -24q-5 0 -15 2q-35 10 -58 45.5t-43 113.5q-24 -77 -72 -124t-136 -47q-115 0 -169 73t-54 180q0 46 9 88q11 54 35 104.5t61.5 96t95 73t125.5 27.5q39 0 69 -13.5t45.5 -31.5t25 -41.5t11.5 -37.5
t2 -25q0 -14 -14.5 -26t-34.5 -14h-7q-18 0 -30 8.5t-12 21.5q0 24 -20.5 55.5t-48.5 31.5q-68 0 -126 -64t-79 -165q-8 -42 -8 -76q0 -85 38.5 -139t99.5 -54q45 0 79 45t51 130q11 58 14 110q1 12 10 24t22 12q18 0 35 -3t25 -6z" />
    <glyph glyph-name="b" unicode="b" horiz-adv-x="660" 
d="M209 542q-3 6 -3 12q0 24 31 37q69 26 129 26h2q60 0 106 -23t72.5 -61.5t39 -84.5t12.5 -98q0 -44 -9 -86q-10 -52 -34 -100t-62 -91t-96.5 -68.5t-128.5 -25.5q-75 0 -128.5 43.5t-53.5 102.5q0 53 1 170t1 175q0 264 -12 331v4q0 14 12 25t31 15q4 1 12 1
q17 0 29 -7.5t14 -19.5q13 -75 13 -312q0 -62 -1.5 -188.5t-1.5 -183.5q0 -33 32.5 -58.5t65.5 -25.5q77 0 133.5 58t76.5 155q7 35 7 72q0 90 -42 150t-105 60q-34 0 -79 -17q-13 -5 -25 -5q-28 0 -39 18z" />
    <glyph glyph-name="c" unicode="c" horiz-adv-x="590" 
d="M527 141q30 -6 30 -31q0 -8 -5 -16q-28 -46 -82 -76.5t-118 -37.5q-22 -2 -34 -2q-114 0 -189.5 80.5t-75.5 231.5q0 144 75.5 232t188.5 100q20 2 29 2q79 0 132.5 -41.5t53.5 -107.5q0 -15 -15.5 -27.5t-36.5 -14.5h-7q-19 0 -32 9.5t-13 22.5q0 39 -28.5 61t-67.5 22
q-10 0 -15 -1q-25 -3 -50 -16t-51 -39.5t-42.5 -76.5t-16.5 -115q0 -69 17 -120t45 -77t57 -37.5t59 -11.5q12 0 17 1q73 8 106 61q17 27 54 27q5 0 15 -2z" />
    <glyph glyph-name="d" unicode="d" horiz-adv-x="710" 
d="M518 875q2 0 5 0.5t5 0.5q17 0 28.5 -8t12.5 -21q3 -47 3 -145q0 -55 -1.5 -169t-1.5 -152v-45q3 -113 26 -192q9 -30 22.5 -53t23 -32t14.5 -10q29 -6 29 -29q0 -8 -4 -15q-16 -26 -51 -26q-6 0 -14 2q-71 18 -106 139q-1 2 -1 4t-1 4q-31 -65 -76.5 -107t-122.5 -42
q-53 0 -97 18t-72 47t-47.5 68t-27.5 79.5t-8 83.5q0 39 8 82q10 48 31.5 92t57 82.5t89.5 61.5t120 23q67 0 112 -30v106q0 96 -3 141v1q0 14 13.5 26t33.5 15zM471 422q-26 122 -123 122q-69 0 -119.5 -50t-67.5 -137q-7 -32 -7 -72q0 -100 48.5 -167t119.5 -67
q27 0 56.5 24.5t53.5 75.5q26 55 41 134q-2 26 -2 39v47v51z" />
    <glyph glyph-name="e" unicode="e" horiz-adv-x="620" 
d="M172 229q15 -75 52 -116.5t83 -54.5q21 -6 43 -6q40 0 75.5 17.5t55.5 47.5q17 24 51 24q6 0 16 -2q27 -8 27 -29q0 -10 -6 -17q-35 -51 -99.5 -82t-135.5 -31q-40 0 -74 10q-75 20 -124.5 79t-64.5 156q-31 7 -31 28v3q2 20 26 32v14q0 135 76 220t190 99q24 2 35 2
q84 0 140.5 -46t56.5 -122q0 -186 -320 -220zM164 299q54 4 80 7q119 13 170.5 42t51.5 97q0 53 -34 80t-81 27q-11 0 -17 -1q-28 -3 -55.5 -17.5t-54.5 -40.5t-43.5 -73t-16.5 -107v-12v-2z" />
    <glyph glyph-name="f" unicode="f" horiz-adv-x="460" 
d="M215 -20h-7q-18 0 -30 8.5t-12 21.5q0 15 0.5 43.5t0.5 42.5q0 226 -18 427q-41 1 -92 6q-16 1 -26.5 10t-10.5 21q0 3 2 9q5 14 21 23t35 9h5q41 -4 64 -5q-10 68 -14 101q-1 6 -1 18q0 78 63 122q50 37 119 37q82 0 154 -52q11 -8 11 -21q0 -17 -17 -29
q-18 -13 -40 -13q-18 0 -30 9q-47 35 -89 35q-27 0 -44 -13q-31 -23 -31 -66q0 -2 0.5 -5.5t0.5 -5.5q2 -36 8 -120q50 0 128 3h2q18 0 30 -8.5t12 -21.5v-4q-2 -14 -18 -25.5t-36 -12.5q-63 -3 -107 -3q17 -204 17 -415q0 -14 -0.5 -42.5t-0.5 -43.5q0 -14 -14.5 -26
t-34.5 -14z" />
    <glyph glyph-name="g" unicode="g" horiz-adv-x="640" 
d="M534 356q43 -167 43 -299q0 -64 -10 -114q-18 -92 -77.5 -150.5t-161.5 -58.5q-56 0 -104.5 20.5t-73.5 55.5q-5 7 -5 14q0 23 29 36q14 6 27 6q26 0 39 -16q31 -44 102 -44q51 0 84.5 31t48.5 106q13 63 13 135q0 49 -5 88q-58 -187 -205 -187q-115 0 -169 73t-54 180
q0 46 9 88q11 54 35 104.5t61.5 96t95 73t125.5 27.5q39 0 69 -13.5t45.5 -31.5t25 -41.5t11.5 -37.5t2 -25q0 -14 -14.5 -26t-34.5 -14h-7q-18 0 -30 8.5t-12 21.5q0 24 -20.5 55.5t-48.5 31.5q-68 0 -126 -64t-79 -165q-8 -42 -8 -76q0 -85 38.5 -139t99.5 -54q45 0 79 45
t51 130q11 58 14 110q1 16 10 28t26 12q11 0 26.5 -5t25.5 -10z" />
    <glyph glyph-name="h" unicode="h" horiz-adv-x="660" 
d="M128 -14q-11 0 -19 9t-8 20q-1 233 -13 496.5t-26 299.5q-2 6 -2 9q0 26 37 38q9 3 20 3q33 0 41 -22q23 -56 34 -414q66 196 235 196q50 0 82.5 -19.5t48 -57.5t21 -77.5t5.5 -96.5q0 -77 5 -339q0 -14 -14 -26.5t-34 -14.5h-8q-18 0 -30 8t-12 21q-5 263 -5 341
q0 101 -21 145t-52 44q-120 0 -169 -225q-11 -49 -18.5 -86.5t-12 -72.5t-6 -49.5t-4.5 -53.5t-4 -50q-40 -26 -71 -26z" />
    <glyph glyph-name="i" unicode="i" horiz-adv-x="330" 
d="M231 842q18 -18 18 -41q0 -9 -1 -13q-4 -23 -29.5 -43t-63.5 -20q-35 0 -54.5 18t-19.5 43q0 24 23 50t71 26q8 0 16 -2l16 -4q16 -5 24 -14zM223 -8q-18 -13 -41 -13q-16 0 -29 8q-44 31 -44 111q0 18 2 60q2 69 2 175q0 41 -2 231q0 14 14.5 26.5t34.5 14.5h8
q17 0 29 -8t12 -21q2 -190 2 -232q0 -106 -2 -176v-23q0 -91 18 -102q12 -9 12 -22q0 -17 -16 -29z" />
    <glyph glyph-name="j" unicode="j" horiz-adv-x="330" 
d="M231 842q18 -18 18 -41q0 -9 -1 -13q-4 -23 -29.5 -43t-63.5 -20q-35 0 -54.5 18t-19.5 43q0 24 23 50t71 26q8 0 16 -2l16 -4q16 -5 24 -14zM162 605q2 0 5 0.5t5 0.5q17 0 28.5 -8t13.5 -21q20 -227 20 -562q0 -105 -35 -166t-111 -90q-13 -5 -25 -5q-28 0 -39 18
q-3 6 -3 12q0 24 31 37q40 15 62 53.5t22 130.5q0 334 -20 558v3q0 14 13.5 25t32.5 14z" />
    <glyph glyph-name="k" unicode="k" horiz-adv-x="610" 
d="M107 843q9 3 20 3q33 0 41 -22q22 -56 31 -410q165 91 260 176q18 16 45 16q14 0 25 -6q15 -9 15 -24q0 -14 -13 -26q-96 -84 -319 -203q61 -30 126.5 -77.5t115.5 -95t80 -79t45 -49.5q6 -8 6 -16q0 -21 -27 -34q-13 -7 -30 -7q-25 0 -37 15q-147 175 -289 261
q2 -166 2 -240q0 -14 -14.5 -26t-34.5 -14h-7q-18 0 -30 8.5t-12 21.5q0 90 -4 296l-1 1h-1q-36 6 -36 21q0 14 36 31q-11 391 -28 432q-2 6 -2 9q0 26 37 38z" />
    <glyph glyph-name="l" unicode="l" horiz-adv-x="340" 
d="M315 3q-17 -26 -52 -26q-6 0 -14 2q-137 33 -143 166q-5 126 -5 270q0 13 5 385q0 14 14.5 26t34.5 14h7q18 0 30 -8.5t12 -21.5q-5 -373 -5 -385q0 -142 5 -268q1 -31 9 -52.5t23 -32.5t26.5 -16t28.5 -9q29 -6 29 -29q0 -7 -5 -15z" />
    <glyph glyph-name="m" unicode="m" horiz-adv-x="945" 
d="M453 -10q-11 0 -19 9t-8 20q0 59 2.5 149.5t2.5 121.5q0 105 -12 164t-30 77t-46 18q-44 0 -79.5 -44t-49.5 -139q-12 -77 -17.5 -138.5t-8.5 -134t-4 -86.5q-35 -26 -71 -26q-11 0 -19 9t-8 20q-3 411 -20 562v3q0 14 13 25.5t32 14.5q4 1 10 1q35 0 38 -28
q5 -51 8 -127q52 160 190 160q67 0 103 -37t51 -110q53 147 186 147q43 0 74 -15.5t50 -42t30 -69t14.5 -87.5t3.5 -107q0 -33 -2.5 -123.5t-2.5 -146.5q0 -14 -14.5 -26t-34.5 -14h-7q-18 0 -30 8.5t-12 21.5q0 57 2.5 147.5t2.5 122.5q0 105 -12 164t-30 77t-46 18
q-44 0 -79.5 -44t-49.5 -139q-12 -78 -17.5 -135.5t-8.5 -130.5t-4 -84q-35 -26 -71 -26z" />
    <glyph glyph-name="n" unicode="n" horiz-adv-x="655" 
d="M125 -15q-14 0 -24 9t-10 21q-2 453 -39 551q-2 6 -2 9q0 26 37 38q9 3 20 3q33 0 41 -22q19 -49 30 -195q13 45 29.5 80t43.5 69.5t69.5 53.5t96.5 19q50 0 82.5 -19.5t48 -57.5t21 -77.5t5.5 -96.5q0 -77 5 -339q0 -14 -14 -26.5t-34 -14.5h-8q-18 0 -30 8t-12 21
q-5 263 -5 341q0 101 -21 145t-52 44q-115 0 -164 -225q-26 -118 -34.5 -174.5t-15.5 -139.5q-33 -25 -64 -25z" />
    <glyph glyph-name="o" unicode="o" horiz-adv-x="650" 
d="M451 471q-14 40 -48 60.5t-74 20.5q-17 0 -37 -5q-53 -15 -95.5 -75.5t-42.5 -171.5q0 -65 18 -115t46.5 -78t59 -42t60.5 -14q2 0 6 0.5t6 0.5q56 6 103.5 63.5t47.5 169.5q0 39 -14 81t-26 50q-25 8 -25 28q0 10 5 16q3 6 10 11zM541 465q58 -51 58 -170
q0 -131 -68.5 -216.5t-179.5 -97.5q-20 -2 -31 -2q-114 0 -189 85t-75 226q0 130 58.5 214t157.5 110q36 10 73 10q72 0 128 -36t75 -95q1 -2 1 -7q0 -10 -8 -21z" />
    <glyph glyph-name="p" unicode="p" horiz-adv-x="675" 
d="M142 -246h-5q-18 0 -29.5 9.5t-11.5 22.5v1q7 92 7 302q0 85 -2 175q-3 103 -19 185.5t-41 115.5q-5 8 -5 15q0 21 27 34q13 6 28 6q23 0 33 -15q29 -45 43 -129q55 145 195 145q67 0 117.5 -26t79.5 -70.5t43.5 -96t14.5 -108.5q0 -42 -8 -85q-10 -47 -30.5 -89
t-53.5 -79.5t-84 -60t-113 -22.5q-78 0 -130 49v-65q0 -119 -4 -175q-1 -14 -16.5 -25.5t-35.5 -13.5zM197 174q15 -50 51.5 -84t93.5 -34q60 0 106 47.5t63 131.5q7 34 7 72q0 100 -48.5 171t-121.5 71q-105 0 -145 -201q-6 -32 -9 -47z" />
    <glyph glyph-name="q" unicode="q" horiz-adv-x="660" 
d="M446 58q3 -6 3 -12q0 -24 -31 -37q-69 -26 -130 -26q-62 0 -108.5 23t-73 62t-39.5 85.5t-13 99.5q0 45 9 86q10 52 34 99.5t61.5 89.5t95.5 67.5t128 25.5q75 0 128.5 -43.5t53.5 -102.5q0 -79 -6 -236t-6 -222q0 -177 21 -203q1 0 1 1l2 1q16 10 35 10q21 0 34 -11
q9 -9 9 -20q0 -19 -20 -31q-40 -25 -79 -25q-10 0 -15 1q-32 5 -43 19q-26 30 -34.5 90t-8.5 158q0 66 6 223.5t6 234.5q0 33 -32.5 58.5t-65.5 25.5q-76 0 -132 -57.5t-75 -152.5q-7 -35 -7 -73q0 -91 42 -151.5t106 -60.5q35 0 80 17q13 5 25 5q28 0 39 -18z" />
    <glyph glyph-name="r" unicode="r" horiz-adv-x="480" 
d="M186 -13q-10 0 -17 8.5t-8 18.5q-1 25 -3.5 88t-4 88.5t-6 71.5t-11.5 89q-12 76 -40.5 127t-58.5 58q-27 6 -27 29q0 9 6 17q17 24 52 24q5 0 15 -2q83 -23 116 -151q34 161 152 168h12q51 0 102 -32q14 -8 14 -23q0 -16 -14 -27q-18 -15 -43 -15q-17 0 -27 7
q-29 18 -50 18q-11 0 -26.5 -17.5t-30.5 -57.5t-19 -92q-8 -112 -8 -207v-28q0 -67 -2 -132q-31 -28 -73 -28z" />
    <glyph glyph-name="s" unicode="s" horiz-adv-x="560" 
d="M92 158q9 3 20 3q33 0 41 -22q34 -87 143 -87q76 0 111 46q19 25 19 52q0 30 -22 55.5t-65 39.5l-160 55q-63 21 -95.5 60t-32.5 85q0 16 2 24q13 64 83 110.5t171 46.5q78 0 123 -40.5t45 -96.5q0 -12 -1 -18q-2 -14 -18 -25t-36 -12h-2q-18 0 -30 9t-12 22v4q1 4 1 11
q0 31 -24.5 52.5t-59.5 21.5q-65 0 -103 -24.5t-45 -60.5q-1 -4 -1 -12q0 -26 22 -49.5t65 -37.5q19 -6 84.5 -29t75.5 -26q64 -20 97 -60t33 -88q0 -52 -35 -96q-31 -40 -84.5 -65.5t-119.5 -25.5q-85 0 -143 36t-82 95q-2 6 -2 9q0 26 37 38z" />
    <glyph glyph-name="t" unicode="t" horiz-adv-x="460" 
d="M178 750q2 0 5 0.5t5 0.5q17 0 28.5 -8t12.5 -21q1 -14 1 -43q0 -15 -0.5 -43t-0.5 -43q53 0 131 3h2q18 0 30 -8.5t12 -21.5v-4q-2 -14 -18 -25.5t-36 -12.5q-46 -2 -116 -2q-1 -55 -5.5 -179.5t-4.5 -187.5q0 -65 39 -93q15 -11 29 -11q26 0 70 32q18 13 40 13
q18 0 30 -9t12 -22q0 -16 -16 -28q-74 -55 -152 -55q-51 0 -88 26q-62 45 -62 137q0 63 5 190t5 189q-54 2 -84 5q-16 1 -26.5 10t-10.5 21q0 3 2 9q5 14 21 23t35 9h5q39 -4 62 -5q0 2 -9 112v1q0 14 13.5 26t33.5 15z" />
    <glyph glyph-name="u" unicode="u" horiz-adv-x="670" 
d="M559 592q4 -276 24.5 -393.5t61.5 -153.5q9 -9 9 -19q0 -19 -20 -31q-17 -11 -39 -11q-20 0 -30 11q-48 54 -67 178q-61 -194 -220 -194q-97 0 -147 67t-50 184q0 30 0.5 87.5t0.5 84.5q0 109 -6 165v3q0 14 13.5 25.5t32.5 14.5q4 1 10 1q17 0 29 -7.5t13 -20.5
q6 -60 6 -170q0 -27 -0.5 -85t-0.5 -88q0 -100 34 -144.5t79 -44.5q107 0 146 194q19 96 28 326q1 15 14.5 27.5t30.5 12.5q10 0 22 -4.5t19 -9.5z" />
    <glyph glyph-name="v" unicode="v" horiz-adv-x="600" 
d="M541 591q16 -1 27 -9.5t11 -20.5q0 -5 -1 -8q-24 -81 -90 -240.5t-142 -300.5q-35 -30 -63 -30q-23 0 -31 25q0 1 -1.5 5t-2.5 6q-44 128 -108.5 286.5t-115.5 242.5q-4 8 -4 13q0 23 31 36q13 5 25 5q29 0 40 -18q70 -114 195 -454q56 115 103.5 239t67.5 189
q5 14 21.5 24t35.5 10h2z" />
    <glyph glyph-name="w" unicode="w" horiz-adv-x="810" 
d="M748 601q16 -1 26.5 -10t10.5 -21q0 -3 -2 -9q-18 -50 -37.5 -116t-32.5 -116t-39.5 -151.5t-41.5 -159.5q-40 -29 -69 -29q-19 0 -26 18q-11 33 -62 193.5t-76 228.5q-22 -67 -69 -225.5t-59 -192.5q-41 -26 -69 -26q-21 0 -26 19q-95 381 -149 548q-1 2 -1 7
q0 12 11 23.5t27 15.5q6 2 18 2q33 0 41 -22q60 -189 114 -430q105 367 123 397q20 33 43 33q10 0 19.5 -6t13.5 -12l5 -6q27 -41 143 -406q68 311 108 421q5 14 19 23t32 9h5z" />
    <glyph glyph-name="x" unicode="x" horiz-adv-x="590" 
d="M94 595q14 6 27 6q27 0 39 -17q13 -18 59.5 -88t70.5 -103q122 155 149 187q17 20 48 20q11 0 20 -3q22 -8 22 -27q0 -9 -8 -20q-16 -19 -85 -100t-100 -121q63 -83 222 -267q6 -7 6 -16q0 -22 -25 -34q-14 -7 -31 -7q-24 0 -36 13q-83 95 -191 238q-6 -8 -168 -238
q-17 -24 -51 -24q-6 0 -16 2q-25 8 -25 28q0 9 6 18q75 106 207 278q-125 169 -164 226q-4 5 -4 14q0 23 28 35z" />
    <glyph glyph-name="y" unicode="y" horiz-adv-x="600" 
d="M554 573q-28 -267 -55 -422q-2 -9 -8.5 -47.5t-8.5 -49t-8.5 -43.5t-10.5 -45.5t-11 -39t-13.5 -40.5t-16 -33t-20 -33.5t-22.5 -26.5q-50 -50 -128 -50q-59 0 -123 29q-19 10 -19 26q0 13 13 26q22 22 45 22q11 0 23 -5q52 -26 71 -26q20 0 40 16q59 49 101 275
q-26 -48 -57 -75t-78 -27q-85 0 -132 108q-34 80 -76 315q-3 14 -8 44q-10 58 -16 89v4q0 14 12 25t31 15q5 1 14 1q38 0 41 -25q43 -267 75 -381t74 -123q24 3 61 57.5t58 128.5q9 33 18 76.5t14 74.5t12 80.5t10 65.5q2 13 14.5 24t27.5 11q13 0 27 -5t21 -11z" />
    <glyph glyph-name="z" unicode="z" horiz-adv-x="570" 
d="M539 38q-1 -14 -18 -26.5t-39 -14.5q-157 -14 -244 -14q-207 0 -207 60q0 22 17 55.5t55.5 86t73 96t98.5 121.5t102 127q-94 -4 -132 -4q-56 0 -159 5q-40 3 -40 29q0 4 2 10q6 14 23.5 23.5t37.5 9.5h5q97 -5 147 -5q52 0 209 9h14q42 0 42 -20q0 -6 -3.5 -13t-6.5 -11
l-4 -4q-40 -51 -101 -128t-98 -124t-76.5 -99t-62.5 -86t-31 -53q39 -7 141 -7q121 0 204 8h8q19 0 31 -8.5t12 -21.5v-1z" />
    <glyph glyph-name="braceleft" unicode="{" horiz-adv-x="360" 
d="M299 860q-2 -12 -15.5 -20.5t-29.5 -8.5q-19 0 -26 -1q-34 -5 -34 -58q0 -22 11 -117q10 -87 10 -107q0 -102 -75 -149q67 -50 67 -152q0 -31 -6 -83q-9 -77 -9 -109q0 -44 16 -65t58 -21q14 0 23.5 -7t9.5 -18v-4q-2 -12 -15.5 -20.5t-29.5 -8.5q-81 0 -111.5 36.5
t-30.5 98.5q0 20 11 114q5 43 5 75q0 106 -81 140q-25 11 -25 22q0 8 10 15.5t20 11.5l9 3q40 11 56.5 40t16.5 79q0 32 -7 95q0 4 -7 50t-7 70q0 107 109 124q28 4 44 4q14 0 23.5 -7t9.5 -18v-4z" />
    <glyph glyph-name="bar" unicode="|" horiz-adv-x="360" 
d="M174 890h5q15 0 25.5 -7.5t10.5 -18.5q7 -246 7 -496q0 -97 -2 -425q0 -13 -11.5 -22t-28.5 -11h-5q-15 0 -25 7.5t-10 19.5q2 328 2 425q0 248 -7 494q0 12 11.5 22.5t27.5 11.5z" />
    <glyph glyph-name="braceright" unicode="}" horiz-adv-x="360" 
d="M61 -60q2 12 15.5 20.5t29.5 8.5q19 0 26 1q34 5 34 58q0 22 -11 117q-10 87 -10 107q0 102 75 149q-67 50 -67 152q0 31 6 83q9 77 9 109q0 44 -16 65t-58 21q-14 0 -23.5 7t-9.5 18v4q2 12 15.5 20.5t29.5 8.5q81 0 111.5 -36.5t30.5 -98.5q0 -20 -11 -114
q-5 -43 -5 -75q0 -106 81 -140q25 -11 25 -22q0 -8 -10 -15.5t-20 -11.5l-9 -3q-40 -11 -56.5 -40t-16.5 -79q0 -32 7 -95q0 -4 7 -50t7 -70q0 -107 -109 -124q-28 -4 -44 -4q-14 0 -23.5 7t-9.5 18v4z" />
    <glyph glyph-name="asciitilde" unicode="~" horiz-adv-x="600" 
d="M511 421q17 -2 27.5 -10.5t10.5 -20.5q0 -5 -1 -8q-12 -40 -47 -80q-48 -53 -112 -53q-48 0 -93 34q-15 11 -37 32.5t-31 28.5q-17 15 -31 15q-4 0 -15 -11q-21 -23 -35 -58q-5 -13 -20.5 -21.5t-33.5 -8.5h-7q-16 1 -25.5 10t-9.5 20q0 4 2 10q21 50 49 82q47 49 109 49
q52 0 95 -35q14 -11 36 -32.5t30 -28.5q18 -14 31 -14h1q6 0 17 13q19 20 31 54q5 14 20.5 23.5t34.5 9.5h4z" />
    <glyph glyph-name="exclamdown" unicode="&#xa1;" horiz-adv-x="330" 
d="M99 489q-18 18 -18 41q0 9 1 13q4 23 29.5 43t63.5 20q35 0 54.5 -18t19.5 -43q0 -24 -23 -50t-71 -26q-8 0 -16 2l-16 4q-16 5 -24 14zM194 -227l-40 -7q-3 -1 -11 -1q-33 0 -33 24v1q0 12 0.5 98.5t3.5 187.5t11 222q1 13 17.5 24t34.5 11q27 0 28 -27q2 -43 10 -246.5
t14 -252.5v-2q0 -11 -10.5 -20.5t-24.5 -11.5z" />
    <glyph glyph-name="cent" unicode="&#xa2;" horiz-adv-x="600" 
d="M336 -130h-4q-13 0 -22 8t-10 19q-4 127 -5 172q-104 10 -170.5 90t-66.5 221q0 134 66 220t169 107q1 30 1.5 94t0.5 97q0 12 10.5 21.5t24.5 10.5h2q13 0 23 -8.5t10 -19.5q0 -32 -0.5 -95t-1.5 -93q75 -3 124.5 -44t49.5 -105q0 -15 -15.5 -27.5t-36.5 -14.5h-7
q-19 0 -32 9.5t-13 22.5q0 33 -20 54t-51 27q-2 -154 -2 -222q0 -127 3 -268q69 10 100 60q17 27 54 27q5 0 15 -2q30 -6 30 -31q0 -8 -5 -16q-27 -45 -79 -75t-113 -38q1 -41 5 -168v-1q0 -11 -10 -20.5t-24 -11.5zM293 151q-3 137 -3 259q0 66 2 220q-53 -18 -91.5 -76
t-38.5 -164q0 -107 37.5 -164.5t93.5 -74.5z" />
    <glyph glyph-name="sterling" unicode="&#xa3;" 
d="M77 474q4 12 19 19.5t32 7.5h5q63 -5 91 -6q-8 73 -11 129q0 2 -0.5 8t-0.5 8q0 75 44.5 128.5t119.5 62.5q16 2 25 2q110 0 176 -101q5 -8 5 -17q0 -25 -29 -39q-13 -6 -30 -6q-28 0 -40 18q-42 63 -95 63h-7q-23 -3 -44 -27t-21 -73q0 -3 0.5 -8t0.5 -7q3 -48 7 -143
h39q82 0 157 3h3q16 0 26 -7t10 -18v-4q-2 -13 -16.5 -22.5t-32.5 -10.5q-78 -3 -162 -3h-22q0 -21 2 -63t2 -63v-92q3 -2 10 -7.5t11 -8.5q14 -11 38.5 -29.5t30.5 -22.5q97 -74 141 -74h4q14 1 24 20.5t10 53.5q0 25 -6 56v5q0 15 13 27.5t33 16.5q4 1 11 1q18 0 31.5 -9
t15.5 -23q5 -35 5 -55q0 -149 -124 -172q-14 -3 -29 -3q-21 0 -41 6t-43 20t-36.5 23.5t-41 31.5l-37.5 30q-5 4 -15 12.5t-15 12.5q0 -1 -1 -11t-2 -14q-6 -24 -11 -38t-20 -31t-37 -27q-23 -10 -46 -10q-81 0 -119 46.5t-38 104.5q0 17 3 32q9 39 44.5 69t93.5 30
q25 0 54 -11q0 4 -0.5 14.5t-0.5 15.5q-1 49 -9 138q-75 2 -124 6q-14 1 -23 8.5t-9 17.5q0 3 2 9zM240 182q-3 2 -9 5.5t-9 5.5q-35 21 -49 21q-27 0 -36 -37q-3 -11 -3 -22q0 -39 23 -68t55 -31q18 22 26 101q2 16 2 25z" />
    <glyph glyph-name="currency" unicode="&#xa4;" 
d="M398 622q2 0 5 0.5t5 0.5q6 0 14 -2q41 -9 72 -26q12 13 37 37t34 33q18 18 46 18q11 0 23 -5q18 -9 18 -25q0 -13 -11 -24q-32 -31 -86 -87q46 -62 46 -166q0 -18 -3 -34q-9 -46 -44 -86q66 -71 100 -111q6 -7 6 -16q0 -22 -24 -34q-14 -7 -31 -7q-25 0 -37 13
q-33 37 -89 99q-64 -33 -138 -33q-54 0 -104 25q-13 -14 -40 -42t-41 -43q-18 -20 -49 -20q-12 0 -20 4q-20 8 -20 27q0 10 9 21q20 23 56 60.5t39 40.5q-52 58 -52 138q0 20 3 41q10 62 44 108q-48 48 -99 96q-8 7 -8 18q0 20 21 32q15 9 35 9q21 0 34 -11q2 -2 85 -82
q60 38 137 39q15 0 27 -6zM368 557q-2 0 -5 -0.5t-4 -0.5q-53 -2 -91 -36t-48 -98q-3 -16 -3 -34q0 -68 46.5 -108.5t91.5 -40.5q52 0 94 27.5t51 75.5q3 11 3 24q0 159 -123 187q-8 2 -12 4z" />
    <glyph glyph-name="yen" unicode="&#xa5;" 
d="M111 358q7 27 42 27h5q23 -2 72 -4q-21 24 -48 67q-83 129 -145 307q-2 6 -2 9q0 14 11.5 26t30.5 17q11 3 20 3q38 0 46 -25q58 -168 139 -295q59 -90 78 -108q2 3 31 44.5t47 69.5q74 116 140 270q6 14 24 23.5t38 9.5h7q17 -1 27.5 -10.5t10.5 -22.5q0 -6 -3 -12
q-68 -159 -146 -282q-32 -51 -63 -95q15 0 32.5 0.5t39 1.5t33.5 1h2q15 0 24.5 -7.5t9.5 -18.5v-3q-1 -13 -13 -21.5t-29 -9.5q-70 -3 -138 -3q-15 -27 -15 -52q-1 -15 -1 -43q69 0 160 3h2q15 0 24.5 -7.5t9.5 -18.5v-3q-1 -13 -13 -21.5t-29 -9.5q-87 -3 -154 -3
q1 -62 6 -134v-3q0 -15 -14.5 -28t-36.5 -16q-1 0 -5 -0.5t-5 -0.5q-19 0 -32.5 9t-14.5 23q-6 78 -6 151q-94 2 -168 7q-14 1 -23 8.5t-9 18.5q0 1 0.5 3t0.5 3q3 12 16 19.5t28 7.5h3q98 -6 152 -7q0 5 0.5 15.5t0.5 16.5q0 24 8 50q-19 11 -22 13q-65 1 -155 7
q-14 1 -23 8.5t-9 18.5q0 1 0.5 3t0.5 3z" />
    <glyph glyph-name="brokenbar" unicode="&#xa6;" horiz-adv-x="360" 
d="M174 890h5q15 0 25.5 -7.5t10.5 -18.5q4 -169 6 -360q0 -12 -12 -22.5t-28 -11.5h-5q-15 0 -25 7.5t-10 18.5q-2 191 -6 360q0 12 11.5 22.5t27.5 11.5zM181 330h5q15 0 25 -7.5t10 -18.5q0 -255 -1 -361q0 -13 -11.5 -22t-28.5 -11h-5q-15 0 -25 7.5t-10 19.5
q1 106 1 359q0 12 12 22.5t28 11.5z" />
    <glyph glyph-name="section" unicode="&#xa7;" 
d="M535 587h-2q-18 0 -30 8.5t-12 21.5v4q1 6 1 17q0 47 -31.5 78t-76.5 31q-101 0 -152 -54q-31 -33 -31 -74q0 -79 104 -124q31 -13 178 -80q16 -7 42 -23q90 -60 90 -153q0 -85 -69 -151q69 -59 69 -139q0 -17 -3 -33q-15 -73 -88 -127.5t-181 -54.5q-101 0 -167 46.5
t-94 121.5q-2 6 -2 8q0 12 10.5 23t27.5 16q9 3 19 3q33 0 41 -22q45 -124 179 -124q64 0 105.5 30.5t51.5 79.5q2 16 2 23q0 40 -26 75t-78 56q-12 5 -75 32.5t-85 36.5q-66 26 -99 72.5t-33 100.5q0 74 51 131l19 19q-88 61 -88 147q0 62 51 118q39 42 103 67t142 25
q91 0 141.5 -51t50.5 -121q0 -15 -1 -22q-2 -14 -18 -25.5t-36 -12.5zM483 128q37 39 37 94q0 72 -66 114q-14 9 -31 17q-9 4 -74 33t-91 40q-12 -10 -16 -15q-29 -34 -29 -80q0 -40 24 -74.5t71 -53.5q24 -9 86.5 -36.5t75.5 -32.5q2 -1 6.5 -3t6.5 -3z" />
    <glyph glyph-name="dieresis" unicode="&#xa8;" horiz-adv-x="450" 
d="M412 842q18 -18 18 -41q0 -9 -1 -13q-4 -23 -27 -43t-61 -20q-35 0 -52 18t-17 43t21 50.5t68 25.5q8 0 16 -2l11 -4q16 -5 24 -14zM160 842q18 -18 18 -41q0 -9 -1 -13q-4 -23 -27 -43t-61 -20q-35 0 -52 18t-17 43t21 50.5t68 25.5q8 0 16 -2l11 -4q16 -5 24 -14z" />
    <glyph glyph-name="copyright" unicode="&#xa9;" horiz-adv-x="1020" 
d="M865 604q72 -71 72 -201q0 -44 -9 -89q-13 -64 -45 -122t-82.5 -108.5t-127.5 -80.5t-169 -30q-123 0 -221 58t-149 149.5t-51 195.5q0 64 11 114q32 149 142 243t269 94q68 0 126 -14.5t95.5 -35.5t68.5 -50t47 -52t28 -47q2 -4 2 -7q0 -8 -7 -17zM805 598q-4 4 -5 6
q-14 28 -34.5 53t-56 53.5t-91.5 45.5t-125 17q-121 0 -209 -74.5t-116 -208.5q-11 -52 -11 -106q0 -146 105 -251.5t254 -105.5q137 0 225 81.5t114 205.5q8 43 8 79q0 118 -59 175q-6 6 -6 13q0 8 7 17zM646 292q25 -6 25 -26q0 -7 -4 -14q-19 -33 -57.5 -54.5
t-83.5 -26.5q-8 -1 -24 -1q-81 0 -134 55.5t-53 157.5q0 98 52.5 159t133.5 70q7 1 22 1q57 0 94.5 -29t37.5 -75q0 -13 -13.5 -24t-31.5 -13h-7q-16 0 -27 8t-11 19q0 25 -17 37.5t-40 12.5h-7q-33 -3 -64.5 -39.5t-31.5 -116.5q0 -46 11 -79t29.5 -49.5t36.5 -23.5t36 -7
h8q42 5 61 36q13 23 47 23q8 0 12 -1z" />
    <glyph glyph-name="ordfeminine" unicode="&#xaa;" horiz-adv-x="360" 
d="M66 560q3 8 15.5 14.5t26.5 6.5h72q61 0 95 2h3q26 0 26 -16v-3q-2 -8 -13.5 -15t-25.5 -8q-36 -2 -101 -2h-72q-12 0 -19.5 5t-7.5 12q0 3 1 4zM271 788q10 -66 16.5 -89t17.5 -25q14 -5 14 -15q0 -6 -5 -11q-13 -15 -32 -15q-3 0 -11 2q-14 4 -21.5 18t-13.5 45
q-18 -50 -52 -63q-15 -5 -35 -5q-52 0 -76 28.5t-24 72.5q0 33 14 70q15 39 49 69t89 30q21 0 36 -8.5t21 -20.5t8 -20t2 -14q0 -20 -31 -25q-1 0 -4 -0.5t-4 -0.5q-23 0 -23 16q0 7 -7 18.5t-14 12.5q-11 0 -28 -14.5t-28 -45.5t-11 -57q0 -31 13 -50t34 -19h2
q12 3 25.5 36t15.5 69q2 18 18 21q2 0 5 0.5t4 0.5q9 0 18 -2.5t13 -5.5z" />
    <glyph glyph-name="guillemotleft" unicode="&#xab;" 
d="M633 74q-15 -9 -30 -9q-16 0 -29 11q-170 158 -233 244q-5 7 -5 14q0 13 13 26q63 55 126.5 123.5t84.5 105.5q15 27 43 27q7 0 11 -1q22 -4 22 -23q0 -10 -6 -21q-28 -50 -78 -113t-108 -117q105 -135 192 -217q12 -11 12 -26q0 -16 -15 -24zM363 74q-15 -9 -30 -9
q-16 0 -29 11q-170 158 -233 244q-5 7 -5 14q0 13 13 26q63 55 126.5 123.5t84.5 105.5q15 27 43 27q7 0 11 -1q22 -4 22 -23q0 -10 -6 -21q-28 -50 -78 -113t-108 -117q105 -135 192 -217q12 -11 12 -26q0 -16 -15 -24z" />
    <glyph glyph-name="logicalnot" unicode="&#xac;" horiz-adv-x="600" 
d="M444 175h-4q-17 0 -29 9.5t-12 22.5l1 96q-32 -1 -92 -1q-115 0 -213 8q-15 1 -25 10.5t-10 21.5q0 5 1 7q4 13 18 22t31 9h5q86 -8 193 -8q65 0 140 3h2q15 0 27.5 -9.5t12.5 -22.5l-1 -130q0 -14 -13.5 -25t-31.5 -13z" />
    <glyph glyph-name="uni00AD" unicode="&#xad;" horiz-adv-x="540" 
d="M459 342q-2 -14 -17.5 -25.5t-35.5 -12.5q-62 -3 -117 -3q-102 0 -174 9q-16 1 -25 9.5t-9 19.5q0 7 2 11q5 13 21 21.5t34 8.5h7q70 -7 153 -7q54 0 116 3h2q19 0 31 -9t12 -22v-3z" />
    <glyph glyph-name="registered" unicode="&#xae;" horiz-adv-x="810" 
d="M682 794q55 -54 55 -150q0 -26 -7 -65q-10 -48 -34 -92.5t-62 -83t-96.5 -61.5t-128.5 -23q-139 0 -229 90.5t-90 212.5q0 40 8 82q23 114 106.5 185.5t204.5 71.5q63 0 114 -15.5t83 -41t49.5 -47.5t29.5 -45q1 -2 1 -6q0 -7 -4 -12zM632 788l-1 2q-1 2 -2 2
q-11 21 -26 40t-41.5 40.5t-68 34t-92.5 12.5q-90 0 -156.5 -57t-87.5 -158q-7 -34 -7 -76q0 -109 78.5 -188t188.5 -79q103 0 169 62.5t85 155.5q6 28 6 56q0 88 -45 131q-4 4 -4 10q0 7 4 12zM337 469h-5q-13 0 -22 6.5t-9 15.5v1q2 64 2 100q0 84 -5 118v3q0 6 5 13
q-2 0 -4 -0.5t-3 -0.5q-19 0 -29 12q-4 4 -4 11q0 16 21 26q79 35 142 35q77 0 111 -45q17 -23 17 -53q0 -28 -17 -53.5t-51 -40.5q-12 -5 -38 -11q49 -46 110 -93q9 -6 9 -16q0 -12 -13 -22q-12 -9 -29 -9q-15 0 -23 7q-36 26 -129 119q0 -64 -1 -94q-1 -11 -10.5 -19.5
t-24.5 -9.5zM345 742q19 -3 22 -20q2 -18 4 -58q7 0 14 -3q19 -7 39 -7q17 0 31 6q11 4 18 16.5t7 27.5q0 16 -10 30q-17 23 -55 23q-30 0 -70 -15z" />
    <glyph glyph-name="macron" unicode="&#xaf;" horiz-adv-x="510" 
d="M464 812q-2 -14 -18 -25.5t-36 -12.5q-78 -3 -139 -3q-96 0 -189 8q-16 1 -26.5 10t-10.5 21q0 3 2 9q5 14 21 23t35 9h5q86 -8 178 -8q59 0 134 3h2q18 0 30 -8.5t12 -21.5v-4z" />
    <glyph glyph-name="degree" unicode="&#xb0;" horiz-adv-x="330" 
d="M188 884q-12 -4 -19 -4q-39 0 -49 -53q-1 -6 -1 -19q0 -31 21 -49.5t39 -18.5q22 0 39.5 11.5t21.5 33.5q1 3 1 9q0 69 -50 89q-1 0 -3 1zM196 928q12 4 19 4q8 0 14 -3q82 -31 82 -127q0 -5 -2 -17q-7 -41 -48 -69t-92 -28q-49 0 -84.5 32t-35.5 80q0 14 3 27
q8 41 40 73t87 32q7 0 17 -4z" />
    <glyph glyph-name="plusminus" unicode="&#xb1;" horiz-adv-x="600" 
d="M520 432q-1 -14 -15.5 -25t-32.5 -12q-64 -3 -124 -3q1 -13 1.5 -42.5t0.5 -45.5q0 -14 -13 -26t-31 -13h-5q-17 0 -29 9t-12 22q0 17 -0.5 49.5t-1.5 47.5q-87 2 -143 7q-15 1 -25 10.5t-10 21.5q0 5 1 7q4 13 18 22t31 9h5q66 -6 121 -7q-1 38 -6 91v3q0 13 12.5 24.5
t29.5 13.5h7q16 0 28 -8t13 -21q5 -61 6 -104q63 0 132 3h2q17 0 28.5 -9.5t11.5 -22.5v-1zM520 177q-1 -14 -15.5 -25t-32.5 -12q-78 -3 -148 -3q-116 0 -209 8q-15 1 -25 10.5t-10 21.5q0 5 1 7q4 13 18 22t31 9h5q85 -8 199 -8q69 0 144 3h2q17 0 28.5 -9.5t11.5 -22.5
v-1z" />
    <glyph glyph-name="uni00B2" unicode="&#xb2;" horiz-adv-x="330" 
d="M298 578q-1 -11 -13 -20t-28 -10q-81 -9 -123 -9q-102 0 -102 38t27 72t59 54t59 44t27 44q0 45 -37 50q-1 0 -3.5 0.5t-4.5 0.5q-30 0 -48 -28q-13 -20 -43 -20q-2 0 -5 0.5t-4 0.5q-23 3 -23 20q0 5 3 11q19 31 56.5 49.5t78.5 18.5q9 0 25 -2q38 -6 60.5 -30t22.5 -61
q0 -35 -25.5 -68t-56 -53.5t-58 -43.5t-31.5 -40q18 -2 37 -2q55 0 113 6h5q14 0 23 -6t9 -15v-1z" />
    <glyph glyph-name="uni00B3" unicode="&#xb3;" horiz-adv-x="330" 
d="M51 796q-21 5 -21 20q0 7 4 12q39 52 112 62q16 2 24 2q46 0 75 -24.5t29 -65.5q0 -42 -33 -70q55 -22 55 -82q0 -75 -75 -105q-32 -13 -67 -13q-40 0 -74 15.5t-51 39.5q-3 5 -3 9q0 17 24 27q9 4 22 4q22 0 29 -12q23 -31 71 -31q12 0 19 3q27 9 27 53q0 52 -51 52
q-10 0 -31.5 -2.5t-30.5 -2.5q-20 0 -20 13q0 7 5.5 16t10.5 15l5 6q8 2 30 5t31.5 6t19 14t9.5 30q0 47 -44 47h-6q-27 -4 -42 -25q-14 -19 -43 -19q-7 0 -10 1z" />
    <glyph glyph-name="acute" unicode="&#xb4;" horiz-adv-x="360" 
d="M332 770q-59 -65 -139.5 -136.5t-105.5 -86.5q-19 -6 -36 -6q-28 0 -28 18q0 6 5 18q6 13 41 53t87.5 99.5t84.5 99.5q15 22 36 22q17 0 31 -17l26 -30q6 -6 6 -15t-8 -19z" />
    <glyph glyph-name="mu" unicode="&#xb5;" horiz-adv-x="680" 
d="M127 610q4 1 10 1q17 0 29 -7.5t13 -20.5q6 -74 6 -201q0 -44 -2 -194q10 -70 40.5 -103.5t73.5 -33.5q107 0 146 194q19 96 28 326q1 15 14.5 27.5t30.5 12.5q10 0 22 -4.5t19 -9.5l7 -5q4 -276 24.5 -393.5t61.5 -153.5q9 -9 9 -19q0 -19 -20 -31q-17 -11 -39 -11
q-20 0 -30 11q-48 54 -67 178q-61 -194 -205 -194q-70 0 -117 50q-1 -37 -1.5 -115t-0.5 -119q0 -14 -14.5 -26t-34.5 -14h-7q-18 0 -30 8.5t-12 21.5q1 127 3.5 321.5t2.5 263.5q0 128 -6 197v3q0 14 13.5 25.5t32.5 14.5z" />
    <glyph glyph-name="paragraph" unicode="&#xb6;" 
d="M621 -245h-8q-17 0 -29 8t-13 21q-4 111 -4 433q0 368 11 522q-29 0 -75.5 -0.5t-65.5 -0.5q-12 -154 -12 -526q0 -308 4 -416v-1q0 -14 -14 -26t-34 -14h-8q-17 0 -29 8t-13 21q-4 111 -4 418v93q-78 3 -140.5 27t-99.5 61t-56.5 80.5t-19.5 90.5q0 91 73 165t204 87
l42 3q47 1 150 1.5t157 0.5q17 0 29.5 -9t12.5 -22v-3q-14 -115 -14 -550q0 -323 4 -431v-1q0 -14 -14 -26t-34 -14zM339 737h-21q-12 0 -30 -2q-84 -9 -131.5 -56t-47.5 -115q0 -74 57 -130t162 -66q2 258 11 369z" />
    <glyph glyph-name="periodcentered" unicode="&#xb7;" horiz-adv-x="340" 
d="M236 402q18 -18 18 -41q0 -9 -1 -13q-4 -23 -29.5 -43t-63.5 -20q-35 0 -54.5 18t-19.5 43q0 24 23 50t71 26q8 0 16 -2l16 -4q16 -5 24 -14z" />
    <glyph glyph-name="cedilla" unicode="&#xb8;" horiz-adv-x="300" 
d="M165 23q19 -3 19 -19q0 -7 -2 -10l-40 -70q7 1 25 1q33 0 51 -7q51 -20 51 -68q0 -36 -29 -65q-40 -40 -105 -40q-47 0 -92 23q-13 6 -13 18q0 9 8 17q12 12 32 12q10 0 17 -3q32 -16 58 -16t42 16q12 12 12 28q0 22 -25 34q-24 11 -59 11h-8h-4q-29 0 -29 17q0 2 0.5 5
t1.5 4.5t2 2.5v2l45 90q9 18 33 18q6 0 9 -1z" />
    <glyph glyph-name="uni00B9" unicode="&#xb9;" horiz-adv-x="330" 
d="M48 795q-3 5 -3 10q0 16 23 26q56 22 84 47q25 15 44 15q21 0 21 -23v-1q-3 -84 -3 -135q0 -56 3 -135q4 -1 25 -2t34 -3q5 -1 15 -12.5t10 -20.5q0 -18 -43 -18h-3q-6 0 -17 0.5t-16 0.5q-2 0 -144 -5h-2q-13 0 -22 6.5t-9 15.5v2q2 11 14 19t27 9q10 0 29 0.5t28 1.5
q-3 76 -3 132q0 51 1 82q-19 -9 -45 -20q-8 -4 -20 -4q-20 0 -28 12z" />
    <glyph glyph-name="ordmasculine" unicode="&#xba;" horiz-adv-x="360" 
d="M61 560q3 8 16 14.5t26 6.5h72q61 0 95 2h3q26 0 26 -16v-3q-2 -8 -13.5 -15t-25.5 -8q-36 -2 -101 -2h-72q-12 0 -19.5 5t-7.5 12q0 3 1 4zM214 831q-11 27 -38 27h-4l-3 -1q-4 -1 -10.5 -6t-14.5 -14.5t-13.5 -28t-5.5 -41.5q0 -49 23 -72.5t42 -23.5h2q5 1 13.5 6.5
t19 26.5t10.5 51q0 36 -14 50q-12 5 -12 15q0 6 5 11zM281 833q22 -21 22 -68q0 -53 -28 -89.5t-83 -44.5q-16 -2 -22 -2q-53 0 -83 35.5t-30 92.5q0 54 25.5 90t74.5 49q16 4 35 4q35 0 59 -16t32 -40v-3q0 -2 -2 -8z" />
    <glyph glyph-name="guillemotright" unicode="&#xbb;" 
d="M87 607q15 9 30 9q16 0 29 -11q170 -158 233 -244q5 -7 5 -14q0 -13 -13 -26q-63 -55 -126.5 -123.5t-84.5 -105.5q-15 -27 -43 -27q-7 0 -11 1q-22 4 -22 23q0 11 6 21q28 50 78 113t108 117q-105 135 -192 217q-12 11 -12 26q0 16 15 24zM357 607q15 9 30 9
q16 0 29 -11q170 -158 233 -244q5 -7 5 -14q0 -13 -13 -26q-63 -55 -126.5 -123.5t-84.5 -105.5q-15 -27 -43 -27q-7 0 -11 1q-22 4 -22 23q0 11 6 21q28 50 78 113t108 117q-105 135 -192 217q-12 11 -12 26q0 16 15 24z" />
    <glyph glyph-name="onequarter" unicode="&#xbc;" 
d="M702 111q-1 -10 -12.5 -18t-26.5 -10q-2 0 -5.5 -0.5t-5.5 -0.5v-58q0 -10 -11 -18.5t-26 -10.5h-5q-27 0 -27 21q0 12 -0.5 32t-0.5 28q-34 -3 -69 -3q-105 0 -105 35q0 16 24.5 48t49 77.5t24.5 94.5q0 10 11 18.5t26 10.5h6q31 0 31 -21q0 -33 -9.5 -65t-29 -65
t-28.5 -45.5t-29 -38.5h26q22 0 72 2v4q0 69 2 113q0 11 9 19.5t24 9.5h5q31 0 31 -21q-2 -44 -2 -113v-7q6 0 16 2h6q29 0 29 -19v-1zM48 705q-3 5 -3 10q0 16 23 26q56 22 84 47q25 15 44 15q21 0 21 -23v-1q-3 -84 -3 -135q0 -56 3 -135q4 -1 25 -2t34 -3q5 -1 15 -12.5
t10 -20.5q0 -18 -43 -18h-3q-6 0 -17 0.5t-16 0.5q-2 0 -144 -5h-2q-13 0 -22 6.5t-9 15.5v2q2 11 14 19t27 9q10 0 29 0.5t28 1.5q-3 76 -3 132q0 51 1 82q-19 -9 -45 -20q-8 -4 -20 -4q-20 0 -28 12zM648 790q21 -5 21 -20q0 -7 -4 -12q-328 -466 -541 -731
q-16 -18 -42 -18q-4 0 -12 2q-19 4 -19 19q0 8 5 13q212 264 539 729q13 19 43 19q7 0 10 -1z" />
    <glyph glyph-name="onehalf" unicode="&#xbd;" 
d="M688 38q-1 -11 -13 -20t-28 -10q-81 -9 -123 -9q-102 0 -102 38t27 72t59 54t59 44t27 44q0 45 -37 50q-1 0 -3.5 0.5t-4.5 0.5q-30 0 -48 -28q-13 -20 -43 -20q-2 0 -5 0.5t-4 0.5q-23 3 -23 20q0 5 3 11q19 31 56.5 49.5t78.5 18.5q9 0 25 -2q38 -6 60.5 -30t22.5 -61
q0 -35 -25.5 -68t-56 -53.5t-58 -43.5t-31.5 -40q18 -2 37 -2q55 0 113 6h5q14 0 23 -6t9 -15v-1zM48 705q-3 5 -3 10q0 16 23 26q56 22 84 47q25 15 44 15q21 0 21 -23v-1q-3 -84 -3 -135q0 -56 3 -135q4 -1 25 -2t34 -3q5 -1 15 -12.5t10 -20.5q0 -18 -43 -18h-3
q-6 0 -17 0.5t-16 0.5q-2 0 -144 -5h-2q-13 0 -22 6.5t-9 15.5v2q2 11 14 19t27 9q10 0 29 0.5t28 1.5q-3 76 -3 132q0 51 1 82q-19 -9 -45 -20q-8 -4 -20 -4q-20 0 -28 12zM648 790q21 -5 21 -20q0 -7 -4 -12q-328 -466 -541 -731q-16 -18 -42 -18q-4 0 -12 2q-19 4 -19 19
q0 8 5 13q212 264 539 729q13 19 43 19q7 0 10 -1z" />
    <glyph glyph-name="threequarters" unicode="&#xbe;" 
d="M51 706q-21 5 -21 20q0 7 4 12q39 52 112 62q16 2 24 2q46 0 75 -24.5t29 -65.5q0 -42 -33 -70q55 -22 55 -82q0 -75 -75 -105q-32 -13 -67 -13q-40 0 -74 15.5t-51 39.5q-3 5 -3 9q0 17 24 27q9 4 22 4q22 0 29 -12q23 -31 71 -31q12 0 19 3q27 9 27 53q0 52 -51 52
q-10 0 -31.5 -2.5t-30.5 -2.5q-20 0 -20 13q0 7 5.5 16t10.5 15l5 6q8 2 30 5t31.5 6t19 14t9.5 30q0 47 -44 47h-6q-27 -4 -42 -25q-14 -19 -43 -19q-7 0 -10 1zM702 111q-1 -10 -12.5 -18t-26.5 -10q-2 0 -5.5 -0.5t-5.5 -0.5v-58q0 -10 -11 -18.5t-26 -10.5h-5
q-27 0 -27 21q0 12 -0.5 32t-0.5 28q-34 -3 -69 -3q-105 0 -105 35q0 16 24.5 48t49 77.5t24.5 94.5q0 10 11 18.5t26 10.5h6q31 0 31 -21q0 -33 -9.5 -65t-29 -65t-28.5 -45.5t-29 -38.5h26q22 0 72 2v4q0 69 2 113q0 11 9 19.5t24 9.5h5q31 0 31 -21q-2 -44 -2 -113v-7
q6 0 16 2h6q29 0 29 -19v-1zM648 790q21 -5 21 -20q0 -7 -4 -12q-328 -466 -541 -731q-16 -18 -42 -18q-4 0 -12 2q-19 4 -19 19q0 8 5 13q212 264 539 729q13 19 43 19q7 0 10 -1z" />
    <glyph glyph-name="questiondown" unicode="&#xbf;" horiz-adv-x="480" 
d="M179 489q-18 18 -18 41q0 9 1 13q4 23 29.5 43t63.5 20q35 0 54.5 -18t19.5 -43q0 -24 -23 -50t-71 -26q-8 0 -16 2l-16 4q-16 5 -24 14zM251 343q11 3 20 3q22 0 31 -20q17 -40 17 -76q0 -39 -19.5 -76t-47.5 -65.5t-56 -56t-47.5 -57.5t-19.5 -59q0 -38 17 -67
q31 -52 104 -52q32 0 62 11q60 25 60 71q0 23 -18 54q-4 8 -4 13q0 23 31 36q13 5 25 5q29 0 40 -18q23 -37 23 -77q0 -47 -32.5 -86t-87.5 -60q-52 -21 -112 -21q-59 0 -108 22.5t-75 65.5q-23 40 -23 93q0 48 20.5 88t49.5 67.5t58 52.5t49.5 53.5t20.5 59.5q0 24 -11 49
q-2 6 -2 10q0 25 35 37z" />
    <glyph glyph-name="Agrave" unicode="&#xc0;" horiz-adv-x="800" 
d="M245 1027l21 30q13 24 37 24q15 0 30 -12q97 -77 177 -163q-20 -27 -46 -27q-6 0 -16 4q-29 14 -198 117q-9 6 -9 15q0 7 4 12zM227 196q-54 -119 -95 -185q-15 -27 -56 -27q-8 0 -12 1q-30 6 -30 29q0 8 4 15q33 55 81 156q-5 -1 -17.5 -2.5t-18.5 -2.5q-4 -1 -12 -1
q-17 0 -29 8t-14 20v2q0 13 14.5 25t34.5 16q54 8 76 10q110 250 202 514q4 10 5 14q11 32 43 32q12 0 26 -4.5t22 -9.5l8 -4q96 -178 179.5 -392t123.5 -346q0 -2 2 -5.5t2 -5.5q2 -8 2 -12q0 -18 -17 -28t-39 -10q-36 0 -47 21q-10 20 -22.5 54.5t-21.5 52.5t-26.5 39
t-46.5 30t-72 9q-100 0 -249 -13zM260 269q151 12 234 12q43 0 86 -9q-77 204 -164 387q-89 -239 -156 -390z" />
    <glyph glyph-name="Aacute" unicode="&#xc1;" horiz-adv-x="800" 
d="M547 1005q-155 -111 -210 -124q-11 -2 -22 -2q-25 0 -25 11q0 8 12 19q4 4 27 25t63.5 58.5t75.5 69.5q18 19 38 19q17 0 29 -17l21 -30q3 -4 3 -10q0 -10 -12 -19zM227 196q-54 -119 -95 -185q-15 -27 -56 -27q-8 0 -12 1q-30 6 -30 29q0 8 4 15q33 55 81 156
q-5 -1 -17.5 -2.5t-18.5 -2.5q-4 -1 -12 -1q-17 0 -29 8t-14 20v2q0 13 14.5 25t34.5 16q54 8 76 10q110 250 202 514q4 10 5 14q11 32 43 32q12 0 26 -4.5t22 -9.5l8 -4q96 -178 179.5 -392t123.5 -346q0 -2 2 -5.5t2 -5.5q2 -8 2 -12q0 -18 -17 -28t-39 -10q-36 0 -47 21
q-10 20 -22.5 54.5t-21.5 52.5t-26.5 39t-46.5 30t-72 9q-100 0 -249 -13zM260 269q151 12 234 12q43 0 86 -9q-77 204 -164 387q-89 -239 -156 -390z" />
    <glyph glyph-name="Acircumflex" unicode="&#xc2;" horiz-adv-x="800" 
d="M432 1053q140 -129 151 -151q-14 -34 -39 -34q-8 0 -18 6q-29 16 -131 96q-104 -80 -129 -94q-23 -10 -39 -10q-14 0 -14 11q0 4 5 16q6 12 28.5 35.5t61.5 61t58 56.5q15 20 37 20q15 0 29 -13zM227 196q-54 -119 -95 -185q-15 -27 -56 -27q-8 0 -12 1q-30 6 -30 29
q0 8 4 15q33 55 81 156q-5 -1 -17.5 -2.5t-18.5 -2.5q-4 -1 -12 -1q-17 0 -29 8t-14 20v2q0 13 14.5 25t34.5 16q54 8 76 10q110 250 202 514q4 10 5 14q11 32 43 32q12 0 26 -4.5t22 -9.5l8 -4q96 -178 179.5 -392t123.5 -346q0 -2 2 -5.5t2 -5.5q2 -8 2 -12q0 -18 -17 -28
t-39 -10q-36 0 -47 21q-10 20 -22.5 54.5t-21.5 52.5t-26.5 39t-46.5 30t-72 9q-100 0 -249 -13zM260 269q151 12 234 12q43 0 86 -9q-77 204 -164 387q-89 -239 -156 -390z" />
    <glyph glyph-name="Atilde" unicode="&#xc3;" horiz-adv-x="800" 
d="M571 1050q13 -1 21 -8.5t8 -17.5q0 -5 -1 -8q-38 -106 -126 -106q-25 0 -47.5 10.5t-31 18t-24.5 23.5q-37 36 -51 36q-3 0 -9.5 -6t-15.5 -19.5t-15 -29.5q-4 -11 -16 -18t-26 -7h-7q-13 1 -21 9t-8 18q0 2 2 8q41 105 126 105q12 0 22 -1.5t19.5 -6t16 -7.5t15 -9.5
t12 -9.5t11.5 -11l9 -9q34 -34 49 -34q2 0 9.5 6t16.5 19.5t14 28.5q10 26 43 26h5zM227 196q-54 -119 -95 -185q-15 -27 -56 -27q-8 0 -12 1q-30 6 -30 29q0 8 4 15q33 55 81 156q-5 -1 -17.5 -2.5t-18.5 -2.5q-4 -1 -12 -1q-17 0 -29 8t-14 20v2q0 13 14.5 25t34.5 16
q54 8 76 10q110 250 202 514q4 10 5 14q11 32 43 32q12 0 26 -4.5t22 -9.5l8 -4q96 -178 179.5 -392t123.5 -346q0 -2 2 -5.5t2 -5.5q2 -8 2 -12q0 -18 -17 -28t-39 -10q-36 0 -47 21q-10 20 -22.5 54.5t-21.5 52.5t-26.5 39t-46.5 30t-72 9q-100 0 -249 -13zM260 269
q151 12 234 12q43 0 86 -9q-77 204 -164 387q-89 -239 -156 -390z" />
    <glyph glyph-name="Adieresis" unicode="&#xc4;" horiz-adv-x="800" 
d="M587 1022q18 -18 18 -41q0 -9 -1 -13q-4 -23 -27 -43t-61 -20q-35 0 -52 18t-17 43t21 50.5t68 25.5q8 0 16 -2l11 -4q16 -5 24 -14zM335 1022q18 -18 18 -41q0 -9 -1 -13q-4 -23 -27 -43t-61 -20q-35 0 -52 18t-17 43t21 50.5t68 25.5q8 0 16 -2l11 -4q16 -5 24 -14z
M227 196q-54 -119 -95 -185q-15 -27 -56 -27q-8 0 -12 1q-30 6 -30 29q0 8 4 15q33 55 81 156q-5 -1 -17.5 -2.5t-18.5 -2.5q-4 -1 -12 -1q-17 0 -29 8t-14 20v2q0 13 14.5 25t34.5 16q54 8 76 10q110 250 202 514q4 10 5 14q11 32 43 32q12 0 26 -4.5t22 -9.5l8 -4
q96 -178 179.5 -392t123.5 -346q0 -2 2 -5.5t2 -5.5q2 -8 2 -12q0 -18 -17 -28t-39 -10q-36 0 -47 21q-10 20 -22.5 54.5t-21.5 52.5t-26.5 39t-46.5 30t-72 9q-100 0 -249 -13zM260 269q151 12 234 12q43 0 86 -9q-77 204 -164 387q-89 -239 -156 -390z" />
    <glyph glyph-name="Aring" unicode="&#xc5;" horiz-adv-x="800" 
d="M405 1016q-15 -3 -16 -3q-22 0 -30 -37q-2 -12 -2 -17q0 -25 16.5 -38.5t27.5 -13.5q34 0 41 31q1 3 1 8q0 53 -38 70zM415 1064q6 2 16 2q11 0 15 -2q71 -29 71 -110q0 -6 -2 -16q-7 -36 -44 -60.5t-82 -24.5t-75.5 28t-30.5 70q0 13 3 25q7 35 36 63t79 28q8 0 14 -3z
M227 196q-54 -119 -95 -185q-15 -27 -56 -27q-8 0 -12 1q-30 6 -30 29q0 8 4 15q33 55 81 156q-5 -1 -17.5 -2.5t-18.5 -2.5q-4 -1 -12 -1q-17 0 -29 8t-14 20v2q0 13 14.5 25t34.5 16q54 8 76 10q110 250 202 514q4 10 5 14q11 32 43 32q12 0 26 -4.5t22 -9.5l8 -4
q96 -178 179.5 -392t123.5 -346q0 -2 2 -5.5t2 -5.5q2 -8 2 -12q0 -18 -17 -28t-39 -10q-36 0 -47 21q-10 20 -22.5 54.5t-21.5 52.5t-26.5 39t-46.5 30t-72 9q-100 0 -249 -13zM260 269q151 12 234 12q43 0 86 -9q-77 204 -164 387q-89 -239 -156 -390z" />
    <glyph glyph-name="AE" unicode="&#xc6;" horiz-adv-x="960" 
d="M99 342q3 16 20 27.5t37 11.5h2q12 -1 39 -1q44 93 87 192.5t64 152.5l22 53q6 14 22 23.5t34 9.5h3q100 -5 206 -5q132 0 215 9h7q19 0 32.5 -9.5t14.5 -24.5v-1q0 -16 -15 -29.5t-35 -15.5q-88 -10 -231 -10q-11 0 -36 0.5t-38 0.5q15 -32 18 -69q9 -117 12 -264
q137 8 198 17q1 0 4 0.5t5 0.5q18 0 31.5 -9.5t14.5 -24.5v-3q0 -16 -14.5 -28.5t-34.5 -15.5q-84 -11 -203 -18q2 -154 2 -207q0 -30 8.5 -39.5t41.5 -9.5q19 0 99.5 6t151.5 9h2q19 0 33 -11t14 -27v-1q-1 -16 -17.5 -29t-37.5 -14q-35 -2 -116.5 -8t-117.5 -6
q-83 0 -124 25.5t-41 94.5q0 53 2 211q-94 -5 -214 -7q-90 -186 -154 -293q-14 -26 -53 -26q-7 0 -17 2q-29 8 -29 34q0 8 5 18q65 110 140 264q-3 0 -8.5 0.5t-7.5 0.5q-19 1 -31.5 11.5t-12.5 25.5q0 1 0.5 3t0.5 3zM480 388q0 165 -7 255q-4 36 -24 69
q-59 -146 -144 -331q55 1 175 7z" />
    <glyph glyph-name="Ccedilla" unicode="&#xc7;" horiz-adv-x="740" 
d="M674 178q15 -3 24 -12t9 -21q0 -7 -5 -17q-36 -58 -104 -97t-148 -49l-33 -58q7 1 25 1q33 0 51 -7q51 -20 51 -68q0 -36 -29 -65q-40 -40 -105 -40q-47 0 -92 23q-13 6 -13 18q0 9 8 17q12 12 32 12q9 0 17 -3q32 -16 58 -16t42 16q12 12 12 28q0 22 -25 34
q-24 11 -59 11h-8h-4q-29 0 -29 17q0 2 0.5 5t1.5 4.5t1 2.5l1 2l32 64q-141 6 -234 110.5t-93 296.5q0 189 97 302.5t242 129.5q26 2 38 2q101 0 169.5 -52.5t68.5 -136.5q0 -17 -17 -30.5t-40 -15.5h-8q-21 0 -35 9.5t-14 24.5q0 56 -41 87.5t-99 31.5q-15 0 -22 -1
q-36 -4 -72.5 -23t-72 -56t-58 -104.5t-22.5 -155.5q0 -93 23.5 -162t62 -105.5t79.5 -53t85 -16.5q17 0 25 1q105 12 151 87q18 29 62 29q9 0 14 -1z" />
    <glyph glyph-name="Egrave" unicode="&#xc8;" 
d="M225 1027l21 30q13 24 37 24q15 0 30 -12q97 -77 177 -163q-20 -27 -46 -27q-6 0 -16 4q-29 14 -198 117q-9 6 -9 15q0 7 4 12zM694 32q-2 -16 -19.5 -28t-39.5 -13q-34 -1 -142 -8t-160 -7q-104 0 -160.5 24t-56.5 86v10q9 144 13 264q-2 0 -5.5 0.5t-5.5 0.5
q-18 1 -30 10.5t-12 23.5q0 5 1 8q4 14 19.5 24t34.5 12q0 15 0.5 47t0.5 48t-0.5 49.5t-0.5 50.5q-1 49 -8.5 68t-26.5 27q-10 3 -13 4q-1 9 -1 21q0 55 37 55h2q106 -5 224 -5q157 0 265 10h8q20 0 33 -9.5t13 -23.5q0 -16 -16 -29.5t-38 -15.5q-98 -10 -270 -10
q-71 0 -111 1q10 -31 10 -81q0 -19 0.5 -55.5t0.5 -53.5q0 -18 -0.5 -52t-0.5 -50q72 -2 100 -2q73 0 195 6h3q20 0 33.5 -9.5t13.5 -23.5v-3q-2 -16 -19 -28.5t-39 -13.5q-125 -6 -205 -6q-55 0 -84 1q-3 -109 -13 -252v-3q0 -25 26.5 -35t90.5 -10q3 0 304 13h3
q20 0 33 -9.5t13 -23.5v-4z" />
    <glyph glyph-name="Eacute" unicode="&#xc9;" 
d="M527 1005q-155 -111 -210 -124q-11 -2 -22 -2q-25 0 -25 11q0 8 12 19q4 4 27 25t63.5 58.5t75.5 69.5q18 19 38 19q17 0 29 -17l21 -30q3 -4 3 -10q0 -10 -12 -19zM694 32q-2 -16 -19.5 -28t-39.5 -13q-34 -1 -142 -8t-160 -7q-104 0 -160.5 24t-56.5 86v10
q9 144 13 264q-2 0 -5.5 0.5t-5.5 0.5q-18 1 -30 10.5t-12 23.5q0 5 1 8q4 14 19.5 24t34.5 12q0 15 0.5 47t0.5 48t-0.5 49.5t-0.5 50.5q-1 49 -8.5 68t-26.5 27q-10 3 -13 4q-1 9 -1 21q0 55 37 55h2q106 -5 224 -5q157 0 265 10h8q20 0 33 -9.5t13 -23.5q0 -16 -16 -29.5
t-38 -15.5q-98 -10 -270 -10q-71 0 -111 1q10 -31 10 -81q0 -19 0.5 -55.5t0.5 -53.5q0 -18 -0.5 -52t-0.5 -50q72 -2 100 -2q73 0 195 6h3q20 0 33.5 -9.5t13.5 -23.5v-3q-2 -16 -19 -28.5t-39 -13.5q-125 -6 -205 -6q-55 0 -84 1q-3 -109 -13 -252v-3q0 -25 26.5 -35
t90.5 -10q3 0 304 13h3q20 0 33 -9.5t13 -23.5v-4z" />
    <glyph glyph-name="Ecircumflex" unicode="&#xca;" 
d="M412 1053q140 -129 151 -151q-14 -34 -39 -34q-8 0 -18 6q-29 16 -131 96q-104 -80 -129 -94q-23 -10 -39 -10q-14 0 -14 11q0 4 5 16q6 12 28.5 35.5t61.5 61t58 56.5q15 20 37 20q15 0 29 -13zM694 32q-2 -16 -19.5 -28t-39.5 -13q-34 -1 -142 -8t-160 -7
q-104 0 -160.5 24t-56.5 86v10q9 144 13 264q-2 0 -5.5 0.5t-5.5 0.5q-18 1 -30 10.5t-12 23.5q0 5 1 8q4 14 19.5 24t34.5 12q0 15 0.5 47t0.5 48t-0.5 49.5t-0.5 50.5q-1 49 -8.5 68t-26.5 27q-10 3 -13 4q-1 9 -1 21q0 55 37 55h2q106 -5 224 -5q157 0 265 10h8
q20 0 33 -9.5t13 -23.5q0 -16 -16 -29.5t-38 -15.5q-98 -10 -270 -10q-71 0 -111 1q10 -31 10 -81q0 -19 0.5 -55.5t0.5 -53.5q0 -18 -0.5 -52t-0.5 -50q72 -2 100 -2q73 0 195 6h3q20 0 33.5 -9.5t13.5 -23.5v-3q-2 -16 -19 -28.5t-39 -13.5q-125 -6 -205 -6q-55 0 -84 1
q-3 -109 -13 -252v-3q0 -25 26.5 -35t90.5 -10q3 0 304 13h3q20 0 33 -9.5t13 -23.5v-4z" />
    <glyph glyph-name="Edieresis" unicode="&#xcb;" 
d="M567 1022q18 -18 18 -41q0 -9 -1 -13q-4 -23 -27 -43t-61 -20q-35 0 -52 18t-17 43t21 50.5t68 25.5q8 0 16 -2l11 -4q16 -5 24 -14zM315 1022q18 -18 18 -41q0 -9 -1 -13q-4 -23 -27 -43t-61 -20q-35 0 -52 18t-17 43t21 50.5t68 25.5q8 0 16 -2l11 -4q16 -5 24 -14z
M694 32q-2 -16 -19.5 -28t-39.5 -13q-34 -1 -142 -8t-160 -7q-104 0 -160.5 24t-56.5 86v10q9 144 13 264q-2 0 -5.5 0.5t-5.5 0.5q-18 1 -30 10.5t-12 23.5q0 5 1 8q4 14 19.5 24t34.5 12q0 15 0.5 47t0.5 48t-0.5 49.5t-0.5 50.5q-1 49 -8.5 68t-26.5 27q-10 3 -13 4
q-1 9 -1 21q0 55 37 55h2q106 -5 224 -5q157 0 265 10h8q20 0 33 -9.5t13 -23.5q0 -16 -16 -29.5t-38 -15.5q-98 -10 -270 -10q-71 0 -111 1q10 -31 10 -81q0 -19 0.5 -55.5t0.5 -53.5q0 -18 -0.5 -52t-0.5 -50q72 -2 100 -2q73 0 195 6h3q20 0 33.5 -9.5t13.5 -23.5v-3
q-2 -16 -19 -28.5t-39 -13.5q-125 -6 -205 -6q-55 0 -84 1q-3 -109 -13 -252v-3q0 -25 26.5 -35t90.5 -10q3 0 304 13h3q20 0 33 -9.5t13 -23.5v-4z" />
    <glyph glyph-name="Igrave" unicode="&#xcc;" horiz-adv-x="460" 
d="M75 1027l21 30q13 24 37 24q15 0 30 -12q97 -77 177 -163q-20 -27 -46 -27q-6 0 -16 4q-29 14 -198 117q-9 6 -9 15q0 7 4 12zM45 38q6 13 24 22t37 9h3q14 -1 39 -2.5t34 -1.5q-4 13 -4 28q0 91 3 245t3 236q0 16 -0.5 48.5t-0.5 50.5q0 17 -2.5 25.5t-11.5 14t-17.5 7
t-31 5t-41.5 7.5q-2 0 -6 1t-6 1v5q0 59 40 59h2q80 -3 149 -3q62 0 113 3h5q17 0 28.5 -7.5t11.5 -18.5v-4q-2 -13 -19 -23.5t-38 -12.5q-7 -1 -81 -3q9 -18 9 -42q0 -18 0.5 -51t0.5 -49q0 -83 -3 -236t-3 -244v-2q0 -20 5 -24t32 -4h8q9 0 63 -2q24 -1 24 -15
q0 -8 -8.5 -20.5t-17.5 -20.5l-8 -8q-76 -14 -149 -14q-28 0 -83.5 3t-66.5 3q-16 1 -27 8t-11 18q0 3 2 9z" />
    <glyph glyph-name="Iacute" unicode="&#xcd;" horiz-adv-x="460" 
d="M377 1005q-155 -111 -210 -124q-11 -2 -22 -2q-25 0 -25 11q0 8 12 19q4 4 27 25t63.5 58.5t75.5 69.5q18 19 38 19q17 0 29 -17l21 -30q3 -4 3 -10q0 -10 -12 -19zM45 38q6 13 24 22t37 9h3q14 -1 39 -2.5t34 -1.5q-4 13 -4 28q0 91 3 245t3 236q0 16 -0.5 48.5
t-0.5 50.5q0 17 -2.5 25.5t-11.5 14t-17.5 7t-31 5t-41.5 7.5q-2 0 -6 1t-6 1v5q0 59 40 59h2q80 -3 149 -3q62 0 113 3h5q17 0 28.5 -7.5t11.5 -18.5v-4q-2 -13 -19 -23.5t-38 -12.5q-7 -1 -81 -3q9 -18 9 -42q0 -18 0.5 -51t0.5 -49q0 -83 -3 -236t-3 -244v-2q0 -20 5 -24
t32 -4h8q9 0 63 -2q24 -1 24 -15q0 -8 -8.5 -20.5t-17.5 -20.5l-8 -8q-76 -14 -149 -14q-28 0 -83.5 3t-66.5 3q-16 1 -27 8t-11 18q0 3 2 9z" />
    <glyph glyph-name="Icircumflex" unicode="&#xce;" horiz-adv-x="460" 
d="M262 1053q140 -129 151 -151q-14 -34 -39 -34q-8 0 -18 6q-29 16 -131 96q-104 -80 -129 -94q-23 -10 -39 -10q-14 0 -14 11q0 4 5 16q6 12 28.5 35.5t61.5 61t58 56.5q15 20 37 20q15 0 29 -13zM45 38q6 13 24 22t37 9h3q14 -1 39 -2.5t34 -1.5q-4 13 -4 28q0 91 3 245
t3 236q0 16 -0.5 48.5t-0.5 50.5q0 17 -2.5 25.5t-11.5 14t-17.5 7t-31 5t-41.5 7.5q-2 0 -6 1t-6 1v5q0 59 40 59h2q80 -3 149 -3q62 0 113 3h5q17 0 28.5 -7.5t11.5 -18.5v-4q-2 -13 -19 -23.5t-38 -12.5q-7 -1 -81 -3q9 -18 9 -42q0 -18 0.5 -51t0.5 -49q0 -83 -3 -236
t-3 -244v-2q0 -20 5 -24t32 -4h8q9 0 63 -2q24 -1 24 -15q0 -8 -8.5 -20.5t-17.5 -20.5l-8 -8q-76 -14 -149 -14q-28 0 -83.5 3t-66.5 3q-16 1 -27 8t-11 18q0 3 2 9z" />
    <glyph glyph-name="Idieresis" unicode="&#xcf;" horiz-adv-x="460" 
d="M417 1022q18 -18 18 -41q0 -9 -1 -13q-4 -23 -27 -43t-61 -20q-35 0 -52 18t-17 43t21 50.5t68 25.5q8 0 16 -2l11 -4q16 -5 24 -14zM165 1022q18 -18 18 -41q0 -9 -1 -13q-4 -23 -27 -43t-61 -20q-35 0 -52 18t-17 43t21 50.5t68 25.5q8 0 16 -2l11 -4q16 -5 24 -14z
M45 38q6 13 24 22t37 9h3q14 -1 39 -2.5t34 -1.5q-4 13 -4 28q0 91 3 245t3 236q0 16 -0.5 48.5t-0.5 50.5q0 17 -2.5 25.5t-11.5 14t-17.5 7t-31 5t-41.5 7.5q-2 0 -6 1t-6 1v5q0 59 40 59h2q80 -3 149 -3q62 0 113 3h5q17 0 28.5 -7.5t11.5 -18.5v-4q-2 -13 -19 -23.5
t-38 -12.5q-7 -1 -81 -3q9 -18 9 -42q0 -18 0.5 -51t0.5 -49q0 -83 -3 -236t-3 -244v-2q0 -20 5 -24t32 -4h8q9 0 63 -2q24 -1 24 -15q0 -8 -8.5 -20.5t-17.5 -20.5l-8 -8q-76 -14 -149 -14q-28 0 -83.5 3t-66.5 3q-16 1 -27 8t-11 18q0 3 2 9z" />
    <glyph glyph-name="Eth" unicode="&#xd0;" horiz-adv-x="800" 
d="M439 372q-2 -13 -16.5 -22.5t-32.5 -10.5q-78 -3 -148 -3h-9q-1 -54 -2.5 -143t-1.5 -113q25 -21 104 -21q100 0 169 47q128 85 128 294q0 40 -4 76q-15 139 -87 202.5t-178 63.5q-33 0 -66 -6q-96 -16 -186 -66q-16 -9 -35 -9q-26 0 -40 14q-8 8 -8 19q0 22 25 36
q115 64 236 83q42 7 88 7q147 0 244.5 -82.5t114.5 -243.5q5 -48 5 -82q0 -104 -31.5 -185.5t-86 -131.5t-117.5 -77.5t-134 -35.5q-28 -3 -57 -3q-67 0 -118 16t-68 47q-6 9 -6 22q0 24 1.5 120t2.5 154q-15 0 -93 6q-14 1 -23 8.5t-9 17.5q0 3 2 9q4 12 19 19.5t32 7.5h5
q38 -4 67 -5q0 126 -9 195v4q0 15 14 27t35 16q4 1 12 1q18 0 31.5 -8.5t15.5 -21.5q9 -67 9 -216h24q68 0 143 3h3q16 0 26 -7t10 -18v-4z" />
    <glyph glyph-name="Ntilde" unicode="&#xd1;" horiz-adv-x="810" 
d="M576 1050q13 -1 21 -8.5t8 -17.5q0 -5 -1 -8q-38 -106 -126 -106q-25 0 -47.5 10.5t-31 18t-24.5 23.5q-37 36 -51 36q-3 0 -9.5 -6t-15.5 -19.5t-15 -29.5q-4 -11 -16 -18t-26 -7h-7q-13 1 -21 9t-8 18q0 2 2 8q41 105 126 105q12 0 22 -1.5t19.5 -6t16 -7.5t15 -9.5
t12 -9.5t11.5 -11l9 -9q34 -34 49 -34q2 0 9.5 6t16.5 19.5t14 28.5q10 26 43 26h5zM160 -14h-8q-20 0 -33 9.5t-13 23.5q0 28 0.5 87.5t0.5 90.5q0 362 -15 550q0 3 -0.5 8t-0.5 7q45 42 79 42q16 0 24 -12q66 -90 225.5 -331t188.5 -284v72q0 368 -12 508v3q0 15 14.5 28
t36.5 16q1 0 5 0.5t5 0.5q19 0 32.5 -9t14.5 -23q12 -149 12 -515q0 -113 -2 -223q-1 -43 -46 -43q-11 0 -24 3t-20 5l-8 3l-10 10q-21 24 -84 119.5t-155.5 236.5t-156.5 233q5 -133 5 -356q0 -38 -0.5 -110t-0.5 -105q0 -16 -16 -29.5t-38 -15.5z" />
    <glyph glyph-name="Ograve" unicode="&#xd2;" horiz-adv-x="820" 
d="M255 1027l21 30q13 24 37 24q15 0 30 -12q97 -77 177 -163q-20 -27 -46 -27q-6 0 -16 4q-29 14 -198 117q-9 6 -9 15q0 7 4 12zM588 623q-19 57 -67 88t-105 31q-28 0 -52 -7q-35 -9 -67 -31.5t-62 -61.5t-48 -102t-18 -143q0 -87 24 -155t63 -107t81.5 -58.5t85.5 -19.5
q13 0 19 1q36 4 71 23.5t68 56t53 99t20 141.5q0 55 -21 113.5t-37 67.5q-29 9 -29 32q0 9 5 17q6 9 16 15zM681 616q41 -31 61 -94t20 -132q0 -173 -89.5 -284t-230.5 -126q-26 -2 -38 -2q-147 0 -245 110.5t-98 296.5q0 170 77 280t203 144q47 12 92 12q93 0 164.5 -46
t96.5 -123q1 -3 1 -8q0 -16 -14 -28z" />
    <glyph glyph-name="Oacute" unicode="&#xd3;" horiz-adv-x="820" 
d="M557 1005q-155 -111 -210 -124q-11 -2 -22 -2q-25 0 -25 11q0 8 12 19q4 4 27 25t63.5 58.5t75.5 69.5q18 19 38 19q17 0 29 -17l21 -30q3 -4 3 -10q0 -10 -12 -19zM588 623q-19 57 -67 88t-105 31q-28 0 -52 -7q-35 -9 -67 -31.5t-62 -61.5t-48 -102t-18 -143
q0 -87 24 -155t63 -107t81.5 -58.5t85.5 -19.5q13 0 19 1q36 4 71 23.5t68 56t53 99t20 141.5q0 55 -21 113.5t-37 67.5q-29 9 -29 32q0 9 5 17q6 9 16 15zM681 616q41 -31 61 -94t20 -132q0 -173 -89.5 -284t-230.5 -126q-26 -2 -38 -2q-147 0 -245 110.5t-98 296.5
q0 170 77 280t203 144q47 12 92 12q93 0 164.5 -46t96.5 -123q1 -3 1 -8q0 -16 -14 -28z" />
    <glyph glyph-name="Ocircumflex" unicode="&#xd4;" horiz-adv-x="820" 
d="M442 1053q140 -129 151 -151q-14 -34 -39 -34q-8 0 -18 6q-29 16 -131 96q-104 -80 -129 -94q-23 -10 -39 -10q-14 0 -14 11q0 4 5 16q6 12 28.5 35.5t61.5 61t58 56.5q15 20 37 20q15 0 29 -13zM588 623q-19 57 -67 88t-105 31q-28 0 -52 -7q-35 -9 -67 -31.5t-62 -61.5
t-48 -102t-18 -143q0 -87 24 -155t63 -107t81.5 -58.5t85.5 -19.5q13 0 19 1q36 4 71 23.5t68 56t53 99t20 141.5q0 55 -21 113.5t-37 67.5q-29 9 -29 32q0 9 5 17q6 9 16 15zM681 616q41 -31 61 -94t20 -132q0 -173 -89.5 -284t-230.5 -126q-26 -2 -38 -2
q-147 0 -245 110.5t-98 296.5q0 170 77 280t203 144q47 12 92 12q93 0 164.5 -46t96.5 -123q1 -3 1 -8q0 -16 -14 -28z" />
    <glyph glyph-name="Otilde" unicode="&#xd5;" horiz-adv-x="820" 
d="M581 1050q13 -1 21 -8.5t8 -17.5q0 -5 -1 -8q-38 -106 -126 -106q-25 0 -47.5 10.5t-31 18t-24.5 23.5q-37 36 -51 36q-3 0 -9.5 -6t-15.5 -19.5t-15 -29.5q-4 -11 -16 -18t-26 -7h-7q-13 1 -21 9t-8 18q0 2 2 8q41 105 126 105q12 0 22 -1.5t19.5 -6t16 -7.5t15 -9.5
t12 -9.5t11.5 -11l9 -9q34 -34 49 -34q2 0 9.5 6t16.5 19.5t14 28.5q10 26 43 26h5zM588 623q-19 57 -67 88t-105 31q-28 0 -52 -7q-35 -9 -67 -31.5t-62 -61.5t-48 -102t-18 -143q0 -87 24 -155t63 -107t81.5 -58.5t85.5 -19.5q13 0 19 1q36 4 71 23.5t68 56t53 99
t20 141.5q0 55 -21 113.5t-37 67.5q-29 9 -29 32q0 9 5 17q6 9 16 15zM681 616q41 -31 61 -94t20 -132q0 -173 -89.5 -284t-230.5 -126q-26 -2 -38 -2q-147 0 -245 110.5t-98 296.5q0 170 77 280t203 144q47 12 92 12q93 0 164.5 -46t96.5 -123q1 -3 1 -8q0 -16 -14 -28z
" />
    <glyph glyph-name="Odieresis" unicode="&#xd6;" horiz-adv-x="820" 
d="M597 1022q18 -18 18 -41q0 -9 -1 -13q-4 -23 -27 -43t-61 -20q-35 0 -52 18t-17 43t21 50.5t68 25.5q8 0 16 -2l11 -4q16 -5 24 -14zM345 1022q18 -18 18 -41q0 -9 -1 -13q-4 -23 -27 -43t-61 -20q-35 0 -52 18t-17 43t21 50.5t68 25.5q8 0 16 -2l11 -4q16 -5 24 -14z
M588 623q-19 57 -67 88t-105 31q-28 0 -52 -7q-35 -9 -67 -31.5t-62 -61.5t-48 -102t-18 -143q0 -87 24 -155t63 -107t81.5 -58.5t85.5 -19.5q13 0 19 1q36 4 71 23.5t68 56t53 99t20 141.5q0 55 -21 113.5t-37 67.5q-29 9 -29 32q0 9 5 17q6 9 16 15zM681 616
q41 -31 61 -94t20 -132q0 -173 -89.5 -284t-230.5 -126q-26 -2 -38 -2q-147 0 -245 110.5t-98 296.5q0 170 77 280t203 144q47 12 92 12q93 0 164.5 -46t96.5 -123q1 -3 1 -8q0 -16 -14 -28z" />
    <glyph glyph-name="multiply" unicode="&#xd7;" horiz-adv-x="600" 
d="M496 546q18 -9 18 -25q0 -13 -11 -24q-77 -77 -140 -146q70 -74 150 -164q7 -7 7 -17q0 -20 -25 -33q-14 -7 -31 -7q-25 0 -37 13q-62 69 -127 139q-15 -16 -55 -61.5t-65 -72.5q-17 -19 -48 -19q-12 0 -21 4q-20 8 -20 27q0 12 9 22q45 50 144 159q-77 82 -150 150
q-8 7 -8 18q0 20 21 32q15 9 35 9q21 0 34 -11q70 -67 131 -129q54 58 120 123q18 18 46 18q11 0 23 -5z" />
    <glyph glyph-name="Oslash" unicode="&#xd8;" horiz-adv-x="820" 
d="M764 788q15 -6 15 -19q0 -9 -5 -15q-32 -39 -82 -97q0 -1 1 -2.5t1 -2.5q1 -3 1 -8q0 -16 -14 -28q41 -31 61 -94t20 -132q0 -173 -89.5 -284t-230.5 -126q-26 -2 -38 -2q-144 0 -240 105q-11 -11 -32 -31.5t-30 -29.5q-12 -12 -33 -12q-8 0 -16 3q-12 6 -12 19q0 9 7 16
q8 8 24 23.5t30 30t27 27.5q-68 104 -68 256q0 170 77 280t203 144q47 12 92 12q72 0 133 -28.5t97 -79.5q35 41 53 63q12 15 33 15q7 0 15 -3zM582 619q1 1 2.5 3t2.5 3q-19 57 -66.5 87t-104.5 30q-28 0 -52 -7q-35 -9 -67 -31.5t-62 -61.5t-48 -102t-18 -143
q0 -107 38 -188q197 207 364 398l1 1q6 8 10 11zM602 554q-194 -219 -365 -396q37 -51 87 -76t99 -25q13 0 19 1q36 4 71 23.5t68 56t53 99t20 141.5q0 49 -17.5 102.5t-34.5 73.5z" />
    <glyph glyph-name="Ugrave" unicode="&#xd9;" horiz-adv-x="810" 
d="M250 1027l21 30q13 24 37 24q15 0 30 -12q97 -77 177 -163q-20 -27 -46 -27q-6 0 -16 4q-29 14 -198 117q-9 6 -9 15q0 7 4 12zM651 799h8q20 0 33.5 -9.5t13.5 -23.5q1 -84 7 -237t6 -203q0 -62 -10 -112q-21 -105 -98.5 -171.5t-213.5 -66.5q-158 0 -232 83.5
t-74 254.5q0 44 5.5 205t5.5 235q0 16 16 29.5t38 15.5h8q20 0 33 -9.5t13 -23.5q0 -76 -5.5 -237t-5.5 -203q0 -155 52 -213.5t162 -58.5q85 0 128.5 37.5t60.5 122.5q9 45 9 100q0 48 -6 201t-7 239q0 16 15.5 29.5t37.5 15.5z" />
    <glyph glyph-name="Uacute" unicode="&#xda;" horiz-adv-x="810" 
d="M552 1005q-155 -111 -210 -124q-11 -2 -22 -2q-25 0 -25 11q0 8 12 19q4 4 27 25t63.5 58.5t75.5 69.5q18 19 38 19q17 0 29 -17l21 -30q3 -4 3 -10q0 -10 -12 -19zM651 799h8q20 0 33.5 -9.5t13.5 -23.5q1 -84 7 -237t6 -203q0 -62 -10 -112q-21 -105 -98.5 -171.5
t-213.5 -66.5q-158 0 -232 83.5t-74 254.5q0 44 5.5 205t5.5 235q0 16 16 29.5t38 15.5h8q20 0 33 -9.5t13 -23.5q0 -76 -5.5 -237t-5.5 -203q0 -155 52 -213.5t162 -58.5q85 0 128.5 37.5t60.5 122.5q9 45 9 100q0 48 -6 201t-7 239q0 16 15.5 29.5t37.5 15.5z" />
    <glyph glyph-name="Ucircumflex" unicode="&#xdb;" horiz-adv-x="810" 
d="M437 1053q140 -129 151 -151q-14 -34 -39 -34q-7 0 -18 6q-29 16 -131 96q-104 -80 -129 -94q-23 -10 -39 -10q-14 0 -14 11q0 4 5 16q6 12 28.5 35.5t61.5 61t58 56.5q15 20 37 20q15 0 29 -13zM651 799h8q20 0 33.5 -9.5t13.5 -23.5q1 -84 7 -237t6 -203
q0 -62 -10 -112q-21 -105 -98.5 -171.5t-213.5 -66.5q-158 0 -232 83.5t-74 254.5q0 44 5.5 205t5.5 235q0 16 16 29.5t38 15.5h8q20 0 33 -9.5t13 -23.5q0 -76 -5.5 -237t-5.5 -203q0 -155 52 -213.5t162 -58.5q85 0 128.5 37.5t60.5 122.5q9 45 9 100q0 48 -6 201t-7 239
q0 16 15.5 29.5t37.5 15.5z" />
    <glyph glyph-name="Udieresis" unicode="&#xdc;" horiz-adv-x="810" 
d="M592 1022q18 -18 18 -41q0 -9 -1 -13q-4 -23 -27 -43t-61 -20q-35 0 -52 18t-17 43t21 50.5t68 25.5q8 0 16 -2l11 -4q16 -5 24 -14zM340 1022q18 -18 18 -41q0 -9 -1 -13q-4 -23 -27 -43t-61 -20q-35 0 -52 18t-17 43t21 50.5t68 25.5q8 0 16 -2l11 -4q16 -5 24 -14z
M651 799h8q20 0 33.5 -9.5t13.5 -23.5q1 -84 7 -237t6 -203q0 -62 -10 -112q-21 -105 -98.5 -171.5t-213.5 -66.5q-158 0 -232 83.5t-74 254.5q0 44 5.5 205t5.5 235q0 16 16 29.5t38 15.5h8q20 0 33 -9.5t13 -23.5q0 -76 -5.5 -237t-5.5 -203q0 -155 52 -213.5t162 -58.5
q85 0 128.5 37.5t60.5 122.5q9 45 9 100q0 48 -6 201t-7 239q0 16 15.5 29.5t37.5 15.5z" />
    <glyph glyph-name="Yacute" unicode="&#xdd;" horiz-adv-x="710" 
d="M502 1005q-155 -111 -210 -124q-11 -2 -22 -2q-25 0 -25 11q0 8 12 19q4 4 27 25t63.5 58.5t75.5 69.5q18 19 38 19q17 0 29 -17l21 -30q3 -4 3 -10q0 -10 -12 -19zM642 799q17 -1 27.5 -10.5t10.5 -22.5q0 -6 -3 -12q-68 -159 -146 -282q-23 -36 -50.5 -76t-38.5 -56.5
t-19.5 -36t-8.5 -38.5q-1 -24 -1 -71q0 -79 6 -166v-3q0 -15 -14.5 -28t-36.5 -16q-2 0 -5 -0.5t-5 -0.5q-19 0 -32.5 9t-14.5 23q-6 88 -6 171q0 48 1 72q0 24 8 50q-70 36 -137 143q-83 129 -145 307q-2 6 -2 9q0 14 11.5 26t30.5 17q10 3 20 3q38 0 46 -25
q58 -168 139 -295q59 -90 78 -108q2 3 31 44.5t47 69.5q74 116 140 270q6 14 24 23.5t38 9.5h7z" />
    <glyph glyph-name="Thorn" unicode="&#xde;" horiz-adv-x="810" 
d="M369 779q-2 -15 -19.5 -26.5t-39.5 -13.5h-14h-26q-21 0 -29 -1q9 -18 9 -46q0 -17 0.5 -48.5t0.5 -46.5q139 63 255 63q73 0 127 -25q66 -31 101.5 -85.5t35.5 -118.5q0 -91 -64 -161q-85 -94 -241 -94q-97 0 -211 40v-119v-18q0 -7 2 -9t10 -2q2 0 17.5 0.5t25.5 0.5
q6 0 19.5 2t20.5 2q20 -24 20 -44q0 -22 -30 -27q-68 -12 -135 -12q-3 0 -133 5q-41 2 -41 29q0 3 2 9q5 14 24 24t40 10h3q11 -1 29 -4t26 -3q-3 12 -3 28q0 150 -4 590q0 18 -1 24.5t-7.5 10t-15 3t-30 2t-45.5 8.5q-12 3 -12 12t13 23.5t26 24.5l13 10q12 -1 34 -1
q42 0 108.5 7t89.5 9h5q19 0 31.5 -8t12.5 -21v-3zM252 516q1 -72 1 -212q119 -54 212 -54q99 0 153 60q41 46 41 108q0 46 -23.5 85.5t-67.5 59.5q-41 19 -92 19q-97 0 -224 -66z" />
    <glyph glyph-name="germandbls" unicode="&#xdf;" horiz-adv-x="770" 
d="M308 146q13 5 25 5q28 0 39 -18q47 -81 138 -81q54 0 86 32q36 36 36 93q0 37 -17.5 69.5t-50.5 47.5q-8 4 -71 28t-80 32q-80 40 -91 106q-2 12 -2 19q0 55 48.5 102t130.5 63q-29 81 -75.5 116t-93.5 35q-11 0 -16 -1q-46 -7 -83 -45.5t-37 -98.5v-13q16 -220 16 -474
q0 -95 -1 -143q0 -14 -15 -26t-35 -14h-7q-17 0 -29 8.5t-12 21.5q1 48 1 142q0 254 -16 471q0 3 -0.5 8t-0.5 8q0 83 60.5 147.5t153.5 77.5q20 3 38 3q93 0 163 -62.5t99 -178.5q2 -8 2 -12q0 -35 -53 -35h-5q-58 0 -91.5 -21.5t-40.5 -54.5q-1 -4 -1 -13q0 -46 57 -74
q11 -6 74.5 -30.5t74.5 -29.5q53 -25 80.5 -69t27.5 -96q0 -82 -60 -142q-69 -69 -178 -69q-147 0 -216 117q-3 6 -3 12q0 24 31 37z" />
    <glyph glyph-name="agrave" unicode="&#xe0;" horiz-adv-x="675" 
d="M200 847l21 30q13 24 37 24q15 0 30 -12q97 -77 177 -163q-20 -27 -46 -27q-6 0 -16 4q-29 14 -198 117q-9 6 -9 15q0 7 4 12zM535 360q45 -290 93 -301q26 -6 26 -29q0 -11 -5 -17q-17 -24 -47 -24q-5 0 -15 2q-35 10 -58 45.5t-43 113.5q-24 -77 -72 -124t-136 -47
q-115 0 -169 73t-54 180q0 46 9 88q11 54 35 104.5t61.5 96t95 73t125.5 27.5q39 0 69 -13.5t45.5 -31.5t25 -41.5t11.5 -37.5t2 -25q0 -14 -14.5 -26t-34.5 -14h-7q-18 0 -30 8.5t-12 21.5q0 24 -20.5 55.5t-48.5 31.5q-68 0 -126 -64t-79 -165q-8 -42 -8 -76
q0 -85 38.5 -139t99.5 -54q45 0 79 45t51 130q11 58 14 110q1 12 10 24t22 12q18 0 35 -3t25 -6z" />
    <glyph glyph-name="aacute" unicode="&#xe1;" horiz-adv-x="675" 
d="M502 825q-155 -111 -210 -124q-11 -2 -22 -2q-25 0 -25 11q0 8 12 19q4 4 27 25t63.5 58.5t75.5 69.5q18 19 38 19q17 0 29 -17l21 -30q3 -5 3 -10q0 -10 -12 -19zM535 360q45 -290 93 -301q26 -6 26 -29q0 -11 -5 -17q-17 -24 -47 -24q-5 0 -15 2q-35 10 -58 45.5
t-43 113.5q-24 -77 -72 -124t-136 -47q-115 0 -169 73t-54 180q0 46 9 88q11 54 35 104.5t61.5 96t95 73t125.5 27.5q39 0 69 -13.5t45.5 -31.5t25 -41.5t11.5 -37.5t2 -25q0 -14 -14.5 -26t-34.5 -14h-7q-18 0 -30 8.5t-12 21.5q0 24 -20.5 55.5t-48.5 31.5q-68 0 -126 -64
t-79 -165q-8 -42 -8 -76q0 -85 38.5 -139t99.5 -54q45 0 79 45t51 130q11 58 14 110q1 12 10 24t22 12q18 0 35 -3t25 -6z" />
    <glyph glyph-name="acircumflex" unicode="&#xe2;" horiz-adv-x="675" 
d="M387 873q140 -129 151 -151q-14 -34 -39 -34q-7 0 -18 6q-29 16 -131 96q-104 -80 -129 -94q-23 -10 -39 -10q-14 0 -14 11q0 4 5 16q6 12 28.5 35.5t61.5 61t58 56.5q15 20 37 20q15 0 29 -13zM535 360q45 -290 93 -301q26 -6 26 -29q0 -11 -5 -17q-17 -24 -47 -24
q-5 0 -15 2q-35 10 -58 45.5t-43 113.5q-24 -77 -72 -124t-136 -47q-115 0 -169 73t-54 180q0 46 9 88q11 54 35 104.5t61.5 96t95 73t125.5 27.5q39 0 69 -13.5t45.5 -31.5t25 -41.5t11.5 -37.5t2 -25q0 -14 -14.5 -26t-34.5 -14h-7q-18 0 -30 8.5t-12 21.5
q0 24 -20.5 55.5t-48.5 31.5q-68 0 -126 -64t-79 -165q-8 -42 -8 -76q0 -85 38.5 -139t99.5 -54q45 0 79 45t51 130q11 58 14 110q1 12 10 24t22 12q18 0 35 -3t25 -6z" />
    <glyph glyph-name="atilde" unicode="&#xe3;" horiz-adv-x="675" 
d="M526 870q13 -1 21 -8.5t8 -17.5q0 -5 -1 -8q-38 -106 -126 -106q-25 0 -47.5 10.5t-31 18t-24.5 23.5q-37 36 -51 36q-3 0 -9.5 -6t-15.5 -19.5t-15 -29.5q-4 -11 -16 -18t-26 -7h-7q-13 1 -21 9t-8 18q0 2 2 8q41 105 126 105q12 0 22 -1.5t19.5 -6t16 -7.5t15 -9.5
t12 -9.5t11.5 -11l9 -9q34 -34 49 -34q2 0 9.5 6t16.5 19.5t14 28.5q10 26 43 26h5zM535 360q45 -290 93 -301q26 -6 26 -29q0 -11 -5 -17q-17 -24 -47 -24q-5 0 -15 2q-35 10 -58 45.5t-43 113.5q-24 -77 -72 -124t-136 -47q-115 0 -169 73t-54 180q0 46 9 88
q11 54 35 104.5t61.5 96t95 73t125.5 27.5q39 0 69 -13.5t45.5 -31.5t25 -41.5t11.5 -37.5t2 -25q0 -14 -14.5 -26t-34.5 -14h-7q-18 0 -30 8.5t-12 21.5q0 24 -20.5 55.5t-48.5 31.5q-68 0 -126 -64t-79 -165q-8 -42 -8 -76q0 -85 38.5 -139t99.5 -54q45 0 79 45t51 130
q11 58 14 110q1 12 10 24t22 12q18 0 35 -3t25 -6z" />
    <glyph glyph-name="adieresis" unicode="&#xe4;" horiz-adv-x="675" 
d="M542 842q18 -18 18 -41q0 -9 -1 -13q-4 -23 -27 -43t-61 -20q-35 0 -52 18t-17 43t21 50.5t68 25.5q8 0 16 -2l11 -4q16 -5 24 -14zM290 842q18 -18 18 -41q0 -9 -1 -13q-4 -23 -27 -43t-61 -20q-35 0 -52 18t-17 43t21 50.5t68 25.5q8 0 16 -2l11 -4q16 -5 24 -14z
M535 360q45 -290 93 -301q26 -6 26 -29q0 -11 -5 -17q-17 -24 -47 -24q-5 0 -15 2q-35 10 -58 45.5t-43 113.5q-24 -77 -72 -124t-136 -47q-115 0 -169 73t-54 180q0 46 9 88q11 54 35 104.5t61.5 96t95 73t125.5 27.5q39 0 69 -13.5t45.5 -31.5t25 -41.5t11.5 -37.5t2 -25
q0 -14 -14.5 -26t-34.5 -14h-7q-18 0 -30 8.5t-12 21.5q0 24 -20.5 55.5t-48.5 31.5q-68 0 -126 -64t-79 -165q-8 -42 -8 -76q0 -85 38.5 -139t99.5 -54q45 0 79 45t51 130q11 58 14 110q1 12 10 24t22 12q18 0 35 -3t25 -6z" />
    <glyph glyph-name="aring" unicode="&#xe5;" horiz-adv-x="675" 
d="M360 836q-15 -3 -16 -3q-22 0 -30 -37q-2 -12 -2 -17q0 -25 16.5 -38.5t27.5 -13.5q34 0 41 31q1 3 1 8q0 53 -38 70zM370 884q6 2 16 2q11 0 15 -2q71 -29 71 -110q0 -6 -2 -16q-7 -36 -44 -60.5t-82 -24.5t-75.5 28t-30.5 70q0 13 3 25q7 35 36 63t79 28q8 0 14 -3z
M535 360q45 -290 93 -301q26 -6 26 -29q0 -11 -5 -17q-17 -24 -47 -24q-5 0 -15 2q-35 10 -58 45.5t-43 113.5q-24 -77 -72 -124t-136 -47q-115 0 -169 73t-54 180q0 46 9 88q11 54 35 104.5t61.5 96t95 73t125.5 27.5q39 0 69 -13.5t45.5 -31.5t25 -41.5t11.5 -37.5t2 -25
q0 -14 -14.5 -26t-34.5 -14h-7q-18 0 -30 8.5t-12 21.5q0 24 -20.5 55.5t-48.5 31.5q-68 0 -126 -64t-79 -165q-8 -42 -8 -76q0 -85 38.5 -139t99.5 -54q45 0 79 45t51 130q11 58 14 110q1 12 10 24t22 12q18 0 35 -3t25 -6z" />
    <glyph glyph-name="ae" unicode="&#xe6;" horiz-adv-x="920" 
d="M508 337q154 5 182 10q58 10 72 50q3 10 5 24t2 24q0 54 -30 80.5t-69 26.5q-2 0 -5.5 -0.5t-5.5 -0.5q-50 -5 -97.5 -57.5t-53.5 -156.5zM509 266q5 -61 22.5 -105t42.5 -66t48.5 -32t48.5 -10q12 0 18 1q62 9 94 61q17 26 52 26q6 0 14 -2q29 -6 29 -29q0 -7 -5 -15
q-27 -44 -76.5 -74.5t-108.5 -37.5q-22 -2 -33 -2q-138 0 -199 130q-66 -114 -194 -128q-18 -2 -27 -2q-79 0 -130 47.5t-51 121.5q0 22 2 33q3 23 12.5 42t19.5 33t29.5 25.5t33.5 19t41 13t41.5 8.5t46 5t44 2.5t46.5 1.5t42 1q-5 62 -22.5 107.5t-42.5 68.5t-49 33
t-49 10q-12 0 -17 -1q-61 -9 -94 -62q-17 -26 -52 -26q-6 0 -14 2q-29 6 -29 29q0 7 5 15q27 44 76.5 74.5t108.5 37.5q22 2 33 2q138 0 199 -130q66 114 194 128q18 2 27 2q79 0 130 -47.5t51 -121.5q0 -11 -2 -31q-17 -119 -178 -146q-49 -8 -178 -12zM413 263
q-23 -1 -63 -2q-50 -1 -72 -2t-51 -5t-40 -12t-20.5 -21.5t-12.5 -35.5q-2 -14 -2 -25q0 -54 30 -80.5t69 -26.5q2 0 5.5 0.5t5.5 0.5q21 2 43.5 14t46 35t40.5 64.5t21 95.5z" />
    <glyph glyph-name="ccedilla" unicode="&#xe7;" horiz-adv-x="590" 
d="M527 141q30 -6 30 -31q0 -8 -5 -16q-27 -45 -79 -75t-113 -38l-33 -57q7 1 25 1q33 0 51 -7q51 -20 51 -68q0 -36 -29 -65q-40 -40 -105 -40q-47 0 -92 23q-13 6 -13 18q0 9 8 17q12 12 32 12q9 0 17 -3q32 -16 58 -16t42 16q12 12 12 28q0 22 -25 34q-24 11 -59 11h-8
h-4q-29 0 -29 17q0 2 0.5 5t1.5 4.5t1 2.5l1 2l31 63q-106 9 -173.5 89t-67.5 222q0 144 75.5 232t188.5 100q20 2 29 2q79 0 132.5 -41.5t53.5 -107.5q0 -15 -15.5 -27.5t-36.5 -14.5h-7q-19 0 -32 9.5t-13 22.5q0 39 -28.5 61t-67.5 22q-10 0 -15 -1q-25 -3 -50 -16
t-51 -39.5t-42.5 -76.5t-16.5 -115q0 -69 17 -120t45 -77t57 -37.5t59 -11.5q12 0 17 1q73 8 106 61q17 27 54 27q5 0 15 -2z" />
    <glyph glyph-name="egrave" unicode="&#xe8;" horiz-adv-x="620" 
d="M180 847l21 30q13 24 37 24q15 0 30 -12q97 -77 177 -163q-20 -27 -46 -27q-6 0 -16 4q-29 14 -198 117q-9 6 -9 15q0 7 4 12zM172 229q15 -75 52 -116.5t83 -54.5q21 -6 43 -6q40 0 75.5 17.5t55.5 47.5q17 24 51 24q6 0 16 -2q27 -8 27 -29q0 -10 -6 -17
q-35 -51 -99.5 -82t-135.5 -31q-40 0 -74 10q-75 20 -124.5 79t-64.5 156q-31 7 -31 28v3q2 20 26 32v14q0 135 76 220t190 99q24 2 35 2q84 0 140.5 -46t56.5 -122q0 -186 -320 -220zM164 299q54 4 80 7q119 13 170.5 42t51.5 97q0 53 -34 80t-81 27q-11 0 -17 -1
q-28 -3 -55.5 -17.5t-54.5 -40.5t-43.5 -73t-16.5 -107v-12v-2z" />
    <glyph glyph-name="eacute" unicode="&#xe9;" horiz-adv-x="620" 
d="M482 825q-155 -111 -210 -124q-11 -2 -22 -2q-25 0 -25 11q0 8 12 19q4 4 27 25t63.5 58.5t75.5 69.5q18 19 38 19q17 0 29 -17l21 -30q3 -5 3 -10q0 -10 -12 -19zM172 229q15 -75 52 -116.5t83 -54.5q21 -6 43 -6q40 0 75.5 17.5t55.5 47.5q17 24 51 24q6 0 16 -2
q27 -8 27 -29q0 -10 -6 -17q-35 -51 -99.5 -82t-135.5 -31q-40 0 -74 10q-75 20 -124.5 79t-64.5 156q-31 7 -31 28v3q2 20 26 32v14q0 135 76 220t190 99q24 2 35 2q84 0 140.5 -46t56.5 -122q0 -186 -320 -220zM164 299q54 4 80 7q119 13 170.5 42t51.5 97q0 53 -34 80
t-81 27q-11 0 -17 -1q-28 -3 -55.5 -17.5t-54.5 -40.5t-43.5 -73t-16.5 -107v-12v-2z" />
    <glyph glyph-name="ecircumflex" unicode="&#xea;" horiz-adv-x="620" 
d="M367 873q140 -129 151 -151q-14 -34 -39 -34q-8 0 -18 6q-29 16 -131 96q-104 -80 -129 -94q-23 -10 -39 -10q-14 0 -14 11q0 4 5 16q6 12 28.5 35.5t61.5 61t58 56.5q15 20 37 20q15 0 29 -13zM172 229q15 -75 52 -116.5t83 -54.5q21 -6 43 -6q40 0 75.5 17.5t55.5 47.5
q17 24 51 24q6 0 16 -2q27 -8 27 -29q0 -10 -6 -17q-35 -51 -99.5 -82t-135.5 -31q-40 0 -74 10q-75 20 -124.5 79t-64.5 156q-31 7 -31 28v3q2 20 26 32v14q0 135 76 220t190 99q24 2 35 2q84 0 140.5 -46t56.5 -122q0 -186 -320 -220zM164 299q54 4 80 7q119 13 170.5 42
t51.5 97q0 53 -34 80t-81 27q-11 0 -17 -1q-28 -3 -55.5 -17.5t-54.5 -40.5t-43.5 -73t-16.5 -107v-12v-2z" />
    <glyph glyph-name="edieresis" unicode="&#xeb;" horiz-adv-x="620" 
d="M522 842q18 -18 18 -41q0 -9 -1 -13q-4 -23 -27 -43t-61 -20q-35 0 -52 18t-17 43t21 50.5t68 25.5q8 0 16 -2l11 -4q16 -5 24 -14zM270 842q18 -18 18 -41q0 -9 -1 -13q-4 -23 -27 -43t-61 -20q-35 0 -52 18t-17 43t21 50.5t68 25.5q8 0 16 -2l11 -4q16 -5 24 -14z
M172 229q15 -75 52 -116.5t83 -54.5q21 -6 43 -6q40 0 75.5 17.5t55.5 47.5q17 24 51 24q6 0 16 -2q27 -8 27 -29q0 -10 -6 -17q-35 -51 -99.5 -82t-135.5 -31q-40 0 -74 10q-75 20 -124.5 79t-64.5 156q-31 7 -31 28v3q2 20 26 32v14q0 135 76 220t190 99q24 2 35 2
q84 0 140.5 -46t56.5 -122q0 -186 -320 -220zM164 299q54 4 80 7q119 13 170.5 42t51.5 97q0 53 -34 80t-81 27q-11 0 -17 -1q-28 -3 -55.5 -17.5t-54.5 -40.5t-43.5 -73t-16.5 -107v-12v-2z" />
    <glyph glyph-name="igrave" unicode="&#xec;" horiz-adv-x="330" 
d="M15 847l21 30q13 24 37 24q15 0 30 -12q97 -77 177 -163q-20 -27 -46 -27q-6 0 -16 4q-29 14 -198 117q-9 6 -9 15q0 7 4 12zM223 -8q-18 -13 -41 -13q-16 0 -29 8q-44 31 -44 111q0 18 2 60q2 69 2 175q0 41 -2 231q0 14 14.5 26.5t34.5 14.5h8q17 0 29 -8t12 -21
q2 -190 2 -232q0 -106 -2 -176v-23q0 -91 18 -102q12 -9 12 -22q0 -17 -16 -29z" />
    <glyph glyph-name="iacute" unicode="&#xed;" horiz-adv-x="330" 
d="M317 825q-155 -111 -210 -124q-11 -2 -22 -2q-25 0 -25 11q0 8 12 19q4 4 27 25t63.5 58.5t75.5 69.5q18 19 38 19q17 0 29 -17l21 -30q3 -5 3 -10q0 -10 -12 -19zM223 -8q-18 -13 -41 -13q-16 0 -29 8q-44 31 -44 111q0 18 2 60q2 69 2 175q0 41 -2 231q0 14 14.5 26.5
t34.5 14.5h8q17 0 29 -8t12 -21q2 -190 2 -232q0 -106 -2 -176v-23q0 -91 18 -102q12 -9 12 -22q0 -17 -16 -29z" />
    <glyph glyph-name="icircumflex" unicode="&#xee;" horiz-adv-x="330" 
d="M202 873q140 -129 151 -151q-14 -34 -39 -34q-8 0 -18 6q-29 16 -131 96q-104 -80 -129 -94q-23 -10 -39 -10q-14 0 -14 11q0 4 5 16q6 12 28.5 35.5t61.5 61t58 56.5q15 20 37 20q15 0 29 -13zM223 -8q-18 -13 -41 -13q-16 0 -29 8q-44 31 -44 111q0 18 2 60q2 69 2 175
q0 41 -2 231q0 14 14.5 26.5t34.5 14.5h8q17 0 29 -8t12 -21q2 -190 2 -232q0 -106 -2 -176v-23q0 -91 18 -102q12 -9 12 -22q0 -17 -16 -29z" />
    <glyph glyph-name="idieresis" unicode="&#xef;" horiz-adv-x="330" 
d="M357 842q18 -18 18 -41q0 -9 -1 -13q-4 -23 -27 -43t-61 -20q-35 0 -52 18t-17 43t21 50.5t68 25.5q8 0 16 -2l11 -4q16 -5 24 -14zM105 842q18 -18 18 -41q0 -9 -1 -13q-4 -23 -27 -43t-61 -20q-35 0 -52 18t-17 43t21 50.5t68 25.5q8 0 16 -2l11 -4q16 -5 24 -14z
M223 -8q-18 -13 -41 -13q-16 0 -29 8q-44 31 -44 111q0 18 2 60q2 69 2 175q0 41 -2 231q0 14 14.5 26.5t34.5 14.5h8q17 0 29 -8t12 -21q2 -190 2 -232q0 -106 -2 -176v-23q0 -91 18 -102q12 -9 12 -22q0 -17 -16 -29z" />
    <glyph glyph-name="eth" unicode="&#xf0;" horiz-adv-x="655" 
d="M243 893q14 10 31 10l29 -8q51 -30 101 -84q78 24 137 54q12 6 24 6q20 0 30 -13q5 -7 5 -14q0 -18 -21 -29q-59 -30 -134 -54q47 -63 82 -141q72 -164 72 -325q0 -131 -68.5 -216.5t-179.5 -97.5q-22 -2 -31 -2q-114 0 -189 85.5t-75 225.5q0 130 58.5 213.5
t157.5 110.5q34 10 69 10q53 0 98 -24q-31 71 -79 137q-77 -19 -184 -32h-5q-15 0 -25 7.5t-11 18.5v1q0 12 11.5 21.5t27.5 11.5q85 10 143 23q-38 39 -70 52q-16 7 -16 27q0 17 12 26zM154 300q0 -65 18 -115t46.5 -78t59 -42t60.5 -14q2 0 6 0.5t6 0.5q56 6 103.5 63.5
t47.5 169.5q0 83 -14 161q-13 3 -20 21q-13 41 -48.5 63.5t-79.5 22.5q-23 0 -45 -6q-33 -10 -62 -34t-53.5 -80t-24.5 -133z" />
    <glyph glyph-name="ntilde" unicode="&#xf1;" horiz-adv-x="655" 
d="M496 870q13 -1 21 -8.5t8 -17.5q0 -5 -1 -8q-38 -106 -126 -106q-25 0 -47.5 10.5t-31 18t-24.5 23.5q-37 36 -51 36q-3 0 -9.5 -6t-15.5 -19.5t-15 -29.5q-4 -11 -16 -18t-26 -7h-7q-13 1 -21 9t-8 18q0 2 2 8q41 105 126 105q12 0 22 -1.5t19.5 -6t16 -7.5t15 -9.5
t12 -9.5t11.5 -11l9 -9q34 -34 49 -34q2 0 9.5 6t16.5 19.5t14 28.5q10 26 43 26h5zM125 -15q-14 0 -24 9t-10 21q-2 453 -39 551q-2 6 -2 9q0 26 37 38q9 3 20 3q33 0 41 -22q19 -49 30 -195q13 45 29.5 80t43.5 69.5t69.5 53.5t96.5 19q50 0 82.5 -19.5t48 -57.5t21 -77.5
t5.5 -96.5q0 -77 5 -339q0 -14 -14 -26.5t-34 -14.5h-8q-18 0 -30 8t-12 21q-5 263 -5 341q0 101 -21 145t-52 44q-115 0 -164 -225q-26 -118 -34.5 -174.5t-15.5 -139.5q-33 -25 -64 -25z" />
    <glyph glyph-name="ograve" unicode="&#xf2;" horiz-adv-x="650" 
d="M170 847l21 30q13 24 37 24q15 0 30 -12q97 -77 177 -163q-20 -27 -46 -27q-6 0 -16 4q-29 14 -198 117q-9 6 -9 15q0 7 4 12zM451 471q-14 40 -48 60.5t-74 20.5q-17 0 -37 -5q-53 -15 -95.5 -75.5t-42.5 -171.5q0 -65 18 -115t46.5 -78t59 -42t60.5 -14q2 0 6 0.5
t6 0.5q56 6 103.5 63.5t47.5 169.5q0 39 -14 81t-26 50q-25 8 -25 28q0 10 5 16q3 6 10 11zM541 465q58 -51 58 -170q0 -131 -68.5 -216.5t-179.5 -97.5q-20 -2 -31 -2q-114 0 -189 85t-75 226q0 130 58.5 214t157.5 110q36 10 73 10q72 0 128 -36t75 -95q1 -2 1 -7
q0 -10 -8 -21z" />
    <glyph glyph-name="oacute" unicode="&#xf3;" horiz-adv-x="650" 
d="M472 825q-155 -111 -210 -124q-11 -2 -22 -2q-25 0 -25 11q0 8 12 19q4 4 27 25t63.5 58.5t75.5 69.5q18 19 38 19q17 0 29 -17l21 -30q3 -5 3 -10q0 -10 -12 -19zM451 471q-14 40 -48 60.5t-74 20.5q-17 0 -37 -5q-53 -15 -95.5 -75.5t-42.5 -171.5q0 -65 18 -115
t46.5 -78t59 -42t60.5 -14q2 0 6 0.5t6 0.5q56 6 103.5 63.5t47.5 169.5q0 39 -14 81t-26 50q-25 8 -25 28q0 10 5 16q3 6 10 11zM541 465q58 -51 58 -170q0 -131 -68.5 -216.5t-179.5 -97.5q-20 -2 -31 -2q-114 0 -189 85t-75 226q0 130 58.5 214t157.5 110q36 10 73 10
q72 0 128 -36t75 -95q1 -2 1 -7q0 -10 -8 -21z" />
    <glyph glyph-name="ocircumflex" unicode="&#xf4;" horiz-adv-x="650" 
d="M357 873q140 -129 151 -151q-14 -34 -39 -34q-7 0 -18 6q-29 16 -131 96q-104 -80 -129 -94q-23 -10 -39 -10q-14 0 -14 11q0 4 5 16q6 12 28.5 35.5t61.5 61t58 56.5q15 20 37 20q15 0 29 -13zM451 471q-14 40 -48 60.5t-74 20.5q-17 0 -37 -5q-53 -15 -95.5 -75.5
t-42.5 -171.5q0 -65 18 -115t46.5 -78t59 -42t60.5 -14q2 0 6 0.5t6 0.5q56 6 103.5 63.5t47.5 169.5q0 39 -14 81t-26 50q-25 8 -25 28q0 10 5 16q3 6 10 11zM541 465q58 -51 58 -170q0 -131 -68.5 -216.5t-179.5 -97.5q-20 -2 -31 -2q-114 0 -189 85t-75 226
q0 130 58.5 214t157.5 110q36 10 73 10q72 0 128 -36t75 -95q1 -2 1 -7q0 -10 -8 -21z" />
    <glyph glyph-name="otilde" unicode="&#xf5;" horiz-adv-x="650" 
d="M496 870q13 -1 21 -8.5t8 -17.5q0 -5 -1 -8q-38 -106 -126 -106q-25 0 -47.5 10.5t-31 18t-24.5 23.5q-37 36 -51 36q-3 0 -9.5 -6t-15.5 -19.5t-15 -29.5q-4 -11 -16 -18t-26 -7h-7q-13 1 -21 9t-8 18q0 2 2 8q41 105 126 105q12 0 22 -1.5t19.5 -6t16 -7.5t15 -9.5
t12 -9.5t11.5 -11l9 -9q34 -34 49 -34q2 0 9.5 6t16.5 19.5t14 28.5q10 26 43 26h5zM451 471q-14 40 -48 60.5t-74 20.5q-17 0 -37 -5q-53 -15 -95.5 -75.5t-42.5 -171.5q0 -65 18 -115t46.5 -78t59 -42t60.5 -14q2 0 6 0.5t6 0.5q56 6 103.5 63.5t47.5 169.5q0 39 -14 81
t-26 50q-25 8 -25 28q0 10 5 16q3 6 10 11zM541 465q58 -51 58 -170q0 -131 -68.5 -216.5t-179.5 -97.5q-20 -2 -31 -2q-114 0 -189 85t-75 226q0 130 58.5 214t157.5 110q36 10 73 10q72 0 128 -36t75 -95q1 -2 1 -7q0 -10 -8 -21z" />
    <glyph glyph-name="odieresis" unicode="&#xf6;" horiz-adv-x="650" 
d="M512 842q18 -18 18 -41q0 -9 -1 -13q-4 -23 -27 -43t-61 -20q-35 0 -52 18t-17 43t21 50.5t68 25.5q8 0 16 -2l11 -4q16 -5 24 -14zM260 842q18 -18 18 -41q0 -9 -1 -13q-4 -23 -27 -43t-61 -20q-35 0 -52 18t-17 43t21 50.5t68 25.5q8 0 16 -2l11 -4q16 -5 24 -14z
M451 471q-14 40 -48 60.5t-74 20.5q-17 0 -37 -5q-53 -15 -95.5 -75.5t-42.5 -171.5q0 -65 18 -115t46.5 -78t59 -42t60.5 -14q2 0 6 0.5t6 0.5q56 6 103.5 63.5t47.5 169.5q0 39 -14 81t-26 50q-25 8 -25 28q0 10 5 16q3 6 10 11zM541 465q58 -51 58 -170
q0 -131 -68.5 -216.5t-179.5 -97.5q-20 -2 -31 -2q-114 0 -189 85t-75 226q0 130 58.5 214t157.5 110q36 10 73 10q72 0 128 -36t75 -95q1 -2 1 -7q0 -10 -8 -21z" />
    <glyph glyph-name="divide" unicode="&#xf7;" horiz-adv-x="600" 
d="M353 548l3 -4q4 -4 7 -8t5.5 -11t2.5 -15q0 -4 -2 -12q-3 -20 -26 -38t-56 -18q-31 0 -48.5 16t-17.5 39q0 22 21.5 45t62.5 23q10 0 13 -1l16 -4q12 -3 19 -12zM353 226l3 -4q4 -4 7 -8t5.5 -11t2.5 -15q0 -4 -2 -12q-3 -20 -26 -38t-56 -18q-31 0 -48.5 16t-17.5 39
q0 22 21.5 45t62.5 23q10 0 13 -1l16 -4q12 -3 19 -12zM77 349q5 14 21 23t35 9h5q85 -8 199 -8q68 0 143 3h2q18 0 30 -8.5t12 -21.5v-4q-2 -14 -18 -25.5t-36 -12.5q-78 -3 -148 -3q-117 0 -210 8q-16 1 -26.5 10t-10.5 21q0 3 2 9z" />
    <glyph glyph-name="oslash" unicode="&#xf8;" horiz-adv-x="650" 
d="M594 608q15 -6 15 -19q0 -9 -5 -15q-10 -12 -29.5 -36t-29.5 -36l3 -9q1 -2 1 -7q0 -10 -8 -21q58 -51 58 -170q0 -131 -68.5 -216.5t-179.5 -97.5q-20 -2 -31 -2q-110 0 -182 77q-6 -6 -18 -17.5t-18 -17.5q-12 -12 -32 -12q-7 0 -17 4q-12 6 -12 19q0 10 7 17
q19 18 55 54q-47 78 -47 187q0 130 58.5 214t157.5 110q36 10 73 10q104 0 167 -69q6 7 17.5 20.5t16.5 20.5q12 15 33 15q7 0 15 -3zM467 410q-147 -170 -262 -287q54 -72 133 -72q2 0 6 0.5t6 0.5q56 6 103.5 63.5t47.5 169.5q0 34 -11 71t-23 54zM175 176
q135 140 273 302q-16 36 -48.5 55t-70.5 19q-17 0 -37 -5q-53 -15 -95.5 -75.5t-42.5 -171.5q0 -71 21 -124z" />
    <glyph glyph-name="ugrave" unicode="&#xf9;" horiz-adv-x="670" 
d="M170 847l21 30q13 24 37 24q15 0 30 -12q97 -77 177 -163q-20 -27 -46 -27q-6 0 -16 4q-29 14 -198 117q-9 6 -9 15q0 7 4 12zM559 592q4 -276 24.5 -393.5t61.5 -153.5q9 -9 9 -19q0 -19 -20 -31q-17 -11 -39 -11q-20 0 -30 11q-48 54 -67 178q-61 -194 -220 -194
q-97 0 -147 67t-50 184q0 30 0.5 87.5t0.5 84.5q0 109 -6 165v3q0 14 13.5 25.5t32.5 14.5q4 1 10 1q17 0 29 -7.5t13 -20.5q6 -60 6 -170q0 -27 -0.5 -85t-0.5 -88q0 -100 34 -144.5t79 -44.5q107 0 146 194q19 96 28 326q1 15 14.5 27.5t30.5 12.5q10 0 22 -4.5t19 -9.5z
" />
    <glyph glyph-name="uacute" unicode="&#xfa;" horiz-adv-x="670" 
d="M472 825q-155 -111 -210 -124q-11 -2 -22 -2q-25 0 -25 11q0 8 12 19q4 4 27 25t63.5 58.5t75.5 69.5q18 19 38 19q17 0 29 -17l21 -30q3 -5 3 -10q0 -10 -12 -19zM559 592q4 -276 24.5 -393.5t61.5 -153.5q9 -9 9 -19q0 -19 -20 -31q-17 -11 -39 -11q-20 0 -30 11
q-48 54 -67 178q-61 -194 -220 -194q-97 0 -147 67t-50 184q0 30 0.5 87.5t0.5 84.5q0 109 -6 165v3q0 14 13.5 25.5t32.5 14.5q4 1 10 1q17 0 29 -7.5t13 -20.5q6 -60 6 -170q0 -27 -0.5 -85t-0.5 -88q0 -100 34 -144.5t79 -44.5q107 0 146 194q19 96 28 326
q1 15 14.5 27.5t30.5 12.5q10 0 22 -4.5t19 -9.5z" />
    <glyph glyph-name="ucircumflex" unicode="&#xfb;" horiz-adv-x="670" 
d="M357 873q140 -129 151 -151q-14 -34 -39 -34q-7 0 -18 6q-29 16 -131 96q-104 -80 -129 -94q-23 -10 -39 -10q-14 0 -14 11q0 4 5 16q6 12 28.5 35.5t61.5 61t58 56.5q15 20 37 20q15 0 29 -13zM559 592q4 -276 24.5 -393.5t61.5 -153.5q9 -9 9 -19q0 -19 -20 -31
q-17 -11 -39 -11q-20 0 -30 11q-48 54 -67 178q-61 -194 -220 -194q-97 0 -147 67t-50 184q0 30 0.5 87.5t0.5 84.5q0 109 -6 165v3q0 14 13.5 25.5t32.5 14.5q4 1 10 1q17 0 29 -7.5t13 -20.5q6 -60 6 -170q0 -27 -0.5 -85t-0.5 -88q0 -100 34 -144.5t79 -44.5
q107 0 146 194q19 96 28 326q1 15 14.5 27.5t30.5 12.5q10 0 22 -4.5t19 -9.5z" />
    <glyph glyph-name="udieresis" unicode="&#xfc;" horiz-adv-x="670" 
d="M512 842q18 -18 18 -41q0 -9 -1 -13q-4 -23 -27 -43t-61 -20q-35 0 -52 18t-17 43t21 50.5t68 25.5q8 0 16 -2l11 -4q16 -5 24 -14zM260 842q18 -18 18 -41q0 -9 -1 -13q-4 -23 -27 -43t-61 -20q-35 0 -52 18t-17 43t21 50.5t68 25.5q8 0 16 -2l11 -4q16 -5 24 -14z
M559 592q4 -276 24.5 -393.5t61.5 -153.5q9 -9 9 -19q0 -19 -20 -31q-17 -11 -39 -11q-20 0 -30 11q-48 54 -67 178q-61 -194 -220 -194q-97 0 -147 67t-50 184q0 30 0.5 87.5t0.5 84.5q0 109 -6 165v3q0 14 13.5 25.5t32.5 14.5q4 1 10 1q17 0 29 -7.5t13 -20.5
q6 -60 6 -170q0 -27 -0.5 -85t-0.5 -88q0 -100 34 -144.5t79 -44.5q107 0 146 194q19 96 28 326q1 15 14.5 27.5t30.5 12.5q10 0 22 -4.5t19 -9.5z" />
    <glyph glyph-name="yacute" unicode="&#xfd;" horiz-adv-x="600" 
d="M447 825q-155 -111 -210 -124q-11 -2 -22 -2q-25 0 -25 11q0 8 12 19q4 4 27 25t63.5 58.5t75.5 69.5q18 19 38 19q17 0 29 -17l21 -30q3 -5 3 -10q0 -10 -12 -19zM554 573q-28 -267 -55 -422q-2 -9 -8.5 -47.5t-8.5 -49t-8.5 -43.5t-10.5 -45.5t-11 -39t-13.5 -40.5
t-16 -33t-20 -33.5t-22.5 -26.5q-50 -50 -128 -50q-59 0 -123 29q-19 10 -19 26q0 13 13 26q22 22 45 22q11 0 23 -5q52 -26 71 -26q20 0 40 16q59 49 101 275q-26 -48 -57 -75t-78 -27q-85 0 -132 108q-34 80 -76 315q-3 14 -8 44q-10 58 -16 89v4q0 14 12 25t31 15
q5 1 14 1q38 0 41 -25q43 -267 75 -381t74 -123q24 3 61 57.5t58 128.5q9 33 18 76.5t14 74.5t12 80.5t10 65.5q2 13 14.5 24t27.5 11q13 0 27 -5t21 -11z" />
    <glyph glyph-name="thorn" unicode="&#xfe;" horiz-adv-x="670" 
d="M97 843q9 3 20 3q33 0 41 -22q18 -46 26 -290q61 87 168 87q67 0 117.5 -26t79.5 -70.5t43.5 -96t14.5 -108.5q0 -42 -8 -85q-10 -47 -30.5 -89t-53.5 -79.5t-84 -60t-113 -22.5q-79 0 -129 45q-2 -162 -5 -235q-1 -15 -15.5 -27t-34.5 -13h-5q-18 0 -30.5 9t-12.5 22v1
q5 142 5 292q0 243 -9 466.5t-20 251.5q-2 6 -2 9q0 26 37 38zM190 189q15 -53 49 -93t93 -40q60 0 106 47.5t63 131.5q7 34 7 72q0 100 -48.5 171t-121.5 71q-60 0 -95.5 -51.5t-54.5 -147.5q2 -106 2 -161z" />
    <glyph glyph-name="ydieresis" unicode="&#xff;" horiz-adv-x="600" 
d="M487 842q18 -18 18 -41q0 -9 -1 -13q-4 -23 -27 -43t-61 -20q-35 0 -52 18t-17 43t21 50.5t68 25.5q8 0 16 -2l11 -4q16 -5 24 -14zM235 842q18 -18 18 -41q0 -9 -1 -13q-4 -23 -27 -43t-61 -20q-35 0 -52 18t-17 43t21 50.5t68 25.5q8 0 16 -2l11 -4q16 -5 24 -14z
M554 573q-28 -267 -55 -422q-2 -9 -8.5 -47.5t-8.5 -49t-8.5 -43.5t-10.5 -45.5t-11 -39t-13.5 -40.5t-16 -33t-20 -33.5t-22.5 -26.5q-50 -50 -128 -50q-59 0 -123 29q-19 10 -19 26q0 13 13 26q22 22 45 22q11 0 23 -5q52 -26 71 -26q20 0 40 16q59 49 101 275
q-26 -48 -57 -75t-78 -27q-85 0 -132 108q-34 80 -76 315q-3 14 -8 44q-10 58 -16 89v4q0 14 12 25t31 15q5 1 14 1q38 0 41 -25q43 -267 75 -381t74 -123q24 3 61 57.5t58 128.5q9 33 18 76.5t14 74.5t12 80.5t10 65.5q2 13 14.5 24t27.5 11q13 0 27 -5t21 -11z" />
    <glyph glyph-name="Amacron" unicode="&#x100;" horiz-adv-x="800" 
d="M590 981q-1 -13 -13.5 -21.5t-29.5 -9.5q-76 -3 -132 -3q-83 0 -174 8q-14 2 -22.5 9.5t-8.5 17.5q0 5 1 7q8 26 43 26h5q86 -8 165 -8q53 0 129 3h2q15 0 25 -7.5t10 -18.5v-3zM227 196q-54 -119 -95 -185q-15 -27 -56 -27q-8 0 -12 1q-30 6 -30 29q0 8 4 15
q33 55 81 156q-5 -1 -17.5 -2.5t-18.5 -2.5q-4 -1 -12 -1q-17 0 -29 8t-14 20v2q0 13 14.5 25t34.5 16q54 8 76 10q110 250 202 514q4 10 5 14q11 32 43 32q12 0 26 -4.5t22 -9.5l8 -4q96 -178 179.5 -392t123.5 -346q0 -2 2 -5.5t2 -5.5q2 -8 2 -12q0 -18 -17 -28t-39 -10
q-36 0 -47 21q-10 20 -22.5 54.5t-21.5 52.5t-26.5 39t-46.5 30t-72 9q-100 0 -249 -13zM260 269q151 12 234 12q43 0 86 -9q-77 204 -164 387q-89 -239 -156 -390z" />
    <glyph glyph-name="amacron" unicode="&#x101;" horiz-adv-x="675" 
d="M545 801q-1 -13 -13.5 -21.5t-29.5 -9.5q-76 -3 -132 -3q-83 0 -174 8q-14 2 -22.5 9.5t-8.5 17.5q0 5 1 7q8 26 43 26h5q86 -8 165 -8q53 0 129 3h2q15 0 25 -7.5t10 -18.5v-3zM535 360q45 -290 93 -301q26 -6 26 -29q0 -11 -5 -17q-17 -24 -47 -24q-5 0 -15 2
q-35 10 -58 45.5t-43 113.5q-24 -77 -72 -124t-136 -47q-115 0 -169 73t-54 180q0 46 9 88q11 54 35 104.5t61.5 96t95 73t125.5 27.5q39 0 69 -13.5t45.5 -31.5t25 -41.5t11.5 -37.5t2 -25q0 -14 -14.5 -26t-34.5 -14h-7q-18 0 -30 8.5t-12 21.5q0 24 -20.5 55.5
t-48.5 31.5q-68 0 -126 -64t-79 -165q-8 -42 -8 -76q0 -85 38.5 -139t99.5 -54q45 0 79 45t51 130q11 58 14 110q1 12 10 24t22 12q18 0 35 -3t25 -6z" />
    <glyph glyph-name="Abreve" unicode="&#x102;" horiz-adv-x="800" 
d="M392 885q-49 0 -85.5 15t-54.5 39t-26.5 46.5t-9.5 43.5v1q0 14 12 23.5t26 9.5q19 0 25 -18q10 -34 42.5 -63.5t88.5 -29.5h10q44 2 69.5 27t31.5 64q1 11 14.5 21t26.5 10q19 0 22 -22q1 -5 1 -16q0 -15 -5 -35q-14 -46 -63 -81t-125 -35zM227 196q-54 -119 -95 -185
q-15 -27 -56 -27q-8 0 -12 1q-30 6 -30 29q0 8 4 15q33 55 81 156q-5 -1 -17.5 -2.5t-18.5 -2.5q-4 -1 -12 -1q-17 0 -29 8t-14 20v2q0 13 14.5 25t34.5 16q54 8 76 10q110 250 202 514q4 10 5 14q11 32 43 32q12 0 26 -4.5t22 -9.5l8 -4q96 -178 179.5 -392t123.5 -346
q0 -2 2 -5.5t2 -5.5q2 -8 2 -12q0 -18 -17 -28t-39 -10q-36 0 -47 21q-10 20 -22.5 54.5t-21.5 52.5t-26.5 39t-46.5 30t-72 9q-100 0 -249 -13zM260 269q151 12 234 12q43 0 86 -9q-77 204 -164 387q-89 -239 -156 -390z" />
    <glyph glyph-name="abreve" unicode="&#x103;" horiz-adv-x="675" 
d="M347 705q-49 0 -85.5 15t-54.5 39t-26.5 46.5t-9.5 43.5v1q0 14 12 23.5t26 9.5q19 0 25 -18q10 -34 42.5 -63.5t88.5 -29.5h10q44 2 69.5 27t31.5 64q1 11 14.5 21t26.5 10q19 0 22 -22q1 -5 1 -16q0 -15 -5 -35q-14 -46 -63 -81t-125 -35zM535 360q45 -290 93 -301
q26 -6 26 -29q0 -11 -5 -17q-17 -24 -47 -24q-5 0 -15 2q-35 10 -58 45.5t-43 113.5q-24 -77 -72 -124t-136 -47q-115 0 -169 73t-54 180q0 46 9 88q11 54 35 104.5t61.5 96t95 73t125.5 27.5q39 0 69 -13.5t45.5 -31.5t25 -41.5t11.5 -37.5t2 -25q0 -14 -14.5 -26
t-34.5 -14h-7q-18 0 -30 8.5t-12 21.5q0 24 -20.5 55.5t-48.5 31.5q-68 0 -126 -64t-79 -165q-8 -42 -8 -76q0 -85 38.5 -139t99.5 -54q45 0 79 45t51 130q11 58 14 110q1 12 10 24t22 12q18 0 35 -3t25 -6z" />
    <glyph glyph-name="Aogonek" unicode="&#x104;" horiz-adv-x="800" 
d="M787 -195q3 -5 3 -11q0 -21 -25 -31q-45 -18 -83 -18q-67 0 -99 45q-19 28 -19 66q0 43 26.5 88t76.5 77l-1 1q0 2 -1 2q-10 20 -22.5 54.5t-21.5 52.5t-26.5 39t-46.5 30t-72 9q-100 0 -249 -13q-54 -119 -95 -185q-15 -27 -56 -27q-8 0 -12 1q-30 6 -30 29q0 8 4 15
q33 55 81 156q-5 -1 -17.5 -2.5t-18.5 -2.5q-4 -1 -12 -1q-17 0 -29 8t-14 20v2q0 13 14.5 25t34.5 16q54 8 76 10q110 250 202 514q4 10 5 14q11 32 43 32q12 0 26 -4.5t22 -9.5l8 -4q96 -178 179.5 -392t123.5 -346q0 -2 2 -5.5t2 -5.5q2 -8 2 -12q0 -13 -9 -22
q0 -19 -21 -29q-46 -22 -70 -58t-24 -71q0 -23 10 -37q13 -18 35 -18q19 0 46 11q12 4 19 4q23 0 33 -16zM260 269q151 12 234 12q43 0 86 -9q-77 204 -164 387q-89 -239 -156 -390z" />
    <glyph glyph-name="aogonek" unicode="&#x105;" horiz-adv-x="675" 
d="M667 -195q3 -5 3 -11q0 -21 -25 -31q-45 -18 -83 -18q-67 0 -99 45q-19 28 -19 66q0 43 25.5 86.5t73.5 75.5q-33 36 -57 132q-24 -77 -72 -124t-136 -47q-115 0 -169 73t-54 180q0 46 9 88q11 54 35 104.5t61.5 96t95 73t125.5 27.5q39 0 69 -13.5t45.5 -31.5t25 -41.5
t11.5 -37.5t2 -25q0 -14 -14.5 -26t-34.5 -14h-7q-18 0 -30 8.5t-12 21.5q0 24 -20.5 55.5t-48.5 31.5q-68 0 -126 -64t-79 -165q-8 -42 -8 -76q0 -85 38.5 -139t99.5 -54q45 0 79 45t51 130q11 58 14 110q1 12 10 24t22 12q18 0 35 -3t25 -6l7 -3q45 -290 93 -301
q26 -6 26 -29q0 -11 -5 -17q-10 -13 -25 -19q-1 0 -3 -2t-3 -2q-46 -22 -70 -58t-24 -71q0 -23 10 -37q13 -18 35 -18q19 0 46 11q12 4 19 4q23 0 33 -16z" />
    <glyph glyph-name="Cacute" unicode="&#x106;" horiz-adv-x="740" 
d="M542 1005q-155 -111 -210 -124q-11 -2 -22 -2q-25 0 -25 11q0 8 12 19q4 4 27 25t63.5 58.5t75.5 69.5q18 19 38 19q17 0 29 -17l21 -30q3 -4 3 -10q0 -10 -12 -19zM674 178q15 -3 24 -12t9 -21q0 -7 -5 -17q-36 -58 -105 -97.5t-150 -48.5q-15 -2 -44 -2
q-148 0 -246.5 104.5t-98.5 302.5q0 189 97 302.5t242 129.5q26 2 38 2q101 0 169.5 -52.5t68.5 -136.5q0 -17 -17 -30.5t-40 -15.5h-8q-21 0 -35 9.5t-14 24.5q0 56 -41 87.5t-99 31.5q-15 0 -22 -1q-36 -4 -72.5 -23t-72 -56t-58 -104.5t-22.5 -155.5q0 -93 23.5 -162
t62 -105.5t79.5 -53t85 -16.5q17 0 25 1q105 12 151 87q18 29 62 29q9 0 14 -1z" />
    <glyph glyph-name="cacute" unicode="&#x107;" horiz-adv-x="590" 
d="M472 825q-155 -111 -210 -124q-11 -2 -22 -2q-25 0 -25 11q0 8 12 19q4 4 27 25t63.5 58.5t75.5 69.5q18 19 38 19q17 0 29 -17l21 -30q3 -5 3 -10q0 -10 -12 -19zM527 141q30 -6 30 -31q0 -8 -5 -16q-28 -46 -82 -76.5t-118 -37.5q-22 -2 -34 -2q-114 0 -189.5 80.5
t-75.5 231.5q0 144 75.5 232t188.5 100q20 2 29 2q79 0 132.5 -41.5t53.5 -107.5q0 -15 -15.5 -27.5t-36.5 -14.5h-7q-19 0 -32 9.5t-13 22.5q0 39 -28.5 61t-67.5 22q-10 0 -15 -1q-25 -3 -50 -16t-51 -39.5t-42.5 -76.5t-16.5 -115q0 -69 17 -120t45 -77t57 -37.5
t59 -11.5q12 0 17 1q73 8 106 61q17 27 54 27q5 0 15 -2z" />
    <glyph glyph-name="Ccircumflex" unicode="&#x108;" horiz-adv-x="740" 
d="M427 1053q140 -129 151 -151q-14 -34 -39 -34q-7 0 -18 6q-29 16 -131 96q-104 -80 -129 -94q-23 -10 -39 -10q-14 0 -14 11q0 4 5 16q6 12 28.5 35.5t61.5 61t58 56.5q15 20 37 20q15 0 29 -13zM674 178q15 -3 24 -12t9 -21q0 -7 -5 -17q-36 -58 -105 -97.5t-150 -48.5
q-15 -2 -44 -2q-148 0 -246.5 104.5t-98.5 302.5q0 189 97 302.5t242 129.5q26 2 38 2q101 0 169.5 -52.5t68.5 -136.5q0 -17 -17 -30.5t-40 -15.5h-8q-21 0 -35 9.5t-14 24.5q0 56 -41 87.5t-99 31.5q-15 0 -22 -1q-36 -4 -72.5 -23t-72 -56t-58 -104.5t-22.5 -155.5
q0 -93 23.5 -162t62 -105.5t79.5 -53t85 -16.5q17 0 25 1q105 12 151 87q18 29 62 29q9 0 14 -1z" />
    <glyph glyph-name="ccircumflex" unicode="&#x109;" horiz-adv-x="590" 
d="M357 873q140 -129 151 -151q-14 -34 -39 -34q-7 0 -18 6q-29 16 -131 96q-104 -80 -129 -94q-23 -10 -39 -10q-14 0 -14 11q0 4 5 16q6 12 28.5 35.5t61.5 61t58 56.5q15 20 37 20q15 0 29 -13zM527 141q30 -6 30 -31q0 -8 -5 -16q-28 -46 -82 -76.5t-118 -37.5
q-22 -2 -34 -2q-114 0 -189.5 80.5t-75.5 231.5q0 144 75.5 232t188.5 100q20 2 29 2q79 0 132.5 -41.5t53.5 -107.5q0 -15 -15.5 -27.5t-36.5 -14.5h-7q-19 0 -32 9.5t-13 22.5q0 39 -28.5 61t-67.5 22q-10 0 -15 -1q-25 -3 -50 -16t-51 -39.5t-42.5 -76.5t-16.5 -115
q0 -69 17 -120t45 -77t57 -37.5t59 -11.5q12 0 17 1q73 8 106 61q17 27 54 27q5 0 15 -2z" />
    <glyph glyph-name="Cdotaccent" unicode="&#x10a;" horiz-adv-x="740" 
d="M461 1022q18 -18 18 -41q0 -9 -1 -13q-4 -23 -29.5 -43t-63.5 -20q-35 0 -54.5 18t-19.5 43q0 24 23 50t71 26q8 0 16 -2l16 -4q16 -5 24 -14zM674 178q15 -3 24 -12t9 -21q0 -7 -5 -17q-36 -58 -105 -97.5t-150 -48.5q-15 -2 -44 -2q-148 0 -246.5 104.5t-98.5 302.5
q0 189 97 302.5t242 129.5q26 2 38 2q101 0 169.5 -52.5t68.5 -136.5q0 -17 -17 -30.5t-40 -15.5h-8q-21 0 -35 9.5t-14 24.5q0 56 -41 87.5t-99 31.5q-15 0 -22 -1q-36 -4 -72.5 -23t-72 -56t-58 -104.5t-22.5 -155.5q0 -93 23.5 -162t62 -105.5t79.5 -53t85 -16.5
q17 0 25 1q105 12 151 87q18 29 62 29q9 0 14 -1z" />
    <glyph glyph-name="cdotaccent" unicode="&#x10b;" horiz-adv-x="590" 
d="M391 842q18 -18 18 -41q0 -9 -1 -13q-4 -23 -29.5 -43t-63.5 -20q-35 0 -54.5 18t-19.5 43q0 24 23 50t71 26q8 0 16 -2l16 -4q16 -5 24 -14zM527 141q30 -6 30 -31q0 -8 -5 -16q-28 -46 -82 -76.5t-118 -37.5q-22 -2 -34 -2q-114 0 -189.5 80.5t-75.5 231.5
q0 144 75.5 232t188.5 100q20 2 29 2q79 0 132.5 -41.5t53.5 -107.5q0 -15 -15.5 -27.5t-36.5 -14.5h-7q-19 0 -32 9.5t-13 22.5q0 39 -28.5 61t-67.5 22q-10 0 -15 -1q-25 -3 -50 -16t-51 -39.5t-42.5 -76.5t-16.5 -115q0 -69 17 -120t45 -77t57 -37.5t59 -11.5q12 0 17 1
q73 8 106 61q17 27 54 27q5 0 15 -2z" />
    <glyph glyph-name="Ccaron" unicode="&#x10c;" horiz-adv-x="740" 
d="M359 879q-140 129 -151 151q14 34 39 34q7 0 18 -6q29 -16 131 -96q104 80 129 94q23 10 39 10q14 0 14 -11q0 -4 -5 -16q-6 -12 -28.5 -35.5t-61.5 -61t-58 -56.5q-15 -20 -37 -20q-15 0 -29 13zM674 178q15 -3 24 -12t9 -21q0 -7 -5 -17q-36 -58 -105 -97.5t-150 -48.5
q-15 -2 -44 -2q-148 0 -246.5 104.5t-98.5 302.5q0 189 97 302.5t242 129.5q26 2 38 2q101 0 169.5 -52.5t68.5 -136.5q0 -17 -17 -30.5t-40 -15.5h-8q-21 0 -35 9.5t-14 24.5q0 56 -41 87.5t-99 31.5q-15 0 -22 -1q-36 -4 -72.5 -23t-72 -56t-58 -104.5t-22.5 -155.5
q0 -93 23.5 -162t62 -105.5t79.5 -53t85 -16.5q17 0 25 1q105 12 151 87q18 29 62 29q9 0 14 -1z" />
    <glyph glyph-name="ccaron" unicode="&#x10d;" horiz-adv-x="590" 
d="M289 699q-140 129 -151 151q14 34 39 34q7 0 18 -6q29 -16 131 -96q104 80 129 94q23 10 39 10q14 0 14 -11q0 -4 -5 -16q-6 -12 -28.5 -35.5t-61.5 -61t-58 -56.5q-15 -20 -37 -20q-15 0 -29 13zM527 141q30 -6 30 -31q0 -8 -5 -16q-28 -46 -82 -76.5t-118 -37.5
q-22 -2 -34 -2q-114 0 -189.5 80.5t-75.5 231.5q0 144 75.5 232t188.5 100q20 2 29 2q79 0 132.5 -41.5t53.5 -107.5q0 -15 -15.5 -27.5t-36.5 -14.5h-7q-19 0 -32 9.5t-13 22.5q0 39 -28.5 61t-67.5 22q-10 0 -15 -1q-25 -3 -50 -16t-51 -39.5t-42.5 -76.5t-16.5 -115
q0 -69 17 -120t45 -77t57 -37.5t59 -11.5q12 0 17 1q73 8 106 61q17 27 54 27q5 0 15 -2z" />
    <glyph glyph-name="Dcaron" unicode="&#x10e;" horiz-adv-x="800" 
d="M334 879q-140 129 -151 151q14 34 39 34q8 0 18 -6q29 -16 131 -96q104 80 129 94q23 10 39 10q14 0 14 -11q0 -4 -5 -16q-6 -12 -28.5 -35.5t-61.5 -61t-58 -56.5q-15 -20 -37 -20q-15 0 -29 13zM34 675q-8 8 -8 19q0 22 25 36q115 64 236 83q42 7 88 7
q147 0 244.5 -82.5t114.5 -243.5q5 -48 5 -82q0 -104 -31.5 -185.5t-86 -131.5t-117.5 -77.5t-134 -35.5q-28 -3 -57 -3q-67 0 -118 16t-68 47q-6 9 -6 22q0 18 2 126.5t2 178.5q0 160 -9 227v4q0 15 14 27t35 16q4 1 12 1q18 0 31.5 -8.5t15.5 -21.5q9 -69 9 -226
q0 -70 -2 -179t-2 -129q25 -21 104 -21q100 0 169 47q128 85 128 294q0 40 -4 76q-15 139 -87 202.5t-178 63.5q-33 0 -66 -6q-96 -16 -186 -66q-16 -9 -35 -9q-26 0 -40 14z" />
    <glyph glyph-name="dcaron" unicode="&#x10f;" horiz-adv-x="810" 
d="M675 777q-10 8 -10 17q0 15 17 26q8 6 12 8q32 17 64 17h5q32 -1 56 -23q32 -30 32 -87q0 -52 -30.5 -103.5t-91.5 -84.5q-16 -8 -31 -8q-20 0 -31 11q-7 7 -7 16q0 16 21 27q38 21 58 60t20 78q0 37 -15 50q0 1 -1 1q-1 -1 -2 -1t-1.5 -0.5t-1.5 -0.5q-16 -11 -36 -11
q-16 0 -27 8zM518 875q2 0 5 0.5t5 0.5q17 0 28.5 -8t12.5 -21q3 -47 3 -145q0 -55 -1.5 -169t-1.5 -152v-45q3 -113 26 -192q9 -30 22.5 -53t23 -32t14.5 -10q29 -6 29 -29q0 -8 -4 -15q-16 -26 -51 -26q-6 0 -14 2q-71 18 -106 139q-1 2 -1 4t-1 4q-31 -65 -76.5 -107
t-122.5 -42q-53 0 -97 18t-72 47t-47.5 68t-27.5 79.5t-8 83.5q0 39 8 82q10 48 31.5 92t57 82.5t89.5 61.5t120 23q67 0 112 -30v106q0 96 -3 141v1q0 14 13.5 26t33.5 15zM471 422q-26 122 -123 122q-69 0 -119.5 -50t-67.5 -137q-7 -32 -7 -72q0 -100 48.5 -167
t119.5 -67q27 0 56.5 24.5t53.5 75.5q26 55 41 134q-2 26 -2 39v47v51z" />
    <glyph glyph-name="Dcroat" unicode="&#x110;" horiz-adv-x="800" 
d="M439 372q-2 -13 -16.5 -22.5t-32.5 -10.5q-78 -3 -148 -3h-9q-1 -54 -2.5 -143t-1.5 -113q25 -21 104 -21q100 0 169 47q128 85 128 294q0 40 -4 76q-15 139 -87 202.5t-178 63.5q-33 0 -66 -6q-96 -16 -186 -66q-16 -9 -35 -9q-26 0 -40 14q-8 8 -8 19q0 22 25 36
q115 64 236 83q42 7 88 7q147 0 244.5 -82.5t114.5 -243.5q5 -48 5 -82q0 -104 -31.5 -185.5t-86 -131.5t-117.5 -77.5t-134 -35.5q-28 -3 -57 -3q-67 0 -118 16t-68 47q-6 9 -6 22q0 24 1.5 120t2.5 154q-15 0 -93 6q-14 1 -23 8.5t-9 17.5q0 3 2 9q4 12 19 19.5t32 7.5h5
q38 -4 67 -5q0 126 -9 195v4q0 15 14 27t35 16q4 1 12 1q18 0 31.5 -8.5t15.5 -21.5q9 -67 9 -216h24q68 0 143 3h3q16 0 26 -7t10 -18v-4z" />
    <glyph glyph-name="dcroat" unicode="&#x111;" horiz-adv-x="715" 
d="M665 741q-1 -13 -13.5 -21.5t-29.5 -9.5q-36 -2 -50 -2v-6q0 -55 -1.5 -169t-1.5 -152v-45q3 -113 26 -192q9 -30 22.5 -53t23 -32t14.5 -10q29 -6 29 -29q0 -8 -4 -15q-16 -26 -51 -26q-6 0 -14 2q-71 18 -106 139q-1 2 -1 4t-1 4q-31 -65 -76.5 -107t-122.5 -42
q-53 0 -97 18t-72 47t-47.5 68t-27.5 79.5t-8 83.5q0 39 8 82q10 48 31.5 92t57 82.5t89.5 61.5t120 23q67 0 112 -30v106v15q-75 0 -158 8q-14 2 -22.5 9.5t-8.5 17.5q0 5 1 7q8 26 43 26h5q80 -7 140 -8q0 3 -3 66v1q0 14 13.5 26t33.5 15q2 0 5 0.5t5 0.5q17 0 28.5 -8
t12.5 -21q3 -39 3 -79q16 0 56 2h2q15 0 25 -7.5t10 -18.5v-3zM471 422q-26 122 -123 122q-69 0 -119.5 -50t-67.5 -137q-7 -32 -7 -72q0 -100 48.5 -167t119.5 -67q27 0 56.5 24.5t53.5 75.5q26 55 41 134q-2 26 -2 39v47v51z" />
    <glyph glyph-name="Emacron" unicode="&#x112;" 
d="M570 981q-1 -13 -13.5 -21.5t-29.5 -9.5q-77 -3 -132 -3q-83 0 -174 8q-14 2 -22.5 9.5t-8.5 17.5q0 5 1 7q8 26 43 26h5q86 -8 165 -8q52 0 129 3h2q15 0 25 -7.5t10 -18.5v-3zM694 32q-2 -16 -19.5 -28t-39.5 -13q-34 -1 -142 -8t-160 -7q-104 0 -160.5 24t-56.5 86v10
q9 144 13 264q-2 0 -5.5 0.5t-5.5 0.5q-18 1 -30 10.5t-12 23.5q0 5 1 8q4 14 19.5 24t34.5 12q0 15 0.5 47t0.5 48t-0.5 49.5t-0.5 50.5q-1 49 -8.5 68t-26.5 27q-10 3 -13 4q-1 9 -1 21q0 55 37 55h2q106 -5 224 -5q157 0 265 10h8q20 0 33 -9.5t13 -23.5q0 -16 -16 -29.5
t-38 -15.5q-98 -10 -270 -10q-71 0 -111 1q10 -31 10 -81q0 -19 0.5 -55.5t0.5 -53.5q0 -18 -0.5 -52t-0.5 -50q72 -2 100 -2q73 0 195 6h3q20 0 33.5 -9.5t13.5 -23.5v-3q-2 -16 -19 -28.5t-39 -13.5q-125 -6 -205 -6q-55 0 -84 1q-3 -109 -13 -252v-3q0 -25 26.5 -35
t90.5 -10q3 0 304 13h3q20 0 33 -9.5t13 -23.5v-4z" />
    <glyph glyph-name="emacron" unicode="&#x113;" horiz-adv-x="620" 
d="M525 801q-1 -13 -13.5 -21.5t-29.5 -9.5q-77 -3 -132 -3q-83 0 -174 8q-14 2 -22.5 9.5t-8.5 17.5q0 5 1 7q8 26 43 26h5q86 -8 165 -8q53 0 129 3h2q15 0 25 -7.5t10 -18.5v-3zM172 229q15 -75 52 -116.5t83 -54.5q21 -6 43 -6q40 0 75.5 17.5t55.5 47.5q17 24 51 24
q6 0 16 -2q27 -8 27 -29q0 -10 -6 -17q-35 -51 -99.5 -82t-135.5 -31q-40 0 -74 10q-75 20 -124.5 79t-64.5 156q-31 7 -31 28v3q2 20 26 32v14q0 135 76 220t190 99q24 2 35 2q84 0 140.5 -46t56.5 -122q0 -186 -320 -220zM164 299q54 4 80 7q119 13 170.5 42t51.5 97
q0 53 -34 80t-81 27q-11 0 -17 -1q-28 -3 -55.5 -17.5t-54.5 -40.5t-43.5 -73t-16.5 -107v-12v-2z" />
    <glyph glyph-name="Ebreve" unicode="&#x114;" 
d="M372 885q-49 0 -85.5 15t-54.5 39t-26.5 46.5t-9.5 43.5v1q0 14 12 23.5t26 9.5q19 0 25 -18q10 -34 42.5 -63.5t88.5 -29.5h10q44 2 69.5 27t31.5 64q1 11 14.5 21t26.5 10q19 0 22 -22q1 -5 1 -16q0 -15 -5 -35q-14 -46 -63 -81t-125 -35zM694 32q-2 -16 -19.5 -28
t-39.5 -13q-34 -1 -142 -8t-160 -7q-104 0 -160.5 24t-56.5 86v10q9 144 13 264q-2 0 -5.5 0.5t-5.5 0.5q-18 1 -30 10.5t-12 23.5q0 5 1 8q4 14 19.5 24t34.5 12q0 15 0.5 47t0.5 48t-0.5 49.5t-0.5 50.5q-1 49 -8.5 68t-26.5 27q-10 3 -13 4q-1 9 -1 21q0 55 37 55h2
q106 -5 224 -5q157 0 265 10h8q20 0 33 -9.5t13 -23.5q0 -16 -16 -29.5t-38 -15.5q-98 -10 -270 -10q-71 0 -111 1q10 -31 10 -81q0 -19 0.5 -55.5t0.5 -53.5q0 -18 -0.5 -52t-0.5 -50q72 -2 100 -2q73 0 195 6h3q20 0 33.5 -9.5t13.5 -23.5v-3q-2 -16 -19 -28.5t-39 -13.5
q-125 -6 -205 -6q-55 0 -84 1q-3 -109 -13 -252v-3q0 -25 26.5 -35t90.5 -10q3 0 304 13h3q20 0 33 -9.5t13 -23.5v-4z" />
    <glyph glyph-name="ebreve" unicode="&#x115;" horiz-adv-x="620" 
d="M327 705q-49 0 -85.5 15t-54.5 39t-26.5 46.5t-9.5 43.5v1q0 14 12 23.5t26 9.5q19 0 25 -18q10 -34 42.5 -63.5t88.5 -29.5h10q44 2 69.5 27t31.5 64q1 11 14.5 21t26.5 10q19 0 22 -22q1 -5 1 -16q0 -15 -5 -35q-14 -46 -63 -81t-125 -35zM172 229q15 -75 52 -116.5
t83 -54.5q21 -6 43 -6q40 0 75.5 17.5t55.5 47.5q17 24 51 24q6 0 16 -2q27 -8 27 -29q0 -10 -6 -17q-35 -51 -99.5 -82t-135.5 -31q-40 0 -74 10q-75 20 -124.5 79t-64.5 156q-31 7 -31 28v3q2 20 26 32v14q0 135 76 220t190 99q24 2 35 2q84 0 140.5 -46t56.5 -122
q0 -186 -320 -220zM164 299q54 4 80 7q119 13 170.5 42t51.5 97q0 53 -34 80t-81 27q-11 0 -17 -1q-28 -3 -55.5 -17.5t-54.5 -40.5t-43.5 -73t-16.5 -107v-12v-2z" />
    <glyph glyph-name="Edotaccent" unicode="&#x116;" 
d="M446 1022q18 -18 18 -41q0 -9 -1 -13q-4 -23 -29.5 -43t-63.5 -20q-35 0 -54.5 18t-19.5 43q0 24 23 50t71 26q8 0 16 -2l16 -4q16 -5 24 -14zM694 32q-2 -16 -19.5 -28t-39.5 -13q-34 -1 -142 -8t-160 -7q-104 0 -160.5 24t-56.5 86v10q9 144 13 264q-2 0 -5.5 0.5
t-5.5 0.5q-18 1 -30 10.5t-12 23.5q0 5 1 8q4 14 19.5 24t34.5 12q0 15 0.5 47t0.5 48t-0.5 49.5t-0.5 50.5q-1 49 -8.5 68t-26.5 27q-10 3 -13 4q-1 9 -1 21q0 55 37 55h2q106 -5 224 -5q157 0 265 10h8q20 0 33 -9.5t13 -23.5q0 -16 -16 -29.5t-38 -15.5q-98 -10 -270 -10
q-71 0 -111 1q10 -31 10 -81q0 -19 0.5 -55.5t0.5 -53.5q0 -18 -0.5 -52t-0.5 -50q72 -2 100 -2q73 0 195 6h3q20 0 33.5 -9.5t13.5 -23.5v-3q-2 -16 -19 -28.5t-39 -13.5q-125 -6 -205 -6q-55 0 -84 1q-3 -109 -13 -252v-3q0 -25 26.5 -35t90.5 -10q3 0 304 13h3
q20 0 33 -9.5t13 -23.5v-4z" />
    <glyph glyph-name="edotaccent" unicode="&#x117;" horiz-adv-x="620" 
d="M401 842q18 -18 18 -41q0 -9 -1 -13q-4 -23 -29.5 -43t-63.5 -20q-35 0 -54.5 18t-19.5 43q0 24 23 50t71 26q8 0 16 -2l16 -4q16 -5 24 -14zM172 229q15 -75 52 -116.5t83 -54.5q21 -6 43 -6q40 0 75.5 17.5t55.5 47.5q17 24 51 24q6 0 16 -2q27 -8 27 -29q0 -10 -6 -17
q-35 -51 -99.5 -82t-135.5 -31q-40 0 -74 10q-75 20 -124.5 79t-64.5 156q-31 7 -31 28v3q2 20 26 32v14q0 135 76 220t190 99q24 2 35 2q84 0 140.5 -46t56.5 -122q0 -186 -320 -220zM164 299q54 4 80 7q119 13 170.5 42t51.5 97q0 53 -34 80t-81 27q-11 0 -17 -1
q-28 -3 -55.5 -17.5t-54.5 -40.5t-43.5 -73t-16.5 -107v-12v-2z" />
    <glyph glyph-name="Eogonek" unicode="&#x118;" 
d="M657 -195q3 -5 3 -11q0 -21 -25 -31q-45 -18 -83 -18q-67 0 -99 45q-19 28 -19 66q0 68 57 127q-96 -7 -158 -7q-104 0 -160.5 24t-56.5 86v10q9 144 13 264q-2 0 -5.5 0.5t-5.5 0.5q-18 1 -30 10.5t-12 23.5q0 5 1 8q4 14 19.5 24t34.5 12q0 15 0.5 47t0.5 48t-0.5 49.5
t-0.5 50.5q-1 49 -8.5 68t-26.5 27q-10 3 -13 4q-1 9 -1 21q0 55 37 55h2q106 -5 224 -5q157 0 265 10h8q20 0 33 -9.5t13 -23.5q0 -16 -16 -29.5t-38 -15.5q-98 -10 -270 -10q-71 0 -111 1q10 -31 10 -81q0 -19 0.5 -55.5t0.5 -53.5q0 -18 -0.5 -52t-0.5 -50q72 -2 100 -2
q73 0 195 6h3q20 0 33.5 -9.5t13.5 -23.5v-3q-2 -16 -19 -28.5t-39 -13.5q-125 -6 -205 -6q-55 0 -84 1q-3 -109 -13 -252v-3q0 -25 26.5 -35t90.5 -10q3 0 304 13h3q20 0 33 -9.5t13 -23.5v-4q-2 -16 -19.5 -28t-39.5 -13q-5 0 -14 -0.5t-13 -0.5q-46 -22 -70 -58t-24 -71
q0 -23 10 -37q13 -18 35 -18q19 0 46 11q12 4 19 4q23 0 33 -16z" />
    <glyph glyph-name="eogonek" unicode="&#x119;" horiz-adv-x="620" 
d="M477 -195q3 -5 3 -11q0 -21 -25 -31q-45 -18 -83 -18q-67 0 -99 45q-19 28 -19 66q0 67 55 125q-25 1 -49 9q-75 20 -124.5 79t-64.5 156q-31 7 -31 28v3q2 20 26 32v14q0 135 76 220t190 99q24 2 35 2q84 0 140.5 -46t56.5 -122q0 -186 -320 -220l-72 -6
q15 -75 52 -116.5t83 -54.5q21 -6 43 -6q40 0 75.5 17.5t55.5 47.5q17 24 51 24q6 0 16 -2q27 -8 27 -29q0 -10 -6 -17q-44 -62 -128 -94q-4 -5 -13 -9q-46 -22 -70 -58t-24 -71q0 -23 10 -37q13 -18 35 -18q19 0 46 11q12 4 19 4q23 0 33 -16zM164 299q54 4 80 7
q119 13 170.5 42t51.5 97q0 53 -34 80t-81 27q-11 0 -17 -1q-28 -3 -55.5 -17.5t-54.5 -40.5t-43.5 -73t-16.5 -107v-12v-2z" />
    <glyph glyph-name="Ecaron" unicode="&#x11a;" 
d="M344 879q-140 129 -151 151q14 34 39 34q8 0 18 -6q29 -16 131 -96q104 80 129 94q23 10 39 10q14 0 14 -11q0 -4 -5 -16q-6 -12 -28.5 -35.5t-61.5 -61t-58 -56.5q-15 -20 -37 -20q-15 0 -29 13zM694 32q-2 -16 -19.5 -28t-39.5 -13q-34 -1 -142 -8t-160 -7
q-104 0 -160.5 24t-56.5 86v10q9 144 13 264q-2 0 -5.5 0.5t-5.5 0.5q-18 1 -30 10.5t-12 23.5q0 5 1 8q4 14 19.5 24t34.5 12q0 15 0.5 47t0.5 48t-0.5 49.5t-0.5 50.5q-1 49 -8.5 68t-26.5 27q-10 3 -13 4q-1 9 -1 21q0 55 37 55h2q106 -5 224 -5q157 0 265 10h8
q20 0 33 -9.5t13 -23.5q0 -16 -16 -29.5t-38 -15.5q-98 -10 -270 -10q-71 0 -111 1q10 -31 10 -81q0 -19 0.5 -55.5t0.5 -53.5q0 -18 -0.5 -52t-0.5 -50q72 -2 100 -2q73 0 195 6h3q20 0 33.5 -9.5t13.5 -23.5v-3q-2 -16 -19 -28.5t-39 -13.5q-125 -6 -205 -6q-55 0 -84 1
q-3 -109 -13 -252v-3q0 -25 26.5 -35t90.5 -10q3 0 304 13h3q20 0 33 -9.5t13 -23.5v-4z" />
    <glyph glyph-name="ecaron" unicode="&#x11b;" horiz-adv-x="620" 
d="M299 699q-140 129 -151 151q14 34 39 34q7 0 18 -6q29 -16 131 -96q104 80 129 94q23 10 39 10q14 0 14 -11q0 -4 -5 -16q-6 -12 -28.5 -35.5t-61.5 -61t-58 -56.5q-15 -20 -37 -20q-15 0 -29 13zM172 229q15 -75 52 -116.5t83 -54.5q21 -6 43 -6q40 0 75.5 17.5
t55.5 47.5q17 24 51 24q6 0 16 -2q27 -8 27 -29q0 -10 -6 -17q-35 -51 -99.5 -82t-135.5 -31q-40 0 -74 10q-75 20 -124.5 79t-64.5 156q-31 7 -31 28v3q2 20 26 32v14q0 135 76 220t190 99q24 2 35 2q84 0 140.5 -46t56.5 -122q0 -186 -320 -220zM164 299q54 4 80 7
q119 13 170.5 42t51.5 97q0 53 -34 80t-81 27q-11 0 -17 -1q-28 -3 -55.5 -17.5t-54.5 -40.5t-43.5 -73t-16.5 -107v-12v-2z" />
    <glyph glyph-name="Gcircumflex" unicode="&#x11c;" horiz-adv-x="770" 
d="M442 1053q140 -129 151 -151q-14 -34 -39 -34q-8 0 -18 6q-29 16 -131 96q-104 -80 -129 -94q-23 -10 -39 -10q-14 0 -14 11q0 4 5 16q6 12 28.5 35.5t61.5 61t58 56.5q15 20 37 20q15 0 29 -13zM377 316q-1 3 -1 9q0 13 11.5 25t30.5 17q91 26 168 32q2 0 5.5 0.5
t4.5 0.5q14 0 26 -3q93 -18 93 -133q0 -30 -6 -58q-8 -40 -29.5 -78t-57.5 -73.5t-93 -57t-127 -21.5q-154 0 -247.5 110t-93.5 301q0 189 97 302.5t240 128.5q26 2 38 2q100 0 167 -52t67 -136q0 -16 -16 -29.5t-38 -15.5h-8q-20 0 -33 9.5t-13 23.5q0 57 -41.5 89
t-100.5 32q-15 0 -22 -1q-29 -3 -58.5 -15t-61 -38t-55 -63t-39 -95.5t-15.5 -129.5q0 -89 22.5 -157.5t59 -108t79 -59.5t88.5 -20q77 0 123 42t60 110q4 17 4 36q0 29 -8.5 51.5t-16.5 27.5q-56 -6 -138 -28q-9 -3 -19 -3q-38 0 -46 26z" />
    <glyph glyph-name="gcircumflex" unicode="&#x11d;" horiz-adv-x="640" 
d="M387 873q140 -129 151 -151q-14 -34 -39 -34q-7 0 -18 6q-29 16 -131 96q-104 -80 -129 -94q-23 -10 -39 -10q-14 0 -14 11q0 4 5 16q6 12 28.5 35.5t61.5 61t58 56.5q15 20 37 20q15 0 29 -13zM534 356q43 -167 43 -299q0 -64 -10 -114q-18 -92 -77.5 -150.5
t-161.5 -58.5q-56 0 -104.5 20.5t-73.5 55.5q-5 7 -5 14q0 23 29 36q14 6 27 6q26 0 39 -16q31 -44 102 -44q51 0 84.5 31t48.5 106q13 63 13 135q0 49 -5 88q-58 -187 -205 -187q-115 0 -169 73t-54 180q0 46 9 88q11 54 35 104.5t61.5 96t95 73t125.5 27.5q39 0 69 -13.5
t45.5 -31.5t25 -41.5t11.5 -37.5t2 -25q0 -14 -14.5 -26t-34.5 -14h-7q-18 0 -30 8.5t-12 21.5q0 24 -20.5 55.5t-48.5 31.5q-68 0 -126 -64t-79 -165q-8 -42 -8 -76q0 -85 38.5 -139t99.5 -54q45 0 79 45t51 130q11 58 14 110q1 16 10 28t26 12q11 0 26.5 -5t25.5 -10z" />
    <glyph glyph-name="Gbreve" unicode="&#x11e;" horiz-adv-x="770" 
d="M402 885q-49 0 -85.5 15t-54.5 39t-26.5 46.5t-9.5 43.5v1q0 14 12 23.5t26 9.5q19 0 25 -18q10 -34 42.5 -63.5t88.5 -29.5h10q44 2 69.5 27t31.5 64q1 11 14.5 21t26.5 10q19 0 22 -22q1 -5 1 -16q0 -15 -5 -35q-14 -46 -63 -81t-125 -35zM377 316q-1 3 -1 9
q0 13 11.5 25t30.5 17q91 26 168 32q2 0 5.5 0.5t4.5 0.5q14 0 26 -3q93 -18 93 -133q0 -30 -6 -58q-8 -40 -29.5 -78t-57.5 -73.5t-93 -57t-127 -21.5q-154 0 -247.5 110t-93.5 301q0 189 97 302.5t240 128.5q26 2 38 2q100 0 167 -52t67 -136q0 -16 -16 -29.5t-38 -15.5
h-8q-20 0 -33 9.5t-13 23.5q0 57 -41.5 89t-100.5 32q-15 0 -22 -1q-29 -3 -58.5 -15t-61 -38t-55 -63t-39 -95.5t-15.5 -129.5q0 -89 22.5 -157.5t59 -108t79 -59.5t88.5 -20q77 0 123 42t60 110q4 17 4 36q0 29 -8.5 51.5t-16.5 27.5q-56 -6 -138 -28q-9 -3 -19 -3
q-38 0 -46 26z" />
    <glyph glyph-name="gbreve" unicode="&#x11f;" horiz-adv-x="640" 
d="M347 705q-49 0 -85.5 15t-54.5 39t-26.5 46.5t-9.5 43.5v1q0 14 12 23.5t26 9.5q19 0 25 -18q10 -34 42.5 -63.5t88.5 -29.5h10q44 2 69.5 27t31.5 64q1 11 14.5 21t26.5 10q19 0 22 -22q1 -5 1 -16q0 -15 -5 -35q-14 -46 -63 -81t-125 -35zM534 356q43 -167 43 -299
q0 -64 -10 -114q-18 -92 -77.5 -150.5t-161.5 -58.5q-56 0 -104.5 20.5t-73.5 55.5q-5 7 -5 14q0 23 29 36q14 6 27 6q26 0 39 -16q31 -44 102 -44q51 0 84.5 31t48.5 106q13 63 13 135q0 49 -5 88q-58 -187 -205 -187q-115 0 -169 73t-54 180q0 46 9 88q11 54 35 104.5
t61.5 96t95 73t125.5 27.5q39 0 69 -13.5t45.5 -31.5t25 -41.5t11.5 -37.5t2 -25q0 -14 -14.5 -26t-34.5 -14h-7q-18 0 -30 8.5t-12 21.5q0 24 -20.5 55.5t-48.5 31.5q-68 0 -126 -64t-79 -165q-8 -42 -8 -76q0 -85 38.5 -139t99.5 -54q45 0 79 45t51 130q11 58 14 110
q1 16 10 28t26 12q11 0 26.5 -5t25.5 -10z" />
    <glyph glyph-name="Gdotaccent" unicode="&#x120;" horiz-adv-x="770" 
d="M476 1022q18 -18 18 -41q0 -9 -1 -13q-4 -23 -29.5 -43t-63.5 -20q-35 0 -54.5 18t-19.5 43q0 24 23 50t71 26q8 0 16 -2l16 -4q16 -5 24 -14zM377 316q-1 3 -1 9q0 13 11.5 25t30.5 17q91 26 168 32q2 0 5.5 0.5t4.5 0.5q14 0 26 -3q93 -18 93 -133q0 -30 -6 -58
q-8 -40 -29.5 -78t-57.5 -73.5t-93 -57t-127 -21.5q-154 0 -247.5 110t-93.5 301q0 189 97 302.5t240 128.5q26 2 38 2q100 0 167 -52t67 -136q0 -16 -16 -29.5t-38 -15.5h-8q-20 0 -33 9.5t-13 23.5q0 57 -41.5 89t-100.5 32q-15 0 -22 -1q-29 -3 -58.5 -15t-61 -38
t-55 -63t-39 -95.5t-15.5 -129.5q0 -89 22.5 -157.5t59 -108t79 -59.5t88.5 -20q77 0 123 42t60 110q4 17 4 36q0 29 -8.5 51.5t-16.5 27.5q-56 -6 -138 -28q-9 -3 -19 -3q-38 0 -46 26z" />
    <glyph glyph-name="gdotaccent" unicode="&#x121;" horiz-adv-x="640" 
d="M421 842q18 -18 18 -41q0 -9 -1 -13q-4 -23 -29.5 -43t-63.5 -20q-35 0 -54.5 18t-19.5 43q0 24 23 50t71 26q8 0 16 -2l16 -4q16 -5 24 -14zM534 356q43 -167 43 -299q0 -64 -10 -114q-18 -92 -77.5 -150.5t-161.5 -58.5q-56 0 -104.5 20.5t-73.5 55.5q-5 7 -5 14
q0 23 29 36q14 6 27 6q26 0 39 -16q31 -44 102 -44q51 0 84.5 31t48.5 106q13 63 13 135q0 49 -5 88q-58 -187 -205 -187q-115 0 -169 73t-54 180q0 46 9 88q11 54 35 104.5t61.5 96t95 73t125.5 27.5q39 0 69 -13.5t45.5 -31.5t25 -41.5t11.5 -37.5t2 -25q0 -14 -14.5 -26
t-34.5 -14h-7q-18 0 -30 8.5t-12 21.5q0 24 -20.5 55.5t-48.5 31.5q-68 0 -126 -64t-79 -165q-8 -42 -8 -76q0 -85 38.5 -139t99.5 -54q45 0 79 45t51 130q11 58 14 110q1 16 10 28t26 12q11 0 26.5 -5t25.5 -10z" />
    <glyph glyph-name="uni0122" unicode="&#x122;" horiz-adv-x="770" 
d="M372 -194q-10 -2 -15 -2q-26 0 -31 16q-3 9 -3 19q0 8 3 17q5 19 27 37t60 18t59.5 -22t21.5 -60q0 -41 -27 -81.5t-83 -67.5q-14 -6 -27 -6q-17 0 -26 9q-5 5 -5 13q0 15 19 24q71 35 71 99q0 24 -12 36q0 -1 -0.5 -3t-0.5 -4t0.5 -4.5t0.5 -3.5v-2l1 -2q0 -9 -9.5 -18
t-23.5 -12zM377 316q-1 3 -1 9q0 13 11.5 25t30.5 17q91 26 168 32q2 0 5.5 0.5t4.5 0.5q14 0 26 -3q93 -18 93 -133q0 -30 -6 -58q-8 -40 -29.5 -78t-57.5 -73.5t-93 -57t-127 -21.5q-154 0 -247.5 110t-93.5 301q0 189 97 302.5t240 128.5q26 2 38 2q100 0 167 -52
t67 -136q0 -16 -16 -29.5t-38 -15.5h-8q-20 0 -33 9.5t-13 23.5q0 57 -41.5 89t-100.5 32q-15 0 -22 -1q-29 -3 -58.5 -15t-61 -38t-55 -63t-39 -95.5t-15.5 -129.5q0 -89 22.5 -157.5t59 -108t79 -59.5t88.5 -20q77 0 123 42t60 110q4 17 4 36q0 29 -8.5 51.5t-16.5 27.5
q-56 -6 -138 -28q-9 -3 -19 -3q-38 0 -46 26z" />
    <glyph glyph-name="uni0123" unicode="&#x123;" horiz-adv-x="640" 
d="M393 809q10 2 15 2q26 0 31 -16q3 -9 3 -19q0 -8 -3 -17q-5 -19 -27 -37t-60 -18t-59.5 22t-21.5 60q0 41 26.5 81.5t82.5 67.5q14 6 27 6q18 0 27 -9q5 -5 5 -13q0 -15 -19 -24q-71 -35 -71 -99q0 -24 12 -36q0 1 0.5 3t0.5 4t-0.5 4.5t-0.5 3.5t-0.5 2t-0.5 2
q0 9 9.5 18t23.5 12zM534 356q43 -167 43 -299q0 -64 -10 -114q-18 -92 -77.5 -150.5t-161.5 -58.5q-56 0 -104.5 20.5t-73.5 55.5q-5 7 -5 14q0 23 29 36q14 6 27 6q26 0 39 -16q31 -44 102 -44q51 0 84.5 31t48.5 106q13 63 13 135q0 49 -5 88q-58 -187 -205 -187
q-115 0 -169 73t-54 180q0 46 9 88q11 54 35 104.5t61.5 96t95 73t125.5 27.5q39 0 69 -13.5t45.5 -31.5t25 -41.5t11.5 -37.5t2 -25q0 -14 -14.5 -26t-34.5 -14h-7q-18 0 -30 8.5t-12 21.5q0 24 -20.5 55.5t-48.5 31.5q-68 0 -126 -64t-79 -165q-8 -42 -8 -76
q0 -85 38.5 -139t99.5 -54q45 0 79 45t51 130q11 58 14 110q1 16 10 28t26 12q11 0 26.5 -5t25.5 -10z" />
    <glyph glyph-name="Hcircumflex" unicode="&#x124;" horiz-adv-x="810" 
d="M437 1053q140 -129 151 -151q-14 -34 -39 -34q-7 0 -18 6q-29 16 -131 96q-104 -80 -129 -94q-23 -10 -39 -10q-14 0 -14 11q0 4 5 16q6 12 28.5 35.5t61.5 61t58 56.5q15 20 37 20q15 0 29 -13zM661 -9q-1 0 -4 -0.5t-5 -0.5q-19 0 -32 10t-14 24q-4 148 -5 334
q-105 -3 -223 -3q-58 0 -162 2q0 -120 -2 -326q0 -16 -16 -29.5t-38 -15.5h-8q-20 0 -33 9.5t-13 23.5q2 214 2 342h-5q-18 1 -30 10.5t-12 23.5q0 5 1 8q8 28 46 35q-2 216 -12 324v3q0 15 14 27t36 16q4 1 12 1q19 0 31.5 -8.5t14.5 -22.5q10 -115 12 -342q105 -3 224 -3
q59 0 161 2q0 27 -0.5 82t-0.5 83t0.5 81.5t0.5 77.5q0 16 16 29.5t38 15.5h8q20 0 33 -9.5t13 -23.5q0 -25 -0.5 -80t-0.5 -83t0.5 -84.5t0.5 -84.5q18 -2 29 -11t11 -22v-3q-2 -13 -13 -24t-27 -15q1 -181 5 -328v-1q0 -16 -15.5 -28.5t-37.5 -15.5z" />
    <glyph glyph-name="hcircumflex" unicode="&#x125;" horiz-adv-x="660" 
d="M187 1053q140 -129 151 -151q-14 -34 -39 -34q-7 0 -18 6q-29 16 -131 96q-104 -80 -129 -94q-23 -10 -39 -10q-14 0 -14 11q0 4 5 16q6 12 28.5 35.5t61.5 61t58 56.5q15 20 37 20q15 0 29 -13zM128 -14q-11 0 -19 9t-8 20q-1 233 -13 496.5t-26 299.5q-2 6 -2 9
q0 26 37 38q9 3 20 3q33 0 41 -22q23 -56 34 -414q66 196 235 196q50 0 82.5 -19.5t48 -57.5t21 -77.5t5.5 -96.5q0 -77 5 -339q0 -14 -14 -26.5t-34 -14.5h-8q-18 0 -30 8t-12 21q-5 263 -5 341q0 101 -21 145t-52 44q-120 0 -169 -225q-11 -49 -18.5 -86.5t-12 -72.5
t-6 -49.5t-4.5 -53.5t-4 -50q-40 -26 -71 -26z" />
    <glyph glyph-name="Hbar" unicode="&#x126;" horiz-adv-x="810" 
d="M769 602q-1 -13 -15.5 -22.5t-32.5 -10.5q-2 0 -6.5 -0.5t-6.5 -0.5q0 -22 0.5 -65t0.5 -64q18 -2 29 -11t11 -22v-3q-2 -13 -13 -24t-27 -15q1 -181 5 -328v-1q0 -16 -15.5 -28.5t-37.5 -15.5q-1 0 -4 -0.5t-5 -0.5q-19 0 -32 10t-14 24q-4 148 -5 334q-105 -3 -223 -3
q-58 0 -162 2q0 -120 -2 -326q0 -16 -16 -29.5t-38 -15.5h-8q-20 0 -33 9.5t-13 23.5q2 214 2 342h-5q-18 1 -30 10.5t-12 23.5q0 5 1 8q8 28 46 35q0 48 -2 130q-6 0 -16 0.5t-15 0.5q-15 1 -24.5 8t-9.5 18q0 4 1 7q5 12 19 20.5t31 8.5h3h9q-4 90 -8 131v3q0 15 14 27
t36 16q4 1 12 1q19 0 31.5 -8.5t14.5 -22.5q4 -47 8 -151q124 -2 200 -2q70 0 188 2q0 23 0.5 67t0.5 65q0 16 16 29.5t38 15.5h8q20 0 33 -9.5t13 -23.5q0 -22 -0.5 -69.5t-0.5 -71.5q4 0 11 0.5t10 0.5h3q16 0 26.5 -7.5t10.5 -18.5v-3zM600 565q-126 -2 -202 -2
q-68 0 -184 2q2 -82 2 -129q105 -3 224 -3q59 0 161 2q0 21 -0.5 65t-0.5 65z" />
    <glyph glyph-name="hbar" unicode="&#x127;" horiz-adv-x="660" 
d="M335 741q-1 -13 -13.5 -21.5t-29.5 -9.5q-65 -3 -114 -3q9 -121 14 -282q66 196 235 196q50 0 82.5 -19.5t48 -57.5t21 -77.5t5.5 -96.5q0 -77 5 -339q0 -14 -14 -26.5t-34 -14.5h-8q-18 0 -30 8t-12 21q-5 263 -5 341q0 101 -21 145t-52 44q-120 0 -169 -225
q-11 -49 -18.5 -86.5t-12 -72.5t-6 -49.5t-4.5 -53.5t-4 -50q-40 -26 -71 -26q-11 0 -19 9t-8 20q-2 427 -25 694q-43 1 -90 6q-14 2 -22.5 9.5t-8.5 17.5q0 5 1 7q8 26 43 26h5q48 -4 66 -5q-5 34 -8 41q-2 6 -2 9q0 26 37 38q9 3 20 3q33 0 41 -22q8 -21 14 -72
q51 0 126 3h2q15 0 25 -7.5t10 -18.5v-3z" />
    <glyph glyph-name="Itilde" unicode="&#x128;" horiz-adv-x="460" 
d="M401 1050q13 -1 21 -8.5t8 -17.5q0 -5 -1 -8q-38 -106 -126 -106q-25 0 -47.5 10.5t-31 18t-24.5 23.5q-37 36 -51 36q-3 0 -9.5 -6t-15.5 -19.5t-15 -29.5q-4 -11 -16 -18t-26 -7h-7q-13 1 -21 9t-8 18q0 2 2 8q41 105 126 105q12 0 22 -1.5t19.5 -6t16 -7.5t15 -9.5
t12 -9.5t11.5 -11l9 -9q34 -34 49 -34q2 0 9.5 6t16.5 19.5t14 28.5q10 26 43 26h5zM45 38q6 13 24 22t37 9h3q14 -1 39 -2.5t34 -1.5q-4 13 -4 28q0 91 3 245t3 236q0 16 -0.5 48.5t-0.5 50.5q0 17 -2.5 25.5t-11.5 14t-17.5 7t-31 5t-41.5 7.5q-2 0 -6 1t-6 1v5
q0 59 40 59h2q80 -3 149 -3q62 0 113 3h5q17 0 28.5 -7.5t11.5 -18.5v-4q-2 -13 -19 -23.5t-38 -12.5q-7 -1 -81 -3q9 -18 9 -42q0 -18 0.5 -51t0.5 -49q0 -83 -3 -236t-3 -244v-2q0 -20 5 -24t32 -4h8q9 0 63 -2q24 -1 24 -15q0 -8 -8.5 -20.5t-17.5 -20.5l-8 -8
q-76 -14 -149 -14q-28 0 -83.5 3t-66.5 3q-16 1 -27 8t-11 18q0 3 2 9z" />
    <glyph glyph-name="itilde" unicode="&#x129;" horiz-adv-x="330" 
d="M341 870q13 -1 21 -8.5t8 -17.5q0 -5 -1 -8q-38 -106 -126 -106q-25 0 -47.5 10.5t-31 18t-24.5 23.5q-37 36 -51 36q-3 0 -9.5 -6t-15.5 -19.5t-15 -29.5q-4 -11 -16 -18t-26 -7h-7q-13 1 -21 9t-8 18q0 2 2 8q41 105 126 105q12 0 22 -1.5t19.5 -6t16 -7.5t15 -9.5
t12 -9.5t11.5 -11l9 -9q34 -34 49 -34q2 0 9.5 6t16.5 19.5t14 28.5q10 26 43 26h5zM223 -8q-18 -13 -41 -13q-16 0 -29 8q-44 31 -44 111q0 18 2 60q2 69 2 175q0 41 -2 231q0 14 14.5 26.5t34.5 14.5h8q17 0 29 -8t12 -21q2 -190 2 -232q0 -106 -2 -176v-23q0 -91 18 -102
q12 -9 12 -22q0 -17 -16 -29z" />
    <glyph glyph-name="Imacron" unicode="&#x12a;" horiz-adv-x="460" 
d="M420 981q-1 -13 -13.5 -21.5t-29.5 -9.5q-77 -3 -132 -3q-83 0 -174 8q-14 2 -22.5 9.5t-8.5 17.5q0 5 1 7q8 26 43 26h5q86 -8 165 -8q52 0 129 3h2q15 0 25 -7.5t10 -18.5v-3zM45 38q6 13 24 22t37 9h3q14 -1 39 -2.5t34 -1.5q-4 13 -4 28q0 91 3 245t3 236
q0 16 -0.5 48.5t-0.5 50.5q0 17 -2.5 25.5t-11.5 14t-17.5 7t-31 5t-41.5 7.5q-2 0 -6 1t-6 1v5q0 59 40 59h2q80 -3 149 -3q62 0 113 3h5q17 0 28.5 -7.5t11.5 -18.5v-4q-2 -13 -19 -23.5t-38 -12.5q-7 -1 -81 -3q9 -18 9 -42q0 -18 0.5 -51t0.5 -49q0 -83 -3 -236t-3 -244
v-2q0 -20 5 -24t32 -4h8q9 0 63 -2q24 -1 24 -15q0 -8 -8.5 -20.5t-17.5 -20.5l-8 -8q-76 -14 -149 -14q-28 0 -83.5 3t-66.5 3q-16 1 -27 8t-11 18q0 3 2 9z" />
    <glyph glyph-name="imacron" unicode="&#x12b;" horiz-adv-x="330" 
d="M360 801q-1 -13 -13.5 -21.5t-29.5 -9.5q-77 -3 -132 -3q-83 0 -174 8q-14 2 -22.5 9.5t-8.5 17.5q0 5 1 7q8 26 43 26h5q86 -8 165 -8q52 0 129 3h2q15 0 25 -7.5t10 -18.5v-3zM223 -8q-18 -13 -41 -13q-16 0 -29 8q-44 31 -44 111q0 18 2 60q2 69 2 175q0 41 -2 231
q0 14 14.5 26.5t34.5 14.5h8q17 0 29 -8t12 -21q2 -190 2 -232q0 -106 -2 -176v-23q0 -91 18 -102q12 -9 12 -22q0 -17 -16 -29z" />
    <glyph glyph-name="Iogonek" unicode="&#x12e;" horiz-adv-x="460" 
d="M387 -195q3 -5 3 -11q0 -21 -25 -31q-45 -18 -83 -18q-67 0 -99 45q-19 28 -19 66q0 78 72 141h-5q-28 0 -83.5 3t-66.5 3q-16 1 -27 8t-11 18q0 3 2 9q6 13 24 22t37 9h3q14 -1 39 -2.5t34 -1.5q-4 13 -4 28q0 91 3 245t3 236q0 16 -0.5 48.5t-0.5 50.5q0 17 -2.5 25.5
t-11.5 14t-17.5 7t-31 5t-41.5 7.5q-2 0 -6 1t-6 1v5q0 59 40 59h2q80 -3 149 -3q62 0 113 3h5q17 0 28.5 -7.5t11.5 -18.5v-4q-2 -13 -19 -23.5t-38 -12.5q-7 -1 -81 -3q9 -18 9 -42q0 -18 0.5 -51t0.5 -49q0 -83 -3 -236t-3 -244v-2q0 -20 5 -24t32 -4h8q9 0 63 -2
q24 -1 24 -15q0 -8 -8.5 -20.5t-17.5 -20.5l-8 -8q-8 -2 -24 -4q-4 -10 -18 -17q-46 -22 -70 -58t-24 -71q0 -23 10 -37q13 -18 35 -18q19 0 46 11q12 4 19 4q23 0 33 -16z" />
    <glyph glyph-name="iogonek" unicode="&#x12f;" horiz-adv-x="330" 
d="M257 -195q3 -5 3 -11q0 -21 -25 -31q-45 -18 -83 -18q-67 0 -99 45q-19 28 -19 66q0 42 24 84t69 74q-18 28 -18 84q0 18 2 60q2 69 2 175q0 41 -2 231q0 14 14.5 26.5t34.5 14.5h8q17 0 29 -8t12 -21q2 -190 2 -232q0 -106 -2 -176v-23q0 -91 18 -102q12 -9 12 -22
q0 -17 -16 -29q-15 -11 -34 -13q-36 -23 -55.5 -55.5t-19.5 -62.5q0 -23 10 -37q13 -18 35 -18q19 0 46 11q12 4 19 4q23 0 33 -16zM231 842q18 -18 18 -41q0 -9 -1 -13q-4 -23 -29.5 -43t-63.5 -20q-35 0 -54.5 18t-19.5 43q0 24 23 50t71 26q8 0 16 -2l16 -4q16 -5 24 -14
z" />
    <glyph glyph-name="Idotaccent" unicode="&#x130;" horiz-adv-x="460" 
d="M296 1022q18 -18 18 -41q0 -9 -1 -13q-4 -23 -29.5 -43t-63.5 -20q-35 0 -54.5 18t-19.5 43q0 24 23 50t71 26q8 0 16 -2l16 -4q16 -5 24 -14zM45 38q6 13 24 22t37 9h3q14 -1 39 -2.5t34 -1.5q-4 13 -4 28q0 91 3 245t3 236q0 16 -0.5 48.5t-0.5 50.5q0 17 -2.5 25.5
t-11.5 14t-17.5 7t-31 5t-41.5 7.5q-2 0 -6 1t-6 1v5q0 59 40 59h2q80 -3 149 -3q62 0 113 3h5q17 0 28.5 -7.5t11.5 -18.5v-4q-2 -13 -19 -23.5t-38 -12.5q-7 -1 -81 -3q9 -18 9 -42q0 -18 0.5 -51t0.5 -49q0 -83 -3 -236t-3 -244v-2q0 -20 5 -24t32 -4h8q9 0 63 -2
q24 -1 24 -15q0 -8 -8.5 -20.5t-17.5 -20.5l-8 -8q-76 -14 -149 -14q-28 0 -83.5 3t-66.5 3q-16 1 -27 8t-11 18q0 3 2 9z" />
    <glyph glyph-name="dotlessi" unicode="&#x131;" horiz-adv-x="330" 
d="M223 -8q-18 -13 -41 -13q-16 0 -29 8q-44 31 -44 111q0 18 2 60q2 69 2 175q0 41 -2 231q0 14 14.5 26.5t34.5 14.5h8q17 0 29 -8t12 -21q2 -190 2 -232q0 -106 -2 -176v-23q0 -91 18 -102q12 -9 12 -22q0 -17 -16 -29z" />
    <glyph glyph-name="Jcircumflex" unicode="&#x134;" horiz-adv-x="520" 
d="M352 1053q140 -129 151 -151q-14 -34 -39 -34q-8 0 -18 6q-29 16 -131 96q-104 -80 -129 -94q-23 -10 -39 -10q-14 0 -14 11q0 4 5 16q6 12 28.5 35.5t61.5 61t58 56.5q15 20 37 20q15 0 29 -13zM412 229q0 -35 -2 -60.5t-11.5 -60t-27 -57t-51 -41t-79.5 -23.5
q-10 -1 -31 -1q-64 0 -117 27t-82 65q-5 6 -5 16q0 24 30 38q14 7 32 7q29 0 41 -17q17 -23 52 -40.5t65 -17.5q3 0 8 0.5t7 0.5q33 3 50 36.5t17 114.5q0 278 -20 455q-2 17 -8.5 26t-20 14t-27.5 7t-40.5 6t-49.5 10v5q0 59 40 59h2q79 -3 149 -3q62 0 113 3h5
q18 0 29.5 -8t11.5 -19v-3q-2 -13 -19.5 -23.5t-38.5 -12.5q-9 -1 -27.5 -1.5t-28.5 -0.5q11 -17 14 -41q20 -183 20 -460z" />
    <glyph glyph-name="jcircumflex" unicode="&#x135;" horiz-adv-x="330" 
d="M202 873q140 -129 151 -151q-14 -34 -39 -34q-8 0 -18 6q-29 16 -131 96q-104 -80 -129 -94q-23 -10 -39 -10q-14 0 -14 11q0 4 5 16q6 12 28.5 35.5t61.5 61t58 56.5q15 20 37 20q15 0 29 -13zM162 605q2 0 5 0.5t5 0.5q17 0 28.5 -8t13.5 -21q20 -227 20 -562
q0 -105 -35 -166t-111 -90q-13 -5 -25 -5q-28 0 -39 18q-3 6 -3 12q0 24 31 37q40 15 62 53.5t22 130.5q0 334 -20 558v3q0 14 13.5 25t32.5 14z" />
    <glyph glyph-name="uni0136" unicode="&#x136;" horiz-adv-x="770" 
d="M327 -194q-10 -2 -15 -2q-26 0 -31 16q-3 9 -3 19q0 8 3 17q5 19 27 37t60 18t59.5 -22t21.5 -60q0 -41 -27 -81.5t-83 -67.5q-13 -6 -27 -6q-17 0 -26 9q-5 5 -5 13q0 15 19 24q71 35 71 99q0 24 -12 36q0 -1 -0.5 -3t-0.5 -4t0.5 -4.5t0.5 -3.5l1 -2v-2q0 -9 -9.5 -18
t-23.5 -12zM124 807q6 2 19 2q37 0 45 -25q20 -67 28 -240q114 64 218 133.5t156 114.5q19 17 47 17q19 0 30 -7q17 -8 17 -26q0 -15 -14 -28q-65 -57 -186.5 -135.5t-256.5 -149.5q84 -38 173.5 -102t160 -130.5t110 -107.5t62.5 -69q6 -7 6 -17q0 -24 -28 -38
q-18 -8 -35 -8q-27 0 -39 15q-26 31 -77 84.5t-151 139.5t-188 137q3 -145 3 -336q0 -16 -16 -29.5t-38 -15.5h-8q-20 0 -33 9.5t-13 23.5q0 215 -5 400q-3 1 -13 4q-39 6 -39 23q0 15 40 35l5 2.5t4 2.5q-8 211 -26 270q-1 2 -1 8q0 14 12 26.5t31 16.5z" />
    <glyph glyph-name="uni0137" unicode="&#x137;" horiz-adv-x="610" 
d="M287 -194q-10 -2 -15 -2q-26 0 -31 16q-3 9 -3 19q0 8 3 17q5 19 27 37t60 18t59.5 -22t21.5 -60q0 -41 -27 -81.5t-83 -67.5q-13 -6 -27 -6q-17 0 -26 9q-5 5 -5 13q0 15 19 24q71 35 71 99q0 24 -12 36q0 -1 -0.5 -3t-0.5 -4t0.5 -4.5t0.5 -3.5l1 -2v-2q0 -9 -9.5 -18
t-23.5 -12zM107 843q9 3 20 3q33 0 41 -22q22 -56 31 -410q165 91 260 176q18 16 45 16q14 0 25 -6q15 -9 15 -24q0 -14 -13 -26q-96 -84 -319 -203q61 -30 126.5 -77.5t115.5 -95t80 -79t45 -49.5q6 -8 6 -16q0 -21 -27 -34q-13 -7 -30 -7q-25 0 -37 15q-147 175 -289 261
q2 -166 2 -240q0 -14 -14.5 -26t-34.5 -14h-7q-18 0 -30 8.5t-12 21.5q0 90 -4 296l-1 1h-1q-36 6 -36 21q0 14 36 31q-11 391 -28 432q-2 6 -2 9q0 26 37 38z" />
    <glyph glyph-name="kgreenlandic" unicode="&#x138;" horiz-adv-x="610" 
d="M142 610h8q18 0 30 -8t13 -21q4 -98 5 -165q175 100 261 174q18 16 45 16q14 0 25 -6q15 -9 15 -24q0 -14 -13 -26q-80 -70 -329 -203q80 -39 170 -109.5t138 -118.5t69 -73q6 -8 6 -16q0 -21 -27 -34q-13 -7 -30 -7q-25 0 -37 15q-19 23 -53.5 59.5t-104 97t-131.5 98.5
q2 -164 2 -234q0 -14 -14.5 -26t-34.5 -14h-7q-18 0 -30 8.5t-12 21.5q0 15 -1 123t-2 168h-1l-2 1q-36 7 -36 24q0 15 37 33q-5 187 -6 205v1q0 14 14 26t33 14z" />
    <glyph glyph-name="Lacute" unicode="&#x139;" horiz-adv-x="650" 
d="M327 1005q-155 -111 -210 -124q-11 -2 -22 -2q-25 0 -25 11q0 8 12 19q4 4 27 25t63.5 58.5t75.5 69.5q18 19 38 19q17 0 29 -17l21 -30q3 -4 3 -10q0 -10 -12 -19zM624 32q-2 -16 -19.5 -28t-39.5 -13q-39 -2 -132.5 -8t-135.5 -6q-90 0 -135.5 23t-45.5 84v12
q18 276 18 418q0 141 -13 242v4q0 15 14 27t35 16q4 1 12 1q18 0 31.5 -8.5t15.5 -21.5q13 -95 13 -249q0 -142 -18 -421v-10q0 -23 13.5 -31t54.5 -8q22 0 60 2t101 6t122 6h3q20 0 33 -9.5t13 -23.5v-4z" />
    <glyph glyph-name="lacute" unicode="&#x13a;" horiz-adv-x="340" 
d="M317 1005q-155 -111 -210 -124q-11 -2 -22 -2q-25 0 -25 11q0 8 12 19q4 4 27 25t63.5 58.5t75.5 69.5q18 19 38 19q17 0 29 -17l21 -30q3 -4 3 -10q0 -10 -12 -19zM315 3q-17 -26 -52 -26q-6 0 -14 2q-137 33 -143 166q-5 126 -5 270q0 13 5 385q0 14 14.5 26t34.5 14h7
q18 0 30 -8.5t12 -21.5q-5 -373 -5 -385q0 -142 5 -268q1 -31 9 -52.5t23 -32.5t26.5 -16t28.5 -9q29 -6 29 -29q0 -7 -5 -15z" />
    <glyph glyph-name="uni013B" unicode="&#x13b;" horiz-adv-x="650" 
d="M327 -194q-10 -2 -15 -2q-26 0 -31 16q-3 9 -3 19q0 8 3 17q5 19 27 37t60 18t59.5 -22t21.5 -60q0 -41 -27 -81.5t-83 -67.5q-13 -6 -27 -6q-17 0 -26 9q-5 5 -5 13q0 15 19 24q71 35 71 99q0 24 -12 36q0 -1 -0.5 -3t-0.5 -4t0.5 -4.5t0.5 -3.5l1 -2v-2q0 -9 -9.5 -18
t-23.5 -12zM624 32q-2 -16 -19.5 -28t-39.5 -13q-39 -2 -132.5 -8t-135.5 -6q-90 0 -135.5 23t-45.5 84v12q18 276 18 418q0 141 -13 242v4q0 15 14 27t35 16q4 1 12 1q18 0 31.5 -8.5t15.5 -21.5q13 -95 13 -249q0 -142 -18 -421v-10q0 -23 13.5 -31t54.5 -8q22 0 60 2
t101 6t122 6h3q20 0 33 -9.5t13 -23.5v-4z" />
    <glyph glyph-name="uni013C" unicode="&#x13c;" horiz-adv-x="340" 
d="M162 -194q-10 -2 -15 -2q-26 0 -31 16q-3 9 -3 19q0 8 3 17q5 19 27 37t60 18t59.5 -22t21.5 -60q0 -41 -27 -81.5t-83 -67.5q-14 -6 -27 -6q-17 0 -26 9q-5 5 -5 13q0 15 19 24q71 35 71 99q0 24 -12 36q0 -1 -0.5 -3t-0.5 -4t0.5 -4.5t0.5 -3.5v-2l1 -2q0 -9 -9.5 -18
t-23.5 -12zM315 3q-17 -26 -52 -26q-6 0 -14 2q-137 33 -143 166q-5 126 -5 270q0 13 5 385q0 14 14.5 26t34.5 14h7q18 0 30 -8.5t12 -21.5q-5 -373 -5 -385q0 -142 5 -268q1 -31 9 -52.5t23 -32.5t26.5 -16t28.5 -9q29 -6 29 -29q0 -7 -5 -15z" />
    <glyph glyph-name="Lcaron" unicode="&#x13d;" horiz-adv-x="650" 
d="M405 777q-10 8 -10 17q0 15 17 26q8 6 12 8q32 17 64 17h5q32 -1 56 -23q32 -30 32 -87q0 -52 -30.5 -103.5t-91.5 -84.5q-16 -8 -31 -8q-20 0 -31 11q-7 7 -7 16q0 16 21 27q38 21 58 60t20 78q0 37 -15 50q0 1 -1 1q-1 -1 -2 -1t-1.5 -0.5t-1.5 -0.5q-16 -11 -36 -11
q-16 0 -27 8zM624 32q-2 -16 -19.5 -28t-39.5 -13q-39 -2 -132.5 -8t-135.5 -6q-90 0 -135.5 23t-45.5 84v12q18 276 18 418q0 141 -13 242v4q0 15 14 27t35 16q4 1 12 1q18 0 31.5 -8.5t15.5 -21.5q13 -95 13 -249q0 -142 -18 -421v-10q0 -23 13.5 -31t54.5 -8q22 0 60 2
t101 6t122 6h3q20 0 33 -9.5t13 -23.5v-4z" />
    <glyph glyph-name="lcaron" unicode="&#x13e;" horiz-adv-x="450" 
d="M315 777q-10 8 -10 17q0 15 17 26q8 6 12 8q32 17 64 17h5q32 -1 56 -23q32 -30 32 -87q0 -52 -30.5 -103.5t-91.5 -84.5q-16 -8 -31 -8q-20 0 -31 11q-7 7 -7 16q0 16 21 27q38 21 58 60t20 78q0 37 -15 50q0 1 -1 1q-1 -1 -2 -1t-1.5 -0.5t-1.5 -0.5q-16 -11 -36 -11
q-16 0 -27 8zM315 3q-17 -26 -52 -26q-6 0 -14 2q-137 33 -143 166q-5 126 -5 270q0 13 5 385q0 14 14.5 26t34.5 14h7q18 0 30 -8.5t12 -21.5q-5 -373 -5 -385q0 -142 5 -268q1 -31 9 -52.5t23 -32.5t26.5 -16t28.5 -9q29 -6 29 -29q0 -7 -5 -15z" />
    <glyph glyph-name="Ldot" unicode="&#x13f;" horiz-adv-x="650" 
d="M536 448q18 -18 18 -42q0 -8 -1 -12q-4 -23 -29.5 -43.5t-63.5 -20.5q-35 0 -54.5 18.5t-19.5 43.5q0 24 23 50t71 26q8 0 16 -2l16 -4q16 -5 24 -14zM624 32q-2 -16 -19.5 -28t-39.5 -13q-39 -2 -132.5 -8t-135.5 -6q-90 0 -135.5 23t-45.5 84v12q18 276 18 418
q0 141 -13 242v4q0 15 14 27t35 16q4 1 12 1q18 0 31.5 -8.5t15.5 -21.5q13 -95 13 -249q0 -142 -18 -421v-10q0 -23 13.5 -31t54.5 -8q22 0 60 2t101 6t122 6h3q20 0 33 -9.5t13 -23.5v-4z" />
    <glyph glyph-name="ldot" unicode="&#x140;" horiz-adv-x="550" 
d="M446 402q18 -18 18 -41q0 -9 -1 -13q-4 -23 -29.5 -43t-63.5 -20q-35 0 -54.5 18t-19.5 43q0 24 23 50t71 26q8 0 16 -2l16 -4q16 -5 24 -14zM315 3q-17 -26 -52 -26q-6 0 -14 2q-137 33 -143 166q-5 126 -5 270q0 13 5 385q0 14 14.5 26t34.5 14h7q18 0 30 -8.5
t12 -21.5q-5 -373 -5 -385q0 -142 5 -268q1 -31 9 -52.5t23 -32.5t26.5 -16t28.5 -9q29 -6 29 -29q0 -7 -5 -15z" />
    <glyph glyph-name="Lslash" unicode="&#x141;" horiz-adv-x="660" 
d="M443 606q11 -6 11 -17q0 -10 -8 -18q-101 -96 -196 -169q-2 -52 -16 -298v-10q0 -23 13.5 -31t54.5 -8q22 0 60 2t101 6t122 6h3q20 0 33 -9.5t13 -23.5v-4q-2 -16 -19.5 -28t-39.5 -13q-39 -2 -132.5 -8t-135.5 -6q-90 0 -135.5 23t-45.5 84v12q8 105 13 227
q-43 -30 -90 -57q-11 -6 -24 -6q-16 0 -24 8q-5 5 -5 13q0 14 15 23q75 45 131 85q2 82 2 125q0 141 -13 242v4q0 15 14 27t35 16q4 1 12 1q18 0 31.5 -8.5t15.5 -21.5q13 -95 13 -249v-52q70 57 142 126q11 11 30 11q12 0 19 -4z" />
    <glyph glyph-name="lslash" unicode="&#x142;" horiz-adv-x="375" 
d="M376 607q13 -6 13 -19q0 -9 -7 -16q-78 -80 -168 -164q0 -133 5 -251q1 -31 9 -52.5t23 -32.5t26.5 -16t28.5 -9q29 -6 29 -29q0 -7 -5 -15q-17 -26 -52 -26q-6 0 -14 2q-137 33 -143 166q-1 27 -4 177q-27 -23 -69 -54q-13 -8 -27 -8q-13 0 -22 6q-8 5 -8 16q0 13 11 20
q60 45 114 93v20q0 13 5 385q0 14 14.5 26t34.5 14h7q18 0 30 -8.5t12 -21.5q-5 -287 -5 -324q33 31 114 112q12 12 32 12q8 0 16 -3z" />
    <glyph glyph-name="Nacute" unicode="&#x143;" horiz-adv-x="810" 
d="M552 1005q-155 -111 -210 -124q-11 -2 -22 -2q-25 0 -25 11q0 8 12 19q4 4 27 25t63.5 58.5t75.5 69.5q18 19 38 19q17 0 29 -17l21 -30q3 -4 3 -10q0 -10 -12 -19zM160 -14h-8q-20 0 -33 9.5t-13 23.5q0 28 0.5 87.5t0.5 90.5q0 362 -15 550q0 3 -0.5 8t-0.5 7
q45 42 79 42q16 0 24 -12q66 -90 225.5 -331t188.5 -284v72q0 368 -12 508v3q0 15 14.5 28t36.5 16q1 0 5 0.5t5 0.5q19 0 32.5 -9t14.5 -23q12 -149 12 -515q0 -113 -2 -223q-1 -43 -46 -43q-11 0 -24 3t-20 5l-8 3l-10 10q-21 24 -84 119.5t-155.5 236.5t-156.5 233
q5 -133 5 -356q0 -38 -0.5 -110t-0.5 -105q0 -16 -16 -29.5t-38 -15.5z" />
    <glyph glyph-name="nacute" unicode="&#x144;" horiz-adv-x="655" 
d="M472 825q-155 -111 -210 -124q-11 -2 -22 -2q-25 0 -25 11q0 8 12 19q4 4 27 25t63.5 58.5t75.5 69.5q18 19 38 19q17 0 29 -17l21 -30q3 -5 3 -10q0 -10 -12 -19zM125 -15q-14 0 -24 9t-10 21q-2 453 -39 551q-2 6 -2 9q0 26 37 38q9 3 20 3q33 0 41 -22q19 -49 30 -195
q13 45 29.5 80t43.5 69.5t69.5 53.5t96.5 19q50 0 82.5 -19.5t48 -57.5t21 -77.5t5.5 -96.5q0 -77 5 -339q0 -14 -14 -26.5t-34 -14.5h-8q-18 0 -30 8t-12 21q-5 263 -5 341q0 101 -21 145t-52 44q-115 0 -164 -225q-26 -118 -34.5 -174.5t-15.5 -139.5q-33 -25 -64 -25z
" />
    <glyph glyph-name="uni0145" unicode="&#x145;" horiz-adv-x="810" 
d="M367 -194q-10 -2 -15 -2q-26 0 -31 16q-3 9 -3 19q0 8 3 17q5 19 27 37t60 18t59.5 -22t21.5 -60q0 -41 -27 -81.5t-83 -67.5q-13 -6 -27 -6q-17 0 -26 9q-5 5 -5 13q0 15 19 24q71 35 71 99q0 24 -12 36q0 -1 -0.5 -3t-0.5 -4t0.5 -4.5t0.5 -3.5l1 -2v-2q0 -9 -9.5 -18
t-23.5 -12zM160 -14h-8q-20 0 -33 9.5t-13 23.5q0 28 0.5 87.5t0.5 90.5q0 362 -15 550q0 3 -0.5 8t-0.5 7q45 42 79 42q16 0 24 -12q66 -90 225.5 -331t188.5 -284v72q0 368 -12 508v3q0 15 14.5 28t36.5 16q1 0 5 0.5t5 0.5q19 0 32.5 -9t14.5 -23q12 -149 12 -515
q0 -113 -2 -223q-1 -43 -46 -43q-11 0 -24 3t-20 5l-8 3l-10 10q-21 24 -84 119.5t-155.5 236.5t-156.5 233q5 -133 5 -356q0 -38 -0.5 -110t-0.5 -105q0 -16 -16 -29.5t-38 -15.5z" />
    <glyph glyph-name="uni0146" unicode="&#x146;" horiz-adv-x="655" 
d="M287 -194q-10 -2 -15 -2q-26 0 -31 16q-3 9 -3 19q0 8 3 17q5 19 27 37t60 18t59.5 -22t21.5 -60q0 -41 -27 -81.5t-83 -67.5q-13 -6 -27 -6q-17 0 -26 9q-5 5 -5 13q0 15 19 24q71 35 71 99q0 24 -12 36q0 -1 -0.5 -3t-0.5 -4t0.5 -4.5t0.5 -3.5l1 -2v-2q0 -9 -9.5 -18
t-23.5 -12zM125 -15q-14 0 -24 9t-10 21q-2 453 -39 551q-2 6 -2 9q0 26 37 38q9 3 20 3q33 0 41 -22q19 -49 30 -195q13 45 29.5 80t43.5 69.5t69.5 53.5t96.5 19q50 0 82.5 -19.5t48 -57.5t21 -77.5t5.5 -96.5q0 -77 5 -339q0 -14 -14 -26.5t-34 -14.5h-8q-18 0 -30 8
t-12 21q-5 263 -5 341q0 101 -21 145t-52 44q-115 0 -164 -225q-26 -118 -34.5 -174.5t-15.5 -139.5q-33 -25 -64 -25z" />
    <glyph glyph-name="Ncaron" unicode="&#x147;" horiz-adv-x="810" 
d="M369 879q-140 129 -151 151q14 34 39 34q7 0 18 -6q29 -16 131 -96q104 80 129 94q23 10 39 10q14 0 14 -11q0 -4 -5 -16q-6 -12 -28.5 -35.5t-61.5 -61t-58 -56.5q-15 -20 -37 -20q-15 0 -29 13zM160 -14h-8q-20 0 -33 9.5t-13 23.5q0 28 0.5 87.5t0.5 90.5
q0 362 -15 550q0 3 -0.5 8t-0.5 7q45 42 79 42q16 0 24 -12q66 -90 225.5 -331t188.5 -284v72q0 368 -12 508v3q0 15 14.5 28t36.5 16q1 0 5 0.5t5 0.5q19 0 32.5 -9t14.5 -23q12 -149 12 -515q0 -113 -2 -223q-1 -43 -46 -43q-11 0 -24 3t-20 5l-8 3l-10 10
q-21 24 -84 119.5t-155.5 236.5t-156.5 233q5 -133 5 -356q0 -38 -0.5 -110t-0.5 -105q0 -16 -16 -29.5t-38 -15.5z" />
    <glyph glyph-name="ncaron" unicode="&#x148;" horiz-adv-x="655" 
d="M289 699q-140 129 -151 151q14 34 39 34q7 0 18 -6q29 -16 131 -96q104 80 129 94q23 10 39 10q14 0 14 -11q0 -4 -5 -16q-6 -12 -28.5 -35.5t-61.5 -61t-58 -56.5q-15 -20 -37 -20q-15 0 -29 13zM125 -15q-14 0 -24 9t-10 21q-2 453 -39 551q-2 6 -2 9q0 26 37 38
q9 3 20 3q33 0 41 -22q19 -49 30 -195q13 45 29.5 80t43.5 69.5t69.5 53.5t96.5 19q50 0 82.5 -19.5t48 -57.5t21 -77.5t5.5 -96.5q0 -77 5 -339q0 -14 -14 -26.5t-34 -14.5h-8q-18 0 -30 8t-12 21q-5 263 -5 341q0 101 -21 145t-52 44q-115 0 -164 -225
q-26 -118 -34.5 -174.5t-15.5 -139.5q-33 -25 -64 -25z" />
    <glyph glyph-name="napostrophe" unicode="&#x149;" horiz-adv-x="900" 
d="M55 777q-10 8 -10 17q0 15 17 26q8 6 12 8q32 17 64 17h5q32 -1 56 -23q32 -30 32 -87q0 -52 -30.5 -103.5t-91.5 -84.5q-16 -8 -31 -8q-20 0 -31 11q-7 7 -7 16q0 16 21 27q38 21 58 60t20 78q0 37 -15 50q0 1 -1 1q-1 -1 -2 -1t-1.5 -0.5t-1.5 -0.5q-16 -11 -36 -11
q-16 0 -27 8zM370 -15q-14 0 -24 9t-10 21q-2 453 -39 551q-2 6 -2 9q0 26 37 38q9 3 20 3q33 0 41 -22q19 -49 30 -195q13 45 29.5 80t43.5 69.5t69.5 53.5t96.5 19q50 0 82.5 -19.5t48 -57.5t21 -77.5t5.5 -96.5q0 -77 5 -339q0 -14 -14 -26.5t-34 -14.5h-8q-18 0 -30 8
t-12 21q-5 262 -5 341q0 101 -21 145t-52 44q-115 0 -164 -225q-26 -118 -34.5 -174.5t-15.5 -139.5q-33 -25 -64 -25z" />
    <glyph glyph-name="Omacron" unicode="&#x14c;" horiz-adv-x="820" 
d="M600 981q-1 -13 -13.5 -21.5t-29.5 -9.5q-76 -3 -132 -3q-83 0 -174 8q-14 2 -22.5 9.5t-8.5 17.5q0 5 1 7q8 26 43 26h5q86 -8 165 -8q52 0 129 3h2q15 0 25 -7.5t10 -18.5v-3zM588 623q-19 57 -67 88t-105 31q-28 0 -52 -7q-35 -9 -67 -31.5t-62 -61.5t-48 -102
t-18 -143q0 -87 24 -155t63 -107t81.5 -58.5t85.5 -19.5q13 0 19 1q36 4 71 23.5t68 56t53 99t20 141.5q0 55 -21 113.5t-37 67.5q-29 9 -29 32q0 9 5 17q6 9 16 15zM681 616q41 -31 61 -94t20 -132q0 -173 -89.5 -284t-230.5 -126q-26 -2 -38 -2q-147 0 -245 110.5
t-98 296.5q0 170 77 280t203 144q47 12 92 12q93 0 164.5 -46t96.5 -123q1 -3 1 -8q0 -16 -14 -28z" />
    <glyph glyph-name="omacron" unicode="&#x14d;" horiz-adv-x="650" 
d="M515 801q-1 -13 -13.5 -21.5t-29.5 -9.5q-77 -3 -132 -3q-83 0 -174 8q-14 2 -22.5 9.5t-8.5 17.5q0 5 1 7q8 26 43 26h5q86 -8 165 -8q53 0 129 3h2q15 0 25 -7.5t10 -18.5v-3zM451 471q-14 40 -48 60.5t-74 20.5q-17 0 -37 -5q-53 -15 -95.5 -75.5t-42.5 -171.5
q0 -65 18 -115t46.5 -78t59 -42t60.5 -14q2 0 6 0.5t6 0.5q56 6 103.5 63.5t47.5 169.5q0 39 -14 81t-26 50q-25 8 -25 28q0 10 5 16q3 6 10 11zM541 465q58 -51 58 -170q0 -131 -68.5 -216.5t-179.5 -97.5q-20 -2 -31 -2q-114 0 -189 85t-75 226q0 130 58.5 214t157.5 110
q36 10 73 10q72 0 128 -36t75 -95q1 -2 1 -7q0 -10 -8 -21z" />
    <glyph glyph-name="Ohungarumlaut" unicode="&#x150;" horiz-adv-x="820" 
d="M650 1069q-32 -37 -76 -96.5t-56 -70.5q-19 -5 -34 -5q-18 0 -18 9q0 3 1 5t9 21.5t17.5 41.5t28.5 56.5t40 67.5q13 22 35 22q13 0 26 -10l26 -20q5 -4 5 -10q0 -7 -4 -11zM445 1069q-33 -38 -77 -96.5t-55 -69.5q-20 -5 -35 -5q-17 0 -17 8q0 3 1 5q0 1 9 22t18.5 42
t28 55.5t39.5 67.5q13 22 35 22q12 0 26 -10l26 -20q5 -4 5 -10q0 -7 -4 -11zM588 623q-19 57 -67 88t-105 31q-28 0 -52 -7q-35 -9 -67 -31.5t-62 -61.5t-48 -102t-18 -143q0 -87 24 -155t63 -107t81.5 -58.5t85.5 -19.5q13 0 19 1q36 4 71 23.5t68 56t53 99t20 141.5
q0 55 -21 113.5t-37 67.5q-29 9 -29 32q0 9 5 17q6 9 16 15zM681 616q41 -31 61 -94t20 -132q0 -173 -89.5 -284t-230.5 -126q-26 -2 -38 -2q-147 0 -245 110.5t-98 296.5q0 170 77 280t203 144q47 12 92 12q93 0 164.5 -46t96.5 -123q1 -3 1 -8q0 -16 -14 -28z" />
    <glyph glyph-name="ohungarumlaut" unicode="&#x151;" horiz-adv-x="650" 
d="M565 889q-32 -37 -76 -96.5t-56 -70.5q-19 -5 -34 -5q-18 0 -18 9q0 3 1 5t9 21.5t17.5 41.5t28.5 56.5t40 67.5q13 22 35 22q13 0 26 -10l26 -20q5 -4 5 -10q0 -7 -4 -11zM360 889q-33 -38 -77 -96.5t-55 -69.5q-20 -5 -35 -5q-17 0 -17 8q0 3 1 5q0 1 9 22t18.5 42
t28 55.5t39.5 67.5q13 22 35 22q12 0 26 -10l26 -20q5 -4 5 -10q0 -7 -4 -11zM451 471q-14 40 -48 60.5t-74 20.5q-17 0 -37 -5q-53 -15 -95.5 -75.5t-42.5 -171.5q0 -65 18 -115t46.5 -78t59 -42t60.5 -14q2 0 6 0.5t6 0.5q56 6 103.5 63.5t47.5 169.5q0 39 -14 81t-26 50
q-25 8 -25 28q0 10 5 16q3 6 10 11zM541 465q58 -51 58 -170q0 -131 -68.5 -216.5t-179.5 -97.5q-20 -2 -31 -2q-114 0 -189 85t-75 226q0 130 58.5 214t157.5 110q36 10 73 10q72 0 128 -36t75 -95q1 -2 1 -7q0 -10 -8 -21z" />
    <glyph glyph-name="OE" unicode="&#x152;" horiz-adv-x="960" 
d="M409 386q4 16 20.5 27.5t36.5 11.5h2h1q-3 112 -11 218q-2 25 -12 47t-16 27q-1 1 -2.5 2t-2.5 2q-30 21 -67 21q-48 0 -92 -37q-45 -38 -74.5 -115t-29.5 -194q0 -89 20 -158t50.5 -105.5t62 -55t59.5 -18.5h5q70 5 114 74q0 134 -2 209q-3 0 -9.5 0.5t-9.5 0.5
q-19 1 -31.5 11.5t-12.5 24.5q0 5 1 7zM927 32q-1 -16 -17.5 -29t-37.5 -14q-35 -2 -116.5 -8t-117.5 -6q-123 0 -152 58q-57 -49 -127 -55q-8 -1 -23 -1q-123 0 -200.5 112t-77.5 297q0 256 135 370q77 65 173 65q39 0 70 -10h6h2q105 -5 207 -5q127 0 194 9h7
q19 0 32.5 -9.5t14.5 -24.5v-1q0 -16 -15 -29.5t-35 -15.5q-67 -7 -179 -7q-30 0 -128 2q17 -32 20 -73q8 -115 11 -233q116 3 214 16q1 0 4 0.5t5 0.5q18 0 31.5 -9.5t14.5 -24.5v-3q0 -16 -14.5 -28.5t-34.5 -15.5q-99 -13 -218 -17q2 -89 2 -238q0 -30 8.5 -39.5
t41.5 -9.5q19 0 99.5 6t151.5 9h2q19 0 33 -11t14 -27v-1z" />
    <glyph glyph-name="oe" unicode="&#x153;" horiz-adv-x="920" 
d="M508 337q154 5 182 10q58 10 72 50q3 10 5 24t2 24q0 54 -30 80.5t-69 26.5q-2 0 -5.5 -0.5t-5.5 -0.5q-50 -5 -97.5 -57.5t-53.5 -156.5zM509 266q5 -61 22.5 -105t42.5 -66t48.5 -32t48.5 -10q12 0 18 1q62 9 94 61q17 26 52 26q6 0 14 -2q29 -6 29 -29q0 -7 -5 -15
q-27 -44 -76.5 -74.5t-108.5 -37.5q-22 -2 -33 -2q-131 0 -194 120q-53 -108 -165 -120q-8 -1 -24 -1q-100 0 -160.5 85.5t-60.5 224.5q0 133 52.5 218t145.5 109q27 7 55 7q59 0 104 -32t65 -84q67 102 186 114q18 2 27 2q79 0 130 -47.5t51 -121.5q0 -11 -2 -31
q-17 -119 -178 -146q-49 -8 -178 -12zM419 295q0 1 -0.5 3t-0.5 3q0 77 24 144q-4 -1 -12 -1q-35 0 -42 24q-12 43 -40.5 63t-59.5 20q-7 0 -19 -2q-42 -10 -81 -71t-39 -178q0 -67 15.5 -118.5t39.5 -77.5t46.5 -39t41.5 -13h4q41 4 81 61t40 172q0 4 2 10z" />
    <glyph glyph-name="Racute" unicode="&#x154;" horiz-adv-x="770" 
d="M527 1005q-155 -111 -210 -124q-11 -2 -22 -2q-25 0 -25 11q0 8 12 19q4 4 27 25t63.5 58.5t75.5 69.5q18 19 38 19q17 0 29 -17l21 -30q3 -4 3 -10q0 -10 -12 -19zM174 -24h-7q-20 0 -33 9.5t-13 23.5v1q4 104 4 245q0 233 -14 341v4q0 15 14 27t35 16q4 1 12 1
q18 0 31.5 -8.5t15.5 -21.5q10 -68 13 -188q14 14 31 14q10 0 21 -4q75 -25 136 -25q52 0 89 17q42 19 66.5 59.5t24.5 86.5q0 53 -31 94q-57 77 -181 77q-123 0 -289 -77q-14 -7 -32 -7q-29 0 -41 17q-5 6 -5 16q0 24 30 38q196 90 353 90q91 0 158.5 -29t104.5 -80
q43 -58 43 -131q0 -66 -38.5 -124.5t-114.5 -93.5q-70 -32 -153 -32h-7q221 -211 330 -293q12 -9 12 -23q0 -19 -19 -32q-17 -13 -43 -13q-21 0 -34 10q-129 95 -410 369v-77q0 -145 -4 -253q-1 -16 -17 -29t-38 -15z" />
    <glyph glyph-name="racute" unicode="&#x155;" horiz-adv-x="480" 
d="M352 825q-155 -111 -210 -124q-11 -2 -22 -2q-25 0 -25 11q0 8 12 19q4 4 27 25t63.5 58.5t75.5 69.5q18 19 38 19q17 0 29 -17l21 -30q3 -5 3 -10q0 -10 -12 -19zM186 -13q-10 0 -17 8.5t-8 18.5q-1 25 -3.5 88t-4 88.5t-6 71.5t-11.5 89q-12 76 -40.5 127t-58.5 58
q-27 6 -27 29q0 9 6 17q17 24 52 24q5 0 15 -2q83 -23 116 -151q34 161 152 168h12q51 0 102 -32q14 -8 14 -23q0 -16 -14 -27q-18 -15 -43 -15q-17 0 -27 7q-29 18 -50 18q-11 0 -26.5 -17.5t-30.5 -57.5t-19 -92q-8 -112 -8 -207v-28q0 -67 -2 -132q-31 -28 -73 -28z" />
    <glyph glyph-name="uni0156" unicode="&#x156;" horiz-adv-x="770" 
d="M352 -194q-10 -2 -15 -2q-26 0 -31 16q-3 9 -3 19q0 8 3 17q5 19 27 37t60 18t59.5 -22t21.5 -60q0 -41 -27 -81.5t-83 -67.5q-14 -6 -27 -6q-17 0 -26 9q-5 5 -5 13q0 15 19 24q71 35 71 99q0 24 -12 36q0 -1 -0.5 -3t-0.5 -4t0.5 -4.5t0.5 -3.5v-2l1 -2q0 -9 -9.5 -18
t-23.5 -12zM174 -24h-7q-20 0 -33 9.5t-13 23.5v1q4 104 4 245q0 233 -14 341v4q0 15 14 27t35 16q4 1 12 1q18 0 31.5 -8.5t15.5 -21.5q10 -68 13 -188q14 14 31 14q10 0 21 -4q75 -25 136 -25q52 0 89 17q42 19 66.5 59.5t24.5 86.5q0 53 -31 94q-57 77 -181 77
q-123 0 -289 -77q-14 -7 -32 -7q-29 0 -41 17q-5 6 -5 16q0 24 30 38q196 90 353 90q91 0 158.5 -29t104.5 -80q43 -58 43 -131q0 -66 -38.5 -124.5t-114.5 -93.5q-70 -32 -153 -32h-7q221 -211 330 -293q12 -9 12 -23q0 -19 -19 -32q-17 -13 -43 -13q-21 0 -34 10
q-129 95 -410 369v-77q0 -145 -4 -253q-1 -16 -17 -29t-38 -15z" />
    <glyph glyph-name="uni0157" unicode="&#x157;" horiz-adv-x="480" 
d="M167 -194q-10 -2 -15 -2q-26 0 -31 16q-3 9 -3 19q0 8 3 17q5 19 27 37t60 18t59.5 -22t21.5 -60q0 -41 -27 -81.5t-83 -67.5q-13 -6 -27 -6q-17 0 -26 9q-5 5 -5 13q0 15 19 24q71 35 71 99q0 24 -12 36q0 -1 -0.5 -3t-0.5 -4t0.5 -4.5t0.5 -3.5l1 -2v-2q0 -9 -9.5 -18
t-23.5 -12zM186 -13q-10 0 -17 8.5t-8 18.5q-1 25 -3.5 88t-4 88.5t-6 71.5t-11.5 89q-12 76 -40.5 127t-58.5 58q-27 6 -27 29q0 9 6 17q17 24 52 24q5 0 15 -2q83 -23 116 -151q34 161 152 168h12q51 0 102 -32q14 -8 14 -23q0 -16 -14 -27q-18 -15 -43 -15q-17 0 -27 7
q-29 18 -50 18q-11 0 -26.5 -17.5t-30.5 -57.5t-19 -92q-8 -112 -8 -207v-28q0 -67 -2 -132q-31 -28 -73 -28z" />
    <glyph glyph-name="Rcaron" unicode="&#x158;" horiz-adv-x="770" 
d="M344 879q-140 129 -151 151q14 34 39 34q8 0 18 -6q29 -16 131 -96q104 80 129 94q23 10 39 10q14 0 14 -11q0 -4 -5 -16q-6 -12 -28.5 -35.5t-61.5 -61t-58 -56.5q-15 -20 -37 -20q-15 0 -29 13zM174 -24h-7q-20 0 -33 9.5t-13 23.5v1q4 104 4 245q0 233 -14 341v4
q0 15 14 27t35 16q4 1 12 1q18 0 31.5 -8.5t15.5 -21.5q10 -68 13 -188q14 14 31 14q10 0 21 -4q75 -25 136 -25q52 0 89 17q42 19 66.5 59.5t24.5 86.5q0 53 -31 94q-57 77 -181 77q-123 0 -289 -77q-14 -7 -32 -7q-29 0 -41 17q-5 6 -5 16q0 24 30 38q196 90 353 90
q91 0 158.5 -29t104.5 -80q43 -58 43 -131q0 -66 -38.5 -124.5t-114.5 -93.5q-70 -32 -153 -32h-7q221 -211 330 -293q12 -9 12 -23q0 -19 -19 -32q-17 -13 -43 -13q-21 0 -34 10q-129 95 -410 369v-77q0 -145 -4 -253q-1 -16 -17 -29t-38 -15z" />
    <glyph glyph-name="rcaron" unicode="&#x159;" horiz-adv-x="480" 
d="M169 699q-140 129 -151 151q14 34 39 34q7 0 18 -6q29 -16 131 -96q104 80 129 94q23 10 39 10q14 0 14 -11q0 -4 -5 -16q-6 -12 -28.5 -35.5t-61.5 -61t-58 -56.5q-15 -20 -37 -20q-15 0 -29 13zM186 -13q-10 0 -17 8.5t-8 18.5q-1 25 -3.5 88t-4 88.5t-6 71.5t-11.5 89
q-12 76 -40.5 127t-58.5 58q-27 6 -27 29q0 9 6 17q17 24 52 24q5 0 15 -2q83 -23 116 -151q34 161 152 168h12q51 0 102 -32q14 -8 14 -23q0 -16 -14 -27q-18 -15 -43 -15q-17 0 -27 7q-29 18 -50 18q-11 0 -26.5 -17.5t-30.5 -57.5t-19 -92q-8 -112 -8 -207v-28
q0 -67 -2 -132q-31 -28 -73 -28z" />
    <glyph glyph-name="Sacute" unicode="&#x15a;" horiz-adv-x="690" 
d="M507 1005q-155 -111 -210 -124q-11 -2 -22 -2q-25 0 -25 11q0 8 12 19q4 4 27 25t63.5 58.5t75.5 69.5q18 19 38 19q17 0 29 -17l21 -30q3 -4 3 -10q0 -10 -12 -19zM103 199q12 3 23 3q34 0 43 -23q50 -123 201 -123q101 0 152 68q28 37 28 79q0 41 -28.5 75t-86.5 52
q-97 33 -214 74q-82 27 -124 77t-42 109q0 16 3 32q17 82 107 141t220 59q99 0 156.5 -51.5t57.5 -122.5q0 -7 -2 -23t-20 -28t-40 -13h-2q-20 0 -33 9.5t-13 23.5v4q1 5 1 15q0 45 -35 76.5t-86 31.5q-86 0 -139.5 -35t-63.5 -87q-2 -14 -2 -20q0 -37 28.5 -69t86.5 -51
q24 -8 109.5 -38t102.5 -36q83 -27 125.5 -78.5t42.5 -113.5q0 -64 -44 -122q-40 -51 -108.5 -83.5t-152.5 -32.5q-110 0 -184 46t-105 123q-2 6 -2 10q0 13 11 25t29 17z" />
    <glyph glyph-name="sacute" unicode="&#x15b;" horiz-adv-x="560" 
d="M432 825q-155 -111 -210 -124q-11 -2 -22 -2q-25 0 -25 11q0 8 12 19q4 4 27 25t63.5 58.5t75.5 69.5q18 19 38 19q17 0 29 -17l21 -30q3 -5 3 -10q0 -10 -12 -19zM92 158q9 3 20 3q33 0 41 -22q34 -87 143 -87q76 0 111 46q19 25 19 52q0 30 -22 55.5t-65 39.5l-160 55
q-63 21 -95.5 60t-32.5 85q0 16 2 24q13 64 83 110.5t171 46.5q78 0 123 -40.5t45 -96.5q0 -12 -1 -18q-2 -14 -18 -25t-36 -12h-2q-18 0 -30 9t-12 22v4q1 4 1 11q0 31 -24.5 52.5t-59.5 21.5q-65 0 -103 -24.5t-45 -60.5q-1 -4 -1 -12q0 -26 22 -49.5t65 -37.5
q19 -6 84.5 -29t75.5 -26q64 -20 97 -60t33 -88q0 -52 -35 -96q-31 -40 -84.5 -65.5t-119.5 -25.5q-85 0 -143 36t-82 95q-2 6 -2 9q0 26 37 38z" />
    <glyph glyph-name="Scircumflex" unicode="&#x15c;" horiz-adv-x="690" 
d="M392 1053q140 -129 151 -151q-14 -34 -39 -34q-7 0 -18 6q-29 16 -131 96q-104 -80 -129 -94q-23 -10 -39 -10q-14 0 -14 11q0 4 5 16q6 12 28.5 35.5t61.5 61t58 56.5q15 20 37 20q15 0 29 -13zM103 199q12 3 23 3q34 0 43 -23q50 -123 201 -123q101 0 152 68
q28 37 28 79q0 41 -28.5 75t-86.5 52q-97 33 -214 74q-82 27 -124 77t-42 109q0 16 3 32q17 82 107 141t220 59q99 0 156.5 -51.5t57.5 -122.5q0 -7 -2 -23t-20 -28t-40 -13h-2q-20 0 -33 9.5t-13 23.5v4q1 5 1 15q0 45 -35 76.5t-86 31.5q-86 0 -139.5 -35t-63.5 -87
q-2 -14 -2 -20q0 -37 28.5 -69t86.5 -51q24 -8 109.5 -38t102.5 -36q83 -27 125.5 -78.5t42.5 -113.5q0 -64 -44 -122q-40 -51 -108.5 -83.5t-152.5 -32.5q-110 0 -184 46t-105 123q-2 6 -2 10q0 13 11 25t29 17z" />
    <glyph glyph-name="scircumflex" unicode="&#x15d;" horiz-adv-x="560" 
d="M317 873q140 -129 151 -151q-14 -34 -39 -34q-7 0 -18 6q-29 16 -131 96q-104 -80 -129 -94q-23 -10 -39 -10q-14 0 -14 11q0 4 5 16q6 12 28.5 35.5t61.5 61t58 56.5q15 20 37 20q15 0 29 -13zM92 158q9 3 20 3q33 0 41 -22q34 -87 143 -87q76 0 111 46q19 25 19 52
q0 30 -22 55.5t-65 39.5l-160 55q-63 21 -95.5 60t-32.5 85q0 16 2 24q13 64 83 110.5t171 46.5q78 0 123 -40.5t45 -96.5q0 -12 -1 -18q-2 -14 -18 -25t-36 -12h-2q-18 0 -30 9t-12 22v4q1 4 1 11q0 31 -24.5 52.5t-59.5 21.5q-65 0 -103 -24.5t-45 -60.5q-1 -4 -1 -12
q0 -26 22 -49.5t65 -37.5q19 -6 84.5 -29t75.5 -26q64 -20 97 -60t33 -88q0 -52 -35 -96q-31 -40 -84.5 -65.5t-119.5 -25.5q-85 0 -143 36t-82 95q-2 6 -2 9q0 26 37 38z" />
    <glyph glyph-name="Scedilla" unicode="&#x15e;" horiz-adv-x="690" 
d="M103 199q12 3 23 3q34 0 43 -23q50 -123 201 -123q101 0 152 68q28 37 28 79q0 41 -28.5 75t-86.5 52q-97 33 -214 74q-82 27 -124 77t-42 109q0 16 3 32q17 82 107 141t220 59q99 0 156.5 -51.5t57.5 -122.5q0 -7 -2 -23t-20 -28t-40 -13h-2q-20 0 -33 9.5t-13 23.5v4
q1 5 1 15q0 45 -35 76.5t-86 31.5q-86 0 -139.5 -35t-63.5 -87q-2 -14 -2 -20q0 -37 28.5 -69t86.5 -51q24 -8 109.5 -38t102.5 -36q83 -27 125.5 -78.5t42.5 -113.5q0 -64 -44 -122q-34 -44 -90 -74.5t-126 -38.5l-32 -57q7 1 25 1q33 0 51 -7q51 -20 51 -68q0 -36 -29 -65
q-40 -40 -105 -40q-47 0 -92 23q-13 6 -13 18q0 9 8 17q12 12 32 12q9 0 17 -3q32 -16 58 -16t42 16q12 12 12 28q0 22 -25 34q-24 11 -59 11h-8h-4q-29 0 -29 17q0 2 0.5 5t1.5 4.5t1 2.5l1 2l31 62q-102 4 -171 50t-98 119q-2 6 -2 10q0 13 11 25t29 17z" />
    <glyph glyph-name="scedilla" unicode="&#x15f;" horiz-adv-x="560" 
d="M92 158q9 3 20 3q33 0 41 -22q34 -87 143 -87q76 0 111 46q19 25 19 52q0 30 -22 55.5t-65 39.5l-160 55q-63 21 -95.5 60t-32.5 85q0 16 2 24q13 64 83 110.5t171 46.5q78 0 123 -40.5t45 -96.5q0 -12 -1 -18q-2 -14 -18 -25t-36 -12h-2q-18 0 -30 9t-12 22v4q1 4 1 11
q0 31 -24.5 52.5t-59.5 21.5q-65 0 -103 -24.5t-45 -60.5q-1 -4 -1 -12q0 -26 22 -49.5t65 -37.5q19 -6 84.5 -29t75.5 -26q64 -20 97 -60t33 -88q0 -52 -35 -96q-27 -36 -73 -60.5t-103 -29.5l-33 -57q7 1 25 1q33 0 51 -7q51 -20 51 -68q0 -36 -29 -65q-40 -40 -105 -40
q-47 0 -92 23q-13 6 -13 18q0 9 8 17q12 12 32 12q10 0 17 -3q32 -16 58 -16t42 16q12 12 12 28q0 22 -25 34q-24 11 -59 11h-8h-4q-29 0 -29 17q0 2 0.5 5t1.5 4.5t1 2.5l1 2l33 66q-71 7 -119.5 42t-69.5 87q-2 6 -2 9q0 26 37 38z" />
    <glyph glyph-name="Scaron" unicode="&#x160;" horiz-adv-x="690" 
d="M324 879q-140 129 -151 151q14 34 39 34q8 0 18 -6q29 -16 131 -96q104 80 129 94q23 10 39 10q14 0 14 -11q0 -4 -5 -16q-6 -12 -28.5 -35.5t-61.5 -61t-58 -56.5q-15 -20 -37 -20q-15 0 -29 13zM103 199q12 3 23 3q34 0 43 -23q50 -123 201 -123q101 0 152 68
q28 37 28 79q0 41 -28.5 75t-86.5 52q-97 33 -214 74q-82 27 -124 77t-42 109q0 16 3 32q17 82 107 141t220 59q99 0 156.5 -51.5t57.5 -122.5q0 -7 -2 -23t-20 -28t-40 -13h-2q-20 0 -33 9.5t-13 23.5v4q1 5 1 15q0 45 -35 76.5t-86 31.5q-86 0 -139.5 -35t-63.5 -87
q-2 -14 -2 -20q0 -37 28.5 -69t86.5 -51q24 -8 109.5 -38t102.5 -36q83 -27 125.5 -78.5t42.5 -113.5q0 -64 -44 -122q-40 -51 -108.5 -83.5t-152.5 -32.5q-110 0 -184 46t-105 123q-2 6 -2 10q0 13 11 25t29 17z" />
    <glyph glyph-name="scaron" unicode="&#x161;" horiz-adv-x="560" 
d="M249 699q-140 129 -151 151q14 34 39 34q7 0 18 -6q29 -16 131 -96q104 80 129 94q23 10 39 10q14 0 14 -11q0 -4 -5 -16q-6 -12 -28.5 -35.5t-61.5 -61t-58 -56.5q-15 -20 -37 -20q-15 0 -29 13zM92 158q9 3 20 3q33 0 41 -22q34 -87 143 -87q76 0 111 46q19 25 19 52
q0 30 -22 55.5t-65 39.5l-160 55q-63 21 -95.5 60t-32.5 85q0 16 2 24q13 64 83 110.5t171 46.5q78 0 123 -40.5t45 -96.5q0 -12 -1 -18q-2 -14 -18 -25t-36 -12h-2q-18 0 -30 9t-12 22v4q1 4 1 11q0 31 -24.5 52.5t-59.5 21.5q-65 0 -103 -24.5t-45 -60.5q-1 -4 -1 -12
q0 -26 22 -49.5t65 -37.5q19 -6 84.5 -29t75.5 -26q64 -20 97 -60t33 -88q0 -52 -35 -96q-31 -40 -84.5 -65.5t-119.5 -25.5q-85 0 -143 36t-82 95q-2 6 -2 9q0 26 37 38z" />
    <glyph glyph-name="uni0162" unicode="&#x162;" horiz-adv-x="710" 
d="M679 772q-2 -16 -19.5 -28t-39.5 -13q-200 -9 -223 -9q6 -15 7 -34q8 -116 8 -347q0 -136 -3 -316q0 -24 -31 -38l-36 -63q7 1 25 1q33 0 51 -7q51 -20 51 -68q0 -36 -29 -65q-40 -40 -105 -40q-47 0 -92 23q-13 6 -13 18q0 9 8 17q12 12 32 12q10 0 17 -3q32 -16 58 -16
t42 16q12 12 12 28q0 22 -25 34q-24 11 -59 11h-8h-4q-29 0 -29 17q0 2 0.5 5t1.5 4.5t2 2.5v2l37 74q-14 9 -14 25q3 180 3 315q0 227 -8 342q-1 16 -6 24t-10.5 10t-16.5 3q-20 2 -73.5 5t-89.5 8.5t-53 15.5q-27 16 -27 31q0 12 15 21.5t30 13.5l15 4q16 2 30 2
q17 0 106 -5t161 -5q4 0 253 9h2q20 0 33.5 -9.5t13.5 -23.5v-4z" />
    <glyph glyph-name="uni0163" unicode="&#x163;" horiz-adv-x="460" 
d="M178 750q2 0 5 0.5t5 0.5q17 0 28.5 -8t12.5 -21q1 -14 1 -43q0 -15 -0.5 -43t-0.5 -43q53 0 131 3h2q18 0 30 -8.5t12 -21.5v-4q-2 -14 -18 -25.5t-36 -12.5q-46 -2 -116 -2q-1 -55 -5.5 -179.5t-4.5 -187.5q0 -65 39 -93q15 -11 29 -11q26 0 70 32q18 13 40 13
q18 0 30 -9t12 -22q0 -16 -16 -28q-67 -49 -138 -54l-33 -59q7 1 25 1q33 0 51 -7q51 -20 51 -68q0 -36 -29 -65q-40 -40 -105 -40q-47 0 -92 23q-13 6 -13 18q0 9 8 17q12 12 32 12q10 0 17 -3q32 -16 58 -16t42 16q12 12 12 28q0 22 -25 34q-24 11 -59 11h-8h-4
q-29 0 -29 17q0 2 0.5 5t1.5 4.5t1 2.5l1 2l36 72q-22 6 -41 20q-62 45 -62 137q0 63 5 190t5 189q-54 2 -84 5q-16 1 -26.5 10t-10.5 21q0 3 2 9q5 14 21 23t35 9h5q39 -4 62 -5q0 2 -9 112v1q0 14 13.5 26t33.5 15z" />
    <glyph glyph-name="Tcaron" unicode="&#x164;" horiz-adv-x="710" 
d="M319 879q-140 129 -151 151q14 34 39 34q7 0 18 -6q29 -16 131 -96q104 80 129 94q23 10 39 10q14 0 14 -11q0 -4 -5 -16q-6 -12 -28.5 -35.5t-61.5 -61t-58 -56.5q-15 -20 -37 -20q-15 0 -29 13zM679 772q-2 -16 -19.5 -28t-39.5 -13q-200 -9 -223 -9q6 -15 7 -34
q8 -116 8 -347q0 -136 -3 -316q0 -16 -16 -29t-39 -15h-7q-19 0 -32.5 10t-13.5 24q3 180 3 315q0 227 -8 342q-1 16 -6 24t-10.5 10t-16.5 3q-20 2 -73.5 5t-89.5 8.5t-53 15.5q-27 16 -27 31q0 12 15 21.5t30 13.5l15 4q16 2 30 2q17 0 106 -5t161 -5q4 0 253 9h2
q20 0 33.5 -9.5t13.5 -23.5v-4z" />
    <glyph glyph-name="tcaron" unicode="&#x165;" horiz-adv-x="590" 
d="M465 777q-10 8 -10 17q0 15 17 26q8 6 12 8q32 17 64 17h5q32 -1 56 -23q32 -30 32 -87q0 -52 -30.5 -103.5t-91.5 -84.5q-16 -8 -31 -8q-20 0 -31 11q-7 7 -7 16q0 16 21 27q38 21 58 60t20 78q0 37 -15 50q0 1 -1 1q-1 -1 -2 -1t-1.5 -0.5t-1.5 -0.5q-16 -11 -36 -11
q-16 0 -27 8zM178 750q2 0 5 0.5t5 0.5q17 0 28.5 -8t12.5 -21q1 -14 1 -43q0 -15 -0.5 -43t-0.5 -43q53 0 131 3h2q18 0 30 -8.5t12 -21.5v-4q-2 -14 -18 -25.5t-36 -12.5q-46 -2 -116 -2q-1 -55 -5.5 -179.5t-4.5 -187.5q0 -65 39 -93q15 -11 29 -11q26 0 70 32
q18 13 40 13q18 0 30 -9t12 -22q0 -16 -16 -28q-74 -55 -152 -55q-51 0 -88 26q-62 45 -62 137q0 63 5 190t5 189q-54 2 -84 5q-16 1 -26.5 10t-10.5 21q0 3 2 9q5 14 21 23t35 9h5q39 -4 62 -5q0 2 -9 112v1q0 14 13.5 26t33.5 15z" />
    <glyph glyph-name="Utilde" unicode="&#x168;" horiz-adv-x="810" 
d="M576 1050q13 -1 21 -8.5t8 -17.5q0 -5 -1 -8q-38 -106 -126 -106q-25 0 -47.5 10.5t-31 18t-24.5 23.5q-37 36 -51 36q-3 0 -9.5 -6t-15.5 -19.5t-15 -29.5q-4 -11 -16 -18t-26 -7h-7q-13 1 -21 9t-8 18q0 2 2 8q41 105 126 105q12 0 22 -1.5t19.5 -6t16 -7.5t15 -9.5
t12 -9.5t11.5 -11l9 -9q34 -34 49 -34q2 0 9.5 6t16.5 19.5t14 28.5q10 26 43 26h5zM651 799h8q20 0 33.5 -9.5t13.5 -23.5q1 -84 7 -237t6 -203q0 -62 -10 -112q-21 -105 -98.5 -171.5t-213.5 -66.5q-158 0 -232 83.5t-74 254.5q0 44 5.5 205t5.5 235q0 16 16 29.5t38 15.5
h8q20 0 33 -9.5t13 -23.5q0 -76 -5.5 -237t-5.5 -203q0 -155 52 -213.5t162 -58.5q85 0 128.5 37.5t60.5 122.5q9 45 9 100q0 48 -6 201t-7 239q0 16 15.5 29.5t37.5 15.5z" />
    <glyph glyph-name="utilde" unicode="&#x169;" horiz-adv-x="670" 
d="M496 870q13 -1 21 -8.5t8 -17.5q0 -5 -1 -8q-38 -106 -126 -106q-25 0 -47.5 10.5t-31 18t-24.5 23.5q-37 36 -51 36q-3 0 -9.5 -6t-15.5 -19.5t-15 -29.5q-4 -11 -16 -18t-26 -7h-7q-13 1 -21 9t-8 18q0 2 2 8q41 105 126 105q12 0 22 -1.5t19.5 -6t16 -7.5t15 -9.5
t12 -9.5t11.5 -11l9 -9q34 -34 49 -34q2 0 9.5 6t16.5 19.5t14 28.5q10 26 43 26h5zM559 592q4 -276 24.5 -393.5t61.5 -153.5q9 -9 9 -19q0 -19 -20 -31q-17 -11 -39 -11q-20 0 -30 11q-48 54 -67 178q-61 -194 -220 -194q-97 0 -147 67t-50 184q0 30 0.5 87.5t0.5 84.5
q0 109 -6 165v3q0 14 13.5 25.5t32.5 14.5q4 1 10 1q17 0 29 -7.5t13 -20.5q6 -60 6 -170q0 -27 -0.5 -85t-0.5 -88q0 -100 34 -144.5t79 -44.5q107 0 146 194q19 96 28 326q1 15 14.5 27.5t30.5 12.5q10 0 22 -4.5t19 -9.5z" />
    <glyph glyph-name="Umacron" unicode="&#x16a;" horiz-adv-x="810" 
d="M595 981q-1 -13 -13.5 -21.5t-29.5 -9.5q-77 -3 -132 -3q-83 0 -174 8q-14 2 -22.5 9.5t-8.5 17.5q0 5 1 7q8 26 43 26h5q86 -8 165 -8q53 0 129 3h2q15 0 25 -7.5t10 -18.5v-3zM651 799h8q20 0 33.5 -9.5t13.5 -23.5q1 -84 7 -237t6 -203q0 -62 -10 -112
q-21 -105 -98.5 -171.5t-213.5 -66.5q-158 0 -232 83.5t-74 254.5q0 44 5.5 205t5.5 235q0 16 16 29.5t38 15.5h8q20 0 33 -9.5t13 -23.5q0 -76 -5.5 -237t-5.5 -203q0 -155 52 -213.5t162 -58.5q85 0 128.5 37.5t60.5 122.5q9 45 9 100q0 48 -6 201t-7 239q0 16 15.5 29.5
t37.5 15.5z" />
    <glyph glyph-name="umacron" unicode="&#x16b;" horiz-adv-x="670" 
d="M515 801q-1 -13 -13.5 -21.5t-29.5 -9.5q-77 -3 -132 -3q-83 0 -174 8q-14 2 -22.5 9.5t-8.5 17.5q0 5 1 7q8 26 43 26h5q86 -8 165 -8q53 0 129 3h2q15 0 25 -7.5t10 -18.5v-3zM559 592q4 -276 24.5 -393.5t61.5 -153.5q9 -9 9 -19q0 -19 -20 -31q-17 -11 -39 -11
q-20 0 -30 11q-48 54 -67 178q-61 -194 -220 -194q-97 0 -147 67t-50 184q0 30 0.5 87.5t0.5 84.5q0 109 -6 165v3q0 14 13.5 25.5t32.5 14.5q4 1 10 1q17 0 29 -7.5t13 -20.5q6 -60 6 -170q0 -27 -0.5 -85t-0.5 -88q0 -100 34 -144.5t79 -44.5q107 0 146 194q19 96 28 326
q1 15 14.5 27.5t30.5 12.5q10 0 22 -4.5t19 -9.5z" />
    <glyph glyph-name="Ubreve" unicode="&#x16c;" horiz-adv-x="810" 
d="M397 885q-49 0 -85.5 15t-54.5 39t-26.5 46.5t-9.5 43.5v1q0 14 12 23.5t26 9.5q19 0 25 -18q10 -34 42.5 -63.5t88.5 -29.5h10q44 2 69.5 27t31.5 64q1 11 14.5 21t26.5 10q19 0 22 -22q1 -5 1 -16q0 -15 -5 -35q-14 -46 -63 -81t-125 -35zM651 799h8q20 0 33.5 -9.5
t13.5 -23.5q1 -84 7 -237t6 -203q0 -62 -10 -112q-21 -105 -98.5 -171.5t-213.5 -66.5q-158 0 -232 83.5t-74 254.5q0 44 5.5 205t5.5 235q0 16 16 29.5t38 15.5h8q20 0 33 -9.5t13 -23.5q0 -76 -5.5 -237t-5.5 -203q0 -155 52 -213.5t162 -58.5q85 0 128.5 37.5t60.5 122.5
q9 45 9 100q0 48 -6 201t-7 239q0 16 15.5 29.5t37.5 15.5z" />
    <glyph glyph-name="ubreve" unicode="&#x16d;" horiz-adv-x="670" 
d="M317 705q-49 0 -85.5 15t-54.5 39t-26.5 46.5t-9.5 43.5v1q0 14 12 23.5t26 9.5q19 0 25 -18q10 -34 42.5 -63.5t88.5 -29.5h10q44 2 69.5 27t31.5 64q1 11 14.5 21t26.5 10q19 0 22 -22q1 -5 1 -16q0 -15 -5 -35q-14 -46 -63 -81t-125 -35zM559 592q4 -276 24.5 -393.5
t61.5 -153.5q9 -9 9 -19q0 -19 -20 -31q-17 -11 -39 -11q-20 0 -30 11q-48 54 -67 178q-61 -194 -220 -194q-97 0 -147 67t-50 184q0 30 0.5 87.5t0.5 84.5q0 109 -6 165v3q0 14 13.5 25.5t32.5 14.5q4 1 10 1q17 0 29 -7.5t13 -20.5q6 -60 6 -170q0 -27 -0.5 -85t-0.5 -88
q0 -100 34 -144.5t79 -44.5q107 0 146 194q19 96 28 326q1 15 14.5 27.5t30.5 12.5q10 0 22 -4.5t19 -9.5z" />
    <glyph glyph-name="Uring" unicode="&#x16e;" horiz-adv-x="810" 
d="M410 1016q-15 -3 -16 -3q-22 0 -30 -37q-2 -12 -2 -17q0 -25 16.5 -38.5t27.5 -13.5q34 0 41 31q1 3 1 8q0 53 -38 70zM420 1064q6 2 16 2q11 0 15 -2q71 -29 71 -110q0 -6 -2 -16q-7 -36 -44 -60.5t-82 -24.5t-75.5 28t-30.5 70q0 13 3 25q7 35 36 63t79 28q8 0 14 -3z
M651 799h8q20 0 33.5 -9.5t13.5 -23.5q1 -84 7 -237t6 -203q0 -62 -10 -112q-21 -105 -98.5 -171.5t-213.5 -66.5q-158 0 -232 83.5t-74 254.5q0 44 5.5 205t5.5 235q0 16 16 29.5t38 15.5h8q20 0 33 -9.5t13 -23.5q0 -76 -5.5 -237t-5.5 -203q0 -155 52 -213.5t162 -58.5
q85 0 128.5 37.5t60.5 122.5q9 45 9 100q0 48 -6 201t-7 239q0 16 15.5 29.5t37.5 15.5z" />
    <glyph glyph-name="uring" unicode="&#x16f;" horiz-adv-x="670" 
d="M330 836q-15 -3 -16 -3q-22 0 -30 -37q-2 -12 -2 -17q0 -25 16.5 -38.5t27.5 -13.5q34 0 41 31q1 3 1 8q0 53 -38 70zM340 884q6 2 16 2q11 0 15 -2q71 -29 71 -110q0 -6 -2 -16q-7 -36 -44 -60.5t-82 -24.5t-75.5 28t-30.5 70q0 13 3 25q7 35 36 63t79 28q8 0 14 -3z
M559 592q4 -276 24.5 -393.5t61.5 -153.5q9 -9 9 -19q0 -19 -20 -31q-17 -11 -39 -11q-20 0 -30 11q-48 54 -67 178q-61 -194 -220 -194q-97 0 -147 67t-50 184q0 30 0.5 87.5t0.5 84.5q0 109 -6 165v3q0 14 13.5 25.5t32.5 14.5q4 1 10 1q17 0 29 -7.5t13 -20.5
q6 -60 6 -170q0 -27 -0.5 -85t-0.5 -88q0 -100 34 -144.5t79 -44.5q107 0 146 194q19 96 28 326q1 15 14.5 27.5t30.5 12.5q10 0 22 -4.5t19 -9.5z" />
    <glyph glyph-name="Uhungarumlaut" unicode="&#x170;" horiz-adv-x="810" 
d="M645 1069q-32 -37 -76 -96.5t-56 -70.5q-19 -5 -34 -5q-18 0 -18 9q0 3 1 5t9 21.5t17.5 41.5t28.5 56.5t40 67.5q13 22 35 22q13 0 26 -10l26 -20q5 -4 5 -10q0 -7 -4 -11zM440 1069q-33 -38 -77 -96.5t-55 -69.5q-20 -5 -35 -5q-17 0 -17 8q0 3 1 5q0 1 9 22t18.5 42
t28 55.5t39.5 67.5q13 22 35 22q12 0 26 -10l26 -20q5 -4 5 -10q0 -7 -4 -11zM651 799h8q20 0 33.5 -9.5t13.5 -23.5q1 -84 7 -237t6 -203q0 -62 -10 -112q-21 -105 -98.5 -171.5t-213.5 -66.5q-158 0 -232 83.5t-74 254.5q0 44 5.5 205t5.5 235q0 16 16 29.5t38 15.5h8
q20 0 33 -9.5t13 -23.5q0 -76 -5.5 -237t-5.5 -203q0 -155 52 -213.5t162 -58.5q85 0 128.5 37.5t60.5 122.5q9 45 9 100q0 48 -6 201t-7 239q0 16 15.5 29.5t37.5 15.5z" />
    <glyph glyph-name="uhungarumlaut" unicode="&#x171;" horiz-adv-x="670" 
d="M565 889q-32 -37 -76 -96.5t-56 -70.5q-19 -5 -34 -5q-18 0 -18 9q0 3 1 5t9 21.5t17.5 41.5t28.5 56.5t40 67.5q13 22 35 22q13 0 26 -10l26 -20q5 -4 5 -10q0 -7 -4 -11zM360 889q-33 -38 -77 -96.5t-55 -69.5q-20 -5 -35 -5q-17 0 -17 8q0 3 1 5q0 1 9 22t18.5 42
t28 55.5t39.5 67.5q13 22 35 22q12 0 26 -10l26 -20q5 -4 5 -10q0 -7 -4 -11zM559 592q4 -276 24.5 -393.5t61.5 -153.5q9 -9 9 -19q0 -19 -20 -31q-17 -11 -39 -11q-20 0 -30 11q-48 54 -67 178q-61 -194 -220 -194q-97 0 -147 67t-50 184q0 30 0.5 87.5t0.5 84.5
q0 109 -6 165v3q0 14 13.5 25.5t32.5 14.5q4 1 10 1q17 0 29 -7.5t13 -20.5q6 -60 6 -170q0 -27 -0.5 -85t-0.5 -88q0 -100 34 -144.5t79 -44.5q107 0 146 194q19 96 28 326q1 15 14.5 27.5t30.5 12.5q10 0 22 -4.5t19 -9.5z" />
    <glyph glyph-name="Uogonek" unicode="&#x172;" horiz-adv-x="810" 
d="M557 -195q3 -5 3 -11q0 -21 -25 -31q-45 -18 -83 -18q-67 0 -99 45q-19 28 -19 66q0 63 51 120q-151 3 -222.5 86.5t-71.5 251.5q0 44 5.5 205t5.5 235q0 16 16 29.5t38 15.5h8q20 0 33 -9.5t13 -23.5q0 -76 -5.5 -237t-5.5 -203q0 -155 52 -213.5t162 -58.5
q85 0 128.5 37.5t60.5 122.5q9 45 9 100q0 48 -6 201t-7 239q0 16 15.5 29.5t37.5 15.5h8q20 0 33.5 -9.5t13.5 -23.5q1 -84 7 -237t6 -203q0 -62 -10 -112q-16 -80 -65.5 -139.5t-133.5 -83.5l-1 -1h-1q-46 -22 -70 -58t-24 -71q0 -23 10 -37q13 -18 35 -18q19 0 46 11
q12 4 19 4q23 0 33 -16z" />
    <glyph glyph-name="uogonek" unicode="&#x173;" horiz-adv-x="670" 
d="M667 -195q3 -5 3 -11q0 -21 -25 -31q-45 -18 -83 -18q-67 0 -99 45q-19 28 -19 66q0 43 26 87.5t76 76.5q-32 53 -48 153q-61 -194 -220 -194q-97 0 -147 67t-50 184q0 30 0.5 87.5t0.5 84.5q0 109 -6 165v3q0 14 13.5 25.5t32.5 14.5q4 1 10 1q17 0 29 -7.5t13 -20.5
q6 -60 6 -170q0 -27 -0.5 -85t-0.5 -88q0 -100 34 -144.5t79 -44.5q107 0 146 194q19 96 28 326q1 15 14.5 27.5t30.5 12.5q10 0 22 -4.5t19 -9.5l7 -5q4 -276 24.5 -393.5t61.5 -153.5q9 -9 9 -19q0 -19 -20 -31q-9 -6 -25 -10q-42 -23 -63.5 -57t-21.5 -67q0 -23 10 -37
q13 -18 35 -18q19 0 46 11q12 4 19 4q23 0 33 -16z" />
    <glyph glyph-name="Wcircumflex" unicode="&#x174;" horiz-adv-x="1080" 
d="M572 1053q140 -129 151 -151q-14 -34 -39 -34q-8 0 -18 6q-29 16 -131 96q-104 -80 -129 -94q-23 -10 -39 -10q-14 0 -14 11q0 4 5 16q6 12 28.5 35.5t61.5 61t58 56.5q15 20 37 20q15 0 29 -13zM1004 799q18 -1 29.5 -11t11.5 -23q0 -4 -2 -10q-20 -56 -38.5 -114.5
t-41.5 -141t-36.5 -131.5t-45 -171t-45.5 -174q-44 -33 -76 -33q-21 0 -28 20q0 2 -1 5t-2 5q-19 52 -92 275.5t-106 312.5q-30 -90 -99 -316.5t-86 -275.5q-45 -29 -76 -29q-24 0 -29 21q-119 479 -204 738q-1 3 -1 8q0 14 11.5 26t30.5 17q9 3 19 3q38 0 46 -26
q76 -233 165 -605q13 42 39 132t43.5 148.5t38.5 126t35 108t21 52.5q21 36 48 36q12 0 23.5 -6.5t17.5 -13.5l6 -6q34 -52 204 -578q4 16 22 92.5t23.5 99t20.5 85t23 92t21 77t24.5 83t23.5 68.5q14 34 57 34h5z" />
    <glyph glyph-name="wcircumflex" unicode="&#x175;" horiz-adv-x="810" 
d="M437 873q140 -129 151 -151q-14 -34 -39 -34q-7 0 -18 6q-29 16 -131 96q-104 -80 -129 -94q-23 -10 -39 -10q-14 0 -14 11q0 4 5 16q6 12 28.5 35.5t61.5 61t58 56.5q15 20 37 20q15 0 29 -13zM748 601q16 -1 26.5 -10t10.5 -21q0 -3 -2 -9q-18 -50 -37.5 -116
t-32.5 -116t-39.5 -151.5t-41.5 -159.5q-40 -29 -69 -29q-19 0 -26 18q-11 33 -62 193.5t-76 228.5q-22 -67 -69 -225.5t-59 -192.5q-41 -26 -69 -26q-21 0 -26 19q-95 381 -149 548q-1 2 -1 7q0 12 11 23.5t27 15.5q6 2 18 2q33 0 41 -22q60 -189 114 -430q105 367 123 397
q20 33 43 33q10 0 19.5 -6t13.5 -12l5 -6q27 -41 143 -406q68 311 108 421q5 14 19 23t32 9h5z" />
    <glyph glyph-name="Ycircumflex" unicode="&#x176;" horiz-adv-x="710" 
d="M387 1053q140 -129 151 -151q-14 -34 -39 -34q-7 0 -18 6q-29 16 -131 96q-104 -80 -129 -94q-23 -10 -39 -10q-14 0 -14 11q0 4 5 16q6 12 28.5 35.5t61.5 61t58 56.5q15 20 37 20q15 0 29 -13zM642 799q17 -1 27.5 -10.5t10.5 -22.5q0 -6 -3 -12q-68 -159 -146 -282
q-23 -36 -50.5 -76t-38.5 -56.5t-19.5 -36t-8.5 -38.5q-1 -24 -1 -71q0 -79 6 -166v-3q0 -15 -14.5 -28t-36.5 -16q-2 0 -5 -0.5t-5 -0.5q-19 0 -32.5 9t-14.5 23q-6 88 -6 171q0 48 1 72q0 24 8 50q-70 36 -137 143q-83 129 -145 307q-2 6 -2 9q0 14 11.5 26t30.5 17
q10 3 20 3q38 0 46 -25q58 -168 139 -295q59 -90 78 -108q2 3 31 44.5t47 69.5q74 116 140 270q6 14 24 23.5t38 9.5h7z" />
    <glyph glyph-name="ycircumflex" unicode="&#x177;" horiz-adv-x="600" 
d="M332 873q140 -129 151 -151q-14 -34 -39 -34q-8 0 -18 6q-29 16 -131 96q-104 -80 -129 -94q-23 -10 -39 -10q-14 0 -14 11q0 4 5 16q6 12 28.5 35.5t61.5 61t58 56.5q15 20 37 20q15 0 29 -13zM554 573q-28 -267 -55 -422q-2 -9 -8.5 -47.5t-8.5 -49t-8.5 -43.5
t-10.5 -45.5t-11 -39t-13.5 -40.5t-16 -33t-20 -33.5t-22.5 -26.5q-50 -50 -128 -50q-59 0 -123 29q-19 10 -19 26q0 13 13 26q22 22 45 22q11 0 23 -5q52 -26 71 -26q20 0 40 16q59 49 101 275q-26 -48 -57 -75t-78 -27q-85 0 -132 108q-34 80 -76 315q-3 14 -8 44
q-10 58 -16 89v4q0 14 12 25t31 15q5 1 14 1q38 0 41 -25q43 -267 75 -381t74 -123q24 3 61 57.5t58 128.5q9 33 18 76.5t14 74.5t12 80.5t10 65.5q2 13 14.5 24t27.5 11q13 0 27 -5t21 -11z" />
    <glyph glyph-name="Ydieresis" unicode="&#x178;" horiz-adv-x="710" 
d="M542 1022q18 -18 18 -41q0 -9 -1 -13q-4 -23 -27 -43t-61 -20q-35 0 -52 18t-17 43t21 50.5t68 25.5q8 0 16 -2l11 -4q16 -5 24 -14zM290 1022q18 -18 18 -41q0 -9 -1 -13q-4 -23 -27 -43t-61 -20q-35 0 -52 18t-17 43t21 50.5t68 25.5q8 0 16 -2l11 -4q16 -5 24 -14z
M642 799q17 -1 27.5 -10.5t10.5 -22.5q0 -6 -3 -12q-68 -159 -146 -282q-23 -36 -50.5 -76t-38.5 -56.5t-19.5 -36t-8.5 -38.5q-1 -24 -1 -71q0 -79 6 -166v-3q0 -15 -14.5 -28t-36.5 -16q-2 0 -5 -0.5t-5 -0.5q-19 0 -32.5 9t-14.5 23q-6 88 -6 171q0 48 1 72q0 24 8 50
q-70 36 -137 143q-83 129 -145 307q-2 6 -2 9q0 14 11.5 26t30.5 17q10 3 20 3q38 0 46 -25q58 -168 139 -295q59 -90 78 -108q2 3 31 44.5t47 69.5q74 116 140 270q6 14 24 23.5t38 9.5h7z" />
    <glyph glyph-name="Zacute" unicode="&#x179;" horiz-adv-x="730" 
d="M517 1005q-155 -111 -210 -124q-11 -2 -22 -2q-25 0 -25 11q0 8 12 19q4 4 27 25t63.5 58.5t75.5 69.5q18 19 38 19q17 0 29 -17l21 -30q3 -4 3 -10q0 -10 -12 -19zM699 51q-2 -17 -22 -30.5t-46 -15.5q-192 -18 -325 -18q-270 0 -270 71q0 27 23.5 72t75.5 115.5
t100 130.5t133.5 165.5t138.5 173.5q-109 -6 -199 -6q-85 0 -207 6q-20 2 -32.5 10t-12.5 21q0 6 3 12q7 16 29 26.5t46 10.5h5q119 -6 198 -6q98 0 279 11h14q49 0 49 -22q0 -6 -3.5 -13.5t-7.5 -11.5l-3 -4q-55 -70 -139.5 -177t-135 -171t-105 -135t-83.5 -115t-36 -66
q43 -11 189 -11q171 0 284 11h9q22 0 36.5 -9t14.5 -23v-2z" />
    <glyph glyph-name="zacute" unicode="&#x17a;" horiz-adv-x="570" 
d="M442 825q-155 -111 -210 -124q-11 -2 -22 -2q-25 0 -25 11q0 8 12 19q4 4 27 25t63.5 58.5t75.5 69.5q18 19 38 19q17 0 29 -17l21 -30q3 -5 3 -10q0 -10 -12 -19zM539 38q-1 -14 -18 -26.5t-39 -14.5q-157 -14 -244 -14q-207 0 -207 60q0 22 17 55.5t55.5 86t73 96
t98.5 121.5t102 127q-94 -4 -132 -4q-56 0 -159 5q-40 3 -40 29q0 4 2 10q6 14 23.5 23.5t37.5 9.5h5q97 -5 147 -5q52 0 209 9h14q42 0 42 -20q0 -6 -3.5 -13t-6.5 -11l-4 -4q-40 -51 -101 -128t-98 -124t-76.5 -99t-62.5 -86t-31 -53q39 -7 141 -7q121 0 204 8h8
q19 0 31 -8.5t12 -21.5v-1z" />
    <glyph glyph-name="Zdotaccent" unicode="&#x17b;" horiz-adv-x="730" 
d="M436 1022q18 -18 18 -41q0 -9 -1 -13q-4 -23 -29.5 -43t-63.5 -20q-35 0 -54.5 18t-19.5 43q0 24 23 50t71 26q8 0 16 -2l16 -4q16 -5 24 -14zM699 51q-2 -17 -22 -30.5t-46 -15.5q-192 -18 -325 -18q-270 0 -270 71q0 27 23.5 72t75.5 115.5t100 130.5t133.5 165.5
t138.5 173.5q-109 -6 -199 -6q-85 0 -207 6q-20 2 -32.5 10t-12.5 21q0 6 3 12q7 16 29 26.5t46 10.5h5q119 -6 198 -6q98 0 279 11h14q49 0 49 -22q0 -6 -3.5 -13.5t-7.5 -11.5l-3 -4q-55 -70 -139.5 -177t-135 -171t-105 -135t-83.5 -115t-36 -66q43 -11 189 -11
q171 0 284 11h9q22 0 36.5 -9t14.5 -23v-2z" />
    <glyph glyph-name="zdotaccent" unicode="&#x17c;" horiz-adv-x="570" 
d="M361 842q18 -18 18 -41q0 -9 -1 -13q-4 -23 -29.5 -43t-63.5 -20q-35 0 -54.5 18t-19.5 43q0 24 23 50t71 26q8 0 16 -2l16 -4q16 -5 24 -14zM539 38q-1 -14 -18 -26.5t-39 -14.5q-157 -14 -244 -14q-207 0 -207 60q0 22 17 55.5t55.5 86t73 96t98.5 121.5t102 127
q-94 -4 -132 -4q-56 0 -159 5q-40 3 -40 29q0 4 2 10q6 14 23.5 23.5t37.5 9.5h5q97 -5 147 -5q52 0 209 9h14q42 0 42 -20q0 -6 -3.5 -13t-6.5 -11l-4 -4q-40 -51 -101 -128t-98 -124t-76.5 -99t-62.5 -86t-31 -53q39 -7 141 -7q121 0 204 8h8q19 0 31 -8.5t12 -21.5v-1z
" />
    <glyph glyph-name="Zcaron" unicode="&#x17d;" horiz-adv-x="730" 
d="M334 879q-140 129 -151 151q14 34 39 34q8 0 18 -6q29 -16 131 -96q104 80 129 94q23 10 39 10q14 0 14 -11q0 -4 -5 -16q-6 -12 -28.5 -35.5t-61.5 -61t-58 -56.5q-15 -20 -37 -20q-15 0 -29 13zM699 51q-2 -17 -22 -30.5t-46 -15.5q-192 -18 -325 -18q-270 0 -270 71
q0 27 23.5 72t75.5 115.5t100 130.5t133.5 165.5t138.5 173.5q-109 -6 -199 -6q-85 0 -207 6q-20 2 -32.5 10t-12.5 21q0 6 3 12q7 16 29 26.5t46 10.5h5q119 -6 198 -6q98 0 279 11h14q49 0 49 -22q0 -6 -3.5 -13.5t-7.5 -11.5l-3 -4q-55 -70 -139.5 -177t-135 -171
t-105 -135t-83.5 -115t-36 -66q43 -11 189 -11q171 0 284 11h9q22 0 36.5 -9t14.5 -23v-2z" />
    <glyph glyph-name="zcaron" unicode="&#x17e;" horiz-adv-x="570" 
d="M259 699q-140 129 -151 151q14 34 39 34q7 0 18 -6q29 -16 131 -96q104 80 129 94q23 10 39 10q14 0 14 -11q0 -4 -5 -16q-6 -12 -28.5 -35.5t-61.5 -61t-58 -56.5q-15 -20 -37 -20q-15 0 -29 13zM539 38q-1 -14 -18 -26.5t-39 -14.5q-157 -14 -244 -14q-207 0 -207 60
q0 22 17 55.5t55.5 86t73 96t98.5 121.5t102 127q-94 -4 -132 -4q-56 0 -159 5q-40 3 -40 29q0 4 2 10q6 14 23.5 23.5t37.5 9.5h5q97 -5 147 -5q52 0 209 9h14q42 0 42 -20q0 -6 -3.5 -13t-6.5 -11l-4 -4q-40 -51 -101 -128t-98 -124t-76.5 -99t-62.5 -86t-31 -53
q39 -7 141 -7q121 0 204 8h8q19 0 31 -8.5t12 -21.5v-1z" />
    <glyph glyph-name="uni018F" unicode="&#x18f;" horiz-adv-x="790" 
d="M97 643q-26 9 -26 33q0 10 7 20q39 52 104 87t139 43q22 3 44 3q140 0 234.5 -99.5t99.5 -289.5q16 -3 25.5 -13t9.5 -22q0 -1 -0.5 -3t-0.5 -3q-5 -23 -36 -35q-14 -161 -106 -261t-224 -113q-22 -2 -34 -2q-121 0 -201.5 79t-80.5 208q0 23 4 40q10 41 38.5 69.5t73 43
t91.5 20t107 5.5q15 0 225 -9q-5 85 -28.5 147t-59.5 94.5t-74 47t-79 14.5q-11 0 -29 -2q-97 -13 -148 -81q-18 -24 -55 -24q-11 0 -20 3zM589 362q-164 7 -233 7q-95 0 -140.5 -13t-53.5 -46q-3 -10 -3 -25q0 -105 57.5 -160t132.5 -55q12 0 18 1q35 4 69 21.5t67 50
t56.5 89.5t29.5 130z" />
    <glyph glyph-name="florin" unicode="&#x192;" horiz-adv-x="460" 
d="M44 -227q-3 6 -3 11q0 26 32 37q36 13 61 69q26 56 27 120q2 84 2 123q0 184 -19 390q-41 1 -92 6q-16 1 -26.5 10t-10.5 21q0 3 2 9q5 14 21 23t35 9h5q49 -4 59 -5q-2 15 -5.5 49t-5.5 52q-1 6 -1 18q0 76 65 122q50 37 119 37q82 0 154 -52q11 -8 11 -21
q0 -17 -17 -29q-18 -13 -40 -13q-18 0 -30 9q-47 35 -89 35q-27 0 -44 -13q-31 -23 -31 -66q0 -2 0.5 -5.5t0.5 -5.5q6 -43 13 -120q47 0 123 3h2q18 0 30 -8.5t12 -21.5v-4q-2 -14 -18 -25.5t-36 -12.5q-63 -3 -106 -3q17 -194 17 -376q0 -39 -2 -125q-2 -81 -31 -144
q-40 -87 -121 -117q-11 -4 -24 -4q-30 0 -39 18z" />
    <glyph glyph-name="Ohorn" unicode="&#x1a0;" horiz-adv-x="830" 
d="M661 942q17 14 43 14q11 0 19 -3q31 -12 48.5 -43t17.5 -64q0 -57 -26 -106q-25 -49 -74 -74q1 -2 2.5 -7t2.5 -7q1 -3 1 -8q0 -16 -14 -28q41 -31 61 -94t20 -132q0 -173 -89.5 -284t-230.5 -126q-26 -2 -38 -2q-147 0 -245 110.5t-98 296.5q0 170 77 280t203 144
q47 12 92 12q72 0 132.5 -28t96.5 -78q15 12 22 24q17 31 17 95q0 30 -13 50t-23 23q-15 5 -15 17q0 9 11 18zM588 623q-19 57 -67 88t-105 31q-28 0 -52 -7q-35 -9 -67 -31.5t-62 -61.5t-48 -102t-18 -143q0 -87 24 -155t63 -107t81.5 -58.5t85.5 -19.5q13 0 19 1
q36 4 71 23.5t68 56t53 99t20 141.5q0 55 -21 113.5t-37 67.5q-29 9 -29 32q0 9 5 17q6 9 16 15z" />
    <glyph glyph-name="ohorn" unicode="&#x1a1;" horiz-adv-x="670" 
d="M526 732q17 14 43 14q11 0 19 -3q31 -12 48.5 -43t17.5 -64q0 -57 -26 -106q-26 -50 -77 -75q48 -53 48 -160q0 -131 -68.5 -216.5t-179.5 -97.5q-20 -2 -31 -2q-114 0 -189 85t-75 226q0 130 58.5 214t157.5 110q36 10 73 10q65 0 117.5 -29t76.5 -79q5 6 10 13
q17 31 17 95q0 30 -13 50t-23 23q-15 5 -15 17q0 9 11 18zM451 471q-14 40 -48 60.5t-74 20.5q-17 0 -37 -5q-53 -15 -95.5 -75.5t-42.5 -171.5q0 -65 18 -115t46.5 -78t59 -42t60.5 -14q2 0 6 0.5t6 0.5q56 6 103.5 63.5t47.5 169.5q0 39 -14 81t-26 50q-25 8 -25 28
q0 10 5 16q3 6 10 11z" />
    <glyph glyph-name="Uhorn" unicode="&#x1af;" horiz-adv-x="830" 
d="M550 784q16 16 45 16q16 0 27 -7q42 -24 63 -83q21 14 29 29q17 31 17 95q0 30 -13 50t-23 23q-15 5 -15 17q0 9 11 18q17 14 43 14q11 0 19 -3q31 -12 48.5 -43t17.5 -64q0 -57 -26 -106q-31 -58 -94 -82q2 -15 5 -52q2 -51 8.5 -148t6.5 -133q0 -57 -8 -100
q-19 -110 -96.5 -180.5t-216.5 -70.5q-157 0 -232 84.5t-75 256.5q0 45 5.5 205t5.5 235q0 17 15.5 30t38.5 15h7q20 0 33.5 -10t13.5 -25q0 -76 -5.5 -237t-5.5 -203q0 -154 51 -211.5t162 -57.5q88 0 132.5 40t59.5 129q7 38 7 90q0 4 -10 279q-4 106 -48 133
q-17 10 -17 28q0 16 14 29z" />
    <glyph glyph-name="uhorn" unicode="&#x1b0;" horiz-adv-x="690" 
d="M473 602q15 0 26.5 -5t14.5 -10l4 -5q10 -35 17 -88q29 16 39 35q17 31 17 95q0 30 -13 50t-23 23q-15 5 -15 17q0 9 11 18q17 14 43 14q12 0 19 -3q31 -12 48.5 -43t17.5 -64q0 -57 -26 -106q-36 -69 -113 -88q2 -30 2.5 -79.5t1.5 -66.5q3 -62 14.5 -104.5t37.5 -93.5
q10 -20 49 -53q9 -9 9 -20q0 -19 -20 -31q-16 -10 -35 -10q-21 0 -34 11q-26 23 -48 71q-21 46 -30 74q-60 -161 -209 -161q-97 0 -147 67t-50 184q0 30 0.5 87.5t0.5 84.5q0 109 -6 165v3q0 14 13.5 25.5t32.5 14.5q4 1 10 1q17 0 29 -7.5t13 -20.5q6 -60 6 -170
q0 -27 -0.5 -85t-0.5 -88q0 -100 34 -144.5t79 -44.5t85.5 50t57.5 135q6 30 8 49q8 82 8 132q0 94 -18 133q-3 6 -3 18t13.5 23t29.5 11z" />
    <glyph glyph-name="uni01CD" unicode="&#x1cd;" horiz-adv-x="800" 
d="M364 879q-140 129 -151 151q14 34 39 34q8 0 18 -6q29 -16 131 -96q104 80 129 94q23 10 39 10q14 0 14 -11q0 -4 -5 -16q-6 -12 -28.5 -35.5t-61.5 -61t-58 -56.5q-15 -20 -37 -20q-15 0 -29 13zM227 196q-54 -119 -95 -185q-15 -27 -56 -27q-8 0 -12 1q-30 6 -30 29
q0 8 4 15q33 55 81 156q-5 -1 -17.5 -2.5t-18.5 -2.5q-4 -1 -12 -1q-17 0 -29 8t-14 20v2q0 13 14.5 25t34.5 16q54 8 76 10q110 250 202 514q4 10 5 14q11 32 43 32q12 0 26 -4.5t22 -9.5l8 -4q96 -178 179.5 -392t123.5 -346q0 -2 2 -5.5t2 -5.5q2 -8 2 -12q0 -18 -17 -28
t-39 -10q-36 0 -47 21q-10 20 -22.5 54.5t-21.5 52.5t-26.5 39t-46.5 30t-72 9q-100 0 -249 -13zM260 269q151 12 234 12q43 0 86 -9q-77 204 -164 387q-89 -239 -156 -390z" />
    <glyph glyph-name="uni01CE" unicode="&#x1ce;" horiz-adv-x="675" 
d="M319 699q-140 129 -151 151q14 34 39 34q7 0 18 -6q29 -16 131 -96q104 80 129 94q23 10 39 10q14 0 14 -11q0 -4 -5 -16q-6 -12 -28.5 -35.5t-61.5 -61t-58 -56.5q-15 -20 -37 -20q-15 0 -29 13zM535 360q45 -290 93 -301q26 -6 26 -29q0 -11 -5 -17q-17 -24 -47 -24
q-5 0 -15 2q-35 10 -58 45.5t-43 113.5q-24 -77 -72 -124t-136 -47q-115 0 -169 73t-54 180q0 46 9 88q11 54 35 104.5t61.5 96t95 73t125.5 27.5q39 0 69 -13.5t45.5 -31.5t25 -41.5t11.5 -37.5t2 -25q0 -14 -14.5 -26t-34.5 -14h-7q-18 0 -30 8.5t-12 21.5
q0 24 -20.5 55.5t-48.5 31.5q-68 0 -126 -64t-79 -165q-8 -42 -8 -76q0 -85 38.5 -139t99.5 -54q45 0 79 45t51 130q11 58 14 110q1 12 10 24t22 12q18 0 35 -3t25 -6z" />
    </font>
</defs>
</svg>
