<svg xmlns="http://www.w3.org/2000/svg">
<defs>
<font id="DBGinSiamX-Light" horiz-adv-x="0" >
  <font-face 
    font-family="DB Gin Siam X Light"
    font-weight="300"
    font-stretch="normal"
    units-per-em="4096"
    panose-1="2 0 5 6 0 0 0 2 0 4"
    ascent="3276"
    descent="-820"
    x-height="1517"
    cap-height="2062"
    bbox="-2166 -1133 3220 3259"
    underline-thickness="143"
    underline-position="-687"
    unicode-range="U+0020-F880"
  />
<missing-glyph horiz-adv-x="1526" 
d="M1556 1474v-51h22q26 0 26 33q0 3 -6 10.5t-20 7.5h-22zM1567 1419h-11v-51h-19v125h41q44 0 44 -37q0 -25 -11.5 -31t-25.5 -6l37 -51h-18zM1578 1349q24 0 39.5 7.5t24.5 18.5t13 24t4 24q0 42 -19.5 65t-61.5 23t-63.5 -23t-21.5 -65q0 -31 20 -52.5t65 -21.5z
M1578 1523q47 0 69 -29.5t22 -70.5q0 -15 -5.5 -30.5t-16.5 -27.5t-28 -19.5t-41 -7.5q-22 0 -40 7.5t-30.5 19.5t-19 27.5t-6.5 30.5q0 42 25.5 71t70.5 29zM741 1165q38 -3 87.5 -8.5t102.5 -13.5t106.5 -18t101 -23t85 -27.5t58.5 -31.5q-37 73 -96 130t-131.5 96
t-154 59.5t-163.5 20.5q-62 0 -122.5 -12t-116 -36t-103.5 -60.5t-85 -86.5q66 8 132.5 11t132.5 3q42 0 83 -0.5t83 -2.5zM1382 1456v-524q-88 28 -190 52.5t-214.5 42.5t-233 28.5t-246.5 10.5q-89 0 -175 -6t-172 -17q22 83 70.5 158t122 131.5t170.5 90t216 33.5
q115 0 206.5 -25.5t160.5 -63.5t115.5 -81t69.5 -77q0 -3 0 9.5t-0.5 34t-1 49.5t-1 56.5t-0.5 54v43.5h103zM564 468q0 30 -20 44.5t-43 14.5q-25 0 -44 -14.5t-19 -44.5q0 -31 19 -43t44 -12q23 0 43 12t20 43zM118 512q0 86 33.5 151.5t88.5 109.5t125 66.5t143 22.5
t142 -19.5t121.5 -60.5t84.5 -104.5t32 -150.5v-427h391v744h103v-840h-696v96h107v438q0 55 -21.5 97t-59.5 69.5t-89.5 41.5t-110.5 14q-55 0 -107 -15.5t-92 -45.5t-64 -73.5t-24 -98.5v-395l213 214q-9 4 -22.5 13t-25.5 24t-20.5 36t-8.5 49q0 66 40.5 105t106.5 39
q32 0 58 -11.5t44.5 -31.5t28.5 -46t10 -55q0 -26 -6 -46t-15 -34.5t-18.5 -24.5t-16.5 -17q-4 -4 -21 -20t-42 -40t-56.5 -54.5t-64.5 -62.5q-39 -36 -82 -76.5t-91 -88.5h-118v508z" />
    <glyph glyph-name="plusminus" unicode="&#x2b;&#x2d;" horiz-adv-x="1765" 
d="M184 1370h618v640h162v-640h618v-155h-618v-641h-162v641h-618v155zM184 154h1398v-155h-1398v155z" />
    <glyph glyph-name="ellipsis" unicode="&#x2e;&#x2e;&#x2e;" horiz-adv-x="2268" 
d="M259 134q0 31 12 58.5t32.5 48t48 32.5t58.5 12t58.5 -12t48 -32.5t32.5 -48t12 -58.5t-12 -58.5t-32.5 -48t-48 -32.5t-58.5 -12t-58.5 12t-48 32.5t-32.5 48t-12 58.5zM1707 134q0 31 12 58.5t32.5 48t48 32.5t58.5 12t58.5 -12t48 -32.5t32.5 -48t12 -58.5t-12 -58.5
t-32.5 -48t-48 -32.5t-58.5 -12t-58.5 12t-48 32.5t-32.5 48t-12 58.5zM984 134q0 31 12 58.5t32.5 48t48 32.5t58.5 12t58.5 -12t48 -32.5t32.5 -48t12 -58.5t-12 -58.5t-32.5 -48t-48 -32.5t-58.5 -12t-58.5 12t-48 32.5t-32.5 48t-12 58.5z" />
    <glyph glyph-name="lessequal" unicode="&#x3c;&#x3d;" horiz-adv-x="1759" 
d="M175 1184l1409 630v-180l-1240 -536l1240 -535v-180l-1409 630v171zM184 154h1398v-155h-1398v155z" />
    <glyph glyph-name="greaterequal" unicode="&#x3e;&#x3d;" horiz-adv-x="1759" 
d="M1584 1013l-1409 -630v180l1240 535l-1240 536v180l1409 -630v-171zM1575 -1h-1398v155h1398v-155z" />
    <glyph glyph-name="fongmanfunnuthai" unicode="&#xe4f;&#x22;" horiz-adv-x="1796" 
d="M726 1788h-113l-35 223v364h182v-364zM1184 1788h-113l-35 223v364h182v-364zM45 817q0 118 30.5 227t86 203.5t133.5 172.5t172.5 133.5t203.5 86t227 30.5t227 -30.5t203.5 -86t172.5 -133.5t133.5 -172.5t86 -203.5t30.5 -227t-30.5 -227t-86 -203.5t-133.5 -172.5
t-172.5 -133.5t-203.5 -86t-227 -30.5t-227 30.5t-203.5 86t-172.5 133.5t-133.5 172.5t-86 203.5t-30.5 227zM508 817q0 81 30.5 152t83.5 124t124 83.5t152 30.5t152 -30.5t124 -83.5t83.5 -124t30.5 -152t-30.5 -152t-83.5 -124t-124 -83.5t-152 -30.5t-152 30.5
t-124 83.5t-83.5 124t-30.5 152zM201 816q0 -96 25 -185t70 -166t109 -141t141 -109t166 -70t185 -25t185 25t166 70t141 109t109 141t70 166t25 185t-25 185t-70 166t-109 141t-141 109t-166 70t-185 25t-185 -25t-166 -70t-141 -109t-109 -141t-70 -166t-25 -185zM659 817
q0 -50 19 -93.5t51 -75.5t75.5 -51t93.5 -19q49 0 93 19t76 51t51 75.5t19 93.5q0 49 -19 93t-51 76t-76 51t-93 19q-50 0 -93.5 -19t-75.5 -51t-51 -76t-19 -93z" />
    <glyph glyph-name="dochadaphinthuthai" unicode="&#xe0e;&#xe3a;" horiz-adv-x="1998" 
d="M1657 -479h-254q-68 74 -143.5 103.5t-164.5 29.5q-63 0 -114 -9t-98 -26t-93 -42t-100 -57v158q24 16 63.5 38t91 41t115 32.5t135.5 13.5q41 0 88 -6t98 -23.5t105.5 -49t110.5 -81.5v1403q0 113 -22.5 192.5t-60 132.5t-86 83t-101 45.5t-105 19.5t-97.5 4t-98 -4
t-105.5 -19.5t-101 -45.5t-86 -83t-60 -132.5t-22.5 -192.5v-1046h-409v149h249v954q0 116 25 204t69.5 151t105 104.5t131 66t147.5 34.5t155 10t155 -10t147 -34t130.5 -65.5t105 -105t69.5 -151t25 -204.5v-1582zM1412 -731q0 -29 11 -55t30.5 -45.5t45.5 -30.5t55 -11
q30 0 56 11t45.5 30.5t31 45.5t11.5 55q0 30 -11.5 56t-31 45.5t-45.5 31t-56 11.5q-29 0 -55 -11.5t-45.5 -31t-30.5 -45.5t-11 -56z" />
    <glyph glyph-name="topatakphintuthai" unicode="&#xe0f;&#xe3a;" horiz-adv-x="1998" 
d="M1657 -477h-236q-47 66 -106 102t-151 36q-73 0 -148 -31.5t-141 -107.5l-413 128v149l401 -120q40 42 83.5 67t83.5 38t75 17t59 4q27 0 64.5 -3.5t81 -19t91.5 -47t96 -86.5v1397q0 113 -22.5 192.5t-60 132.5t-86 83t-101 45.5t-105 19.5t-97.5 4t-98 -4t-105.5 -19.5
t-101 -45.5t-86 -83t-60 -132.5t-22.5 -192.5v-1046h-409v149h249v954q0 116 25 204t69.5 151t105 104.5t131 66t147.5 34.5t155 10t155 -10t147 -34t130.5 -65.5t105 -105t69.5 -151t25 -204.5v-1580zM1412 -731q0 -29 11 -55t30.5 -45.5t45.5 -30.5t55 -11q30 0 56 11
t45.5 30.5t31 45.5t11.5 55q0 30 -11.5 56t-31 45.5t-45.5 31t-56 11.5q-29 0 -55 -11.5t-45.5 -31t-30.5 -45.5t-11 -56z" />
    <glyph glyph-name="dochadasarauthai" unicode="&#xe0e;&#xe38;" horiz-adv-x="1998" 
d="M1657 -479h-254q-68 74 -143.5 103.5t-164.5 29.5q-63 0 -114 -9t-98 -26t-93 -42t-100 -57v158q24 16 63.5 38t91 41t115 32.5t135.5 13.5q41 0 88 -6t98 -23.5t105.5 -49t110.5 -81.5v1403q0 113 -22.5 192.5t-60 132.5t-86 83t-101 45.5t-105 19.5t-97.5 4t-98 -4
t-105.5 -19.5t-101 -45.5t-86 -83t-60 -132.5t-22.5 -192.5v-1046h-409v149h249v954q0 116 25 204t69.5 151t105 104.5t131 66t147.5 34.5t155 10t155 -10t147 -34t130.5 -65.5t105 -105t69.5 -151t25 -204.5v-1582zM1292 -647v-140h216v-337h150v477h-366z" />
    <glyph glyph-name="topataksarauthai" unicode="&#xe0f;&#xe38;" horiz-adv-x="1998" 
d="M1657 -477h-236q-47 66 -106 102t-151 36q-73 0 -148 -31.5t-141 -107.5l-413 128v149l401 -120q40 42 83.5 67t83.5 38t75 17t59 4q27 0 64.5 -3.5t81 -19t91.5 -47t96 -86.5v1397q0 113 -22.5 192.5t-60 132.5t-86 83t-101 45.5t-105 19.5t-97.5 4t-98 -4t-105.5 -19.5
t-101 -45.5t-86 -83t-60 -132.5t-22.5 -192.5v-1046h-409v149h249v954q0 116 25 204t69.5 151t105 104.5t131 66t147.5 34.5t155 10t155 -10t147 -34t130.5 -65.5t105 -105t69.5 -151t25 -204.5v-1580zM1292 -647v-140h216v-337h150v477h-366z" />
    <glyph glyph-name="dochadasarauuthai" unicode="&#xe0e;&#xe39;" horiz-adv-x="2002" 
d="M1657 -479h-254q-68 74 -143.5 103.5t-164.5 29.5q-63 0 -114 -9t-98 -26t-93 -42t-100 -57v158q24 16 63.5 38t91 41t115 32.5t135.5 13.5q41 0 88 -6t98 -23.5t105.5 -49t110.5 -81.5v1403q0 113 -22.5 192.5t-60 132.5t-86 83t-101 45.5t-105 19.5t-97.5 4t-98 -4
t-105.5 -19.5t-101 -45.5t-86 -83t-60 -132.5t-22.5 -192.5v-1046h-409v149h249v954q0 116 25 204t69.5 151t105 104.5t131 66t147.5 34.5t155 10t155 -10t147 -34t130.5 -65.5t105 -105t69.5 -151t25 -204.5v-1582zM1044 -787v-72q0 -26 2.5 -55.5t13 -58.5t31 -56.5
t55 -48.5t86 -33.5t123.5 -12.5q71 0 121.5 12.5t84.5 33.5t53.5 48.5t29 56.5t12 59t2.5 55v211h-150v-242q0 -52 -42 -78t-111 -26q-35 0 -64.5 6.5t-51 19.5t-33.5 32.5t-12 45.5v242h-286v-139h136z" />
    <glyph glyph-name="topataksarauuthai" unicode="&#xe0f;&#xe39;" horiz-adv-x="1998" 
d="M1657 -477h-236q-47 66 -106 102t-151 36q-73 0 -148 -31.5t-141 -107.5l-413 128v149l401 -120q40 42 83.5 67t83.5 38t75 17t59 4q27 0 64.5 -3.5t81 -19t91.5 -47t96 -86.5v1397q0 113 -22.5 192.5t-60 132.5t-86 83t-101 45.5t-105 19.5t-97.5 4t-98 -4t-105.5 -19.5
t-101 -45.5t-86 -83t-60 -132.5t-22.5 -192.5v-1046h-409v149h249v954q0 116 25 204t69.5 151t105 104.5t131 66t147.5 34.5t155 10t155 -10t147 -34t130.5 -65.5t105 -105t69.5 -151t25 -204.5v-1580zM1044 -787v-72q0 -26 2.5 -55.5t13 -58.5t31 -56.5t55 -48.5t86 -33.5
t123.5 -12.5q71 0 121.5 12.5t84.5 33.5t53.5 48.5t29 56.5t12 59t2.5 55v211h-150v-242q0 -52 -42 -78t-111 -26q-35 0 -64.5 6.5t-51 19.5t-33.5 32.5t-12 45.5v242h-286v-139h136z" />
    <glyph glyph-name=".notdef" horiz-adv-x="1526" 
d="M1556 1474v-51h22q26 0 26 33q0 3 -6 10.5t-20 7.5h-22zM1567 1419h-11v-51h-19v125h41q44 0 44 -37q0 -25 -11.5 -31t-25.5 -6l37 -51h-18zM1578 1349q24 0 39.5 7.5t24.5 18.5t13 24t4 24q0 42 -19.5 65t-61.5 23t-63.5 -23t-21.5 -65q0 -31 20 -52.5t65 -21.5z
M1578 1523q47 0 69 -29.5t22 -70.5q0 -15 -5.5 -30.5t-16.5 -27.5t-28 -19.5t-41 -7.5q-22 0 -40 7.5t-30.5 19.5t-19 27.5t-6.5 30.5q0 42 25.5 71t70.5 29zM741 1165q38 -3 87.5 -8.5t102.5 -13.5t106.5 -18t101 -23t85 -27.5t58.5 -31.5q-37 73 -96 130t-131.5 96
t-154 59.5t-163.5 20.5q-62 0 -122.5 -12t-116 -36t-103.5 -60.5t-85 -86.5q66 8 132.5 11t132.5 3q42 0 83 -0.5t83 -2.5zM1382 1456v-524q-88 28 -190 52.5t-214.5 42.5t-233 28.5t-246.5 10.5q-89 0 -175 -6t-172 -17q22 83 70.5 158t122 131.5t170.5 90t216 33.5
q115 0 206.5 -25.5t160.5 -63.5t115.5 -81t69.5 -77q0 -3 0 9.5t-0.5 34t-1 49.5t-1 56.5t-0.5 54v43.5h103zM564 468q0 30 -20 44.5t-43 14.5q-25 0 -44 -14.5t-19 -44.5q0 -31 19 -43t44 -12q23 0 43 12t20 43zM118 512q0 86 33.5 151.5t88.5 109.5t125 66.5t143 22.5
t142 -19.5t121.5 -60.5t84.5 -104.5t32 -150.5v-427h391v744h103v-840h-696v96h107v438q0 55 -21.5 97t-59.5 69.5t-89.5 41.5t-110.5 14q-55 0 -107 -15.5t-92 -45.5t-64 -73.5t-24 -98.5v-395l213 214q-9 4 -22.5 13t-25.5 24t-20.5 36t-8.5 49q0 66 40.5 105t106.5 39
q32 0 58 -11.5t44.5 -31.5t28.5 -46t10 -55q0 -26 -6 -46t-15 -34.5t-18.5 -24.5t-16.5 -17q-4 -4 -21 -20t-42 -40t-56.5 -54.5t-64.5 -62.5q-39 -36 -82 -76.5t-91 -88.5h-118v508z" />
    <glyph glyph-name=".null" 
 />
    <glyph glyph-name="nonmarkingreturn" horiz-adv-x="1043" 
 />
    <glyph glyph-name="space" unicode=" " horiz-adv-x="922" 
 />
    <glyph glyph-name="exclam" unicode="!" horiz-adv-x="819" 
d="M409 2038q46 0 68.5 -55t22.5 -160q0 -126 -3 -254.5t-8.5 -253t-12.5 -243t-15.5 -224.5t-18 -197t-19.5 -161q-1 -7 -5 -10.5t-8.5 -3.5t-9 3.5t-5.5 10.5q-10 70 -19.5 161t-18 197t-16 224.5t-12.5 243t-8 253t-3 254.5q0 105 22.5 160t68.5 55zM259 134
q0 -31 12 -58.5t32.5 -48t48 -32.5t58.5 -12t58.5 12t48 32.5t32.5 48t12 58.5t-12 58.5t-32.5 48t-48 32.5t-58.5 12t-58.5 -12t-48 -32.5t-32.5 -48t-12 -58.5z" />
    <glyph glyph-name="quotedbl" unicode="&#x22;" horiz-adv-x="1448" 
d="M434 2111h162v-308l-57 -340h-48l-57 341v307zM852 2111h162v-308l-57 -340h-48l-57 341v307z" />
    <glyph glyph-name="numbersign" unicode="#" horiz-adv-x="1847" 
d="M96 722h329l117 553h-446v147h477l136 638h146l-135 -638h622l136 638h146l-135 -638h263v-147h-294l-117 -553h411v-147h-442l-140 -663h-147l140 663h-622l-140 -663h-147l140 663h-298v147zM572 722h622l117 553h-622z" />
    <glyph glyph-name="dollar" unicode="$" horiz-adv-x="1638" 
d="M750 -33q-100 3 -180.5 18t-144.5 37t-111.5 48.5t-81.5 50.5v182q53 -49 119 -85.5t135.5 -61t138 -38t125.5 -15.5v848l-28 10t-29 10q-106 36 -196.5 82t-156.5 110t-103.5 149t-37.5 200q0 104 40.5 187.5t113.5 143.5t174 94.5t223 42.5v187h126v-187
q132 -6 242.5 -35.5t209.5 -75.5v-143q-129 61 -239 89t-213 32v-792q65 -25 131.5 -52.5t127 -61t113.5 -76t92 -96.5t61 -123t22 -155q0 -111 -39.5 -202t-111.5 -158.5t-172.5 -108.5t-223.5 -52v-289h-126v286zM1265 468q0 69 -17 127.5t-60.5 110t-119 99.5t-192.5 97
v-793q93 12 165.5 45.5t122 81.5t75.5 107.5t26 124.5zM688 1128q15 -7 30.5 -13t31.5 -13v742q-91 -8 -162.5 -32.5t-121.5 -65t-76.5 -96t-26.5 -125.5q0 -65 15 -115.5t40 -90t58 -69t69 -52t73 -39.5t70 -31z" />
    <glyph glyph-name="percent" unicode="%" horiz-adv-x="2173" 
d="M467 -25h-178l1460 2114h170zM164 1674q0 85 32 159t87.5 129.5t129.5 87.5t159 32t159 -32t129.5 -87.5t87.5 -129.5t32 -159t-32 -159t-87.5 -129.5t-129.5 -87.5t-159 -32t-159 32t-129.5 87.5t-87.5 129.5t-32 159zM293 1673q0 -57 21.5 -107.5t59 -88t88 -59
t107.5 -21.5q58 0 108.5 21.5t88 59t59 88t21.5 107.5t-21.5 107.5t-59 88t-88 59.5t-108.5 22q-57 0 -107.5 -22t-88 -59.5t-59 -88t-21.5 -107.5zM1203 382q0 85 32 159t87.5 129.5t129.5 87.5t159 32t159 -32t129.5 -87.5t87.5 -129.5t32 -159t-32 -159t-87.5 -129.5
t-129.5 -87.5t-159 -32t-159 32t-129.5 87.5t-87.5 129.5t-32 159zM1332 381q0 -57 21.5 -107.5t59 -88t88 -59t107.5 -21.5q58 0 108.5 21.5t88 59t59 88t21.5 107.5t-21.5 107.5t-59 88t-88 59.5t-108.5 22q-57 0 -107.5 -22t-88 -59.5t-59 -88t-21.5 -107.5z" />
    <glyph glyph-name="ampersand" unicode="&#x26;" horiz-adv-x="2267" 
d="M1571 421q41 40 85 92.5t85 112.5t75.5 125.5t56.5 131.5l171 2q-25 -61 -60 -132t-81.5 -145.5t-105 -149.5t-131.5 -144q69 -77 142 -155t149 -159h-223l-188 213q-110 -84 -212 -130.5t-199 -69t-189.5 -27t-183.5 -4.5q-113 0 -206.5 37.5t-160.5 100.5t-103.5 144.5
t-36.5 170.5q0 115 41 205t114 167t173.5 148.5t219.5 148.5q-45 61 -89.5 126t-79.5 134t-56.5 141.5t-21.5 148.5q0 95 34 174t96.5 135.5t151 88t198.5 31.5q129 0 218.5 -34t146 -87.5t82 -120t26.5 -130.5q0 -34 -2.5 -70.5t-16 -78.5t-43 -92t-84 -109.5t-138.5 -131
t-206 -156.5q110 -137 248.5 -301.5t303.5 -350.5zM894 989q-89 -59 -175 -118.5t-153 -124.5t-108 -139t-41 -162q0 -90 38 -152.5t98.5 -101t135 -56t146.5 -17.5q60 0 128.5 6.5t145 28t162 62t180.5 107.5q-69 79 -136 157.5t-135 159.5t-138.5 167.5t-147.5 182.5z
M1369 1696q-1 50 -21 96.5t-60.5 82.5t-102 57.5t-145.5 21.5q-73 0 -133.5 -20.5t-104.5 -59.5t-68.5 -94t-24.5 -124q0 -59 15 -115t43.5 -112.5t69.5 -116.5t92 -126q144 96 231 170.5t134 134.5t61.5 109.5t13.5 95.5z" />
    <glyph glyph-name="quotesingle" unicode="'" horiz-adv-x="725" 
d="M281 2111h162v-308l-57 -340h-48l-57 341v307z" />
    <glyph glyph-name="parenleft" unicode="(" horiz-adv-x="1038" 
d="M240 940q0 238 38.5 461t111.5 425t178.5 380t238.5 327h126q-143 -176 -244 -365t-165 -389t-93.5 -410t-29.5 -428q0 -214 30.5 -426.5t96 -417.5t167.5 -398.5t245 -369.5h-126q-133 149 -239.5 328t-180.5 383t-114 430.5t-40 469.5z" />
    <glyph glyph-name="parenright" unicode=")" horiz-adv-x="1038" 
d="M798 940q0 -243 -40 -469.5t-114 -430.5t-180.5 -383t-239.5 -328h-126q143 176 245 369.5t167.5 398.5t96 417.5t30.5 426.5q0 218 -29.5 428t-93.5 410t-165 389t-244 365h126q133 -149 238.5 -327t178.5 -380t111.5 -425t38.5 -461z" />
    <glyph glyph-name="asterisk" unicode="*" horiz-adv-x="1417" 
d="M630 1559l-406 91q-37 13 -37 47q0 11 3.5 23t8.5 22l54 109q10 22 22 35.5t26 13.5h10t8.5 -2t11.5 -7t18 -16l288 -292q11 11 26 21t34 18l-121 384q-3 9 -5 17.5t-2 14.5q0 41 71 41h133q73 0 73 -40q0 -5 -2 -14t-4 -19l-119 -384q18 -8 33 -17.5t26 -20.5l289 294
q10 9 15.5 13.5t9 6t6.5 1.5h8q11 0 18 -8t20 -31l68 -119q6 -11 9.5 -18.5t5 -12.5t1.5 -10v-11q0 -14 -10.5 -24t-27.5 -15l-404 -91v-36l404 -89h-1q17 -5 26 -16.5t9 -26.5q0 -14 -6 -31.5t-15 -34.5l-45 -78q-17 -30 -30.5 -47t-24.5 -17q-17 0 -40 24l-286 294
q-11 -12 -25.5 -22t-32.5 -17l119 -384q6 -20 6 -31q0 -22 -17 -32.5t-47 -10.5h-142q-31 0 -51 8.5t-20 31.5q0 7 2 16t5 18l121 385q-40 16 -60 39l-282 -288q-18 -16 -27.5 -20.5t-20.5 -4.5q-14 0 -25 11t-24 34l-53 100q-18 30 -18 55q0 15 10 27.5t27 17.5l406 90v35z
" />
    <glyph glyph-name="plus" unicode="+" horiz-adv-x="1765" 
d="M184 1110h618v640h162v-640h618v-155h-618v-641h-162v641h-618v155z" />
    <glyph glyph-name="comma" unicode="," horiz-adv-x="819" 
d="M257 107q0 33 11.5 59t31 45t45 29t53.5 10q36 0 66.5 -15.5t52 -43.5t33.5 -66t12 -84q0 -71 -21.5 -132t-59 -108.5t-88 -80t-108.5 -47.5v67q60 25 86 62t26 74q0 29 -6.5 54t-20.5 42q-22 6 -42.5 17.5t-36 28t-25 39t-9.5 50.5z" />
    <glyph glyph-name="hyphen" unicode="-" horiz-adv-x="1261" 
d="M183 1115h895v-164h-895v164z" />
    <glyph glyph-name="period" unicode="." horiz-adv-x="819" 
d="M259 134q0 31 12 58.5t32.5 48t48 32.5t58.5 12t58.5 -12t48 -32.5t32.5 -48t12 -58.5t-12 -58.5t-32.5 -48t-48 -32.5t-58.5 -12t-58.5 12t-48 32.5t-32.5 48t-12 58.5z" />
    <glyph glyph-name="slash" unicode="/" horiz-adv-x="850" 
d="M615 2091h151l-532 -2119h-151z" />
    <glyph glyph-name="zero" unicode="0" horiz-adv-x="1711" 
d="M855 -21q-161 0 -289 75t-217 210t-137 322t-48 412q0 250 55 439t149.5 315.5t220 190.5t266.5 64t266.5 -64t219 -190.5t148.5 -315.5t55 -439q0 -225 -47.5 -412t-136.5 -322t-217 -210t-288 -75zM855 120q109 0 205.5 58.5t167.5 171.5t112.5 277t41.5 376
q0 120 -16 230t-46.5 206t-75.5 174t-103.5 134t-130.5 86.5t-155 30.5q-84 0 -155.5 -30.5t-130 -86.5t-103.5 -134t-75.5 -174t-46.5 -206t-16 -230q0 -212 41.5 -376t112.5 -277t167 -171.5t206 -58.5z" />
    <glyph glyph-name="one" unicode="1" horiz-adv-x="1711" 
d="M933 1h-155v1983h155v-1983z" />
    <glyph glyph-name="two" unicode="2" horiz-adv-x="1711" 
d="M1480 0h-1198l1 47q66 71 140 147.5t147.5 154.5t142.5 155.5t125 150.5q92 119 157.5 213t110.5 169t72 133.5t41 107t18.5 89.5t4.5 81q0 106 -32.5 184.5t-91 131t-138.5 78.5t-176 26q-54 0 -115.5 -10t-123.5 -30t-122.5 -50.5t-114.5 -71.5v155q72 44 136.5 73
t125.5 46t122 24t126 7q115 0 218 -37t180 -107.5t122 -173t45 -234.5q0 -59 -7 -118t-30 -127.5t-65.5 -150.5t-113.5 -185.5t-174 -233t-246 -293.5q-42 -47 -87 -97t-93 -104h893v-150z" />
    <glyph glyph-name="three" unicode="3" horiz-adv-x="1711" 
d="M762 1096q97 0 178.5 34.5t140 92.5t91 135t32.5 161q0 71 -21 135t-67.5 112t-121 76.5t-180.5 28.5q-83 0 -193 -21.5t-233 -76.5v143q31 15 82 31.5t111.5 30.5t125.5 23t124 9q143 0 241 -38t159 -103t89 -152t32 -185q2 -50 -7.5 -117t-41 -135.5t-90 -131
t-154.5 -104.5v-4q97 -20 163.5 -71.5t107.5 -120.5t59 -148t18 -152q0 -127 -42 -231.5t-124 -179.5t-202.5 -116t-277.5 -41q-47 0 -101 6t-110.5 18t-111.5 30.5t-104 43.5v168q38 -22 86.5 -44t104 -39t116.5 -28t123 -11q113 0 201.5 32t150 88t94 133.5t32.5 167.5
q0 102 -34 179t-96.5 128.5t-151 77.5t-198.5 26v140z" />
    <glyph glyph-name="four" unicode="4" horiz-adv-x="1710" 
d="M1300 676h197v-141h-197v-536h-153v536h-945v179l1041 1271h57v-1309zM356 676h791v965z" />
    <glyph glyph-name="five" unicode="5" horiz-adv-x="1711" 
d="M1330 1834h-716v-695q57 7 116.5 11t122.5 1q151 -7 257 -57t172 -129t96 -180.5t30 -212.5q0 -132 -50 -241t-137 -187t-204.5 -121t-252.5 -43q-113 0 -219.5 15.5t-189.5 48.5v147q51 -18 98.5 -30.5t97 -20t102 -11t112.5 -3.5q43 0 95.5 10t106 31.5t104.5 56t90 84
t63 114.5t24 147q0 61 -11.5 119t-37.5 109t-69 93.5t-106 72.5t-147.5 45t-194.5 11q-56 -2 -108.5 -6t-106.5 -11v982h863v-150z" />
    <glyph glyph-name="six" unicode="6" horiz-adv-x="1711" 
d="M411 577q0 -98 34.5 -181t94.5 -144.5t142 -96t178 -34.5t178 34.5t142 96t94.5 144.5t34.5 181q0 97 -29 181.5t-85.5 146.5t-140.5 97.5t-194 35.5q-96 0 -178 -34t-142 -95t-94.5 -146t-34.5 -186zM255 580q0 112 23.5 210.5t64.5 193.5t98 191t123 204l372 606h183
l-573 -919q64 54 150.5 85t179.5 31q141 0 251.5 -46t186.5 -127t116 -191t40 -238t-46.5 -238t-128 -190.5t-193 -126.5t-240.5 -46t-240 46t-192.5 126.5t-128 190.5t-46.5 238z" />
    <glyph glyph-name="seven" unicode="7" horiz-adv-x="1711" 
d="M1263 1835l-945 1v149h1184l-879 -1985h-175z" />
    <glyph glyph-name="eight" unicode="8" horiz-adv-x="1711" 
d="M855 1871q-81 0 -152 -24t-123.5 -70.5t-83 -115.5t-30.5 -160q0 -88 30.5 -160t83.5 -123t124 -79t151 -28t151 28t123.5 79t83 123t30.5 160q0 91 -30.5 160t-83 115.5t-123 70.5t-151.5 24zM855 957q-86 0 -167.5 -27.5t-145 -82t-102.5 -134.5t-39 -185
q0 -107 39.5 -184t103.5 -127t145.5 -73.5t165.5 -23.5t165.5 23.5t145 73.5t103 127t39.5 184q0 105 -38.5 185t-102.5 134.5t-145.5 82t-166.5 27.5zM854 2011q123 0 224 -38t173 -104.5t111.5 -156.5t39.5 -193q0 -62 -13.5 -131.5t-50.5 -135t-102 -121t-168 -87.5
q111 -29 187.5 -86t124 -129.5t69 -153t21.5 -155.5q0 -112 -40 -210t-117.5 -171.5t-192.5 -116t-265 -42.5t-265 42.5t-193 116t-118 171.5t-40 210q0 75 21.5 155.5t69 153t124 129.5t187.5 86q-103 32 -168 87.5t-102 121t-50.5 135t-13.5 131.5q0 103 39.5 193
t111.5 156.5t172.5 104.5t223.5 38z" />
    <glyph glyph-name="nine" unicode="9" horiz-adv-x="1711" 
d="M1314 1407q0 97 -34.5 180.5t-94.5 145t-142 96t-178 34.5t-178 -34.5t-142 -96t-94.5 -145t-34.5 -180.5q0 -98 29 -182t85.5 -146t140.5 -97.5t194 -35.5q96 0 178 34t142 95t94.5 146t34.5 186zM1470 1404q0 -113 -23.5 -211t-64.5 -193t-98 -191t-123 -204l-372 -606
h-183l573 919q-64 -54 -150.5 -85t-179.5 -31q-141 0 -251.5 46t-186.5 127t-116 191t-40 238t46.5 238t128 190.5t193 126.5t240.5 46t240 -46t192.5 -126.5t128 -190.5t46.5 -238z" />
    <glyph glyph-name="colon" unicode=":" horiz-adv-x="819" 
d="M259 1346q0 31 12 58.5t32.5 48t48 32.5t58.5 12t58.5 -12t48 -32.5t32.5 -48t12 -58.5t-12 -58.5t-32.5 -48t-48 -32.5t-58.5 -12t-58.5 12t-48 32.5t-32.5 48t-12 58.5zM259 134q0 31 12 58.5t32.5 48t48 32.5t58.5 12t58.5 -12t48 -32.5t32.5 -48t12 -58.5t-12 -58.5
t-32.5 -48t-48 -32.5t-58.5 -12t-58.5 12t-48 32.5t-32.5 48t-12 58.5z" />
    <glyph glyph-name="semicolon" unicode=";" horiz-adv-x="819" 
d="M257 127q0 33 11.5 59t31 45t45 29t53.5 10q36 0 66.5 -15.5t52 -43.5t33.5 -66t12 -84q0 -71 -21.5 -132t-59 -108.5t-88 -80t-108.5 -47.5v67q60 25 86 62t26 74q0 29 -6.5 54t-20.5 42q-22 6 -42.5 17.5t-36 28t-25 39t-9.5 50.5zM259 1346q0 31 12 58.5t32.5 48
t48 32.5t58.5 12t58.5 -12t48 -32.5t32.5 -48t12 -58.5t-12 -58.5t-32.5 -48t-48 -32.5t-58.5 -12t-58.5 12t-48 32.5t-32.5 48t-12 58.5z" />
    <glyph glyph-name="less" unicode="&#x3c;" horiz-adv-x="1765" 
d="M181 1131l1409 630v-180l-1240 -536l1240 -535v-180l-1409 630v171z" />
    <glyph glyph-name="equal" unicode="=" horiz-adv-x="1765" 
d="M185 1368h1399v-152h-1399v152zM185 868h1399v-152h-1399v152z" />
    <glyph glyph-name="greater" unicode="&#x3e;" horiz-adv-x="1765" 
d="M1584 960l-1409 -630v180l1240 535l-1240 536v180l1409 -630v-171z" />
    <glyph glyph-name="question" unicode="?" horiz-adv-x="1134" 
d="M213 1962q42 19 83.5 36.5t86.5 31t94.5 22t106.5 8.5q85 0 158 -24.5t125.5 -71.5t81.5 -116.5t26 -159.5q-2 -57 -20.5 -114t-48.5 -111.5t-68.5 -106.5t-80.5 -98q-33 -37 -62 -69t-54 -62.5t-45 -61t-36 -63.5q-31 -65 -37.5 -128.5t-6.5 -117.5q0 -26 6.5 -68.5
t11.5 -86.5q-2 -8 -11.5 -20t-33.5 -12q-19 0 -27.5 12t-11.5 20q-8 21 -16.5 46t-16 53.5t-12.5 59.5t-5 63q0 52 4.5 93t15 78t27.5 74t43 82q49 76 103.5 146t100.5 136t76 130.5t30 129.5q0 54 -20.5 95.5t-54 69.5t-77.5 42t-90 14q-85 0 -169 -24.5t-176 -74.5v148z
M363 134q0 -31 12 -58.5t32.5 -48t48 -32.5t58.5 -12t58.5 12t48 32.5t32.5 48t12 58.5t-12 58.5t-32.5 48t-48 32.5t-58.5 12t-58.5 -12t-48 -32.5t-32.5 -48t-12 -58.5z" />
    <glyph glyph-name="at" unicode="@" horiz-adv-x="2959" 
d="M1298 601q78 6 135.5 35.5t99.5 73t70.5 97.5t48.5 110t33.5 110l24.5 98q30 115 23.5 215t-40.5 173.5t-90.5 115.5t-128.5 42q-98 0 -173.5 -41t-132 -113.5t-96.5 -171.5t-68 -214q-13 -56 -17.5 -117.5t2.5 -121.5t27.5 -114t58 -94t92.5 -63t131 -20zM1563 2229
q-143 0 -280 -41t-260.5 -116t-227.5 -180.5t-179.5 -234.5t-118 -278t-42.5 -311q0 -200 48.5 -356.5t130.5 -274.5t189.5 -200t226 -133.5t240 -75t230.5 -23.5q156 0 294 26.5t255.5 75.5t213.5 119t167 157h215q-75 -106 -187 -201.5t-256.5 -168t-319.5 -115
t-375 -42.5q-108 0 -218 17t-217.5 52t-208.5 88.5t-190 127t-163.5 167t-128 208.5t-83 252t-29.5 297q0 183 45 351.5t127.5 314t198.5 264.5t258 203.5t306.5 130.5t342.5 46q250 0 452 -70.5t344 -200.5t218.5 -315t76.5 -414q0 -128 -27.5 -245.5t-77.5 -219.5
t-121 -185t-158 -142t-188 -91.5t-211 -32.5q-42 0 -77.5 9t-63.5 32t-47 63t-29 102q-51 -58 -104 -97.5t-106 -63.5t-103 -34.5t-95 -10.5q-92 0 -163 27t-122 75t-83.5 112.5t-48.5 140t-15 157.5t16 165q27 149 83.5 271.5t138.5 209.5t189.5 134.5t236.5 47.5
q19 0 46.5 -3t58 -12t62.5 -25.5t61 -42.5t52.5 -64t37.5 -89l38 203h168l-199 -946q-16 -74 -9 -121t30 -72t58.5 -31.5t76.5 0.5t84.5 24t82.5 39q73 41 140.5 105.5t119 153.5t82.5 202.5t31 251.5q0 102 -21 205.5t-67.5 198.5t-120 178t-178 144t-242 96t-311.5 35z
" />
    <glyph glyph-name="A" unicode="A" horiz-adv-x="2202" 
d="M87 0l930 2062h170l930 -2062h-193l-218 492h-1208l-218 -492h-193zM1102 1855l-544 -1227h1087z" />
    <glyph glyph-name="B" unicode="B" horiz-adv-x="1876" 
d="M972 2062q148 0 252 -41t170 -110.5t96.5 -160.5t30.5 -191q0 -55 -13.5 -116t-47 -119.5t-90 -111.5t-143.5 -93v-1q122 -26 209 -81.5t142 -129.5t80.5 -161.5t25.5 -176.5q0 -50 -10 -111.5t-36 -124.5t-70 -123t-111.5 -106.5t-161.5 -75t-219 -28.5l-787 -1v2063
h683zM451 1168h451q87 0 155 18.5t118.5 48.5t86 68.5t57 79t31.5 80t10 70.5q0 73 -21 144t-71 126.5t-134 89.5t-211 34h-472v-759zM451 135h482q113 0 198.5 17.5t148 48.5t104 73.5t66 91t34.5 101.5t10 106q0 116 -40 202.5t-110.5 143.5t-167 85t-209.5 28h-516v-897z
" />
    <glyph glyph-name="C" unicode="C" horiz-adv-x="2036" 
d="M1834 97q-140 -73 -293 -102.5t-333 -29.5q-179 0 -324.5 44t-258.5 120t-195.5 178.5t-136 220t-79 243.5t-25.5 250q0 139 29.5 273t88 253.5t146.5 221t205.5 175t265 114.5t324.5 41q161 0 301.5 -26t258.5 -81v-168q-113 59 -248.5 90t-291.5 31q-152 0 -277.5 -33
t-225 -93t-174 -144t-123.5 -186t-73.5 -218t-24.5 -241q0 -128 25 -245.5t75 -219t124 -185t171.5 -142.5t218.5 -91.5t264 -32.5q85 0 168 13t158.5 34.5t141.5 49t118 55.5v-169z" />
    <glyph glyph-name="D" unicode="D" horiz-adv-x="2265" 
d="M1065 2061q170 0 311 -39.5t253 -109.5t195 -167t138.5 -212t83 -244t27.5 -263q0 -140 -27 -271t-83.5 -245t-143 -208t-205 -161.5t-271 -104.5t-339.5 -37h-713v2062h774zM453 135h548q176 0 310.5 39t233.5 106t165 155.5t106 188t56.5 203.5t16.5 202
q0 114 -20 224.5t-64.5 210t-114 184.5t-169 146.5t-230.5 96.5t-297 35h-541v-1791z" />
    <glyph glyph-name="E" unicode="E" horiz-adv-x="1684" 
d="M1514 0h-1223v2062h1200v-136h-1037v-805h989v-135h-989v-852h1060v-134z" />
    <glyph glyph-name="F" unicode="F" horiz-adv-x="1611" 
d="M291 0v2062h1130v-136h-967v-805h907v-135h-907v-986h-163z" />
    <glyph glyph-name="G" unicode="G" horiz-adv-x="2190" 
d="M1952 1802q-161 79 -322 110.5t-332 31.5q-170 0 -305.5 -39.5t-238.5 -108t-176 -161t-119 -199t-67.5 -222t-21.5 -229.5q0 -124 29 -237t84 -209.5t134.5 -175t181.5 -134t224.5 -85.5t262.5 -30q103 0 188.5 10t153.5 27t120 40t87 49v577h-411v135h573v-797
q-82 -52 -163.5 -88t-168.5 -58.5t-182.5 -32.5t-205.5 -10q-162 0 -305 35t-263.5 99.5t-216 157t-162 208t-101.5 251t-35 287.5q0 160 34 303t99 265t160 219.5t216.5 166t268.5 105t317 36.5q91 0 183.5 -10t179.5 -27.5t164 -42.5t136 -55v-162z" />
    <glyph glyph-name="H" unicode="H" horiz-adv-x="2346" 
d="M2054 0h-162v993h-1439v-993h-162v2062h162v-933h1439v933h162v-2062z" />
    <glyph glyph-name="I" unicode="I" horiz-adv-x="868" 
d="M515 1h-162v2061h162v-2061z" />
    <glyph glyph-name="J" unicode="J" horiz-adv-x="895" 
d="M564 118q0 -90 -8 -171t-26.5 -151t-49.5 -128t-76 -102q-35 -35 -75 -62t-88 -46t-105 -29.5t-126 -12.5v139q119 8 195.5 49.5t120 112.5t60 169.5t16.5 221.5v1955h162v-1945z" />
    <glyph glyph-name="K" unicode="K" horiz-adv-x="1942" 
d="M453 1060v-1059h-162v2061h162v-1002l993 1002h239l-1009 -999l1186 -1062h-255z" />
    <glyph glyph-name="L" unicode="L" horiz-adv-x="1628" 
d="M1528 0h-1238v2062h162v-1927h1076v-135z" />
    <glyph glyph-name="M" unicode="M" horiz-adv-x="2534" 
d="M2061 2062h182v-2062h-162v1841h-12l-803 -893l-803 893h-11v-1841h-162v2062h184l792 -892z" />
    <glyph glyph-name="N" unicode="N" horiz-adv-x="2391" 
d="M463 1851h-10v-1851h-163v2062h205l1433 -1851h10v1851h163v-2062h-205z" />
    <glyph glyph-name="O" unicode="O" horiz-adv-x="2421" 
d="M2261 1032q0 -136 -31.5 -268t-93 -250.5t-151 -219t-206 -173.5t-259 -114t-308.5 -41q-169 0 -313 41.5t-261 114.5t-206.5 173.5t-149.5 219t-91 250t-31 267.5q0 129 29.5 258.5t88.5 248t147 220.5t204.5 177.5t262.5 118.5t320 43t319.5 -43.5t262 -119t204 -178
t146 -221t88 -247.5t29.5 -257zM2089 1032q0 132 -29.5 251.5t-84 221.5t-132.5 184t-175.5 140t-212.5 89t-243 31q-129 0 -244.5 -31t-213.5 -89t-176 -140t-132.5 -184t-84 -221.5t-29.5 -251.5t29.5 -251.5t84 -221.5t132.5 -184t176 -140t213.5 -89t244.5 -31
q128 0 243 31t212.5 89t175.5 140t132.5 184t84 221t29.5 252z" />
    <glyph glyph-name="P" unicode="P" horiz-adv-x="1801" 
d="M989 2062q118 0 210 -22t161 -60.5t117 -91.5t77.5 -114t42.5 -127.5t13 -133.5q0 -61 -12.5 -125t-40.5 -125t-72.5 -115.5t-107.5 -95.5t-147 -65t-190 -24h-586v-963h-163v2062h698zM454 1099h476q107 0 187 17.5t138 47t95 70t59 86t30.5 94.5t8.5 96q0 49 -6.5 99
t-26.5 96.5t-56 86.5t-94.5 70t-143 47t-200.5 17h-467v-827z" />
    <glyph glyph-name="Q" unicode="Q" horiz-adv-x="2422" 
d="M2089 1032q0 132 -29.5 251.5t-84 221.5t-132.5 184t-175.5 140t-212.5 89t-243 31q-129 0 -244.5 -31t-213.5 -89t-176 -140t-132.5 -184t-84 -221.5t-29.5 -251.5t29.5 -251.5t84 -221.5t132.5 -184t176 -140t213.5 -89t244.5 -31q128 0 243 31t212.5 89t175.5 140
t132.5 184t84 221t29.5 252zM2261 1032q0 -128 -28 -252.5t-82 -237.5t-134 -211t-183.5 -173t-230 -123.5t-274.5 -62.5q90 -65 192 -123t210 -103.5t218 -74.5t215 -35l-127 -125q-116 17 -239.5 59t-249 103t-248.5 138t-238 164q-146 18 -269.5 68.5t-223.5 126
t-176.5 173t-128 209t-78 233.5t-26.5 247q0 129 29.5 258.5t88.5 248t147 220.5t204.5 177.5t262.5 118.5t320 43t319.5 -43.5t262 -119t204 -178t146 -221t88 -247.5t29.5 -257z" />
    <glyph glyph-name="R" unicode="R" horiz-adv-x="1931" 
d="M454 1099h476q107 0 187 17.5t138 47t95 70t59 86t30.5 94.5t8.5 96q0 49 -6.5 99t-26.5 96.5t-56 86.5t-94.5 70t-143 47t-200.5 17h-467v-827zM989 2062q118 0 210 -22t161 -60.5t117 -91.5t77.5 -114t42.5 -127.5t13 -133.5q0 -57 -11 -117.5t-35.5 -118.5
t-63.5 -110.5t-94 -94.5t-128 -70t-165 -36q68 -23 127.5 -69t110.5 -105.5t92.5 -125.5t74.5 -129l278 -537h-189l-244 481q-16 30 -42.5 77.5t-66 101t-93 107.5t-123 97.5t-155 71t-189.5 27.5h-240v-963h-163v2062h698z" />
    <glyph glyph-name="S" unicode="S" horiz-adv-x="1678" 
d="M1381 1824q-68 33 -137.5 56.5t-137 38t-132.5 21.5t-123 7q-104 0 -190.5 -23t-149 -67t-97.5 -108.5t-35 -146.5q0 -94 29.5 -160t76 -112t103 -75t110.5 -50q85 -33 176.5 -64t179 -68.5t165 -85t136 -113t92.5 -153t34 -204.5q0 -126 -48.5 -228t-136.5 -174
t-210.5 -110.5t-270.5 -38.5q-114 0 -205.5 15.5t-163 39t-125 52.5t-90.5 56v163q70 -53 142 -89.5t144 -58.5t143 -31.5t140 -9.5q123 0 217 32t157.5 86t96.5 124.5t33 147.5q0 52 -7.5 99t-28 91t-58.5 85t-98.5 81.5t-147.5 80t-206 80.5q-118 40 -220.5 90.5
t-178.5 118.5t-119.5 158.5t-43.5 211.5q0 116 48 207.5t133.5 155t204 97t258.5 33.5q161 0 296 -29.5t245 -89.5v-139z" />
    <glyph glyph-name="T" unicode="T" horiz-adv-x="1907" 
d="M1807 1926h-772v-1926h-163v1926h-772v136h1707v-136z" />
    <glyph glyph-name="U" unicode="U" horiz-adv-x="2352" 
d="M1178 -42q-131 0 -247.5 19.5t-215 61.5t-177 108t-133.5 159t-84 214.5t-29 274.5v1267h162v-1263q0 -182 49.5 -313t142.5 -215t227 -124t304 -40t304.5 40t227.5 124t142.5 215t49.5 313v1263h162v-1267q0 -230 -64.5 -389t-181.5 -259t-280 -144.5t-359 -44.5z" />
    <glyph glyph-name="V" unicode="V" horiz-adv-x="1932" 
d="M1006 -19h-38l-886 2081h187l706 -1720h14l681 1720h180z" />
    <glyph glyph-name="W" unicode="W" horiz-adv-x="3301" 
d="M902 -14h-49l-771 2076h186l620 -1721l705 1721h111l716 -1720l614 1720h186l-770 -2076h-48l-753 1812z" />
    <glyph glyph-name="X" unicode="X" horiz-adv-x="1974" 
d="M987 961l-710 -961h-227l836 1077l-757 985h215l643 -880l643 880h215l-757 -985l836 -1077h-227z" />
    <glyph glyph-name="Y" unicode="Y" horiz-adv-x="1762" 
d="M802 934l-752 1129h205l627 -992l637 992h193l-748 -1129v-934h-162v934z" />
    <glyph glyph-name="Z" unicode="Z" horiz-adv-x="1830" 
d="M377 135h1326v-134h-1625l1394 1925h-1286v135h1574z" />
    <glyph glyph-name="bracketleft" unicode="[" horiz-adv-x="1279" 
d="M1160 -665h-775v3199h775v-159h-619v-2880h619v-160z" />
    <glyph glyph-name="backslash" unicode="\" horiz-adv-x="850" 
d="M767 -28h-151l-532 2119h151z" />
    <glyph glyph-name="bracketright" unicode="]" horiz-adv-x="1279" 
d="M119 -505h619v2880h-619v159h775v-3199h-775v160z" />
    <glyph glyph-name="asciicircum" unicode="^" horiz-adv-x="1765" 
d="M1518 945h-191l-424 910l-424 -910h-191l546 1117h138z" />
    <glyph glyph-name="underscore" unicode="_" horiz-adv-x="1511" 
d="M1532 -332v-114h-1553v114h1553z" />
    <glyph glyph-name="grave" unicode="`" horiz-adv-x="909" 
d="M426 2044l209 -417h-114l-364 417h269z" />
    <glyph glyph-name="a" unicode="a" horiz-adv-x="1610" 
d="M1499 43q-67 -41 -113.5 -52t-76.5 -11q-70 0 -113 36t-53 102q-69 -52 -140.5 -80t-131 -41t-100 -15t-48.5 -2q-116 0 -201.5 30.5t-142 81.5t-84 118t-27.5 141q0 103 40 181t105.5 136.5t147.5 99.5t166 70q16 6 42.5 14.5t58.5 18t67 20.5t69 21q80 24 171 50v75
q0 83 -21.5 151t-67 116t-115.5 74.5t-166 26.5q-106 0 -214.5 -42.5t-219.5 -117.5v139q39 30 90 57.5t110 48.5t124.5 33.5t133.5 12.5q100 0 189.5 -27t157 -82t107.5 -139.5t40 -199.5v-865q0 -51 8 -77.5t20.5 -38t28 -12t29.5 -0.5q9 0 24 3t33.5 8t37.5 12t35 16v-91
zM1135 820q-30 -7 -63 -16l-63 -18t-69 -22q-51 -18 -108.5 -37.5t-114 -43.5t-108.5 -54t-92 -68.5t-63.5 -87t-23.5 -110.5q0 -128 82 -189.5t232 -61.5q44 0 95.5 10t104 29.5t102 48.5t89.5 67v553z" />
    <glyph glyph-name="b" unicode="b" horiz-adv-x="1663" 
d="M428 1412q71 49 141.5 74.5t132 36.5t108.5 12.5t70 1.5q141 0 259 -52.5t203.5 -150t133 -235.5t47.5 -309q0 -182 -46.5 -331.5t-137.5 -256t-224 -164.5t-307 -58q-68 0 -139.5 5.5t-140.5 16.5t-132.5 28t-115.5 40v2172h148v-830zM428 176q46 -17 91 -29t91 -19.5
t93.5 -11t99.5 -3.5q136 4 241 55t177 139.5t109 211t37 271.5q0 146 -36 260.5t-101.5 193t-157 120t-202.5 41.5q-141 0 -247.5 -43t-194.5 -124v-1062z" />
    <glyph glyph-name="c" unicode="c" horiz-adv-x="1478" 
d="M1264 1292q-28 17 -65 36.5t-84 36.5t-105.5 28.5t-128.5 11.5q-78 0 -147.5 -23.5t-128 -65.5t-105.5 -101.5t-80 -131.5t-50.5 -154.5t-17.5 -171.5q0 -132 40 -249.5t114.5 -205.5t179 -139t233.5 -51q57 0 106 7t94.5 20t89 31.5t89.5 42.5v-141q-40 -23 -80.5 -40
t-87.5 -28.5t-103 -17.5t-126 -6q-161 0 -291.5 59.5t-222.5 161.5t-142 238.5t-50 290.5q0 184 52 333.5t144 254.5t217.5 162t272.5 57q63 0 117.5 -7.5t102 -21t88 -31t75.5 -38.5v-147z" />
    <glyph glyph-name="d" unicode="d" horiz-adv-x="1661" 
d="M1233 2242h148v-2172q-53 -23 -116 -40t-132 -28t-140.5 -16.5t-139.5 -5.5q-174 0 -307 58t-224 164.5t-137.5 256t-46.5 331.5q0 171 47.5 309t133 235.5t203.5 150t259 52.5q23 0 70 -1.5t108.5 -12.5t132 -36.5t141.5 -74.5v830zM1233 1238q-44 40 -92.5 71.5
t-102.5 52.5t-115.5 32t-131.5 11q-111 0 -202.5 -41.5t-157 -120t-101.5 -193t-36 -260.5q0 -149 37 -271.5t109 -211t177 -139.5t241 -55q52 0 99.5 3.5t93 11t90.5 19.5t92 29v1062z" />
    <glyph glyph-name="e" unicode="e" horiz-adv-x="1585" 
d="M1379 147q-59 -42 -117 -73.5t-121 -52.5t-133 -31t-153 -10q-114 0 -208.5 31t-169.5 86t-131 130.5t-92.5 165t-55 188.5t-18.5 202q0 166 48 304.5t135 238.5t207.5 155.5t265.5 55.5q147 0 254.5 -55.5t177.5 -158.5t103.5 -249t33.5 -327h-1067q0 -155 45 -273.5
t119 -198.5t168.5 -121t195.5 -41q67 0 131 7.5t127 27t126 53t129 85.5v-139zM1249 876q0 64 -10.5 128t-32 122.5t-54.5 109.5t-79 88.5t-105 59t-132 21.5q-72 0 -137 -21.5t-120.5 -59t-100 -88.5t-76 -110t-48 -123t-15.5 -128z" />
    <glyph glyph-name="f" unicode="f" horiz-adv-x="958" 
d="M1003 2090q-28 6 -67 10t-75 4q-101 0 -162.5 -31.5t-95.5 -89t-45.5 -139.5t-11.5 -182v-145h275v-132h-275v-1385h-148v1385h-212v132h212v112q0 88 5.5 159t19 129.5t36 105t56.5 85.5q114 129 333 129q15 0 34 -0.5t39.5 -1.5t41.5 -3.5t40 -6.5v-135z" />
    <glyph glyph-name="g" unicode="g" horiz-adv-x="1636" 
d="M554 351q0 -47 37.5 -81.5t101 -60.5t147.5 -46t177 -37q123 -23 206.5 -59t134.5 -84t73.5 -107.5t22.5 -129.5q0 -100 -44 -179.5t-127 -134.5t-202.5 -84.5t-269.5 -29.5q-158 0 -276.5 30t-197 84t-118 128t-39.5 162q0 63 22.5 126t75 116.5t138.5 93t214 55.5v7
q-72 19 -117.5 45.5t-71 55.5t-35 60t-9.5 59q0 22 10 53t37 63t75 61t125 47v2q-69 16 -136 57t-120 100t-85.5 134t-32.5 159q0 114 47.5 207t124 158t172.5 100.5t194 35.5h686v-132h-361q61 -32 102.5 -77.5t66.5 -95.5t35.5 -99t10.5 -87q0 -101 -32 -182.5t-93 -144
t-148 -108t-196 -74.5q-45 -12 -101.5 -25t-106 -31.5t-83.5 -44.5t-34 -65zM1299 -278q0 63 -21.5 109t-58.5 77.5t-85.5 51t-103 30t-111.5 14t-110 3.5q-102 0 -189 -19t-150 -54.5t-98.5 -85.5t-35.5 -112q0 -141 118 -213.5t360 -72.5q117 0 207.5 20t152 56t93.5 86
t32 110zM426 1016q0 -76 30 -142.5t82 -116t122 -78t149 -28.5t148.5 28.5t121.5 78t81.5 116t29.5 142.5t-29.5 143.5t-81.5 117.5t-121.5 79.5t-148.5 29.5q-81 0 -151 -29.5t-121.5 -79.5t-81 -117.5t-29.5 -143.5z" />
    <glyph glyph-name="h" unicode="h" horiz-adv-x="1685" 
d="M428 1289h5q72 72 140.5 120t135 76.5t132 40t132.5 11.5q110 0 191 -37.5t134.5 -108.5t80 -173.5t26.5 -232.5v-985h-148v966q0 96 -14.5 176t-51 138.5t-98 91.5t-155.5 33q-128 1 -257 -63.5t-253 -204.5v-1137h-148v2242h148v-953z" />
    <glyph glyph-name="i" unicode="i" horiz-adv-x="825" 
d="M485 0h-148v1517h148v-1517zM300 1976q0 23 9 43.5t24.5 36t36 24.5t43.5 9t43.5 -9t36 -24.5t24.5 -36t9 -43.5t-9 -43.5t-24.5 -36t-36 -24.5t-43.5 -9t-43.5 9t-36 24.5t-24.5 36t-9 43.5z" />
    <glyph glyph-name="j" unicode="j" horiz-adv-x="859" 
d="M515 -160q0 -101 -13.5 -179t-40.5 -137.5t-66.5 -104t-90.5 -78.5l-100 110q45 27 76 63.5t50.5 81t28 95.5t8.5 107v1719h148v-1677zM328 1976q0 23 9 43.5t24.5 36t36 24.5t43.5 9t43.5 -9t36 -24.5t24.5 -36t9 -43.5t-9 -43.5t-24.5 -36t-36 -24.5t-43.5 -9t-43.5 9
t-36 24.5t-24.5 36t-9 43.5z" />
    <glyph glyph-name="k" unicode="k" horiz-adv-x="1596" 
d="M639 774l898 -773h-237l-866 774l778 742h219zM428 2241v-2240h-148v2240h148z" />
    <glyph glyph-name="l" unicode="l" horiz-adv-x="842" 
d="M495 1h-148v2240h148v-2240z" />
    <glyph glyph-name="m" unicode="m" horiz-adv-x="2614" 
d="M428 1518v-231q75 82 144.5 131.5t131.5 76t115.5 34.5t96.5 8q73 0 137 -14.5t119 -46.5t99.5 -82.5t78.5 -122.5q78 86 146 138.5t132 80.5t127 37t129 9q109 0 193 -38.5t141 -109t86.5 -170t29.5 -221.5v-997h-148v984q0 94 -20 171.5t-62.5 133t-109 86t-160.5 30.5
q-69 0 -129.5 -18.5t-115.5 -52t-106 -80.5t-102 -103v-1151h-148v987q0 107 -24.5 186t-69.5 130.5t-108 76.5t-140 25q-119 0 -238 -62.5t-225 -190.5v-1152h-148v1518h148z" />
    <glyph glyph-name="n" unicode="n" horiz-adv-x="1685" 
d="M428 1291h4q60 65 120 111.5t123 76.5t129.5 44t139.5 14q106 0 191.5 -29.5t145.5 -94t92 -166.5t32 -248v-999h-148v984q0 92 -19 169t-59.5 133t-104 87.5t-151.5 31.5q-60 0 -121.5 -13.5t-123.5 -43.5t-124.5 -78.5t-125.5 -118.5v-1151h-148v1518h148v-227z" />
    <glyph glyph-name="o" unicode="o" horiz-adv-x="1825" 
d="M145 760q0 108 27.5 207.5t77.5 186t120.5 157.5t155.5 121.5t183 78.5t204 28q105 0 203 -28t183.5 -78.5t155.5 -121.5t120 -157.5t77.5 -186.5t27.5 -207q0 -108 -27.5 -207.5t-77.5 -186t-120 -158t-155.5 -122t-183.5 -78.5t-203 -28q-106 0 -204 28t-183 78.5
t-155.5 122t-120.5 158t-77.5 186t-27.5 207.5zM300 759q0 -134 48 -251.5t130.5 -205.5t194 -139t237.5 -51q127 0 238 51t194 139t131 205.5t48 251.5t-48 251.5t-131 205.5t-194 138.5t-238 50.5q-126 0 -237.5 -50.5t-194 -138.5t-130.5 -205.5t-48 -251.5z" />
    <glyph glyph-name="p" unicode="p" horiz-adv-x="1703" 
d="M428 -725h-148v2172q52 23 115.5 40t132.5 28t140.5 16.5t139.5 5.5q174 0 307 -58t224 -164.5t137.5 -256t46.5 -331.5q0 -171 -47.5 -309t-133 -235.5t-203.5 -150t-259 -52.5q-23 0 -70 1t-108.5 12.5t-132 37t-141.5 74.5v-830zM428 279q88 -81 194.5 -124t247.5 -43
q111 0 202.5 41.5t157 120t101.5 193t36 260.5q0 148 -37 271t-109 211.5t-177 139t-241 55.5q-52 0 -99.5 -3.5t-93.5 -11t-91 -19.5t-91 -29v-1062z" />
    <glyph glyph-name="q" unicode="q" horiz-adv-x="1703" 
d="M1275 105q-71 -49 -141.5 -74.5t-132 -37t-108.5 -12.5t-70 -1q-141 0 -259 52.5t-203.5 150t-133 235.5t-47.5 309q0 182 46.5 331.5t137.5 256t224 164.5t307 58q68 0 139.5 -5.5t140.5 -16.5t132 -28t116 -40v-2172h-148v830zM1275 1341q-93 34 -182.5 48.5
t-192.5 14.5q-136 -5 -241 -55.5t-177 -139t-109 -211.5t-37 -271q0 -146 36 -260.5t101.5 -193t157 -120t202.5 -41.5q70 0 131.5 11t115.5 32t102.5 52t92.5 72v1062z" />
    <glyph glyph-name="r" unicode="r" horiz-adv-x="1302" 
d="M868 1404q-89 0 -168.5 -43.5t-140 -112.5t-96 -153.5t-35.5 -166.5v-928h-148v1517h148v-277q67 106 136.5 166t132.5 89t113.5 35.5t80.5 6.5q33 0 69.5 -5t76.5 -21t84.5 -47t94.5 -83l-85 -127q-72 75 -138.5 112.5t-124.5 37.5z" />
    <glyph glyph-name="s" unicode="s" horiz-adv-x="1272" 
d="M1070 1285q-46 31 -95.5 54t-98.5 37.5t-95 21.5t-85 7q-63 0 -126 -12.5t-113 -39.5t-81.5 -71t-31.5 -107q0 -62 22 -106t70 -83t124 -78.5t184 -92.5q125 -62 201.5 -117t118 -109.5t55.5 -111.5t14 -122q0 -99 -40.5 -170.5t-109 -117t-158 -67t-187.5 -21.5
q-53 0 -110 9t-114 26.5t-112 42t-103 54.5v166q39 -31 87 -60.5t103.5 -53t117 -37.5t127.5 -14q72 0 136 14.5t113 44t77.5 75.5t28.5 109q0 54 -17.5 97t-57 83.5t-104.5 82.5t-160 92q-88 46 -171.5 89t-148 94.5t-104 119t-39.5 162.5q0 97 42 165.5t112 112t160.5 64
t186.5 20.5q56 0 105.5 -6t96 -18t90.5 -30.5t90 -43.5v-154z" />
    <glyph glyph-name="t" unicode="t" horiz-adv-x="1217" 
d="M572 1517h481v-129h-481v-963q0 -83 18 -142.5t53 -97t85.5 -55t116.5 -17.5q34 0 73.5 6t78.5 16.5t73.5 24.5t60.5 29v-134q-36 -18 -78 -32t-83.5 -23.5t-79.5 -14.5t-68 -5q-104 0 -179.5 32t-124 88.5t-71.5 133.5t-23 168v986h-336v129h336v390l148 110v-500z" />
    <glyph glyph-name="u" unicode="u" horiz-adv-x="1682" 
d="M1254 0v199q-67 -77 -138 -121t-136 -65.5t-118.5 -27t-85.5 -5.5q-118 0 -210.5 35t-156 103t-96.5 169t-33 232v998h148v-1018q0 -89 21.5 -160.5t66 -121.5t114 -77.5t165.5 -27.5q68 0 135 18t127.5 52t111 84t85.5 113v1138h148v-1517h-148z" />
    <glyph glyph-name="v" unicode="v" horiz-adv-x="1539" 
d="M787 0h-20l-643 1519h169l486 -1186l474 1186h162z" />
    <glyph glyph-name="w" unicode="w" horiz-adv-x="2452" 
d="M1724 352l431 1165h172l-593 -1517h-21l-486 1272l-484 -1272h-20l-599 1517h171l435 -1164l441 1164h111z" />
    <glyph glyph-name="x" unicode="x" horiz-adv-x="1620" 
d="M889 770l631 -770h-209l-519 658l-490 -658h-202l603 772l-600 745h200l491 -634l484 634h200z" />
    <glyph glyph-name="y" unicode="y" horiz-adv-x="1482" 
d="M373 -712h-166l453 981l-583 1248h171l487 -1085l499 1085h168z" />
    <glyph glyph-name="z" unicode="z" horiz-adv-x="1422" 
d="M361 133h889v-133h-1166l942 1385h-861v132h1128z" />
    <glyph glyph-name="braceleft" unicode="{" horiz-adv-x="1164" 
d="M169 1020q99 12 159.5 45.5t93 91.5t43.5 142t11 198v521q0 150 23 249.5t74.5 158t135 82.5t204.5 24h139v-146h-145q-82 0 -135 -16t-84 -62.5t-43 -129.5t-12 -216v-469q0 -81 -4.5 -146t-16 -118.5t-31 -96t-50 -77.5t-72.5 -64t-98 -55v-5q56 -26 98 -55t72.5 -64
t50 -77.5t31 -96t16 -118.5t4.5 -146v-469q0 -133 12 -216t43 -129.5t84 -62.5t135 -16h145v-146h-139q-121 0 -204.5 24t-135 82.5t-74.5 158t-23 249.5v521q0 114 -11 198t-43.5 142t-93 91.5t-159.5 45.5v173z" />
    <glyph glyph-name="bar" unicode="|" horiz-adv-x="850" 
d="M354 2531h142v-3193h-142v3193z" />
    <glyph glyph-name="braceright" unicode="}" horiz-adv-x="1164" 
d="M995 847q-99 -12 -159.5 -45.5t-93 -91.5t-43.5 -142t-11 -198v-521q0 -150 -23 -249.5t-74.5 -158t-135 -82.5t-204.5 -24h-139v146h145q82 0 135 16t84 62.5t43 129.5t12 216v469q0 81 4.5 146t16 118.5t31 96t50 77.5t72.5 64t98 55v5q-56 26 -98 55t-72.5 64
t-50 77.5t-31 96t-16 118.5t-4.5 146v469q0 133 -12 216t-43 129.5t-84 62.5t-135 16h-145v146h139q121 0 204.5 -24t135 -82.5t74.5 -158t23 -249.5v-521q0 -114 11 -198t43.5 -142t93 -91.5t159.5 -45.5v-173z" />
    <glyph glyph-name="asciitilde" unicode="~" horiz-adv-x="1765" 
d="M92 1020q45 44 100.5 73.5t110.5 47.5t104 26t82 8q57 0 111.5 -10.5t106 -27t100 -37t93.5 -40.5q53 -23 102.5 -46t100.5 -41t105 -29.5t116 -11.5q45 0 88 10.5t85.5 28.5t86 43.5t89.5 55.5l-1 -153q-36 -31 -80.5 -56.5t-92 -43.5t-96 -28t-93.5 -10q-34 0 -81 6.5
t-102 20t-114.5 33.5t-117.5 48q-60 28 -113 52.5t-102 42t-96 27.5t-95 10q-38 0 -85.5 -9t-99 -27.5t-106 -48.5t-106.5 -72v158z" />
    <glyph glyph-name="saraileftthai" 
d="M-1932 2033v152h1158v-152h-1158z" />
    <glyph glyph-name="saraileftthai" unicode="&#xf701;" 
d="M-1932 2033v152h1158v-152h-1158z" />
    <glyph glyph-name="saraiileftthai" 
d="M-1933 2034v152h999v297h160v-449h-1159z" />
    <glyph glyph-name="saraiileftthai" unicode="&#xf702;" 
d="M-1933 2034v152h999v297h160v-449h-1159z" />
    <glyph glyph-name="saraueleftthai" 
d="M-1109 2319q0 -31 11.5 -58t32 -47t47.5 -31.5t58 -11.5t58 11.5t47 31.5t31.5 47t11.5 58t-11.5 58t-31.5 47.5t-47 32t-58 11.5t-58 -11.5t-47.5 -32t-32 -47.5t-11.5 -58zM-1247 2319q0 60 22.5 112t61.5 91t91 61.5t112 22.5q59 0 111 -22.5t91 -61.5t61.5 -91
t22.5 -112q0 -59 -22.5 -111t-61.5 -91t-91 -61.5t-111 -22.5h-972v152h719q-34 62 -34 134z" />
    <glyph glyph-name="saraueleftthai" unicode="&#xf703;" 
d="M-1109 2319q0 -31 11.5 -58t32 -47t47.5 -31.5t58 -11.5t58 11.5t47 31.5t31.5 47t11.5 58t-11.5 58t-31.5 47.5t-47 32t-58 11.5t-58 -11.5t-47.5 -32t-32 -47.5t-11.5 -58zM-1247 2319q0 60 22.5 112t61.5 91t91 61.5t112 22.5q59 0 111 -22.5t91 -61.5t61.5 -91
t22.5 -112q0 -59 -22.5 -111t-61.5 -91t-91 -61.5t-111 -22.5h-972v152h719q-34 62 -34 134z" />
    <glyph glyph-name="saraueeleftthai" 
d="M-1132 2186h199v297h160v-449h-1160v152h641v297h160v-297z" />
    <glyph glyph-name="saraueeleftthai" unicode="&#xf704;" 
d="M-1132 2186h199v297h160v-449h-1160v152h641v297h160v-297z" />
    <glyph glyph-name="maieklowleftthai" 
d="M-935 2034v459h160v-459h-160z" />
    <glyph glyph-name="maieklowleftthai" unicode="&#xf705;" 
d="M-935 2034v459h160v-459h-160z" />
    <glyph glyph-name="maitholowleftthai" 
d="M-1461 2195q63 25 101 64.5t37 84.5q0 29 -7.5 48.5t-26.5 29.5t-52 11.5t-84 -5.5v127q18 3 32.5 5t29 3.5t32 3t42.5 2.5q48 2 85 -12t62 -39.5t37.5 -60.5t12.5 -74q0 -14 -3 -37t-13 -48.5t-28.5 -52t-49.5 -47.5q64 -11 118 -13.5t102 -2.5q41 0 85 5t88 14.5
t86.5 23t80.5 30.5v-136q-30 -20 -77 -36t-102.5 -27t-116.5 -16.5t-119 -5.5q-87 0 -180.5 11.5t-171.5 35.5v114z" />
    <glyph glyph-name="maitholowleftthai" unicode="&#xf706;" 
d="M-1461 2195q63 25 101 64.5t37 84.5q0 29 -7.5 48.5t-26.5 29.5t-52 11.5t-84 -5.5v127q18 3 32.5 5t29 3.5t32 3t42.5 2.5q48 2 85 -12t62 -39.5t37.5 -60.5t12.5 -74q0 -14 -3 -37t-13 -48.5t-28.5 -52t-49.5 -47.5q64 -11 118 -13.5t102 -2.5q41 0 85 5t88 14.5
t86.5 23t80.5 30.5v-136q-30 -20 -77 -36t-102.5 -27t-116.5 -16.5t-119 -5.5q-87 0 -180.5 11.5t-171.5 35.5v114z" />
    <glyph glyph-name="maitrilowleftthai" 
d="M-1375 2300q-2 21 -10.5 40.5t-23 35t-35 24.5t-46.5 9q-18 0 -37.5 -7t-35.5 -22t-26 -39.5t-10 -59.5q0 -43 16.5 -69t41.5 -38t54.5 -13t55.5 5v-125q-18 -4 -40 -5t-39 -1q-78 0 -126.5 26.5t-76 65t-37.5 82.5t-10 79q0 54 19.5 101.5t54.5 82.5t83.5 55t106.5 20
q42 0 73 -10t53 -24.5t35 -30t19 -25.5q6 10 19 25.5t34.5 30t52.5 24.5t73 10q58 0 105 -13.5t80.5 -40.5t51.5 -66.5t18 -91.5q0 -23 -3 -45.5t-12 -44.5t-24.5 -42.5t-39.5 -38.5q40 6 79.5 16.5t74.5 23.5t64 26.5t49 25.5v-136q-94 -50 -192.5 -67.5t-190.5 -17.5h-26
t-36 1t-36.5 2t-26.5 3v117q29 0 58.5 8.5t53 26.5t38.5 44.5t15 62.5q0 29 -9.5 49.5t-25 34t-34.5 19.5t-37 6q-26 0 -46.5 -9t-35 -24.5t-23 -35t-10.5 -40.5h-117z" />
    <glyph glyph-name="maitrilowleftthai" unicode="&#xf707;" 
d="M-1375 2300q-2 21 -10.5 40.5t-23 35t-35 24.5t-46.5 9q-18 0 -37.5 -7t-35.5 -22t-26 -39.5t-10 -59.5q0 -43 16.5 -69t41.5 -38t54.5 -13t55.5 5v-125q-18 -4 -40 -5t-39 -1q-78 0 -126.5 26.5t-76 65t-37.5 82.5t-10 79q0 54 19.5 101.5t54.5 82.5t83.5 55t106.5 20
q42 0 73 -10t53 -24.5t35 -30t19 -25.5q6 10 19 25.5t34.5 30t52.5 24.5t73 10q58 0 105 -13.5t80.5 -40.5t51.5 -66.5t18 -91.5q0 -23 -3 -45.5t-12 -44.5t-24.5 -42.5t-39.5 -38.5q40 6 79.5 16.5t74.5 23.5t64 26.5t49 25.5v-136q-94 -50 -192.5 -67.5t-190.5 -17.5h-26
t-36 1t-36.5 2t-26.5 3v117q29 0 58.5 8.5t53 26.5t38.5 44.5t15 62.5q0 29 -9.5 49.5t-25 34t-34.5 19.5t-37 6q-26 0 -46.5 -9t-35 -24.5t-23 -35t-10.5 -40.5h-117z" />
    <glyph glyph-name="maichattawalowleftthai" 
d="M-1377 2393h261v216h160v-216h262v-144h-262v-215h-160v215h-261v144z" />
    <glyph glyph-name="maichattawalowleftthai" unicode="&#xf708;" 
d="M-1377 2393h261v216h160v-216h262v-144h-262v-215h-160v215h-261v144z" />
    <glyph glyph-name="thanthakhatlowleftthai" 
d="M-603 2486q-50 2 -103.5 -8.5t-97.5 -34t-73 -60.5t-30 -86q-1 -42 15 -68t40 -39.5t52 -18t51 -4.5v-133q-155 0 -239 65.5t-84 186.5q0 58 20.5 105t56 84t82.5 64t99 44.5t106 26t105 8.5v-132z" />
    <glyph glyph-name="thanthakhatlowleftthai" unicode="&#xf709;" 
d="M-603 2486q-50 2 -103.5 -8.5t-97.5 -34t-73 -60.5t-30 -86q-1 -42 15 -68t40 -39.5t52 -18t51 -4.5v-133q-155 0 -239 65.5t-84 186.5q0 58 20.5 105t56 84t82.5 64t99 44.5t106 26t105 8.5v-132z" />
    <glyph glyph-name="maieklowrightthai" 
d="M-501 2034v459h160v-459h-160z" />
    <glyph glyph-name="maieklowrightthai" unicode="&#xf70a;" 
d="M-501 2034v459h160v-459h-160z" />
    <glyph glyph-name="maitholowrightthai" 
d="M-892 2195q63 25 101 64.5t37 84.5q0 29 -7.5 48.5t-26.5 29.5t-52 11.5t-84 -5.5v127q18 3 32.5 5t29 3.5t32 3t42.5 2.5q48 2 85 -12t62 -39.5t37.5 -60.5t12.5 -74q0 -14 -3 -37t-13 -48.5t-28.5 -52t-49.5 -47.5q64 -11 118 -13.5t102 -2.5q41 0 85 5t88 14.5
t86.5 23t80.5 30.5v-136q-30 -20 -77 -36t-102.5 -27t-116.5 -16.5t-119 -5.5q-87 0 -180.5 11.5t-171.5 35.5v114z" />
    <glyph glyph-name="maitholowrightthai" unicode="&#xf70b;" 
d="M-892 2195q63 25 101 64.5t37 84.5q0 29 -7.5 48.5t-26.5 29.5t-52 11.5t-84 -5.5v127q18 3 32.5 5t29 3.5t32 3t42.5 2.5q48 2 85 -12t62 -39.5t37.5 -60.5t12.5 -74q0 -14 -3 -37t-13 -48.5t-28.5 -52t-49.5 -47.5q64 -11 118 -13.5t102 -2.5q41 0 85 5t88 14.5
t86.5 23t80.5 30.5v-136q-30 -20 -77 -36t-102.5 -27t-116.5 -16.5t-119 -5.5q-87 0 -180.5 11.5t-171.5 35.5v114z" />
    <glyph glyph-name="maitrilowrightthai" 
d="M-920 2300q-2 21 -10.5 40.5t-23 35t-35 24.5t-46.5 9q-18 0 -37.5 -7t-35.5 -22t-26 -39.5t-10 -59.5q0 -43 16.5 -69t41.5 -38t54.5 -13t55.5 5v-125q-18 -4 -40 -5t-39 -1q-78 0 -126.5 26.5t-76 65t-37.5 82.5t-10 79q0 54 19.5 101.5t54.5 82.5t83.5 55t106.5 20
q42 0 73 -10t53 -24.5t35 -30t19 -25.5q6 10 19 25.5t34.5 30t52.5 24.5t73 10q58 0 105 -13.5t80.5 -40.5t51.5 -66.5t18 -91.5q0 -23 -3 -45.5t-12 -44.5t-24.5 -42.5t-39.5 -38.5q40 6 80.5 17.5t77.5 25t67 28t50 26.5v-132q-52 -28 -102.5 -46t-99 -28.5t-96 -15
t-93.5 -4.5h-26t-36 1t-36.5 2t-26.5 3v117q29 0 58.5 8.5t53 26.5t38.5 44.5t15 62.5q0 29 -9.5 49.5t-25 34t-34.5 19.5t-37 6q-26 0 -46.5 -9t-35 -24.5t-23 -35t-10.5 -40.5h-117z" />
    <glyph glyph-name="maitrilowrightthai" unicode="&#xf70c;" 
d="M-920 2300q-2 21 -10.5 40.5t-23 35t-35 24.5t-46.5 9q-18 0 -37.5 -7t-35.5 -22t-26 -39.5t-10 -59.5q0 -43 16.5 -69t41.5 -38t54.5 -13t55.5 5v-125q-18 -4 -40 -5t-39 -1q-78 0 -126.5 26.5t-76 65t-37.5 82.5t-10 79q0 54 19.5 101.5t54.5 82.5t83.5 55t106.5 20
q42 0 73 -10t53 -24.5t35 -30t19 -25.5q6 10 19 25.5t34.5 30t52.5 24.5t73 10q58 0 105 -13.5t80.5 -40.5t51.5 -66.5t18 -91.5q0 -23 -3 -45.5t-12 -44.5t-24.5 -42.5t-39.5 -38.5q40 6 80.5 17.5t77.5 25t67 28t50 26.5v-132q-52 -28 -102.5 -46t-99 -28.5t-96 -15
t-93.5 -4.5h-26t-36 1t-36.5 2t-26.5 3v117q29 0 58.5 8.5t53 26.5t38.5 44.5t15 62.5q0 29 -9.5 49.5t-25 34t-34.5 19.5t-37 6q-26 0 -46.5 -9t-35 -24.5t-23 -35t-10.5 -40.5h-117z" />
    <glyph glyph-name="maichattawalowrightthai" 
d="M-764 2393h261v216h160v-216h262v-144h-262v-215h-160v215h-261v144z" />
    <glyph glyph-name="maichattawalowrightthai" unicode="&#xf70d;" 
d="M-764 2393h261v216h160v-216h262v-144h-262v-215h-160v215h-261v144z" />
    <glyph glyph-name="thanthakhatlowrightthai" 
d="M-195 2486q-50 2 -103.5 -8.5t-97.5 -34t-73 -60.5t-30 -86q-1 -42 15 -68t40 -39.5t52 -18t51 -4.5v-133q-155 0 -239 65.5t-84 186.5q0 58 20.5 105t56 84t82.5 64t99 44.5t106 26t105 8.5v-132z" />
    <glyph glyph-name="thanthakhatlowrightthai" unicode="&#xf70e;" 
d="M-195 2486q-50 2 -103.5 -8.5t-97.5 -34t-73 -60.5t-30 -86q-1 -42 15 -68t40 -39.5t52 -18t51 -4.5v-133q-155 0 -239 65.5t-84 186.5q0 58 20.5 105t56 84t82.5 64t99 44.5t106 26t105 8.5v-132z" />
    <glyph glyph-name="maihanakatleftthai" 
d="M-1161 2033v391h160v-239h895v-152h-1055z" />
    <glyph glyph-name="maihanakatleftthai" unicode="&#xf710;" 
d="M-1161 2033v391h160v-239h895v-152h-1055z" />
    <glyph glyph-name="nikhahitleftthai" 
d="M-1203 2184q0 -32 12.5 -60.5t33.5 -49.5t49.5 -33.5t60.5 -12.5t60.5 12.5t49.5 33.5t33.5 49.5t12.5 60.5t-12.5 60.5t-33.5 49.5t-49.5 33.5t-60.5 12.5t-60.5 -12.5t-49.5 -33.5t-33.5 -49.5t-12.5 -60.5zM-1347 2184q0 62 23.5 117t64 95.5t95.5 64t117 23.5
t117 -23.5t95.5 -64t64 -95.5t23.5 -117t-23.5 -117t-64 -95.5t-95.5 -64t-117 -23.5t-117 23.5t-95.5 64t-64 95.5t-23.5 117z" />
    <glyph glyph-name="nikhahitleftthai" unicode="&#xf711;" 
d="M-1203 2184q0 -32 12.5 -60.5t33.5 -49.5t49.5 -33.5t60.5 -12.5t60.5 12.5t49.5 33.5t33.5 49.5t12.5 60.5t-12.5 60.5t-33.5 49.5t-49.5 33.5t-60.5 12.5t-60.5 -12.5t-49.5 -33.5t-33.5 -49.5t-12.5 -60.5zM-1347 2184q0 62 23.5 117t64 95.5t95.5 64t117 23.5
t117 -23.5t95.5 -64t64 -95.5t23.5 -117t-23.5 -117t-64 -95.5t-95.5 -64t-117 -23.5t-117 23.5t-95.5 64t-64 95.5t-23.5 117z" />
    <glyph glyph-name="maitaikhuleftthai" 
d="M-916 2004q-28 -1 -63 1.5t-72.5 15t-73.5 38.5t-66 71q-30 -45 -67 -70.5t-74.5 -38t-71.5 -15t-58 -2.5q-95 0 -162.5 24.5t-110.5 65.5t-63 95.5t-20 113.5q0 82 28.5 139.5t76.5 94.5t111.5 54t133.5 17h778v-147h-736q-43 0 -84.5 -4.5t-74 -21t-52.5 -48t-20 -84.5
q0 -50 21.5 -81t52.5 -48t66.5 -23t63.5 -6q60 0 97.5 15.5t59 39.5t30.5 51.5t13 51.5h124q4 -24 14.5 -52t33 -52t60.5 -40t99 -16q24 0 54 3t61.5 11t61.5 23t55 39v-156q-48 -32 -108.5 -44.5t-117.5 -14.5z" />
    <glyph glyph-name="maitaikhuleftthai" unicode="&#xf712;" 
d="M-916 2004q-28 -1 -63 1.5t-72.5 15t-73.5 38.5t-66 71q-30 -45 -67 -70.5t-74.5 -38t-71.5 -15t-58 -2.5q-95 0 -162.5 24.5t-110.5 65.5t-63 95.5t-20 113.5q0 82 28.5 139.5t76.5 94.5t111.5 54t133.5 17h778v-147h-736q-43 0 -84.5 -4.5t-74 -21t-52.5 -48t-20 -84.5
q0 -50 21.5 -81t52.5 -48t66.5 -23t63.5 -6q60 0 97.5 15.5t59 39.5t30.5 51.5t13 51.5h124q4 -24 14.5 -52t33 -52t60.5 -40t99 -16q24 0 54 3t61.5 11t61.5 23t55 39v-156q-48 -32 -108.5 -44.5t-117.5 -14.5z" />
    <glyph glyph-name="maiekupperleftthai" 
d="M-933 2725v389h160v-389h-160z" />
    <glyph glyph-name="maiekupperleftthai" unicode="&#xf713;" 
d="M-933 2725v389h160v-389h-160z" />
    <glyph glyph-name="maithoupperleftthai" 
d="M-1138 2877q59 24 96 62t36 80q0 28 -7.5 46t-25.5 28t-49.5 11t-79.5 -5v120q18 3 31.5 5t27 3.5t30 3t40.5 2.5q46 1 81 -12t58.5 -37.5t35.5 -57.5t12 -70q0 -14 -3 -35.5t-12 -46t-26.5 -49.5t-47.5 -45q61 -10 112.5 -12.5t96.5 -2.5q38 0 79.5 4.5t83.5 13.5
t82.5 22t76.5 29v-129q-29 -19 -73 -34t-97 -25t-110.5 -15.5t-112.5 -5.5q-84 0 -172 11t-163 34v107z" />
    <glyph glyph-name="maithoupperleftthai" unicode="&#xf714;" 
d="M-1138 2877q59 24 96 62t36 80q0 28 -7.5 46t-25.5 28t-49.5 11t-79.5 -5v120q18 3 31.5 5t27 3.5t30 3t40.5 2.5q46 1 81 -12t58.5 -37.5t35.5 -57.5t12 -70q0 -14 -3 -35.5t-12 -46t-26.5 -49.5t-47.5 -45q61 -10 112.5 -12.5t96.5 -2.5q38 0 79.5 4.5t83.5 13.5
t82.5 22t76.5 29v-129q-29 -19 -73 -34t-97 -25t-110.5 -15.5t-112.5 -5.5q-84 0 -172 11t-163 34v107z" />
    <glyph glyph-name="maitriupperleftthai" 
d="M-1056 2961q-2 19 -9.5 37t-21 32.5t-32 23t-42.5 8.5q-17 0 -34.5 -6.5t-32 -21t-23.5 -36.5t-9 -53q0 -39 15 -63t37.5 -35.5t49.5 -12t51 5.5v-114q-17 -4 -37 -5t-34 -1q-71 0 -116 24t-70 59.5t-34 75t-9 71.5q0 49 17.5 92.5t49.5 75.5t76 50.5t97 18.5
q39 0 67.5 -9t48.5 -22t31.5 -27.5t17.5 -24.5q5 10 17 24.5t31.5 27.5t47.5 22t66 9q53 0 96.5 -12.5t74 -37t47 -61t16.5 -83.5q0 -41 -14.5 -82t-57.5 -73q36 5 73 15t70.5 23t61 26t45.5 24v-120q-96 -51 -184 -68.5t-173 -17.5h-23.5t-33 1t-33 2t-23.5 3v106
q26 0 53 8t48.5 24.5t35 40.5t13.5 56q0 26 -9 45t-23 31.5t-31 18.5t-34 6q-24 0 -42.5 -8.5t-31.5 -23t-21 -32.5t-10 -37h-106z" />
    <glyph glyph-name="maitriupperleftthai" unicode="&#xf715;" 
d="M-1056 2961q-2 19 -9.5 37t-21 32.5t-32 23t-42.5 8.5q-17 0 -34.5 -6.5t-32 -21t-23.5 -36.5t-9 -53q0 -39 15 -63t37.5 -35.5t49.5 -12t51 5.5v-114q-17 -4 -37 -5t-34 -1q-71 0 -116 24t-70 59.5t-34 75t-9 71.5q0 49 17.5 92.5t49.5 75.5t76 50.5t97 18.5
q39 0 67.5 -9t48.5 -22t31.5 -27.5t17.5 -24.5q5 10 17 24.5t31.5 27.5t47.5 22t66 9q53 0 96.5 -12.5t74 -37t47 -61t16.5 -83.5q0 -41 -14.5 -82t-57.5 -73q36 5 73 15t70.5 23t61 26t45.5 24v-120q-96 -51 -184 -68.5t-173 -17.5h-23.5t-33 1t-33 2t-23.5 3v106
q26 0 53 8t48.5 24.5t35 40.5t13.5 56q0 26 -9 45t-23 31.5t-31 18.5t-34 6q-24 0 -42.5 -8.5t-31.5 -23t-21 -32.5t-10 -37h-106z" />
    <glyph glyph-name="maichattawaupperleftthai" 
d="M-1160 3063h237v196h150v-196h236v-144h-236v-195h-150v195h-237v144z" />
    <glyph glyph-name="maichattawaupperleftthai" unicode="&#xf716;" 
d="M-1160 3063h237v196h150v-196h236v-144h-236v-195h-150v195h-237v144z" />
    <glyph glyph-name="thanthakhatupperleftthai" 
d="M-666 2895q-57 0 -111 -11.5t-97 -35.5t-69 -60.5t-27 -85.5q-1 -42 15 -67.5t40 -39t52 -18t51 -4.5v-130q-155 0 -238 65.5t-83 186.5q0 56 20.5 102t55.5 82t81.5 62t98.5 43t106 25t105 8v-122z" />
    <glyph glyph-name="thanthakhatupperleftthai" unicode="&#xf717;" 
d="M-666 2895q-57 0 -111 -11.5t-97 -35.5t-69 -60.5t-27 -85.5q-1 -42 15 -67.5t40 -39t52 -18t51 -4.5v-130q-155 0 -238 65.5t-83 186.5q0 56 20.5 102t55.5 82t81.5 62t98.5 43t106 25t105 8v-122z" />
    <glyph glyph-name="uni00A0" unicode="&#xa0;" horiz-adv-x="663" 
 />
    <glyph glyph-name="cent" unicode="&#xa2;" horiz-adv-x="1511" 
d="M870 272q-94 11 -176.5 44t-150.5 84t-121.5 118t-90.5 146t-56.5 168.5t-19.5 184.5q0 173 46 315t128 246t195 166t246 76v347h126v-345q105 -6 185 -32.5t143 -63.5v-147q-25 15 -57.5 31t-73 30t-89.5 24.5t-108 13.5v-1269q54 1 100.5 6.5t90 17t85.5 28t86 39.5
v-141q-38 -21 -75.5 -37.5t-80.5 -28t-93.5 -18.5t-112.5 -8v-586h-126v591zM412 1044q0 -118 32 -223t91.5 -187.5t144 -138.5t190.5 -76v1256q-102 -15 -186.5 -69t-145 -138t-93.5 -192.5t-33 -231.5z" />
    <glyph glyph-name="sterling" unicode="&#xa3;" horiz-adv-x="1543" 
d="M892 989h-252q-15 -54 -31 -119t-31.5 -134.5t-31 -140t-29.5 -136.5q-33 -154 -64 -314q91 27 153.5 32.5t109.5 5.5q45 0 101 -11t120 -25q59 -13 116.5 -21t121.5 -8q30 0 65.5 5t64.5 13l12 -136q-22 -5 -61 -9.5t-96 -4.5q-39 1 -79 4q-34 2 -72 6t-70 12
q-62 13 -103.5 22t-76.5 13.5t-68.5 6t-78.5 1.5q-37 0 -83 -6t-94 -15.5t-94.5 -21t-84.5 -22.5q10 58 25.5 136t34.5 166t40 182.5t42.5 186.5t42 177t38.5 155h-195v116h223q21 73 43.5 147.5t44.5 144t43 131t40 108.5q41 101 91 179.5t112 134t138 87t170 37.5l47 -117
q-82 -4 -146.5 -35.5t-114.5 -81t-86.5 -112.5t-61.5 -130q-43 -113 -81.5 -233t-76.5 -260h223v-116z" />
    <glyph glyph-name="yen" unicode="&#xa5;" horiz-adv-x="1669" 
d="M164 1195h503l-500 866h201l466 -860l481 860h189l-501 -866h500v-151h-587v-259h587v-151h-587v-634h-162v634h-590v151h590v259h-590v151z" />
    <glyph glyph-name="copyright" unicode="&#xa9;" horiz-adv-x="2236" 
d="M1567 793q-13 -78 -54 -141t-100 -107t-131 -68t-147 -24q-117 0 -212 40.5t-162 114.5t-103.5 179t-36.5 234q0 133 35.5 241.5t102.5 185.5t162.5 118.5t214.5 41.5q82 0 152.5 -24t125.5 -68.5t92 -108.5t52 -143h-145q-30 112 -101.5 160t-189.5 48
q-74 0 -136.5 -29.5t-107.5 -86t-70 -138.5t-25 -188t26.5 -188.5t73.5 -139.5t111.5 -86.5t141.5 -29.5q48 0 94.5 13.5t85.5 40t67.5 65t40.5 88.5h143zM60 1031q0 146 38 281t106.5 252.5t165.5 214.5t214.5 165.5t252.5 106.5t281 38t281 -38t252.5 -106.5t214.5 -165.5
t165.5 -214.5t106.5 -252.5t38 -281t-38 -281t-106.5 -252.5t-165.5 -214.5t-214.5 -165.5t-252.5 -106.5t-281 -38t-281 38t-252.5 106.5t-214.5 165.5t-165.5 214.5t-106.5 252.5t-38 281zM210 1028q0 -125 32.5 -241t91.5 -217t142 -184t184 -142t217 -91.5t241 -32.5
t241 32.5t217 91.5t184 142t142 184t91.5 217t32.5 241t-32.5 241t-91.5 217t-142 184t-184 142t-217 91.5t-241 32.5t-241 -32.5t-217 -91.5t-184 -142t-142 -184t-91.5 -217t-32.5 -241z" />
    <glyph glyph-name="guillemotleft" unicode="&#xab;" horiz-adv-x="1602" 
d="M868 32h-202l-487 660l487 661h202l-499 -661zM1418 32h-202l-487 660l487 661h202l-499 -661z" />
    <glyph glyph-name="registered" unicode="&#xae;" horiz-adv-x="2236" 
d="M1427 499l-86 183q-33 61 -65 113.5t-69 90.5q-43 41 -95.5 53.5t-111.5 12.5h-120v-453h-139v1079h515q79 0 137.5 -24t96.5 -64t57 -92.5t19 -109.5q0 -56 -15 -109.5t-50.5 -95.5t-93.5 -67.5t-145 -25.5v-4q39 -14 69.5 -40t58 -64.5t56 -89t64.5 -114.5
q14 -25 25 -46.5t21.5 -42.5t21 -43t24.5 -47h-175zM1176 1070q68 0 114.5 17t75 45.5t41 65t12.5 75.5q0 60 -16.5 97.5t-51 57.5t-88.5 27t-128 7h-255v-392h296zM60 1031q0 146 38 281t106.5 252.5t165.5 214.5t214.5 165.5t252.5 106.5t281 38t281 -38t252.5 -106.5
t214.5 -165.5t165.5 -214.5t106.5 -252.5t38 -281t-38 -281t-106.5 -252.5t-165.5 -214.5t-214.5 -165.5t-252.5 -106.5t-281 -38t-281 38t-252.5 106.5t-214.5 165.5t-165.5 214.5t-106.5 252.5t-38 281zM210 1028q0 -125 32.5 -241t91.5 -217t142 -184t184 -142t217 -91.5
t241 -32.5t241 32.5t217 91.5t184 142t142 184t91.5 217t32.5 241t-32.5 241t-91.5 217t-142 184t-184 142t-217 91.5t-241 32.5t-241 -32.5t-217 -91.5t-184 -142t-142 -184t-91.5 -217t-32.5 -241z" />
    <glyph glyph-name="guillemotright" unicode="&#xbb;" horiz-adv-x="1602" 
d="M1233 692l-499 661h202l487 -661l-487 -660h-202zM683 692l-499 661h202l487 -661l-487 -660h-202z" />
    <glyph glyph-name="onequarter" unicode="&#xbc;" horiz-adv-x="2708" 
d="M576 893h-154v1096h154v-1096zM2178 373h155v-108h-155v-266h-152l-1 266h-563v141l615 691h101v-724zM1594 373h431v479zM627 -86h-154l1394 2109h156z" />
    <glyph glyph-name="onehalf" unicode="&#xbd;" horiz-adv-x="2708" 
d="M576 893h-154v1096h154v-1096zM2384 0h-745v32q115 134 211.5 247.5t166 208t108.5 171.5t39 139q0 53 -17 86.5t-44 52t-60 25.5t-64 7q-21 0 -53.5 -4t-71 -14.5t-80 -28.5t-78.5 -46v127q67 43 144.5 66.5t168.5 23.5q68 0 125.5 -17t99.5 -51t65.5 -84.5t23.5 -117.5
q0 -46 -8.5 -90.5t-28 -92.5t-53 -102t-83 -117.5t-117 -139.5t-156.5 -169l507 -1v-111zM597 -86h-154l1394 2109h156z" />
    <glyph glyph-name="threequarters" unicode="&#xbe;" horiz-adv-x="2708" 
d="M546 1532q52 14 84.5 34t50.5 44t24.5 51.5t6.5 56.5q0 30 -10.5 58t-34.5 50.5t-62 36t-93 13.5q-48 0 -101 -15.5t-95 -33.5v125q41 17 110 32.5t159 15.5q62 0 114.5 -20.5t90.5 -56t59.5 -82.5t21.5 -100q0 -21 -2 -55t-17 -71.5t-48.5 -74t-96.5 -62.5v-2
q44 -6 82 -28t65.5 -57t43.5 -82.5t16 -102.5q0 -67 -27 -122.5t-75 -95t-114.5 -61t-145.5 -21.5q-38 0 -70.5 3.5t-64 11t-63.5 17.5t-69 24l1 120q54 -25 112.5 -40t115.5 -15q53 0 94.5 13t70 37t43.5 57t15 72q0 56 -16 94t-42 61.5t-61 34t-72 12.5v124zM717 -86h-154
l1394 2109h156zM2268 373h155v-108h-155v-266h-152l-1 266h-563v141l615 691h101v-724zM1684 373h431v479z" />
    <glyph glyph-name="multiply" unicode="&#xd7;" horiz-adv-x="1765" 
d="M768 1035l-443 442l115 115l443 -444l441 443l115 -114l-443 -442l443 -442l-115 -115l-441 443l-442 -444l-116 116z" />
    <glyph glyph-name="divide" unicode="&#xf7;" horiz-adv-x="1685" 
d="M183 1115h1319v-164h-1319v164zM701 492q0 30 11 56t30.5 45.5t45.5 31t55 11.5q30 0 56 -11.5t45.5 -31t31 -45.5t11.5 -56q0 -29 -11.5 -55t-31 -45.5t-45.5 -30.5t-56 -11q-29 0 -55 11t-45.5 30.5t-30.5 45.5t-11 55zM701 1570q0 30 11 56t30.5 45.5t45.5 31t55 11.5
q30 0 56 -11.5t45.5 -31t31 -45.5t11.5 -56q0 -29 -11.5 -55t-31 -45.5t-45.5 -30.5t-56 -11q-29 0 -55 11t-45.5 30.5t-30.5 45.5t-11 55z" />
    <glyph glyph-name="uni0E00" unicode="&#xe00;" 
 />
    <glyph glyph-name="kokaithai" unicode="&#xe01;" horiz-adv-x="1987" 
d="M1646 0h-160v1065q0 106 -21.5 181t-58 125.5t-85 80t-103.5 45t-112.5 20t-112.5 4.5t-112.5 -4.5t-112.5 -20t-103.5 -45t-85 -80t-57.5 -125.5t-21 -181v-1065h-160v1105q0 119 26.5 207.5t72.5 151.5t108.5 103t135 63t151 32t157.5 9q78 0 157 -8.5t152 -32
t136 -63.5t109.5 -103t73 -151.5t26.5 -207.5v-1105z" />
    <glyph glyph-name="khokhaithai" unicode="&#xe02;" horiz-adv-x="1772" 
d="M932 0h-84l-663 1651h187l518 -1353l518 1353h187z" />
    <glyph glyph-name="khokhuatthai" unicode="&#xe03;" horiz-adv-x="1886" 
d="M947 -20q-156 0 -269.5 36.5t-186.5 105t-108 167.5t-35 224v126q0 64 20.5 113.5t57 93.5t85.5 86.5t106 93.5q67 60 104 98t53.5 68.5t19.5 61t3 76.5v151l-278 -196l-323 221v179l323 -229l274 195h166v-324q0 -38 -1.5 -67.5t-8 -56t-21 -52.5t-40 -56t-64 -67.5
t-94.5 -87.5q-52 -47 -93 -84t-69 -71.5t-42.5 -69t-14.5 -74.5v-143q0 -101 28 -173t83 -118t136.5 -68t188.5 -22t189 22t137.5 68t83.5 118t28 173v1153h160v-1138q0 -125 -35 -224t-108 -167.5t-186 -105t-269 -36.5z" />
    <glyph glyph-name="khokhwaithai" unicode="&#xe04;" horiz-adv-x="2023" 
d="M500 -1h-159v1108q0 117 27 204.5t74.5 150.5t112 104t139 65t155.5 33.5t162 9.5t162 -9.5t155.5 -33t139 -64.5t112 -104t75 -150.5t27.5 -204.5v-1108h-160v1061q0 100 -23 173t-61.5 124.5t-90 83.5t-108 50t-115 24.5t-112.5 6.5q-55 0 -114 -6.5t-116 -25
t-108.5 -50.5t-90 -83.5t-61 -124.5t-21.5 -173v-285q36 52 77.5 87t83 57.5t81 34t73 16.5t58 5.5t36.5 0.5q9 0 27.5 -1.5t40 -4.5t41.5 -7.5t32 -10.5l-41 -147q-5 1 -15.5 3t-23.5 4t-26.5 3.5t-24.5 1.5q-60 2 -125 -13t-123.5 -50t-104 -93t-66.5 -142z" />
    <glyph glyph-name="khokhonthai" unicode="&#xe05;" horiz-adv-x="2084" 
d="M501 0h-160v1652h215l485 -370l491 370h211v-1652h-160v1492l-541 -408l-541 409v-812q34 51 74.5 85.5t82 57t82 34.5t74.5 17t59 6t37 1q9 0 27.5 -1.5t40 -4.5t41.5 -7.5t32 -10.5l-41 -148q-5 1 -15.5 3t-23.5 3.5t-26.5 3t-24.5 2.5q-63 3 -128.5 -11.5t-123.5 -50
t-102 -94t-65 -142.5v-424z" />
    <glyph glyph-name="khorakhangthai" unicode="&#xe06;" horiz-adv-x="1997" 
d="M342 639q0 64 20.5 113.5t57 93.5t85.5 86.5t106 93.5q67 60 104 98t53.5 68.5t19.5 61t3 76.5v151l-278 -196l-317 220v178l317 -227l274 195h166v-324q0 -38 -1.5 -67.5t-8 -56t-21 -52.5t-40 -56t-64 -67.5t-94.5 -87.5q-52 -47 -93.5 -84t-70 -71.5t-43.5 -69
t-15 -74.5v-140q39 -81 100.5 -149.5t139.5 -118t168.5 -77t187.5 -27.5q44 0 90.5 5.5t90.5 21.5t83.5 44t69 72.5t47 107.5t17.5 149v1122h160v-1129q0 -139 -37 -241t-108.5 -169t-175.5 -99.5t-237 -32.5q-81 0 -155.5 13.5t-146.5 47.5t-144 92.5t-150 147.5v-281h-160
v639z" />
    <glyph glyph-name="ngonguthai" unicode="&#xe07;" horiz-adv-x="1480" 
d="M1139 352q0 -191 -113 -281.5t-325 -90.5q-81 0 -154.5 16t-138 42t-119.5 58.5t-99 64.5v172q78 -60 149 -101.5t135.5 -67t121.5 -36.5t107 -11q58 0 108 10t87.5 38.5t59 79.5t21.5 134v1123h-278v149h438v-1299z" />
    <glyph glyph-name="chochanthai" unicode="&#xe08;" horiz-adv-x="1638" 
d="M1137 519q-21 84 -66.5 142t-104 93t-123.5 50t-125 13q-11 0 -24.5 -1.5t-26.5 -3.5t-23.5 -4t-15.5 -3l-41 147q12 6 32 10.5t41.5 7.5t40 4.5t27.5 1.5q11 0 36 -0.5t58.5 -5.5t73 -16.5t81 -34t83 -57.5t77.5 -87v346q0 57 -2.5 109.5t-13 97t-31.5 80.5t-58.5 61.5
t-94 39.5t-137.5 14q-53 0 -119.5 -6t-144 -22.5t-163 -45.5t-175.5 -75v155q149 67 295.5 105t306.5 38q132 0 226 -23t154.5 -72.5t88.5 -128t28 -190.5v-1258h-160v519z" />
    <glyph glyph-name="chochingthai" unicode="&#xe09;" horiz-adv-x="1954" 
d="M344 974h160v-445q0 -85 16.5 -147.5t45 -107t66 -73t80 -44.5t86.5 -22t86 -6q100 0 192 32.5t167 85t129.5 119t80.5 135.5v618q0 54 -2.5 105.5t-16.5 96.5t-43 82t-82 63.5t-134.5 41.5t-199.5 15q-63 0 -141.5 -11t-163 -32t-169.5 -51t-160 -68v156q76 34 157.5 63
t166 49.5t170.5 32t170 11.5q140 0 252.5 -24t191.5 -76t121.5 -132.5t42.5 -192.5v-1248h-160v281q-79 -93 -155 -151.5t-147.5 -91.5t-138.5 -45.5t-128 -12.5q-263 0 -401.5 132t-138.5 410v452z" />
    <glyph glyph-name="chochangthai" unicode="&#xe0a;" horiz-adv-x="1930" 
d="M1047 1651h653v-150h-437q44 -34 80 -69.5t76 -88.5q45 -60 83.5 -133.5t66.5 -156t44 -174t16 -187.5q0 -152 -47.5 -282t-135 -225.5t-212 -150t-277.5 -54.5q-151 0 -274.5 47t-211 133t-135.5 206.5t-48 267.5q0 121 32.5 219t86.5 177t123.5 140.5t143.5 110.5v220
h-430v150h590v-442q-86 -50 -156.5 -105t-120.5 -123.5t-78 -153.5t-28 -193q0 -134 43 -229t113.5 -156t161.5 -90t188 -29q94 0 185 32t163 98.5t116.5 168t44.5 239.5q0 126 -24 241.5t-75 219.5t-130.5 195t-189.5 168v159z" />
    <glyph glyph-name="sosothai" unicode="&#xe0b;" horiz-adv-x="1981" 
d="M705 1481l-278 -196l-323 221v179l323 -229l274 195h166v-442q-86 -50 -156.5 -105t-120.5 -123.5t-78 -153.5t-28 -193q0 -134 43 -229t113.5 -156t161.5 -90t188 -29q94 0 185 28.5t163 92t116.5 166.5t44.5 251q0 126 -24 241.5t-75 219.5t-130.5 195t-189.5 168v159
h653v-150h-437q44 -34 80 -69.5t76 -88.5q55 -75 95 -156t65.5 -166t37.5 -172.5t12 -173.5q0 -155 -46 -283t-133 -219.5t-211.5 -142t-281.5 -50.5q-151 0 -274.5 47t-211 133t-135.5 206.5t-48 267.5q0 121 32.5 219t86 176.5t123 140t143.5 110.5z" />
    <glyph glyph-name="chochoethai" unicode="&#xe0c;" horiz-adv-x="2949" 
d="M1438 1076q0 111 -28 187.5t-71.5 126t-97.5 76.5t-106 40t-96.5 15t-68.5 2q-17 0 -46 -1t-65 -6.5t-76.5 -17t-80.5 -32.5t-76 -53t-64 -79t-44.5 -111t-16.5 -147v-927h251v-149h-411v1104q0 119 26 207.5t71 151.5t105.5 104t130.5 64.5t145 32.5t149 9t150 -9
t145.5 -32.5t130.5 -64t106.5 -104t71.5 -152t26 -207.5l1 -603q19 -62 62 -127t107.5 -118.5t147.5 -88.5t182 -38q79 1 143.5 20.5t110.5 63t71 114t25 172.5v1152h160v-1175q0 -103 -21 -180t-57 -132t-85.5 -90.5t-106 -56.5t-118 -29t-122.5 -8q-66 0 -133 17.5
t-131.5 54.5t-124 94t-110.5 137v-283h-161v1076z" />
    <glyph glyph-name="yoyingthai" unicode="&#xe0d;" horiz-adv-x="2848" 
d="M1421 1076q0 111 -27 187.5t-70 126t-95.5 76.5t-103.5 40t-95 15t-68 2q-17 0 -45.5 -1t-64 -6.5t-75.5 -17t-79 -32.5t-74.5 -53t-63 -79t-43.5 -111t-16 -147v-927h251v-149h-411v1108q0 119 25.5 207t69.5 151t103.5 103t128.5 63t143.5 32t148.5 9t149 -9t144 -32.5
t129 -64t104 -103.5t69.5 -151.5t25.5 -207.5v-372q0 -48 4.5 -91.5t18.5 -81.5t39 -69t65 -53t98.5 -34t138.5 -12q87 0 150.5 19t108 50t72.5 70t44 79t21.5 77t5.5 63v901h160v-1449q0 -122 -36.5 -217.5t-112 -161.5t-193 -101t-279.5 -35q-65 0 -124.5 6.5t-116 20
t-112.5 34t-113 49.5v156q60 -29 114.5 -51t110 -36.5t114.5 -22t127 -7.5q129 0 217 23t142 71.5t78 123t24 178.5v172q-32 -42 -73 -70t-85 -46t-88.5 -27t-84.5 -13t-72.5 -4h-52.5q-122 0 -211 30.5t-146.5 89t-85 143t-27.5 191.5v378z" />
    <glyph glyph-name="dochadathai" unicode="&#xe0e;" horiz-adv-x="1998" 
d="M1657 -541h-254q-68 74 -143.5 103.5t-164.5 29.5q-63 0 -114 -9t-98 -26t-93 -42t-100 -57v158q24 16 63.5 38t91 41t115 32.5t135.5 13.5q41 0 88 -6t98 -23.5t105.5 -49t110.5 -81.5v1465q0 113 -22.5 192.5t-60 132.5t-86 83t-101 45.5t-105 19.5t-97.5 4t-98 -4
t-105.5 -19.5t-101 -45.5t-86 -83t-60 -132.5t-22.5 -192.5v-1046h-409v149h249v954q0 116 25 204t69.5 151t105 104.5t131 66t147.5 34.5t155 10t155 -10t147 -34t130.5 -65.5t105 -105t69.5 -151t25 -204.5v-1644z" />
    <glyph glyph-name="topatakthai" unicode="&#xe0f;" horiz-adv-x="1998" 
d="M1657 -541h-236q-47 66 -106 102t-151 36q-73 0 -148 -31.5t-141 -107.5l-413 138v144l401 -125q40 42 83.5 67t83.5 38t75 17t59 4q27 0 64.5 -3.5t81 -19t91.5 -47t96 -86.5v1461q0 113 -22.5 192.5t-60 132.5t-86 83t-101 45.5t-105 19.5t-97.5 4t-98 -4t-105.5 -19.5
t-101 -45.5t-86 -83t-60 -132.5t-22.5 -192.5v-1046h-409v149h249v954q0 116 25 204t69.5 151t105 104.5t131 66t147.5 34.5t155 10t155 -10t147 -34t130.5 -65.5t105 -105t69.5 -151t25 -204.5v-1644z" />
    <glyph glyph-name="thothanthai" unicode="&#xe10;" horiz-adv-x="1638" 
d="M1138 -516q-14 21 -34 45t-48 45t-64.5 34.5t-82.5 13.5q-67 0 -130 -32t-127 -106l-280 117v164l268 -109q34 36 71 58t73 33.5t68 15t56 3.5q22 0 48 -2.5t54.5 -12.5t60.5 -28.5t67 -49.5v138h158v-327h-158zM1137 519q-21 84 -66.5 142t-104 93t-123.5 50t-125 13
q-11 0 -24.5 -1.5t-26.5 -3.5t-23.5 -4t-15.5 -3l-41 147q12 6 32 10.5t41.5 7.5t40 4.5t27.5 1.5q11 0 36 -0.5t58.5 -5.5t73 -16.5t81 -34t83 -57.5t77.5 -87v324q0 57 -2.5 109.5t-13 97t-31.5 80.5t-58.5 61.5t-94 39.5t-137.5 14q-53 0 -119.5 -6t-144 -22.5
t-163 -45.5t-175.5 -75v155q149 67 295 105.5t306 38.5h26h688v-150h-334q25 -23 46.5 -51t37.5 -68t25 -96t9 -135v-1151h-160v519z" />
    <glyph glyph-name="thonangmonthothai" unicode="&#xe11;" horiz-adv-x="1987" 
d="M1075 1526q57 56 105.5 85.5t89 42t73.5 14t59 1.5q74 0 121.5 -22t74.5 -70.5t37.5 -124.5t10.5 -184v-1268h-161v1199q0 79 -0.5 137.5t-11 97.5t-35.5 58.5t-75 19.5q-25 0 -50.5 -8.5t-50 -22t-47 -30.5t-40.5 -35l-534 -523q-45 -45 -73 -75t-43.5 -58.5t-20.5 -60
t-5 -79.5v-620h-162v620q0 72 8 118.5t30.5 85.5t62.5 80.5t104 103.5l163 159q15 20 23 37.5t12 36t4.5 40t0.5 49.5v151l-278 -196l-318 222v178l318 -229l274 195h155v-300z" />
    <glyph glyph-name="thophuthaothai" unicode="&#xe12;" horiz-adv-x="3075" 
d="M1581 1492l-540 -408l-540 409v-1332q81 46 155 105t132.5 122t96 125t45.5 113q7 51 -7 77t-38.5 36.5t-53 10t-49.5 -1.5l42 136q32 3 62.5 3.5t59.5 -3.5q78 -10 113 -61.5t35 -136.5q0 -61 -23.5 -124.5t-65 -126.5t-97.5 -124.5t-121 -117.5t-136.5 -105t-143.5 -88
h-166v1652h215l484 -370l490 370h211v-1151q17 -58 58.5 -122t104 -119t144.5 -91.5t181 -39.5q79 1 143 20.5t109 63t69 114t24 172.5v1152h160v-1175q0 -103 -20.5 -180t-56 -132t-84.5 -90.5t-105 -56.5t-117 -29t-122 -8q-66 0 -132 17t-128 53.5t-120 94t-108 138.5
v-283h-160v1492z" />
    <glyph glyph-name="nonenthai" unicode="&#xe13;" horiz-adv-x="2884" 
d="M2543 0h-161v283q-46 -75 -101 -132t-115 -95t-123.5 -57t-125.5 -19q-61 0 -120 9t-112.5 31.5t-98.5 59t-78 92t-51.5 130.5t-18.5 174v600q0 111 -28 187.5t-71.5 126t-97.5 76.5t-106 40t-96.5 15t-68.5 2q-17 0 -46 -1t-65 -6.5t-76.5 -17t-80.5 -32.5t-76 -53
t-64 -79t-44.5 -111t-16.5 -147v-927h251v-149h-411v1104q0 119 26 207.5t71 151.5t105.5 104t130.5 64.5t145 32.5t149 9t150 -9t146 -32.5t131 -64t106 -104t71 -152t26 -207.5v-605q0 -192 81.5 -280t237.5 -90q89 2 166 37.5t137 89t101.5 118.5t60.5 127v1150h161
v-1651z" />
    <glyph glyph-name="dodekthai" unicode="&#xe14;" horiz-adv-x="2079" 
d="M502 161q81 46 155 105t132.5 122t96 125t45.5 113q7 51 -7 77t-38.5 36.5t-53 10t-49.5 -1.5l42 136q32 3 62.5 3.5t59.5 -3.5q78 -10 113 -61.5t35 -136.5q0 -61 -23.5 -124.5t-65 -126.5t-97.5 -124.5t-121 -117.5t-136.5 -105t-143.5 -88h-167v1103q0 117 28 205
t77 151.5t116 104.5t144.5 65.5t162.5 34t170 9.5t170 -9.5t162.5 -34t144.5 -65.5t116.5 -104.5t77.5 -151.5t28 -205v-1103h-161v1046q0 105 -23 181.5t-63 129.5t-93 85.5t-112.5 50.5t-122.5 24t-123 6t-123 -6t-123 -24t-113 -50.5t-93 -85.5t-63 -129.5t-23 -181.5
v-885z" />
    <glyph glyph-name="totaothai" unicode="&#xe15;" horiz-adv-x="2082" 
d="M501 161q81 46 155 105t132.5 122t96 125t45.5 113q7 51 -7 77t-38.5 36.5t-53 10t-49.5 -1.5l42 136q32 3 62.5 3.5t59.5 -3.5q78 -10 113 -61.5t35 -136.5q0 -61 -23.5 -124.5t-65 -126.5t-97.5 -124.5t-121 -117.5t-136.5 -105t-143.5 -88h-166v1652h215l484 -370
l490 370h211v-1652h-160v1492l-540 -408l-540 409v-1332z" />
    <glyph glyph-name="thothungthai" unicode="&#xe16;" horiz-adv-x="1986" 
d="M1645 0h-160v1054q0 103 -20 178t-55.5 128t-83 85.5t-103 50.5t-116 23.5t-121.5 3.5l-485 -15v-1359h250v-149h-410v1662q77 1 146 2t147 2.5t174 3.5t227 4q75 0 149 -9.5t142 -34t126 -65t101 -103t67.5 -149t24.5 -201.5v-1112z" />
    <glyph glyph-name="thothahanthai" unicode="&#xe17;" horiz-adv-x="2009" 
d="M341 1651h160v-1440q22 39 45 79q20 34 43 71.5t44 68.5l848 1221h187v-1651h-160v1434q-23 -39 -46 -76q-20 -32 -41.5 -66.5t-38.5 -58.5l-870 -1233h-171v1651z" />
    <glyph glyph-name="thothongthai" unicode="&#xe18;" horiz-adv-x="1770" 
d="M463 199q152 -45 261 -57.5t180 -12.5q112 0 202 22.5t153 66t96.5 107.5t33.5 147t-40 138t-114.5 94.5t-181 70.5t-240.5 65q-105 27 -203 59.5t-174.5 80t-122.5 115.5t-46 165q0 95 40 171.5t117 130t190.5 82.5t259.5 29q90 0 169.5 -10.5t148 -26.5t126 -35
t103.5 -37v-160q-64 24 -125.5 45t-126.5 36.5t-137 25.5t-157 12h-34q-78 0 -150 -16t-127.5 -46t-88.5 -73t-33 -98q0 -61 23.5 -103t74.5 -74t131 -59t194 -58l248 -68q95 -26 177 -59.5t142.5 -83.5t95 -121t34.5 -171q0 -85 -23.5 -156t-65.5 -128t-98.5 -100
t-122.5 -71.5t-138 -43t-145 -14.5q-116 0 -217 9t-185 22.5t-150.5 30t-113.5 32.5v616h160v-491z" />
    <glyph glyph-name="nonuthai" unicode="&#xe19;" horiz-adv-x="2006" 
d="M341 1651h160v-1122q0 -86 17.5 -149t47 -107.5t69 -72.5t83.5 -44t90.5 -21.5t90.5 -5.5q97 0 189.5 27.5t172 77t142.5 118t102 149.5v1150h160v-1651h-160v281q-82 -92 -156.5 -150t-147 -92t-147 -46.5t-155.5 -12.5q-134 0 -237.5 32.5t-175 99.5t-108.5 169
t-37 241v1129z" />
    <glyph glyph-name="bobaimaithai" unicode="&#xe1a;" horiz-adv-x="1987" 
d="M1646 546q0 -120 -26.5 -208t-73 -151t-109.5 -103t-136 -63.5t-152 -32t-157 -8.5q-79 0 -157.5 9t-151 32t-135 63t-108.5 103t-72.5 151.5t-26.5 207.5v1105h160v-1065q0 -106 21 -181t57.5 -125.5t85 -80t103.5 -45t112.5 -20t112.5 -4.5t112.5 4.5t112.5 20
t103.5 45t85 80t58 125.5t21.5 181v1065h160v-1105z" />
    <glyph glyph-name="poplathai" unicode="&#xe1b;" horiz-adv-x="1987" 
d="M1646 546q0 -120 -26.5 -208t-73 -151t-109.5 -103t-136 -63.5t-152 -32t-157 -8.5q-79 0 -157.5 9t-151 32t-135 63t-108.5 103t-72.5 151.5t-26.5 207.5v1105h160v-1065q0 -106 21 -181t57.5 -125.5t85 -80t103.5 -45t112.5 -20t112.5 -4.5t112.5 4.5t112.5 20
t103.5 45t85 80t58 125.5t21.5 181v1721h160v-1761z" />
    <glyph glyph-name="phophungthai" unicode="&#xe1c;" horiz-adv-x="2083" 
d="M1043 731l-552 -730h-150v1650h410v-150h-254v-743q0 -141 -1 -241t-2 -165q-2 -76 -3 -125q48 69 88 127q17 25 34.5 49.5l32.5 45.5t26.5 36.5t16.5 22.5l351 459l354 -459q5 -7 16.5 -22.5t26 -36.5t32 -45.5t34.5 -49.5q40 -58 89 -127q-2 49 -3 125q-2 65 -2.5 165
t-0.5 241v893h156v-1650h-150z" />
    <glyph glyph-name="fofathai" unicode="&#xe1d;" horiz-adv-x="2083" 
d="M1043 731l-552 -730h-150v1650h410v-150h-254v-743q0 -141 -1 -241t-2 -165q-2 -76 -3 -125q48 69 88 127q17 25 34.5 49.5l32.5 45.5t26.5 36.5t16.5 22.5l351 459l354 -459q5 -7 16.5 -22.5t26 -36.5t32 -45.5t34.5 -49.5q40 -58 89 -127q-2 49 -3 125q-2 65 -2.5 165
t-0.5 241v1549h156v-2306h-150z" />
    <glyph glyph-name="phophanthai" unicode="&#xe1e;" horiz-adv-x="2488" 
d="M1244 1388q-7 -32 -13 -61q-5 -25 -12 -51.5t-13 -44.5l-438 -1230h-115l-477 1650h175l308 -1098q10 -35 21 -82t21 -90q11 -50 23 -103q15 50 30 98q13 42 28 87t27 79l387 1109h96l387 -1109q11 -34 26 -79t28 -87q15 -48 31 -98q12 53 23 103q10 43 21 90t21 82
l308 1098h175l-477 -1650h-115l-438 1230q-7 18 -13.5 44.5t-11.5 51.5q-6 29 -13 61z" />
    <glyph glyph-name="fofanthai" unicode="&#xe1f;" horiz-adv-x="2357" 
d="M1214 1428l-13 -78q-5 -32 -12 -63.5t-13 -49.5l-458 -1236h-115l-427 1650h175l260 -1098q4 -18 9 -39t10.5 -43.5t11 -46t10.5 -44.5q11 -50 24 -102q16 50 32 98q14 42 28.5 87t27.5 79l402 1109h96l403 -1109q12 -34 26 -74.5t27 -76.5l30 -84q16 93 30 176
q6 35 12 71.5t12 69.5l11 60.5t8 45.5l300 1493h165l-460 -2222h-115l-459 1236q-7 18 -13.5 49.5t-11.5 63.5z" />
    <glyph glyph-name="phosamphaothai" unicode="&#xe20;" horiz-adv-x="1998" 
d="M1657 0h-160v1046q0 113 -22.5 192.5t-60 132.5t-86 83t-101 45.5t-105 19.5t-97.5 4t-98 -4t-105.5 -19.5t-101 -45.5t-86 -83t-60 -132.5t-22.5 -192.5v-1046h-409v149h249v954q0 116 25 204t69.5 151t105 104.5t131 66t147.5 34.5t155 10t155 -10t147 -34t130.5 -65.5
t105 -105t69.5 -151t25 -204.5v-1103z" />
    <glyph glyph-name="momathai" unicode="&#xe21;" horiz-adv-x="2006" 
d="M1665 522q0 -139 -37 -241t-108.5 -169t-175.5 -99.5t-237 -32.5q-81 0 -155.5 12.5t-147 46.5t-147 92t-156.5 150v-281h-160v1651h160v-1150q39 -81 102 -149.5t142.5 -118t172 -77t189.5 -27.5q44 0 90.5 5.5t90.5 21.5t83.5 44t69 72.5t47 107.5t17.5 149v1122h160
v-1129z" />
    <glyph glyph-name="yoyakthai" unicode="&#xe22;" horiz-adv-x="1898" 
d="M861 833q-8 0 -25.5 0.5t-33.5 -1.5q-87 -8 -158 -33t-121 -67t-77.5 -102.5t-27.5 -139.5q0 -72 20 -127t55.5 -95t82.5 -66.5t101.5 -42.5t113 -22.5t115.5 -6.5q53 0 110 4t112 19t103.5 44t85.5 78t58.5 122t21.5 177v1077h160v-1100q0 -121 -26.5 -210.5t-73 -153
t-109 -104t-135 -63.5t-151.5 -31.5t-157 -8.5q-143 0 -262 28.5t-205.5 88.5t-134.5 153.5t-48 223.5q0 74 16.5 139.5t51 120t88 96.5t128.5 70v6q-89 31 -144.5 77t-86.5 100.5t-42 114t-11 118.5q0 74 26.5 139t74 113.5t114.5 76.5t148 28q29 0 61.5 -4.5t65 -12.5
t62.5 -19.5t54 -24.5v-147q-75 36 -134.5 45.5t-103.5 9.5q-54 0 -92 -18.5t-62 -51.5t-35.5 -78t-11.5 -97q0 -54 24.5 -107t72 -94t116 -66.5t155.5 -25.5h20.5h14t14.5 0.5t22 0.5v-150z" />
    <glyph glyph-name="roruathai" unicode="&#xe23;" horiz-adv-x="1450" 
d="M1138 1435q-44 19 -87 35t-88.5 28t-94.5 18.5t-106 6.5q-36 0 -76 -3.5t-80 -13t-76.5 -26t-64.5 -41.5t-44.5 -60.5t-16.5 -82.5q0 -57 24 -101.5t71 -84.5t115.5 -79.5t157.5 -84.5q134 -68 220.5 -126.5t137 -118t70 -126.5t19.5 -152q0 -90 -33 -170.5t-98 -141
t-161 -96t-222 -35.5q-125 0 -229.5 22.5t-204.5 69.5v180q53 -32 103.5 -54.5t103 -37.5t108.5 -22.5t119 -7.5q87 0 151 25.5t105.5 67t62 94t20.5 106.5q0 34 -4.5 64.5t-18.5 60.5t-39 59.5t-66.5 61.5t-101 67.5t-141.5 77.5q-91 46 -170.5 91.5t-139 101t-93.5 125
t-34 163.5q0 89 39 159t108.5 119t166 74.5t212.5 25.5q51 0 103 -6.5t101 -17.5t93 -25.5t79 -31.5v-157z" />
    <glyph glyph-name="ruthai" unicode="&#xe24;" horiz-adv-x="1986" 
d="M1645 -604h-160v1658q0 103 -20 178t-55.5 128t-83 85.5t-103 50.5t-116 23.5t-121.5 3.5l-485 -15v-1359h250v-149h-410v1662q77 1 146 2t147 2.5t174 3.5t227 4q75 0 149 -9.5t142 -34t126 -65t101 -103t67.5 -149t24.5 -201.5v-1716z" />
    <glyph glyph-name="lolingthai" unicode="&#xe25;" horiz-adv-x="1829" 
d="M1328 0v886q-126 -22 -245 -56t-223.5 -77.5t-191.5 -95.5t-150 -108t-97.5 -115.5t-34.5 -119.5q0 -20 2 -43.5t11 -45.5t26 -42t47 -33t74.5 -18t108.5 2q15 2 37 5t57 9v-133q-56 -22 -108.5 -28.5t-96.5 -6.5q-84 0 -145 26t-100.5 69.5t-59 99.5t-19.5 117
q0 131 78.5 244.5t223.5 207.5t349.5 167t456.5 122v108q0 56 -2.5 106.5t-16 93t-41.5 76.5t-79 57.5t-129 36t-191 12.5q-58 0 -126.5 -10t-142 -28.5t-149 -45t-146.5 -60.5v152q88 40 167 67.5t154.5 44t152 23.5t159.5 7q126 0 227.5 -23t173 -72.5t110.5 -128
t39 -190.5v-1259h-160z" />
    <glyph glyph-name="luthai" unicode="&#xe26;" horiz-adv-x="1998" 
d="M1657 -604h-160v1650q0 113 -22.5 192.5t-60 132.5t-86 83t-101 45.5t-105 19.5t-97.5 4t-98 -4t-105.5 -19.5t-101 -45.5t-86 -83t-60 -132.5t-22.5 -192.5v-1046h-409v149h249v954q0 116 25 204t69.5 151t105 104.5t131 66t147.5 34.5t155 10t155 -10t147 -34
t130.5 -65.5t105 -105t69.5 -151t25 -204.5v-1707z" />
    <glyph glyph-name="wowaenthai" unicode="&#xe27;" horiz-adv-x="1548" 
d="M231 1608q32 14 77 26t96 21t103.5 14t99.5 5q180 0 313.5 -63t222 -174.5t132 -264.5t43.5 -333q0 -113 -19.5 -220t-58.5 -202.5t-98 -175.5t-138 -138t-178.5 -90.5t-219.5 -32.5q-205 0 -350 63v143q27 -9 61 -19t77.5 -18.5t96 -14t115.5 -5.5q94 0 172 29
t139.5 79.5t107 119t75.5 147t45 163t15 168.5q0 144 -35.5 269.5t-105 218.5t-173.5 146t-240 53q-102 0 -197.5 -16t-177.5 -47v149z" />
    <glyph glyph-name="sosalathai" unicode="&#xe28;" horiz-adv-x="2023" 
d="M500 -1h-159v1087q0 117 27 204.5t74.5 150.5t112 103.5t139 64t155.5 33t162 9.5h858v-150h-400q41 -22 79.5 -57.5t68 -86.5t47.5 -118t18 -152v-1087h-160v1040q0 100 -23 173t-61.5 124.5t-90 83t-108 49.5t-115 24.5t-112.5 6.5q-55 0 -114 -6.5t-116 -24.5
t-108.5 -50.5t-90 -83.5t-61 -124t-21.5 -173v-264q36 52 77.5 87t83 57.5t81 34t73 16.5t58 5.5t36.5 0.5q9 0 27.5 -1.5t40 -4.5t41.5 -7.5t32 -10.5l-41 -147q-5 1 -15.5 3t-23.5 4t-26.5 3.5t-24.5 1.5q-60 2 -125 -13t-123.5 -50t-104 -93t-66.5 -142z" />
    <glyph glyph-name="sorusithai" unicode="&#xe29;" horiz-adv-x="1985" 
d="M996 902v279h160v-146h330v617h160v-617h259v-133h-259v-356q0 -120 -26.5 -208t-73 -151t-109.5 -103t-136 -63.5t-152 -32t-157 -8.5q-79 0 -157.5 9t-151 32t-135 63t-108.5 103t-72.5 151.5t-26.5 207.5v1106h160v-1066q0 -106 21 -181t57.5 -125.5t85 -80t103.5 -45
t112.5 -20t112.5 -4.5t112.5 4.5t112.5 20t103.5 45t85 80t58 125.5t21.5 181v316h-490z" />
    <glyph glyph-name="sosuathai" unicode="&#xe2a;" horiz-adv-x="1829" 
d="M1328 0v865q-126 -22 -245 -54.5t-223.5 -74t-191.5 -90t-150 -103t-97.5 -112.5t-34.5 -117q0 -20 2 -43.5t11 -45.5t26 -42t47 -33t74.5 -18t108.5 2q15 2 37 5t57 9v-133q-56 -22 -108.5 -28.5t-96.5 -6.5q-84 0 -145 26t-100.5 69.5t-59 99.5t-19.5 117
q0 131 78.5 241.5t223.5 200.5t349.5 159.5t456.5 118.5l-3 75q0 56 -2.5 109t-15 99.5t-40.5 84.5t-78.5 65.5t-128.5 42.5t-191 15q-58 0 -126.5 -10t-142 -28.5t-149 -45t-146.5 -60.5v152q88 40 167 67t154.5 43.5t152 23.5t159.5 7h767v-150h-373q34 -21 62 -54t48 -74
t31.5 -90.5t11.5 -103.5l3 -1180h-160z" />
    <glyph glyph-name="hohipthai" unicode="&#xe2b;" horiz-adv-x="1960" 
d="M341 1652h159v-1423q14 23 30 49q14 22 31 48.5t36 53.5l905 1272h184l-395 -557q172 -29 249.5 -160.5t78.5 -369.5l1 -566h-158v566q0 114 -20 188t-55.5 118.5t-83.5 65t-105 27.5l-684 -965h-173v1653z" />
    <glyph glyph-name="lochulathai" unicode="&#xe2c;" horiz-adv-x="2388" 
d="M1918 1141q28 99 5.5 170.5t-79.5 118t-141 67.5t-178 18q-10 0 -28 -0.5t-39 -2.5v135q26 2 50 2.5t47 0.5h665v-135h-282q38 -13 66 -39t46 -60t28 -73t13 -77t-0.5 -73t-10.5 -61l-325 -1131h-115l-398 1056q-7 18 -13.5 44.5t-11.5 51.5q-6 29 -13 61q-7 -32 -13 -61
q-5 -25 -12 -51.5t-13 -44.5l-398 -1056h-115l-477 1650h172l311 -1101q10 -35 21 -84t21 -94q11 -53 23 -108q15 53 30 104q13 43 28 90t27 81l347 898h96l347 -898q11 -34 26 -81t28 -90q15 -51 31 -104q11 55 22 108q10 45 21 94t22 84z" />
    <glyph glyph-name="oangthai" unicode="&#xe2d;" horiz-adv-x="1914" 
d="M328 1581q122 41 260.5 67t293.5 26q143 0 256.5 -31t199.5 -87.5t146.5 -135.5t98.5 -174t55.5 -204t17.5 -226q0 -176 -49.5 -329t-146 -265.5t-239.5 -177t-329 -64.5q-151 0 -295.5 40.5t-266.5 120.5v709h397v-149h-237v-474q23 -14 64.5 -31t95 -31.5t116.5 -25
t130 -10.5q150 -1 262.5 53t187 147t112 217t37.5 263q0 65 -9.5 143.5t-35 157.5t-69.5 153.5t-112 132t-163.5 92.5t-224.5 35q-84 0 -158 -6.5t-141 -18t-129.5 -28t-124.5 -35.5v146z" />
    <glyph glyph-name="honokhukthai" unicode="&#xe2e;" horiz-adv-x="1904" 
d="M328 1559q122 41 260.5 66.5t293.5 25.5h832v-150h-365q18 -10 42.5 -29t51 -43.5t51.5 -54t44 -59.5q64 -104 91 -231.5t27 -273.5q0 -174 -49.5 -325t-146 -263.5t-239.5 -177t-329 -64.5q-151 0 -295.5 40.5t-266.5 120.5v709h397v-149h-237v-474q23 -14 64.5 -31
t95 -31.5t116.5 -25t130 -10.5q150 -1 262.5 54t187 148t112 215.5t37.5 256.5q0 65 -9.5 142t-35 155t-69.5 150t-112 128t-163.5 89.5t-224.5 33.5q-84 0 -158 -6.5t-141 -18t-129.5 -28t-124.5 -35.5v146z" />
    <glyph glyph-name="paiyannoithai" unicode="&#xe2f;" horiz-adv-x="1949" 
d="M373 1197q0 -41 9 -87.5t30.5 -93.5t59 -90.5t95 -76.5t136.5 -53t185 -20q119 0 213 28.5t164 69t115.5 86t67.5 78.5v613h160v-1651h-160v869q-78 -80 -162 -128t-160.5 -73.5t-139.5 -34t-99 -8.5q-164 0 -290 42t-211.5 117t-129.5 178.5t-44 226.5q0 106 33 194.5
t94 153t146 100.5t189 36q18 0 43 -0.5t53 -5.5v-148q-14 2 -32.5 3t-28.5 1q-76 0 -138 -22t-106 -64t-68 -102.5t-24 -137.5z" />
    <glyph glyph-name="saraathai" unicode="&#xe30;" horiz-adv-x="1039" 
d="M191 1178v351h160v-199h585v-152h-745zM191 244v351h160v-199h585v-152h-745z" />
    <glyph glyph-name="maihanakatthai" unicode="&#xe31;" 
d="M-1161 2033v391h160v-239h895v-152h-1055z" />
    <glyph glyph-name="saraaathai" unicode="&#xe32;" horiz-adv-x="1241" 
d="M899 0h-160v1247q0 90 -15 145t-42.5 84.5t-67 39t-87.5 9.5q-20 0 -61.5 -3t-98 -13.5t-125 -30.5t-143.5 -53v137q102 55 210 83t218 28q87 0 157 -21t118 -64t73 -108t24 -153v-1327z" />
    <glyph glyph-name="saraamthai" unicode="&#xe33;" horiz-adv-x="1241" 
d="M899 0h-160v1247q0 90 -15 145t-42.5 84.5t-67 39t-87.5 9.5q-20 0 -61.5 -3t-98 -13.5t-125 -30.5t-143.5 -53v137q102 55 210 83t218 28q87 0 157 -21t118 -64t73 -108t24 -153v-1327zM-579 2184q0 -32 12.5 -60.5t33.5 -49.5t49.5 -33.5t60.5 -12.5t60.5 12.5
t49.5 33.5t33.5 49.5t12.5 60.5t-12.5 60.5t-33.5 49.5t-49.5 33.5t-60.5 12.5t-60.5 -12.5t-49.5 -33.5t-33.5 -49.5t-12.5 -60.5zM-723 2184q0 62 23.5 117t64 95.5t95.5 64t117 23.5t117 -23.5t95.5 -64t64 -95.5t23.5 -117t-23.5 -117t-64 -95.5t-95.5 -64t-117 -23.5
t-117 23.5t-95.5 64t-64 95.5t-23.5 117z" />
    <glyph glyph-name="saraithai" unicode="&#xe34;" 
d="M-1666 2033v152h1325v-152h-1325z" />
    <glyph glyph-name="saraiithai" unicode="&#xe35;" 
d="M-1664 2034v152h1163v297h160v-449h-1323z" />
    <glyph glyph-name="sarauethai" unicode="&#xe36;" 
d="M-673 2320q0 -31 11.5 -58t32 -47t47.5 -31.5t58 -11.5t58 11.5t47 31.5t31.5 47t11.5 58t-11.5 58t-31.5 47.5t-47 32t-58 11.5t-58 -11.5t-47.5 -32t-32 -47.5t-11.5 -58zM-811 2320q0 60 22.5 112t61.5 91t91 61.5t112 22.5q59 0 111 -22.5t91 -61.5t61.5 -91
t22.5 -112q0 -59 -22.5 -111t-61.5 -91t-91 -61.5t-111 -22.5h-1142v152h889q-34 62 -34 134z" />
    <glyph glyph-name="saraueethai" unicode="&#xe37;" 
d="M-720 2186h219v297h160v-449h-1323v152h784v297h160v-297z" />
    <glyph glyph-name="sarauthai" unicode="&#xe38;" 
d="M-341 -203v-477h-150v337h-216v140h366z" />
    <glyph glyph-name="sarauuthai" unicode="&#xe39;" 
d="M-1092 -342v139h286v-242q0 -26 12 -45.5t33.5 -32.5t51 -19.5t64.5 -6.5q69 0 111 26t42 78v242h150v-211q0 -26 -2.5 -55.5t-12 -58.5t-29 -56.5t-53.5 -48.5t-84.5 -33.5t-121.5 -12.5q-72 0 -123.5 12.5t-86 33.5t-55 48.5t-31 56.5t-13 58.5t-2.5 55.5v72h-136z" />
    <glyph glyph-name="phinthuthai" unicode="&#xe3a;" 
d="M-564 -322q0 30 11 56t30.5 45.5t45.5 31t55 11.5q30 0 56 -11.5t45.5 -31t31 -45.5t11.5 -56q0 -29 -11.5 -55t-31 -45.5t-45.5 -30.5t-56 -11q-29 0 -55 11t-45.5 30.5t-30.5 45.5t-11 55z" />
    <glyph glyph-name="uni0E3D" unicode="&#xe3d;" 
 />
    <glyph glyph-name="PUCR2005" unicode="&#xe3e;" 
 />
    <glyph glyph-name="bahtthai" unicode="&#xe3f;" horiz-adv-x="2001" 
d="M859 2167h126v-207h46q135 0 236 -36t168.5 -100t101 -153t33.5 -195q0 -46 -11.5 -105t-44.5 -118t-92.5 -111.5t-155.5 -84.5v-3q127 -20 210.5 -72t133 -123.5t70 -154.5t20.5 -165q0 -59 -12 -121.5t-39.5 -122.5t-72.5 -113.5t-110.5 -94t-153.5 -64t-201 -23.5
h-126v-319h-126v319h-458v1960h458v207zM1071 151q106 0 182 19.5t128 51.5t83 74t47 87.5t21 91.5t5 86q0 91 -34.5 165.5t-99.5 127.5t-158 81.5t-210 28.5h-50v-813h86zM546 151h313v813h-313v-813zM1006 1115q78 0 138.5 16.5t106 45t77 65t51 77t28.5 81t9 76.5
q0 60 -18 119.5t-63 107.5t-122 77.5t-195 29.5h-33v-695h21zM546 1115h313v695h-313v-695z" />
    <glyph glyph-name="saraethai" unicode="&#xe40;" horiz-adv-x="888" 
d="M364 1651h160v-1651h-160v1651z" />
    <glyph glyph-name="saraaethai" unicode="&#xe41;" horiz-adv-x="1520" 
d="M364 1651h160v-1651h-160v1651zM996 1651h160v-1651h-160v1651z" />
    <glyph glyph-name="saraothai" unicode="&#xe42;" horiz-adv-x="985" 
d="M401 1500q0 114 -14.5 201.5t-40.5 154t-61 114t-75.5 82t-85 58.5t-89.5 44q5 90 45 161t101.5 120.5t138.5 75.5t157 26q119 0 219.5 -32t181.5 -80l-37 -129q-65 29 -110 47t-82.5 27.5t-73.5 13t-84 3.5q-24 0 -62 -6t-77 -24.5t-73.5 -52.5t-50.5 -89
q95 -55 159 -124.5t102.5 -157t55 -195t16.5 -237.5v-1353h232v-148h-392v1500z" />
    <glyph glyph-name="saraaimaimuanthai" unicode="&#xe43;" horiz-adv-x="985" 
d="M695 2215q-15 80 -75 126.5t-166 46.5q-14 0 -46.5 -4.5t-69 -19.5t-69.5 -44t-47 -79h-160q15 78 56 134t97.5 92t121 53t125.5 17q86 0 158 -24.5t125 -70.5t86 -113t42 -152q-50 -28 -92 -57.5t-77 -67t-61.5 -86.5t-44.5 -115t-27.5 -152.5t-9.5 -198.5v-1352h232
v-148h-392v1501q0 138 17 246.5t53 194t91.5 152.5t132.5 121z" />
    <glyph glyph-name="saraaimaimalaithai" unicode="&#xe44;" horiz-adv-x="985" 
d="M401 1460q0 105 3 193.5t12.5 165t27 143t46.5 126.5q17 35 36.5 67t44.5 64t57 65.5t74 71.5l-5 8q-45 -18 -92.5 -28.5t-89 -16t-72 -6.5t-41.5 -1q-23 0 -68 2t-101.5 10.5t-119.5 27t-122 51.5l44 131q56 -24 111 -38t104 -21.5t89 -9.5t66 -2q23 0 62.5 3t91 11
t112 23.5t126.5 40.5l91 -192q-78 -59 -143.5 -131t-109.5 -172q-23 -53 -37.5 -109.5t-22.5 -120.5t-11 -138t-3 -161v-1369h232v-148h-392v1460z" />
    <glyph glyph-name="lakkhangyaothai" unicode="&#xe45;" horiz-adv-x="1240" 
d="M898 -604h-160v1851q0 90 -15 145t-42.5 84.5t-67 39t-87.5 9.5q-20 0 -61.5 -3t-98 -13.5t-125 -30.5t-143.5 -53v137q102 55 210 83t218 28q87 0 157 -21t118 -64t73 -108t24 -153v-1931z" />
    <glyph glyph-name="maiyamokthai" unicode="&#xe46;" horiz-adv-x="1801" 
d="M881 1120l-371 285q-13 10 -23 19t-17 17q-9 9 -15 16v-698l-153 -1v894h129l451 -348l448 348h130v-1785q0 -92 -23 -164.5t-64.5 -129t-98.5 -99.5t-126 -76l-68 141q72 35 116.5 72t69 77.5t33 84.5t7.5 93v1591q-6 -7 -15 -16q-8 -8 -18 -17t-22 -18z" />
    <glyph glyph-name="maitaikhuthai" unicode="&#xe47;" 
d="M-631 2003q-24 -1 -60 2t-75.5 15.5t-78.5 38.5t-69 71q-30 -45 -68.5 -70.5t-79 -38t-78 -15t-65.5 -2.5q-100 0 -169.5 24.5t-113 65.5t-63.5 95.5t-20 113.5q0 84 28.5 142t81 94.5t126.5 52.5t165 16h777v-147h-776q-43 0 -86 -3.5t-77.5 -19t-56 -47t-21.5 -88.5
q0 -49 22 -79.5t54 -48t67.5 -23.5t63.5 -6q65 0 106.5 14.5t66.5 37t36.5 50.5t17.5 55h124q6 -27 16 -55t33 -50.5t63 -37t105 -14.5q23 0 55 3.5t66 13.5t66 28.5t55 47.5v-170q-16 -14 -41 -25.5t-56.5 -20t-67.5 -14t-73 -6.5z" />
    <glyph glyph-name="maiekthai" unicode="&#xe48;" 
d="M-503 2725v389h160v-389h-160z" />
    <glyph glyph-name="maithothai" unicode="&#xe49;" 
d="M-829 2877q59 24 96 62t36 80q0 28 -7.5 46t-25.5 28t-49.5 11t-79.5 -5v120q18 3 31.5 5t27 3.5t30 3t40.5 2.5q46 1 81 -12t58.5 -37.5t35.5 -57.5t12 -70q0 -14 -3 -35.5t-12 -46t-26.5 -49.5t-47.5 -45q61 -10 112.5 -12.5t96.5 -2.5q38 0 79.5 4.5t83.5 13.5
t82.5 22t76.5 29v-129q-29 -19 -73 -34t-97 -25t-110.5 -15.5t-112.5 -5.5q-84 0 -172 11t-163 34v107z" />
    <glyph glyph-name="maitrithai" unicode="&#xe4a;" 
d="M-660 2961q-2 19 -9.5 37t-21 32.5t-32 23t-42.5 8.5q-17 0 -34.5 -6.5t-32 -21t-23.5 -36.5t-9 -53q0 -39 15 -63t37.5 -35.5t49.5 -12t51 5.5v-114q-17 -4 -37 -5t-34 -1q-71 0 -116 24t-70 59.5t-34 75t-9 71.5q0 49 17.5 92.5t49.5 75.5t76 50.5t97 18.5
q39 0 67.5 -9t48.5 -22t31.5 -27.5t17.5 -24.5q5 10 17 24.5t31.5 27.5t47.5 22t66 9q53 0 96.5 -12.5t74 -37t47 -61t16.5 -83.5q0 -41 -14.5 -82t-57.5 -73q36 5 73 15t70.5 23t61 26t45.5 24v-120q-96 -51 -184 -68.5t-173 -17.5h-23.5t-33 1t-33 2t-23.5 3v106
q26 0 53 8t48.5 24.5t35 40.5t13.5 56q0 26 -9 45t-23 31.5t-31 18.5t-34 6q-24 0 -42.5 -8.5t-31.5 -23t-21 -32.5t-10 -37h-106z" />
    <glyph glyph-name="maichattawathai" unicode="&#xe4b;" 
d="M-730 3063h237v196h150v-196h236v-144h-236v-195h-150v195h-237v144z" />
    <glyph glyph-name="thanthakhatthai" unicode="&#xe4c;" 
d="M-195 2895q-57 0 -111 -11.5t-97 -35.5t-69 -60.5t-27 -85.5q-1 -42 15 -67.5t40 -39t52 -18t51 -4.5v-130q-155 0 -238 65.5t-83 186.5q0 56 20.5 102t55.5 82t81.5 62t98.5 43t106 25t105 8v-122z" />
    <glyph glyph-name="nikhahitthai" unicode="&#xe4d;" 
d="M-579 2184q0 -32 12.5 -60.5t33.5 -49.5t49.5 -33.5t60.5 -12.5t60.5 12.5t49.5 33.5t33.5 49.5t12.5 60.5t-12.5 60.5t-33.5 49.5t-49.5 33.5t-60.5 12.5t-60.5 -12.5t-49.5 -33.5t-33.5 -49.5t-12.5 -60.5zM-723 2184q0 62 23.5 117t64 95.5t95.5 64t117 23.5
t117 -23.5t95.5 -64t64 -95.5t23.5 -117t-23.5 -117t-64 -95.5t-95.5 -64t-117 -23.5t-117 23.5t-95.5 64t-64 95.5t-23.5 117z" />
    <glyph glyph-name="yamakkanthai" unicode="&#xe4e;" 
d="M-598 2283q0 -42 16 -67.5t40 -39t51.5 -18t50.5 -4.5v-130q-155 0 -238 65.5t-83 186.5q0 87 47 148.5t119 100.5q-65 63 -65 170q0 56 20.5 102t55.5 82t81.5 62t98.5 43t106.5 25t104.5 8v-122q-57 0 -112.5 -11t-100 -34.5t-72.5 -61t-29 -91.5q-1 -60 23.5 -92
t61.5 -39v-111q-81 -10 -128.5 -57t-47.5 -115z" />
    <glyph glyph-name="fongmanthai" unicode="&#xe4f;" horiz-adv-x="1925" 
d="M110 817q0 118 30.5 227t86 203.5t133.5 172.5t172.5 133.5t203.5 86t227 30.5t227 -30.5t203.5 -86t172.5 -133.5t133.5 -172.5t86 -203.5t30.5 -227t-30.5 -227t-86 -203.5t-133.5 -172.5t-172.5 -133.5t-203.5 -86t-227 -30.5t-227 30.5t-203.5 86t-172.5 133.5
t-133.5 172.5t-86 203.5t-30.5 227zM573 817q0 81 30.5 152t83.5 124t124 83.5t152 30.5t152 -30.5t124 -83.5t83.5 -124t30.5 -152t-30.5 -152t-83.5 -124t-124 -83.5t-152 -30.5t-152 30.5t-124 83.5t-83.5 124t-30.5 152zM266 816q0 -96 25 -185t70 -166t109 -141
t141 -109t166 -70t185 -25t185 25t166 70t141 109t109 141t70 166t25 185t-25 185t-70 166t-109 141t-141 109t-166 70t-185 25t-185 -25t-166 -70t-141 -109t-109 -141t-70 -166t-25 -185zM724 817q0 -50 19 -93.5t51 -75.5t75.5 -51t93.5 -19q49 0 93 19t76 51t51 75.5
t19 93.5q0 49 -19 93t-51 76t-76 51t-93 19q-50 0 -93.5 -19t-75.5 -51t-51 -76t-19 -93z" />
    <glyph glyph-name="zerothai" unicode="&#xe50;" horiz-adv-x="2309" 
d="M1159 1492q110 0 215 -23.5t199 -68.5t172.5 -111t135.5 -150.5t89 -187t32 -220.5q0 -165 -64.5 -304t-178.5 -239.5t-269.5 -156.5t-338.5 -56q-120 0 -229 25.5t-203 72.5t-169.5 114.5t-129.5 151.5t-83 183t-29 209q0 118 32 220.5t89.5 187t136.5 150.5t173.5 111
t201 68.5t218.5 23.5zM1155 120q75 0 155 14t156 44.5t144.5 78.5t119.5 116t81 157t30 202q0 101 -27.5 186t-75.5 153.5t-114 120t-142.5 85.5t-161 51.5t-169.5 17.5q-83 0 -166 -17.5t-159 -51.5t-141 -85.5t-113.5 -120t-76 -153.5t-27.5 -186q0 -113 30 -202
t81.5 -157t119.5 -116t144.5 -78.5t156.5 -44.5t155 -14z" />
    <glyph glyph-name="onethai" unicode="&#xe51;" horiz-adv-x="2309" 
d="M333 241q160 -51 320 -83t329 -32q157 0 279 30.5t213.5 81.5t154.5 118t102.5 140.5t57 148.5t17.5 142q0 68 -15.5 136.5t-50 131t-89 116.5t-132 94t-180 62.5t-232.5 22.5q-68 0 -141.5 -9t-142.5 -22.5t-127.5 -29.5t-95.5 -31v-367h203v-145h-362v623
q153 54 329.5 89t373.5 37q207 3 361.5 -50.5t257 -150t153 -230t50.5 -291.5q0 -164 -68 -308t-194 -252t-303.5 -170.5t-396.5 -62.5q-82 0 -171 9t-176.5 24.5t-170.5 36.5t-153 44v147z" />
    <glyph glyph-name="twothai" unicode="&#xe52;" horiz-adv-x="2309" 
d="M1314 842l-579 434v204l584 -437l521 421h189v-911q0 -106 -37.5 -190t-102 -148.5t-150.5 -110.5t-182.5 -75.5t-198.5 -43.5t-199 -14t-200 14t-200.5 43.5t-184.5 75.5t-152.5 111t-103.5 149t-38 189v1329h159v-1287q0 -97 35 -170t92.5 -126t132.5 -88.5t155 -56
t159.5 -29t145.5 -8.5q68 0 147 8.5t158 29t152 56t129.5 88.5t90 126t33.5 170v685z" />
    <glyph glyph-name="threethai" unicode="&#xe53;" horiz-adv-x="2309" 
d="M1973 0h-159v1259l-658 -490l-661 491v-947q0 -59 27.5 -93.5t69 -52t91 -22.5t93.5 -5v-145h-22q-74 0 -148.5 10.5t-134.5 43t-97.5 93.5t-37.5 161v1161h149l671 -489l672 489h145v-1464z" />
    <glyph glyph-name="fourthai" unicode="&#xe54;" horiz-adv-x="2309" 
d="M1182 481q0 -64 28.5 -116t78.5 -94t118.5 -76t149.5 -62q112 9 209.5 24t200.5 34v-130q-46 -12 -104 -23t-123 -20t-135 -15.5t-139.5 -11t-136 -6.5t-124.5 -1q-228 4 -401.5 64t-290.5 161.5t-176.5 236.5t-59.5 288q0 161 67 299t193 238.5t306.5 157.5t406.5 57
q98 0 195.5 -7t189 -19.5t175.5 -30t155 -38.5v-149q-162 47 -325 73t-339 26q-168 0 -297 -27.5t-224.5 -74t-161 -108t-105.5 -129t-57.5 -137t-17.5 -132.5q0 -123 50 -233t155.5 -193.5t269.5 -132t392 -48.5q-50 18 -100.5 49.5t-91 76t-66 102.5t-25.5 130
q0 81 26.5 140.5t73 99t109 58.5t133.5 19q12 0 27.5 -1t32 -2.5t33 -4t30.5 -5.5v-126q-29 5 -53.5 7.5t-50.5 2.5q-35 0 -70.5 -8t-64.5 -30t-47.5 -59t-18.5 -94z" />
    <glyph glyph-name="fivethai" unicode="&#xe55;" horiz-adv-x="2309" 
d="M1499 1476q62 -6 127 -15t127 -20t119 -23.5t104 -26.5v-149q-162 47 -325 73t-339 26q-167 0 -296.5 -27.5t-225 -74t-161 -108t-105.5 -129t-57.5 -137t-17.5 -132.5q0 -123 50 -233t157 -193.5t273.5 -132.5t400.5 -49q-50 18 -103 49.5t-96 76.5t-70.5 103t-27.5 130
q0 81 26.5 140.5t73 99t109 58.5t133.5 19q12 0 27.5 -1t32 -2.5t33 -4t30.5 -5.5v-126q-29 5 -53.5 7.5t-50.5 2.5q-35 0 -70.5 -8t-64.5 -30t-47.5 -59t-18.5 -94q0 -64 28.5 -116t78.5 -94t118.5 -76t149.5 -62q112 9 209.5 24t200.5 34v-130q-46 -12 -104 -23t-123 -20
t-135 -15.5t-139.5 -11t-136 -6.5t-124.5 -1q-228 4 -401.5 64t-290.5 161.5t-176.5 236.5t-59.5 288q5 145 65.5 271.5t168.5 224t260 161.5t340 85q-35 25 -58 71.5t-23 97.5q0 53 21.5 99.5t58 81t86 54.5t105.5 20q61 0 111.5 -21t85.5 -55.5t54.5 -79t19.5 -90.5
q0 -64 -22.5 -109.5t-61.5 -68.5zM1184 1629q0 -26 10 -49.5t27.5 -41t41 -27.5t49.5 -10t49.5 10t41 27.5t27.5 41t10 49.5t-10 49.5t-27.5 41t-41 27.5t-49.5 10t-49.5 -10t-41 -27.5t-27.5 -41t-10 -49.5z" />
    <glyph glyph-name="sixthai" unicode="&#xe56;" horiz-adv-x="2309" 
d="M596 1432q114 26 237.5 42.5t244.5 16.5q198 0 353.5 -52.5t262.5 -148.5t163.5 -230.5t56.5 -297.5q0 -111 -27.5 -212t-81 -187.5t-132 -157t-181 -121t-228.5 -78.5t-273 -30q-102 0 -188.5 11t-156 29t-122.5 40.5t-88 44.5v160q119 -63 255 -101.5t300 -38.5
q88 0 179 18t175.5 53.5t159 88t130 122t87.5 155.5t32 188q0 136 -44 246.5t-137.5 189.5t-240 122t-350.5 43q-63 0 -130.5 -7.5t-136.5 -19t-139.5 -26.5t-139.5 -30v618h160v-450z" />
    <glyph glyph-name="seventhai" unicode="&#xe57;" horiz-adv-x="2307" 
d="M1332 0v1252l-511 -486l-511 487v-1253h-159v1464h169l501 -487l502 487h165v-1319q156 0 255.5 23t156.5 67t78 107.5t21 143.5v1395h157v-1395q0 -95 -24.5 -168t-66 -127t-97.5 -90.5t-118.5 -59t-129 -32t-129.5 -9.5h-259z" />
    <glyph glyph-name="eightthai" unicode="&#xe58;" horiz-adv-x="2309" 
d="M486 690q0 -31 2 -71t9.5 -85t22.5 -94t41 -97.5t65.5 -95t95.5 -86.5l449 393l453 -396q116 47 166.5 119t50.5 176q0 132 -46.5 203.5t-143.5 73.5v137q10 1 11.5 0.5t10.5 -0.5q74 0 133 -28.5t100.5 -82.5t63.5 -133t22 -179q0 -65 -19.5 -136.5t-66 -137
t-122.5 -117.5t-188 -77l-424 387l-423 -384q-122 54 -203.5 131t-131 169.5t-70.5 195.5t-21 210q0 169 57.5 315t174.5 254t293.5 170t415.5 62q104 0 209 -8t202.5 -21.5t183 -31.5t150.5 -37v-152q-74 19 -164.5 38t-189 33.5t-200 23.5t-195.5 9q-152 0 -268.5 -29
t-202.5 -78t-144 -114t-93.5 -137t-50.5 -147.5t-15 -144.5z" />
    <glyph glyph-name="ninethai" unicode="&#xe59;" horiz-adv-x="2309" 
d="M1344 1051q-2 89 17 155.5t49.5 113.5t66.5 77.5t69 47.5q52 27 117 35.5t127 5t114.5 -15.5t79.5 -27v-141q-43 14 -90 28t-96 19t-98.5 -3t-97.5 -38q-36 -23 -64 -62t-46.5 -97t-27.5 -137t-6 -181l439 -831h-168l-693 1320q-38 5 -78 8t-78 3q-131 0 -225 -40
t-155 -114.5t-90 -181t-29 -239.5q0 -83 9 -165.5t31 -156.5t58.5 -136t90.5 -102q49 -37 104.5 -52.5t108.5 -18t101 5t84 17.5v-145q-33 -9 -77 -14t-91.5 -5t-95.5 5.5t-90 16.5q-85 23 -157 82.5t-124.5 154t-82 223.5t-29.5 290q0 172 41 306t123.5 226.5t206.5 140.5
t289 48q36 0 67 -1t60.5 -3t59.5 -5t63 -6z" />
    <glyph glyph-name="angkhankhuthai" unicode="&#xe5a;" horiz-adv-x="2436" 
d="M1935 1651h160v-1651h-160v1651zM373 1197q0 -41 9 -87.5t30.5 -93.5t59 -90.5t95 -76.5t136.5 -53t185 -20q119 0 213 28.5t164 69t115.5 86t67.5 78.5v613h160v-1651h-160v869q-78 -80 -162 -128t-160.5 -73.5t-139.5 -34t-99 -8.5q-164 0 -290 42t-211.5 117
t-129.5 178.5t-44 226.5q0 106 33 194.5t94 153t146 100.5t189 36q18 0 43 -0.5t53 -5.5v-148q-14 2 -32.5 3t-28.5 1q-76 0 -138 -22t-106 -64t-68 -102.5t-24 -137.5z" />
    <glyph glyph-name="khomutthai" unicode="&#xe5b;" horiz-adv-x="3309" 
d="M2740 860q-12 -13 -35.5 -41.5t-51 -65t-56.5 -76t-53 -75.5q-60 95 -109 170t-95 137q-48 -82 -100.5 -175t-105.5 -202q-32 63 -69 125t-74 119.5t-71.5 108t-61.5 89.5q4 -90 -5 -175t-26 -153q-18 -75 -51 -153t-82 -151.5t-114 -139t-147.5 -114t-182.5 -77
t-219 -28.5q-136 0 -247.5 33t-199 90.5t-152 134t-107 163.5t-63 179t-20.5 181q0 151 41.5 282t121.5 228t196.5 152.5t265.5 55.5q138 0 235 -38.5t158.5 -102.5t90 -146.5t28.5 -169.5q0 -103 -28.5 -177t-75.5 -124t-109 -78t-129 -39l-1 167q32 0 64.5 14.5t59 45
t43 78t16.5 113.5q0 58 -23 113.5t-67 99.5t-107.5 71t-145.5 27q-91 0 -176.5 -34t-151.5 -102.5t-106 -173t-40 -245.5q0 -88 21 -170.5t60.5 -155t95.5 -132.5t126 -103.5t152 -67.5t174 -24q149 0 275.5 60t219.5 171t145.5 268.5t52.5 351.5q0 53 -1 107t-5 111h142
q43 -54 76.5 -98.5t64.5 -89t62.5 -93t70.5 -110.5q56 103 106 191.5t92 160.5q51 -72 105.5 -153.5t107.5 -162.5q38 48 74 91t56 65l12.5 12.5t13 9.5t19.5 5.5t31 1.5h394v-143h-352q-17 0 -27.5 -4t-25.5 -20z" />
    <glyph glyph-name="uni0E74" unicode="&#xe74;" 
 />
    <glyph glyph-name="ZWSP" unicode="&#x200b;" 
 />
    <glyph glyph-name="endash" unicode="&#x2013;" horiz-adv-x="1511" 
d="M-19 1115h1549v-164h-1549v164z" />
    <glyph glyph-name="emdash" unicode="&#x2014;" horiz-adv-x="3023" 
d="M-19 1115h3061v-164h-3061v164z" />
    <glyph glyph-name="quoteleft" unicode="&#x2018;" horiz-adv-x="819" 
d="M562 1651q0 -33 -11.5 -59t-31 -45t-45 -29t-53.5 -10q-36 0 -66.5 15.5t-52 43t-33.5 66t-12 84.5q0 71 21.5 132t59 108.5t88 80t108.5 47.5v-67q-60 -25 -86 -62t-26 -74q0 -29 6.5 -54t20.5 -42q22 -6 42.5 -17.5t36 -28t25 -39t9.5 -50.5z" />
    <glyph glyph-name="quoteright" unicode="&#x2019;" horiz-adv-x="819" 
d="M257 1942q0 33 11.5 59t31 45t45 29t53.5 10q36 0 66.5 -15.5t52 -43.5t33.5 -66t12 -84q0 -71 -21.5 -132t-59 -108.5t-88 -80t-108.5 -47.5v67q60 25 86 62t26 74q0 29 -6.5 54t-20.5 42q-22 6 -42.5 17.5t-36 28t-25 39t-9.5 50.5z" />
    <glyph glyph-name="quotedblleft" unicode="&#x201c;" horiz-adv-x="1540" 
d="M670 1651q0 -33 -11.5 -59t-31 -45t-45 -29t-53.5 -10q-36 0 -66.5 15.5t-52 43t-33.5 66t-12 84.5q0 71 21.5 132t59 108.5t88 80t108.5 47.5v-67q-60 -25 -86 -62t-26 -74q0 -29 6.5 -54t20.5 -42q22 -6 42.5 -17.5t36 -28t25 -39t9.5 -50.5zM1175 1651
q0 -33 -11.5 -59t-31 -45t-45 -29t-53.5 -10q-36 0 -66.5 15.5t-52 43t-33.5 66t-12 84.5q0 71 21.5 132t59 108.5t88 80t108.5 47.5v-67q-60 -25 -86 -62t-26 -74q0 -29 6.5 -54t20.5 -42q22 -6 42.5 -17.5t36 -28t25 -39t9.5 -50.5z" />
    <glyph glyph-name="quotedblright" unicode="&#x201d;" horiz-adv-x="1540" 
d="M870 1942q0 33 11.5 59t31 45t45 29t53.5 10q36 0 66.5 -15.5t52 -43.5t33.5 -66t12 -84q0 -71 -21.5 -132t-59 -108.5t-88 -80t-108.5 -47.5v67q60 25 86 62t26 74q0 29 -6.5 54t-20.5 42q-22 6 -42.5 17.5t-36 28t-25 39t-9.5 50.5zM365 1942q0 33 11.5 59t31 45t45 29
t53.5 10q36 0 66.5 -15.5t52 -43.5t33.5 -66t12 -84q0 -71 -21.5 -132t-59 -108.5t-88 -80t-108.5 -47.5v67q60 25 86 62t26 74q0 29 -6.5 54t-20.5 42q-22 6 -42.5 17.5t-36 28t-25 39t-9.5 50.5z" />
    <glyph glyph-name="bullet" unicode="&#x2022;" horiz-adv-x="1408" 
d="M356 891q0 72 27.5 135.5t74.5 110.5t110.5 74.5t135.5 27.5t135.5 -27.5t110.5 -74.5t74.5 -110.5t27.5 -135.5t-27.5 -135.5t-74.5 -110.5t-110.5 -74.5t-135.5 -27.5t-135.5 27.5t-110.5 74.5t-74.5 110.5t-27.5 135.5z" />
    <glyph glyph-name="Euro" unicode="&#x20ac;" horiz-adv-x="1783" 
d="M138 886h230q-2 29 -3.5 58.5t-1.5 58.5q0 63 6 134h-266l35 143h252q19 95 52 191.5t83 185.5t116.5 166.5t153.5 134.5t194 90t237 33q118 0 216 -14.5t183 -54.5l-37 -143q-78 30 -159.5 43t-180.5 13q-149 0 -263.5 -50.5t-198 -138t-137 -205t-79.5 -251.5h917
l-34 -143h-902q-6 -68 -6 -135q0 -30 1 -58.5t4 -57.5h937l-34 -143h-883q28 -138 85.5 -252.5t139 -197t185 -128.5t224.5 -46q79 0 130.5 6t93 18t81 29t95.5 40v-143q-34 -19 -71.5 -37t-86.5 -32t-113.5 -22.5t-151.5 -8.5q-116 0 -214.5 30t-180 83.5t-147 126.5
t-115 159t-83.5 181.5t-53 193.5h-285z" />
    <glyph glyph-name="trademark" unicode="&#x2122;" horiz-adv-x="2774" 
d="M657 2017h-382v127h910v-127h-373v-1012h-155v1012zM1400 2144h272l273 -922h9l273 922h272v-1139h-153v1025h-16l-318 -1025h-128l-315 1025h-16v-1025h-153v1139z" />
    <glyph glyph-name="uni25CC" unicode="&#x25cc;" horiz-adv-x="1928" 
d="M744 516l-136 -44l48 136q37 -55 88 -92zM895 1187l67 129l63 -125q-30 3 -59 3q-34 0 -71 -7zM1021 450l-59 -122l-58 122q28 -7 62 -7q29 0 55 7zM1338 881l118 -63l-118 -55q4 26 4 55q0 33 -4 63zM598 760l-130 66l130 62q-5 -33 -5 -70q0 -29 5 -58zM663 1043
l-37 133l130 -45q-56 -36 -93 -88zM1264 589l37 -117l-118 36q48 34 81 81zM1180 1131l139 45l-47 -137q-37 52 -92 92z" />
    <glyph glyph-name="thothannobasethai" unicode="&#xf700;" horiz-adv-x="1638" 
d="M1137 519q-21 84 -66.5 142t-104 93t-123.5 50t-125 13q-11 0 -24.5 -1.5t-26.5 -3.5t-23.5 -4t-15.5 -3l-41 147q12 6 32 10.5t41.5 7.5t40 4.5t27.5 1.5q11 0 36 -0.5t58.5 -5.5t73 -16.5t81 -34t83 -57.5t77.5 -87v324q0 57 -2.5 109.5t-13 97t-31.5 80.5t-58.5 61.5
t-94 39.5t-137.5 14q-53 0 -119.5 -6t-144 -22.5t-163 -45.5t-175.5 -75v155q149 67 295 105.5t306 38.5h26h688v-150h-334q25 -23 46.5 -51t37.5 -68t25 -96t9 -135v-1151h-160v519z" />
    <glyph glyph-name="yoyingnobasethai" unicode="&#xf70f;" horiz-adv-x="2848" 
d="M2347 1651h160v-1147q-2 -123 -33.5 -220.5t-97.5 -165t-169 -103.5t-246 -36t-245 36t-167.5 103.5t-96.5 164.5t-31 219v574q0 111 -27 187.5t-70 126t-95.5 76.5t-103.5 40t-95 15t-68 2q-17 0 -45.5 -1t-64 -6.5t-75.5 -17t-79 -32.5t-74.5 -53t-63 -79t-43.5 -111
t-16 -147v-927h251v-149h-411v1108q0 119 25.5 207t69.5 151t103.5 103t128.5 63t143.5 32t148.5 9t149 -9t144 -32.5t129 -64t104 -103.5t69.5 -151.5t25.5 -207.5v-568q0 -48 3.5 -96.5t15.5 -94.5t37 -86t67 -69.5t105.5 -47t153.5 -17.5q89 0 152.5 17t106 47t67.5 70
t38 85.5t16.5 94.5t3.5 96v1115z" />
    <glyph glyph-name="saraulowthai" unicode="&#xf718;" 
d="M-341 -656v-477h-150v337h-216v140h366z" />
    <glyph glyph-name="sarauulowthai" unicode="&#xf719;" 
d="M-1092 -793v139h286v-242q0 -26 12 -45.5t33.5 -32.5t51 -19.5t64.5 -6.5q69 0 111 26t42 78v242h150v-211q0 -26 -2.5 -55.5t-12 -58.5t-29 -56.5t-53.5 -48.5t-84.5 -33.5t-121.5 -12.5q-72 0 -123.5 12.5t-86 33.5t-55 48.5t-31 56.5t-13 58.5t-2.5 55.5v72h-136z" />
    <glyph glyph-name="phinthulowthai" unicode="&#xf71a;" 
d="M-565 -772q0 30 11 56t30.5 45.5t45.5 31t55 11.5q30 0 56 -11.5t45.5 -31t31 -45.5t11.5 -56q0 -29 -11.5 -55t-31 -45.5t-45.5 -30.5t-56 -11q-29 0 -55 11t-45.5 30.5t-30.5 45.5t-11 55z" />
    <glyph glyph-name="lochula.short" unicode="&#xf71d;" horiz-adv-x="2108" 
d="M1583 0l-107 1l-439 870l-438 -870l-107 -1l-316 1651h172l242 -1340l410 796h74l411 -796l153 831q19 101 -5 173.5t-78.5 118t-135 66t-174.5 17.5q-10 0 -28 -0.5t-39 -2.5v134q26 2 50 2.5t47 0.5h665v-134h-274q54 -27 84.5 -75.5t44 -104t13 -110t-7.5 -94.5z" />
    <glyph glyph-name="yamakkanleftthai" 
d="M-902 2283q0 -42 16 -67.5t40 -39t51.5 -18t50.5 -4.5v-130q-155 0 -238 65.5t-83 186.5q0 87 47 148.5t119 100.5q-65 63 -65 170q0 56 20.5 102t55.5 82t81.5 62t98.5 43t106 25t105 8v-122q-57 0 -112.5 -11t-100 -34.5t-72.5 -61t-29 -91.5q-1 -60 23.5 -92t61.5 -39
v-111q-81 -10 -128.5 -57t-47.5 -115z" />
    <glyph glyph-name="saraamleft" horiz-adv-x="1241" 
d="M899 0h-160v1247q0 90 -15 145t-42.5 84.5t-67 39t-87.5 9.5q-20 0 -61.5 -3t-98 -13.5t-125 -30.5t-143.5 -53v137q102 55 210 83t218 28q87 0 157 -21t118 -64t73 -108t24 -153v-1327zM-1203 2184q0 -32 12.5 -60.5t33.5 -49.5t49.5 -33.5t60.5 -12.5t60.5 12.5
t49.5 33.5t33.5 49.5t12.5 60.5t-12.5 60.5t-33.5 49.5t-49.5 33.5t-60.5 12.5t-60.5 -12.5t-49.5 -33.5t-33.5 -49.5t-12.5 -60.5zM-1347 2184q0 62 23.5 117t64 95.5t95.5 64t117 23.5t117 -23.5t95.5 -64t64 -95.5t23.5 -117t-23.5 -117t-64 -95.5t-95.5 -64t-117 -23.5
t-117 23.5t-95.5 64t-64 95.5t-23.5 117z" />
    <glyph glyph-name="uni0E33.alt1" horiz-adv-x="1241" 
d="M899 0h-160v1247q0 90 -15 145t-42.5 84.5t-67 39t-87.5 9.5q-20 0 -61.5 -3t-98 -13.5t-125 -30.5t-143.5 -53v137q102 55 210 83t218 28q87 0 157 -21t118 -64t73 -108t24 -153v-1327zM-1203 2184q0 -32 12.5 -60.5t33.5 -49.5t49.5 -33.5t60.5 -12.5t60.5 12.5
t49.5 33.5t33.5 49.5t12.5 60.5t-12.5 60.5t-33.5 49.5t-49.5 33.5t-60.5 12.5t-60.5 -12.5t-49.5 -33.5t-33.5 -49.5t-12.5 -60.5zM-1347 2184q0 62 23.5 117t64 95.5t95.5 64t117 23.5t117 -23.5t95.5 -64t64 -95.5t23.5 -117t-23.5 -117t-64 -95.5t-95.5 -64t-117 -23.5
t-117 23.5t-95.5 64t-64 95.5t-23.5 117z" />
    <glyph glyph-name="zero.alt1" horiz-adv-x="1727" 
d="M865 -26q-110 0 -203.5 29.5t-170.5 83.5t-136 130t-99 170t-61 203t-21 229q0 205 53.5 363t147 265t219.5 162.5t271 55.5t270.5 -55.5t218.5 -162.5t146.5 -265t53.5 -363q0 -180 -46 -334.5t-134 -268t-216.5 -178t-292.5 -64.5zM865 115q113 0 209.5 48.5t167 139.5
t110.5 222.5t40 298.5q0 135 -34 260.5t-100.5 223t-165 156t-227.5 58.5t-227.5 -58.5t-165 -156t-100.5 -223t-34 -260.5q0 -167 40 -298.5t110.5 -222.5t167 -139.5t209.5 -48.5z" />
    <glyph glyph-name="one.alt1" horiz-adv-x="926" 
d="M541 1h-155v1635h155v-1635z" />
    <glyph glyph-name="two.alt1" horiz-adv-x="1725" 
d="M1480 0h-1198l1 67q65 52 120.5 99t112.5 96.5t120 106t142 129.5q102 94 189.5 178t151.5 164.5t100.5 161t36.5 169.5q0 94 -35 160t-95.5 107.5t-143 60.5t-178.5 19q-54 0 -115.5 -10t-123.5 -30t-122.5 -50.5t-114.5 -71.5v155q72 44 136.5 73t125.5 46t122 24
t126 7q125 0 230.5 -28.5t182 -88.5t119.5 -154t43 -226q0 -103 -34.5 -194.5t-94 -176t-138.5 -164t-169 -158.5q-124 -110 -212.5 -189t-149.5 -132h865v-150z" />
    <glyph glyph-name="three.alt1" horiz-adv-x="1598" 
d="M658 687q65 0 126.5 16.5t116 46.5t100 71.5t78 92t51 108t18.5 118.5q0 71 -19.5 139t-66.5 121t-124.5 85.5t-193.5 32.5q-61 0 -110 -5t-97.5 -17t-101 -32t-121.5 -50v143q41 20 91.5 39t108.5 33.5t123.5 23t137.5 8.5q148 0 250 -45t165 -118.5t90.5 -167
t27.5 -191.5q0 -57 -11.5 -124t-48 -135.5t-104 -132t-179.5 -112.5v-4q74 -20 132.5 -54t102.5 -76.5t75 -92.5t50.5 -102t28.5 -105t9 -102q0 -127 -42.5 -236.5t-125 -189.5t-204 -126t-278.5 -46q-54 0 -114.5 7.5t-120.5 22.5t-116 37t-102 51v168q92 -63 202.5 -97.5
t247.5 -34.5q113 0 204 35.5t155.5 96.5t99.5 140.5t35 168.5q0 106 -42 190t-115.5 142t-173.5 88.5t-215 30.5v140z" />
    <glyph glyph-name="four.alt1" horiz-adv-x="1763" 
d="M1360 183h227v-141h-227v-536h-153v536h-1015v179l1111 1415h57v-1453zM356 183h851v1089z" />
    <glyph glyph-name="five.alt1" horiz-adv-x="1619" 
d="M1330 1485h-716v-710q45 5 104 7t122 -3q109 -8 194.5 -36t150.5 -72t111 -102.5t75 -126.5t42 -144t13 -155q0 -91 -22.5 -174t-64.5 -154.5t-102 -129.5t-135 -99t-163 -63.5t-187 -22.5q-104 0 -209 15.5t-188 48.5v147q56 -19 103 -31.5t92 -20t92 -10.5t104 -3
q55 0 115.5 12.5t118.5 38.5t110.5 66t92 95t63 125.5t23.5 156.5q0 59 -7.5 119t-29.5 115.5t-62 104t-105 84.5t-159 56.5t-224 20.5q-63 0 -112.5 -5t-102.5 -12v1012h863v-150z" />
    <glyph glyph-name="six.alt1" horiz-adv-x="1709" 
d="M376 607q0 -98 36 -186t100 -154.5t152 -106t191 -39.5t190.5 38.5t151 104.5t99 154.5t35.5 188.5q0 105 -33.5 195t-96 156t-152.5 103t-204 37q-96 0 -181 -36t-149 -101t-101.5 -155t-37.5 -199zM220 610q0 120 23.5 224t64.5 202.5t98 196.5t123 206l438 688h183
l-639 -1001q32 27 75 48.5t91 36.5t98 23t96 8q141 0 255 -48t195 -132.5t124.5 -200t43.5 -251.5q0 -128 -47.5 -242.5t-131.5 -201t-200 -137t-253 -50.5t-253.5 50.5t-201.5 137t-133.5 201t-48.5 242.5z" />
    <glyph glyph-name="seven.alt1" horiz-adv-x="1543" 
d="M1146 1485l-948 1v149h1184l-947 -2129h-178z" />
    <glyph glyph-name="eight.alt1" horiz-adv-x="1711" 
d="M856 2017q-81 0 -155 -29.5t-130.5 -83.5t-90 -131t-33.5 -171q0 -92 34 -168.5t90.5 -131t130.5 -85t154 -30.5t154 30.5t130.5 85t90 131t33.5 168.5q0 94 -33.5 171t-89.5 131t-130 83.5t-155 29.5zM856 1033q-86 0 -171 -31.5t-153.5 -91t-111 -145.5t-42.5 -195
q0 -111 43 -194t112 -138.5t154 -83.5t169 -28t169 28t154 83.5t112 138.5t43 194q0 72 -19.5 134.5t-53.5 114t-80.5 91.5t-99.5 67.5t-110.5 41.5t-114.5 14zM855 2157q123 0 227 -44t179.5 -118t118.5 -171t43 -204q0 -44 -6.5 -91.5t-22 -95.5t-41.5 -94.5t-65.5 -87.5
t-93.5 -75t-125 -56q118 -30 199 -91.5t130.5 -139t71 -163.5t21.5 -164q0 -116 -43 -220t-124.5 -183.5t-199.5 -126t-268 -46.5t-268 46.5t-200 126t-125 183.5t-43 220q0 78 21.5 164t71 163.5t130.5 139t199 91.5q-71 22 -125 56t-93.5 75t-65.5 87.5t-41.5 94.5t-22 96
t-6.5 91q0 107 42.5 204t118.5 171t179.5 118t226.5 44z" />
    <glyph glyph-name="nine.alt1" horiz-adv-x="1786" 
d="M1363 1025q0 97 -36 185.5t-100 155t-152 106t-191 39.5t-190.5 -38.5t-151 -104.5t-99 -154.5t-35.5 -188.5q0 -108 33.5 -198.5t96 -155.5t152.5 -101.5t204 -36.5q96 0 181 36t149 101t101.5 155.5t37.5 199.5zM1519 1022q0 -120 -23.5 -224t-64.5 -202.5t-98 -196.5
t-123 -206l-438 -688h-183l639 1001q-32 -27 -75 -48.5t-91 -36.5t-98 -23t-96 -8q-141 0 -255 48t-195 132.5t-124.5 200t-43.5 251.5q0 128 47.5 242.5t131.5 201t200 137t253 50.5q91 0 173.5 -23t153.5 -65t128 -100t97.5 -128t62.5 -150t22 -165z" />
    <glyph glyph-name="saraithai.alt1" 
d="M-1440 2033v152h1098v-152h-1098z" />
    <glyph glyph-name="saraiithai.alt1" 
d="M-1440 2034v152h939v297h160v-449h-1099z" />
    <glyph glyph-name="sarauethai.alt1" 
d="M-673 2319q0 -31 11.5 -58t32 -47t47.5 -31.5t58 -11.5t58 11.5t47 31.5t31.5 47t11.5 58t-11.5 58t-31.5 47.5t-47 32t-58 11.5t-58 -11.5t-47.5 -32t-32 -47.5t-11.5 -58zM-811 2319q0 60 22.5 112t61.5 91t91 61.5t112 22.5q59 0 111 -22.5t91 -61.5t61.5 -91
t22.5 -112q0 -59 -22.5 -111t-61.5 -91t-91 -61.5t-111 -22.5h-912v152h659q-34 62 -34 134z" />
    <glyph glyph-name="saraueethai.alt1" 
d="M-701 2186h199v297h160v-449h-1100v152h581v297h160v-297z" />
    <glyph glyph-name="maitaikhuthai.alt1" 
d="M-544 2004q-27 -1 -62 1.5t-71.5 15t-72 38.5t-64.5 71q-29 -45 -65.5 -70.5t-73 -38t-70 -15t-56.5 -2.5q-93 0 -159.5 24.5t-108.5 65.5t-61.5 95.5t-19.5 113.5q0 82 28 139.5t75 94.5t109 54t131 17h762v-147h-721q-42 0 -83 -4.5t-72.5 -21t-51 -48t-19.5 -84.5
q0 -50 21 -81t51.5 -48t65 -23t62.5 -6q59 0 95.5 15.5t57.5 39.5t30 51.5t12 51.5h122q4 -24 14 -52t32 -52t59.5 -40t97.5 -16q24 0 53 3t59.5 11t60.5 23t54 39v-156q-48 -32 -106.5 -44.5t-114.5 -14.5z" />
    <glyph glyph-name="maiekthai.alt1" 
d="M-503 2605v459h160v-459h-160z" />
    <glyph glyph-name="maithothai.alt1" 
d="M-829 2757q59 24 96 62t36 80q0 28 -7.5 46t-25.5 28t-49.5 11t-79.5 -5v120q18 3 31.5 5t27 3.5t30 3t40.5 2.5q46 1 81 -12t58.5 -37.5t35.5 -57.5t12 -70q0 -14 -3 -35.5t-12 -46t-26.5 -49.5t-47.5 -45q61 -10 112.5 -12.5t96.5 -2.5q38 0 79.5 4.5t83.5 13.5
t82.5 22t76.5 29v-129q-29 -19 -73 -34t-97 -25t-110.5 -15.5t-112.5 -5.5q-84 0 -172 11t-163 34v107z" />
    <glyph glyph-name="maitrithai.alt1" 
d="M-660 2841q-2 19 -9.5 37t-21 32.5t-32 23t-42.5 8.5q-17 0 -34.5 -6.5t-32 -21t-23.5 -36.5t-9 -53q0 -39 15 -63t37.5 -35.5t49.5 -12t51 5.5v-114q-17 -4 -37 -5t-34 -1q-71 0 -116 24t-70 59.5t-34 75t-9 71.5q0 49 17.5 92.5t49.5 75.5t76 50.5t97 18.5
q39 0 67.5 -9t48.5 -22t31.5 -27.5t17.5 -24.5q5 10 17 24.5t31.5 27.5t47.5 22t66 9q53 0 96.5 -12.5t74 -37t47 -61t16.5 -83.5q0 -41 -14.5 -82t-57.5 -73q36 5 73 15t70.5 23t61 26t45.5 24v-120q-96 -51 -184 -68.5t-173 -17.5h-23.5t-33 1t-33 2t-23.5 3v106
q26 0 53 8t48.5 24.5t35 40.5t13.5 56q0 26 -9 45t-23 31.5t-31 18.5t-34 6q-24 0 -42.5 -8.5t-31.5 -23t-21 -32.5t-10 -37h-106z" />
    <glyph glyph-name="maichattawathai.alt1" 
d="M-730 2943h237v196h150v-196h236v-144h-236v-195h-150v195h-237v144z" />
    <glyph glyph-name="maiekupperleftthai.alt2" 
d="M-933 2605v459h160v-459h-160z" />
    <glyph glyph-name="maithoupperleftthai.alt2" 
d="M-1138 2757q59 24 96 62t36 80q0 28 -7.5 46t-25.5 28t-49.5 11t-79.5 -5v120q18 3 31.5 5t27 3.5t30 3t40.5 2.5q46 1 81 -12t58.5 -37.5t35.5 -57.5t12 -70q0 -14 -3 -35.5t-12 -46t-26.5 -49.5t-47.5 -45q61 -10 112.5 -12.5t96.5 -2.5q38 0 79.5 4.5t83.5 13.5
t82.5 22t76.5 29v-129q-29 -19 -73 -34t-97 -25t-110.5 -15.5t-112.5 -5.5q-84 0 -172 11t-163 34v107z" />
    <glyph glyph-name="maitriupperleftthai.alt2" 
d="M-1056 2841q-2 19 -9.5 37t-21 32.5t-32 23t-42.5 8.5q-17 0 -34.5 -6.5t-32 -21t-23.5 -36.5t-9 -53q0 -39 15 -63t37.5 -35.5t49.5 -12t51 5.5v-114q-17 -4 -37 -5t-34 -1q-71 0 -116 24t-70 59.5t-34 75t-9 71.5q0 49 17.5 92.5t49.5 75.5t76 50.5t97 18.5
q39 0 67.5 -9t48.5 -22t31.5 -27.5t17.5 -24.5q5 10 17 24.5t31.5 27.5t47.5 22t66 9q53 0 96.5 -12.5t74 -37t47 -61t16.5 -83.5q0 -41 -14.5 -82t-57.5 -73q36 5 73 15t70.5 23t61 26t45.5 24v-120q-96 -51 -184 -68.5t-173 -17.5h-23.5t-33 1t-33 2t-23.5 3v106
q26 0 53 8t48.5 24.5t35 40.5t13.5 56q0 26 -9 45t-23 31.5t-31 18.5t-34 6q-24 0 -42.5 -8.5t-31.5 -23t-21 -32.5t-10 -37h-106z" />
    <glyph glyph-name="maichattawaupperleftthai.alt2" 
d="M-1160 2943h237v196h150v-196h236v-144h-236v-195h-150v195h-237v144z" />
    <glyph glyph-name="maiekupperleftthai.alt3" 
d="M-1123 2725v389h160v-389h-160z" />
    <glyph glyph-name="maichattawaupperleftthai.alt3" 
d="M-1350 3063h237v196h150v-196h236v-144h-236v-195h-150v195h-237v144z" />
    <glyph glyph-name="saraithai.alt5" 
d="M-2166 2033v152h1825v-152h-1825z" />
    <glyph glyph-name="saraiithai.alt5" 
d="M-2164 2034v152h1663v297h160v-449h-1823z" />
    <glyph glyph-name="sarauethai.alt5" 
d="M-673 2320q0 -31 11.5 -58t32 -47t47.5 -31.5t58 -11.5t58 11.5t47 31.5t31.5 47t11.5 58t-11.5 58t-31.5 47.5t-47 32t-58 11.5t-58 -11.5t-47.5 -32t-32 -47.5t-11.5 -58zM-811 2320q0 60 22.5 112t61.5 91t91 61.5t112 22.5q59 0 111 -22.5t91 -61.5t61.5 -91
t22.5 -112q0 -59 -22.5 -111t-61.5 -91t-91 -61.5t-111 -22.5h-1642v152h1389q-34 62 -34 134z" />
    <glyph glyph-name="saraueethai.alt5" 
d="M-720 2186h219v297h160v-449h-1823v152h1284v297h160v-297z" />
    <glyph glyph-name="maitaikhuthai.alt5" 
d="M-931 2003q-24 -1 -60 2t-75.5 15.5t-78.5 38.5t-69 71q-30 -45 -68.5 -70.5t-79 -38t-78 -15t-65.5 -2.5q-100 0 -169.5 24.5t-113 65.5t-63.5 95.5t-20 113.5q0 84 28.5 142t81 94.5t126.5 52.5t165 16h777v-147h-776q-43 0 -86 -3.5t-77.5 -19t-56 -47t-21.5 -88.5
q0 -49 22 -79.5t54 -48t67.5 -23.5t63.5 -6q65 0 106.5 14.5t66.5 37t36.5 50.5t17.5 55h124q6 -27 16 -55t33 -50.5t63 -37t105 -14.5q23 0 55 3.5t66 13.5t66 28.5t55 47.5v-170q-16 -14 -41 -25.5t-56.5 -20t-67.5 -14t-73 -6.5z" />
    <glyph glyph-name="maihanakatleftthai.alt6" 
d="M-1761 2033v391h160v-239h995v-152h-1155z" />
    <glyph glyph-name="saraileftthai.alt6" 
d="M-2132 2033v152h1458v-152h-1458z" />
    <glyph glyph-name="saraiileftthai.alt6" 
d="M-2133 2034v152h1299v297h160v-449h-1459z" />
    <glyph glyph-name="saraueleftthai.alt6" 
d="M-1009 2319q0 -31 11.5 -58t32 -47t47.5 -31.5t58 -11.5t58 11.5t47 31.5t31.5 47t11.5 58t-11.5 58t-31.5 47.5t-47 32t-58 11.5t-58 -11.5t-47.5 -32t-32 -47.5t-11.5 -58zM-1147 2319q0 60 22.5 112t61.5 91t91 61.5t112 22.5q59 0 111 -22.5t91 -61.5t61.5 -91
t22.5 -112q0 -59 -22.5 -111t-61.5 -91t-91 -61.5t-111 -22.5h-1272v152h1019q-34 62 -34 134z" />
    <glyph glyph-name="saraueeleftthai.alt6" 
d="M-1032 2186h199v297h160v-449h-1460v152h941v297h160v-297z" />
    <glyph glyph-name="maiekthai.alt6" 
d="M-833 2725v389h160v-389h-160z" />
    <glyph glyph-name="maithothai.alt6" 
d="M-1038 2877q59 24 96 62t36 80q0 28 -7.5 46t-25.5 28t-49.5 11t-79.5 -5v120q18 3 31.5 5t27 3.5t30 3t40.5 2.5q46 1 81 -12t58.5 -37.5t35.5 -57.5t12 -70q0 -14 -3 -35.5t-12 -46t-26.5 -49.5t-47.5 -45q61 -10 112.5 -12.5t96.5 -2.5q38 0 79.5 4.5t83.5 13.5
t82.5 22t76.5 29v-129q-29 -19 -73 -34t-97 -25t-110.5 -15.5t-112.5 -5.5q-84 0 -172 11t-163 34v107z" />
    <glyph glyph-name="maitrithai.alt6" 
d="M-956 2961q-2 19 -9.5 37t-21 32.5t-32 23t-42.5 8.5q-17 0 -34.5 -6.5t-32 -21t-23.5 -36.5t-9 -53q0 -39 15 -63t37.5 -35.5t49.5 -12t51 5.5v-114q-17 -4 -37 -5t-34 -1q-71 0 -116 24t-70 59.5t-34 75t-9 71.5q0 49 17.5 92.5t49.5 75.5t76 50.5t97 18.5
q39 0 67.5 -9t48.5 -22t31.5 -27.5t17.5 -24.5q5 10 17 24.5t31.5 27.5t47.5 22t66 9q53 0 96.5 -12.5t74 -37t47 -61t16.5 -83.5q0 -41 -14.5 -82t-57.5 -73q36 5 73 15t70.5 23t61 26t45.5 24v-120q-96 -51 -184 -68.5t-173 -17.5h-23.5t-33 1t-33 2t-23.5 3v106
q26 0 53 8t48.5 24.5t35 40.5t13.5 56q0 26 -9 45t-23 31.5t-31 18.5t-34 6q-24 0 -42.5 -8.5t-31.5 -23t-21 -32.5t-10 -37h-106z" />
    <glyph glyph-name="maichattawathai.alt6" 
d="M-1060 3063h237v196h150v-196h236v-144h-236v-195h-150v195h-237v144z" />
    <glyph glyph-name="maitrithai.alt7" 
d="M-490 2961q-2 19 -9.5 37t-21 32.5t-32 23t-42.5 8.5q-17 0 -34.5 -6.5t-32 -21t-23.5 -36.5t-9 -53q0 -39 15 -63t37.5 -35.5t49.5 -12t51 5.5v-114q-17 -4 -37 -5t-34 -1q-71 0 -116 24t-70 59.5t-34 75t-9 71.5q0 49 17.5 92.5t49.5 75.5t76 50.5t97 18.5
q39 0 67.5 -9t48.5 -22t31.5 -27.5t17.5 -24.5q5 10 17 24.5t31.5 27.5t47.5 22t66 9q53 0 96.5 -12.5t74 -37t47 -61t16.5 -83.5q0 -41 -14.5 -82t-57.5 -73q36 5 73 15t70.5 23t61 26t45.5 24v-120q-96 -51 -184 -68.5t-173 -17.5h-23.5t-33 1t-33 2t-23.5 3v106
q26 0 53 8t48.5 24.5t35 40.5t13.5 56q0 26 -9 45t-23 31.5t-31 18.5t-34 6q-24 0 -42.5 -8.5t-31.5 -23t-21 -32.5t-10 -37h-106z" />
    <glyph glyph-name="saraithai.alt8" 
d="M-1266 2034v151h925v-151h-925z" />
    <glyph glyph-name="saraiithai.alt8" 
d="M-1264 2034v152h763v297h160v-449h-923z" />
    <glyph glyph-name="sarauethai.alt8" 
d="M-673 2320q0 -31 11.5 -58t32 -47t47.5 -31.5t58 -11.5t58 11.5t47 31.5t31.5 47t11.5 58t-11.5 58t-31.5 47.5t-47 32t-58 11.5t-58 -11.5t-47.5 -32t-32 -47.5t-11.5 -58zM-811 2320q0 60 22.5 112t61.5 91t91 61.5t112 22.5q59 0 111 -22.5t91 -61.5t61.5 -91
t22.5 -112q0 -59 -22.5 -111t-61.5 -91t-91 -61.5t-111 -22.5h-742v152h489q-34 62 -34 134z" />
    <glyph glyph-name="saraueethai.alt8" 
d="M-720 2186h219v297h160v-449h-923v152h384v297h160v-297z" />
    <glyph glyph-name="maitaikhuthai.alt8" 
d="M-489 2004q-25 -1 -57 1.5t-66 15t-67 38.5t-60 71q-27 -45 -60.5 -70.5t-68 -38t-65.5 -15t-52 -2.5q-87 0 -149 23t-101.5 62.5t-58 92.5t-18.5 112q0 82 26 140.5t70.5 95.5t102.5 54t122 17h708v-148h-670q-39 0 -76 -4.5t-65.5 -21t-46 -48t-17.5 -85.5
q0 -50 18.5 -79.5t46 -44.5t59 -19.5t57.5 -4.5q55 0 89 15.5t53.5 39.5t27.5 51.5t11 51.5h114q4 -24 13 -52t29.5 -52t55 -40t90.5 -16q22 0 49 3t55.5 11t56 23.5t50.5 39.5v-157q-45 -32 -99.5 -45t-106.5 -15z" />
    <glyph glyph-name="saraithai.alt9" 
d="M-1540 2033v152h1298v-152h-1298z" />
    <glyph glyph-name="saraiithai.alt9" 
d="M-1540 2034v152h1139v297h160v-449h-1299z" />
    <glyph glyph-name="sarauethai.alt9" 
d="M-573 2319q0 -31 11.5 -58t32 -47t47.5 -31.5t58 -11.5t58 11.5t47 31.5t31.5 47t11.5 58t-11.5 58t-31.5 47.5t-47 32t-58 11.5t-58 -11.5t-47.5 -32t-32 -47.5t-11.5 -58zM-711 2319q0 60 22.5 112t61.5 91t91 61.5t112 22.5q59 0 111 -22.5t91 -61.5t61.5 -91
t22.5 -112q0 -59 -22.5 -111t-61.5 -91t-91 -61.5t-111 -22.5h-1112v152h859q-34 62 -34 134z" />
    <glyph glyph-name="saraueethai.alt9" 
d="M-601 2186h199v297h160v-449h-1300v152h781v297h160v-297z" />
    <glyph glyph-name="maiekthai.alt9" 
d="M-403 2725v389h160v-389h-160z" />
    <glyph glyph-name="maithothai.alt9" 
d="M-729 2877q59 24 96 62t36 80q0 28 -7.5 46t-25.5 28t-49.5 11t-79.5 -5v120q18 3 31.5 5t27 3.5t30 3t40.5 2.5q46 1 81 -12t58.5 -37.5t35.5 -57.5t12 -70q0 -14 -3 -35.5t-12 -46t-26.5 -49.5t-47.5 -45q61 -10 112.5 -12.5t96.5 -2.5q38 0 79.5 4.5t83.5 13.5
t82.5 22t76.5 29v-129q-29 -19 -73 -34t-97 -25t-110.5 -15.5t-112.5 -5.5q-84 0 -172 11t-163 34v107z" />
    <glyph glyph-name="maitrithai.alt9" 
d="M-560 2961q-2 19 -9.5 37t-21 32.5t-32 23t-42.5 8.5q-17 0 -34.5 -6.5t-32 -21t-23.5 -36.5t-9 -53q0 -39 15 -63t37.5 -35.5t49.5 -12t51 5.5v-114q-17 -4 -37 -5t-34 -1q-71 0 -116 24t-70 59.5t-34 75t-9 71.5q0 49 17.5 92.5t49.5 75.5t76 50.5t97 18.5
q39 0 67.5 -9t48.5 -22t31.5 -27.5t17.5 -24.5q5 10 17 24.5t31.5 27.5t47.5 22t66 9q53 0 96.5 -12.5t74 -37t47 -61t16.5 -83.5q0 -41 -14.5 -82t-57.5 -73q36 5 73 15t70.5 23t61 26t45.5 24v-120q-96 -51 -184 -68.5t-173 -17.5h-23.5t-33 1t-33 2t-23.5 3v106
q26 0 53 8t48.5 24.5t35 40.5t13.5 56q0 26 -9 45t-23 31.5t-31 18.5t-34 6q-24 0 -42.5 -8.5t-31.5 -23t-21 -32.5t-10 -37h-106z" />
    <glyph glyph-name="maichattawathai.alt9" 
d="M-630 3063h237v196h150v-196h236v-144h-236v-195h-150v195h-237v144z" />
    <glyph glyph-name="sarauthai.alt10" 
d="M-741 -203v-477h-150v337h-216v140h366z" />
    <glyph glyph-name="sarauuthai.alt10" 
d="M-1332 -342v139h286v-242q0 -26 12 -45.5t33.5 -32.5t51 -19.5t64.5 -6.5q69 0 111 26t42 78v242h150v-211q0 -26 -2.5 -55.5t-12 -58.5t-29 -56.5t-53.5 -48.5t-84.5 -33.5t-121.5 -12.5q-72 0 -123.5 12.5t-86 33.5t-55 48.5t-31 56.5t-13 58.5t-2.5 55.5v72h-136z" />
    <glyph glyph-name="phinthuthai.alt10" 
d="M-1044 -322q0 30 11 56t30.5 45.5t45.5 31t55 11.5q30 0 56 -11.5t45.5 -31t31 -45.5t11.5 -56q0 -29 -11.5 -55t-31 -45.5t-45.5 -30.5t-56 -11q-29 0 -55 11t-45.5 30.5t-30.5 45.5t-11 55z" />
    <glyph glyph-name="sarauthai.alt11" 
d="M-641 -203v-477h-150v337h-216v140h366z" />
    <glyph glyph-name="sarauuthai.alt11" 
d="M-1382 -342v139h286v-242q0 -26 12 -45.5t33.5 -32.5t51 -19.5t64.5 -6.5q69 0 111 26t42 78v242h150v-211q0 -26 -2.5 -55.5t-12 -58.5t-29 -56.5t-53.5 -48.5t-84.5 -33.5t-121.5 -12.5q-72 0 -123.5 12.5t-86 33.5t-55 48.5t-31 56.5t-13 58.5t-2.5 55.5v72h-136z" />
    <glyph glyph-name="phinthuthai.alt11" 
d="M-874 -322q0 30 11 56t30.5 45.5t45.5 31t55 11.5q30 0 56 -11.5t45.5 -31t31 -45.5t11.5 -56q0 -29 -11.5 -55t-31 -45.5t-45.5 -30.5t-56 -11q-29 0 -55 11t-45.5 30.5t-30.5 45.5t-11 55z" />
    <glyph glyph-name="sarauthai.alt12" 
d="M-511 -203v-477h-150v337h-216v140h366z" />
    <glyph glyph-name="sarauuthai.alt12" 
d="M-1262 -342v139h286v-242q0 -26 12 -45.5t33.5 -32.5t51 -19.5t64.5 -6.5q69 0 111 26t42 78v242h150v-211q0 -26 -2.5 -55.5t-12 -58.5t-29 -56.5t-53.5 -48.5t-84.5 -33.5t-121.5 -12.5q-72 0 -123.5 12.5t-86 33.5t-55 48.5t-31 56.5t-13 58.5t-2.5 55.5v72h-136z" />
    <glyph glyph-name="phinthuthai.alt12" 
d="M-754 -322q0 30 11 56t30.5 45.5t45.5 31t55 11.5q30 0 56 -11.5t45.5 -31t31 -45.5t11.5 -56q0 -29 -11.5 -55t-31 -45.5t-45.5 -30.5t-56 -11q-29 0 -55 11t-45.5 30.5t-30.5 45.5t-11 55z" />
    </font>
</defs>
</svg>
