<?xml version="1.0" standalone="no"?>
<!DOCTYPE svg PUBLIC "-//W3C//DTD SVG 1.1//EN" "http://www.w3.org/Graphics/SVG/1.1/DTD/svg11.dtd" >
<svg xmlns="http://www.w3.org/2000/svg" xmlns:xlink="http://www.w3.org/1999/xlink" version="1.1">
<metadata>
Created by FontForge 20170731 at Wed Jun 28 15:41:55 2017
 By Aleksey,,,
Copyright (c) 2017 by Dan Gneiding. All rights reserved.
</metadata>
<defs>
<font id="LehighCommercial-Black" horiz-adv-x="694" >
  <font-face 
    font-family="Lehigh Commercial Black"
    font-weight="900"
    font-stretch="normal"
    units-per-em="1200"
    panose-1="2 6 4 3 3 5 3 0 2 3"
    ascent="950"
    descent="-250"
    x-height="519"
    cap-height="750"
    bbox="-193 -352 1531 1144"
    underline-thickness="157"
    underline-position="-412"
    unicode-range="U+0020-FF09"
  />
<missing-glyph horiz-adv-x="1086" 
d="M543 857q206 0 352 -146t146 -352t-146 -352t-352 -146t-352 146t-146 352t146 352t352 146zM543 -88q121 0 224 60t163 163t60 224t-60 224t-163 163t-224 60t-224 -60t-163 -163t-60 -224t60 -224t163 -163t224 -60zM684 705v-242h121v-363h-80v-40h-363v40h-81v363
h121v242h282zM765 423h-121v242h-202v-242h-121v-283h41v202h40v-242h121v81h-40v40h40v242h-40v161h121v-161h-41v-242h41v-40h-41v-81h121v242h41v-202h40v283zM442 140v41h41v-41h-41zM644 140h-40v41h40v-41z" />
    <glyph glyph-name=".notdef" horiz-adv-x="1086" 
d="M543 857q206 0 352 -146t146 -352t-146 -352t-352 -146t-352 146t-146 352t146 352t352 146zM543 -88q121 0 224 60t163 163t60 224t-60 224t-163 163t-224 60t-224 -60t-163 -163t-60 -224t60 -224t163 -163t224 -60zM684 705v-242h121v-363h-80v-40h-363v40h-81v363
h121v242h282zM765 423h-121v242h-202v-242h-121v-283h41v202h40v-242h121v81h-40v40h40v242h-40v161h121v-161h-41v-242h41v-40h-41v-81h121v242h41v-202h40v283zM442 140v41h41v-41h-41zM644 140h-40v41h40v-41z" />
    <glyph glyph-name=".null" horiz-adv-x="0" 
 />
    <glyph glyph-name="nonmarkingreturn" horiz-adv-x="400" 
 />
    <glyph glyph-name="space" unicode=" " horiz-adv-x="204" 
 />
    <glyph glyph-name="exclam" unicode="!" horiz-adv-x="330" 
d="M67 279l-8 471h212l-8 -471h-196zM165 -20q-54 0 -89.5 31.5t-35.5 77.5t35.5 78t89.5 32t89.5 -32t35.5 -78t-35.5 -77.5t-89.5 -31.5z" />
    <glyph glyph-name="quotedbl" unicode="&#x22;" horiz-adv-x="517" 
d="M52 498l-12 272h182l-11 -272h-159zM307 498l-12 272h182l-11 -272h-159z" />
    <glyph glyph-name="numbersign" unicode="#" horiz-adv-x="769" 
d="M744 451h-118l-30 -152h103v-146h-131l-30 -153h-165l30 153h-123l-30 -153h-165l30 153h-90v146h118l30 152h-103v146h131l30 153h165l-30 -153h123l30 153h165l-30 -153h90v-146zM431 299l30 152h-123l-30 -152h123z" />
    <glyph glyph-name="dollar" unicode="$" horiz-adv-x="730" 
d="M665 217q0 -105 -63.5 -167.5t-177.5 -68.5v-109h-143v131q-54 24 -79 69l-20 -72h-117v261h160q7 -52 39 -87t82 -35q30 0 52.5 14t22.5 39q0 32 -28.5 52.5t-89.5 44.5q-34 13 -47 18.5t-44.5 21t-46.5 27t-38 33t-34 43.5t-19.5 53t-8.5 67q0 97 62.5 151.5
t153.5 64.5v110h143v-130q48 -23 73 -59l17 61h119v-246h-163q-6 51 -33 84t-64 33q-33 0 -51 -14t-18 -37q0 -32 26.5 -52.5t78.5 -41.5q9 -4 32.5 -13.5t35 -14t34 -15t34.5 -18.5t31 -21t29.5 -25t23.5 -29t20 -35t11.5 -40.5t4.5 -47.5z" />
    <glyph glyph-name="percent" unicode="%" horiz-adv-x="1007" 
d="M238 770q94 0 151 -51t57 -133q0 -83 -57 -134t-151 -51t-151 51t-57 134q0 82 57.5 133t150.5 51zM282 0l607 750h-163l-607 -750h163zM185 586q0 -100 53 -100t53 100q0 98 -53 98t-53 -98zM769 349q94 0 151 -51t57 -133q0 -83 -57 -134t-151 -51t-151 51t-57 134
q0 82 57.5 133t150.5 51zM769 65q53 0 53 100q0 98 -53 98t-53 -98q0 -100 53 -100z" />
    <glyph glyph-name="ampersand" unicode="&#x26;" horiz-adv-x="934" 
d="M892 257h-96q-13 -38 -31 -68l21 -21q17 -14 45 -14h60v-154h-199q-56 0 -90 34l-29 30q-39 -38 -99.5 -61t-125.5 -23q-140 0 -223 59.5t-83 159.5q0 71 53 126t146 83l-30 32q-6 6 -14.5 16t-23 43.5t-14.5 69.5q0 92 82 146.5t219 54.5q115 0 188.5 -55.5t73.5 -141.5
q0 -60 -36 -99t-129 -79l116 -115q11 31 11 64v60h208v-147zM467 631q-23 -1 -38.5 -18.5t-15.5 -44.5q0 -16 11 -34.5t22 -29.5l11 -10l12 -12q24 12 39.5 34t15.5 46q0 32 -15.5 51t-41.5 18zM377 124q62 0 104 36l-143 148q-27 -14 -43 -39t-16 -55q0 -41 26.5 -65.5
t71.5 -24.5z" />
    <glyph glyph-name="quotesingle" unicode="'" horiz-adv-x="262" 
d="M52 498l-12 272h182l-11 -272h-159z" />
    <glyph glyph-name="parenleft" unicode="(" horiz-adv-x="484" 
d="M439 740q-18 -20 -42.5 -57t-54.5 -94.5t-50.5 -133t-20.5 -149.5q0 -96 36 -197t71 -156t61 -82l-144 -108q-108 90 -179 231t-71 312t71 311t179 231z" />
    <glyph glyph-name="parenright" unicode=")" horiz-adv-x="484" 
d="M189 848q108 -91 179 -231t71 -311t-71 -312t-179 -231l-144 108q26 27 61 82t71 156t36 197q0 74 -20.5 149.5t-50.5 133t-54.5 94.5t-42.5 57z" />
    <glyph glyph-name="asterisk" unicode="*" horiz-adv-x="645" 
d="M398 750l-14 -168l156 65l19 6l46 -144l-19 -6l-164 -38l110 -128l12 -16l-123 -89l-11 17l-87 144l-88 -144l-11 -17l-123 89l12 16l110 128l-164 38l-19 6l46 144l19 -6l156 -65l-14 168v20h151v-20z" />
    <glyph glyph-name="plus" unicode="+" horiz-adv-x="728" 
d="M666 382v-157h-220v-214h-163v214h-221v157h221v215h163v-215h220z" />
    <glyph glyph-name="comma" unicode="," horiz-adv-x="330" 
d="M165 199q56 0 90.5 -36t34.5 -100q0 -63 -47 -134t-128 -119l-45 40q48 50 67 89q10 19 17 40q-54 6 -84 37.5t-30 72.5q0 46 35.5 78t89.5 32z" />
    <glyph glyph-name="hyphen" unicode="-" horiz-adv-x="563" 
d="M62 352h439v-157h-439v157z" />
    <glyph glyph-name="period" unicode="." horiz-adv-x="330" 
d="M165 -20q-54 0 -89.5 31.5t-35.5 77.5t35.5 78t89.5 32t89.5 -32t35.5 -78t-35.5 -77.5t-89.5 -31.5z" />
    <glyph glyph-name="slash" unicode="/" horiz-adv-x="638" 
d="M25 -89l390 889h198l-390 -889h-198z" />
    <glyph glyph-name="zero" unicode="0" horiz-adv-x="738" 
d="M369 770q161 0 249 -110.5t88 -282.5q0 -175 -87.5 -286t-249.5 -111q-163 0 -250 110.5t-87 286.5q0 173 87 283t250 110zM369 153q98 0 98 224q0 220 -98 220t-98 -220q0 -224 98 -224z" />
    <glyph glyph-name="one" unicode="1" horiz-adv-x="559" 
d="M410 154h94v-154h-432v154h114v361q-7 -1 -22 -1q-52 0 -92 9v165q16 -2 24 -2q59 0 95 13t42 51h177v-596z" />
    <glyph glyph-name="two" unicode="2" horiz-adv-x="705" 
d="M50 0v89q0 48 20.5 89.5t53 71t71.5 55.5t78 49.5t71.5 46t53 51t20.5 59.5q0 41 -20 63.5t-55 22.5q-36 0 -59 -29.5t-23 -87.5l1 -17h-202q-2 12 -2 17q0 120 79.5 205t210.5 85q140 0 215 -64t75 -177q0 -59 -24.5 -109t-61 -81.5t-81 -60t-83 -47t-68 -39
t-35.5 -38.5h212v74h146v-228h-593z" />
    <glyph glyph-name="three" unicode="3" horiz-adv-x="671" 
d="M470 384q169 -14 169 -171q0 -110 -85 -171.5t-232 -61.5q-141 0 -219 69.5t-78 204.5q0 22 1 30h219q-1 -15 -1 -25q0 -105 77 -105q36 0 56 23t20 65q0 72 -64 72h-63v123h66q61 0 61 74q0 41 -20 63.5t-55 22.5q-42 0 -59.5 -28t-17.5 -83l1 -15h-214q-1 10 -1 15
q0 132 81 208t229 76q131 0 209 -56.5t78 -158.5q0 -79 -44 -120.5t-114 -50.5z" />
    <glyph glyph-name="four" unicode="4" horiz-adv-x="658" 
d="M627 225h-104v-71h78v-154h-407v154h113v71h-314v126l323 399h207v-399h104v-126zM146 351h161v204z" />
    <glyph glyph-name="five" unicode="5" 
d="M391 506q128 0 188 -67.5t60 -186.5q0 -115 -82.5 -193.5t-220.5 -78.5q-133 0 -211.5 77.5t-78.5 195.5v14h203v-14q0 -57 20.5 -78.5t58.5 -21.5q77 0 77 106q0 47 -19.5 81t-58.5 34q-24 0 -45 -8t-30.5 -16t-10.5 -12l-163 28l44 384h468v-169h-325l-19 -116
q70 41 145 41z" />
    <glyph glyph-name="six" unicode="6" horiz-adv-x="707" 
d="M679 237q0 -105 -81.5 -181t-233.5 -76q-159 0 -244.5 114.5t-85.5 291.5q0 172 86 278t246 106q132 0 208.5 -71.5t75.5 -180.5h-217q-9 43 -23 61t-44 18q-40 0 -62.5 -40.5t-29.5 -138.5q0 -4 -0.5 -12.5t-0.5 -12.5q59 54 163 54q100 0 171.5 -56.5t71.5 -153.5z
M376 339q-42 0 -69 -24t-27 -69q0 -38 25 -65.5t61 -27.5q40 0 67 25t27 64q0 47 -25 72t-59 25z" />
    <glyph glyph-name="seven" unicode="7" horiz-adv-x="667" 
d="M47 750h587v-154q-56 -60 -96.5 -114.5t-81 -129t-62 -163.5t-21.5 -189h-250q0 90 35 185.5t92 177t102.5 135t92.5 98.5h-242v-96h-156v250z" />
    <glyph glyph-name="eight" unicode="8" horiz-adv-x="730" 
d="M569 403q123 -55 123 -176q0 -104 -84.5 -175.5t-242.5 -71.5t-242.5 71.5t-84.5 175.5q0 121 123 176q-85 52 -85 146q0 93 74.5 157t214.5 64q141 0 215 -64t74 -157q0 -94 -85 -146zM365 622q-36 0 -61.5 -23.5t-25.5 -56.5q0 -41 24.5 -64t62.5 -23t62.5 23t24.5 64
q0 33 -25.5 56.5t-61.5 23.5zM365 143q39 0 67.5 27.5t28.5 65.5q0 45 -27.5 69t-68.5 24t-68.5 -24t-27.5 -69q0 -38 28.5 -65.5t67.5 -27.5z" />
    <glyph glyph-name="nine" unicode="9" horiz-adv-x="707" 
d="M343 770q159 0 244.5 -114.5t85.5 -291.5q0 -167 -88 -275.5t-244 -108.5q-132 0 -210 70t-77 178h217q9 -42 24.5 -58.5t45.5 -16.5q42 0 64.5 44.5t28.5 155.5q-59 -54 -163 -54q-99 0 -171 57.5t-72 154.5q0 105 82 182t233 77zM331 407q41 0 68.5 26t27.5 71
q0 38 -25 65.5t-61 27.5q-39 0 -66.5 -26t-27.5 -65q0 -47 25 -73t59 -26z" />
    <glyph glyph-name="colon" unicode=":" horiz-adv-x="330" 
d="M165 279q-54 0 -89.5 31.5t-35.5 77.5t35.5 78t89.5 32t89.5 -32t35.5 -78t-35.5 -77.5t-89.5 -31.5zM165 -20q-54 0 -89.5 31.5t-35.5 77.5t35.5 78t89.5 32t89.5 -32t35.5 -78t-35.5 -77.5t-89.5 -31.5z" />
    <glyph glyph-name="semicolon" unicode=";" horiz-adv-x="290" 
d="M145 279q-54 0 -89.5 31.5t-35.5 77.5t35.5 78t89.5 32t89.5 -32t35.5 -78t-35.5 -77.5t-89.5 -31.5zM145 199q56 0 90.5 -36t34.5 -100q0 -63 -47 -134t-128 -119l-45 40q48 50 67 89q10 19 17 40q-54 6 -84 37.5t-30 72.5q0 46 35.5 78t89.5 32z" />
    <glyph glyph-name="less" unicode="&#x3c;" horiz-adv-x="711" 
d="M649 604v-157l-413 -143l413 -144v-157l-604 230v141z" />
    <glyph glyph-name="equal" unicode="=" horiz-adv-x="728" 
d="M62 514h604v-157h-604v157zM62 250h604v-157h-604v157z" />
    <glyph glyph-name="greater" unicode="&#x3e;" horiz-adv-x="711" 
d="M62 604l604 -230v-141l-604 -230v157l413 144l-413 143v157z" />
    <glyph glyph-name="question" unicode="?" horiz-adv-x="609" 
d="M19 531q0 112 79 175.5t219 63.5q135 0 208 -52.5t73 -137.5q0 -50 -21 -87.5t-51.5 -60.5t-61 -43t-51.5 -46.5t-21 -60.5l1 -17h-195q-1 16 -1 29q0 41 16 74t39 54.5t46 41t39 46t16 58.5q0 27 -12.5 44.5t-38.5 17.5q-31 0 -47.5 -22t-16.5 -77q0 -12 1 -17h-219
q-1 9 -1 17zM306 -20q-54 0 -89.5 31.5t-35.5 77.5t35.5 78t89.5 32t89.5 -32t35.5 -78t-35.5 -77.5t-89.5 -31.5z" />
    <glyph glyph-name="at" unicode="@" horiz-adv-x="1040" 
d="M45 267q0 113 42.5 208.5t114 159.5t167 99.5t200.5 35.5q195 0 310.5 -113t115.5 -297q0 -142 -75.5 -211.5t-192.5 -69.5q-63 0 -107 27t-65 65q-21 -37 -61.5 -63t-95.5 -26q-72 0 -105.5 59.5t-8.5 167.5q25 109 81.5 167.5t126.5 58.5q91 0 108 -70l13 54h172
l-58 -232q-27 -107 37 -107q14 0 30.5 8.5t35.5 26.5t31.5 56t12.5 89q0 144 -84 225.5t-236 81.5q-158 0 -273 -112.5t-115 -287.5q0 -150 100 -243.5t254 -93.5q127 0 224 75l68 -85q-126 -93 -307 -93q-199 0 -329.5 121.5t-130.5 318.5zM482 309q-26 -106 12 -106t52 45
l29 118q5 20 -1.5 35.5t-25.5 15.5q-38 0 -66 -108z" />
    <glyph glyph-name="A" unicode="A" horiz-adv-x="800" 
d="M723 154h52v-154h-347v154h53l-19 77h-177l-18 -77h53v-154h-295v154h56l174 596h290zM310 336h126l-64 261z" />
    <glyph glyph-name="B" unicode="B" horiz-adv-x="794" 
d="M528 390q114 -4 172.5 -46.5t58.5 -130.5q0 -213 -297 -213h-400v154h68v442h-68v154h370q145 0 218.5 -40.5t73.5 -143.5q0 -167 -196 -176zM354 596v-151h69q71 0 71 74q0 77 -72 77h-68zM432 154q72 0 72 83q0 43 -20 63t-52 20h-78v-166h78z" />
    <glyph glyph-name="C" unicode="C" horiz-adv-x="782" 
d="M513 314h217q0 -162 -84.5 -248t-243.5 -86q-166 0 -261.5 110.5t-95.5 285.5q0 170 88.5 282t219.5 112q154 0 206 -113l13 93h147v-299h-212q-4 70 -32.5 110t-64.5 40q-48 0 -77 -55t-29 -169q0 -113 31.5 -170.5t79.5 -57.5q80 0 98 165z" />
    <glyph glyph-name="D" unicode="D" horiz-adv-x="812" 
d="M433 750q166 0 250 -100.5t84 -272.5q0 -174 -84 -275.5t-250 -101.5h-371v154h68v442h-68v154h371zM354 596v-442h46q113 0 113 223q0 118 -29 168.5t-84 50.5h-46z" />
    <glyph glyph-name="E" unicode="E" horiz-adv-x="718" 
d="M663 459h-128v4q0 80 -19.5 106.5t-79.5 26.5h-77v-142h121v-133h-121v-167h77q59 0 79 29.5t20 108.5v32h128v-324h-601v154h73v442h-73v154h601v-291z" />
    <glyph glyph-name="F" unicode="F" horiz-adv-x="693" 
d="M62 750h581v-285h-128v4q0 74 -19.5 100.5t-79.5 26.5h-57v-170h124v-133h-124v-139h111v-154h-408v154h73v442h-73v154z" />
    <glyph glyph-name="G" unicode="G" horiz-adv-x="818" 
d="M432 388h353v-125h-47v-263h-139l-24 119q-56 -139 -206 -139q-154 0 -239 106.5t-85 290.5q0 180 87.5 286.5t232.5 106.5q150 0 205 -121l14 101h147v-279h-224q-3 62 -29 96t-65 34q-51 0 -82.5 -57.5t-31.5 -166.5q0 -110 34 -169t91 -59q43 0 70.5 31.5t32.5 82.5
h-95v125z" />
    <glyph glyph-name="H" unicode="H" horiz-adv-x="895" 
d="M833 596h-68v-442h68v-154h-338v154h46v169h-187v-169h46v-154h-338v154h68v442h-68v154h338v-154h-46v-147h187v147h-46v154h338v-154z" />
    <glyph glyph-name="I" unicode="I" horiz-adv-x="494" 
d="M62 0v154h73v442h-73v154h370v-154h-73v-442h73v-154h-370z" />
    <glyph glyph-name="J" unicode="J" horiz-adv-x="658" 
d="M559 263q0 -135 -63.5 -209t-221.5 -74q-82 0 -135.5 19t-81 59t-37.5 88.5t-10 121.5v64h213v-101q0 -39 11 -58.5t39 -19.5q30 0 46 21t16 57v365h-87v154h384v-154h-73v-333z" />
    <glyph glyph-name="K" unicode="K" horiz-adv-x="868" 
d="M777 154h56v-154h-364v154h50l-98 160l-62 -56v-104h39v-154h-336v154h73v442h-73v154h341v-154h-44v-170l182 170h-77v154h350v-154h-85l-147 -134z" />
    <glyph glyph-name="L" unicode="L" horiz-adv-x="668" 
d="M359 596v-442h37q60 0 82 30t22 108v47h128v-339h-566v154h73v442h-73v154h385v-154h-88z" />
    <glyph glyph-name="M" unicode="M" horiz-adv-x="1121" 
d="M1059 596h-73v-442h73v-154h-341v154h44v345l-194 -508h-76l-183 477v-314h44v-154h-291v154h73v442h-73v154h350l158 -433l162 433h327v-154z" />
    <glyph glyph-name="N" unicode="N" horiz-adv-x="860" 
d="M514 750h290v-154h-63v-596h-169l-278 391v-237h64v-154h-296v154h73v442h-73v154h237l273 -394v240h-58v154z" />
    <glyph glyph-name="O" unicode="O" horiz-adv-x="808" 
d="M404 770q166 0 262.5 -111.5t96.5 -281.5q0 -173 -96 -285t-263 -112q-168 0 -263.5 111.5t-95.5 285.5q0 171 95.5 282t263.5 111zM404 149q47 0 76 56.5t29 171.5t-29 169.5t-76 54.5q-48 0 -76.5 -54t-28.5 -170t28.5 -172t76.5 -56z" />
    <glyph glyph-name="P" unicode="P" horiz-adv-x="772" 
d="M462 0h-400v154h73v442h-73v154h399q291 0 291 -229q0 -127 -82 -188.5t-221 -61.5h-90v-117h103v-154zM359 404h58q82 0 82 96t-82 96h-58v-192z" />
    <glyph glyph-name="Q" unicode="Q" horiz-adv-x="801" 
d="M614 49q9 -30 32 -39.5t71 -9.5h24v-163q-41 -9 -92 -9q-174 0 -199 155q-26 -3 -51 -3q-168 0 -261 111t-93 286q0 172 93 282.5t261 110.5q166 0 261 -111t95 -282q0 -105 -36.5 -190.5t-104.5 -137.5zM299 377q0 -228 100 -228q46 0 74 56t28 172q0 115 -27.5 169.5
t-74.5 54.5q-100 0 -100 -224z" />
    <glyph glyph-name="R" unicode="R" horiz-adv-x="832" 
d="M777 154h16v-154h-191q-108 0 -108 128v118q0 49 -44 49h-91v-141h49v-154h-346v154h73v442h-73v154h420q150 0 213.5 -48.5t63.5 -143.5q0 -80 -44 -130t-125 -58q75 -5 106.5 -38.5t31.5 -74.5v-57q0 -25 11.5 -35.5t37.5 -10.5zM434 429q34 0 54.5 22t20.5 64
q0 81 -75 81h-75v-167h75z" />
    <glyph glyph-name="S" unicode="S" horiz-adv-x="709" 
d="M409 476q9 -4 32.5 -13.5t35 -14t34 -15t34.5 -18.5t31 -21t29.5 -25t23.5 -29t20 -35t11.5 -40.5t4.5 -47.5q0 -111 -70 -174t-194 -63q-70 0 -123 24.5t-76 67.5l-20 -72h-117v261h160q7 -52 39 -87t82 -35q30 0 52.5 14t22.5 39q0 32 -28.5 52.5t-89.5 44.5
q-34 13 -47 18.5t-44.5 21t-46.5 27t-38 33t-34 43.5t-19.5 53t-8.5 67q0 107 75.5 162.5t177.5 55.5q65 0 111.5 -25t67.5 -56l17 61h119v-246h-163q-6 51 -33 84t-64 33q-33 0 -51 -14t-18 -37q0 -32 26.5 -52.5t78.5 -41.5z" />
    <glyph glyph-name="T" unicode="T" horiz-adv-x="780" 
d="M585 0h-390v154h83v468h-38q-37 0 -55.5 -34t-18.5 -125v-7h-121v294h690v-294h-121v7q0 91 -18.5 125t-55.5 34h-38v-468h83v-154z" />
    <glyph glyph-name="U" unicode="U" horiz-adv-x="788" 
d="M689 258q0 -126 -74 -201.5t-208 -75.5q-164 0 -234 72.5t-70 204.5v338h-73v154h351v-154h-54v-346q0 -41 23.5 -69t63.5 -28t63 28t23 69v346h-48v154h310v-154h-73v-338z" />
    <glyph glyph-name="V" unicode="V" horiz-adv-x="786" 
d="M446 750h317v-154h-76l-164 -596h-260l-168 596h-70v154h347v-154h-44l89 -377l82 377h-53v154z" />
    <glyph glyph-name="W" unicode="W" horiz-adv-x="1208" 
d="M868 750h317v-154h-76l-164 -596h-250l-93 402l-94 -402h-245l-168 596h-70v154h347v-154h-44l89 -381l92 381h-63v154h348v-154h-49l93 -379l83 379h-53v154z" />
    <glyph glyph-name="X" unicode="X" horiz-adv-x="809" 
d="M777 596h-65l-152 -225l158 -217h56v-154h-360v154h49l-96 128l-79 -128h52v-154h-310v154h64l152 246l-150 196h-59v154h362v-154h-48l90 -126l82 126h-54v154h308v-154z" />
    <glyph glyph-name="Y" unicode="Y" horiz-adv-x="763" 
d="M434 750h307v-154h-63l-182 -340v-102h78v-154h-389v154h77v108l-170 334h-67v154h354v-154h-52l87 -178l76 178h-56v154z" />
    <glyph glyph-name="Z" unicode="Z" horiz-adv-x="722" 
d="M539 330h123v-330h-617v122l341 484h-99q-60 0 -79.5 -32t-19.5 -107h-123v283h583v-118l-338 -489h122q59 0 83 34.5t24 113.5v39z" />
    <glyph glyph-name="bracketleft" unicode="[" horiz-adv-x="407" 
d="M62 -190v990h300v-154h-93v-682h93v-154h-300z" />
    <glyph glyph-name="backslash" unicode="\" horiz-adv-x="638" 
d="M25 800h198l390 -889h-198z" />
    <glyph glyph-name="bracketright" unicode="]" horiz-adv-x="407" 
d="M345 800v-990h-300v154h93v682h-93v154h300z" />
    <glyph glyph-name="asciicircum" unicode="^" horiz-adv-x="435" 
d="M435 420h-146l-71 199l-72 -199h-146l146 350h143z" />
    <glyph glyph-name="underscore" unicode="_" horiz-adv-x="654" 
d="M25 -26h604v-157h-604v157z" />
    <glyph glyph-name="grave" unicode="`" horiz-adv-x="322" 
d="M163 592l-163 187h182l140 -187h-159z" />
    <glyph glyph-name="a" unicode="a" horiz-adv-x="654" 
d="M565 146h54v-146h-260v110q-4 -21 -14 -41t-28.5 -41.5t-52 -34.5t-76.5 -13q-163 0 -163 161q0 89 65 123.5t183 34.5h81v46q0 28 -12 45t-34 17t-35 -16.5t-13 -39.5v-9h-206v9q0 188 266 188q136 0 190.5 -51.5t54.5 -146.5v-195zM295 123q30 0 44.5 18.5t14.5 45.5
v34h-36q-74 0 -74 -54q0 -20 14 -32t37 -12z" />
    <glyph glyph-name="b" unicode="b" horiz-adv-x="645" 
d="M416 539q88 0 145 -73t57 -206t-57 -206.5t-145 -73.5q-68 0 -103.5 33t-44.5 81l-34 -95h-168v614h-54v137h265v-293q34 82 139 82zM331 126q63 0 63 134q0 133 -63 133q-24 0 -39 -20t-15 -43v-141q0 -23 15 -43t39 -20z" />
    <glyph glyph-name="c" unicode="c" horiz-adv-x="606" 
d="M362 294q0 55 -14 84.5t-38 29.5q-27 0 -42.5 -38t-15.5 -111t15.5 -111t42.5 -38q24 0 38 29.5t14 84.5h220q0 -110 -73.5 -177t-198.5 -67q-133 0 -208 77t-75 202q0 126 75.5 203t207.5 77q125 0 198.5 -67.5t73.5 -177.5h-220z" />
    <glyph glyph-name="d" unicode="d" horiz-adv-x="668" 
d="M579 146h54v-147h-265v63q-34 -82 -139 -82q-88 0 -145 73.5t-57 206.5t57 206t145 73q105 0 139 -82v156h-72v137h283v-604zM314 126q24 0 39 20t15 43v141q0 23 -15 43t-39 20q-63 0 -63 -133q0 -134 63 -134z" />
    <glyph glyph-name="e" unicode="e" horiz-adv-x="615" 
d="M371 178h220q-19 -94 -90.5 -146t-182.5 -52q-133 0 -212 77t-79 202t79 202.5t212 77.5t201.5 -69.5t68.5 -195.5v-38h-336q3 -68 18.5 -97t44.5 -29q21 0 36 17t20 51zM313 423q-53 0 -61 -107h118q-7 107 -57 107z" />
    <glyph glyph-name="f" unicode="f" horiz-adv-x="423" 
d="M358 617q-20 0 -33 -4.5t-18 -13.5t-6.5 -17t-1.5 -20v-43h79v-146h-79v-227h74v-146h-338v146h53v227h-53v146h53v100q0 71 43 109.5t149 38.5q36 0 108 -9v-143q-12 2 -30 2z" />
    <glyph glyph-name="g" unicode="g" horiz-adv-x="660" 
d="M350 141q150 0 212.5 -39.5t62.5 -135.5q0 -68 -29.5 -106t-103.5 -56.5t-209 -18.5q-84 0 -139 12.5t-78.5 35.5t-31 43.5t-7.5 47.5q0 63 60 90q-31 31 -31 83q0 44 31.5 80t74.5 51q-85 47 -85 138q0 77 68 125t181 48q54 0 104 -13q5 139 121 139q18 0 35 -2.5
t25 -4.5l8 -2v-129q-12 2 -32 2q-34 0 -50 -10t-21 -34q60 -48 60 -119q0 -77 -68.5 -125.5t-181.5 -48.5q-40 0 -73 6q-21 -8 -21 -28q0 -18 19 -23.5t67 -5.5h32zM326 440q-47 0 -47 -74t47 -74q48 0 48 74t-48 74zM352 -122q110 0 110 48q0 22 -23.5 30t-90.5 8h-64
q-49 0 -88 6q-6 -10 -6 -26q0 -34 36.5 -50t85.5 -16h40z" />
    <glyph glyph-name="h" unicode="h" 
d="M611 146h48v-146h-259v338q0 55 -42 55q-25 0 -42 -18t-17 -44v-185h43v-146h-307v146h53v458h-53v146h264v-305q60 94 157 94q76 0 115.5 -44.5t39.5 -103.5v-245z" />
    <glyph glyph-name="i" unicode="i" horiz-adv-x="387" 
d="M179 569q-63 0 -97.5 30t-34.5 76q0 47 34.5 77t97.5 30t97.5 -30t34.5 -77q0 -46 -34.5 -76t-97.5 -30zM299 146h53v-146h-317v146h53v226h-53v147h264v-373z" />
    <glyph glyph-name="j" unicode="j" horiz-adv-x="356" 
d="M179 570q-63 0 -97.5 30t-34.5 76q0 47 34.5 77t97.5 30t97.5 -30t34.5 -77q0 -46 -34.5 -76t-97.5 -30zM295 -61q0 -80 -41 -113t-127 -33q-72 0 -117 9v153q20 -2 30 -2q28 0 36 10.5t8 33.5v375h-73v147h284v-580z" />
    <glyph glyph-name="k" unicode="k" horiz-adv-x="707" 
d="M623 146h51v-146h-271v140l-55 88l-49 -31v-51h43v-146h-307v146h53v457h-53v147h264v-461l130 84h-70v146h305v-146h-89l-68 -43z" />
    <glyph glyph-name="l" unicode="l" horiz-adv-x="387" 
d="M299 146h53v-146h-317v146h53v457h-53v147h264v-604z" />
    <glyph glyph-name="m" unicode="m" horiz-adv-x="1003" 
d="M920 146h48v-146h-259v338q0 55 -41 55q-25 0 -41 -18t-16 -44v-185h38v-146h-249v338q0 55 -42 55q-25 0 -42 -18t-17 -44v-185h39v-146h-303v146h53v226h-53v147h264v-74q61 94 157 94q55 0 95 -28t54 -75q51 103 160 103q68 0 111.5 -41.5t43.5 -106.5v-245z" />
    <glyph glyph-name="n" unicode="n" 
d="M611 146h48v-146h-259v338q0 55 -42 55q-25 0 -42 -18t-17 -44v-185h43v-146h-307v146h53v226h-53v147h264v-74q61 94 157 94q68 0 111.5 -41.5t43.5 -106.5v-245z" />
    <glyph glyph-name="o" unicode="o" horiz-adv-x="614" 
d="M307 539q127 0 203.5 -77.5t76.5 -201.5t-76.5 -202t-203.5 -78q-126 0 -203 78t-77 202t76.5 201.5t203.5 77.5zM307 110q56 0 56 150q0 148 -56 148t-56 -148q0 -150 56 -150z" />
    <glyph glyph-name="p" unicode="p" horiz-adv-x="644" 
d="M415 539q89 0 145.5 -68.5t56.5 -200.5t-56.5 -201t-145.5 -69q-105 0 -140 85v-138h62v-137h-327v137h54v425h-54v147h265v-65q35 85 140 85zM330 146q63 0 63 124q0 123 -63 123q-24 0 -39 -20t-15 -43l-1 6v-132l1 5q0 -23 15 -43t39 -20z" />
    <glyph glyph-name="q" unicode="q" horiz-adv-x="645" 
d="M579 -53h54v-137h-327v137h62v135q-34 -82 -139 -82q-89 0 -145.5 69t-56.5 201t56.5 200.5t145.5 68.5q71 0 107 -36t43 -86l55 102h145v-572zM314 146q24 0 39 20t15 43v121q0 23 -15 43t-39 20q-63 0 -63 -123q0 -124 63 -124z" />
    <glyph glyph-name="r" unicode="r" horiz-adv-x="486" 
d="M427 539q25 0 35 -5v-175q-15 10 -46 10q-54 0 -85.5 -35.5t-31.5 -128.5v-59h77v-146h-341v146h53v226h-53v147h264v-102q14 58 48 90t80 32z" />
    <glyph glyph-name="s" unicode="s" horiz-adv-x="542" 
d="M332 345q33 -10 53 -17t49.5 -22.5t46.5 -33t29.5 -46t12.5 -63.5q0 -82 -51.5 -128.5t-134.5 -46.5q-120 0 -176 72l-11 -60h-115v178h139q9 -34 31 -56t53 -22q41 0 41 31q0 12 -6.5 21t-24 17.5t-28.5 12.5t-39 14q-29 9 -48.5 17t-45.5 23t-41.5 32.5t-26.5 45.5
t-11 63q0 82 54 120t129 38q100 0 157 -63l9 47h117v-156h-138q-28 74 -85 74q-40 0 -40 -34q0 -11 6.5 -19t25 -15.5t29 -11t40.5 -12.5z" />
    <glyph glyph-name="t" unicode="t" horiz-adv-x="431" 
d="M391 0q-67 -20 -161 -20q-54 0 -88.5 13t-49.5 40t-20 53.5t-5 67.5v219h-55v146q78 0 105.5 41.5t39.5 136.5h121v-178h107v-146h-107v-183q0 -23 12 -33t41 -10q45 0 60 2v-149z" />
    <glyph glyph-name="u" unicode="u" horiz-adv-x="670" 
d="M583 147h53v-147h-264v74q-60 -94 -157 -94q-76 0 -115.5 44.5t-39.5 103.5v245h-48v146h259v-338q0 -55 42 -55q25 0 42 18t17 44v185h-43v146h254v-372z" />
    <glyph glyph-name="v" unicode="v" horiz-adv-x="641" 
d="M624 519v-146h-46l-144 -373h-226l-147 373h-44v146h286v-146h-33l70 -227l67 227h-45v146h262z" />
    <glyph glyph-name="w" unicode="w" horiz-adv-x="957" 
d="M940 519v-146h-45l-130 -373h-206l-82 319l-75 -319h-209l-133 373h-43v146h295v-146h-44l52 -220l82 366h187l88 -365l47 219h-51v146h267z" />
    <glyph glyph-name="x" unicode="x" horiz-adv-x="670" 
d="M585 146h57v-146h-325v146l-57 55l-66 -55h58v-146h-232v146h49l132 113l-117 114h-57v146h326v-146l63 -62l67 62h-70v146h226v-146h-42l-125 -117z" />
    <glyph glyph-name="y" unicode="y" horiz-adv-x="641" 
d="M624 519v-146h-42l-165 -371q-21 -48 -40 -80.5t-47 -64.5t-64.5 -48t-82.5 -16t-83 7l11 154q40 -2 71 -2q39 0 63 23l-183 398h-50v146h301v-146h-43l73 -197l80 197h-51v146h252z" />
    <glyph glyph-name="z" unicode="z" horiz-adv-x="556" 
d="M414 228h104v-228h-502v91l246 322h-43q-52 0 -68.5 -18.5t-16.5 -70.5h-105v195h476v-85l-243 -328h60q52 0 72 20.5t20 74.5v27z" />
    <glyph glyph-name="braceleft" unicode="{" horiz-adv-x="492" 
d="M152 691q0 74 36.5 103.5t121.5 29.5q92 0 137 -9v-153q-20 2 -30 2q-30 0 -47 -12t-17 -32v-191q0 -44 -36.5 -79t-123.5 -35q87 0 123.5 -35t36.5 -79v-192q0 -20 17 -32t47 -12q10 0 30 2v-153q-45 -9 -137 -9q-85 0 -121.5 29.5t-36.5 103.5v252q0 49 -44 49h-63v152
h63q44 0 44 49v251z" />
    <glyph glyph-name="bar" unicode="|" horiz-adv-x="331" 
d="M62 -230v1030h207v-1030h-207z" />
    <glyph glyph-name="braceright" unicode="}" horiz-adv-x="492" 
d="M340 -62q0 -74 -36.5 -103.5t-121.5 -29.5q-92 0 -137 9v153q20 -2 30 -2q30 0 47 12t17 32v192q0 44 36.5 79t123.5 35q-87 0 -123.5 35t-36.5 79v191q0 20 -17 32t-47 12q-10 0 -30 -2v153q45 9 137 9q85 0 121.5 -29.5t36.5 -103.5v-251q0 -49 44 -49h63v-152h-63
q-44 0 -44 -49v-252z" />
    <glyph glyph-name="asciitilde" unicode="~" horiz-adv-x="603" 
d="M428 281q-64 0 -143.5 22.5t-100.5 22.5q-67 0 -67 -51h-117q0 99 50 157.5t124 58.5q64 0 144 -22.5t101 -22.5q67 0 67 51h117q0 -99 -50 -157.5t-125 -58.5z" />
    <glyph glyph-name="exclamdown" unicode="&#xa1;" horiz-adv-x="330" 
d="M165 580q54 0 89.5 -31.5t35.5 -77.5t-35.5 -78t-89.5 -32t-89.5 32t-35.5 78t35.5 77.5t89.5 31.5zM271 -190h-212l8 471h196z" />
    <glyph glyph-name="cent" unicode="&#xa2;" horiz-adv-x="645" 
d="M328 110q24 0 38 29.5t14 84.5h220q0 -94 -55 -158t-151 -80v-114h-143v116q-98 21 -152 93.5t-54 177.5t54 177.5t152 94.5v116h143v-114q96 -17 151 -81t55 -158h-220q0 55 -14 84.5t-38 29.5q-27 0 -42.5 -38t-15.5 -111t15.5 -111t42.5 -38z" />
    <glyph glyph-name="sterling" unicode="&#xa3;" horiz-adv-x="770" 
d="M704 237q1 -9 1 -17q0 -240 -262 -240q-47 0 -101 20t-93 20q-46 0 -99.5 -10t-124.5 -10v155q79 0 119 20t40 67q0 23 -12 59h-119v105h76q-35 85 -35 146q0 107 75.5 162.5t177.5 55.5q65 0 111.5 -25t67.5 -56l17 61h119v-246h-163q-6 51 -33 84t-64 33q-69 0 -69 -68
q0 -56 27 -147h166v-105h-140q5 -35 5 -67q0 -63 -42 -105q43 -9 68 -9q45 0 67 22t22 78q0 12 -1 17h199z" />
    <glyph glyph-name="currency" unicode="&#xa4;" horiz-adv-x="662" 
d="M611 260q0 -116 -66 -191l90 -123h-151l-39 54q-52 -20 -114 -20t-114 20l-39 -54h-151l90 124q-66 75 -66 190q0 113 66 190l-90 123h151l39 -54q52 20 114 20t114 -20l39 54h151l-89 -123q65 -76 65 -190zM331 115q30 0 48 36t18 109t-18 108t-48 35t-48 -35t-18 -108
t18 -109t48 -36z" />
    <glyph glyph-name="yen" unicode="&#xa5;" horiz-adv-x="766" 
d="M434 750h307v-154h-63l-121 -190h107v-105h-171l1 -21h170v-105h-168v-21h78v-154h-389v154h77v21h-168v105h166l-1 21h-165v105h108l-110 190h-67v154h354v-154h-52l84 -134l79 134h-56v154z" />
    <glyph glyph-name="brokenbar" unicode="&#xa6;" horiz-adv-x="367" 
d="M80 357v443h207v-443h-207zM80 -230v444h207v-444h-207z" />
    <glyph glyph-name="section" unicode="&#xa7;" horiz-adv-x="735" 
d="M584 131q56 -53 56 -132q0 -96 -66.5 -151t-184.5 -55q-66 0 -115.5 20.5t-72.5 56.5l-20 -60h-115v228h157q7 -44 36 -73t75 -29q26 0 46 11t20 30q0 26 -26.5 43.5t-80.5 36.5q-102 37 -140 63q-88 60 -88 167q0 98 90 146q-60 55 -60 144q0 49 21.5 87t57 59.5
t77 32.5t86.5 11q62 0 105.5 -21.5t64.5 -48.5l16 53h117v-215h-160q-6 43 -31 70.5t-58 27.5q-29 0 -45 -11t-16 -28q0 -27 24.5 -44t72.5 -35q8 -3 38 -14t42 -16t39 -18t40 -23t32 -27t28.5 -34.5t16.5 -42t7 -51.5q0 -106 -86 -158zM264 318q0 -27 24.5 -44t72.5 -35
l67 -26q1 0 4 -1q42 9 42 38q0 18 -16.5 33.5t-35 24t-55.5 22.5q-7 2 -31 11t-36 13q-36 -8 -36 -36z" />
    <glyph glyph-name="dieresis" unicode="&#xa8;" horiz-adv-x="426" 
d="M96 620q-42 0 -69 24t-27 60t27.5 61t68.5 25t68.5 -25t27.5 -61t-27 -60t-69 -24zM329 620q-42 0 -69 24t-27 60t27.5 61t68.5 25t69 -25t28 -61t-27.5 -60t-69.5 -24z" />
    <glyph glyph-name="copyright" unicode="&#xa9;" horiz-adv-x="860" 
d="M430 770q164 0 274.5 -113.5t110.5 -280.5q0 -170 -110 -283t-275 -113t-275 113t-110 283q0 167 110.5 280.5t274.5 113.5zM430 67q123 0 209 89.5t86 219.5q0 129 -86 218t-209 89t-209 -89t-86 -218q0 -130 86 -219.5t209 -89.5zM438 262q41 0 50 83h120
q0 -83 -46 -127t-132 -44q-90 0 -141 56t-51 145q0 86 47.5 142.5t117.5 56.5q82 0 111 -56l7 46h81v-153h-118q-1 35 -15.5 55t-33.5 20q-54 0 -54 -111q0 -57 16 -85t41 -28z" />
    <glyph glyph-name="ordfeminine" unicode="&#xaa;" horiz-adv-x="342" 
d="M302 572h29v-76h-143v57q-4 -24 -26.5 -45t-66.5 -21q-88 0 -88 82q0 45 35.5 62.5t99.5 17.5h43v23q0 30 -24 30q-11 0 -17.5 -8t-6.5 -19v-5h-114v5q0 95 145 95q75 0 104.5 -26t29.5 -74v-98zM154 561q31 0 31 31v17h-18q-39 0 -39 -27q0 -21 26 -21z" />
    <glyph glyph-name="guillemotleft" unicode="&#xab;" horiz-adv-x="725" 
d="M183 41l-153 218l153 218h194l-153 -218l153 -218h-194zM501 41l-153 218l153 218h194l-153 -218l153 -218h-194z" />
    <glyph glyph-name="logicalnot" unicode="&#xac;" horiz-adv-x="1014" 
d="M200 382h604v-371h-164v214h-440v157z" />
    <glyph glyph-name="registered" unicode="&#xae;" horiz-adv-x="850" 
d="M425 770q164 0 274.5 -113.5t110.5 -280.5q0 -170 -110 -283t-275 -113t-275 113t-110 283q0 167 110.5 280.5t274.5 113.5zM425 67q123 0 209 89.5t86 219.5q0 129 -86 218t-209 89t-209 -89t-86 -218q0 -130 86 -219.5t209 -89.5zM587 288q0 -23 26 -23h8v-80h-105
q-59 0 -59 65v61q0 22 -21 22h-48v-68h26v-80h-189v80h39v220h-39v80h229q80 0 114.5 -24.5t34.5 -72.5q0 -41 -23.5 -66t-67.5 -29q41 -3 58 -19.5t17 -37.5v-28zM427 403q38 0 38 42q0 40 -38 40h-39v-82h39z" />
    <glyph glyph-name="macron" unicode="&#xaf;" horiz-adv-x="439" 
d="M0 789h439v-152h-439v152z" />
    <glyph glyph-name="degree" unicode="&#xb0;" horiz-adv-x="407" 
d="M196 770q73 0 119.5 -45.5t46.5 -115.5q0 -69 -47 -115t-119 -46t-119 46t-47 115q0 70 46.5 115.5t119.5 45.5zM132 609q0 -84 64 -84q29 0 46.5 21.5t17.5 62.5q0 39 -17.5 60.5t-46.5 21.5q-30 0 -47 -21.5t-17 -60.5z" />
    <glyph glyph-name="plusminus" unicode="&#xb1;" horiz-adv-x="728" 
d="M666 318h-220v-161h220v-157h-604v157h221v161h-221v157h221v195h163v-195h220v-157z" />
    <glyph glyph-name="uni00B2" unicode="&#xb2;" horiz-adv-x="410" 
d="M29 490v51q0 43 33 76.5t72.5 51.5t72.5 42.5t33 49.5q0 41 -37 41q-19 0 -31 -15t-12 -44l1 -9h-126l-1 9q0 65 47 111.5t125 46.5q83 0 127.5 -34.5t44.5 -94.5q0 -37 -19 -67.5t-47.5 -48.5t-57 -31.5t-51.5 -25t-27 -21.5h114v37h91v-125h-352z" />
    <glyph glyph-name="uni00B3" unicode="&#xb3;" horiz-adv-x="432" 
d="M310 695q36 -10 59.5 -33t23.5 -58q0 -55 -52 -90t-138 -35q-81 0 -128.5 41.5t-47.5 109.5l1 14h137l-1 -14q0 -51 39 -51q38 0 38 42q0 34 -30 34h-38v70h40q29 0 29 35q0 42 -38 42q-23 0 -31.5 -13.5t-8.5 -42.5l1 -8h-134q-1 5 -1 8q0 71 48 113t129 42
q83 0 132.5 -34t49.5 -85q0 -62 -79 -87z" />
    <glyph glyph-name="acute" unicode="&#xb4;" horiz-adv-x="322" 
d="M0 592l140 187h182l-163 -187h-159z" />
    <glyph glyph-name="paragraph" unicode="&#xb6;" horiz-adv-x="810" 
d="M45 512q0 103 67.5 170.5t169.5 67.5h483v-147h-73v-743h-163v743h-84v-743h-163v411q-102 0 -169.5 68.5t-67.5 172.5z" />
    <glyph glyph-name="periodcentered" unicode="&#xb7;" horiz-adv-x="374" 
d="M187 265q-54 0 -89.5 31.5t-35.5 77.5t35.5 78t89.5 32t89.5 -32t35.5 -78t-35.5 -77.5t-89.5 -31.5z" />
    <glyph glyph-name="cedilla" unicode="&#xb8;" horiz-adv-x="343" 
d="M197 -61q31 0 62 -9t57.5 -37t26.5 -70q0 -64 -55.5 -94.5t-140.5 -30.5q-24 0 -50 6.5t-34 12.5v68q28 -8 53 -8q45 0 65.5 10t20.5 39q0 21 -15 33.5t-41 12.5q-21 0 -38.5 -6.5t-23.5 -13.5l-7 -6h-77l63 170h78l-38 -99q48 22 94 22z" />
    <glyph glyph-name="uni00B9" unicode="&#xb9;" horiz-adv-x="286" 
d="M216 578h52v-88h-257v88h65v178h-9q-29 0 -56 5v95q5 -1 13 -1q76 0 81 35h111v-312z" />
    <glyph glyph-name="ordmasculine" unicode="&#xba;" horiz-adv-x="333" 
d="M167 770q69 0 110.5 -39t41.5 -102t-41.5 -102.5t-110.5 -39.5t-111 39.5t-42 102.5t42 102t111 39zM167 554q28 0 28 75q0 74 -28 74q-29 0 -29 -74q0 -75 29 -75z" />
    <glyph glyph-name="guillemotright" unicode="&#xbb;" horiz-adv-x="725" 
d="M183 259l-153 218h194l153 -218l-153 -218h-194zM501 259l-153 218h194l153 -218l-153 -218h-194z" />
    <glyph glyph-name="onequarter" unicode="&#xbc;" horiz-adv-x="927" 
d="M297 438v-88h-257v88h65v178h-9q-28 0 -56 5v95q5 -1 13 -1q76 0 81 35h111v-312h52zM614 750h151l-487 -750h-151zM887 121h-59v-33h44v-88h-245v88h66v33h-180v72l185 207h130v-207h59v-72zM609 193h84v97z" />
    <glyph glyph-name="onehalf" unicode="&#xbd;" horiz-adv-x="945" 
d="M297 438v-88h-257v88h65v178h-9q-28 0 -56 5v95q5 -1 13 -1q76 0 81 35h111v-312h52zM614 750h151l-487 -750h-151zM814 125h91v-125h-352v51q0 43 33 76.5t72.5 51.5t72.5 42.5t33 49.5q0 41 -37 41q-19 0 -31 -15t-12 -44l1 -9h-126l-1 9q0 65 47 111.5t125 46.5
q83 0 127.5 -34.5t44.5 -94.5q0 -37 -19 -67.5t-47.5 -48.5t-57 -31.5t-51.5 -25t-27 -21.5h114v37z" />
    <glyph glyph-name="threequarters" unicode="&#xbe;" horiz-adv-x="1013" 
d="M406 464q0 -55 -52 -90t-138 -35q-81 0 -128.5 41.5t-47.5 109.5l1 14h137l-1 -14q0 -51 39 -51q38 0 38 42q0 34 -30 34h-38v70h40q29 0 29 35q0 42 -38 42q-23 0 -31.5 -13.5t-8.5 -42.5l1 -8h-134q-1 5 -1 8q0 71 48 113t129 42q83 0 132.5 -34t49.5 -85
q0 -62 -79 -87q36 -10 59.5 -33t23.5 -58zM700 750h151l-487 -750h-151zM973 121h-59v-33h44v-88h-245v88h66v33h-180v72l185 207h130v-207h59v-72zM695 193h84v97z" />
    <glyph glyph-name="questiondown" unicode="&#xbf;" horiz-adv-x="609" 
d="M311 583q54 0 89.5 -31.5t35.5 -77.5t-35.5 -78t-89.5 -32t-89.5 32t-35.5 78t35.5 77.5t89.5 31.5zM598 32q0 -112 -79 -175.5t-219 -63.5q-135 0 -208 52.5t-73 137.5q0 50 21 87.5t51.5 60.5t61 43t51.5 46.5t21 60.5l-1 17h195q1 -16 1 -29q0 -41 -16 -74t-39 -54.5
t-46 -41t-39 -46t-16 -58.5q0 -27 12.5 -44.5t38.5 -17.5q31 0 47.5 22t16.5 77q0 12 -1 17h219q1 -9 1 -17z" />
    <glyph glyph-name="Agrave" unicode="&#xc0;" horiz-adv-x="800" 
d="M496 802h-180l-163 187h203zM723 154h52v-154h-347v154h53l-19 77h-177l-18 -77h53v-154h-295v154h56l174 596h290zM310 336h126l-64 261z" />
    <glyph glyph-name="Aacute" unicode="&#xc1;" horiz-adv-x="800" 
d="M597 989l-163 -187h-179l140 187h202zM723 154h52v-154h-347v154h53l-19 77h-177l-18 -77h53v-154h-295v154h56l174 596h290zM310 336h126l-64 261z" />
    <glyph glyph-name="Acircumflex" unicode="&#xc2;" horiz-adv-x="800" 
d="M411 890l-70 -72h-168l146 187h183l146 -187h-168zM723 154h52v-154h-347v154h53l-19 77h-177l-18 -77h53v-154h-295v154h56l174 596h290zM310 336h126l-64 261z" />
    <glyph glyph-name="Atilde" unicode="&#xc3;" horiz-adv-x="800" 
d="M296 874q-26 0 -37 -10.5t-11 -35.5h-106q0 93 38.5 144.5t111.5 51.5q51 0 110 -20t80 -20q25 0 36 10.5t11 35.5h107q0 -93 -39 -145t-112 -52q-52 0 -110.5 20.5t-78.5 20.5zM723 154h52v-154h-347v154h53l-19 77h-177l-18 -77h53v-154h-295v154h56l174 596h290z
M310 336h126l-64 261z" />
    <glyph glyph-name="Adieresis" unicode="&#xc4;" horiz-adv-x="800" 
d="M258 837q-48 0 -80.5 30t-32.5 72t32.5 73t80.5 31q50 0 82 -30.5t32 -73.5t-32 -72.5t-82 -29.5zM538 837q-49 0 -81 29.5t-32 72.5q0 42 32 73t81 31t82 -31t33 -73t-33 -72t-82 -30zM723 154h52v-154h-347v154h53l-19 77h-177l-18 -77h53v-154h-295v154h56l174 596
h290zM310 336h126l-64 261z" />
    <glyph glyph-name="Aring" unicode="&#xc5;" horiz-adv-x="800" 
d="M398 775q-80 0 -134.5 53.5t-54.5 131.5q0 79 54 131.5t135 52.5t135 -52.5t54 -131.5q0 -78 -54.5 -131.5t-134.5 -53.5zM398 1029q-32 0 -51.5 -19t-19.5 -50q0 -30 20 -50t51 -20t51 20t20 50q0 31 -19 50t-52 19zM723 154h52v-154h-347v154h53l-19 77h-177l-18 -77
h53v-154h-295v154h56l174 596h290zM310 336h126l-64 261z" />
    <glyph glyph-name="AE" unicode="&#xc6;" horiz-adv-x="1048" 
d="M1002 459h-128v4q0 80 -19.5 106.5t-79.5 26.5h-77v-142h121v-133h-121v-167h77q59 0 79 29.5t20 108.5v32h128v-324h-601v154h73v77h-176l-34 -77h51v-154h-295v154h56l220 442h-85v154h791v-291zM344 336h130v260h-15z" />
    <glyph glyph-name="Ccedilla" unicode="&#xc7;" horiz-adv-x="782" 
d="M402 -20l-43 -53q29 8 57 8q34 0 66.5 -9.5t60.5 -38.5t28 -74q0 -67 -58.5 -99t-147.5 -32q-25 0 -52.5 7t-35.5 13v71q28 -8 55 -8q47 0 69 10t22 41q0 22 -16 35.5t-43 13.5q-23 0 -41 -7t-25 -14l-7 -7l-51 42l86 108q-133 24 -207 129.5t-74 259.5q0 170 88.5 282
t219.5 112q154 0 206 -113l13 93h147v-299h-212q-4 70 -32.5 110t-64.5 40q-48 0 -77 -55t-29 -169q0 -113 31.5 -170.5t79.5 -57.5q80 0 98 165h217q0 -162 -84.5 -248t-243.5 -86z" />
    <glyph glyph-name="Egrave" unicode="&#xc8;" horiz-adv-x="718" 
d="M458 802h-180l-163 187h203zM663 459h-128v4q0 80 -19.5 106.5t-79.5 26.5h-77v-142h121v-133h-121v-167h77q59 0 79 29.5t20 108.5v32h128v-324h-601v154h73v442h-73v154h601v-291z" />
    <glyph glyph-name="Eacute" unicode="&#xc9;" horiz-adv-x="718" 
d="M559 989l-163 -187h-179l140 187h202zM663 459h-128v4q0 80 -19.5 106.5t-79.5 26.5h-77v-142h121v-133h-121v-167h77q59 0 79 29.5t20 108.5v32h128v-324h-601v154h73v442h-73v154h601v-291z" />
    <glyph glyph-name="Ecircumflex" unicode="&#xca;" horiz-adv-x="718" 
d="M379 890l-70 -72h-168l146 187h183l146 -187h-168zM663 459h-128v4q0 80 -19.5 106.5t-79.5 26.5h-77v-142h121v-133h-121v-167h77q59 0 79 29.5t20 108.5v32h128v-324h-601v154h73v442h-73v154h601v-291z" />
    <glyph glyph-name="Edieresis" unicode="&#xcb;" horiz-adv-x="718" 
d="M220 837q-48 0 -80.5 30t-32.5 72t32.5 73t80.5 31q50 0 82 -30.5t32 -73.5t-32 -72.5t-82 -29.5zM500 837q-49 0 -81 29.5t-32 72.5q0 42 32 73t81 31t82 -31t33 -73t-33 -72t-82 -30zM663 459h-128v4q0 80 -19.5 106.5t-79.5 26.5h-77v-142h121v-133h-121v-167h77
q59 0 79 29.5t20 108.5v32h128v-324h-601v154h73v442h-73v154h601v-291z" />
    <glyph glyph-name="Igrave" unicode="&#xcc;" horiz-adv-x="494" 
d="M165 802l-163 187h203l140 -187h-180zM62 0v154h73v442h-73v154h370v-154h-73v-442h73v-154h-370z" />
    <glyph glyph-name="Iacute" unicode="&#xcd;" horiz-adv-x="494" 
d="M114 802l140 187h202l-163 -187h-179zM62 0v154h73v442h-73v154h370v-154h-73v-442h73v-154h-370z" />
    <glyph glyph-name="Icircumflex" unicode="&#xce;" horiz-adv-x="494" 
d="M246 890l-70 -72h-168l146 187h183l146 -187h-168zM62 596v154h370v-154h-73v-442h73v-154h-370v154h73v442h-73z" />
    <glyph glyph-name="Idieresis" unicode="&#xcf;" horiz-adv-x="494" 
d="M107 837q-48 0 -80.5 30t-32.5 72t32.5 73t80.5 31q50 0 82 -30.5t32 -73.5t-32 -72.5t-82 -29.5zM387 837q-49 0 -81 29.5t-32 72.5q0 42 32 73t81 31t82 -31t33 -73t-33 -72t-82 -30zM62 0v154h73v442h-73v154h370v-154h-73v-442h73v-154h-370z" />
    <glyph glyph-name="Eth" unicode="&#xd0;" horiz-adv-x="803" 
d="M423 750q166 0 250 -100.5t84 -272.5q0 -174 -84 -275.5t-250 -101.5h-371v154h68v149h-70v145h70v148h-68v154h371zM390 154q113 0 113 223q0 118 -29 168.5t-84 50.5h-46v-148h67v-145h-67v-149h46z" />
    <glyph glyph-name="Ntilde" unicode="&#xd1;" horiz-adv-x="860" 
d="M336 874q-26 0 -37 -10.5t-11 -35.5h-106q0 93 38.5 144.5t111.5 51.5q51 0 110 -20t80 -20q25 0 36 10.5t11 35.5h107q0 -93 -39 -145t-112 -52q-52 0 -110.5 20.5t-78.5 20.5zM514 750h290v-154h-63v-596h-169l-278 391v-237h64v-154h-296v154h73v442h-73v154h237
l273 -394v240h-58v154z" />
    <glyph glyph-name="Ograve" unicode="&#xd2;" horiz-adv-x="808" 
d="M322 802l-163 187h203l140 -187h-180zM404 770q166 0 262.5 -111.5t96.5 -281.5q0 -173 -96 -285t-263 -112q-168 0 -263.5 111.5t-95.5 285.5q0 171 95.5 282t263.5 111zM404 149q47 0 76 56.5t29 171.5t-29 169.5t-76 54.5q-48 0 -76.5 -54t-28.5 -170t28.5 -172
t76.5 -56z" />
    <glyph glyph-name="Oacute" unicode="&#xd3;" horiz-adv-x="808" 
d="M261 802l140 187h202l-163 -187h-179zM404 770q166 0 262.5 -111.5t96.5 -281.5q0 -173 -96 -285t-263 -112q-168 0 -263.5 111.5t-95.5 285.5q0 171 95.5 282t263.5 111zM404 149q47 0 76 56.5t29 171.5t-29 169.5t-76 54.5q-48 0 -76.5 -54t-28.5 -170t28.5 -172
t76.5 -56z" />
    <glyph glyph-name="Ocircumflex" unicode="&#xd4;" horiz-adv-x="808" 
d="M405 890l-70 -72h-168l146 187h183l146 -187h-168zM404 770q166 0 262.5 -111.5t96.5 -281.5q0 -173 -96 -285t-263 -112q-168 0 -263.5 111.5t-95.5 285.5q0 171 95.5 282t263.5 111zM404 149q47 0 76 56.5t29 171.5t-29 169.5t-76 54.5q-48 0 -76.5 -54t-28.5 -170
t28.5 -172t76.5 -56z" />
    <glyph glyph-name="Otilde" unicode="&#xd5;" horiz-adv-x="808" 
d="M301 1024q51 0 110 -20t80 -20q25 0 36 10.5t11 35.5h107q0 -93 -39 -145t-112 -52q-52 0 -110.5 20.5t-78.5 20.5q-26 0 -37 -10.5t-11 -35.5h-106q0 93 38.5 144.5t111.5 51.5zM404 770q166 0 262.5 -111.5t96.5 -281.5q0 -173 -96 -285t-263 -112q-168 0 -263.5 111.5
t-95.5 285.5q0 171 95.5 282t263.5 111zM404 149q47 0 76 56.5t29 171.5t-29 169.5t-76 54.5q-48 0 -76.5 -54t-28.5 -170t28.5 -172t76.5 -56z" />
    <glyph glyph-name="Odieresis" unicode="&#xd6;" horiz-adv-x="808" 
d="M264 837q-48 0 -80.5 30t-32.5 72t32.5 73t80.5 31q50 0 82 -30.5t32 -73.5t-32 -72.5t-82 -29.5zM544 837q-49 0 -81 29.5t-32 72.5q0 42 32 73t81 31t82 -31t33 -73t-33 -72t-82 -30zM404 770q166 0 262.5 -111.5t96.5 -281.5q0 -173 -96 -285t-263 -112
q-168 0 -263.5 111.5t-95.5 285.5q0 171 95.5 282t263.5 111zM404 149q47 0 76 56.5t29 171.5t-29 169.5t-76 54.5q-48 0 -76.5 -54t-28.5 -170t28.5 -172t76.5 -56z" />
    <glyph glyph-name="multiply" unicode="&#xd7;" horiz-adv-x="662" 
d="M600 462l-158 -158l158 -158l-111 -111l-158 158l-158 -158l-111 111l158 158l-158 158l111 111l158 -158l158 158z" />
    <glyph glyph-name="Oslash" unicode="&#xd8;" horiz-adv-x="810" 
d="M799 792l-116 -152q81 -105 81 -263q0 -173 -96 -285t-263 -112q-107 0 -189 49l-54 -71h-151l116 152q-81 105 -81 267q0 171 95.5 282t263.5 111q105 0 189 -49l54 71h151zM300 377q0 -27 1 -39l171 224q-26 39 -67 39q-48 0 -76.5 -54t-28.5 -170zM510 377q0 24 -1 36
l-171 -225q26 -39 67 -39q47 0 76 56.5t29 171.5z" />
    <glyph glyph-name="Ugrave" unicode="&#xd9;" horiz-adv-x="788" 
d="M326 802l-163 187h203l140 -187h-180zM689 258q0 -126 -74 -201.5t-208 -75.5q-164 0 -234 72.5t-70 204.5v338h-73v154h351v-154h-54v-346q0 -41 23.5 -69t63.5 -28t63 28t23 69v346h-48v154h310v-154h-73v-338z" />
    <glyph glyph-name="Uacute" unicode="&#xda;" horiz-adv-x="788" 
d="M265 802l140 187h202l-163 -187h-179zM689 258q0 -126 -74 -201.5t-208 -75.5q-164 0 -234 72.5t-70 204.5v338h-73v154h351v-154h-54v-346q0 -41 23.5 -69t63.5 -28t63 28t23 69v346h-48v154h310v-154h-73v-338z" />
    <glyph glyph-name="Ucircumflex" unicode="&#xdb;" horiz-adv-x="788" 
d="M427 890l-70 -72h-168l146 187h183l146 -187h-168zM452 750h310v-154h-73v-338q0 -126 -74 -201.5t-208 -75.5q-164 0 -234 72.5t-70 204.5v338h-73v154h351v-154h-54v-346q0 -41 23.5 -69t63.5 -28t63 28t23 69v346h-48v154z" />
    <glyph glyph-name="Udieresis" unicode="&#xdc;" horiz-adv-x="788" 
d="M268 837q-48 0 -80.5 30t-32.5 72t32.5 73t80.5 31q50 0 82 -30.5t32 -73.5t-32 -72.5t-82 -29.5zM548 837q-49 0 -81 29.5t-32 72.5q0 42 32 73t81 31t82 -31t33 -73t-33 -72t-82 -30zM689 258q0 -126 -74 -201.5t-208 -75.5q-164 0 -234 72.5t-70 204.5v338h-73v154
h351v-154h-54v-346q0 -41 23.5 -69t63.5 -28t63 28t23 69v346h-48v154h310v-154h-73v-338z" />
    <glyph glyph-name="Yacute" unicode="&#xdd;" horiz-adv-x="763" 
d="M582 989l-163 -187h-179l140 187h202zM434 750h307v-154h-63l-182 -340v-102h78v-154h-389v154h77v108l-170 334h-67v154h354v-154h-52l87 -178l76 178h-56v154z" />
    <glyph glyph-name="Thorn" unicode="&#xde;" horiz-adv-x="772" 
d="M480 556q135 0 198.5 -40t63.5 -133q0 -98 -69 -143.5t-205 -45.5h-119v-40h73v-154h-370v154h73v442h-73v154h370v-154h-73v-40h131zM407 313q82 0 82 62q0 61 -82 61h-58v-123h58z" />
    <glyph glyph-name="germandbls" unicode="&#xdf;" horiz-adv-x="750" 
d="M528 397q0 -22 19.5 -36.5t47 -26t54.5 -28.5t46.5 -52.5t19.5 -88.5q0 -82 -61 -133.5t-162 -51.5q-92 0 -139 20v133q18 -7 64 -7q52 0 52 39q0 17 -13.5 30t-33 25.5t-39 29t-33 49t-13.5 76.5q0 31 14.5 57.5t31.5 42t31.5 38.5t14.5 48q0 24 -17 41.5t-49 17.5
t-48 -17t-16 -39v-564h-264v146h53v227h-53v146h53v35q0 30 5 56t22 56.5t45 52.5t78 36.5t116 14.5q133 0 206.5 -55t73.5 -140q0 -33 -11 -58t-26.5 -39.5t-31 -26.5t-26.5 -25t-11 -29z" />
    <glyph glyph-name="agrave" unicode="&#xe0;" horiz-adv-x="654" 
d="M403 592h-159l-163 187h182zM565 146h54v-146h-260v110q-4 -21 -14 -41t-28.5 -41.5t-52 -34.5t-76.5 -13q-163 0 -163 161q0 89 65 123.5t183 34.5h81v46q0 28 -12 45t-34 17t-35 -16.5t-13 -39.5v-9h-206v9q0 188 266 188q136 0 190.5 -51.5t54.5 -146.5v-195zM295 123
q30 0 44.5 18.5t14.5 45.5v34h-36q-74 0 -74 -54q0 -20 14 -32t37 -12z" />
    <glyph glyph-name="aacute" unicode="&#xe1;" horiz-adv-x="654" 
d="M505 779l-163 -187h-159l140 187h182zM565 146h54v-146h-260v110q-4 -21 -14 -41t-28.5 -41.5t-52 -34.5t-76.5 -13q-163 0 -163 161q0 89 65 123.5t183 34.5h81v46q0 28 -12 45t-34 17t-35 -16.5t-13 -39.5v-9h-206v9q0 188 266 188q136 0 190.5 -51.5t54.5 -146.5v-195
zM295 123q30 0 44.5 18.5t14.5 45.5v34h-36q-74 0 -74 -54q0 -20 14 -32t37 -12z" />
    <glyph glyph-name="acircumflex" unicode="&#xe2;" horiz-adv-x="654" 
d="M319 655l-70 -72h-148l146 187h143l146 -187h-148zM565 146h54v-146h-260v110q-4 -21 -14 -41t-28.5 -41.5t-52 -34.5t-76.5 -13q-163 0 -163 161q0 89 65 123.5t183 34.5h81v46q0 28 -12 45t-34 17t-35 -16.5t-13 -39.5v-9h-206v9q0 188 266 188q136 0 190.5 -51.5
t54.5 -146.5v-195zM295 123q30 0 44.5 18.5t14.5 45.5v34h-36q-74 0 -74 -54q0 -20 14 -32t37 -12z" />
    <glyph glyph-name="atilde" unicode="&#xe3;" horiz-adv-x="654" 
d="M218 651q-24 0 -34 -9.5t-10 -32.5h-97q0 85 35.5 131.5t102.5 46.5q46 0 100 -18t73 -18q23 0 33 9.5t10 32.5h98q0 -85 -36 -132t-103 -47q-47 0 -100.5 18.5t-71.5 18.5zM565 146h54v-146h-260v110q-4 -21 -14 -41t-28.5 -41.5t-52 -34.5t-76.5 -13q-163 0 -163 161
q0 89 65 123.5t183 34.5h81v46q0 28 -12 45t-34 17t-35 -16.5t-13 -39.5v-9h-206v9q0 188 266 188q136 0 190.5 -51.5t54.5 -146.5v-195zM295 123q30 0 44.5 18.5t14.5 45.5v34h-36q-74 0 -74 -54q0 -20 14 -32t37 -12z" />
    <glyph glyph-name="adieresis" unicode="&#xe4;" horiz-adv-x="654" 
d="M210 620q-42 0 -69 24t-27 60t27.5 61t68.5 25t68.5 -25t27.5 -61t-27 -60t-69 -24zM443 620q-42 0 -69 24t-27 60t27.5 61t68.5 25t69 -25t28 -61t-27.5 -60t-69.5 -24zM565 146h54v-146h-260v110q-4 -21 -14 -41t-28.5 -41.5t-52 -34.5t-76.5 -13q-163 0 -163 161
q0 89 65 123.5t183 34.5h81v46q0 28 -12 45t-34 17t-35 -16.5t-13 -39.5v-9h-206v9q0 188 266 188q136 0 190.5 -51.5t54.5 -146.5v-195zM295 123q30 0 44.5 18.5t14.5 45.5v34h-36q-74 0 -74 -54q0 -20 14 -32t37 -12z" />
    <glyph glyph-name="aring" unicode="&#xe5;" horiz-adv-x="654" 
d="M326 580q-78 0 -131.5 52.5t-53.5 128.5q0 78 52.5 129.5t132.5 51.5t132.5 -51.5t52.5 -129.5q0 -76 -53.5 -128.5t-131.5 -52.5zM326 829q-32 0 -51 -18.5t-19 -49.5q0 -29 20 -48.5t50 -19.5q31 0 50.5 19.5t19.5 48.5q0 31 -19 49.5t-51 18.5zM565 146h54v-146h-260
v110q-4 -21 -14 -41t-28.5 -41.5t-52 -34.5t-76.5 -13q-163 0 -163 161q0 89 65 123.5t183 34.5h81v46q0 28 -12 45t-34 17t-35 -16.5t-13 -39.5v-9h-206v9q0 188 266 188q136 0 190.5 -51.5t54.5 -146.5v-195zM295 123q30 0 44.5 18.5t14.5 45.5v34h-36q-74 0 -74 -54
q0 -20 14 -32t37 -12z" />
    <glyph glyph-name="ae" unicode="&#xe6;" horiz-adv-x="929" 
d="M685 174h220q-19 -94 -90 -144t-183 -50q-147 0 -220 94q-31 -39 -85 -66.5t-117 -27.5q-90 0 -137.5 36.5t-47.5 124.5q0 47 18.5 79t53.5 49.5t77.5 24.5t98.5 7h81v44q0 28 -12 45t-34 17t-35 -16.5t-13 -39.5v-9h-206v9q0 188 266 188q106 0 165 -34q62 34 147 34
q133 0 201.5 -69.5t68.5 -195.5v-46h-336q4 -64 19 -91t44 -27q46 0 56 64zM627 423q-27 0 -42 -26.5t-19 -88.5h118q-6 115 -57 115zM295 123q30 0 44.5 18.5t14.5 45.5v36h-36q-74 0 -74 -56q0 -20 14 -32t37 -12z" />
    <glyph glyph-name="ccedilla" unicode="&#xe7;" horiz-adv-x="606" 
d="M310 110q24 0 38 29.5t14 84.5h220q0 -109 -72 -176t-195 -68l-37 -51q32 10 62 10q31 0 62 -9t57.5 -37t26.5 -70q0 -64 -55.5 -94.5t-140.5 -30.5q-24 0 -50 6.5t-34 12.5v68q28 -8 53 -8q45 0 65.5 10t20.5 39q0 21 -15 33.5t-41 12.5q-21 0 -38.5 -6.5t-24.5 -13.5
l-6 -6l-52 40l73 100q-102 19 -158 92t-56 181q0 126 75.5 203t207.5 77q125 0 198.5 -67.5t73.5 -177.5h-220q0 55 -14 84.5t-38 29.5q-27 0 -42.5 -38t-15.5 -111t15.5 -111t42.5 -38z" />
    <glyph glyph-name="egrave" unicode="&#xe8;" horiz-adv-x="615" 
d="M389 592h-159l-163 187h182zM371 178h220q-19 -94 -90.5 -146t-182.5 -52q-133 0 -212 77t-79 202t79 202.5t212 77.5t201.5 -69.5t68.5 -195.5v-38h-336q3 -68 18.5 -97t44.5 -29q21 0 36 17t20 51zM313 423q-53 0 -61 -107h118q-7 107 -57 107z" />
    <glyph glyph-name="eacute" unicode="&#xe9;" horiz-adv-x="615" 
d="M491 779l-163 -187h-159l140 187h182zM371 178h220q-19 -94 -90.5 -146t-182.5 -52q-133 0 -212 77t-79 202t79 202.5t212 77.5t201.5 -69.5t68.5 -195.5v-38h-336q3 -68 18.5 -97t44.5 -29q21 0 36 17t20 51zM313 423q-53 0 -61 -107h118q-7 107 -57 107z" />
    <glyph glyph-name="ecircumflex" unicode="&#xea;" horiz-adv-x="615" 
d="M311 655l-70 -72h-148l146 187h143l146 -187h-148zM371 178h220q-19 -94 -90.5 -146t-182.5 -52q-133 0 -212 77t-79 202t79 202.5t212 77.5t201.5 -69.5t68.5 -195.5v-38h-336q3 -68 18.5 -97t44.5 -29q21 0 36 17t20 51zM313 423q-53 0 -61 -107h118q-7 107 -57 107z
" />
    <glyph glyph-name="edieresis" unicode="&#xeb;" horiz-adv-x="615" 
d="M196 620q-42 0 -69 24t-27 60t27.5 61t68.5 25t68.5 -25t27.5 -61t-27 -60t-69 -24zM429 620q-42 0 -69 24t-27 60t27.5 61t68.5 25t69 -25t28 -61t-27.5 -60t-69.5 -24zM371 178h220q-19 -94 -90.5 -146t-182.5 -52q-133 0 -212 77t-79 202t79 202.5t212 77.5
t201.5 -69.5t68.5 -195.5v-38h-336q3 -68 18.5 -97t44.5 -29q21 0 36 17t20 51zM313 423q-53 0 -61 -107h118q-7 107 -57 107z" />
    <glyph glyph-name="igrave" unicode="&#xec;" horiz-adv-x="387" 
d="M270 592h-159l-163 187h182zM299 146h53v-146h-317v146h53v226h-53v147h264v-373z" />
    <glyph glyph-name="iacute" unicode="&#xed;" horiz-adv-x="387" 
d="M373 779l-163 -187h-159l140 187h182zM299 519v-373h53v-146h-317v146h53v226h-53v147h264z" />
    <glyph glyph-name="icircumflex" unicode="&#xee;" horiz-adv-x="387" 
d="M192 655l-70 -72h-148l146 187h143l146 -187h-148zM299 519v-373h53v-146h-317v146h53v226h-53v147h264z" />
    <glyph glyph-name="idieresis" unicode="&#xef;" horiz-adv-x="387" 
d="M173 704q0 -36 -27 -60t-69 -24t-69 24t-27 60t27.5 61t68.5 25t68.5 -25t27.5 -61zM310 790q41 0 69 -25t28 -61t-27.5 -60t-69.5 -24t-69 24t-27 60t27.5 61t68.5 25zM299 519v-373h53v-146h-317v146h53v226h-53v147h264z" />
    <glyph glyph-name="eth" unicode="&#xf0;" horiz-adv-x="614" 
d="M451 680q136 -182 136 -385q0 -148 -75.5 -231.5t-204.5 -83.5q-126 0 -203 78t-77 202t76.5 201.5t203.5 77.5h8q-19 38 -29 56l-84 -44v100l37 19q-21 28 -29 36l127 96q29 -24 56 -53l92 48v-100zM307 110q56 0 56 150q0 148 -56 148t-56 -148q0 -150 56 -150z" />
    <glyph glyph-name="ntilde" unicode="&#xf1;" 
d="M239 651q-24 0 -34 -9.5t-10 -32.5h-97q0 85 35.5 131.5t102.5 46.5q46 0 100 -18t73 -18q23 0 33 9.5t10 32.5h98q0 -85 -36 -132t-103 -47q-47 0 -100.5 18.5t-71.5 18.5zM611 146h48v-146h-259v338q0 55 -42 55q-25 0 -42 -18t-17 -44v-185h43v-146h-307v146h53v226
h-53v147h264v-74q61 94 157 94q68 0 111.5 -41.5t43.5 -106.5v-245z" />
    <glyph glyph-name="ograve" unicode="&#xf2;" horiz-adv-x="614" 
d="M225 592l-163 187h182l140 -187h-159zM307 539q127 0 203.5 -77.5t76.5 -201.5t-76.5 -202t-203.5 -78q-126 0 -203 78t-77 202t76.5 201.5t203.5 77.5zM307 110q56 0 56 150q0 148 -56 148t-56 -148q0 -150 56 -150z" />
    <glyph glyph-name="oacute" unicode="&#xf3;" horiz-adv-x="614" 
d="M179 592l140 187h182l-163 -187h-159zM307 539q127 0 203.5 -77.5t76.5 -201.5t-76.5 -202t-203.5 -78q-126 0 -203 78t-77 202t76.5 201.5t203.5 77.5zM307 110q56 0 56 150q0 148 -56 148t-56 -148q0 -150 56 -150z" />
    <glyph glyph-name="ocircumflex" unicode="&#xf4;" horiz-adv-x="614" 
d="M306 655l-70 -72h-148l146 187h143l146 -187h-148zM307 539q127 0 203.5 -77.5t76.5 -201.5t-76.5 -202t-203.5 -78q-126 0 -203 78t-77 202t76.5 201.5t203.5 77.5zM307 110q56 0 56 150q0 148 -56 148t-56 -148q0 -150 56 -150z" />
    <glyph glyph-name="otilde" unicode="&#xf5;" horiz-adv-x="614" 
d="M196 787q46 0 100 -18t73 -18q23 0 33 9.5t10 32.5h98q0 -85 -36 -132t-103 -47q-47 0 -100.5 18.5t-71.5 18.5q-24 0 -34 -9.5t-10 -32.5h-97q0 85 35.5 131.5t102.5 46.5zM307 539q127 0 203.5 -77.5t76.5 -201.5t-76.5 -202t-203.5 -78q-126 0 -203 78t-77 202
t76.5 201.5t203.5 77.5zM307 110q56 0 56 150q0 148 -56 148t-56 -148q0 -150 56 -150z" />
    <glyph glyph-name="odieresis" unicode="&#xf6;" horiz-adv-x="614" 
d="M191 620q-42 0 -69 24t-27 60t27.5 61t68.5 25t68.5 -25t27.5 -61t-27 -60t-69 -24zM424 620q-42 0 -69 24t-27 60t27.5 61t68.5 25t69 -25t28 -61t-27.5 -60t-69.5 -24zM307 539q127 0 203.5 -77.5t76.5 -201.5t-76.5 -202t-203.5 -78q-126 0 -203 78t-77 202
t76.5 201.5t203.5 77.5zM307 110q56 0 56 150q0 148 -56 148t-56 -148q0 -150 56 -150z" />
    <glyph glyph-name="divide" unicode="&#xf7;" horiz-adv-x="728" 
d="M364 422q-49 0 -79.5 27t-30.5 68t30.5 68.5t79.5 27.5t80 -27.5t31 -68.5t-31 -68t-80 -27zM62 382h604v-157h-604v157zM364 -6q-49 0 -79.5 27t-30.5 68t30.5 68.5t79.5 27.5t80 -27.5t31 -68.5t-31 -68t-80 -27z" />
    <glyph glyph-name="oslash" unicode="&#xf8;" horiz-adv-x="614" 
d="M486 483q101 -77 101 -223q0 -124 -76.5 -202t-203.5 -78q-73 0 -132 28l-32 -48h-66l50 77q-100 79 -100 223q0 124 76.5 201.5t203.5 77.5q72 0 132 -27l33 50h66zM251 260q0 -23 1 -34l96 148q-13 34 -41 34q-56 0 -56 -148zM307 110q56 0 56 150q0 23 -1 34l-97 -148
q15 -36 42 -36z" />
    <glyph glyph-name="ugrave" unicode="&#xf9;" horiz-adv-x="670" 
d="M401 592h-159l-163 187h182zM583 147h53v-147h-264v74q-60 -94 -157 -94q-76 0 -115.5 44.5t-39.5 103.5v245h-48v146h259v-338q0 -55 42 -55q25 0 42 18t17 44v185h-43v146h254v-372z" />
    <glyph glyph-name="uacute" unicode="&#xfa;" horiz-adv-x="670" 
d="M503 779l-163 -187h-159l140 187h182zM583 147h53v-147h-264v74q-60 -94 -157 -94q-76 0 -115.5 44.5t-39.5 103.5v245h-48v146h259v-338q0 -55 42 -55q25 0 42 18t17 44v185h-43v146h254v-372z" />
    <glyph glyph-name="ucircumflex" unicode="&#xfb;" horiz-adv-x="670" 
d="M323 655l-70 -72h-148l146 187h143l146 -187h-148zM583 147h53v-147h-264v74q-60 -94 -157 -94q-76 0 -115.5 44.5t-39.5 103.5v245h-48v146h259v-338q0 -55 42 -55q25 0 42 18t17 44v185h-43v146h254v-372z" />
    <glyph glyph-name="udieresis" unicode="&#xfc;" horiz-adv-x="670" 
d="M208 620q-42 0 -69 24t-27 60t27.5 61t68.5 25t68.5 -25t27.5 -61t-27 -60t-69 -24zM441 620q-42 0 -69 24t-27 60t27.5 61t68.5 25t69 -25t28 -61t-27.5 -60t-69.5 -24zM583 147h53v-147h-264v74q-60 -94 -157 -94q-76 0 -115.5 44.5t-39.5 103.5v245h-48v146h259v-338
q0 -55 42 -55q25 0 42 18t17 44v185h-43v146h254v-372z" />
    <glyph glyph-name="yacute" unicode="&#xfd;" horiz-adv-x="641" 
d="M497 779l-163 -187h-159l140 187h182zM624 519v-146h-42l-165 -371q-21 -48 -40 -80.5t-47 -64.5t-64.5 -48t-82.5 -16t-83 7l11 154q40 -2 71 -2q39 0 63 23l-183 398h-50v146h301v-146h-43l73 -197l80 197h-51v146h252z" />
    <glyph glyph-name="thorn" unicode="&#xfe;" horiz-adv-x="669" 
d="M440 539q89 0 145.5 -68.5t56.5 -200.5t-56.5 -201t-145.5 -69q-105 0 -140 85v-138h62v-137h-327v137h54v656h-54v147h265v-296q35 85 140 85zM355 146q63 0 63 124q0 123 -63 123q-24 0 -39 -20t-15 -43l-1 6v-132l1 5q0 -23 15 -43t39 -20z" />
    <glyph glyph-name="ydieresis" unicode="&#xff;" horiz-adv-x="641" 
d="M202 620q-42 0 -69 24t-27 60t27.5 61t68.5 25t68.5 -25t27.5 -61t-27 -60t-69 -24zM435 620q-42 0 -69 24t-27 60t27.5 61t68.5 25t69 -25t28 -61t-27.5 -60t-69.5 -24zM624 519v-146h-42l-165 -371q-21 -48 -40 -80.5t-47 -64.5t-64.5 -48t-82.5 -16t-83 7l11 154
q40 -2 71 -2q39 0 63 23l-183 398h-50v146h301v-146h-43l73 -197l80 197h-51v146h252z" />
    <glyph glyph-name="Amacron" unicode="&#x100;" horiz-adv-x="800" 
d="M626 994v-162h-459v162h459zM723 154h52v-154h-347v154h53l-19 77h-177l-18 -77h53v-154h-295v154h56l174 596h290zM310 336h126l-64 261z" />
    <glyph glyph-name="amacron" unicode="&#x101;" horiz-adv-x="654" 
d="M543 789v-152h-439v152h439zM565 146h54v-146h-260v110q-4 -21 -14 -41t-28.5 -41.5t-52 -34.5t-76.5 -13q-163 0 -163 161q0 89 65 123.5t183 34.5h81v46q0 28 -12 45t-34 17t-35 -16.5t-13 -39.5v-9h-206v9q0 188 266 188q136 0 190.5 -51.5t54.5 -146.5v-195zM295 123
q30 0 44.5 18.5t14.5 45.5v34h-36q-74 0 -74 -54q0 -20 14 -32t37 -12z" />
    <glyph glyph-name="Abreve" unicode="&#x102;" horiz-adv-x="800" 
d="M397 792q-95 0 -147 56t-52 147h108q2 -51 29.5 -71.5t61.5 -20.5q21 0 39.5 6.5t35 28.5t17.5 57h109q0 -90 -53 -146.5t-148 -56.5zM723 154h52v-154h-347v154h53l-19 77h-177l-18 -77h53v-154h-295v154h56l174 596h290zM310 336h126l-64 261z" />
    <glyph glyph-name="abreve" unicode="&#x103;" horiz-adv-x="654" 
d="M326 592q-90 0 -134.5 53t-44.5 145h88q2 -51 29.5 -71.5t61.5 -20.5q21 0 39.5 6.5t35 28.5t17.5 57h89q0 -92 -45 -145t-136 -53zM565 146h54v-146h-260v110q-4 -21 -14 -41t-28.5 -41.5t-52 -34.5t-76.5 -13q-163 0 -163 161q0 89 65 123.5t183 34.5h81v46
q0 28 -12 45t-34 17t-35 -16.5t-13 -39.5v-9h-206v9q0 188 266 188q136 0 190.5 -51.5t54.5 -146.5v-195zM295 123q30 0 44.5 18.5t14.5 45.5v34h-36q-74 0 -74 -54q0 -20 14 -32t37 -12z" />
    <glyph glyph-name="Aogonek" unicode="&#x104;" horiz-adv-x="800" 
d="M723 154h52v-154h-9q-36 0 -64 -22t-28 -43q0 -12 9 -21.5t27 -9.5q35 0 55 17v-98q-10 -7 -47.5 -12.5t-74.5 -5.5q-77 0 -114 27.5t-37 66.5q0 31 36.5 61.5t72.5 39.5h-173v154h53l-19 77h-177l-18 -77h53v-154h-295v154h56l174 596h290zM310 336h126l-64 261z" />
    <glyph glyph-name="aogonek" unicode="&#x105;" horiz-adv-x="654" 
d="M570 -92q32 0 52 16v-93q-22 -17 -116 -17q-72 0 -108.5 28t-36.5 65q0 33 29 58t70 35h-101v110q-4 -21 -14 -41t-28.5 -41.5t-52 -34.5t-76.5 -13q-163 0 -163 161q0 89 65 123.5t183 34.5h81v46q0 28 -12 45t-34 17t-35 -16.5t-13 -39.5v-9h-206v9q0 188 266 188
q136 0 190.5 -51.5t54.5 -146.5v-195h54v-146q-37 0 -60 -20.5t-23 -41.5q0 -12 8 -21t26 -9zM295 123q30 0 44.5 18.5t14.5 45.5v34h-36q-74 0 -74 -54q0 -20 14 -32t37 -12z" />
    <glyph glyph-name="Cacute" unicode="&#x106;" horiz-adv-x="782" 
d="M578 989l-163 -187h-179l140 187h202zM513 314h217q0 -162 -84.5 -248t-243.5 -86q-166 0 -261.5 110.5t-95.5 285.5q0 170 88.5 282t219.5 112q154 0 206 -113l13 93h147v-299h-212q-4 70 -32.5 110t-64.5 40q-48 0 -77 -55t-29 -169q0 -113 31.5 -170.5t79.5 -57.5
q80 0 98 165z" />
    <glyph glyph-name="cacute" unicode="&#x107;" horiz-adv-x="606" 
d="M159 592l140 187h182l-163 -187h-159zM362 294q0 55 -14 84.5t-38 29.5q-27 0 -42.5 -38t-15.5 -111t15.5 -111t42.5 -38q24 0 38 29.5t14 84.5h220q0 -110 -73.5 -177t-198.5 -67q-133 0 -208 77t-75 202q0 126 75.5 203t207.5 77q125 0 198.5 -67.5t73.5 -177.5h-220z
" />
    <glyph glyph-name="Cdotaccent" unicode="&#x10a;" horiz-adv-x="782" 
d="M385 836q-54 0 -89.5 31t-35.5 77t35.5 78t89.5 32t89.5 -32t35.5 -78t-35.5 -77t-89.5 -31zM513 314h217q0 -162 -84.5 -248t-243.5 -86q-166 0 -261.5 110.5t-95.5 285.5q0 170 88.5 282t219.5 112q154 0 206 -113l13 93h147v-299h-212q-4 70 -32.5 110t-64.5 40
q-48 0 -77 -55t-29 -169q0 -113 31.5 -170.5t79.5 -57.5q80 0 98 165z" />
    <glyph glyph-name="cdotaccent" unicode="&#x10b;" horiz-adv-x="606" 
d="M302 616q-51 0 -85 29.5t-34 73.5t34 74.5t85 30.5t85 -30.5t34 -74.5t-34 -73.5t-85 -29.5zM362 294q0 55 -14 84.5t-38 29.5q-27 0 -42.5 -38t-15.5 -111t15.5 -111t42.5 -38q24 0 38 29.5t14 84.5h220q0 -110 -73.5 -177t-198.5 -67q-133 0 -208 77t-75 202
q0 126 75.5 203t207.5 77q125 0 198.5 -67.5t73.5 -177.5h-220z" />
    <glyph glyph-name="Ccaron" unicode="&#x10c;" horiz-adv-x="782" 
d="M491 803h-183l-143 187h168l67 -71l66 71h168zM513 314h217q0 -162 -84.5 -248t-243.5 -86q-166 0 -261.5 110.5t-95.5 285.5q0 170 88.5 282t219.5 112q154 0 206 -113l13 93h147v-299h-212q-4 70 -32.5 110t-64.5 40q-48 0 -77 -55t-29 -169q0 -113 31.5 -170.5
t79.5 -57.5q80 0 98 165z" />
    <glyph glyph-name="ccaron" unicode="&#x10d;" horiz-adv-x="606" 
d="M374 583h-143l-143 187h148l67 -71l66 71h148zM310 110q24 0 38 29.5t14 84.5h220q0 -110 -73.5 -177t-198.5 -67q-133 0 -208 77t-75 202q0 126 75.5 203t207.5 77q125 0 198.5 -67.5t73.5 -177.5h-220q0 55 -14 84.5t-38 29.5q-27 0 -42.5 -38t-15.5 -111t15.5 -111
t42.5 -38z" />
    <glyph glyph-name="Dcaron" unicode="&#x10e;" horiz-adv-x="812" 
d="M503 803h-183l-143 187h168l67 -71l66 71h168zM433 750q166 0 250 -100.5t84 -272.5q0 -174 -84 -275.5t-250 -101.5h-371v154h68v442h-68v154h371zM400 154q113 0 113 223q0 118 -29 168.5t-84 50.5h-46v-442h46z" />
    <glyph glyph-name="dcaron" unicode="&#x10f;" horiz-adv-x="795" 
d="M579 750v-604h54v-147h-265v63q-34 -82 -139 -82q-88 0 -145 73.5t-57 206.5t57 206t145 73q105 0 139 -82v156h-72v137h283zM637 750h131v-99q0 -42 -33 -95t-75 -90l-32 29q4 5 6 25.5t2.5 53.5t1 60t0 66t-0.5 50zM314 126q24 0 39 20t15 43v141q0 23 -15 43t-39 20
q-63 0 -63 -133q0 -134 63 -134z" />
    <glyph glyph-name="Dcroat" unicode="&#x110;" horiz-adv-x="803" 
d="M423 750q166 0 250 -100.5t84 -272.5q0 -174 -84 -275.5t-250 -101.5h-371v154h68v149h-70v145h70v148h-68v154h371zM390 154q113 0 113 223q0 118 -29 168.5t-84 50.5h-46v-148h67v-145h-67v-149h46z" />
    <glyph glyph-name="dcroat" unicode="&#x111;" horiz-adv-x="668" 
d="M633 566h-54v-420h54v-147h-265v49q-40 -68 -137 -68q-88 0 -146 73.5t-58 206.5t58 206t146 73q97 0 137 -68v95h-140v123h140v61h211v-61h54v-123zM314 130q24 0 39 20t15 43v133q0 23 -15 43t-39 20q-63 0 -63 -129q0 -130 63 -130z" />
    <glyph glyph-name="Emacron" unicode="&#x112;" horiz-adv-x="718" 
d="M600 994v-162h-459v162h459zM663 459h-128v4q0 80 -19.5 106.5t-79.5 26.5h-77v-142h121v-133h-121v-167h77q59 0 79 29.5t20 108.5v32h128v-324h-601v154h73v442h-73v154h601v-291z" />
    <glyph glyph-name="emacron" unicode="&#x113;" horiz-adv-x="615" 
d="M532 789v-152h-439v152h439zM371 178h220q-19 -94 -90.5 -146t-182.5 -52q-133 0 -212 77t-79 202t79 202.5t212 77.5t201.5 -69.5t68.5 -195.5v-38h-336q3 -68 18.5 -97t44.5 -29q21 0 36 17t20 51zM313 423q-53 0 -61 -107h118q-7 107 -57 107z" />
    <glyph glyph-name="Ebreve" unicode="&#x114;" horiz-adv-x="718" 
d="M375 792q-95 0 -147 56t-52 147h108q2 -51 29.5 -71.5t61.5 -20.5q21 0 39.5 6.5t35 28.5t17.5 57h109q0 -90 -53 -146.5t-148 -56.5zM663 459h-128v4q0 80 -19.5 106.5t-79.5 26.5h-77v-142h121v-133h-121v-167h77q59 0 79 29.5t20 108.5v32h128v-324h-601v154h73v442
h-73v154h601v-291z" />
    <glyph glyph-name="ebreve" unicode="&#x115;" horiz-adv-x="615" 
d="M312 592q-90 0 -134.5 53t-44.5 145h88q2 -51 29.5 -71.5t61.5 -20.5q21 0 39.5 6.5t35 28.5t17.5 57h89q0 -92 -45 -145t-136 -53zM371 178h220q-19 -94 -90.5 -146t-182.5 -52q-133 0 -212 77t-79 202t79 202.5t212 77.5t201.5 -69.5t68.5 -195.5v-38h-336
q3 -68 18.5 -97t44.5 -29q21 0 36 17t20 51zM313 423q-53 0 -61 -107h118q-7 107 -57 107z" />
    <glyph glyph-name="Edotaccent" unicode="&#x116;" horiz-adv-x="718" 
d="M366 836q-54 0 -89.5 31t-35.5 77t35.5 78t89.5 32t89.5 -32t35.5 -78t-35.5 -77t-89.5 -31zM663 459h-128v4q0 80 -19.5 106.5t-79.5 26.5h-77v-142h121v-133h-121v-167h77q59 0 79 29.5t20 108.5v32h128v-324h-601v154h73v442h-73v154h601v-291z" />
    <glyph glyph-name="edotaccent" unicode="&#x117;" horiz-adv-x="615" 
d="M312 616q-51 0 -85 29.5t-34 73.5t34 74.5t85 30.5t85 -30.5t34 -74.5t-34 -73.5t-85 -29.5zM371 178h220q-19 -94 -90.5 -146t-182.5 -52q-133 0 -212 77t-79 202t79 202.5t212 77.5t201.5 -69.5t68.5 -195.5v-38h-336q3 -68 18.5 -97t44.5 -29q21 0 36 17t20 51z
M313 423q-53 0 -61 -107h118q-7 107 -57 107z" />
    <glyph glyph-name="Eogonek" unicode="&#x118;" horiz-adv-x="718" 
d="M663 459h-128v4q0 80 -19.5 106.5t-79.5 26.5h-77v-142h121v-133h-121v-167h77q59 0 79 29.5t20 108.5v32h128v-324h-9q-36 0 -64 -22t-28 -43q0 -12 9 -21.5t27 -9.5q35 0 55 17v-98q-10 -7 -47.5 -12.5t-74.5 -5.5q-77 0 -114 27.5t-37 66.5q0 31 36.5 61.5t72.5 39.5
h-427v154h73v442h-73v154h601v-291z" />
    <glyph glyph-name="eogonek" unicode="&#x119;" horiz-adv-x="615" 
d="M421 -6q-40 -29 -52.5 -44.5t-12.5 -32.5q0 -12 8 -21t26 -9q32 0 52 16v-93q-22 -17 -116 -17q-72 0 -108.5 28t-36.5 65q0 54 69 100q-104 19 -163.5 92.5t-59.5 180.5q0 125 79 202.5t212 77.5t201.5 -69.5t68.5 -195.5v-38h-336q3 -68 18.5 -97t44.5 -29q21 0 36 17
t20 51h220q-14 -70 -58 -117t-112 -67zM313 423q-53 0 -61 -107h118q-7 107 -57 107z" />
    <glyph glyph-name="Ecaron" unicode="&#x11a;" horiz-adv-x="718" 
d="M472 803h-183l-143 187h168l67 -71l66 71h168zM663 459h-128v4q0 80 -19.5 106.5t-79.5 26.5h-77v-142h121v-133h-121v-167h77q59 0 79 29.5t20 108.5v32h128v-324h-601v154h73v442h-73v154h601v-291z" />
    <glyph glyph-name="ecaron" unicode="&#x11b;" horiz-adv-x="615" 
d="M384 583h-143l-143 187h148l67 -71l66 71h148zM371 178h220q-19 -94 -90.5 -146t-182.5 -52q-133 0 -212 77t-79 202t79 202.5t212 77.5t201.5 -69.5t68.5 -195.5v-38h-336q3 -68 18.5 -97t44.5 -29q21 0 36 17t20 51zM313 423q-53 0 -61 -107h118q-7 107 -57 107z" />
    <glyph glyph-name="Gcircumflex" unicode="&#x11c;" horiz-adv-x="818" 
d="M422 890l-70 -72h-168l146 187h183l146 -187h-168zM432 388h353v-125h-47v-263h-139l-24 119q-56 -139 -206 -139q-154 0 -239 106.5t-85 290.5q0 180 87.5 286.5t232.5 106.5q150 0 205 -121l14 101h147v-279h-224q-3 62 -29 96t-65 34q-51 0 -82.5 -57.5t-31.5 -166.5
q0 -110 34 -169t91 -59q43 0 70.5 31.5t32.5 82.5h-95v125z" />
    <glyph glyph-name="gcircumflex" unicode="&#x11d;" horiz-adv-x="660" 
d="M327 655l-70 -72h-148l146 187h143l146 -187h-148zM350 141q150 0 212.5 -39.5t62.5 -135.5q0 -68 -29.5 -106t-103.5 -56.5t-209 -18.5q-84 0 -139 12.5t-78.5 35.5t-31 43.5t-7.5 47.5q0 63 60 90q-31 31 -31 83q0 44 31.5 80t74.5 51q-85 47 -85 138q0 77 68 125
t181 48q114 0 182 -48t68 -125t-68.5 -125.5t-181.5 -48.5q-40 0 -73 6q-21 -8 -21 -28q0 -18 19 -23.5t67 -5.5h32zM326 440q-47 0 -47 -74t47 -74q48 0 48 74t-48 74zM352 -122q110 0 110 48q0 22 -23.5 30t-90.5 8h-64q-49 0 -88 6q-6 -10 -6 -26q0 -34 36.5 -50
t85.5 -16h40z" />
    <glyph glyph-name="Gbreve" unicode="&#x11e;" horiz-adv-x="818" 
d="M418 792q-95 0 -147 56t-52 147h108q2 -51 29.5 -71.5t61.5 -20.5q21 0 39.5 6.5t35 28.5t17.5 57h109q0 -90 -53 -146.5t-148 -56.5zM432 388h353v-125h-47v-263h-139l-24 119q-56 -139 -206 -139q-154 0 -239 106.5t-85 290.5q0 180 87.5 286.5t232.5 106.5
q150 0 205 -121l14 101h147v-279h-224q-3 62 -29 96t-65 34q-51 0 -82.5 -57.5t-31.5 -166.5q0 -110 34 -169t91 -59q43 0 70.5 31.5t32.5 82.5h-95v125z" />
    <glyph glyph-name="gbreve" unicode="&#x11f;" horiz-adv-x="660" 
d="M324 592q-90 0 -134.5 53t-44.5 145h88q2 -51 29.5 -71.5t61.5 -20.5q21 0 39.5 6.5t35 28.5t17.5 57h89q0 -92 -45 -145t-136 -53zM350 141q150 0 212.5 -39.5t62.5 -135.5q0 -68 -29.5 -106t-103.5 -56.5t-209 -18.5q-84 0 -139 12.5t-78.5 35.5t-31 43.5t-7.5 47.5
q0 63 60 90q-31 31 -31 83q0 44 31.5 80t74.5 51q-85 47 -85 138q0 77 68 125t181 48q114 0 182 -48t68 -125t-68.5 -125.5t-181.5 -48.5q-40 0 -73 6q-21 -8 -21 -28q0 -18 19 -23.5t67 -5.5h32zM326 440q-47 0 -47 -74t47 -74q48 0 48 74t-48 74zM352 -122q110 0 110 48
q0 22 -23.5 30t-90.5 8h-64q-49 0 -88 6q-6 -10 -6 -26q0 -34 36.5 -50t85.5 -16h40z" />
    <glyph glyph-name="Gdotaccent" unicode="&#x120;" horiz-adv-x="818" 
d="M416 836q-54 0 -89.5 31t-35.5 77t35.5 78t89.5 32t89.5 -32t35.5 -78t-35.5 -77t-89.5 -31zM432 388h353v-125h-47v-263h-139l-24 119q-56 -139 -206 -139q-154 0 -239 106.5t-85 290.5q0 180 87.5 286.5t232.5 106.5q150 0 205 -121l14 101h147v-279h-224q-3 62 -29 96
t-65 34q-51 0 -82.5 -57.5t-31.5 -166.5q0 -110 34 -169t91 -59q43 0 70.5 31.5t32.5 82.5h-95v125z" />
    <glyph glyph-name="gdotaccent" unicode="&#x121;" horiz-adv-x="660" 
d="M313 595q-51 0 -85 29.5t-34 73.5t34 74.5t85 30.5t85 -30.5t34 -74.5t-34 -73.5t-85 -29.5zM350 141q150 0 212.5 -39.5t62.5 -135.5q0 -68 -29.5 -106t-103.5 -56.5t-209 -18.5q-84 0 -139 12.5t-78.5 35.5t-31 43.5t-7.5 47.5q0 63 60 90q-31 31 -31 83q0 44 31.5 80
t74.5 51q-85 47 -85 138q0 77 68 125t181 48q54 0 104 -13q5 139 121 139q18 0 35 -2.5t25 -4.5l8 -2v-129q-12 2 -32 2q-34 0 -50 -10t-21 -34q60 -48 60 -119q0 -77 -68.5 -125.5t-181.5 -48.5q-40 0 -73 6q-21 -8 -21 -28q0 -18 19 -23.5t67 -5.5h32zM326 440
q-47 0 -47 -74t47 -74q48 0 48 74t-48 74zM352 -122q110 0 110 48q0 22 -23.5 30t-90.5 8h-64q-49 0 -88 6q-6 -10 -6 -26q0 -34 36.5 -50t85.5 -16h40z" />
    <glyph glyph-name="Gcommaaccent" unicode="&#x122;" horiz-adv-x="818" 
d="M432 388h353v-125h-47v-263h-139l-24 119q-56 -139 -206 -139q-154 0 -239 106.5t-85 290.5q0 180 87.5 286.5t232.5 106.5q150 0 205 -121l14 101h147v-279h-224q-3 62 -29 96t-65 34q-51 0 -82.5 -57.5t-31.5 -166.5q0 -110 34 -169t91 -59q43 0 70.5 31.5t32.5 82.5
h-95v125zM420 -50q44 0 70.5 -27.5t26.5 -76.5t-36.5 -103.5t-98.5 -90.5l-33 30q1 1 8.5 10t11 13t10.5 14t11.5 18t10.5 20t10 25q-41 5 -64 29t-23 55q0 35 27.5 59.5t68.5 24.5z" />
    <glyph glyph-name="gcommaaccent" unicode="&#x123;" horiz-adv-x="626" 
d="M308 567q-39 0 -65 23.5t-26 56.5q0 29 22 52t61 28q-15 45 -60 95l32 29q59 -35 93.5 -87t34.5 -98t-25.5 -72.5t-66.5 -26.5zM350 141q150 0 212.5 -39.5t62.5 -135.5q0 -68 -29.5 -106t-103.5 -56.5t-209 -18.5q-84 0 -139 12.5t-78.5 35.5t-31 43.5t-7.5 47.5
q0 63 60 90q-31 31 -31 83q0 44 31.5 80t74.5 51q-85 47 -85 138q0 77 68 125t181 48q54 0 104 -13q5 139 121 139q18 0 35 -2.5t25 -4.5l8 -2v-129q-12 2 -32 2q-34 0 -50 -10t-21 -34q60 -48 60 -119q0 -77 -68.5 -125.5t-181.5 -48.5q-40 0 -73 6q-21 -8 -21 -28
q0 -18 19 -23.5t67 -5.5h32zM326 440q-47 0 -47 -74t47 -74q48 0 48 74t-48 74zM352 -122q110 0 110 48q0 22 -23.5 30t-90.5 8h-64q-49 0 -88 6q-6 -10 -6 -26q0 -34 36.5 -50t85.5 -16h40z" />
    <glyph glyph-name="Hcircumflex" unicode="&#x124;" horiz-adv-x="895" 
d="M464 890l-70 -72h-168l146 187h183l146 -187h-168zM833 596h-68v-442h68v-154h-338v154h46v169h-187v-169h46v-154h-338v154h68v442h-68v154h338v-154h-46v-147h187v147h-46v154h338v-154z" />
    <glyph glyph-name="hcircumflex" unicode="&#x125;" 
d="M349 865l-70 -72h-148l146 187h143l146 -187h-148zM611 146h48v-146h-259v338q0 55 -42 55q-25 0 -42 -18t-17 -44v-185h43v-146h-307v146h53v458h-53v146h264v-305q60 94 157 94q76 0 115.5 -44.5t39.5 -103.5v-245z" />
    <glyph glyph-name="Hbar" unicode="&#x126;" horiz-adv-x="870" 
d="M818 596h-68v-39h44v-94h-44v-309h68v-154h-338v154h46v144h-182v-144h46v-154h-338v154h68v309h-44v94h44v39h-68v154h338v-154h-46v-39h182v39h-46v154h338v-154zM526 424v39h-182v-39h182z" />
    <glyph glyph-name="hbar" unicode="&#x127;" 
d="M611 146h48v-146h-259v338q0 55 -42 55q-25 0 -42 -18t-17 -44v-185h43v-146h-307v146h53v420h-52v123h52v61h211v-61h142v-123h-142v-121q60 94 157 94q76 0 115.5 -44.5t39.5 -103.5v-245z" />
    <glyph glyph-name="Itilde" unicode="&#x128;" horiz-adv-x="494" 
d="M141 1024q51 0 110 -20t80 -20q25 0 36 10.5t11 35.5h107q0 -93 -39 -145t-112 -52q-52 0 -110.5 20.5t-78.5 20.5q-26 0 -37 -10.5t-11 -35.5h-106q0 93 38.5 144.5t111.5 51.5zM62 0v154h73v442h-73v154h370v-154h-73v-442h73v-154h-370z" />
    <glyph glyph-name="itilde" unicode="&#x129;" horiz-adv-x="387" 
d="M85 651q-24 0 -34 -9.5t-10 -32.5h-97q0 85 35.5 131.5t102.5 46.5q46 0 100 -18t73 -18q23 0 33 9.5t10 32.5h98q0 -85 -36 -132t-103 -47q-47 0 -100.5 18.5t-71.5 18.5zM299 519v-373h53v-146h-317v146h53v226h-53v147h264z" />
    <glyph glyph-name="Imacron" unicode="&#x12a;" horiz-adv-x="494" 
d="M17 994h459v-162h-459v162zM62 0v154h73v442h-73v154h370v-154h-73v-442h73v-154h-370z" />
    <glyph glyph-name="imacron" unicode="&#x12b;" horiz-adv-x="387" 
d="M-26 789h439v-152h-439v152zM299 519v-373h53v-146h-317v146h53v226h-53v147h264z" />
    <glyph glyph-name="Ibreve" unicode="&#x12c;" horiz-adv-x="494" 
d="M244 903q21 0 39.5 6.5t35 28.5t17.5 57h109q0 -90 -53 -146.5t-148 -56.5t-147 56t-52 147h108q2 -51 29.5 -71.5t61.5 -20.5zM62 0v154h73v442h-73v154h370v-154h-73v-442h73v-154h-370z" />
    <glyph glyph-name="ibreve" unicode="&#x12d;" horiz-adv-x="387" 
d="M193 592q-90 0 -134.5 53t-44.5 145h88q2 -51 29.5 -71.5t61.5 -20.5q21 0 39.5 6.5t35 28.5t17.5 57h89q0 -92 -45 -145t-136 -53zM299 519v-373h53v-146h-317v146h53v226h-53v147h264z" />
    <glyph glyph-name="Iogonek" unicode="&#x12e;" horiz-adv-x="494" 
d="M432 596h-73v-442h73v-154h-7q-36 0 -64 -22t-28 -43q0 -12 9 -21.5t27 -9.5q35 0 55 17v-98q-10 -7 -47.5 -12.5t-74.5 -5.5q-77 0 -114 27.5t-37 66.5q0 31 36.5 61.5t72.5 39.5h-198v154h73v442h-73v154h370v-154z" />
    <glyph glyph-name="iogonek" unicode="&#x12f;" horiz-adv-x="387" 
d="M179 569q-63 0 -97.5 30t-34.5 76q0 47 34.5 77t97.5 30t97.5 -30t34.5 -77q0 -46 -34.5 -76t-97.5 -30zM302 -92q32 0 52 16v-93q-22 -17 -116 -17q-72 0 -108.5 28t-36.5 65q0 33 29 58t70 35h-157v146h53v226h-53v147h264v-373h53v-146q-38 0 -61 -20.5t-23 -41.5
q0 -12 8 -21t26 -9z" />
    <glyph glyph-name="Idotaccent" unicode="&#x130;" horiz-adv-x="494" 
d="M253 836q-54 0 -89.5 31t-35.5 77t35.5 78t89.5 32t89.5 -32t35.5 -78t-35.5 -77t-89.5 -31zM62 0v154h73v442h-73v154h370v-154h-73v-442h73v-154h-370z" />
    <glyph glyph-name="dotlessi" unicode="&#x131;" horiz-adv-x="387" 
d="M299 146h53v-146h-317v146h53v226h-53v147h264v-373z" />
    <glyph glyph-name="IJ" unicode="&#x132;" horiz-adv-x="896" 
d="M52 0v154h73v442h-73v154h370v-154h-73v-442h73v-154h-370zM798 263q0 -65 -10 -114t-32.5 -88.5t-63.5 -60t-99 -20.5q-94 0 -118 18v160q6 -4 37 -4q30 0 46 20.5t16 56.5v365h-87v154h384v-154h-73v-333z" />
    <glyph glyph-name="ij" unicode="&#x133;" horiz-adv-x="748" 
d="M179 569q-63 0 -97.5 30t-34.5 76q0 47 34.5 77t97.5 30t97.5 -30t34.5 -77q0 -46 -34.5 -76t-97.5 -30zM563 565q-63 0 -97.5 30t-34.5 76q0 47 34.5 77t97.5 30t97.5 -30t34.5 -77q0 -46 -34.5 -76t-97.5 -30zM299 519v-373h53v-146h-317v146h53v226h-53v147h264z
M419 519h284v-580q0 -80 -41 -113t-127 -33q-72 0 -117 9v153q20 -2 30 -2q28 0 36 10.5t8 33.5v375h-73v147z" />
    <glyph glyph-name="Jcircumflex" unicode="&#x134;" horiz-adv-x="658" 
d="M451 890l-70 -72h-168l146 187h183l146 -187h-168zM248 596v154h384v-154h-73v-333q0 -135 -63.5 -209t-221.5 -74q-82 0 -135.5 19t-81 59t-37.5 88.5t-10 121.5v64h213v-101q0 -39 11 -58.5t39 -19.5q30 0 46 21t16 57v365h-87z" />
    <glyph glyph-name="jcircumflex" unicode="&#x135;" horiz-adv-x="340" 
d="M167 655l-70 -72h-148l146 187h143l146 -187h-148zM11 372v147h284v-580q0 -80 -41 -113t-127 -33q-72 0 -117 9v153q20 -2 30 -2q28 0 36 10.5t8 33.5v375h-73z" />
    <glyph glyph-name="Kcommaaccent" unicode="&#x136;" horiz-adv-x="868" 
d="M777 154h56v-154h-364v154h50l-98 160l-62 -56v-104h39v-154h-336v154h73v442h-73v154h341v-154h-44v-170l182 170h-77v154h350v-154h-85l-147 -134zM428 -50q44 0 70.5 -27.5t26.5 -76.5t-36.5 -103.5t-98.5 -90.5l-33 30q1 1 8.5 10t11 13t10.5 14t11.5 18t10.5 20
t10 25q-41 5 -64 29t-23 55q0 35 27.5 59.5t68.5 24.5z" />
    <glyph glyph-name="kcommaaccent" unicode="&#x137;" horiz-adv-x="707" 
d="M623 146h51v-146h-271v140l-55 88l-49 -31v-51h43v-146h-307v146h53v457h-53v147h264v-461l130 84h-70v146h305v-146h-89l-68 -43zM352 -30q41 0 66.5 -26.5t25.5 -72.5t-34.5 -98t-93.5 -87l-32 29q45 50 60 95q-39 5 -61 28t-22 52q0 33 26 56.5t65 23.5z" />
    <glyph glyph-name="Lacute" unicode="&#x139;" horiz-adv-x="668" 
d="M156 802l140 187h202l-163 -187h-179zM359 596v-442h37q60 0 82 30t22 108v47h128v-339h-566v154h73v442h-73v154h385v-154h-88z" />
    <glyph glyph-name="lacute" unicode="&#x13a;" horiz-adv-x="387" 
d="M373 999l-163 -187h-159l140 187h182zM299 750v-604h53v-146h-317v146h53v457h-53v147h264z" />
    <glyph glyph-name="Lcommaaccent" unicode="&#x13b;" horiz-adv-x="668" 
d="M500 339h128v-339h-566v154h73v442h-73v154h385v-154h-88v-442h37q60 0 82 30t22 108v47zM349 -50q44 0 70.5 -27.5t26.5 -76.5t-36.5 -103.5t-98.5 -90.5l-33 30q1 1 8.5 10t11 13t10.5 14t11.5 18t10.5 20t10 25q-41 5 -64 29t-23 55q0 35 27.5 59.5t68.5 24.5z" />
    <glyph glyph-name="lcommaaccent" unicode="&#x13c;" horiz-adv-x="387" 
d="M299 146h53v-146h-317v146h53v457h-53v147h264v-604zM198 -30q41 0 66.5 -26.5t25.5 -72.5t-34.5 -98t-93.5 -87l-32 29q45 50 60 95q-39 5 -61 28t-22 52q0 33 26 56.5t65 23.5z" />
    <glyph glyph-name="Lcaron" unicode="&#x13d;" horiz-adv-x="668" 
d="M342 803h-183l-143 187h168l67 -71l66 71h168zM500 339h128v-339h-566v154h73v442h-73v154h385v-154h-88v-442h37q60 0 82 30t22 108v47z" />
    <glyph glyph-name="lcaron" unicode="&#x13e;" horiz-adv-x="515" 
d="M299 750v-604h53v-146h-317v146h53v457h-53v147h264zM367 750h131v-99q0 -42 -33 -95t-75 -90l-32 29q4 5 6 25.5t2.5 53.5t1 60t0 66t-0.5 50z" />
    <glyph glyph-name="Ldot" unicode="&#x13f;" horiz-adv-x="668" 
d="M359 596v-442h37q60 0 82 30t22 108v47h128v-339h-566v154h73v442h-73v154h385v-154h-88zM529 387q-45 0 -75 26t-30 65t30 65.5t75 26.5t75 -26.5t30 -65.5q0 -38 -30 -64.5t-75 -26.5z" />
    <glyph glyph-name="ldot" unicode="&#x140;" horiz-adv-x="548" 
d="M299 750v-604h53v-146h-317v146h53v457h-53v147h264zM467 510q51 0 85 -30.5t34 -74.5t-34 -73.5t-85 -29.5t-85 29.5t-34 73.5t34 74.5t85 30.5z" />
    <glyph glyph-name="Lslash" unicode="&#x141;" horiz-adv-x="642" 
d="M490 339h128v-339h-566v154h73v106l-73 -27v143l73 27v193h-73v154h385v-154h-88v-109l119 44v-143l-119 -44v-190h37q60 0 82 30t22 108v47z" />
    <glyph glyph-name="lslash" unicode="&#x142;" horiz-adv-x="387" 
d="M352 450l-53 -39v-265h53v-146h-317v146h53v111l-53 -39v129l53 39v217h-53v147h264v-210l53 39v-129z" />
    <glyph glyph-name="Nacute" unicode="&#x143;" horiz-adv-x="860" 
d="M637 989l-163 -187h-179l140 187h202zM514 750h290v-154h-63v-596h-169l-278 391v-237h64v-154h-296v154h73v442h-73v154h237l273 -394v240h-58v154z" />
    <glyph glyph-name="nacute" unicode="&#x144;" 
d="M526 779l-163 -187h-159l140 187h182zM611 146h48v-146h-259v338q0 55 -42 55q-25 0 -42 -18t-17 -44v-185h43v-146h-307v146h53v226h-53v147h264v-74q61 94 157 94q68 0 111.5 -41.5t43.5 -106.5v-245z" />
    <glyph glyph-name="Ncommaaccent" unicode="&#x145;" horiz-adv-x="860" 
d="M514 750h290v-154h-63v-596h-169l-278 391v-237h64v-154h-296v154h73v442h-73v154h237l273 -394v240h-58v154zM429 -50q44 0 70.5 -27.5t26.5 -76.5t-36.5 -103.5t-98.5 -90.5l-33 30q1 1 8.5 10t11 13t10.5 14t11.5 18t10.5 20t10 25q-41 5 -64 29t-23 55
q0 35 27.5 59.5t68.5 24.5z" />
    <glyph glyph-name="ncommaaccent" unicode="&#x146;" 
d="M611 146h48v-146h-259v338q0 55 -42 55q-25 0 -42 -18t-17 -44v-185h43v-146h-307v146h53v226h-53v147h264v-74q61 94 157 94q68 0 111.5 -41.5t43.5 -106.5v-245zM347 -30q41 0 66.5 -26.5t25.5 -72.5t-34.5 -98t-93.5 -87l-32 29q45 50 60 95q-39 5 -61 28t-22 52
q0 33 26 56.5t65 23.5z" />
    <glyph glyph-name="Ncaron" unicode="&#x147;" horiz-adv-x="860" 
d="M520 803h-183l-143 187h168l67 -71l66 71h168zM514 750h290v-154h-63v-596h-169l-278 391v-237h64v-154h-296v154h73v442h-73v154h237l273 -394v240h-58v154z" />
    <glyph glyph-name="ncaron" unicode="&#x148;" 
d="M419 583h-143l-143 187h148l67 -71l66 71h148zM611 146h48v-146h-259v338q0 55 -42 55q-25 0 -42 -18t-17 -44v-185h43v-146h-307v146h53v226h-53v147h264v-74q61 94 157 94q68 0 111.5 -41.5t43.5 -106.5v-245z" />
    <glyph glyph-name="Eng" unicode="&#x14a;" horiz-adv-x="792" 
d="M472 750h290v-154h-63v-657q0 -87 -23 -116.5t-103 -29.5q-72 0 -117 9v153q20 -2 30 -2q27 0 35.5 10.5t8.5 32.5v4l-278 391v-237h64v-154h-296v154h73v442h-73v154h237l273 -394v240h-58v154z" />
    <glyph glyph-name="eng" unicode="&#x14b;" horiz-adv-x="646" 
d="M456 539q68 0 111.5 -41.5t43.5 -106.5v-452q0 -80 -41 -113t-127 -33q-72 0 -117 9v153q20 -2 30 -2q28 0 36 10.5t8 33.5v341q0 55 -42 55q-25 0 -42 -18t-17 -44v-185h43v-146h-307v146h53v226h-53v147h264v-74q61 94 157 94z" />
    <glyph glyph-name="Omacron" unicode="&#x14c;" horiz-adv-x="808" 
d="M171 1004h459v-162h-459v162zM404 770q166 0 262.5 -111.5t96.5 -281.5q0 -173 -96 -285t-263 -112q-168 0 -263.5 111.5t-95.5 285.5q0 171 95.5 282t263.5 111zM404 149q47 0 76 56.5t29 171.5t-29 169.5t-76 54.5q-48 0 -76.5 -54t-28.5 -170t28.5 -172t76.5 -56z" />
    <glyph glyph-name="omacron" unicode="&#x14d;" horiz-adv-x="614" 
d="M88 789h439v-152h-439v152zM307 539q127 0 203.5 -77.5t76.5 -201.5t-76.5 -202t-203.5 -78q-126 0 -203 78t-77 202t76.5 201.5t203.5 77.5zM307 110q56 0 56 150q0 148 -56 148t-56 -148q0 -150 56 -150z" />
    <glyph glyph-name="Obreve" unicode="&#x14e;" horiz-adv-x="808" 
d="M404 903q21 0 39.5 6.5t35 28.5t17.5 57h109q0 -90 -53 -146.5t-148 -56.5t-147 56t-52 147h108q2 -51 29.5 -71.5t61.5 -20.5zM404 770q166 0 262.5 -111.5t96.5 -281.5q0 -173 -96 -285t-263 -112q-168 0 -263.5 111.5t-95.5 285.5q0 171 95.5 282t263.5 111zM404 149
q47 0 76 56.5t29 171.5t-29 169.5t-76 54.5q-48 0 -76.5 -54t-28.5 -170t28.5 -172t76.5 -56z" />
    <glyph glyph-name="obreve" unicode="&#x14f;" horiz-adv-x="614" 
d="M307 698q21 0 39.5 6.5t35 28.5t17.5 57h89q0 -92 -45 -145t-136 -53q-90 0 -134.5 53t-44.5 145h88q2 -51 29.5 -71.5t61.5 -20.5zM307 539q127 0 203.5 -77.5t76.5 -201.5t-76.5 -202t-203.5 -78q-126 0 -203 78t-77 202t76.5 201.5t203.5 77.5zM307 110q56 0 56 150
q0 148 -56 148t-56 -148q0 -150 56 -150z" />
    <glyph glyph-name="Ohungarumlaut" unicode="&#x150;" horiz-adv-x="808" 
d="M180 812l140 187h202l-163 -187h-179zM432 812l163 187h202l-186 -187h-179zM404 770q166 0 262.5 -111.5t96.5 -281.5q0 -173 -96 -285t-263 -112q-168 0 -263.5 111.5t-95.5 285.5q0 171 95.5 282t263.5 111zM404 149q47 0 76 56.5t29 171.5t-29 169.5t-76 54.5
q-48 0 -76.5 -54t-28.5 -170t28.5 -172t76.5 -56z" />
    <glyph glyph-name="ohungarumlaut" unicode="&#x151;" horiz-adv-x="614" 
d="M106 582l140 187h182l-163 -187h-159zM338 582l163 187h182l-186 -187h-159zM307 539q127 0 203.5 -77.5t76.5 -201.5t-76.5 -202t-203.5 -78q-126 0 -203 78t-77 202t76.5 201.5t203.5 77.5zM307 110q56 0 56 150q0 148 -56 148t-56 -148q0 -150 56 -150z" />
    <glyph glyph-name="OE" unicode="&#x152;" horiz-adv-x="1031" 
d="M985 459h-128v4q0 80 -19.5 106.5t-79.5 26.5h-77v-142h121v-133h-121v-167h77q59 0 79 29.5t20 108.5v32h128v-324h-580q-169 0 -264 104t-95 273q0 166 95 269.5t264 103.5h580v-291zM457 154v442h-52q-105 0 -105 -219q0 -115 28.5 -169t76.5 -54h52z" />
    <glyph glyph-name="oe" unicode="&#x153;" horiz-adv-x="962" 
d="M715 178h220q-19 -94 -90.5 -146t-182.5 -52q-109 0 -178 72q-67 -72 -177 -72q-126 0 -203 78t-77 202t76.5 201.5t203.5 77.5q111 0 178 -72q67 72 177 72q133 0 201.5 -69.5t68.5 -195.5v-38h-336q3 -68 18.5 -97t44.5 -29q21 0 36 17t20 51zM657 423q-53 0 -61 -107
h118q-7 107 -57 107zM307 110q56 0 56 150q0 148 -56 148t-56 -148q0 -150 56 -150z" />
    <glyph glyph-name="Racute" unicode="&#x154;" horiz-adv-x="832" 
d="M616 989l-163 -187h-179l140 187h202zM777 154h16v-154h-191q-108 0 -108 128v118q0 49 -44 49h-91v-141h49v-154h-346v154h73v442h-73v154h420q150 0 213.5 -48.5t63.5 -143.5q0 -80 -44 -130t-125 -58q75 -5 106.5 -38.5t31.5 -74.5v-57q0 -25 11.5 -35.5t37.5 -10.5z
M434 429q34 0 54.5 22t20.5 64q0 81 -75 81h-75v-167h75z" />
    <glyph glyph-name="racute" unicode="&#x155;" horiz-adv-x="486" 
d="M420 779l-163 -187h-159l140 187h182zM427 539q25 0 35 -5v-175q-15 10 -46 10q-54 0 -85.5 -35.5t-31.5 -128.5v-59h77v-146h-341v146h53v226h-53v147h264v-102q14 58 48 90t80 32z" />
    <glyph glyph-name="Rcommaaccent" unicode="&#x156;" horiz-adv-x="832" 
d="M777 154h16v-154h-191q-108 0 -108 128v118q0 49 -44 49h-91v-141h49v-154h-346v154h73v442h-73v154h420q150 0 213.5 -48.5t63.5 -143.5q0 -80 -44 -130t-125 -58q75 -5 106.5 -38.5t31.5 -74.5v-57q0 -25 11.5 -35.5t37.5 -10.5zM434 429q34 0 54.5 22t20.5 64
q0 81 -75 81h-75v-167h75zM426 -50q44 0 70.5 -27.5t26.5 -76.5t-36.5 -103.5t-98.5 -90.5l-33 30q1 1 8.5 10t11 13t10.5 14t11.5 18t10.5 20t10 25q-41 5 -64 29t-23 55q0 35 27.5 59.5t68.5 24.5z" />
    <glyph glyph-name="rcommaaccent" unicode="&#x157;" horiz-adv-x="486" 
d="M427 539q25 0 35 -5v-175q-15 10 -46 10q-54 0 -85.5 -35.5t-31.5 -128.5v-59h77v-146h-341v146h53v226h-53v147h264v-102q14 58 48 90t80 32zM238 -30q41 0 66.5 -26.5t25.5 -72.5t-34.5 -98t-93.5 -87l-32 29q45 50 60 95q-39 5 -61 28t-22 52q0 33 26 56.5t65 23.5z
" />
    <glyph glyph-name="Rcaron" unicode="&#x158;" horiz-adv-x="832" 
d="M512 803h-183l-143 187h168l67 -71l66 71h168zM777 154h16v-154h-191q-108 0 -108 128v118q0 49 -44 49h-91v-141h49v-154h-346v154h73v442h-73v154h420q150 0 213.5 -48.5t63.5 -143.5q0 -80 -44 -130t-125 -58q75 -5 106.5 -38.5t31.5 -74.5v-57q0 -25 11.5 -35.5
t37.5 -10.5zM434 429q34 0 54.5 22t20.5 64q0 81 -75 81h-75v-167h75z" />
    <glyph glyph-name="rcaron" unicode="&#x159;" horiz-adv-x="486" 
d="M313 583h-143l-143 187h148l67 -71l66 71h148zM427 539q25 0 35 -5v-175q-15 10 -46 10q-54 0 -85.5 -35.5t-31.5 -128.5v-59h77v-146h-341v146h53v226h-53v147h264v-102q14 58 48 90t80 32z" />
    <glyph glyph-name="Sacute" unicode="&#x15a;" horiz-adv-x="709" 
d="M564 989l-163 -187h-179l140 187h202zM409 476q9 -4 32.5 -13.5t35 -14t34 -15t34.5 -18.5t31 -21t29.5 -25t23.5 -29t20 -35t11.5 -40.5t4.5 -47.5q0 -111 -70 -174t-194 -63q-70 0 -123 24.5t-76 67.5l-20 -72h-117v261h160q7 -52 39 -87t82 -35q30 0 52.5 14t22.5 39
q0 32 -28.5 52.5t-89.5 44.5q-34 13 -47 18.5t-44.5 21t-46.5 27t-38 33t-34 43.5t-19.5 53t-8.5 67q0 107 75.5 162.5t177.5 55.5q65 0 111.5 -25t67.5 -56l17 61h119v-246h-163q-6 51 -33 84t-64 33q-33 0 -51 -14t-18 -37q0 -32 26.5 -52.5t78.5 -41.5z" />
    <glyph glyph-name="sacute" unicode="&#x15b;" horiz-adv-x="542" 
d="M447 779l-163 -187h-159l140 187h182zM332 345q33 -10 53 -17t49.5 -22.5t46.5 -33t29.5 -46t12.5 -63.5q0 -82 -51.5 -128.5t-134.5 -46.5q-120 0 -176 72l-11 -60h-115v178h139q9 -34 31 -56t53 -22q41 0 41 31q0 12 -6.5 21t-24 17.5t-28.5 12.5t-39 14
q-29 9 -48.5 17t-45.5 23t-41.5 32.5t-26.5 45.5t-11 63q0 82 54 120t129 38q100 0 157 -63l9 47h117v-156h-138q-28 74 -85 74q-40 0 -40 -34q0 -11 6.5 -19t25 -15.5t29 -11t40.5 -12.5z" />
    <glyph glyph-name="Scircumflex" unicode="&#x15c;" horiz-adv-x="709" 
d="M367 890l-70 -72h-168l146 187h183l146 -187h-168zM409 476q9 -4 32.5 -13.5t35 -14t34 -15t34.5 -18.5t31 -21t29.5 -25t23.5 -29t20 -35t11.5 -40.5t4.5 -47.5q0 -111 -70 -174t-194 -63q-70 0 -123 24.5t-76 67.5l-20 -72h-117v261h160q7 -52 39 -87t82 -35
q30 0 52.5 14t22.5 39q0 32 -28.5 52.5t-89.5 44.5q-34 13 -47 18.5t-44.5 21t-46.5 27t-38 33t-34 43.5t-19.5 53t-8.5 67q0 107 75.5 162.5t177.5 55.5q65 0 111.5 -25t67.5 -56l17 61h119v-246h-163q-6 51 -33 84t-64 33q-33 0 -51 -14t-18 -37q0 -32 26.5 -52.5
t78.5 -41.5z" />
    <glyph glyph-name="scircumflex" unicode="&#x15d;" horiz-adv-x="542" 
d="M267 655l-70 -72h-148l146 187h143l146 -187h-148zM332 345q33 -10 53 -17t49.5 -22.5t46.5 -33t29.5 -46t12.5 -63.5q0 -82 -51.5 -128.5t-134.5 -46.5q-120 0 -176 72l-11 -60h-115v178h139q9 -34 31 -56t53 -22q41 0 41 31q0 12 -6.5 21t-24 17.5t-28.5 12.5t-39 14
q-29 9 -48.5 17t-45.5 23t-41.5 32.5t-26.5 45.5t-11 63q0 82 54 120t129 38q100 0 157 -63l9 47h117v-156h-138q-28 74 -85 74q-40 0 -40 -34q0 -11 6.5 -19t25 -15.5t29 -11t40.5 -12.5z" />
    <glyph glyph-name="Scedilla" unicode="&#x15e;" horiz-adv-x="709" 
d="M401 -20h-5l-44 -52q30 7 53 7q34 0 66.5 -9.5t60.5 -38.5t28 -74q0 -67 -58.5 -99t-147.5 -32q-25 0 -52.5 7t-35.5 13v71q28 -8 55 -8q47 0 69 10t22 41q0 22 -16 35.5t-43 13.5q-23 0 -41 -7t-25 -14l-7 -7l-43 47l86 105q-87 22 -121 83l-20 -72h-117v261h160
q7 -52 39 -87t82 -35q30 0 52.5 14t22.5 39q0 32 -28.5 52.5t-89.5 44.5q-34 13 -47 18.5t-44.5 21t-46.5 27t-38 33t-34 43.5t-19.5 53t-8.5 67q0 107 75.5 162.5t177.5 55.5q65 0 111.5 -25t67.5 -56l17 61h119v-246h-163q-6 51 -33 84t-64 33q-33 0 -51 -14t-18 -37
q0 -32 26.5 -52.5t78.5 -41.5q9 -4 32.5 -13.5t35 -14t34 -15t34.5 -18.5t31 -21t29.5 -25t23.5 -29t20 -35t11.5 -40.5t4.5 -47.5q0 -111 -70 -174t-194 -63z" />
    <glyph glyph-name="scedilla" unicode="&#x15f;" horiz-adv-x="542" 
d="M337 -12q-23 0 -34 1l-50 -56q23 6 46 6q31 0 62 -9t57.5 -37t26.5 -70q0 -64 -55.5 -94.5t-140.5 -30.5q-24 0 -50 6.5t-34 12.5v68q28 -8 53 -8q45 0 65.5 10t20.5 39q0 21 -15 33.5t-41 12.5q-21 0 -38.5 -6.5t-23.5 -13.5l-7 -6l-52 46l110 112q-46 17 -76 56
l-11 -60h-115v178h139q9 -34 31 -56t53 -22q41 0 41 31q0 12 -6.5 21t-24 17.5t-28.5 12.5t-39 14q-29 9 -48.5 17t-45.5 23t-41.5 32.5t-26.5 45.5t-11 63q0 82 54 120t129 38q100 0 157 -63l9 47h117v-156h-138q-28 74 -85 74q-40 0 -40 -34q0 -11 6.5 -19t25 -15.5
t29 -11t40.5 -12.5q33 -10 53 -17t49.5 -22.5t46.5 -33t29.5 -46t12.5 -63.5q0 -82 -51.5 -128.5t-134.5 -46.5z" />
    <glyph glyph-name="Scaron" unicode="&#x160;" horiz-adv-x="709" 
d="M477 803h-183l-143 187h168l67 -71l66 71h168zM409 476q9 -4 32.5 -13.5t35 -14t34 -15t34.5 -18.5t31 -21t29.5 -25t23.5 -29t20 -35t11.5 -40.5t4.5 -47.5q0 -111 -70 -174t-194 -63q-70 0 -123 24.5t-76 67.5l-20 -72h-117v261h160q7 -52 39 -87t82 -35q30 0 52.5 14
t22.5 39q0 32 -28.5 52.5t-89.5 44.5q-34 13 -47 18.5t-44.5 21t-46.5 27t-38 33t-34 43.5t-19.5 53t-8.5 67q0 107 75.5 162.5t177.5 55.5q65 0 111.5 -25t67.5 -56l17 61h119v-246h-163q-6 51 -33 84t-64 33q-33 0 -51 -14t-18 -37q0 -32 26.5 -52.5t78.5 -41.5z" />
    <glyph glyph-name="scaron" unicode="&#x161;" horiz-adv-x="542" 
d="M340 583h-143l-143 187h148l67 -71l66 71h148zM332 345q33 -10 53 -17t49.5 -22.5t46.5 -33t29.5 -46t12.5 -63.5q0 -82 -51.5 -128.5t-134.5 -46.5q-120 0 -176 72l-11 -60h-115v178h139q9 -34 31 -56t53 -22q41 0 41 31q0 12 -6.5 21t-24 17.5t-28.5 12.5t-39 14
q-29 9 -48.5 17t-45.5 23t-41.5 32.5t-26.5 45.5t-11 63q0 82 54 120t129 38q100 0 157 -63l9 47h117v-156h-138q-28 74 -85 74q-40 0 -40 -34q0 -11 6.5 -19t25 -15.5t29 -11t40.5 -12.5z" />
    <glyph glyph-name="Tcaron" unicode="&#x164;" horiz-adv-x="780" 
d="M481 803h-183l-143 187h168l67 -71l66 71h168zM45 750h690v-294h-121v7q0 91 -18.5 125t-55.5 34h-38v-468h83v-154h-390v154h83v468h-38q-37 0 -55.5 -34t-18.5 -125v-7h-121v294z" />
    <glyph glyph-name="tcaron" unicode="&#x165;" horiz-adv-x="464" 
d="M443 729q0 -42 -33 -95t-75 -90l-32 29q10 26 10 177h130v-21zM391 0q-67 -20 -161 -20q-54 0 -88.5 13t-49.5 40t-20 53.5t-5 67.5v219h-55v146q78 0 105.5 41.5t39.5 136.5h121v-178h107v-146h-107v-183q0 -23 12 -33t41 -10q45 0 60 2v-149z" />
    <glyph glyph-name="Tbar" unicode="&#x166;" horiz-adv-x="760" 
d="M35 750h690v-294h-121v7q0 91 -18.5 125t-55.5 34h-38v-207h68v-145h-68v-116h83v-154h-390v154h83v116h-68v145h68v207h-38q-37 0 -55.5 -34t-18.5 -125v-7h-121v294z" />
    <glyph glyph-name="tbar" unicode="&#x167;" horiz-adv-x="431" 
d="M331 147q45 0 60 2v-149q-67 -20 -161 -20q-54 0 -88.5 13t-49.5 40t-20 53.5t-5 67.5v51h-36v123h36v45h-55v146q78 0 105.5 41.5t39.5 136.5h121v-178h107v-146h-107v-45h68v-123h-68v-15q0 -23 12 -33t41 -10z" />
    <glyph glyph-name="Utilde" unicode="&#x168;" horiz-adv-x="788" 
d="M302 1024q51 0 110 -20t80 -20q25 0 36 10.5t11 35.5h107q0 -93 -39 -145t-112 -52q-52 0 -110.5 20.5t-78.5 20.5q-26 0 -37 -10.5t-11 -35.5h-106q0 93 38.5 144.5t111.5 51.5zM689 258q0 -126 -74 -201.5t-208 -75.5q-164 0 -234 72.5t-70 204.5v338h-73v154h351v-154
h-54v-346q0 -41 23.5 -69t63.5 -28t63 28t23 69v346h-48v154h310v-154h-73v-338z" />
    <glyph glyph-name="utilde" unicode="&#x169;" horiz-adv-x="670" 
d="M216 651q-24 0 -34 -9.5t-10 -32.5h-97q0 85 35.5 131.5t102.5 46.5q46 0 100 -18t73 -18q23 0 33 9.5t10 32.5h98q0 -85 -36 -132t-103 -47q-47 0 -100.5 18.5t-71.5 18.5zM583 147h53v-147h-264v74q-60 -94 -157 -94q-76 0 -115.5 44.5t-39.5 103.5v245h-48v146h259
v-338q0 -55 42 -55q25 0 42 18t17 44v185h-43v146h254v-372z" />
    <glyph glyph-name="Umacron" unicode="&#x16a;" horiz-adv-x="788" 
d="M164 1004h459v-162h-459v162zM689 258q0 -126 -74 -201.5t-208 -75.5q-164 0 -234 72.5t-70 204.5v338h-73v154h351v-154h-54v-346q0 -41 23.5 -69t63.5 -28t63 28t23 69v346h-48v154h310v-154h-73v-338z" />
    <glyph glyph-name="umacron" unicode="&#x16b;" horiz-adv-x="670" 
d="M544 789v-152h-439v152h439zM583 147h53v-147h-264v74q-60 -94 -157 -94q-76 0 -115.5 44.5t-39.5 103.5v245h-48v146h259v-338q0 -55 42 -55q25 0 42 18t17 44v185h-43v146h254v-372z" />
    <glyph glyph-name="Ubreve" unicode="&#x16c;" horiz-adv-x="788" 
d="M407 903q21 0 39.5 6.5t35 28.5t17.5 57h109q0 -90 -53 -146.5t-148 -56.5t-147 56t-52 147h108q2 -51 29.5 -71.5t61.5 -20.5zM689 258q0 -126 -74 -201.5t-208 -75.5q-164 0 -234 72.5t-70 204.5v338h-73v154h351v-154h-54v-346q0 -41 23.5 -69t63.5 -28t63 28t23 69
v346h-48v154h310v-154h-73v-338z" />
    <glyph glyph-name="ubreve" unicode="&#x16d;" horiz-adv-x="670" 
d="M324 592q-90 0 -134.5 53t-44.5 145h88q2 -51 29.5 -71.5t61.5 -20.5q21 0 39.5 6.5t35 28.5t17.5 57h89q0 -92 -45 -145t-136 -53zM583 147h53v-147h-264v74q-60 -94 -157 -94q-76 0 -115.5 44.5t-39.5 103.5v245h-48v146h259v-338q0 -55 42 -55q25 0 42 18t17 44v185
h-43v146h254v-372z" />
    <glyph glyph-name="Uring" unicode="&#x16e;" horiz-adv-x="788" 
d="M408 1144q81 0 135 -52.5t54 -131.5q0 -78 -54.5 -131.5t-134.5 -53.5t-134.5 53.5t-54.5 131.5q0 79 54 131.5t135 52.5zM408 1029q-32 0 -51.5 -19t-19.5 -50q0 -30 20 -50t51 -20t51 20t20 50q0 31 -19 50t-52 19zM689 258q0 -126 -74 -201.5t-208 -75.5
q-164 0 -234 72.5t-70 204.5v338h-73v154h351v-154h-54v-346q0 -41 23.5 -69t63.5 -28t63 28t23 69v346h-48v154h310v-154h-73v-338z" />
    <glyph glyph-name="uring" unicode="&#x16f;" horiz-adv-x="670" 
d="M324 555q-78 0 -131.5 52.5t-53.5 128.5q0 78 52.5 129.5t132.5 51.5t132.5 -51.5t52.5 -129.5q0 -76 -53.5 -128.5t-131.5 -52.5zM324 804q-32 0 -51 -18.5t-19 -49.5q0 -29 20 -48.5t50 -19.5q31 0 50.5 19.5t19.5 48.5q0 31 -19 49.5t-51 18.5zM583 147h53v-147h-264
v74q-60 -94 -157 -94q-76 0 -115.5 44.5t-39.5 103.5v245h-48v146h259v-338q0 -55 42 -55q25 0 42 18t17 44v185h-43v146h254v-372z" />
    <glyph glyph-name="Uhungarumlaut" unicode="&#x170;" horiz-adv-x="788" 
d="M195 812l140 187h202l-163 -187h-179zM447 812l163 187h202l-186 -187h-179zM689 258q0 -126 -74 -201.5t-208 -75.5q-164 0 -234 72.5t-70 204.5v338h-73v154h351v-154h-54v-346q0 -41 23.5 -69t63.5 -28t63 28t23 69v346h-48v154h310v-154h-73v-338z" />
    <glyph glyph-name="uhungarumlaut" unicode="&#x171;" horiz-adv-x="670" 
d="M431 769l-163 -187h-159l140 187h182zM500 582h-159l163 187h182zM583 147h53v-147h-264v74q-60 -94 -157 -94q-76 0 -115.5 44.5t-39.5 103.5v245h-48v146h259v-338q0 -55 42 -55q25 0 42 18t17 44v185h-43v146h254v-372z" />
    <glyph glyph-name="Uogonek" unicode="&#x172;" horiz-adv-x="788" 
d="M452 750h310v-154h-73v-338q0 -103 -50.5 -174t-145.5 -94q-39 -30 -52 -45.5t-13 -32.5q0 -12 9 -21.5t27 -9.5q35 0 55 17v-98q-10 -7 -47.5 -12.5t-74.5 -5.5q-76 0 -114.5 29.5t-38.5 68.5q0 59 77 107q-117 19 -167.5 88t-50.5 183v338h-73v154h351v-154h-54v-346
q0 -41 23.5 -69t63.5 -28t63 28t23 69v346h-48v154z" />
    <glyph glyph-name="uogonek" unicode="&#x173;" horiz-adv-x="670" 
d="M632 0q-37 0 -60 -20.5t-23 -41.5q0 -12 8 -21t26 -9q32 0 52 16v-93q-22 -17 -116 -17q-72 0 -108.5 28t-36.5 65q0 33 29 58t70 35h-101v74q-60 -94 -157 -94q-76 0 -115.5 44.5t-39.5 103.5v245h-48v146h259v-338q0 -55 42 -55q25 0 42 18t17 44v185h-43v146h254v-372
h53v-147h-4z" />
    <glyph glyph-name="Wcircumflex" unicode="&#x174;" horiz-adv-x="1208" 
d="M612 890l-70 -72h-168l146 187h183l146 -187h-168zM868 750h317v-154h-76l-164 -596h-250l-93 402l-94 -402h-245l-168 596h-70v154h347v-154h-44l89 -381l92 381h-63v154h348v-154h-49l93 -379l83 379h-53v154z" />
    <glyph glyph-name="wcircumflex" unicode="&#x175;" horiz-adv-x="957" 
d="M488 655l-70 -72h-148l146 187h143l146 -187h-148zM940 519v-146h-45l-130 -373h-206l-82 319l-75 -319h-209l-133 373h-43v146h295v-146h-44l52 -220l82 366h187l88 -365l47 219h-51v146h267z" />
    <glyph glyph-name="Ycircumflex" unicode="&#x176;" horiz-adv-x="763" 
d="M405 890l-70 -72h-168l146 187h183l146 -187h-168zM434 750h307v-154h-63l-182 -340v-102h78v-154h-389v154h77v108l-170 334h-67v154h354v-154h-52l87 -178l76 178h-56v154z" />
    <glyph glyph-name="ycircumflex" unicode="&#x177;" horiz-adv-x="641" 
d="M317 655l-70 -72h-148l146 187h143l146 -187h-148zM624 519v-146h-42l-165 -371q-21 -48 -40 -80.5t-47 -64.5t-64.5 -48t-82.5 -16t-83 7l11 154q40 -2 71 -2q39 0 63 23l-183 398h-50v146h301v-146h-43l73 -197l80 197h-51v146h252z" />
    <glyph glyph-name="Ydieresis" unicode="&#x178;" horiz-adv-x="763" 
d="M243 837q-48 0 -80.5 30t-32.5 72t32.5 73t80.5 31q50 0 82 -30.5t32 -73.5t-32 -72.5t-82 -29.5zM523 837q-49 0 -81 29.5t-32 72.5q0 42 32 73t81 31t82 -31t33 -73t-33 -72t-82 -30zM434 750h307v-154h-63l-182 -340v-102h78v-154h-389v154h77v108l-170 334h-67v154
h354v-154h-52l87 -178l76 178h-56v154z" />
    <glyph glyph-name="Zacute" unicode="&#x179;" horiz-adv-x="722" 
d="M545 989l-163 -187h-179l140 187h202zM539 330h123v-330h-617v122l341 484h-99q-58 0 -78.5 -30.5t-20.5 -108.5h-123v283h583v-118l-338 -489h122q59 0 83 34.5t24 113.5v39z" />
    <glyph glyph-name="zacute" unicode="&#x17a;" horiz-adv-x="556" 
d="M457 779l-163 -187h-159l140 187h182zM414 228h104v-228h-502v91l246 322h-43q-52 0 -68.5 -18.5t-16.5 -70.5h-105v195h476v-85l-243 -328h60q52 0 72 20.5t20 74.5v27z" />
    <glyph glyph-name="Zdotaccent" unicode="&#x17b;" horiz-adv-x="722" 
d="M352 836q-54 0 -89.5 31t-35.5 77t35.5 78t89.5 32t89.5 -32t35.5 -78t-35.5 -77t-89.5 -31zM539 330h123v-330h-617v122l341 484h-99q-58 0 -78.5 -30.5t-20.5 -108.5h-123v283h583v-118l-338 -489h122q59 0 83 34.5t24 113.5v39z" />
    <glyph glyph-name="zdotaccent" unicode="&#x17c;" horiz-adv-x="556" 
d="M278 616q-51 0 -85 29.5t-34 73.5t34 74.5t85 30.5t85 -30.5t34 -74.5t-34 -73.5t-85 -29.5zM414 228h104v-228h-502v91l246 322h-43q-52 0 -68.5 -18.5t-16.5 -70.5h-105v195h476v-85l-243 -328h60q52 0 72 20.5t20 74.5v27z" />
    <glyph glyph-name="Zcaron" unicode="&#x17d;" horiz-adv-x="722" 
d="M458 803h-183l-143 187h168l67 -71l66 71h168zM539 330h123v-330h-617v122l341 484h-99q-60 0 -79.5 -32t-19.5 -107h-123v283h583v-118l-338 -489h122q59 0 83 34.5t24 113.5v39z" />
    <glyph glyph-name="zcaron" unicode="&#x17e;" horiz-adv-x="556" 
d="M350 583h-143l-143 187h148l67 -71l66 71h148zM414 228h104v-228h-502v91l246 322h-43q-52 0 -68.5 -18.5t-16.5 -70.5h-105v195h476v-85l-243 -328h60q52 0 72 20.5t20 74.5v27z" />
    <glyph glyph-name="uni018F" unicode="&#x18f;" horiz-adv-x="780" 
d="M378 770q162 0 259 -109.5t97 -284.5q0 -176 -97 -286t-259 -110t-246.5 99.5t-84.5 276.5v51h432q-4 104 -28 148t-69 44q-32 0 -55.5 -28t-31.5 -80h-251q24 133 111.5 206t222.5 73zM384 149q78 0 92 151h-181q11 -151 89 -151z" />
    <glyph glyph-name="florin" unicode="&#x192;" horiz-adv-x="423" 
d="M241 -59q-10 -71 -58.5 -109.5t-154.5 -38.5q-35 0 -107 9l20 143q12 -2 30 -2q20 0 33.5 4.5t20 14t9 16.5t4.5 20l54 375h-47v146h67l14 100q10 71 58.5 109.5t154.5 38.5q35 0 107 -9l-20 -143q-12 2 -30 2q-20 0 -33.5 -4.5t-20 -14t-9 -16.5t-4.5 -20l-6 -43h65
v-146h-85z" />
    <glyph glyph-name="uni01D3" unicode="&#x1d3;" horiz-adv-x="788" 
d="M508 803h-183l-143 187h168l67 -71l66 71h168zM452 750h310v-154h-73v-338q0 -126 -74 -201.5t-208 -75.5q-164 0 -234 72.5t-70 204.5v338h-73v154h351v-154h-54v-346q0 -41 23.5 -69t63.5 -28t63 28t23 69v346h-48v154z" />
    <glyph glyph-name="uni01D4" unicode="&#x1d4;" horiz-adv-x="670" 
d="M394 583h-143l-143 187h148l67 -71l66 71h148zM583 147h53v-147h-264v74q-60 -94 -157 -94q-76 0 -115.5 44.5t-39.5 103.5v245h-48v146h259v-338q0 -55 42 -55q25 0 42 18t17 44v185h-43v146h254v-372z" />
    <glyph glyph-name="uni01E2" unicode="&#x1e2;" horiz-adv-x="1048" 
d="M764 1004v-162h-459v162h459zM1002 459h-128v4q0 80 -19.5 106.5t-79.5 26.5h-77v-142h121v-133h-121v-167h77q59 0 79 29.5t20 108.5v32h128v-324h-601v154h73v77h-176l-34 -77h51v-154h-295v154h56l220 442h-85v154h791v-291zM344 336h130v260h-15z" />
    <glyph glyph-name="uni01E3" unicode="&#x1e3;" horiz-adv-x="929" 
d="M694 789v-152h-439v152h439zM685 174h220q-19 -94 -90 -144t-183 -50q-147 0 -220 94q-31 -39 -85 -66.5t-117 -27.5q-90 0 -137.5 36.5t-47.5 124.5q0 47 18.5 79t53.5 49.5t77.5 24.5t98.5 7h81v44q0 28 -12 45t-34 17t-35 -16.5t-13 -39.5v-9h-206v9q0 188 266 188
q106 0 165 -34q62 34 147 34q133 0 201.5 -69.5t68.5 -195.5v-46h-336q4 -64 19 -91t44 -27q46 0 56 64zM627 423q-27 0 -42 -26.5t-19 -88.5h118q-6 115 -57 115zM295 123q30 0 44.5 18.5t14.5 45.5v36h-36q-74 0 -74 -56q0 -20 14 -32t37 -12z" />
    <glyph glyph-name="AEacute" unicode="&#x1fc;" horiz-adv-x="1048" 
d="M746 989l-163 -187h-179l140 187h202zM1002 459h-128v4q0 80 -19.5 106.5t-79.5 26.5h-77v-142h121v-133h-121v-167h77q59 0 79 29.5t20 108.5v32h128v-324h-601v154h73v77h-176l-34 -77h51v-154h-295v154h56l220 442h-85v154h791v-291zM344 336h130v260h-15z" />
    <glyph glyph-name="aeacute" unicode="&#x1fd;" horiz-adv-x="929" 
d="M653 779l-163 -187h-159l140 187h182zM685 174h220q-19 -94 -90 -144t-183 -50q-147 0 -220 94q-31 -39 -85 -66.5t-117 -27.5q-90 0 -137.5 36.5t-47.5 124.5q0 47 18.5 79t53.5 49.5t77.5 24.5t98.5 7h81v44q0 28 -12 45t-34 17t-35 -16.5t-13 -39.5v-9h-206v9
q0 188 266 188q106 0 165 -34q62 34 147 34q133 0 201.5 -69.5t68.5 -195.5v-46h-336q4 -64 19 -91t44 -27q46 0 56 64zM627 423q-27 0 -42 -26.5t-19 -88.5h118q-6 115 -57 115zM295 123q30 0 44.5 18.5t14.5 45.5v36h-36q-74 0 -74 -56q0 -20 14 -32t37 -12z" />
    <glyph glyph-name="Oslashacute" unicode="&#x1fe;" horiz-adv-x="810" 
d="M633 989l-163 -187h-179l140 187h202zM799 792l-116 -152q81 -105 81 -263q0 -173 -96 -285t-263 -112q-107 0 -189 49l-54 -71h-151l116 152q-81 105 -81 267q0 171 95.5 282t263.5 111q105 0 189 -49l54 71h151zM300 377q0 -27 1 -39l171 224q-26 39 -67 39
q-48 0 -76.5 -54t-28.5 -170zM510 377q0 24 -1 36l-171 -225q26 -39 67 -39q47 0 76 56.5t29 171.5z" />
    <glyph glyph-name="oslashacute" unicode="&#x1ff;" horiz-adv-x="614" 
d="M486 779l-163 -187h-159l140 187h182zM486 483q101 -77 101 -223q0 -124 -76.5 -202t-203.5 -78q-73 0 -132 28l-32 -48h-66l50 77q-100 79 -100 223q0 124 76.5 201.5t203.5 77.5q72 0 132 -27l33 50h66zM251 260q0 -23 1 -34l96 148q-13 34 -41 34q-56 0 -56 -148z
M307 110q56 0 56 150q0 23 -1 34l-97 -148q15 -36 42 -36z" />
    <glyph glyph-name="Scommaaccent" unicode="&#x218;" horiz-adv-x="709" 
d="M409 476q9 -4 32.5 -13.5t35 -14t34 -15t34.5 -18.5t31 -21t29.5 -25t23.5 -29t20 -35t11.5 -40.5t4.5 -47.5q0 -111 -70 -174t-194 -63q-70 0 -123 24.5t-76 67.5l-20 -72h-117v261h160q7 -52 39 -87t82 -35q30 0 52.5 14t22.5 39q0 32 -28.5 52.5t-89.5 44.5
q-34 13 -47 18.5t-44.5 21t-46.5 27t-38 33t-34 43.5t-19.5 53t-8.5 67q0 107 75.5 162.5t177.5 55.5q65 0 111.5 -25t67.5 -56l17 61h119v-246h-163q-6 51 -33 84t-64 33q-33 0 -51 -14t-18 -37q0 -32 26.5 -52.5t78.5 -41.5zM389 -54q44 0 70.5 -27.5t26.5 -76.5
t-36.5 -103.5t-98.5 -90.5l-33 30q1 1 8.5 10t11 13t10.5 14t11.5 18t10.5 20t10 25q-41 5 -64 29t-23 55q0 35 27.5 59.5t68.5 24.5z" />
    <glyph glyph-name="scommaaccent" unicode="&#x219;" horiz-adv-x="542" 
d="M332 345q33 -10 53 -17t49.5 -22.5t46.5 -33t29.5 -46t12.5 -63.5q0 -82 -51.5 -128.5t-134.5 -46.5q-120 0 -176 72l-11 -60h-115v178h139q9 -34 31 -56t53 -22q41 0 41 31q0 12 -6.5 21t-24 17.5t-28.5 12.5t-39 14q-29 9 -48.5 17t-45.5 23t-41.5 32.5t-26.5 45.5
t-11 63q0 82 54 120t129 38q100 0 157 -63l9 47h117v-156h-138q-28 74 -85 74q-40 0 -40 -34q0 -11 6.5 -19t25 -15.5t29 -11t40.5 -12.5zM266 -30q41 0 66.5 -26.5t25.5 -72.5t-34.5 -98t-93.5 -87l-32 29q45 50 60 95q-39 5 -61 28t-22 52q0 33 26 56.5t65 23.5z" />
    <glyph glyph-name="uni021A" unicode="&#x21a;" horiz-adv-x="780" 
d="M45 750h690v-294h-121v7q0 91 -18.5 125t-55.5 34h-38v-468h83v-154h-390v154h83v468h-38q-37 0 -55.5 -34t-18.5 -125v-7h-121v294zM395 -50q44 0 70.5 -27.5t26.5 -76.5t-36.5 -103.5t-98.5 -90.5l-33 30q1 1 8.5 10t11 13t10.5 14t11.5 18t10.5 20t10 25q-41 5 -64 29
t-23 55q0 35 27.5 59.5t68.5 24.5z" />
    <glyph glyph-name="uni021B" unicode="&#x21b;" horiz-adv-x="431" 
d="M331 147q45 0 60 2v-149q-67 -20 -161 -20q-54 0 -88.5 13t-49.5 40t-20 53.5t-5 67.5v219h-55v146q78 0 105.5 41.5t39.5 136.5h121v-178h107v-146h-107v-183q0 -23 12 -33t41 -10zM203 -30q41 0 66.5 -26.5t25.5 -72.5t-34.5 -98t-93.5 -87l-32 29q45 50 60 95
q-39 5 -61 28t-22 52q0 33 26 56.5t65 23.5z" />
    <glyph glyph-name="uni0232" unicode="&#x232;" horiz-adv-x="763" 
d="M617 1004v-162h-459v162h459zM434 750h307v-154h-63l-182 -340v-102h78v-154h-389v154h77v108l-170 334h-67v154h354v-154h-52l87 -178l76 178h-56v154z" />
    <glyph glyph-name="uni0233" unicode="&#x233;" horiz-adv-x="641" 
d="M538 789v-152h-439v152h439zM624 519v-146h-42l-165 -371q-21 -48 -40 -80.5t-47 -64.5t-64.5 -48t-82.5 -16t-83 7l11 154q40 -2 71 -2q39 0 63 23l-183 398h-50v146h301v-146h-43l73 -197l80 197h-51v146h252z" />
    <glyph glyph-name="uni0237" unicode="&#x237;" horiz-adv-x="335" 
d="M295 -61q0 -80 -41 -113t-127 -33q-72 0 -117 9v153q20 -2 30 -2q28 0 36 10.5t8 33.5v375h-73v147h284v-580z" />
    <glyph glyph-name="uni0259" unicode="&#x259;" horiz-adv-x="618" 
d="M300 540q133 0 212 -77t79 -202t-79 -202.5t-212 -77.5t-201.5 69.5t-68.5 195.5v38h336q-3 68 -18.5 97t-44.5 29q-21 0 -36 -17t-20 -51h-220q19 94 90.5 146t182.5 52zM305 97q53 0 61 107h-118q7 -107 57 -107z" />
    <glyph glyph-name="circumflex" unicode="&#x2c6;" horiz-adv-x="435" 
d="M435 583h-148l-69 72l-70 -72h-148l146 187h143z" />
    <glyph glyph-name="caron" unicode="&#x2c7;" horiz-adv-x="429" 
d="M281 770h148l-143 -187h-143l-143 187h148l67 -71z" />
    <glyph glyph-name="breve" unicode="&#x2d8;" horiz-adv-x="360" 
d="M179 698q21 0 39.5 6.5t35 28.5t17.5 57h89q0 -92 -45 -145t-136 -53q-90 0 -134.5 53t-44.5 145h88q2 -51 29.5 -71.5t61.5 -20.5z" />
    <glyph glyph-name="dotaccent" unicode="&#x2d9;" horiz-adv-x="238" 
d="M119 616q-51 0 -85 29.5t-34 73.5t34 74.5t85 30.5t85 -30.5t34 -74.5t-34 -73.5t-85 -29.5z" />
    <glyph glyph-name="ring" unicode="&#x2da;" horiz-adv-x="370" 
d="M185 917q80 0 132.5 -51.5t52.5 -129.5q0 -76 -53.5 -128.5t-131.5 -52.5t-131.5 52.5t-53.5 128.5q0 78 52.5 129.5t132.5 51.5zM185 804q-32 0 -51 -18.5t-19 -49.5q0 -29 20 -48.5t50 -19.5q31 0 50.5 19.5t19.5 48.5q0 31 -19 49.5t-51 18.5z" />
    <glyph glyph-name="ogonek" unicode="&#x2db;" horiz-adv-x="261" 
d="M0 -114q0 21 7.5 38.5t25 33t31 24.5t39.5 25h155q-51 -37 -67 -54.5t-16 -35.5q0 -12 8 -21t26 -9q32 0 52 16v-93q-22 -17 -116 -17q-72 0 -108.5 28t-36.5 65z" />
    <glyph glyph-name="tilde" unicode="&#x2dc;" horiz-adv-x="452" 
d="M138 787q46 0 100 -18t73 -18q23 0 33 9.5t10 32.5h98q0 -85 -36 -132t-103 -47q-47 0 -100.5 18.5t-71.5 18.5q-24 0 -34 -9.5t-10 -32.5h-97q0 85 35.5 131.5t102.5 46.5z" />
    <glyph glyph-name="hungarumlaut" unicode="&#x2dd;" horiz-adv-x="577" 
d="M0 582l140 187h182l-163 -187h-159zM232 582l163 187h182l-186 -187h-159z" />
    <glyph glyph-name="uni03BC" unicode="&#x3bc;" horiz-adv-x="670" 
d="M583 147h53v-147h-264v74q-42 -66 -101 -86v-177h-211v562h-48v146h259v-338q0 -55 42 -55q25 0 42 18t17 44v185h-43v146h254v-372z" />
    <glyph glyph-name="uni0CA0" unicode="&#xca0;" horiz-adv-x="1040" 
d="M1036 730q0 -86 -33 -127t-113 -41h-6q40 -86 40 -188q0 -184 -128 -309t-317 -125t-317 125t-128 309q0 103 41 188h-61v169h793q38 0 53.5 21t15.5 65q0 10 -2 30h153q9 -45 9 -117zM773 374q0 110 -67 188h-454q-67 -78 -67 -188q0 -121 84.5 -203.5t209.5 -82.5
t209.5 82.5t84.5 203.5zM479 266q-54 0 -89.5 31t-35.5 77t35.5 78t89.5 32t89.5 -32t35.5 -78t-35.5 -77t-89.5 -31z" />
    <glyph glyph-name="uni1E44" unicode="&#x1e44;" horiz-adv-x="860" 
d="M434 836q-54 0 -89.5 31t-35.5 77t35.5 78t89.5 32t89.5 -32t35.5 -78t-35.5 -77t-89.5 -31zM514 750h290v-154h-63v-596h-169l-278 391v-237h64v-154h-296v154h73v442h-73v154h237l273 -394v240h-58v154z" />
    <glyph glyph-name="uni1E45" unicode="&#x1e45;" 
d="M347 616q-51 0 -85 29.5t-34 73.5t34 74.5t85 30.5t85 -30.5t34 -74.5t-34 -73.5t-85 -29.5zM611 146h48v-146h-259v338q0 55 -42 55q-25 0 -42 -18t-17 -44v-185h43v-146h-307v146h53v226h-53v147h264v-74q61 94 157 94q68 0 111.5 -41.5t43.5 -106.5v-245z" />
    <glyph glyph-name="uni1E60" unicode="&#x1e60;" horiz-adv-x="709" 
d="M371 836q-54 0 -89.5 31t-35.5 77t35.5 78t89.5 32t89.5 -32t35.5 -78t-35.5 -77t-89.5 -31zM409 476q9 -4 32.5 -13.5t35 -14t34 -15t34.5 -18.5t31 -21t29.5 -25t23.5 -29t20 -35t11.5 -40.5t4.5 -47.5q0 -111 -70 -174t-194 -63q-70 0 -123 24.5t-76 67.5l-20 -72
h-117v261h160q7 -52 39 -87t82 -35q30 0 52.5 14t22.5 39q0 32 -28.5 52.5t-89.5 44.5q-34 13 -47 18.5t-44.5 21t-46.5 27t-38 33t-34 43.5t-19.5 53t-8.5 67q0 107 75.5 162.5t177.5 55.5q65 0 111.5 -25t67.5 -56l17 61h119v-246h-163q-6 51 -33 84t-64 33q-33 0 -51 -14
t-18 -37q0 -32 26.5 -52.5t78.5 -41.5z" />
    <glyph glyph-name="uni1E61" unicode="&#x1e61;" horiz-adv-x="542" 
d="M268 616q-51 0 -85 29.5t-34 73.5t34 74.5t85 30.5t85 -30.5t34 -74.5t-34 -73.5t-85 -29.5zM332 345q33 -10 53 -17t49.5 -22.5t46.5 -33t29.5 -46t12.5 -63.5q0 -82 -51.5 -128.5t-134.5 -46.5q-120 0 -176 72l-11 -60h-115v178h139q9 -34 31 -56t53 -22q41 0 41 31
q0 12 -6.5 21t-24 17.5t-28.5 12.5t-39 14q-29 9 -48.5 17t-45.5 23t-41.5 32.5t-26.5 45.5t-11 63q0 82 54 120t129 38q100 0 157 -63l9 47h117v-156h-138q-28 74 -85 74q-40 0 -40 -34q0 -11 6.5 -19t25 -15.5t29 -11t40.5 -12.5z" />
    <glyph glyph-name="Wgrave" unicode="&#x1e80;" horiz-adv-x="1208" 
d="M703 802h-180l-163 187h203zM868 750h317v-154h-76l-164 -596h-250l-93 402l-94 -402h-245l-168 596h-70v154h347v-154h-44l89 -381l92 381h-63v154h348v-154h-49l93 -379l83 379h-53v154z" />
    <glyph glyph-name="wgrave" unicode="&#x1e81;" horiz-adv-x="957" 
d="M566 592h-159l-163 187h182zM940 519v-146h-45l-130 -373h-206l-82 319l-75 -319h-209l-133 373h-43v146h295v-146h-44l52 -220l82 366h187l88 -365l47 219h-51v146h267z" />
    <glyph glyph-name="Wacute" unicode="&#x1e82;" horiz-adv-x="1208" 
d="M804 989l-163 -187h-179l140 187h202zM868 750h317v-154h-76l-164 -596h-250l-93 402l-94 -402h-245l-168 596h-70v154h347v-154h-44l89 -381l92 381h-63v154h348v-154h-49l93 -379l83 379h-53v154z" />
    <glyph glyph-name="wacute" unicode="&#x1e83;" horiz-adv-x="957" 
d="M668 779l-163 -187h-159l140 187h182zM940 519v-146h-45l-130 -373h-206l-82 319l-75 -319h-209l-133 373h-43v146h295v-146h-44l52 -220l82 366h187l88 -365l47 219h-51v146h267z" />
    <glyph glyph-name="Wdieresis" unicode="&#x1e84;" horiz-adv-x="1208" 
d="M467 837q-48 0 -80.5 30t-32.5 72t32.5 73t80.5 31q50 0 82 -30.5t32 -73.5t-32 -72.5t-82 -29.5zM747 837q-49 0 -81 29.5t-32 72.5q0 42 32 73t81 31t82 -31t33 -73t-33 -72t-82 -30zM868 750h317v-154h-76l-164 -596h-250l-93 402l-94 -402h-245l-168 596h-70v154h347
v-154h-44l89 -381l92 381h-63v154h348v-154h-49l93 -379l83 379h-53v154z" />
    <glyph glyph-name="wdieresis" unicode="&#x1e85;" horiz-adv-x="957" 
d="M373 620q-42 0 -69 24t-27 60t27.5 61t68.5 25t68.5 -25t27.5 -61t-27 -60t-69 -24zM606 620q-42 0 -69 24t-27 60t27.5 61t68.5 25t69 -25t28 -61t-27.5 -60t-69.5 -24zM940 519v-146h-45l-130 -373h-206l-82 319l-75 -319h-209l-133 373h-43v146h295v-146h-44l52 -220
l82 366h187l88 -365l47 219h-51v146h267z" />
    <glyph glyph-name="uni1EBC" unicode="&#x1ebc;" horiz-adv-x="718" 
d="M270 874q-26 0 -37 -10.5t-11 -35.5h-106q0 93 38.5 144.5t111.5 51.5q51 0 110 -20t80 -20q25 0 36 10.5t11 35.5h107q0 -93 -39 -145t-112 -52q-52 0 -110.5 20.5t-78.5 20.5zM663 459h-128v4q0 80 -19.5 106.5t-79.5 26.5h-77v-142h121v-133h-121v-167h77
q59 0 79 29.5t20 108.5v32h128v-324h-601v154h73v442h-73v154h601v-291z" />
    <glyph glyph-name="uni1EBD" unicode="&#x1ebd;" horiz-adv-x="615" 
d="M204 651q-24 0 -34 -9.5t-10 -32.5h-97q0 85 35.5 131.5t102.5 46.5q46 0 100 -18t73 -18q23 0 33 9.5t10 32.5h98q0 -85 -36 -132t-103 -47q-47 0 -100.5 18.5t-71.5 18.5zM371 178h220q-19 -94 -90.5 -146t-182.5 -52q-133 0 -212 77t-79 202t79 202.5t212 77.5
t201.5 -69.5t68.5 -195.5v-38h-336q3 -68 18.5 -97t44.5 -29q21 0 36 17t20 51zM313 423q-53 0 -61 -107h118q-7 107 -57 107z" />
    <glyph glyph-name="Ygrave" unicode="&#x1ef2;" horiz-adv-x="763" 
d="M481 802h-180l-163 187h203zM434 750h307v-154h-63l-182 -340v-102h78v-154h-389v154h77v108l-170 334h-67v154h354v-154h-52l87 -178l76 178h-56v154z" />
    <glyph glyph-name="ygrave" unicode="&#x1ef3;" horiz-adv-x="641" 
d="M395 592h-159l-163 187h182zM624 519v-146h-42l-165 -371q-21 -48 -40 -80.5t-47 -64.5t-64.5 -48t-82.5 -16t-83 7l11 154q40 -2 71 -2q39 0 63 23l-183 398h-50v146h301v-146h-43l73 -197l80 197h-51v146h252z" />
    <glyph glyph-name="uni1EF8" unicode="&#x1ef8;" horiz-adv-x="763" 
d="M283 874q-26 0 -37 -10.5t-11 -35.5h-106q0 93 38.5 144.5t111.5 51.5q51 0 110 -20t80 -20q25 0 36 10.5t11 35.5h107q0 -93 -39 -145t-112 -52q-52 0 -110.5 20.5t-78.5 20.5zM434 750h307v-154h-63l-182 -340v-102h78v-154h-389v154h77v108l-170 334h-67v154h354v-154
h-52l87 -178l76 178h-56v154z" />
    <glyph glyph-name="uni1EF9" unicode="&#x1ef9;" horiz-adv-x="641" 
d="M210 651q-24 0 -34 -9.5t-10 -32.5h-97q0 85 35.5 131.5t102.5 46.5q46 0 100 -18t73 -18q23 0 33 9.5t10 32.5h98q0 -85 -36 -132t-103 -47q-47 0 -100.5 18.5t-71.5 18.5zM624 519v-146h-42l-165 -371q-21 -48 -40 -80.5t-47 -64.5t-64.5 -48t-82.5 -16t-83 7l11 154
q40 -2 71 -2q39 0 63 23l-183 398h-50v146h301v-146h-43l73 -197l80 197h-51v146h252z" />
    <glyph glyph-name="uni2009" unicode="&#x2009;" horiz-adv-x="180" 
 />
    <glyph glyph-name="endash" unicode="&#x2013;" horiz-adv-x="728" 
d="M62 352h604v-157h-604v157z" />
    <glyph glyph-name="emdash" unicode="&#x2014;" horiz-adv-x="1037" 
d="M62 352h913v-157h-913v157z" />
    <glyph glyph-name="quoteleft" unicode="&#x2018;" horiz-adv-x="330" 
d="M176 602q54 -6 84 -37.5t30 -72.5q0 -46 -35.5 -78t-89.5 -32q-56 0 -90.5 36t-34.5 100q0 63 47 134t128 119l45 -40l-5 -5q-58 -61 -79 -124z" />
    <glyph glyph-name="quoteright" unicode="&#x2019;" horiz-adv-x="330" 
d="M165 770q56 0 90.5 -36t34.5 -100q0 -63 -47 -134t-128 -119l-45 40q48 50 67 89q10 19 17 40q-54 6 -84 37.5t-30 72.5q0 46 35.5 78t89.5 32z" />
    <glyph glyph-name="quotesinglbase" unicode="&#x201a;" horiz-adv-x="330" 
d="M165 199q56 0 90.5 -36t34.5 -100q0 -63 -47 -134t-128 -119l-45 40q48 50 67 89q10 19 17 40q-54 6 -84 37.5t-30 72.5q0 46 35.5 78t89.5 32z" />
    <glyph glyph-name="quotedblleft" unicode="&#x201c;" horiz-adv-x="634" 
d="M176 602q54 -6 84 -37.5t30 -72.5q0 -46 -35.5 -78t-89.5 -32q-56 0 -90.5 36t-34.5 100q0 63 47 134t128 119l45 -40l-5 -5q-58 -61 -79 -124zM480 602q54 -6 84 -37.5t30 -72.5q0 -46 -35.5 -78t-89.5 -32q-56 0 -90.5 36t-34.5 100q0 63 47 134t128 119l45 -40l-5 -5
q-58 -61 -79 -124z" />
    <glyph glyph-name="quotedblright" unicode="&#x201d;" horiz-adv-x="634" 
d="M165 770q56 0 90.5 -36t34.5 -100q0 -63 -47 -134t-128 -119l-45 40q48 50 67 89q10 19 17 40q-54 6 -84 37.5t-30 72.5q0 46 35.5 78t89.5 32zM469 770q56 0 90.5 -36t34.5 -100q0 -63 -47 -134t-128 -119l-45 40q48 50 67 89q10 19 17 40q-54 6 -84 37.5t-30 72.5
q0 46 35.5 78t89.5 32z" />
    <glyph glyph-name="quotedblbase" unicode="&#x201e;" horiz-adv-x="634" 
d="M165 199q56 0 90.5 -36t34.5 -100q0 -63 -47 -134t-128 -119l-45 40q48 50 67 89q10 19 17 40q-54 6 -84 37.5t-30 72.5q0 46 35.5 78t89.5 32zM469 199q56 0 90.5 -36t34.5 -100q0 -63 -47 -134t-128 -119l-45 40q48 50 67 89q10 19 17 40q-54 6 -84 37.5t-30 72.5
q0 46 35.5 78t89.5 32z" />
    <glyph glyph-name="dagger" unicode="&#x2020;" horiz-adv-x="579" 
d="M372 770v-121l-15 -86l86 16h111v-167h-111l-86 16l15 -86v-189l-32 -293h-101l-32 293v189l15 86l-86 -16h-111v167h111l86 -16l-15 86v121h165z" />
    <glyph glyph-name="daggerdbl" unicode="&#x2021;" horiz-adv-x="653" 
d="M394 202l86 16h111v-167h-111l-86 16l15 -86v-121h-165v121l15 86l-86 -16h-111v167h111l86 -16l-15 86v54l15 86l-86 -16h-111v167h111l86 -16l-15 86v121h165v-121l-15 -86l86 16h111v-167h-111l-86 16l15 -86v-54z" />
    <glyph glyph-name="bullet" unicode="&#x2022;" horiz-adv-x="499" 
d="M250 210q-82 0 -135 47t-53 117q0 69 53.5 117t134.5 48t134 -48t53 -117q0 -70 -53 -117t-134 -47z" />
    <glyph glyph-name="ellipsis" unicode="&#x2026;" horiz-adv-x="990" 
d="M165 -20q-54 0 -89.5 31.5t-35.5 77.5t35.5 78t89.5 32t89.5 -32t35.5 -78t-35.5 -77.5t-89.5 -31.5zM495 -20q-54 0 -89.5 31.5t-35.5 77.5t35.5 78t89.5 32t89.5 -32t35.5 -78t-35.5 -77.5t-89.5 -31.5zM825 -20q-54 0 -89.5 31.5t-35.5 77.5t35.5 78t89.5 32t89.5 -32
t35.5 -78t-35.5 -77.5t-89.5 -31.5z" />
    <glyph glyph-name="perthousand" unicode="&#x2030;" horiz-adv-x="1492" 
d="M238 770q94 0 151 -51t57 -133q0 -83 -57 -134t-151 -51t-151 51t-57 134q0 82 57.5 133t150.5 51zM726 750h163l-607 -750h-163zM238 486q53 0 53 100q0 98 -53 98t-53 -98q0 -100 53 -100zM769 349q94 0 151 -51t57 -133q0 -83 -57 -134t-151 -51t-151 51t-57 134
q0 82 57.5 133t150.5 51zM1254 349q94 0 151 -51t57 -133q0 -83 -57 -134t-151 -51t-151 51t-57 134q0 82 57.5 133t150.5 51zM769 65q53 0 53 100q0 98 -53 98t-53 -98q0 -100 53 -100zM1254 65q53 0 53 100q0 98 -53 98t-53 -98q0 -100 53 -100z" />
    <glyph glyph-name="guilsinglleft" unicode="&#x2039;" horiz-adv-x="437" 
d="M198 41l-153 218l153 218h194l-153 -218l153 -218h-194z" />
    <glyph glyph-name="guilsinglright" unicode="&#x203a;" horiz-adv-x="437" 
d="M198 259l-153 218h194l153 -218l-153 -218h-194z" />
    <glyph glyph-name="fraction" unicode="&#x2044;" horiz-adv-x="278" 
d="M-180 0l487 750h151l-487 -750h-151z" />
    <glyph glyph-name="uni20A9" unicode="&#x20a9;" horiz-adv-x="1210" 
d="M1185 596h-76l-21 -77h54v-105h-83l-14 -50h97v-105h-126l-71 -259h-250l-60 259h-67l-60 -259h-245l-73 259h-125v105h95l-14 50h-81v105h52l-22 77h-70v154h347v-154h-44l18 -77h145l18 77h-63v154h348v-154h-49l19 -77h140l17 77h-53v154h317v-154zM371 414l11 -50h71
l12 50h-94zM870 364l11 50h-91l12 -50h68zM593 364h18l-9 38zM417 215l11 44h-21zM838 217l9 42h-19z" />
    <glyph glyph-name="Euro" unicode="&#x20ac;" horiz-adv-x="831" 
d="M461 149q80 0 98 165h217q0 -162 -84.5 -248t-243.5 -86q-133 0 -221 71.5t-120 194.5h-62v105h47q-1 8 -1 25t1 25h-47v105h62q32 122 120 193t221 71q159 0 243.5 -86t84.5 -248h-217q-18 165 -98 165q-32 0 -57 -25.5t-39 -69.5h111v-105h-126v-50h126v-105h-111
q14 -45 39.5 -71t56.5 -26z" />
    <glyph glyph-name="uni2116" unicode="&#x2116;" horiz-adv-x="1464" 
d="M1139 211q-126 0 -203 78t-77 202t76.5 201.5t203.5 77.5t203.5 -77.5t76.5 -201.5t-76.5 -202t-203.5 -78zM514 596v154h290v-154h-63v-596h-169l-278 391v-237h64v-154h-296v154h73v442h-73v154h237l273 -394v240h-58zM1139 639q-56 0 -56 -148q0 -150 56 -150t56 150
q0 148 -56 148zM866 -1v157h546v-157h-546z" />
    <glyph glyph-name="uni2120" unicode="&#x2120;" horiz-adv-x="813" 
d="M189 644q3 -1 17 -6.5t19 -7.5t17.5 -8t18 -10t14.5 -12t12.5 -16t7 -19t3.5 -24q0 -44 -29.5 -69t-82.5 -25q-62 0 -84 35l-9 -27h-52v104h71q3 -19 16 -32.5t33 -13.5q28 0 28 18q0 19 -47 35q-25 9 -35.5 14t-30 17.5t-28 30.5t-8.5 43q0 43 32.5 65t76.5 22
q51 0 76 -32l7 24h53v-98h-73q-2 19 -13 31.5t-26 12.5q-26 0 -26 -17q0 -19 42 -35zM773 686h-30v-167h30v-64h-147v64h17v125l-78 -193h-34l-73 181v-113h17v-64h-125v64h30v167h-30v64h153l63 -162l64 162h143v-64z" />
    <glyph glyph-name="trademark" unicode="&#x2122;" horiz-adv-x="845" 
d="M40 631v119h295v-119h-53v4q0 36 -8 49t-25 13h-11v-178h34v-64h-169v64h35v178h-12q-17 0 -25 -13t-8 -49v-4h-53zM805 686h-30v-167h30v-64h-147v64h17v125l-78 -193h-34l-73 181v-113h17v-64h-125v64h30v167h-30v64h153l63 -162l64 162h143v-64z" />
    <glyph glyph-name="uni2153" unicode="&#x2153;" horiz-adv-x="965" 
d="M297 438v-88h-257v88h65v178h-9q-28 0 -56 5v95q5 -1 13 -1q76 0 81 35h111v-312h52zM614 750h151l-487 -750h-151zM842 205q36 -10 59.5 -33t23.5 -58q0 -55 -52 -90t-138 -35q-81 0 -128.5 41.5t-47.5 109.5l1 14h137l-1 -14q0 -51 39 -51q38 0 38 42q0 34 -30 34h-38
v70h40q29 0 29 35q0 42 -38 42q-23 0 -31.5 -13.5t-8.5 -42.5l1 -8h-134q-1 5 -1 8q0 71 48 113t129 42q83 0 132.5 -34t49.5 -85q0 -62 -79 -87z" />
    <glyph glyph-name="uni2154" unicode="&#x2154;" horiz-adv-x="1075" 
d="M392 475v-125h-352v51q0 43 33 76.5t72.5 51.5t72.5 42.5t33 49.5q0 41 -37 41q-19 0 -31 -15t-12 -44l1 -9h-126l-1 9q0 65 47 111.5t125 46.5q83 0 127.5 -34.5t44.5 -94.5q0 -37 -19 -67.5t-47.5 -48.5t-57 -31.5t-51.5 -25t-27 -21.5h114v37h91zM724 750h151
l-487 -750h-151zM952 205q36 -10 59.5 -33t23.5 -58q0 -55 -52 -90t-138 -35q-81 0 -128.5 41.5t-47.5 109.5l1 14h137l-1 -14q0 -51 39 -51q38 0 38 42q0 34 -30 34h-38v70h40q29 0 29 35q0 42 -38 42q-23 0 -31.5 -13.5t-8.5 -42.5l1 -8h-134q-1 5 -1 8q0 71 48 113
t129 42q83 0 132.5 -34t49.5 -85q0 -62 -79 -87z" />
    <glyph glyph-name="oneeighth" unicode="&#x215b;" horiz-adv-x="978" 
d="M297 438v-88h-257v88h65v178h-9q-28 0 -56 5v95q5 -1 13 -1q76 0 81 35h111v-312h52zM614 750h151l-487 -750h-151zM869 215q69 -30 69 -92q0 -56 -50 -95t-144 -39t-144 39t-50 95q0 62 69 92q-47 27 -47 76q0 50 44 85t128 35t128 -35t44 -85q0 -49 -47 -76zM744 326
q-19 0 -32.5 -11.5t-13.5 -27.5q0 -20 13 -31t33 -11q19 0 32.5 11t13.5 31q0 16 -13.5 27.5t-32.5 11.5zM744 83q20 0 35 13.5t15 31.5q0 22 -14.5 33.5t-35.5 11.5t-35.5 -11.5t-14.5 -33.5q0 -18 15 -31.5t35 -13.5z" />
    <glyph glyph-name="threeeighths" unicode="&#x215c;" horiz-adv-x="1064" 
d="M406 464q0 -55 -52 -90t-138 -35q-81 0 -128.5 41.5t-47.5 109.5l1 14h137l-1 -14q0 -51 39 -51q38 0 38 42q0 34 -30 34h-38v70h40q29 0 29 35q0 42 -38 42q-23 0 -31.5 -13.5t-8.5 -42.5l1 -8h-134q-1 5 -1 8q0 71 48 113t129 42q83 0 132.5 -34t49.5 -85
q0 -62 -79 -87q36 -10 59.5 -33t23.5 -58zM700 750h151l-487 -750h-151zM955 215q69 -30 69 -92q0 -56 -50 -95t-144 -39t-144 39t-50 95q0 62 69 92q-47 27 -47 76q0 50 44 85t128 35t128 -35t44 -85q0 -49 -47 -76zM830 326q-19 0 -32.5 -11.5t-13.5 -27.5q0 -20 13 -31
t33 -11q19 0 32.5 11t13.5 31q0 16 -13.5 27.5t-32.5 11.5zM830 83q20 0 35 13.5t15 31.5q0 22 -14.5 33.5t-35.5 11.5t-35.5 -11.5t-14.5 -33.5q0 -18 15 -31.5t35 -13.5z" />
    <glyph glyph-name="fiveeighths" unicode="&#x215d;" horiz-adv-x="1038" 
d="M392 484q0 -60 -49 -102.5t-131 -42.5q-79 0 -125.5 42t-46.5 106v7h127v-7q0 -29 10.5 -39t29.5 -10q38 0 38 50q0 56 -39 56q-13 0 -23.5 -3t-15.5 -6.5t-6 -5.5l-102 16l26 205h278v-97h-189l-10 -53q40 20 79 20q149 0 149 -136zM674 750h151l-487 -750h-151z
M929 215q69 -30 69 -92q0 -56 -50 -95t-144 -39t-144 39t-50 95q0 62 69 92q-47 27 -47 76q0 50 44 85t128 35t128 -35t44 -85q0 -49 -47 -76zM804 326q-19 0 -32.5 -11.5t-13.5 -27.5q0 -20 13 -31t33 -11q19 0 32.5 11t13.5 31q0 16 -13.5 27.5t-32.5 11.5zM804 83
q20 0 35 13.5t15 31.5q0 22 -14.5 33.5t-35.5 11.5t-35.5 -11.5t-14.5 -33.5q0 -18 15 -31.5t35 -13.5z" />
    <glyph glyph-name="seveneighths" unicode="&#x215e;" horiz-adv-x="963" 
d="M81 350q0 143 188 312h-132v-50h-97v138h347v-88q-45 -45 -73 -80.5t-52.5 -98.5t-24.5 -133h-156zM599 750h151l-487 -750h-151zM854 215q69 -30 69 -92q0 -56 -50 -95t-144 -39t-144 39t-50 95q0 62 69 92q-47 27 -47 76q0 50 44 85t128 35t128 -35t44 -85
q0 -49 -47 -76zM729 326q-19 0 -32.5 -11.5t-13.5 -27.5q0 -20 13 -31t33 -11q19 0 32.5 11t13.5 31q0 16 -13.5 27.5t-32.5 11.5zM729 83q20 0 35 13.5t15 31.5q0 22 -14.5 33.5t-35.5 11.5t-35.5 -11.5t-14.5 -33.5q0 -18 15 -31.5t35 -13.5z" />
    <glyph glyph-name="arrowleft" unicode="&#x2190;" horiz-adv-x="771" 
d="M721 365v-211l-384 14q111 -88 133 -157h-234q-18 65 -66.5 121t-139.5 118v18q99 75 144 127t62 112h234q-21 -68 -131 -156z" />
    <glyph glyph-name="arrowup" unicode="&#x2191;" horiz-adv-x="576" 
d="M297 692q75 -99 127 -144t112 -62v-234q-68 21 -156 131l14 -382h-211l14 384q-88 -111 -157 -133v234q65 18 121 66.5t118 139.5h18z" />
    <glyph glyph-name="arrowright" unicode="&#x2192;" horiz-adv-x="771" 
d="M535 507q18 -64 66 -119.5t140 -119.5v-18q-99 -75 -144 -127t-62 -112h-234q22 69 133 157l-384 -14v211l382 -14q-110 88 -131 156h234z" />
    <glyph glyph-name="arrowdown" unicode="&#x2193;" horiz-adv-x="576" 
d="M380 215q88 110 156 131v-234q-64 -18 -119.5 -66t-119.5 -140h-18q-75 99 -127 144t-112 62v234q69 -22 157 -133l-14 384h211z" />
    <glyph glyph-name="arrowboth" unicode="&#x2194;" horiz-adv-x="1042" 
d="M806 507q18 -64 66 -119.5t140 -119.5v-18q-99 -75 -144 -127t-62 -112h-234q22 68 129 154l-180 -11l-180 11q107 -86 129 -154h-234q-18 65 -66.5 121t-139.5 118v18q99 75 144 127t62 112h234q-20 -66 -127 -152l178 10l178 -10q-107 86 -127 152h234z" />
    <glyph glyph-name="arrowupdn" unicode="&#x2195;" horiz-adv-x="576" 
d="M536 408q-67 21 -152 127l10 -158l-10 -158q85 106 152 127v-234q-64 -18 -119.5 -66t-119.5 -140h-18q-75 99 -127 144t-112 62v234q67 -20 153 -128l-10 159l10 159q-86 -108 -153 -128v234q65 18 121 66.5t118 139.5h18q75 -99 127 -144t112 -62v-234z" />
    <glyph glyph-name="uni2196" unicode="&#x2196;" horiz-adv-x="771" 
d="M695 90l-149 -149l-262 280q18 -140 -17 -204l-165 166q33 58 38.5 131.5t-15.5 182.5l13 13q123 -17 191.5 -12t122.5 35l166 -165q-64 -34 -202 -18z" />
    <glyph glyph-name="uni2197" unicode="&#x2197;" horiz-adv-x="771" 
d="M646 497q-17 -124 -12 -192t36 -123l-166 -166q-33 63 -17 205l-261 -281l-150 149l281 261q-141 -16 -204 17l166 166q110 -62 315 -24z" />
    <glyph glyph-name="uni2198" unicode="&#x2198;" horiz-adv-x="771" 
d="M670 336q-62 -110 -24 -315l-12 -12q-124 17 -192 12t-123 -36l-166 166q63 33 205 17l-281 261l149 150l261 -281q-16 141 17 204z" />
    <glyph glyph-name="uni2199" unicode="&#x2199;" horiz-adv-x="771" 
d="M414 167q140 18 204 -17l-166 -165q-58 33 -131.5 38.5t-182.5 -15.5l-13 13q17 123 12 191.5t-35 122.5l165 166q34 -64 18 -202l260 279l149 -149z" />
    <glyph glyph-name="minus" unicode="&#x2212;" horiz-adv-x="728" 
d="M62 382h604v-157h-604v157z" />
    <glyph glyph-name="approxequal" unicode="&#x2248;" horiz-adv-x="1004" 
d="M200 479l10 7q11 6 29.5 15.5t40.5 19t47.5 16.5t47.5 7q53 0 129 -30t125 -30q37 0 81 11.5t69 22.5l25 11v-147q-10 -6 -27.5 -15t-64 -24.5t-83.5 -15.5q-49 0 -125 30t-129 30q-16 0 -34 -3t-34.5 -8t-32.5 -10.5t-29 -11.5t-23 -11l-16 -8l-6 -3v147zM200 226l10 6
q11 5 29.5 13t40.5 16t47.5 14t47.5 6q53 0 129 -30t125 -30q37 0 81 14t69 27l25 14v-147q-10 -7 -27.5 -18t-64 -29t-83.5 -18q-49 0 -125 30t-129 30q-16 0 -34 -2.5t-34.5 -6.5t-32.5 -9t-29 -9.5t-23 -8.5t-16 -6l-6 -3v147z" />
    <glyph glyph-name="notequal" unicode="&#x2260;" horiz-adv-x="1004" 
d="M804 357h-204l-72 -107h276v-157h-381l-63 -94h-125l63 94h-98v157h203l72 107h-275v157h380l56 83h125l-56 -83h99v-157z" />
    <glyph glyph-name="lessequal" unicode="&#x2264;" horiz-adv-x="1004" 
d="M804 612v-117l-427 -117l427 -117v-118l-604 183v104zM200 3v111h604v-111h-604z" />
    <glyph glyph-name="greaterequal" unicode="&#x2265;" horiz-adv-x="1004" 
d="M200 612l604 -182v-104l-604 -183v118l427 117l-427 117v117zM200 3v111h604v-111h-604z" />
    <glyph glyph-name="revlogicalnot" unicode="&#x2310;" horiz-adv-x="728" 
d="M226 225v-214h-164v371h604v-157h-440z" />
    <glyph glyph-name="uni24C5" unicode="&#x24c5;" horiz-adv-x="860" 
d="M430 770q164 0 274.5 -113.5t110.5 -280.5q0 -170 -110 -283t-275 -113t-275 113t-110 283q0 167 110.5 280.5t274.5 113.5zM430 67q123 0 209 89.5t86 219.5q0 129 -86 218t-209 89t-209 -89t-86 -218q0 -130 86 -219.5t209 -89.5zM484 185h-218v80h39v220h-39v80h217
q158 0 158 -116q0 -65 -44.5 -96t-119.5 -31h-48v-57h55v-80zM429 391h30q42 0 42 47t-42 47h-30v-94z" />
    <glyph glyph-name="uni2501" unicode="&#x2501;" horiz-adv-x="638" 
d="M-5 209v200h648v-200h-648z" />
    <glyph glyph-name="uni253B" unicode="&#x253b;" horiz-adv-x="638" 
d="M-5 209v200h234v361h180v-361h234v-200h-648z" />
    <glyph glyph-name="uni256F" unicode="&#x256f;" horiz-adv-x="603" 
d="M503 770q0 -127 -38.5 -227.5t-104.5 -162.5t-147.5 -94t-172.5 -32v140q91 0 158 53.5t98.5 137.5t31.5 185h175z" />
    <glyph glyph-name="filledbox" unicode="&#x25a0;" horiz-adv-x="582" 
d="M30 521h522v-521h-522v521z" />
    <glyph glyph-name="uni25A1" unicode="&#x25a1;" horiz-adv-x="582" 
d="M30 521h522v-521h-522v521zM442 411h-302v-301h302v301z" />
    <glyph glyph-name="uni261A" unicode="&#x261a;" horiz-adv-x="1567" 
d="M549 96q-18 4 -13 33q-12 14 -21 28q-17 29 -18 57q-33 9 -74 33q-72 41 -72 72q0 18 18 54l3 5q2 4 4 6q-80 -2 -163 -2q-38 0 -76 18q-31 19 -44 41q0 2 -2 4q-51 4 -55 19q0 12 12.5 18t43.5 12q31 3 76 -4q67 4 123 14q110 20 145 40q2 1 14 8q131 71 170 88
q124 55 182 55q46 0 203 -31q10 24 30 24q19 0 92 -25q54 -18 82 -25v11q0 9 6 12q5 5 14 3l257 -72q11 -4 11 -16v-373q0 -6 -4.5 -10.5t-11.5 -4.5h-189q-12 0 -16 11q-13 36 -24 85q-26 -2 -42 -4q-106 -12 -123 -12q-32 0 -62 56q-18 34 -25 73q-105 52 -123 55
q-24 3 -56 9q-29 -79 -120 -118q-12 -4 -37 -41q-16 -21 -43 -76q-8 -20 -26 -57q0 -8 -1 -12q-5 -25 -20 -44t-25 -17zM579 214l12 25q55 118 97 134q60 29 86 70q7 9 11.5 19t5.5 15l1 5q1 7 8 12q5 4 12 2l12 -2q12 -2 29.5 -4.5t28.5 -3.5q15 -3 112 -49q-4 27 -4 68
q0 85 6 128q-166 28 -194 28q-52 0 -169 -53q-81 -36 -166 -85q-7 -5 -15 -8q-37 -21 -121.5 -38t-157.5 -20q-14 -6 -42 -11q1 -1 5.5 -4.5t7.5 -5.5q29 -21 69 -21q102 0 174 4q36 3 93 17q32 9 45 9q15 0 32 -12t26 -22t14 -18q9 -9 -2 -20q-33 -38 -59 -113
q-15 -43 8 -85q3 -3 3 -7q19 36 32 46zM1206 311q14 1 39 5q-30 152 -35 290q-26 5 -94 27q-66 22 -79 23q-4 -4 -9 -31q-6 -54 -6 -120q0 -44 5.5 -81t14 -59t18 -37.5t16.5 -21.5t11 -6q15 0 119 11zM1094 377q0 -17 12 -29t29 -12q18 0 30 12t12 29t-12 29t-30 12
q-17 0 -29 -12t-12 -29zM529 328q6 14 33 56q-23 27 -37 27q-7 0 -11 -1q-3 -42 -17 -66q20 -7 32 -16zM438 276q36 -18 60 -28q0 4 6 23q3 9 10 26q-14 11 -48 22q-8 1 -12 12q-3 8 4 16q18 18 22 55q-50 -11 -68 -13q-6 -18 -13 -32q-14 -28 -14 -38q2 -14 53 -43z
M1373 244q26 0 45 18.5t19 44.5t-19 44.5t-45 18.5q-25 0 -43.5 -19t-18.5 -44q0 -26 18.5 -44.5t43.5 -18.5z" />
    <glyph glyph-name="uni261B" unicode="&#x261b;" horiz-adv-x="1567" 
d="M1018 96q-10 -2 -25 17t-20 44q-1 4 -1 12q-18 37 -26 57q-27 55 -43 76q-25 37 -37 41q-91 39 -120 118q-32 -6 -56 -9q-18 -3 -123 -55q-7 -39 -25 -73q-30 -56 -62 -56q-38 0 -123 12q-16 2 -42 4q-8 -34 -24 -85q-4 -11 -16 -11h-189q-7 0 -11.5 4.5t-4.5 10.5v373
q0 12 11 16l257 72q9 2 14 -3q6 -3 6 -12v-11q28 7 82 25q73 25 92 25q20 0 30 -24q157 31 203 31q69 0 182 -55q66 -32 170 -88q12 -7 14 -8q35 -20 145 -40q56 -10 123 -14q45 7 76 4q31 -6 43.5 -12t12.5 -18q-4 -15 -55 -19q-2 -2 -2 -4q-13 -22 -44 -41
q-38 -18 -76 -18q-83 0 -163 2q1 -1 2.5 -3t2.5 -4.5t2 -3.5q18 -36 18 -54q0 -31 -72 -72q-42 -24 -74 -33q-2 -28 -18 -57q-9 -14 -21 -28q5 -29 -13 -33zM988 214q13 -10 32 -46q0 4 3 7q23 42 8 85q-12 33 -26.5 61.5t-23.5 40.5l-9 11q-11 11 -2 20q5 8 14 18t26 22
t32 12q13 0 45 -9q51 -15 93 -17q72 -4 174 -4q40 0 69 21q3 2 7.5 5.5t5.5 4.5q-28 5 -42 11q-73 3 -157.5 20t-121.5 38q-7 3 -15 8q-85 49 -166 85q-117 53 -169 53q-28 0 -194 -28q6 -44 6 -128q0 -41 -4 -68q97 46 112 49q11 1 28.5 3.5t29.5 4.5l12 2q7 2 12 -2
q7 -5 8 -12q2 -18 18 -39q26 -41 86 -70q37 -15 97 -134zM361 311q23 -2 52 -5t45.5 -4.5t21.5 -1.5q8 1 22 17.5t28.5 66.5t14.5 121q0 66 -6 120q-5 27 -9 31q-13 -1 -79 -23q-68 -22 -94 -27q-5 -138 -35 -290q25 -4 39 -5zM473 377q0 17 -12.5 29t-28.5 12
q-18 0 -30 -12t-12 -29t12 -29t30 -12q16 0 28.5 12t12.5 29zM1038 328q12 9 32 16q-14 24 -17 66q-4 1 -11 1q-14 0 -37 -27q27 -42 33 -56zM1129 276q23 13 36 23.5t15 14.5l2 5q0 10 -14 38q-7 14 -13 32q-18 2 -68 13q4 -37 22 -55q7 -8 4 -16q-4 -11 -12 -12
q-34 -11 -48 -22q7 -17 10 -26q6 -19 6 -23q24 10 60 28zM194 244q25 0 43.5 18.5t18.5 44.5q0 25 -18.5 44t-43.5 19q-26 0 -45 -18.5t-19 -44.5t19 -44.5t45 -18.5z" />
    <glyph glyph-name="uni261C" unicode="&#x261c;" horiz-adv-x="1467" 
d="M1397 50h-395q-3 18 -5 66h-163l-3 28l-1 3q0 3 -1 10l-2 14q-61 -26 -119 -26q-64 0 -124 20q-9 -31 -35 -49q-29 -20 -75 -20q-52 0 -88 17q-60 28 -60 85q0 19 7 36q-7 3 -15 9q-26 22 -26 69q0 12 5 29q-4 2 -12 8q-27 23 -27 69q0 51 57 106q-8 -1 -23 -1
q-33 0 -69 14q-35 -16 -65 -16q-43 0 -70 10q-48 17 -48 65q0 34 48 58q36 19 103 34q131 28 257 28q98 0 242 -49q56 -19 141 -60l3 30h165l3 30h395v-617zM399 142q29 -14 75 -14q39 0 57 15q26 17 26 59q0 34 -8 48q-4 10 -13 10q-39 0 -54 -62h-29q9 43 31.5 68t51.5 25
q53 0 53 -89v-4q54 -21 119 -21q60 0 116 27q-7 96 -7 173q0 106 9 196q-72 36 -146 61q-139 47 -232 47q-137 0 -251 -25q-43 -9 -72.5 -21t-41 -21.5t-11.5 -17.5q0 -44 86 -44q8 0 16.5 1.5t15.5 4t12.5 5t9.5 3.5l3 2l7 4l6 -4l4 -1q4 -1 10.5 -3t14.5 -4t17.5 -3
t17.5 -1q53 0 73 10q38 27 76 43v-31q-37 -19 -77 -52q-73 -58 -73 -108q0 -36 19 -48q21 35 67 74q13 11 27.5 20.5t26 16.5t21 12t16.5 8l6 3v-32q-46 -26 -77 -52q-74 -60 -74 -108q0 -44 25 -50q20 31 64 69q45 37 96 57v-30q-45 -25 -77 -52q-74 -63 -74 -108
q0 -37 42 -56zM996 147q-4 96 -4 212q0 129 5 246h-136q-12 -95 -12 -228q0 -60 3 -117.5t6 -85.5l3 -27h135zM881 208q0 -17 12 -29.5t29 -12.5t29 12.5t12 29.5q0 16 -12 28t-29 12t-29 -11.5t-12 -28.5zM1116 122q26 0 45 18.5t19 44.5t-19 44.5t-45 18.5t-44.5 -18.5
t-18.5 -44.5t18.5 -44.5t44.5 -18.5zM1293 122q26 0 44.5 18.5t18.5 44.5t-18.5 44.5t-44.5 18.5q-27 0 -45 -18.5t-18 -44.5t18 -44.5t45 -18.5z" />
    <glyph glyph-name="uni261E" unicode="&#x261e;" horiz-adv-x="1467" 
d="M70 50v617h395l3 -30h165l3 -30q85 41 141 60q144 49 242 49q133 0 257 -28q67 -15 103 -34q48 -26 48 -58q0 -47 -48 -65q-27 -10 -70 -10q-30 0 -65 16q-36 -14 -69 -14q-15 0 -23 1q57 -56 57 -106q0 -46 -27 -69q-8 -6 -12 -8q5 -17 5 -29q0 -47 -26 -69
q-7 -6 -15 -9q7 -17 7 -36q0 -57 -60 -85q-36 -17 -88 -17q-46 0 -75 20q-26 18 -35 49q-60 -20 -124 -20q-58 0 -119 26q-1 -5 -1.5 -9.5t-1 -7.5t-1 -5t-0.5 -3v-2l-3 -28h-163l-5 -66h-395zM1068 142q42 19 42 56q0 45 -74 108q-32 27 -77 52v30q55 -22 96 -57
q44 -38 64 -69q25 6 25 50q0 48 -74 108q-31 26 -77 52v32l7 -3q6 -3 15.5 -8t21 -12t26 -16.5t27.5 -20.5q46 -39 67 -74q19 12 19 48q0 48 -73 108q-40 33 -77 52v31q38 -16 76 -43q20 -10 73 -10q8 0 17.5 1t17.5 3t14.5 4t10.5 3l4 1l6 4l7 -4l4 -2q3 -1 8.5 -3.5
t12.5 -5t15.5 -4t16.5 -1.5q86 0 86 44q0 8 -11.5 17.5t-41 21.5t-72.5 21q-114 25 -251 25q-93 0 -232 -47q-74 -25 -146 -61q9 -90 9 -196q0 -77 -7 -173q56 -27 116 -27q65 0 119 21v4q0 89 53 89q29 0 51.5 -25t31.5 -68h-29q-15 62 -54 62q-9 0 -13 -10q-8 -14 -8 -48
q0 -42 26 -59q18 -15 57 -15q43 0 75 14zM471 147h135q12 96 12 230q0 59 -3 116t-6 85l-3 27h-136q5 -117 5 -246q0 -116 -4 -212zM174 122q27 0 45 18.5t18 44.5t-18 44.5t-45 18.5q-26 0 -44.5 -18.5t-18.5 -44.5t18.5 -44.5t44.5 -18.5zM351 122q26 0 44.5 18.5
t18.5 44.5t-18.5 44.5t-44.5 18.5t-45 -18.5t-19 -44.5t19 -44.5t45 -18.5zM586 208q0 17 -12 28.5t-29 11.5t-29 -12t-12 -28q0 -17 12 -29.5t29 -12.5t29 12.5t12 29.5z" />
    <glyph glyph-name="uni27B8" unicode="&#x27b8;" horiz-adv-x="1254" 
d="M30 11q28 88 123 165.5t175 77.5v10q-80 0 -175 77.5t-123 165.5h467q59 -212 258 -212h212q-57 34 -111.5 96t-71.5 116h234q18 -64 66 -119.5t140 -119.5v-18q-99 -74 -144 -126t-62 -113h-234q17 54 71.5 116t112.5 95h-212q-197 0 -259 -211h-467z" />
    <glyph glyph-name="uni27D1" unicode="&#x27d1;" horiz-adv-x="238" 
d="M119 616q-51 0 -85 29.5t-34 73.5t34 74.5t85 30.5t85 -30.5t34 -74.5t-34 -73.5t-85 -29.5z" />
    <glyph glyph-name="uni30C4" unicode="&#x30c4;" horiz-adv-x="1072" 
d="M499 420l-176 349h203l153 -349h-180zM216 369l-176 349h203l153 -349h-180zM1031 638q8 -88 -2.5 -181t-54 -200.5t-117.5 -181.5q-112 -113 -258 -163t-274 -37l-24 160q33 0 97 16.5t156.5 62t154.5 108.5q48 48 82 117t49 138.5t20.5 110.5t6.5 73z" />
    <glyph glyph-name="uniE000" unicode="&#xe000;" horiz-adv-x="1086" 
d="M543 857q206 0 352 -146t146 -352t-146 -352t-352 -146t-352 146t-146 352t146 352t352 146zM543 -88q121 0 224 60t163 163t60 224t-60 224t-163 163t-224 60t-224 -60t-163 -163t-60 -224t60 -224t163 -163t224 -60zM684 705v-242h121v-363h-80v-40h-363v40h-81v363
h121v242h282zM765 423h-121v242h-202v-242h-121v-283h41v202h40v-242h121v81h-40v40h40v242h-40v161h121v-161h-41v-242h41v-40h-41v-81h121v242h41v-202h40v283zM442 140v41h41v-41h-41zM644 140h-40v41h40v-41z" />
    <glyph glyph-name="uniE132" unicode="&#xe132;" horiz-adv-x="738" 
d="M419 769l-163 -187h-159l140 187h182zM824 769l-163 -187h-159l140 187h182zM299 519v-373h53v-146h-317v146h53v226h-53v147h264zM419 372v147h284v-580q0 -80 -41 -113t-127 -33q-72 0 -117 9v153q20 -2 30 -2q28 0 36 10.5t8 33.5v375h-73z" />
    <glyph glyph-name="uniE133" unicode="&#xe133;" horiz-adv-x="896" 
d="M139 808l140 187h182l-163 -187h-159zM583 808l140 187h182l-163 -187h-159zM52 0v154h73v442h-73v154h370v-154h-73v-442h73v-154h-370zM798 263q0 -65 -10 -114t-32.5 -88.5t-63.5 -60t-99 -20.5q-94 0 -118 18v160q6 -4 37 -4q30 0 46 20.5t16 56.5v365h-87v154h384
v-154h-73v-333z" />
    <glyph glyph-name="uniF6C3" unicode="&#xf6c3;" horiz-adv-x="0" 
d="M-92 -30q41 0 66.5 -26.5t25.5 -72.5t-34.5 -98t-93.5 -87l-32 29q45 50 60 95q-39 5 -61 28t-22 52q0 33 26 56.5t65 23.5z" />
    <glyph glyph-name="uniF8FF" unicode="&#xf8ff;" horiz-adv-x="1266" 
d="M959 223q0 28 27 47.5t61 19.5q46 0 73 -27.5t27 -77.5q0 -69 -59.5 -111.5t-163.5 -42.5q-60 0 -116 13q-127 -168 -284 -168q-72 0 -118 38.5t-46 104.5q0 43 31.5 77t70.5 34q21 0 37 -13q8 -2 16.5 -11.5t8.5 -18.5v-11q-2 -18 -18 -33.5t-33 -15.5q-21 0 -32 14.5
t-11 34.5q0 13 7 23q-19 -4 -32.5 -28t-13.5 -55q0 -46 30.5 -76t84.5 -30q57 0 96 37t88 131q-60 24 -172.5 77.5t-165.5 73.5q-93 -126 -225 -126q-107 0 -107 76q0 43 58 84t178 41h23q39 83 71 184l2 3q-92 15 -130 58t-38 94q0 56 44.5 93t105.5 37q26 0 42.5 -14.5
t16.5 -37.5q0 -25 -17 -40.5t-34 -15.5q-20 0 -32.5 13t-12.5 32q0 27 17 42q-35 0 -70.5 -32.5t-35.5 -76.5q0 -100 152 -133q62 165 152.5 254.5t170.5 89.5q36 0 56.5 -26.5t20.5 -78.5q0 -90 -77 -163.5t-186 -94.5q-63 -143 -99 -201q148 -32 329 -134q20 58 50 113
q33 82 89 158q-79 25 -153 25t-117 -28t-43 -77q0 -31 26 -51t62 -20q45 0 70.5 26.5t17.5 62.5q-2 -10 -19 -23.5t-33 -13.5q-21 0 -33 13t-12 31q0 20 14.5 31t36.5 11q28 0 46.5 -16t18.5 -41q0 -49 -33.5 -75t-73.5 -26q-48 0 -81 27.5t-33 79.5q0 66 68 115.5t172 49.5
q82 0 165 -26q34 32 68.5 56t51.5 32l17 8l5 -12q-28 -19 -65 -98q11 -5 55 -5q67 0 111 24t44 70q0 63 -59.5 102.5t-148.5 39.5q-104 0 -145 -56h6q17 0 30 -11t13 -28q0 -27 -15.5 -41t-37.5 -14q-20 0 -32.5 13.5t-10.5 32.5q0 45 56 84t136 39q107 0 171 -47.5
t64 -121.5q0 -69 -61.5 -122t-164.5 -53q-32 0 -52 5q-2 -5 -34.5 -90.5t-52.5 -127.5q-4 -13 -38 -78q85 -35 139 -35q59 0 100.5 37t41.5 80q0 48 -32.5 71t-71.5 11q20 -10 27 -35q8 -21 -2 -37.5t-34 -20.5q-19 -7 -33.5 3.5t-18.5 32.5v13zM502 513q97 22 166.5 91
t69.5 157q0 38 -12.5 53.5t-27.5 15.5q-77 0 -196 -317zM259 259q-21 3 -59 3q-64 0 -112 -25t-48 -58q0 -53 70 -53q47 0 81.5 31t67.5 102z" />
    <glyph glyph-name="fi" unicode="&#xfb01;" horiz-adv-x="784" 
d="M576 569q-63 0 -97.5 30t-34.5 76q0 47 34.5 77t97.5 30t97.5 -30t34.5 -77q0 -46 -34.5 -76t-97.5 -30zM88 619q0 148 182 148q36 0 108 -9v-143q-12 2 -30 2q-31 0 -40 -14.5t-9 -40.5v-43h53v-146h-53v-227h53v-146h-317v146h53v227h-53v146h53v100zM696 146h53v-146
h-317v146h53v226h-53v147h264v-373z" />
    <glyph glyph-name="fl" unicode="&#xfb02;" horiz-adv-x="784" 
d="M88 619q0 148 182 148q36 0 108 -9v-143q-12 2 -30 2q-31 0 -40 -14.5t-9 -40.5v-43h53v-146h-53v-227h53v-146h-317v146h53v227h-53v146h53v100zM696 146h53v-146h-317v146h53v457h-53v147h264v-604z" />
    <glyph glyph-name="uniFE35" unicode="&#xfe35;" horiz-adv-x="1013" 
d="M945 -180q-20 18 -57 42.5t-94.5 54.5t-133 50.5t-149.5 20.5q-96 0 -197 -36t-156 -71t-82 -61l-108 144q90 108 231 179t312 71t311 -71t231 -179z" />
    <glyph glyph-name="uniFF08" unicode="&#xff08;" horiz-adv-x="586" 
d="M533 740q-18 -20 -42.5 -57t-54.5 -94.5t-50.5 -133t-20.5 -149.5q0 -96 36 -197t71 -156t61 -82l-144 -108q-108 90 -179 231t-71 312t71 311t179 231z" />
    <glyph glyph-name="uniFF09" unicode="&#xff09;" horiz-adv-x="586" 
d="M189 848q108 -91 179 -231t71 -311t-71 -312t-179 -231l-144 108q26 27 61 82t71 156t36 197q0 74 -20.5 149.5t-50.5 133t-54.5 94.5t-42.5 57z" />
    <glyph glyph-name="a.alt" horiz-adv-x="658" 
d="M623 372l-54 1v-227h54v-147h-265v66q-34 -85 -140 -85q-87 0 -139 72.5t-52 207.5t50.5 207t136.5 72q107 0 144 -85v65h265v-147zM314 129q44 0 44 63v138q0 25 -10.5 44t-33.5 19q-43 0 -43 -133q0 -131 43 -131z" />
    <glyph glyph-name="agrave.alt" horiz-adv-x="658" 
d="M402 592h-159l-163 187h182zM623 372l-54 1v-227h54v-147h-265v66q-34 -85 -140 -85q-87 0 -139 72.5t-52 207.5t50.5 207t136.5 72q107 0 144 -85v65h265v-147zM314 129q44 0 44 63v138q0 25 -10.5 44t-33.5 19q-43 0 -43 -133q0 -131 43 -131z" />
    <glyph glyph-name="aacute.alt" horiz-adv-x="658" 
d="M504 779l-163 -187h-159l140 187h182zM623 372l-54 1v-227h54v-147h-265v66q-34 -85 -140 -85q-87 0 -139 72.5t-52 207.5t50.5 207t136.5 72q107 0 144 -85v65h265v-147zM314 129q44 0 44 63v138q0 25 -10.5 44t-33.5 19q-43 0 -43 -133q0 -131 43 -131z" />
    <glyph glyph-name="acircumflex.alt" horiz-adv-x="658" 
d="M324 655l-70 -72h-148l146 187h143l146 -187h-148zM623 372l-54 1v-227h54v-147h-265v66q-34 -85 -140 -85q-87 0 -139 72.5t-52 207.5t50.5 207t136.5 72q107 0 144 -85v65h265v-147zM314 129q44 0 44 63v138q0 25 -10.5 44t-33.5 19q-43 0 -43 -133q0 -131 43 -131z
" />
    <glyph glyph-name="atilde.alt" horiz-adv-x="658" 
d="M217 651q-24 0 -34 -9.5t-10 -32.5h-97q0 85 35.5 131.5t102.5 46.5q46 0 100 -18t73 -18q23 0 33 9.5t10 32.5h98q0 -85 -36 -132t-103 -47q-47 0 -100.5 18.5t-71.5 18.5zM623 372l-54 1v-227h54v-147h-265v66q-34 -85 -140 -85q-87 0 -139 72.5t-52 207.5t50.5 207
t136.5 72q107 0 144 -85v65h265v-147zM314 129q44 0 44 63v138q0 25 -10.5 44t-33.5 19q-43 0 -43 -133q0 -131 43 -131z" />
    <glyph glyph-name="adieresis.alt" horiz-adv-x="658" 
d="M209 620q-42 0 -69 24t-27 60t27.5 61t68.5 25t68.5 -25t27.5 -61t-27 -60t-69 -24zM442 620q-42 0 -69 24t-27 60t27.5 61t68.5 25t69 -25t28 -61t-27.5 -60t-69.5 -24zM623 372l-54 1v-227h54v-147h-265v66q-34 -85 -140 -85q-87 0 -139 72.5t-52 207.5t50.5 207
t136.5 72q107 0 144 -85v65h265v-147zM314 129q44 0 44 63v138q0 25 -10.5 44t-33.5 19q-43 0 -43 -133q0 -131 43 -131z" />
    <glyph glyph-name="aring.alt" horiz-adv-x="658" 
d="M325 555q-78 0 -131.5 52.5t-53.5 128.5q0 78 52.5 129.5t132.5 51.5t132.5 -51.5t52.5 -129.5q0 -76 -53.5 -128.5t-131.5 -52.5zM325 804q-32 0 -51 -18.5t-19 -49.5q0 -29 20 -48.5t50 -19.5q31 0 50.5 19.5t19.5 48.5q0 31 -19 49.5t-51 18.5zM623 372l-54 1v-227h54
v-147h-265v66q-34 -85 -140 -85q-87 0 -139 72.5t-52 207.5t50.5 207t136.5 72q107 0 144 -85v65h265v-147zM314 129q44 0 44 63v138q0 25 -10.5 44t-33.5 19q-43 0 -43 -133q0 -131 43 -131z" />
    <glyph glyph-name="amacron.alt" horiz-adv-x="658" 
d="M545 789v-152h-439v152h439zM623 372l-54 1v-227h54v-147h-265v66q-34 -85 -140 -85q-87 0 -139 72.5t-52 207.5t50.5 207t136.5 72q107 0 144 -85v65h265v-147zM314 129q44 0 44 63v138q0 25 -10.5 44t-33.5 19q-43 0 -43 -133q0 -131 43 -131z" />
    <glyph glyph-name="abreve.alt" horiz-adv-x="658" 
d="M325 592q-90 0 -134.5 53t-44.5 145h88q2 -51 29.5 -71.5t61.5 -20.5q21 0 39.5 6.5t35 28.5t17.5 57h89q0 -92 -45 -145t-136 -53zM623 372l-54 1v-227h54v-147h-265v66q-34 -85 -140 -85q-87 0 -139 72.5t-52 207.5t50.5 207t136.5 72q107 0 144 -85v65h265v-147z
M314 129q44 0 44 63v138q0 25 -10.5 44t-33.5 19q-43 0 -43 -133q0 -131 43 -131z" />
    <glyph glyph-name="aogonek.alt" horiz-adv-x="658" 
d="M623 372l-54 1v-227h54v-147h-24q-31 -4 -49.5 -23t-18.5 -38q0 -12 8 -21t26 -9q32 0 52 16v-93q-22 -17 -116 -17q-72 0 -108.5 28t-36.5 65q0 32 27.5 57t67.5 35h-93v66q-34 -85 -140 -85q-87 0 -139 72.5t-52 207.5t50.5 207t136.5 72q107 0 144 -85v65h265v-147z
M314 129q44 0 44 63v138q0 25 -10.5 44t-33.5 19q-43 0 -43 -133q0 -131 43 -131z" />
    <glyph glyph-name="f_i" horiz-adv-x="784" 
d="M576 569q-63 0 -97.5 30t-34.5 76q0 47 34.5 77t97.5 30t97.5 -30t34.5 -77q0 -46 -34.5 -76t-97.5 -30zM88 619q0 148 182 148q36 0 108 -9v-143q-12 2 -30 2q-31 0 -40 -14.5t-9 -40.5v-43h53v-146h-53v-227h53v-146h-317v146h53v227h-53v146h53v100zM696 146h53v-146
h-317v146h53v226h-53v147h264v-373z" />
    <glyph glyph-name="f_l" horiz-adv-x="784" 
d="M88 619q0 148 182 148q36 0 108 -9v-143q-12 2 -30 2q-31 0 -40 -14.5t-9 -40.5v-43h53v-146h-53v-227h53v-146h-317v146h53v227h-53v146h53v100zM696 146h53v-146h-317v146h53v457h-53v147h264v-604z" />
    <glyph glyph-name="g.alt" horiz-adv-x="659" 
d="M367 519h257v-146h-46v-351q0 -111 -64 -170t-194 -59q-252 0 -252 184v9h215v-24q0 -43 43 -43q41 0 41 59v134q-36 -80 -138 -80q-91 0 -146.5 61.5t-55.5 192.5q0 130 55.5 191.5t146.5 61.5q102 0 138 -80v60zM314 178q21 0 35.5 15.5t17.5 36.5v111
q-3 21 -17.5 36.5t-35.5 15.5q-33 0 -48 -22t-15 -85q0 -64 15 -86t48 -22z" />
    <glyph glyph-name="gcircumflex.alt" horiz-adv-x="659" 
d="M322 655l-70 -72h-148l146 187h143l146 -187h-148zM367 519h257v-146h-46v-351q0 -111 -64 -170t-194 -59q-252 0 -252 184v9h215v-24q0 -43 43 -43q41 0 41 59v134q-36 -80 -138 -80q-91 0 -146.5 61.5t-55.5 192.5q0 130 55.5 191.5t146.5 61.5q102 0 138 -80v60z
M314 178q21 0 35.5 15.5t17.5 36.5v111q-3 21 -17.5 36.5t-35.5 15.5q-33 0 -48 -22t-15 -85q0 -64 15 -86t48 -22z" />
    <glyph glyph-name="gbreve.alt" horiz-adv-x="659" 
d="M323 592q-90 0 -134.5 53t-44.5 145h88q2 -51 29.5 -71.5t61.5 -20.5q21 0 39.5 6.5t35 28.5t17.5 57h89q0 -92 -45 -145t-136 -53zM367 519h257v-146h-46v-351q0 -111 -64 -170t-194 -59q-252 0 -252 184v9h215v-24q0 -43 43 -43q41 0 41 59v134q-36 -80 -138 -80
q-91 0 -146.5 61.5t-55.5 192.5q0 130 55.5 191.5t146.5 61.5q102 0 138 -80v60zM314 178q21 0 35.5 15.5t17.5 36.5v111q-3 21 -17.5 36.5t-35.5 15.5q-33 0 -48 -22t-15 -85q0 -64 15 -86t48 -22z" />
    <glyph glyph-name="gdotaccent.alt" horiz-adv-x="659" 
d="M323 616q-51 0 -85 29.5t-34 73.5t34 74.5t85 30.5t85 -30.5t34 -74.5t-34 -73.5t-85 -29.5zM367 519h257v-146h-46v-351q0 -111 -64 -170t-194 -59q-252 0 -252 184v9h215v-24q0 -43 43 -43q41 0 41 59v134q-36 -80 -138 -80q-91 0 -146.5 61.5t-55.5 192.5
q0 130 55.5 191.5t146.5 61.5q102 0 138 -80v60zM314 178q21 0 35.5 15.5t17.5 36.5v111q-3 21 -17.5 36.5t-35.5 15.5q-33 0 -48 -22t-15 -85q0 -64 15 -86t48 -22z" />
    <glyph glyph-name="gcommaaccent.alt" horiz-adv-x="659" 
d="M321 567q-39 0 -65 23.5t-26 56.5q0 29 22 52t61 28q-15 45 -60 95l32 29q59 -35 93.5 -87t34.5 -98t-25.5 -72.5t-66.5 -26.5zM367 519h257v-146h-46v-351q0 -111 -64 -170t-194 -59q-252 0 -252 184v9h215v-24q0 -43 43 -43q41 0 41 59v134q-36 -80 -138 -80
q-91 0 -146.5 61.5t-55.5 192.5q0 130 55.5 191.5t146.5 61.5q102 0 138 -80v60zM314 178q21 0 35.5 15.5t17.5 36.5v111q-3 21 -17.5 36.5t-35.5 15.5q-33 0 -48 -22t-15 -85q0 -64 15 -86t48 -22z" />
    <glyph glyph-name="r.alt" horiz-adv-x="590" 
d="M432 539q130 0 130 -158v-125h-196v104q0 37 -25 37q-42 0 -42 -62v-189h64v-146h-328v146h53v226h-53v147h264v-79q33 99 133 99z" />
    <glyph glyph-name="racute.alt" horiz-adv-x="590" 
d="M470 779l-163 -187h-159l140 187h182zM432 539q130 0 130 -158v-125h-196v104q0 37 -25 37q-42 0 -42 -62v-189h64v-146h-328v146h53v226h-53v147h264v-79q33 99 133 99z" />
    <glyph glyph-name="rcaron.alt" horiz-adv-x="590" 
d="M338 583h-143l-143 187h148l67 -71l66 71h148zM432 539q130 0 130 -158v-125h-196v104q0 37 -25 37q-42 0 -42 -62v-189h64v-146h-328v146h53v226h-53v147h264v-79q33 99 133 99z" />
    <glyph glyph-name="y.alt" horiz-adv-x="603" 
d="M569 519v-496q0 -111 -64 -170t-194 -59q-252 0 -252 184v9h215v-24q0 -43 43 -43q41 0 41 59v137q-34 -83 -145 -83q-76 0 -114.5 43t-38.5 101v196h-48v146h259v-289q0 -55 35 -55q24 0 38 19t14 43v136h-36v146h247z" />
    <glyph glyph-name="yacute.alt" horiz-adv-x="603" 
d="M475 779l-163 -187h-159l140 187h182zM569 519v-496q0 -111 -64 -170t-194 -59q-252 0 -252 184v9h215v-24q0 -43 43 -43q41 0 41 59v137q-34 -83 -145 -83q-76 0 -114.5 43t-38.5 101v196h-48v146h259v-289q0 -55 35 -55q24 0 38 19t14 43v136h-36v146h247z" />
    <glyph glyph-name="ydieresis.alt" horiz-adv-x="603" 
d="M180 620q-42 0 -69 24t-27 60t27.5 61t68.5 25t68.5 -25t27.5 -61t-27 -60t-69 -24zM413 620q-42 0 -69 24t-27 60t27.5 61t68.5 25t69 -25t28 -61t-27.5 -60t-69.5 -24zM569 519v-496q0 -111 -64 -170t-194 -59q-252 0 -252 184v9h215v-24q0 -43 43 -43q41 0 41 59v137
q-34 -83 -145 -83q-76 0 -114.5 43t-38.5 101v196h-48v146h259v-289q0 -55 35 -55q24 0 38 19t14 43v136h-36v146h247z" />
    <glyph glyph-name="ycircumflex.alt" horiz-adv-x="603" 
d="M295 655l-70 -72h-148l146 187h143l146 -187h-148zM569 519v-496q0 -111 -64 -170t-194 -59q-252 0 -252 184v9h215v-24q0 -43 43 -43q41 0 41 59v137q-34 -83 -145 -83q-76 0 -114.5 43t-38.5 101v196h-48v146h259v-289q0 -55 35 -55q24 0 38 19t14 43v136h-36v146h247z
" />
    <glyph glyph-name="uni0233.alt" horiz-adv-x="603" 
d="M516 789v-152h-439v152h439zM569 519v-496q0 -111 -64 -170t-194 -59q-252 0 -252 184v9h215v-24q0 -43 43 -43q41 0 41 59v137q-34 -83 -145 -83q-76 0 -114.5 43t-38.5 101v196h-48v146h259v-289q0 -55 35 -55q24 0 38 19t14 43v136h-36v146h247z" />
    <glyph glyph-name="ygrave.alt" horiz-adv-x="603" 
d="M373 592h-159l-163 187h182zM569 519v-496q0 -111 -64 -170t-194 -59q-252 0 -252 184v9h215v-24q0 -43 43 -43q41 0 41 59v137q-34 -83 -145 -83q-76 0 -114.5 43t-38.5 101v196h-48v146h259v-289q0 -55 35 -55q24 0 38 19t14 43v136h-36v146h247z" />
    <glyph glyph-name="uni1EF9.alt" horiz-adv-x="603" 
d="M223 651q-24 0 -34 -9.5t-10 -32.5h-97q0 85 35.5 131.5t102.5 46.5q46 0 100 -18t73 -18q23 0 33 9.5t10 32.5h98q0 -85 -36 -132t-103 -47q-47 0 -100.5 18.5t-71.5 18.5zM569 519v-496q0 -111 -64 -170t-194 -59q-252 0 -252 184v9h215v-24q0 -43 43 -43q41 0 41 59
v137q-34 -83 -145 -83q-76 0 -114.5 43t-38.5 101v196h-48v146h259v-289q0 -55 35 -55q24 0 38 19t14 43v136h-36v146h247z" />
    <glyph glyph-name="A.sc" horiz-adv-x="705" 
d="M642 142h39v-142h-318v142h37l-10 39h-130l-9 -39h37v-142h-265v142h43l140 451h291zM283 277h83l-42 171z" />
    <glyph glyph-name="Agrave.sc" horiz-adv-x="704" 
d="M450 647h-180l-163 187h203zM642 142h39v-142h-318v142h37l-10 39h-130l-9 -39h37v-142h-265v142h43l140 451h291zM283 277h83l-42 171z" />
    <glyph glyph-name="Aacute.sc" horiz-adv-x="704" 
d="M551 834l-163 -187h-179l140 187h202zM642 142h39v-142h-318v142h37l-10 39h-130l-9 -39h37v-142h-265v142h43l140 451h291zM283 277h83l-42 171z" />
    <glyph glyph-name="Acircumflex.sc" horiz-adv-x="704" 
d="M356 735l-70 -72h-168l146 187h183l146 -187h-168zM642 142h39v-142h-318v142h37l-10 39h-130l-9 -39h37v-142h-265v142h43l140 451h291zM283 277h83l-42 171z" />
    <glyph glyph-name="Atilde.sc" horiz-adv-x="704" 
d="M250 719q-26 0 -37 -10.5t-11 -35.5h-106q0 93 38.5 144.5t111.5 51.5q51 0 110 -20t80 -20q25 0 36 10.5t11 35.5h107q0 -93 -39 -145t-112 -52q-52 0 -110.5 20.5t-78.5 20.5zM642 142h39v-142h-318v142h37l-10 39h-130l-9 -39h37v-142h-265v142h43l140 451h291z
M283 277h83l-42 171z" />
    <glyph glyph-name="Adieresis.sc" horiz-adv-x="704" 
d="M212 682q-48 0 -80.5 30t-32.5 72t32.5 73t80.5 31q50 0 82 -30.5t32 -73.5t-32 -72.5t-82 -29.5zM492 682q-49 0 -81 29.5t-32 72.5q0 42 32 73t81 31t82 -31t33 -73t-33 -72t-82 -30zM642 142h39v-142h-318v142h37l-10 39h-130l-9 -39h37v-142h-265v142h43l140 451h291
zM283 277h83l-42 171z" />
    <glyph glyph-name="Aring.sc" horiz-adv-x="704" 
d="M352 620q-80 0 -134.5 53.5t-54.5 131.5q0 79 54 131.5t135 52.5t135 -52.5t54 -131.5q0 -78 -54.5 -131.5t-134.5 -53.5zM352 874q-32 0 -51.5 -19t-19.5 -50q0 -30 20 -50t51 -20t51 20t20 50q0 31 -19 50t-52 19zM642 142h39v-142h-318v142h37l-10 39h-130l-9 -39h37
v-142h-265v142h43l140 451h291zM283 277h83l-42 171z" />
    <glyph glyph-name="Amacron.sc" horiz-adv-x="704" 
d="M592 859v-162h-459v162h459zM642 142h39v-142h-318v142h37l-10 39h-130l-9 -39h37v-142h-265v142h43l140 451h291zM283 277h83l-42 171z" />
    <glyph glyph-name="Abreve.sc" horiz-adv-x="704" 
d="M350 637q-95 0 -147 56t-52 147h108q2 -51 29.5 -71.5t61.5 -20.5q21 0 39.5 6.5t35 28.5t17.5 57h109q0 -90 -53 -146.5t-148 -56.5zM642 142h39v-142h-318v142h37l-10 39h-130l-9 -39h37v-142h-265v142h43l140 451h291zM283 277h83l-42 171z" />
    <glyph glyph-name="Aogonek.sc" horiz-adv-x="704" 
d="M674 0q-40 0 -63.5 -20t-23.5 -40q0 -12 9 -21.5t27 -9.5q35 0 55 17v-98q-10 -7 -47.5 -12.5t-74.5 -5.5q-76 0 -114.5 29.5t-38.5 68.5q0 35 31.5 59.5t71.5 32.5h-143v142h37l-10 39h-130l-9 -39h37v-142h-265v142h43l140 451h291l145 -451h39v-142h-7zM283 277h83
l-42 171z" />
    <glyph glyph-name="AE.sc" horiz-adv-x="916" 
d="M653 450h-26v-81h83v-124h-83v-101h26q57 0 76 25.5t19 94.5v15h127v-279h-532v144h60v36h-139l-17 -36h34v-144h-263v144h42l165 306h-67v144h717v-248h-127v-12q0 70 -18.5 93t-76.5 23zM309 277h94v173h-14z" />
    <glyph glyph-name="uni01E2.sc" horiz-adv-x="916" 
d="M695 859v-162h-459v162h459zM653 450h-26v-81h83v-124h-83v-101h26q57 0 76 25.5t19 94.5v15h127v-279h-532v144h60v36h-139l-17 -36h34v-144h-263v144h42l165 306h-67v144h717v-248h-127v-12q0 70 -18.5 93t-76.5 23zM309 277h94v173h-14z" />
    <glyph glyph-name="AEacute.sc" horiz-adv-x="916" 
d="M654 834l-163 -187h-179l140 187h202zM653 450h-26v-81h83v-124h-83v-101h26q57 0 76 25.5t19 94.5v15h127v-279h-532v144h60v36h-139l-17 -36h34v-144h-263v144h42l165 306h-67v144h717v-248h-127v-12q0 70 -18.5 93t-76.5 23zM309 277h94v173h-14z" />
    <glyph glyph-name="B.sc" horiz-adv-x="715" 
d="M473 307q104 -1 157.5 -33.5t53.5 -103.5q0 -170 -263 -170h-365v142h55v310h-55v142h334q134 0 200 -31t66 -115q0 -138 -183 -141zM335 452v-94h47q44 0 44 45q0 49 -46 49h-45zM390 142q39 0 39 51q0 27 -11.5 38.5t-26.5 11.5h-56v-101h55z" />
    <glyph glyph-name="C.sc" 
d="M647 263q5 -136 -70.5 -207.5t-220.5 -71.5q-147 0 -231 87t-84 227q0 135 77 223.5t188 88.5q129 0 174 -80l11 64h147v-254h-213q1 53 -18.5 83.5t-42.5 30.5q-64 0 -64 -155q0 -83 20.5 -121t48.5 -38q54 0 61 123h217z" />
    <glyph glyph-name="Ccedilla.sc" 
d="M647 263q5 -130 -64 -201.5t-203 -76.5l-51 -55q23 5 41 5q34 0 66.5 -9.5t60.5 -38.5t28 -74q0 -67 -58.5 -99t-147.5 -32q-25 0 -52.5 7t-35.5 13v71q28 -8 55 -8q47 0 69 10t22 41q0 22 -16 35.5t-43 13.5q-23 0 -41 -7t-25 -14l-7 -7l-41 47l98 103
q-123 16 -192 100.5t-69 210.5q0 135 77 223.5t188 88.5q129 0 174 -80l11 64h147v-254h-213q1 53 -18.5 83.5t-42.5 30.5q-64 0 -64 -155q0 -83 20.5 -121t48.5 -38q54 0 61 123h217z" />
    <glyph glyph-name="Cacute.sc" 
d="M534 834l-163 -187h-179l140 187h202zM647 263q5 -136 -70.5 -207.5t-220.5 -71.5q-147 0 -231 87t-84 227q0 135 77 223.5t188 88.5q129 0 174 -80l11 64h147v-254h-213q1 53 -18.5 83.5t-42.5 30.5q-64 0 -64 -155q0 -83 20.5 -121t48.5 -38q54 0 61 123h217z" />
    <glyph glyph-name="Cdotaccent.sc" 
d="M341 681q-54 0 -89.5 31t-35.5 77t35.5 78t89.5 32t89.5 -32t35.5 -78t-35.5 -77t-89.5 -31zM647 263q5 -136 -70.5 -207.5t-220.5 -71.5q-147 0 -231 87t-84 227q0 135 77 223.5t188 88.5q129 0 174 -80l11 64h147v-254h-213q1 53 -18.5 83.5t-42.5 30.5q-64 0 -64 -155
q0 -83 20.5 -121t48.5 -38q54 0 61 123h217z" />
    <glyph glyph-name="Ccaron.sc" 
d="M447 648h-183l-143 187h168l67 -71l66 71h168zM647 263q5 -136 -70.5 -207.5t-220.5 -71.5q-147 0 -231 87t-84 227q0 135 77 223.5t188 88.5q129 0 174 -80l11 64h147v-254h-213q1 53 -18.5 83.5t-42.5 30.5q-64 0 -64 -155q0 -83 20.5 -121t48.5 -38q54 0 61 123h217z
" />
    <glyph glyph-name="D.sc" horiz-adv-x="720" 
d="M390 594q144 0 216.5 -79.5t72.5 -215.5q0 -139 -72.5 -219t-216.5 -80h-334v142h55v310h-55v142h334zM335 452v-310h21q33 0 51 34t18 123q0 88 -18 120.5t-51 32.5h-21z" />
    <glyph glyph-name="Dcaron.sc" horiz-adv-x="720" 
d="M460 648h-183l-143 187h168l67 -71l66 71h168zM390 594q144 0 216.5 -79.5t72.5 -215.5q0 -139 -72.5 -219t-216.5 -80h-334v142h55v310h-55v142h334zM356 142q33 0 51 34t18 123q0 88 -18 120.5t-51 32.5h-21v-310h21z" />
    <glyph glyph-name="Dcroat.sc" horiz-adv-x="709" 
d="M382 594q142 0 214 -79.5t72 -215.5q0 -139 -71.5 -219t-214.5 -80h-333v144h55v84h-59v135h59v87h-55v144h333zM348 144q31 0 48.5 33.5t17.5 121.5q0 87 -17 119t-49 32h-20v-87h43v-135h-43v-84h20z" />
    <glyph glyph-name="Eth.sc" horiz-adv-x="709" 
d="M382 594q142 0 214 -79.5t72 -215.5q0 -139 -71.5 -219t-214.5 -80h-333v144h55v84h-59v135h59v87h-55v144h333zM348 144q31 0 48.5 33.5t17.5 121.5q0 87 -17 119t-49 32h-20v-87h43v-135h-43v-84h20z" />
    <glyph glyph-name="E.sc" horiz-adv-x="641" 
d="M592 347h-128v4q0 59 -18.5 80t-75.5 21h-29v-84h81v-122h-81v-104h29q57 0 75.5 25.5t18.5 94.5v15h128v-277h-535v142h60v310h-60v142h535v-247z" />
    <glyph glyph-name="Egrave.sc" horiz-adv-x="641" 
d="M417 647h-180l-163 187h203zM591 347h-128v4q0 59 -18.5 80t-75.5 21h-29v-84h81v-122h-81v-104h29q57 0 75.5 25.5t18.5 94.5v15h128v-277h-535v142h60v310h-60v142h535v-247z" />
    <glyph glyph-name="Eacute.sc" horiz-adv-x="641" 
d="M518 834l-163 -187h-179l140 187h202zM591 347h-128v4q0 59 -18.5 80t-75.5 21h-29v-84h81v-122h-81v-104h29q57 0 75.5 25.5t18.5 94.5v15h128v-277h-535v142h60v310h-60v142h535v-247z" />
    <glyph glyph-name="Ecircumflex.sc" horiz-adv-x="641" 
d="M338 735l-70 -72h-168l146 187h183l146 -187h-168zM591 347h-128v4q0 59 -18.5 80t-75.5 21h-29v-84h81v-122h-81v-104h29q57 0 75.5 25.5t18.5 94.5v15h128v-277h-535v142h60v310h-60v142h535v-247z" />
    <glyph glyph-name="Edieresis.sc" horiz-adv-x="641" 
d="M179 682q-48 0 -80.5 30t-32.5 72t32.5 73t80.5 31q50 0 82 -30.5t32 -73.5t-32 -72.5t-82 -29.5zM459 682q-49 0 -81 29.5t-32 72.5q0 42 32 73t81 31t82 -31t33 -73t-33 -72t-82 -30zM591 347h-128v4q0 59 -18.5 80t-75.5 21h-29v-84h81v-122h-81v-104h29
q57 0 75.5 25.5t18.5 94.5v15h128v-277h-535v142h60v310h-60v142h535v-247z" />
    <glyph glyph-name="Emacron.sc" horiz-adv-x="641" 
d="M553 859v-162h-459v162h459zM591 347h-128v4q0 59 -18.5 80t-75.5 21h-29v-84h81v-122h-81v-104h29q57 0 75.5 25.5t18.5 94.5v15h128v-277h-535v142h60v310h-60v142h535v-247z" />
    <glyph glyph-name="Ebreve.sc" horiz-adv-x="641" 
d="M339 637q-95 0 -147 56t-52 147h108q2 -51 29.5 -71.5t61.5 -20.5q21 0 39.5 6.5t35 28.5t17.5 57h109q0 -90 -53 -146.5t-148 -56.5zM591 347h-128v4q0 59 -18.5 80t-75.5 21h-29v-84h81v-122h-81v-104h29q57 0 75.5 25.5t18.5 94.5v15h128v-277h-535v142h60v310h-60
v142h535v-247z" />
    <glyph glyph-name="Edotaccent.sc" horiz-adv-x="641" 
d="M325 681q-54 0 -89.5 31t-35.5 77t35.5 78t89.5 32t89.5 -32t35.5 -78t-35.5 -77t-89.5 -31zM591 347h-128v4q0 59 -18.5 80t-75.5 21h-29v-84h81v-122h-81v-104h29q57 0 75.5 25.5t18.5 94.5v15h128v-277h-535v142h60v310h-60v142h535v-247z" />
    <glyph glyph-name="Eogonek.sc" horiz-adv-x="641" 
d="M591 347h-128v4q0 59 -18.5 80t-75.5 21h-29v-84h81v-122h-81v-104h29q57 0 75.5 25.5t18.5 94.5v15h128v-277h-7q-40 0 -63.5 -20t-23.5 -40q0 -12 9 -21.5t27 -9.5q35 0 55 17v-98q-10 -7 -47.5 -12.5t-74.5 -5.5q-76 0 -114.5 29.5t-38.5 68.5q0 35 31.5 59.5
t71.5 32.5h-360v142h60v310h-60v142h535v-247z" />
    <glyph glyph-name="Ecaron.sc" horiz-adv-x="641" 
d="M431 648h-183l-143 187h168l67 -71l66 71h168zM591 347h-128v4q0 59 -18.5 80t-75.5 21h-29v-84h81v-122h-81v-104h29q57 0 75.5 25.5t18.5 94.5v15h128v-277h-535v142h60v310h-60v142h535v-247z" />
    <glyph glyph-name="uni1EBC.sc" horiz-adv-x="641" 
d="M234 719q-26 0 -37 -10.5t-11 -35.5h-106q0 93 38.5 144.5t111.5 51.5q51 0 110 -20t80 -20q25 0 36 10.5t11 35.5h107q0 -93 -39 -145t-112 -52q-52 0 -110.5 20.5t-78.5 20.5zM591 347h-128v4q0 59 -18.5 80t-75.5 21h-29v-84h81v-122h-81v-104h29q57 0 75.5 25.5
t18.5 94.5v15h128v-277h-535v142h60v310h-60v142h535v-247z" />
    <glyph glyph-name="uni018F.sc" horiz-adv-x="681" 
d="M331 610q140 0 224.5 -86t84.5 -226t-84.5 -227t-224.5 -87q-139 0 -211.5 77t-72.5 218v43h338q-2 75 -14.5 101.5t-35.5 26.5q-16 0 -28.5 -18t-15.5 -53h-251q19 111 95.5 171t195.5 60zM337 142q36 0 45 81h-85q7 -81 40 -81z" />
    <glyph glyph-name="F.sc" horiz-adv-x="617" 
d="M56 594h516v-240h-128v4q0 50 -19 72t-75 22h-10v-108h83v-123h-83v-79h97v-142h-381v142h60v310h-60v142z" />
    <glyph glyph-name="G.sc" horiz-adv-x="721" 
d="M370 319h321v-115h-41v-204h-138l-22 86q-47 -102 -170 -102q-133 0 -206 83.5t-73 231.5q0 145 76 228t199 83q124 0 172 -86l11 70h147v-235h-224q2 45 -15 70t-42 25q-29 0 -49.5 -38t-20.5 -117q0 -80 22.5 -119.5t58.5 -39.5q27 0 43 18t20 46h-69v115z" />
    <glyph glyph-name="Gcircumflex.sc" horiz-adv-x="721" 
d="M380 735l-70 -72h-168l146 187h183l146 -187h-168zM370 319h321v-115h-41v-204h-138l-22 86q-47 -102 -170 -102q-133 0 -206 83.5t-73 231.5q0 145 76 228t199 83q124 0 172 -86l11 70h147v-235h-224q2 45 -15 70t-42 25q-29 0 -49.5 -38t-20.5 -117q0 -80 22.5 -119.5
t58.5 -39.5q27 0 43 18t20 46h-69v115z" />
    <glyph glyph-name="Gbreve.sc" horiz-adv-x="721" 
d="M371 637q-95 0 -147 56t-52 147h108q2 -51 29.5 -71.5t61.5 -20.5q21 0 39.5 6.5t35 28.5t17.5 57h109q0 -90 -53 -146.5t-148 -56.5zM370 319h321v-115h-41v-204h-138l-22 86q-47 -102 -170 -102q-133 0 -206 83.5t-73 231.5q0 145 76 228t199 83q124 0 172 -86l11 70
h147v-235h-224q2 45 -15 70t-42 25q-29 0 -49.5 -38t-20.5 -117q0 -80 22.5 -119.5t58.5 -39.5q27 0 43 18t20 46h-69v115z" />
    <glyph glyph-name="Gdotaccent.sc" horiz-adv-x="721" 
d="M367 681q-54 0 -89.5 31t-35.5 77t35.5 78t89.5 32t89.5 -32t35.5 -78t-35.5 -77t-89.5 -31zM370 319h321v-115h-41v-204h-138l-22 86q-47 -102 -170 -102q-133 0 -206 83.5t-73 231.5q0 145 76 228t199 83q124 0 172 -86l11 70h147v-235h-224q2 45 -15 70t-42 25
q-29 0 -49.5 -38t-20.5 -117q0 -80 22.5 -119.5t58.5 -39.5q27 0 43 18t20 46h-69v115z" />
    <glyph glyph-name="Gcommaaccent.sc" horiz-adv-x="721" 
d="M370 319h321v-115h-41v-204h-138l-22 86q-47 -102 -170 -102q-133 0 -206 83.5t-73 231.5q0 145 76 228t199 83q124 0 172 -86l11 70h147v-235h-224q2 45 -15 70t-42 25q-29 0 -49.5 -38t-20.5 -117q0 -80 22.5 -119.5t58.5 -39.5q27 0 43 18t20 46h-69v115zM379 -50
q44 0 70.5 -27.5t26.5 -76.5t-36.5 -103.5t-98.5 -90.5l-33 30q1 1 8.5 10t11 13t10.5 14t11.5 18t10.5 20t10 25q-41 5 -64 29t-23 55q0 35 27.5 59.5t68.5 24.5z" />
    <glyph glyph-name="H.sc" horiz-adv-x="789" 
d="M733 452h-55v-310h55v-142h-312v142h33v106h-119v-106h33v-142h-312v142h55v310h-55v142h312v-142h-33v-88h119v88h-33v142h312v-142z" />
    <glyph glyph-name="Hcircumflex.sc" horiz-adv-x="789" 
d="M397 735l-70 -72h-168l146 187h183l146 -187h-168zM733 452h-55v-310h55v-142h-312v142h33v106h-119v-106h33v-142h-312v142h55v310h-55v142h312v-142h-33v-88h119v88h-33v142h312v-142z" />
    <glyph glyph-name="Hbar.sc" horiz-adv-x="767" 
d="M720 450h-55v-19h33v-86h-33v-201h55v-144h-311v144h32v65h-115v-65h32v-144h-311v144h55v201h-33v86h33v19h-55v144h311v-144h-32v-19h115v19h-32v144h311v-144zM441 326v19h-115v-19h115z" />
    <glyph glyph-name="I.sc" horiz-adv-x="456" 
d="M56 0v142h60v310h-60v142h344v-142h-60v-310h60v-142h-344z" />
    <glyph glyph-name="Igrave.sc" horiz-adv-x="456" 
d="M146 647l-163 187h203l140 -187h-180zM56 0v142h60v310h-60v142h344v-142h-60v-310h60v-142h-344z" />
    <glyph glyph-name="Iacute.sc" horiz-adv-x="456" 
d="M85 647l140 187h202l-163 -187h-179zM56 0v142h60v310h-60v142h344v-142h-60v-310h60v-142h-344z" />
    <glyph glyph-name="Icircumflex.sc" horiz-adv-x="456" 
d="M233 735l-70 -72h-168l146 187h183l146 -187h-168zM56 452v142h344v-142h-60v-310h60v-142h-344v142h60v310h-60z" />
    <glyph glyph-name="Idieresis.sc" horiz-adv-x="456" 
d="M88 682q-48 0 -80.5 30t-32.5 72t32.5 73t80.5 31q50 0 82 -30.5t32 -73.5t-32 -72.5t-82 -29.5zM368 682q-49 0 -81 29.5t-32 72.5q0 42 32 73t81 31t82 -31t33 -73t-33 -72t-82 -30zM56 0v142h60v310h-60v142h344v-142h-60v-310h60v-142h-344z" />
    <glyph glyph-name="Itilde.sc" horiz-adv-x="456" 
d="M127 869q51 0 110 -20t80 -20q25 0 36 10.5t11 35.5h107q0 -93 -39 -145t-112 -52q-52 0 -110.5 20.5t-78.5 20.5q-26 0 -37 -10.5t-11 -35.5h-106q0 93 38.5 144.5t111.5 51.5zM56 0v142h60v310h-60v142h344v-142h-60v-310h60v-142h-344z" />
    <glyph glyph-name="Imacron.sc" horiz-adv-x="456" 
d="M9 859h459v-162h-459v162zM56 0v142h60v310h-60v142h344v-142h-60v-310h60v-142h-344z" />
    <glyph glyph-name="Ibreve.sc" horiz-adv-x="456" 
d="M227 748q21 0 39.5 6.5t35 28.5t17.5 57h109q0 -90 -53 -146.5t-148 -56.5t-147 56t-52 147h108q2 -51 29.5 -71.5t61.5 -20.5zM56 0v142h60v310h-60v142h344v-142h-60v-310h60v-142h-344z" />
    <glyph glyph-name="Iogonek.sc" horiz-adv-x="456" 
d="M400 452h-60v-310h60v-142h-6q-40 0 -63.5 -20t-23.5 -40q0 -12 9 -21.5t27 -9.5q35 0 55 17v-98q-10 -7 -47.5 -12.5t-74.5 -5.5q-76 0 -114.5 29.5t-38.5 68.5q0 35 31.5 59.5t71.5 32.5h-170v142h60v310h-60v142h344v-142z" />
    <glyph glyph-name="Idotaccent.sc" horiz-adv-x="456" 
d="M232 681q-54 0 -89.5 31t-35.5 77t35.5 78t89.5 32t89.5 -32t35.5 -78t-35.5 -77t-89.5 -31zM56 0v142h60v310h-60v142h344v-142h-60v-310h60v-142h-344z" />
    <glyph glyph-name="IJ.sc" horiz-adv-x="803" 
d="M47 0v144h60v306h-60v144h344v-144h-60v-306h60v-144h-344zM721 215q0 -109 -39 -170t-137 -61q-45 0 -75.5 5.5t-36.5 11.5v148q3 -3 30 -3q34 0 34 40v264h-74v144h358v-144h-60v-235z" />
    <glyph glyph-name="uniE133.sc" horiz-adv-x="798" 
d="M98 701l167 205h187l-187 -205h-167zM487 701l166 205h188l-188 -205h-166zM45 0v144h60v306h-60v144h344v-144h-60v-306h60v-144h-344zM719 215q0 -109 -39 -170t-137 -61q-45 0 -75.5 5.5t-36.5 11.5v148q3 -3 30 -3q34 0 34 40v264h-74v144h358v-144h-60v-235z" />
    <glyph glyph-name="J.sc" horiz-adv-x="591" 
d="M507 215q0 -110 -57 -170.5t-202 -60.5q-61 0 -104.5 11t-69.5 30t-40.5 50t-19.5 64t-5 80v58h213v-91q0 -15 1 -22.5t7 -13.5t17 -6q17 0 26.5 11.5t9.5 30.5v266h-74v142h359v-142h-61v-237z" />
    <glyph glyph-name="Jcircumflex.sc" horiz-adv-x="591" 
d="M397 735l-70 -72h-168l146 187h183l146 -187h-168zM209 452v142h359v-142h-61v-237q0 -110 -57 -170.5t-202 -60.5q-61 0 -104.5 11t-69.5 30t-40.5 50t-19.5 64t-5 80v58h213v-91q0 -15 1 -22.5t7 -13.5t17 -6q17 0 26.5 11.5t9.5 30.5v266h-74z" />
    <glyph glyph-name="K.sc" horiz-adv-x="774" 
d="M699 142h43v-142h-339v142h38l-63 88l-38 -31v-57h26v-142h-310v142h60v310h-60v142h315v-142h-31v-100l124 100h-58v142h318v-142h-73l-110 -90z" />
    <glyph glyph-name="Kcommaaccent.sc" horiz-adv-x="774" 
d="M699 142h43v-142h-339v142h38l-63 88l-38 -31v-57h26v-142h-310v142h60v310h-60v142h315v-142h-31v-100l124 100h-58v142h318v-142h-73l-110 -90zM383 -50q44 0 70.5 -27.5t26.5 -76.5t-36.5 -103.5t-98.5 -90.5l-33 30q1 1 8.5 10t11 13t10.5 14t11.5 18t10.5 20t10 25
q-41 5 -64 29t-23 55q0 35 27.5 59.5t68.5 24.5z" />
    <glyph glyph-name="L.sc" horiz-adv-x="597" 
d="M434 291h127v-291h-505v142h60v310h-60v142h358v-142h-74v-310q54 1 74 24.5t20 81.5v43z" />
    <glyph glyph-name="Lacute.sc" horiz-adv-x="597" 
d="M495 834l-163 -187h-179l140 187h202zM434 291h127v-291h-505v142h60v310h-60v142h358v-142h-74v-310q54 1 74 24.5t20 81.5v43z" />
    <glyph glyph-name="Lcaron.sc" horiz-adv-x="597" 
d="M315 648h-183l-143 187h168l67 -71l66 71h168zM434 291h127v-291h-505v142h60v310h-60v142h358v-142h-74v-310q54 1 74 24.5t20 81.5v43z" />
    <glyph glyph-name="Ldot.sc" horiz-adv-x="597" 
d="M340 452v-310h8q50 0 68 23.5t18 82.5v17h127v-265h-505v142h60v310h-60v142h358v-142h-74zM486 298q-34 0 -57 20.5t-23 49.5t23 49.5t57 20.5t57.5 -20.5t23.5 -49.5t-23.5 -49.5t-57.5 -20.5z" />
    <glyph glyph-name="Lslash.sc" horiz-adv-x="570" 
d="M422 293h127v-293h-502v144h60v58l-59 -17v132l59 17v116h-60v144h357v-144h-73v-50l101 30v-132l-101 -30v-124q52 1 71.5 24.5t19.5 80.5v44z" />
    <glyph glyph-name="Lcommaaccent.sc" horiz-adv-x="597" 
d="M434 291h127v-291h-505v142h60v310h-60v142h358v-142h-74v-310q54 1 74 24.5t20 81.5v43zM306 -50q44 0 70.5 -27.5t26.5 -76.5t-36.5 -103.5t-98.5 -90.5l-33 30q1 1 8.5 10t11 13t10.5 14t11.5 18t10.5 20t10 25q-41 5 -64 29t-23 55q0 35 27.5 59.5t68.5 24.5z" />
    <glyph glyph-name="M.sc" horiz-adv-x="988" 
d="M932 452h-60v-310h60v-142h-315v142h31v220l-148 -370h-74l-136 338v-188h31v-142h-265v142h60v310h-60v142h336l111 -299l117 299h312v-142z" />
    <glyph glyph-name="N.sc" horiz-adv-x="755" 
d="M442 594h263v-142h-50v-452h-168l-212 263v-121h51v-142h-270v142h60v310h-60v142h222l209 -268v126h-45v142z" />
    <glyph glyph-name="Ntilde.sc" horiz-adv-x="755" 
d="M284 719q-26 0 -37 -10.5t-11 -35.5h-106q0 93 38.5 144.5t111.5 51.5q51 0 110 -20t80 -20q25 0 36 10.5t11 35.5h107q0 -93 -39 -145t-112 -52q-52 0 -110.5 20.5t-78.5 20.5zM442 594h263v-142h-50v-452h-168l-212 263v-121h51v-142h-270v142h60v310h-60v142h222
l209 -268v126h-45v142z" />
    <glyph glyph-name="Nacute.sc" horiz-adv-x="755" 
d="M585 834l-163 -187h-179l140 187h202zM442 594h263v-142h-50v-452h-168l-212 263v-121h51v-142h-270v142h60v310h-60v142h222l209 -268v126h-45v142z" />
    <glyph glyph-name="Ncaron.sc" horiz-adv-x="755" 
d="M473 648h-183l-143 187h168l67 -71l66 71h168zM442 594h263v-142h-50v-452h-168l-212 263v-121h51v-142h-270v142h60v310h-60v142h222l209 -268v126h-45v142z" />
    <glyph glyph-name="Eng.sc" horiz-adv-x="689" 
d="M400 594h262v-144h-50v-499q0 -76 -18 -100t-90 -24q-61 0 -112 7v143q5 0 14 -0.5t10 -0.5q18 0 23 6t5 18l-209 262v-118h51v-144h-268v144h59v306h-59v144h221l205 -264v120h-44v144z" />
    <glyph glyph-name="Ncommaaccent.sc" horiz-adv-x="755" 
d="M442 594h263v-142h-50v-452h-168l-212 263v-121h51v-142h-270v142h60v310h-60v142h222l209 -268v126h-45v142zM370 -50q44 0 70.5 -27.5t26.5 -76.5t-36.5 -103.5t-98.5 -90.5l-33 30q1 1 8.5 10t11 13t10.5 14t11.5 18t10.5 20t10 25q-41 5 -64 29t-23 55
q0 35 27.5 59.5t68.5 24.5z" />
    <glyph glyph-name="uni1E44.sc" horiz-adv-x="755" 
d="M381 639q-51 0 -85 29.5t-34 73.5t34 74.5t85 30.5t85 -30.5t34 -74.5t-34 -73.5t-85 -29.5zM442 594h263v-142h-50v-452h-168l-212 263v-121h51v-142h-270v142h60v310h-60v142h222l209 -268v126h-45v142z" />
    <glyph glyph-name="O.sc" horiz-adv-x="711" 
d="M356 610q145 0 229.5 -88t84.5 -223q0 -138 -84.5 -226.5t-229.5 -88.5q-147 0 -231 88.5t-84 226.5q0 136 84 223.5t231 87.5zM356 140q16 0 28.5 13t22 50.5t9.5 95.5t-9.5 94.5t-22 48.5t-28.5 12q-61 0 -61 -155q0 -159 61 -159z" />
    <glyph glyph-name="Ograve.sc" horiz-adv-x="711" 
d="M273 647l-163 187h203l140 -187h-180zM356 610q145 0 229.5 -88t84.5 -223q0 -138 -84.5 -226.5t-229.5 -88.5q-147 0 -231 88.5t-84 226.5q0 136 84 223.5t231 87.5zM356 140q16 0 28.5 13t22 50.5t9.5 95.5t-9.5 94.5t-22 48.5t-28.5 12q-61 0 -61 -155q0 -159 61 -159
z" />
    <glyph glyph-name="Oacute.sc" horiz-adv-x="711" 
d="M212 647l140 187h202l-163 -187h-179zM356 610q145 0 229.5 -88t84.5 -223q0 -138 -84.5 -226.5t-229.5 -88.5q-147 0 -231 88.5t-84 226.5q0 136 84 223.5t231 87.5zM356 140q16 0 28.5 13t22 50.5t9.5 95.5t-9.5 94.5t-22 48.5t-28.5 12q-61 0 -61 -155q0 -159 61 -159
z" />
    <glyph glyph-name="Ocircumflex.sc" horiz-adv-x="711" 
d="M374 735l-70 -72h-168l146 187h183l146 -187h-168zM356 610q145 0 229.5 -88t84.5 -223q0 -138 -84.5 -226.5t-229.5 -88.5q-147 0 -231 88.5t-84 226.5q0 136 84 223.5t231 87.5zM356 140q16 0 28.5 13t22 50.5t9.5 95.5t-9.5 94.5t-22 48.5t-28.5 12q-61 0 -61 -155
q0 -159 61 -159z" />
    <glyph glyph-name="Otilde.sc" horiz-adv-x="711" 
d="M260 869q51 0 110 -20t80 -20q25 0 36 10.5t11 35.5h107q0 -93 -39 -145t-112 -52q-52 0 -110.5 20.5t-78.5 20.5q-26 0 -37 -10.5t-11 -35.5h-106q0 93 38.5 144.5t111.5 51.5zM356 610q145 0 229.5 -88t84.5 -223q0 -138 -84.5 -226.5t-229.5 -88.5q-147 0 -231 88.5
t-84 226.5q0 136 84 223.5t231 87.5zM356 140q16 0 28.5 13t22 50.5t9.5 95.5t-9.5 94.5t-22 48.5t-28.5 12q-61 0 -61 -155q0 -159 61 -159z" />
    <glyph glyph-name="Odieresis.sc" horiz-adv-x="711" 
d="M215 682q-48 0 -80.5 30t-32.5 72t32.5 73t80.5 31q50 0 82 -30.5t32 -73.5t-32 -72.5t-82 -29.5zM495 682q-49 0 -81 29.5t-32 72.5q0 42 32 73t81 31t82 -31t33 -73t-33 -72t-82 -30zM356 610q145 0 229.5 -88t84.5 -223q0 -138 -84.5 -226.5t-229.5 -88.5
q-147 0 -231 88.5t-84 226.5q0 136 84 223.5t231 87.5zM356 140q16 0 28.5 13t22 50.5t9.5 95.5t-9.5 94.5t-22 48.5t-28.5 12q-61 0 -61 -155q0 -159 61 -159z" />
    <glyph glyph-name="Omacron.sc" horiz-adv-x="711" 
d="M136 859h459v-162h-459v162zM356 610q145 0 229.5 -88t84.5 -223q0 -138 -84.5 -226.5t-229.5 -88.5q-147 0 -231 88.5t-84 226.5q0 136 84 223.5t231 87.5zM356 140q16 0 28.5 13t22 50.5t9.5 95.5t-9.5 94.5t-22 48.5t-28.5 12q-61 0 -61 -155q0 -159 61 -159z" />
    <glyph glyph-name="Obreve.sc" horiz-adv-x="711" 
d="M356 748q21 0 39.5 6.5t35 28.5t17.5 57h109q0 -90 -53 -146.5t-148 -56.5t-147 56t-52 147h108q2 -51 29.5 -71.5t61.5 -20.5zM356 610q145 0 229.5 -88t84.5 -223q0 -138 -84.5 -226.5t-229.5 -88.5q-147 0 -231 88.5t-84 226.5q0 136 84 223.5t231 87.5zM356 140
q16 0 28.5 13t22 50.5t9.5 95.5t-9.5 94.5t-22 48.5t-28.5 12q-61 0 -61 -155q0 -159 61 -159z" />
    <glyph glyph-name="Ohungarumlaut.sc" horiz-adv-x="711" 
d="M127 657l140 187h202l-163 -187h-179zM379 657l163 187h202l-186 -187h-179zM356 610q145 0 229.5 -88t84.5 -223q0 -138 -84.5 -226.5t-229.5 -88.5q-147 0 -231 88.5t-84 226.5q0 136 84 223.5t231 87.5zM356 140q16 0 28.5 13t22 50.5t9.5 95.5t-9.5 94.5t-22 48.5
t-28.5 12q-61 0 -61 -155q0 -159 61 -159z" />
    <glyph glyph-name="Oslash.sc" horiz-adv-x="727" 
d="M717 628l-107 -127q66 -83 66 -202q0 -138 -84 -226.5t-228 -88.5q-90 0 -159 36l-45 -54h-150l107 127q-66 83 -66 206q0 136 83.5 223.5t229.5 87.5q88 0 158 -36l45 54h150zM364 452q-54 0 -58 -134l93 110q-15 24 -35 24zM364 142q22 0 38.5 31.5t19.5 103.5
l-94 -111q16 -24 36 -24z" />
    <glyph glyph-name="Oslashacute.sc" horiz-adv-x="727" 
d="M562 834l-163 -187h-179l140 187h202zM717 628l-107 -127q66 -83 66 -202q0 -138 -84 -226.5t-228 -88.5q-90 0 -159 36l-45 -54h-150l107 127q-66 83 -66 206q0 136 83.5 223.5t229.5 87.5q88 0 158 -36l45 54h150zM364 452q-54 0 -58 -134l93 110q-15 24 -35 24z
M364 142q22 0 38.5 31.5t19.5 103.5l-94 -111q16 -24 36 -24z" />
    <glyph glyph-name="OE.sc" horiz-adv-x="911" 
d="M647 450h-25v-81h82v-124h-82v-101h25q57 0 76 25.5t19 94.5v15h127v-279h-515q-147 0 -230 82t-83 217q0 132 83 213.5t230 81.5h515v-248h-127v-12q0 70 -18.5 93t-76.5 23zM398 144v306h-45q-57 0 -57 -151q0 -155 57 -155h45z" />
    <glyph glyph-name="P.sc" horiz-adv-x="699" 
d="M429 0h-373v142h60v310h-60v142h368q124 0 190.5 -42.5t66.5 -140.5q0 -103 -72.5 -152.5t-196.5 -49.5h-72v-67h89v-142zM340 331h39q48 0 48 60q0 61 -48 61h-39v-121z" />
    <glyph glyph-name="Q.sc" horiz-adv-x="703" 
d="M642 15h1h2q15 -1 14 -2v-150q-31 -7 -86 -7q-77 0 -124.5 28t-61.5 102q-24 -2 -37 -2q-146 0 -227.5 88t-81.5 227q0 136 81.5 223.5t227.5 87.5q145 0 228.5 -87.5t83.5 -223.5q0 -164 -111 -252q8 -21 26.5 -26.5t64.5 -5.5zM350 140q58 0 58 159q0 155 -58 155
q-55 0 -55 -155q0 -159 55 -159z" />
    <glyph glyph-name="R.sc" horiz-adv-x="748" 
d="M700 142h13v-142h-191q-95 0 -95 104v99q0 8 -0.5 12t-4.5 7t-13 3h-69v-83h36v-142h-320v142h60v310h-60v142h385q134 0 189.5 -38.5t55.5 -112.5q0 -65 -37.5 -104t-107.5 -44q67 -3 93.5 -28.5t26.5 -52.5v-42q0 -30 39 -30zM392 348q44 0 44 54q0 25 -12.5 37.5
t-31.5 12.5h-52v-104h52z" />
    <glyph glyph-name="Racute.sc" horiz-adv-x="748" 
d="M573 834l-163 -187h-179l140 187h202zM700 142h13v-142h-191q-95 0 -95 104v99q0 8 -0.5 12t-4.5 7t-13 3h-69v-83h36v-142h-320v142h60v310h-60v142h385q134 0 189.5 -38.5t55.5 -112.5q0 -65 -37.5 -104t-107.5 -44q67 -3 93.5 -28.5t26.5 -52.5v-42q0 -30 39 -30z
M392 348q44 0 44 54q0 25 -12.5 37.5t-31.5 12.5h-52v-104h52z" />
    <glyph glyph-name="Rcaron.sc" horiz-adv-x="748" 
d="M471 648h-183l-143 187h168l67 -71l66 71h168zM700 142h13v-142h-191q-95 0 -95 104v99q0 8 -0.5 12t-4.5 7t-13 3h-69v-83h36v-142h-320v142h60v310h-60v142h385q134 0 189.5 -38.5t55.5 -112.5q0 -65 -37.5 -104t-107.5 -44q67 -3 93.5 -28.5t26.5 -52.5v-42
q0 -30 39 -30zM392 348q44 0 44 54q0 25 -12.5 37.5t-31.5 12.5h-52v-104h52z" />
    <glyph glyph-name="Rcommaaccent.sc" horiz-adv-x="748" 
d="M700 142h13v-142h-191q-95 0 -95 104v99q0 8 -0.5 12t-4.5 7t-13 3h-69v-83h36v-142h-320v142h60v310h-60v142h385q134 0 189.5 -38.5t55.5 -112.5q0 -65 -37.5 -104t-107.5 -44q67 -3 93.5 -28.5t26.5 -52.5v-42q0 -30 39 -30zM392 348q44 0 44 54q0 25 -12.5 37.5
t-31.5 12.5h-52v-104h52zM381 -50q44 0 70.5 -27.5t26.5 -76.5t-36.5 -103.5t-98.5 -90.5l-33 30q1 1 8.5 10t11 13t10.5 14t11.5 18t10.5 20t10 25q-41 5 -64 29t-23 55q0 35 27.5 59.5t68.5 24.5z" />
    <glyph glyph-name="S.sc" horiz-adv-x="642" 
d="M377 387q9 -3 34 -12t38 -14.5t36.5 -16.5t37 -20.5t30.5 -25t26.5 -32t16 -40t6.5 -49.5q0 -89 -61.5 -141t-171.5 -52q-60 0 -105.5 18t-65.5 49l-20 -51h-116v202h160q7 -30 30.5 -50.5t60.5 -20.5q45 0 45 28q0 8 -3.5 14t-8.5 10.5t-15 9t-17 7l-21 7.5t-22 8
q-92 34 -124 55q-88 57 -88 163q0 89 67.5 133t159.5 44q103 0 154 -61l17 45h119v-191h-163q-6 30 -27 50t-50 20q-38 0 -38 -30q0 -25 70 -52q6 -3 9 -4z" />
    <glyph glyph-name="Sacute.sc" horiz-adv-x="629" 
d="M529 834l-163 -187h-179l140 187h202zM377 387q9 -3 34 -12t38 -14.5t36.5 -16.5t37 -20.5t30.5 -25t26.5 -32t16 -40t6.5 -49.5q0 -89 -61.5 -141t-171.5 -52q-60 0 -105.5 18t-65.5 49l-20 -51h-116v202h160q7 -30 30.5 -50.5t60.5 -20.5q45 0 45 28q0 8 -3.5 14
t-8.5 10.5t-15 9t-17 7l-21 7.5t-22 8q-92 34 -124 55q-88 57 -88 163q0 89 67.5 133t159.5 44q103 0 154 -61l17 45h119v-191h-163q-6 30 -27 50t-50 20q-38 0 -38 -30q0 -25 70 -52q6 -3 9 -4z" />
    <glyph glyph-name="Scircumflex.sc" horiz-adv-x="629" 
d="M349 735l-70 -72h-168l146 187h183l146 -187h-168zM377 387q9 -3 34 -12t38 -14.5t36.5 -16.5t37 -20.5t30.5 -25t26.5 -32t16 -40t6.5 -49.5q0 -89 -61.5 -141t-171.5 -52q-60 0 -105.5 18t-65.5 49l-20 -51h-116v202h160q7 -30 30.5 -50.5t60.5 -20.5q45 0 45 28
q0 8 -3.5 14t-8.5 10.5t-15 9t-17 7l-21 7.5t-22 8q-92 34 -124 55q-88 57 -88 163q0 89 67.5 133t159.5 44q103 0 154 -61l17 45h119v-191h-163q-6 30 -27 50t-50 20q-38 0 -38 -30q0 -25 70 -52q6 -3 9 -4z" />
    <glyph glyph-name="Scedilla.sc" horiz-adv-x="629" 
d="M602 177q0 -88 -59.5 -139.5t-165.5 -53.5l-54 -52q16 3 32 3q34 0 66.5 -9.5t60.5 -38.5t28 -74q0 -67 -58.5 -99t-147.5 -32q-25 0 -52.5 7t-35.5 13v71q28 -8 55 -8q47 0 69 10t22 41q0 22 -16 35.5t-43 13.5q-23 0 -41 -7t-25 -14l-7 -7l-41 47l113 107
q-75 16 -104 60l-20 -51h-116v202h160q7 -30 30.5 -50.5t60.5 -20.5q45 0 45 28q0 8 -3.5 14t-8.5 10.5t-15 9t-17 7l-21 7.5t-22 8q-92 34 -124 55q-88 57 -88 163q0 89 67.5 133t159.5 44q103 0 154 -61l17 45h119v-191h-163q-6 30 -27 50t-50 20q-38 0 -38 -30
q0 -25 70 -52q6 -3 9 -4q9 -3 34 -12t38 -14.5t36.5 -16.5t37 -20.5t30.5 -25t26.5 -32t16 -40t6.5 -49.5z" />
    <glyph glyph-name="Scaron.sc" horiz-adv-x="629" 
d="M421 648h-183l-143 187h168l67 -71l66 71h168zM377 387q9 -3 34 -12t38 -14.5t36.5 -16.5t37 -20.5t30.5 -25t26.5 -32t16 -40t6.5 -49.5q0 -89 -61.5 -141t-171.5 -52q-60 0 -105.5 18t-65.5 49l-20 -51h-116v202h160q7 -30 30.5 -50.5t60.5 -20.5q45 0 45 28
q0 8 -3.5 14t-8.5 10.5t-15 9t-17 7l-21 7.5t-22 8q-92 34 -124 55q-88 57 -88 163q0 89 67.5 133t159.5 44q103 0 154 -61l17 45h119v-191h-163q-6 30 -27 50t-50 20q-38 0 -38 -30q0 -25 70 -52q6 -3 9 -4z" />
    <glyph glyph-name="Scommaaccent.sc" horiz-adv-x="629" 
d="M377 387q9 -3 34 -12t38 -14.5t36.5 -16.5t37 -20.5t30.5 -25t26.5 -32t16 -40t6.5 -49.5q0 -89 -61.5 -141t-171.5 -52q-60 0 -105.5 18t-65.5 49l-20 -51h-116v202h160q7 -30 30.5 -50.5t60.5 -20.5q45 0 45 28q0 8 -3.5 14t-8.5 10.5t-15 9t-17 7l-21 7.5t-22 8
q-92 34 -124 55q-88 57 -88 163q0 89 67.5 133t159.5 44q103 0 154 -61l17 45h119v-191h-163q-6 30 -27 50t-50 20q-38 0 -38 -30q0 -25 70 -52q6 -3 9 -4zM341 -50q44 0 70.5 -27.5t26.5 -76.5t-36.5 -103.5t-98.5 -90.5l-33 30q1 1 8.5 10t11 13t10.5 14t11.5 18t10.5 20
t10 25q-41 5 -64 29t-23 55q0 35 27.5 59.5t68.5 24.5z" />
    <glyph glyph-name="uni1E60.sc" horiz-adv-x="642" 
d="M330 642q-51 0 -85 29.5t-34 73.5t34 74.5t85 30.5t85 -30.5t34 -74.5t-34 -73.5t-85 -29.5zM377 387q9 -3 34 -12t38 -14.5t36.5 -16.5t37 -20.5t30.5 -25t26.5 -32t16 -40t6.5 -49.5q0 -89 -61.5 -141t-171.5 -52q-60 0 -105.5 18t-65.5 49l-20 -51h-116v202h160
q7 -30 30.5 -50.5t60.5 -20.5q45 0 45 28q0 8 -3.5 14t-8.5 10.5t-15 9t-17 7l-21 7.5t-22 8q-92 34 -124 55q-88 57 -88 163q0 89 67.5 133t159.5 44q103 0 154 -61l17 45h119v-191h-163q-6 30 -27 50t-50 20q-38 0 -38 -30q0 -25 70 -52q6 -3 9 -4z" />
    <glyph glyph-name="T.sc" horiz-adv-x="703" 
d="M41 594h621v-250h-120q0 63 -14.5 97.5t-54.5 34.5h-9v-334h70v-142h-365v142h71v334h-10q-40 0 -54.5 -35.5t-14.5 -96.5h-120v250z" />
    <glyph glyph-name="Tcaron.sc" horiz-adv-x="703" 
d="M444 628h-183l-143 187h168l67 -71l66 71h168zM41 594h621v-250h-120q0 63 -14.5 97.5t-54.5 34.5h-9v-334h70v-142h-365v142h71v334h-10q-40 0 -54.5 -35.5t-14.5 -96.5h-120v250z" />
    <glyph glyph-name="uni021A.sc" horiz-adv-x="703" 
d="M41 594h621v-250h-120q0 63 -14.5 97.5t-54.5 34.5h-9v-334h70v-142h-365v142h71v334h-10q-40 0 -54.5 -35.5t-14.5 -96.5h-120v250zM354 -50q44 0 70.5 -27.5t26.5 -76.5t-36.5 -103.5t-98.5 -90.5l-33 30q1 1 8.5 10t11 13t10.5 14t11.5 18t10.5 20t10 25q-41 5 -64 29
t-23 55q0 35 27.5 59.5t68.5 24.5z" />
    <glyph glyph-name="Tbar.sc" horiz-adv-x="703" 
d="M41 594h621v-250h-120q0 63 -14.5 97.5t-54.5 34.5h-9v-145h49v-135h-49v-54h70v-142h-365v142h71v54h-52v135h52v145h-10q-40 0 -54.5 -35.5t-14.5 -96.5h-120v250z" />
    <glyph glyph-name="U.sc" horiz-adv-x="682" 
d="M598 210q0 -103 -63 -164t-181 -61q-149 0 -208 58t-59 167v242h-60v142h319v-142h-35v-248q0 -26 12.5 -43t37.5 -17q24 0 36.5 17t12.5 43v248h-29v142h278v-142h-61v-242z" />
    <glyph glyph-name="Ugrave.sc" horiz-adv-x="682" 
d="M266 647l-163 187h203l140 -187h-180zM598 210q0 -103 -63 -164t-181 -61q-149 0 -208 58t-59 167v242h-60v142h319v-142h-35v-248q0 -26 12.5 -43t37.5 -17q24 0 36.5 17t12.5 43v248h-29v142h278v-142h-61v-242z" />
    <glyph glyph-name="Uacute.sc" horiz-adv-x="682" 
d="M205 647l140 187h202l-163 -187h-179zM598 210q0 -103 -63 -164t-181 -61q-149 0 -208 58t-59 167v242h-60v142h319v-142h-35v-248q0 -26 12.5 -43t37.5 -17q24 0 36.5 17t12.5 43v248h-29v142h278v-142h-61v-242z" />
    <glyph glyph-name="Ucircumflex.sc" horiz-adv-x="682" 
d="M367 735l-70 -72h-168l146 187h183l146 -187h-168zM381 594h278v-142h-61v-242q0 -103 -63 -164t-181 -61q-149 0 -208 58t-59 167v242h-60v142h319v-142h-35v-248q0 -26 12.5 -43t37.5 -17q24 0 36.5 17t12.5 43v248h-29v142z" />
    <glyph glyph-name="Udieresis.sc" horiz-adv-x="682" 
d="M208 682q-48 0 -80.5 30t-32.5 72t32.5 73t80.5 31q50 0 82 -30.5t32 -73.5t-32 -72.5t-82 -29.5zM488 682q-49 0 -81 29.5t-32 72.5q0 42 32 73t81 31t82 -31t33 -73t-33 -72t-82 -30zM598 210q0 -103 -63 -164t-181 -61q-149 0 -208 58t-59 167v242h-60v142h319v-142
h-35v-248q0 -26 12.5 -43t37.5 -17q24 0 36.5 17t12.5 43v248h-29v142h278v-142h-61v-242z" />
    <glyph glyph-name="Utilde.sc" horiz-adv-x="682" 
d="M242 869q51 0 110 -20t80 -20q25 0 36 10.5t11 35.5h107q0 -93 -39 -145t-112 -52q-52 0 -110.5 20.5t-78.5 20.5q-26 0 -37 -10.5t-11 -35.5h-106q0 93 38.5 144.5t111.5 51.5zM598 210q0 -103 -63 -164t-181 -61q-149 0 -208 58t-59 167v242h-60v142h319v-142h-35v-248
q0 -26 12.5 -43t37.5 -17q24 0 36.5 17t12.5 43v248h-29v142h278v-142h-61v-242z" />
    <glyph glyph-name="Umacron.sc" horiz-adv-x="682" 
d="M129 859h459v-162h-459v162zM598 210q0 -103 -63 -164t-181 -61q-149 0 -208 58t-59 167v242h-60v142h319v-142h-35v-248q0 -26 12.5 -43t37.5 -17q24 0 36.5 17t12.5 43v248h-29v142h278v-142h-61v-242z" />
    <glyph glyph-name="Ubreve.sc" horiz-adv-x="682" 
d="M368 748q21 0 39.5 6.5t35 28.5t17.5 57h109q0 -90 -53 -146.5t-148 -56.5t-147 56t-52 147h108q2 -51 29.5 -71.5t61.5 -20.5zM598 210q0 -103 -63 -164t-181 -61q-149 0 -208 58t-59 167v242h-60v142h319v-142h-35v-248q0 -26 12.5 -43t37.5 -17q24 0 36.5 17t12.5 43
v248h-29v142h278v-142h-61v-242z" />
    <glyph glyph-name="Uring.sc" horiz-adv-x="682" 
d="M348 989q81 0 135 -52.5t54 -131.5q0 -78 -54.5 -131.5t-134.5 -53.5t-134.5 53.5t-54.5 131.5q0 79 54 131.5t135 52.5zM348 874q-32 0 -51.5 -19t-19.5 -50q0 -30 20 -50t51 -20t51 20t20 50q0 31 -19 50t-52 19zM598 210q0 -103 -63 -164t-181 -61q-149 0 -208 58
t-59 167v242h-60v142h319v-142h-35v-248q0 -26 12.5 -43t37.5 -17q24 0 36.5 17t12.5 43v248h-29v142h278v-142h-61v-242z" />
    <glyph glyph-name="Uhungarumlaut.sc" horiz-adv-x="682" 
d="M71 657l140 187h202l-163 -187h-179zM323 657l163 187h202l-186 -187h-179zM598 210q0 -103 -63 -164t-181 -61q-149 0 -208 58t-59 167v242h-60v142h319v-142h-35v-248q0 -26 12.5 -43t37.5 -17q24 0 36.5 17t12.5 43v248h-29v142h278v-142h-61v-242z" />
    <glyph glyph-name="Uogonek.sc" horiz-adv-x="682" 
d="M381 594h278v-142h-61v-242q0 -74 -33.5 -128t-97.5 -78q-52 -38 -67.5 -55.5t-15.5 -36.5q0 -12 9 -21.5t27 -9.5q35 0 55 17v-98q-10 -7 -47.5 -12.5t-74.5 -5.5q-76 0 -114.5 29.5t-38.5 68.5q0 35 20.5 59.5t59.5 49.5q-106 14 -149.5 70.5t-43.5 150.5v242h-60v142
h319v-142h-35v-248q0 -26 12.5 -43t37.5 -17q24 0 36.5 17t12.5 43v248h-29v142z" />
    <glyph glyph-name="uni01D3.sc" horiz-adv-x="682" 
d="M460 648h-183l-143 187h168l67 -71l66 71h168zM381 594h278v-142h-61v-242q0 -103 -63 -164t-181 -61q-149 0 -208 58t-59 167v242h-60v142h319v-142h-35v-248q0 -26 12.5 -43t37.5 -17q24 0 36.5 17t12.5 43v248h-29v142z" />
    <glyph glyph-name="V.sc" horiz-adv-x="689" 
d="M385 594h284v-142h-64l-130 -451h-260l-135 451h-57v142h321v-142h-31l55 -240l50 240h-33v142z" />
    <glyph glyph-name="W.sc" horiz-adv-x="1053" 
d="M744 594h288v-142h-64l-132 -451h-250l-62 265l-63 -265h-245l-136 451h-57v142h326v-142h-36l59 -248l60 248h-39v142h307v-142h-33l62 -245l52 245h-37v142z" />
    <glyph glyph-name="Wcircumflex.sc" horiz-adv-x="1053" 
d="M546 735l-70 -72h-168l146 187h183l146 -187h-168zM744 594h288v-142h-64l-132 -451h-250l-62 265l-63 -265h-245l-136 451h-57v142h326v-142h-36l59 -248l60 248h-39v142h307v-142h-33l62 -245l52 245h-37v142z" />
    <glyph glyph-name="Wgrave.sc" horiz-adv-x="1053" 
d="M625 647h-180l-163 187h203zM744 594h288v-142h-64l-132 -451h-250l-62 265l-63 -265h-245l-136 451h-57v142h326v-142h-36l59 -248l60 248h-39v142h307v-142h-33l62 -245l52 245h-37v142z" />
    <glyph glyph-name="Wacute.sc" horiz-adv-x="1053" 
d="M726 834l-163 -187h-179l140 187h202zM744 594h288v-142h-64l-132 -451h-250l-62 265l-63 -265h-245l-136 451h-57v142h326v-142h-36l59 -248l60 248h-39v142h307v-142h-33l62 -245l52 245h-37v142z" />
    <glyph glyph-name="Wdieresis.sc" horiz-adv-x="1053" 
d="M387 682q-48 0 -80.5 30t-32.5 72t32.5 73t80.5 31q50 0 82 -30.5t32 -73.5t-32 -72.5t-82 -29.5zM667 682q-49 0 -81 29.5t-32 72.5q0 42 32 73t81 31t82 -31t33 -73t-33 -72t-82 -30zM744 594h288v-142h-64l-132 -451h-250l-62 265l-63 -265h-245l-136 451h-57v142h326
v-142h-36l59 -248l60 248h-39v142h307v-142h-33l62 -245l52 245h-37v142z" />
    <glyph glyph-name="X.sc" horiz-adv-x="715" 
d="M686 452h-52l-120 -159l125 -151h44v-142h-335v142h36l-63 73l-49 -73h39v-142h-284v142h52l119 177l-118 133h-46v142h337v-142h-36l59 -72l52 72h-41v142h281v-142z" />
    <glyph glyph-name="Y.sc" horiz-adv-x="667" 
d="M377 594h270v-142h-51l-148 -258v-52h64v-142h-362v142h64v57l-137 253h-54v142h319v-142h-30l54 -107l43 107h-32v142z" />
    <glyph glyph-name="Yacute.sc" horiz-adv-x="667" 
d="M533 834l-163 -187h-179l140 187h202zM377 594h270v-142h-51l-148 -258v-52h64v-142h-362v142h64v57l-137 253h-54v142h319v-142h-30l54 -107l43 107h-32v142z" />
    <glyph glyph-name="Ycircumflex.sc" horiz-adv-x="667" 
d="M353 735l-70 -72h-168l146 187h183l146 -187h-168zM377 594h270v-142h-51l-148 -258v-52h64v-142h-362v142h64v57l-137 253h-54v142h319v-142h-30l54 -107l43 107h-32v142z" />
    <glyph glyph-name="Ydieresis.sc" horiz-adv-x="667" 
d="M194 682q-48 0 -80.5 30t-32.5 72t32.5 73t80.5 31q50 0 82 -30.5t32 -73.5t-32 -72.5t-82 -29.5zM474 682q-49 0 -81 29.5t-32 72.5q0 42 32 73t81 31t82 -31t33 -73t-33 -72t-82 -30zM377 594h270v-142h-51l-148 -258v-52h64v-142h-362v142h64v57l-137 253h-54v142h319
v-142h-30l54 -107l43 107h-32v142z" />
    <glyph glyph-name="uni0232.sc" horiz-adv-x="667" 
d="M574 859v-162h-459v162h459zM377 594h270v-142h-51l-148 -258v-52h64v-142h-362v142h64v57l-137 253h-54v142h319v-142h-30l54 -107l43 107h-32v142z" />
    <glyph glyph-name="Ygrave.sc" horiz-adv-x="667" 
d="M432 647h-180l-163 187h203zM377 594h270v-142h-51l-148 -258v-52h64v-142h-362v142h64v57l-137 253h-54v142h319v-142h-30l54 -107l43 107h-32v142z" />
    <glyph glyph-name="uni1EF8.sc" horiz-adv-x="667" 
d="M232 719q-26 0 -37 -10.5t-11 -35.5h-106q0 93 38.5 144.5t111.5 51.5q51 0 110 -20t80 -20q25 0 36 10.5t11 35.5h107q0 -93 -39 -145t-112 -52q-52 0 -110.5 20.5t-78.5 20.5zM377 594h270v-142h-51l-148 -258v-52h64v-142h-362v142h64v57l-137 253h-54v142h319v-142
h-30l54 -107l43 107h-32v142z" />
    <glyph glyph-name="Z.sc" horiz-adv-x="606" 
d="M447 275h123v-275h-529v110l257 351h-25q-54 0 -74 -25t-20 -71v-5h-122v234h501v-108l-252 -354h39q56 0 79 30.5t23 98.5v14z" />
    <glyph glyph-name="Zacute.sc" horiz-adv-x="606" 
d="M506 834l-163 -187h-179l140 187h202zM447 275h123v-275h-529v110l257 351h-25q-54 0 -74 -25t-20 -71v-5h-122v234h501v-108l-252 -354h39q56 0 79 30.5t23 98.5v14z" />
    <glyph glyph-name="Zdotaccent.sc" horiz-adv-x="606" 
d="M313 681q-54 0 -89.5 31t-35.5 77t35.5 78t89.5 32t89.5 -32t35.5 -78t-35.5 -77t-89.5 -31zM447 275h123v-275h-529v110l257 351h-25q-54 0 -74 -25t-20 -71v-5h-122v234h501v-108l-252 -354h39q56 0 79 30.5t23 98.5v14z" />
    <glyph glyph-name="Zcaron.sc" horiz-adv-x="606" 
d="M419 648h-183l-143 187h168l67 -71l66 71h168zM447 275h123v-275h-529v110l257 351h-25q-54 0 -74 -25t-20 -71v-5h-122v234h501v-108l-252 -354h39q56 0 79 30.5t23 98.5v14z" />
    <glyph glyph-name="Thorn.sc" horiz-adv-x="696" 
d="M443 433q119 0 172.5 -29.5t53.5 -100.5q0 -76 -59 -110.5t-179 -34.5h-100v-14h60v-144h-344v144h60v306h-60v144h344v-144h-60v-17h112zM369 269q47 0 47 27q0 26 -47 26h-38v-53h38z" />
    <glyph glyph-name="at.sc" horiz-adv-x="915" 
d="M41 208q0 124 65 219.5t170 144.5t231 49q170 0 269 -91t99 -240q0 -118 -68 -173t-173 -55q-108 0 -157 73q-40 -70 -131 -70q-61 0 -88 46t-5 134q22 89 68 135t102 46q74 0 89 -50l10 37h171l-46 -171q-23 -87 24 -87q8 0 19.5 5t27.5 18t27 42t11 70q0 112 -68 174
t-196 62q-135 0 -233.5 -89t-98.5 -229q0 -119 85 -191t216 -72q113 0 198 65l68 -77q-116 -83 -282 -83q-175 0 -289.5 98t-114.5 260zM443 177q18 0 21 19l28 106q4 15 -11 15q-17 0 -37 -73q-7 -25 -8.5 -40.5t0.5 -21t7 -5.5z" />
    <glyph glyph-name="ampersand.sc" horiz-adv-x="849" 
d="M811 197h-95q-6 -15 -15 -30l18 -15q11 -9 36 -9h55v-143h-197q-47 0 -78 27l-27 25q-35 -31 -87.5 -49.5t-107.5 -18.5q-127 0 -201 46t-74 127q0 56 49.5 96.5t135.5 60.5l-36 33h-1q-22 15 -35 53q-7 21 -7 43q0 77 76 122t205 45q105 0 173 -46.5t68 -117.5
q0 -47 -29.5 -74t-110.5 -57l81 -68q5 17 5 32v54h199v-136zM434 481q-14 -1 -24.5 -11.5t-10.5 -26.5q0 -20 29 -46l11 -9q13 5 23 18t10 29q0 21 -11 34t-27 12zM343 118q42 0 71 20l-104 95q-35 -18 -35 -59q0 -25 18.5 -40.5t49.5 -15.5z" />
    <glyph glyph-name="registered.alt" horiz-adv-x="522" 
d="M261 760q92 0 154 -59t62 -145q0 -89 -61.5 -147.5t-154.5 -58.5t-154.5 58.5t-61.5 147.5q0 86 62 145t154 59zM261 393q70 0 119 47t49 116q0 67 -49 114t-119 47t-118.5 -47t-48.5 -114q0 -69 48.5 -116t118.5 -47zM351 508q0 -12 15 -12h4v-40h-56q-33 0 -33 34v31
q0 13 -14 13h-28v-38h15v-40h-104v40h22v118h-22v40h127q83 0 83 -51q0 -44 -49 -49q40 -4 40 -31v-15zM262 569q23 0 23 23q0 22 -23 22h-23v-45h23z" />
    <glyph glyph-name="hyphen.uc" horiz-adv-x="509" 
d="M35 454h439v-157h-439v157z" />
    <glyph glyph-name="endash.uc" horiz-adv-x="674" 
d="M35 454h604v-157h-604v157z" />
    <glyph glyph-name="emdash.uc" horiz-adv-x="983" 
d="M35 454h913v-157h-913v157z" />
    <glyph glyph-name="parenleft.uc" horiz-adv-x="492" 
d="M440 740q-168 -182 -168 -394q0 -73 19.5 -143t51.5 -122t53.5 -80.5t43.5 -50.5l-144 -108q-250 206 -250 504q0 292 250 502z" />
    <glyph glyph-name="parenright.uc" horiz-adv-x="492" 
d="M190 848q250 -210 250 -502q0 -298 -250 -504l-144 108q22 22 43.5 50.5t53.5 80.5t51.5 122t19.5 143q0 212 -168 394z" />
    <glyph glyph-name="bracketleft.uc" horiz-adv-x="384" 
d="M52 -144v944h280v-154h-73v-636h73v-154h-280z" />
    <glyph glyph-name="bracketright.uc" horiz-adv-x="384" 
d="M52 10h73v636h-73v154h280v-944h-280v154z" />
    <glyph glyph-name="braceleft.uc" horiz-adv-x="486" 
d="M159 691q0 74 36.5 103.5t121.5 29.5q72 0 117 -9v-153q-20 2 -30 2q-28 0 -36 -10.5t-8 -33.5v-162q0 -44 -36.5 -79t-123.5 -35q87 0 123.5 -35t36.5 -79v-163q0 -23 8 -33.5t36 -10.5q10 0 30 2v-153q-45 -9 -117 -9q-85 0 -121.5 29.5t-36.5 103.5v223q0 49 -44 49
h-63v152h63q44 0 44 49v222z" />
    <glyph glyph-name="braceright.uc" horiz-adv-x="486" 
d="M327 691v-222q0 -49 44 -49h63v-152h-63q-44 0 -44 -49v-223q0 -74 -36.5 -103.5t-121.5 -29.5q-72 0 -117 9v153q20 -2 30 -2q28 0 36 10.5t8 33.5v163q0 44 36.5 79t123.5 35q-87 0 -123.5 35t-36.5 79v162q0 23 -8 33.5t-36 10.5q-10 0 -30 -2v153q45 9 117 9
q85 0 121.5 -29.5t36.5 -103.5z" />
    <glyph glyph-name="guilsinglleft.uc" horiz-adv-x="407" 
d="M183 157l-153 218l153 218h194l-153 -218l153 -218h-194z" />
    <glyph glyph-name="guilsinglright.uc" horiz-adv-x="407" 
d="M183 375l-153 218h194l153 -218l-153 -218h-194z" />
    <glyph glyph-name="guillemotleft.uc" horiz-adv-x="725" 
d="M183 157l-153 218l153 218h194l-153 -218l153 -218h-194zM501 157l-153 218l153 218h194l-153 -218l153 -218h-194z" />
    <glyph glyph-name="guillemotright.uc" horiz-adv-x="725" 
d="M183 375l-153 218h194l153 -218l-153 -218h-194zM501 375l-153 218h194l153 -218l-153 -218h-194z" />
    <glyph glyph-name="slash.uc" horiz-adv-x="599" 
d="M-4 -89l390 889h198l-390 -889h-198z" />
    <glyph glyph-name="backslash.uc" horiz-adv-x="599" 
d="M15 800h198l390 -889h-198z" />
    <glyph glyph-name="bar.uc" horiz-adv-x="367" 
d="M80 -50v850h207v-850h-207z" />
    <glyph glyph-name="brokenbar.uc" horiz-adv-x="367" 
d="M80 447v353h207v-353h-207zM80 -50v354h207v-354h-207z" />
    <glyph glyph-name="at.uc" horiz-adv-x="1040" 
d="M45 343q0 113 42.5 208.5t114 159.5t167 99.5t200.5 35.5q195 0 310.5 -113t115.5 -297q0 -142 -75.5 -211.5t-192.5 -69.5q-63 0 -107 27t-65 65q-21 -37 -61.5 -63t-95.5 -26q-72 0 -105.5 59.5t-8.5 167.5q25 109 81.5 167.5t126.5 58.5q91 0 108 -70l13 54h172
l-58 -232q-27 -107 37 -107q14 0 30.5 8.5t35.5 26.5t31.5 56t12.5 89q0 144 -84 225.5t-236 81.5q-158 0 -273 -112.5t-115 -287.5q0 -150 100 -243.5t254 -93.5q127 0 224 75l68 -85q-126 -93 -307 -93q-199 0 -329.5 121.5t-130.5 318.5zM482 385q-26 -106 12 -106t52 45
l29 118q5 20 -1.5 35.5t-25.5 15.5q-38 0 -66 -108z" />
    <glyph glyph-name="exclamdown.uc" horiz-adv-x="305" 
d="M145 770q54 0 89.5 -31.5t35.5 -77.5t-35.5 -78t-89.5 -32t-89.5 32t-35.5 78t35.5 77.5t89.5 31.5zM251 0h-212l8 471h196z" />
    <glyph glyph-name="questiondown.uc" horiz-adv-x="567" 
d="M292 770q54 0 89.5 -31.5t35.5 -77.5t-35.5 -78t-89.5 -32t-89.5 32t-35.5 78t35.5 77.5t89.5 31.5zM559 219q0 -114 -70.5 -176.5t-207.5 -62.5q-133 0 -197 51.5t-64 138.5q0 50 19.5 87.5t47.5 60.5t55.5 43t47 46.5t19.5 60.5l-1 17h189q1 -16 1 -29q0 -41 -16 -74
t-38 -54.5t-44.5 -41t-38.5 -46t-16 -58.5q0 -27 12.5 -44.5t38.5 -17.5q31 0 47.5 22t16.5 77q0 12 -1 17h199q1 -9 1 -17z" />
    <glyph glyph-name="uni27D1.uc" horiz-adv-x="250" 
d="M125 616q-54 0 -89.5 31t-35.5 77t35.5 78t89.5 32t89.5 -32t35.5 -78t-35.5 -77t-89.5 -31z" />
    <glyph glyph-name="acute.uc" horiz-adv-x="342" 
d="M0 582l140 187h202l-163 -187h-179z" />
    <glyph glyph-name="grave.uc" horiz-adv-x="342" 
d="M163 582l-163 187h203l140 -187h-180z" />
    <glyph glyph-name="hungarumlaut.uc" horiz-adv-x="617" 
d="M0 592l140 187h202l-163 -187h-179zM252 592l163 187h202l-186 -187h-179z" />
    <glyph glyph-name="circumflex.uc" horiz-adv-x="475" 
d="M475 598h-168l-69 72l-70 -72h-168l146 187h183z" />
    <glyph glyph-name="caron.uc" horiz-adv-x="469" 
d="M301 770h168l-143 -187h-183l-143 187h168l67 -71z" />
    <glyph glyph-name="breve.uc" horiz-adv-x="400" 
d="M199 683q21 0 39.5 6.5t35 28.5t17.5 57h109q0 -90 -53 -146.5t-148 -56.5t-147 56t-52 147h108q2 -51 29.5 -71.5t61.5 -20.5z" />
    <glyph glyph-name="tilde.uc" horiz-adv-x="480" 
d="M143 804q51 0 110 -20t80 -20q25 0 36 10.5t11 35.5h107q0 -93 -39 -145t-112 -52q-52 0 -110.5 20.5t-78.5 20.5q-26 0 -37 -10.5t-11 -35.5h-106q0 93 38.5 144.5t111.5 51.5z" />
    <glyph glyph-name="macron.uc" horiz-adv-x="459" 
d="M0 794h459v-162h-459v162z" />
    <glyph glyph-name="dieresis.uc" horiz-adv-x="426" 
d="M72 617q-48 0 -80.5 30t-32.5 72t32.5 73t80.5 31q50 0 82 -30.5t32 -73.5t-32 -72.5t-82 -29.5zM352 617q-49 0 -81 29.5t-32 72.5q0 42 32 73t81 31t82 -31t33 -73t-33 -72t-82 -30z" />
    <glyph glyph-name="dotaccent.uc" horiz-adv-x="250" 
d="M125 616q-54 0 -89.5 31t-35.5 77t35.5 78t89.5 32t89.5 -32t35.5 -78t-35.5 -77t-89.5 -31z" />
    <glyph glyph-name="ring.uc" horiz-adv-x="370" 
d="M185 924q81 0 135 -52.5t54 -131.5q0 -78 -54.5 -131.5t-134.5 -53.5t-134.5 53.5t-54.5 131.5q0 79 54 131.5t135 52.5zM185 809q-32 0 -51.5 -19t-19.5 -50q0 -30 20 -50t51 -20t51 20t20 50q0 31 -19 50t-52 19z" />
    <glyph glyph-name="cedilla.uc" horiz-adv-x="361" 
d="M206 -65q34 0 66.5 -9.5t60.5 -38.5t28 -74q0 -67 -58.5 -99t-147.5 -32q-25 0 -52.5 7t-35.5 13v71q28 -8 55 -8q47 0 69 10t22 41q0 22 -16 35.5t-43 13.5q-23 0 -41 -7t-25 -14l-7 -7h-81l67 179h81l-40 -105q46 24 98 24z" />
    <glyph glyph-name="ogonek.uc" horiz-adv-x="275" 
d="M0 -120q0 22 8 40t27 35t32 25.5t42 26.5h162q-54 -40 -70.5 -58t-16.5 -37q0 -12 9 -21.5t27 -9.5q35 0 55 17v-98q-10 -7 -47.5 -12.5t-74.5 -5.5q-76 0 -114.5 29.5t-38.5 68.5z" />
    <glyph glyph-name="uni0326.uc" horiz-adv-x="0" 
d="M-97 -30q44 0 70.5 -27.5t26.5 -76.5t-36.5 -103.5t-98.5 -90.5l-33 30q1 1 8.5 10t11 13t10.5 14t11.5 18t10.5 20t10 25q-41 5 -64 29t-23 55q0 35 27.5 59.5t68.5 24.5z" />
    <glyph glyph-name="space.lintab" 
 />
    <glyph glyph-name="zero.lintab" 
d="M347 770q159 0 243 -109.5t84 -283.5q0 -176 -84 -286.5t-243 -110.5q-161 0 -244 110t-83 287q0 174 83 283.5t244 109.5zM347 153q45 0 66.5 52.5t21.5 171.5q0 118 -21.5 169t-66.5 51q-46 0 -67 -50.5t-21 -169.5q0 -120 21 -172t67 -52z" />
    <glyph glyph-name="one.lintab" 
d="M473 154h174v-154h-592v154h194v364q-82 -9 -154 5v165q58 -8 126 5.5t75 56.5h177v-596z" />
    <glyph glyph-name="two.lintab" 
d="M46 0v89q0 48 20.5 89.5t53 71t71.5 55.5t78 49.5t71.5 46t53 51t20.5 59.5q0 41 -20 63.5t-55 22.5q-36 0 -59 -29.5t-23 -87.5l1 -17h-202q-2 12 -2 17q0 120 79.5 205t210.5 85q140 0 215 -64t75 -177q0 -59 -24.5 -109t-61 -81.5t-81 -60t-83 -47t-68 -39
t-35.5 -38.5h212v74h146v-228h-593z" />
    <glyph glyph-name="three.lintab" 
d="M492 384q169 -14 169 -171q0 -110 -85 -171.5t-232 -61.5q-141 0 -219 69.5t-78 204.5q0 22 1 30h219q-1 -15 -1 -25q0 -105 77 -105q36 0 56 23t20 65q0 72 -64 72h-63v123h66q61 0 61 74q0 41 -20 63.5t-55 22.5q-42 0 -59.5 -28t-17.5 -83l1 -15h-214q-1 10 -1 15
q0 132 81 208t229 76q131 0 209 -56.5t78 -158.5q0 -79 -44 -120.5t-114 -50.5z" />
    <glyph glyph-name="four.lintab" 
d="M648 225h-104v-71h78v-154h-407v154h113v71h-314v126l323 399h207v-399h104v-126zM167 351h161v204z" />
    <glyph glyph-name="five.lintab" 
d="M402 506q125 0 184 -68t59 -186q0 -115 -82.5 -193.5t-220.5 -78.5q-133 0 -211.5 77.5t-78.5 195.5v14h203v-14q0 -57 20.5 -78.5t58.5 -21.5q77 0 77 106q0 47 -19.5 81t-58.5 34q-24 0 -45 -8t-30.5 -16t-10.5 -12l-163 28l44 384h468v-169h-325l-19 -116
q70 41 150 41z" />
    <glyph glyph-name="six.lintab" 
d="M676 237q0 -105 -81.5 -181t-233.5 -76q-159 0 -244.5 114.5t-85.5 291.5q0 172 86 278t246 106q132 0 208.5 -71.5t75.5 -180.5h-217q-9 43 -23 61t-44 18q-40 0 -62.5 -40.5t-29.5 -138.5q0 -4 -0.5 -12.5t-0.5 -12.5q59 54 163 54q100 0 171.5 -56.5t71.5 -153.5z
M373 339q-42 0 -69 -24t-27 -69q0 -38 25 -65.5t61 -27.5q40 0 67 25t27 64q0 47 -25 72t-59 25z" />
    <glyph glyph-name="seven.lintab" 
d="M56 750h587v-154q-56 -60 -96.5 -114.5t-81 -129t-62 -163.5t-21.5 -189h-250q0 90 35 185.5t92 177t102.5 135t92.5 98.5h-242v-96h-156v250z" />
    <glyph glyph-name="eight.lintab" 
d="M551 403q123 -55 123 -176q0 -104 -84.5 -175.5t-242.5 -71.5t-242.5 71.5t-84.5 175.5q0 121 123 176q-85 52 -85 146q0 93 74.5 157t214.5 64q141 0 215 -64t74 -157q0 -94 -85 -146zM347 622q-36 0 -61.5 -23.5t-25.5 -56.5q0 -41 24.5 -64t62.5 -23t62.5 23t24.5 64
q0 33 -25.5 56.5t-61.5 23.5zM347 143q39 0 67.5 27.5t28.5 65.5q0 45 -27.5 69t-68.5 24t-68.5 -24t-27.5 -69q0 -38 28.5 -65.5t67.5 -27.5z" />
    <glyph glyph-name="nine.lintab" 
d="M346 770q159 0 244.5 -114.5t85.5 -291.5q0 -167 -88 -275.5t-244 -108.5q-132 0 -210 70t-77 178h217q9 -42 24.5 -58.5t45.5 -16.5q42 0 64.5 44.5t28.5 155.5q-59 -54 -163 -54q-99 0 -171 57.5t-72 154.5q0 105 82 182t233 77zM334 407q41 0 68.5 26t27.5 71
q0 38 -25 65.5t-61 27.5q-39 0 -66.5 -26t-27.5 -65q0 -47 25 -73t59 -26z" />
    <glyph glyph-name="parenleft.lintab" 
d="M584 740q-168 -182 -168 -394q0 -73 19.5 -143t51.5 -122t53.5 -80.5t43.5 -50.5l-144 -108q-250 206 -250 504q0 292 250 502z" />
    <glyph glyph-name="parenright.lintab" 
d="M254 848q250 -210 250 -502q0 -298 -250 -504l-144 108q22 22 43.5 50.5t53.5 80.5t51.5 122t19.5 143q0 212 -168 394z" />
    <glyph glyph-name="bracketleft.lintab" 
d="M200 -144v944h384v-154h-177v-636h177v-154h-384z" />
    <glyph glyph-name="bracketright.lintab" 
d="M100 10h177v636h-177v154h384v-944h-384v154z" />
    <glyph glyph-name="braceleft.lintab" 
d="M247 691q0 74 36.5 103.5t121.5 29.5q72 0 117 -9v-153q-20 2 -30 2q-28 0 -36 -10.5t-8 -33.5v-162q0 -44 -36.5 -79t-123.5 -35q87 0 123.5 -35t36.5 -79v-163q0 -23 8 -33.5t36 -10.5q10 0 30 2v-153q-45 -9 -117 -9q-85 0 -121.5 29.5t-36.5 103.5v223q0 49 -44 49
h-63v152h63q44 0 44 49v222z" />
    <glyph glyph-name="braceright.lintab" 
d="M447 691v-222q0 -49 44 -49h63v-152h-63q-44 0 -44 -49v-223q0 -74 -36.5 -103.5t-121.5 -29.5q-72 0 -117 9v153q20 -2 30 -2q28 0 36 10.5t8 33.5v163q0 44 36.5 79t123.5 35q-87 0 -123.5 35t-36.5 79v162q0 23 -8 33.5t-36 10.5q-10 0 -30 -2v153q45 9 117 9
q85 0 121.5 -29.5t36.5 -103.5z" />
    <glyph glyph-name="numbersign.lintab" 
d="M664 451h-98l-30 -152h83v-146h-111l-30 -153h-165l30 153h-83l-30 -153h-165l30 153h-70v146h98l30 152h-83v146h111l30 153h165l-30 -153h83l30 153h165l-30 -153h70v-146zM371 299l30 152h-83l-30 -152h83z" />
    <glyph glyph-name="percent.lintab" 
d="M185 770q70 0 112.5 -51t42.5 -133q0 -83 -42.5 -134t-112.5 -51t-112.5 51t-42.5 134q0 82 42.5 133t112.5 51zM172 0l453 750h-90l-453 -750h90zM146 586q0 -100 39 -100q40 0 40 100q0 98 -40 98q-39 0 -39 -98zM520 349q70 0 112.5 -51t42.5 -133q0 -83 -42.5 -134
t-112.5 -51t-112.5 51t-42.5 134q0 82 42.5 133t112.5 51zM520 65q40 0 40 100q0 98 -40 98q-39 0 -39 -98q0 -100 39 -100z" />
    <glyph glyph-name="period.lintab" 
d="M347 -20q-54 0 -89.5 31.5t-35.5 77.5t35.5 78t89.5 32t89.5 -32t35.5 -78t-35.5 -77.5t-89.5 -31.5z" />
    <glyph glyph-name="comma.lintab" 
d="M346 199q56 0 90.5 -36t34.5 -100q0 -63 -47 -134t-128 -119l-45 40q48 50 67 89q10 19 17 40q-54 6 -84 37.5t-30 72.5q0 46 35.5 78t89.5 32z" />
    <glyph glyph-name="colon.lintab" 
d="M347 279q-54 0 -89.5 31.5t-35.5 77.5t35.5 78t89.5 32t89.5 -32t35.5 -78t-35.5 -77.5t-89.5 -31.5zM347 -20q-54 0 -89.5 31.5t-35.5 77.5t35.5 78t89.5 32t89.5 -32t35.5 -78t-35.5 -77.5t-89.5 -31.5z" />
    <glyph glyph-name="semicolon.lintab" 
d="M346 279q-54 0 -89.5 31.5t-35.5 77.5t35.5 78t89.5 32t89.5 -32t35.5 -78t-35.5 -77.5t-89.5 -31.5zM346 199q56 0 90.5 -36t34.5 -100q0 -63 -47 -134t-128 -119l-45 40q48 50 67 89q10 19 17 40q-54 6 -84 37.5t-30 72.5q0 46 35.5 78t89.5 32z" />
    <glyph glyph-name="dollar.lintab" 
d="M658 217q0 -105 -63.5 -167.5t-177.5 -68.5v-109h-143v131q-54 24 -79 69l-20 -72h-117v261h160q7 -52 39 -87t82 -35q30 0 52.5 14t22.5 39q0 32 -28.5 52.5t-89.5 44.5q-34 13 -47 18.5t-44.5 21t-46.5 27t-38 33t-34 43.5t-19.5 53t-8.5 67q0 97 62.5 151.5
t153.5 64.5v110h143v-130q48 -23 73 -59l17 61h119v-246h-163q-6 51 -33 84t-64 33q-33 0 -51 -14t-18 -37q0 -32 26.5 -52.5t78.5 -41.5q9 -4 32.5 -13.5t35 -14t34 -15t34.5 -18.5t31 -21t29.5 -25t23.5 -29t20 -35t11.5 -40.5t4.5 -47.5z" />
    <glyph glyph-name="cent.lintab" 
d="M346 110q24 0 38 29.5t14 84.5h220q0 -94 -55 -158t-151 -80v-114h-143v116q-98 21 -152 93.5t-54 177.5t54 177.5t152 94.5v116h143v-114q96 -17 151 -81t55 -158h-220q0 55 -14 84.5t-38 29.5q-27 0 -42.5 -38t-15.5 -111t15.5 -111t42.5 -38z" />
    <glyph glyph-name="sterling.lintab" 
d="M678 237q1 -9 1 -17q0 -119 -55.5 -179.5t-189.5 -60.5q-47 0 -100.5 20t-92.5 20q-46 0 -95.5 -10t-120.5 -10v155q79 0 119 20t40 67q0 23 -12 59h-119v105h76q-35 85 -35 146q0 107 75.5 162.5t177.5 55.5q65 0 111.5 -25t67.5 -56l17 61h119v-246h-163q-6 51 -33 84
t-64 33q-69 0 -69 -68q0 -56 27 -147h166v-105h-140q5 -35 5 -67q0 -63 -43 -106q30 -8 60 -8q43 0 57.5 20.5t14.5 79.5q0 12 -1 17h199z" />
    <glyph glyph-name="yen.lintab" 
d="M381 750h294v-154h-63l-121 -190h107v-105h-171l1 -21h170v-105h-168v-21h78v-154h-323v154h77v21h-168v105h153l-12 21h-141v105h80l-111 190h-38v154h301v-154h-38l76 -123l73 123h-56v154z" />
    <glyph glyph-name="uni20A9.lintab" 
d="M674 596h-26l-12 -77h30v-105h-46l-8 -50h54v-105h-70l-40 -259h-152l-33 259h-42l-34 -259h-155l-41 259h-70v105h54l-8 50h-46v105h29l-12 77h-21v154h203v-154h-33l10 -77h81l10 77h-35v154h194v-154h-27l11 -77h78l9 77h-35v154h183v-154zM343 364h14l-7 55zM219 414
l6 -50h40l6 50h-52zM498 364l6 50h-51l7 -50h38zM244 215l6 44h-11zM480 220l5 39h-10z" />
    <glyph glyph-name="Euro.lintab" 
d="M390 149q34 0 49.5 42t24.5 123h194q0 -334 -281 -334q-114 0 -192 75.5t-104 190.5h-57v105h46v50h-46v105h58q26 112 102.5 188t192.5 76q281 0 281 -334h-194q-5 42 -8.5 65t-11.5 50t-21.5 38.5t-32.5 11.5q-52 0 -69 -95h84v-105h-91v-50h91v-105h-83q18 -97 68 -97
z" />
    <glyph glyph-name="florin.lintab" 
d="M399 -59q-10 -71 -58.5 -109.5t-154.5 -38.5q-35 0 -107 9l20 143q12 -2 30 -2q20 0 33.5 4.5t20 14t9 16.5t4.5 20l54 375h-47v146h67l14 100q10 71 58.5 109.5t154.5 38.5q35 0 107 -9l-20 -143q-12 2 -30 2q-20 0 -33.5 -4.5t-20 -14t-9 -16.5t-4.5 -20l-6 -43h65
v-146h-85z" />
    <glyph glyph-name="space.old" horiz-adv-x="156" 
 />
    <glyph glyph-name="zero.old" horiz-adv-x="663" 
d="M332 610q136 0 217.5 -88t81.5 -223q0 -137 -81 -226t-218 -89t-218.5 89t-81.5 225t81.5 224t218.5 88zM332 140q16 0 28.5 13t22 50.5t9.5 95.5t-9.5 94.5t-22 48.5t-28.5 12q-61 0 -61 -155q0 -159 61 -159z" />
    <glyph glyph-name="one.old" horiz-adv-x="559" 
d="M410 154h94v-154h-432v154h114v205q-7 -1 -22 -1q-52 0 -92 9v165q16 -2 24 -2q59 0 95 13t42 51h177v-440z" />
    <glyph glyph-name="two.old" horiz-adv-x="693" 
d="M50 0v89q0 62 27.5 104t68 60t88.5 32t88.5 22t68 27.5t27.5 50.5q0 22 -21 39t-54 17q-35 0 -58.5 -19.5t-23.5 -52.5l1 -17h-202q-2 12 -2 17q0 104 79 174.5t211 70.5q139 0 214.5 -60t75.5 -159q0 -64 -35.5 -105.5t-86.5 -58.5t-102 -26.5t-88.5 -20.5t-40.5 -30
h358v-154h-593z" />
    <glyph glyph-name="three.old" horiz-adv-x="671" 
d="M470 228q169 -14 169 -171q0 -110 -85 -171.5t-232 -61.5q-141 0 -219 69.5t-78 204.5q0 22 1 30h219q-1 -15 -1 -25q0 -105 77 -105q36 0 56 23t20 65q0 72 -64 72h-63v123h66q61 0 61 74q0 41 -20 63.5t-55 22.5q-42 0 -59.5 -28t-17.5 -83l1 -15h-214q-1 10 -1 15
q0 132 81 208t229 76q131 0 209 -56.5t78 -158.5q0 -79 -44 -120.5t-114 -50.5z" />
    <glyph glyph-name="four.old" horiz-adv-x="658" 
d="M627 69h-104v-71h78v-154h-407v154h113v71h-314v126l323 399h207v-399h104v-126zM146 195h161v204z" />
    </font>
</defs>
</svg>
