<?xml version="1.0" standalone="no"?>
<!DOCTYPE svg PUBLIC "-//W3C//DTD SVG 1.1//EN" "http://www.w3.org/Graphics/SVG/1.1/DTD/svg11.dtd" >
<svg xmlns="http://www.w3.org/2000/svg" xmlns:xlink="http://www.w3.org/1999/xlink" version="1.1">
<metadata>
Created by FontForge 20170731 at Wed Jun 28 15:41:55 2017
 By Aleksey,,,
Copyright (c) 2017 by Dan Gneiding. All rights reserved.
</metadata>
<defs>
<font id="LehighCommercial-SemiBold" horiz-adv-x="694" >
  <font-face 
    font-family="Lehigh Commercial SemiBold"
    font-weight="600"
    font-stretch="normal"
    units-per-em="1200"
    panose-1="2 6 4 3 3 5 3 0 2 3"
    ascent="950"
    descent="-250"
    x-height="510"
    cap-height="750"
    bbox="-175 -296 1531 1052"
    underline-thickness="88"
    underline-position="-271"
    unicode-range="U+0020-FF09"
  />
<missing-glyph horiz-adv-x="1111" 
d="M556 857q206 0 352 -146t146 -352t-146 -352t-352 -146t-352 146t-146 352t146 352t352 146zM556 -88q184 0 315.5 131t131.5 316t-131.5 316t-315.5 131t-315.5 -131t-131.5 -316t131.5 -316t315.5 -131zM697 705v-242h121v-363h-80v-40h-363v40h-81v363h121v242h282z
M778 423h-121v242h-202v-242h-121v-283h41v202h40v-242h121v81h-40v40h40v242h-40v161h121v-161h-41v-242h41v-40h-41v-81h121v242h41v-202h40v283zM455 140v41h41v-41h-41zM657 140h-40v41h40v-41z" />
    <glyph glyph-name=".notdef" horiz-adv-x="1111" 
d="M556 857q206 0 352 -146t146 -352t-146 -352t-352 -146t-352 146t-146 352t146 352t352 146zM556 -88q184 0 315.5 131t131.5 316t-131.5 316t-315.5 131t-315.5 -131t-131.5 -316t131.5 -316t315.5 -131zM697 705v-242h121v-363h-80v-40h-363v40h-81v363h121v242h282z
M778 423h-121v242h-202v-242h-121v-283h41v202h40v-242h121v81h-40v40h40v242h-40v161h121v-161h-41v-242h41v-40h-41v-81h121v242h41v-202h40v283zM455 140v41h41v-41h-41zM657 140h-40v41h40v-41z" />
    <glyph glyph-name=".null" horiz-adv-x="0" 
 />
    <glyph glyph-name="nonmarkingreturn" horiz-adv-x="400" 
 />
    <glyph glyph-name="space" unicode=" " horiz-adv-x="199" 
 />
    <glyph glyph-name="exclam" unicode="!" horiz-adv-x="213" 
d="M54 203l-6 547h116l-4 -547h-106zM107 -20q-33 0 -55 19.5t-22 48.5t22 48.5t55 19.5t54.5 -19.5t21.5 -48.5t-21.5 -48.5t-54.5 -19.5z" />
    <glyph glyph-name="quotedbl" unicode="&#x22;" horiz-adv-x="414" 
d="M80 557l-10 213h107l-9 -213h-88zM247 557l-10 213h106l-9 -213h-87z" />
    <glyph glyph-name="numbersign" unicode="#" horiz-adv-x="679" 
d="M656 473h-121l-38 -196h118v-81h-134l-38 -196h-91l38 196h-170l-38 -196h-91l38 196h-107v81h123l38 196h-120v81h136l38 196h91l-38 -196h170l38 196h91l-38 -196h105v-81zM406 277l38 196h-170l-38 -196h170z" />
    <glyph glyph-name="dollar" unicode="$" horiz-adv-x="650" 
d="M584 198q0 -99 -61 -156.5t-165 -61.5v-88h-82v96q-98 26 -131 106l-11 -94h-66v237h88q3 -64 35 -107.5t85 -56.5v269q-93 37 -145.5 88.5t-52.5 136.5q0 87 58 141t140 61v90h82v-97q41 -10 71.5 -34t43.5 -53l9 75h68v-217h-91q-2 62 -29 100.5t-72 49.5v-248
q53 -22 86 -39t69 -45t53.5 -66t17.5 -87zM207 576q0 -58 69 -102v204q-31 -13 -50 -40.5t-19 -61.5zM358 73q42 10 67.5 39.5t25.5 73.5q0 72 -93 121v-234z" />
    <glyph glyph-name="percent" unicode="%" horiz-adv-x="907" 
d="M223 770q81 0 133 -52t52 -132q0 -81 -51.5 -133t-133.5 -52t-133.5 52t-51.5 133q0 80 52 132t133 52zM198 0l607 750h-95l-607 -750h95zM126 586q0 -58 27 -93.5t70 -35.5t70 35t27 94q0 58 -27 93t-70 35t-70 -35t-27 -93zM685 349q81 0 133 -51.5t52 -132.5
t-51.5 -133t-133.5 -52t-133.5 52t-51.5 133t52 132.5t133 51.5zM685 36q43 0 70 35t27 94q0 58 -27 93t-70 35t-70.5 -35t-27.5 -93t27.5 -93.5t70.5 -35.5z" />
    <glyph glyph-name="ampersand" unicode="&#x26;" horiz-adv-x="785" 
d="M739 279h-66q-10 -82 -53 -149l19 -23q19 -21 53 -21h47v-86h-114q-58 0 -86 34l-23 27q-34 -37 -90 -58.5t-121 -21.5q-119 0 -189 56.5t-70 153.5q0 68 49 125.5t134 91.5l-29 36q-57 81 -57 148q0 80 62 129t163 49q91 0 147.5 -47t56.5 -124q0 -58 -42.5 -105
t-135.5 -94l173 -207q32 61 32 129v39h140v-82zM372 683q-42 -1 -67 -25t-25 -67q0 -41 51 -115l13 -15q53 26 85.5 61t32.5 71q0 45 -24 68t-66 22zM319 62q94 -1 144 64l-180 218q-49 -24 -78.5 -62.5t-29.5 -82.5q0 -64 38.5 -101t105.5 -36z" />
    <glyph glyph-name="quotesingle" unicode="'" horiz-adv-x="247" 
d="M80 557l-10 213h107l-9 -213h-88z" />
    <glyph glyph-name="parenleft" unicode="(" horiz-adv-x="414" 
d="M357 767q-64 -55 -120 -184.5t-56 -278.5q0 -150 56 -280t120 -183l-78 -62q-98 78 -159.5 216t-61.5 309q0 169 61.5 307t159.5 217z" />
    <glyph glyph-name="parenright" unicode=")" horiz-adv-x="414" 
d="M136 828q98 -79 159.5 -217t61.5 -307q0 -171 -61.5 -309t-159.5 -216l-78 62q64 53 119.5 183.5t55.5 279.5t-55.5 278.5t-119.5 184.5z" />
    <glyph glyph-name="asterisk" unicode="*" horiz-adv-x="551" 
d="M318 748l-8 -175l163 63l21 5l26 -82l-18 -7l-171 -46l111 -135l11 -18l-70 -51l-12 16l-95 148l-96 -148l-13 -16l-70 51l11 17l111 137l-170 44l-19 8l27 82l20 -5l164 -63l-10 174l1 22h86v-21z" />
    <glyph glyph-name="plus" unicode="+" horiz-adv-x="654" 
d="M594 351v-88h-221v-215h-92v215h-221v88h221v215h92v-215h221z" />
    <glyph glyph-name="comma" unicode="," horiz-adv-x="183" 
d="M76 116q34 0 55 -22t21 -62q0 -51 -32 -101t-86 -85l-28 24q54 51 68 109q-34 3 -53.5 22.5t-19.5 46.5q0 29 21 48.5t54 19.5z" />
    <glyph glyph-name="hyphen" unicode="-" horiz-adv-x="527" 
d="M60 318h407v-88h-407v88z" />
    <glyph glyph-name="period" unicode="." horiz-adv-x="213" 
d="M107 -20q-33 0 -55 19.5t-22 48.5t22 48.5t55 19.5t54.5 -19.5t21.5 -48.5t-21.5 -48.5t-54.5 -19.5z" />
    <glyph glyph-name="slash" unicode="/" horiz-adv-x="545" 
d="M22 -89l390 889h110l-390 -889h-110z" />
    <glyph glyph-name="zero" unicode="0" horiz-adv-x="724" 
d="M362 770q143 0 226 -110t83 -284q0 -175 -83 -285.5t-226 -110.5q-144 0 -226.5 110t-82.5 286q0 174 82.5 284t226.5 110zM362 75q81 0 130 79.5t49 221.5t-49 220.5t-130 78.5q-82 0 -130.5 -78.5t-48.5 -220.5q0 -141 49 -221t130 -80z" />
    <glyph glyph-name="one" unicode="1" horiz-adv-x="493" 
d="M321 85h120v-85h-373v85h131v528q-28 -8 -67 -8q-36 0 -62 7v90q16 -2 29 -2q103 0 124 50h98v-665z" />
    <glyph glyph-name="two" unicode="2" horiz-adv-x="647" 
d="M57 0v50q0 55 29.5 103.5t73.5 81t95 67.5t95 64.5t73 71t29 88.5q0 72 -37 110.5t-98 38.5q-62 0 -101 -42t-39 -122l1 -19h-110q-2 11 -2 19q0 115 69.5 187t183.5 72q118 0 185.5 -62t67.5 -173q0 -60 -28 -111.5t-69.5 -85.5t-91 -67.5t-92.5 -59t-73 -58.5t-33 -68
h311v100h82v-185h-521z" />
    <glyph glyph-name="three" unicode="3" horiz-adv-x="619" 
d="M424 382q58 -30 103 -78.5t45 -104.5q0 -83 -78 -151t-193 -68q-112 0 -185 81.5t-73 179.5l1 18h119q-1 -17 -1 -25q0 -71 37.5 -114.5t101.5 -43.5q61 0 100.5 39t39.5 99q0 55 -37.5 90.5t-103.5 35.5h-46v78h48q63 0 97 33t34 91q0 60 -37 96.5t-97 36.5
q-61 0 -97.5 -42.5t-36.5 -109.5l1 -15h-116q-1 10 -1 15q0 106 68.5 176.5t162.5 70.5q131 0 209.5 -68t78.5 -150q0 -58 -43 -101t-101 -69z" />
    <glyph glyph-name="four" unicode="4" horiz-adv-x="628" 
d="M595 216h-118v-131h92v-85h-319v85h109v131h-347v81l353 453h112v-453h118v-81zM118 297h241v315z" />
    <glyph glyph-name="five" unicode="5" horiz-adv-x="643" 
d="M343 510q115 0 176 -70t61 -188q0 -117 -74 -194.5t-194 -77.5q-114 0 -183.5 73t-68.5 181v9h111v-9q-1 -73 36.5 -116t100.5 -43q66 0 105.5 48.5t39.5 131.5q0 76 -38 126.5t-103 50.5q-41 0 -75 -20.5t-47 -37t-16 -24.5l-88 16l38 384h413v-92h-334l-23 -212
q67 64 163 64z" />
    <glyph glyph-name="six" unicode="6" horiz-adv-x="662" 
d="M621 225q0 -105 -73 -175t-200 -70q-137 0 -215 105.5t-78 272.5q0 193 77.5 302.5t216.5 109.5q99 0 163 -54t76 -141h-118q-32 100 -121 100q-76 0 -120 -75.5t-44 -225.5q0 -12 4 -20q21 56 73.5 87t120.5 31q95 0 166.5 -74.5t71.5 -172.5zM354 385q-64 0 -110 -44.5
t-46 -110.5q0 -61 45.5 -108t105.5 -47q67 0 109.5 42t42.5 111q0 67 -43.5 112t-103.5 45z" />
    <glyph glyph-name="seven" unicode="7" horiz-adv-x="605" 
d="M49 750h525v-85q-126 -131 -201.5 -306t-75.5 -359h-135q0 169 94.5 359.5t212.5 305.5h-335v-115h-85v200z" />
    <glyph glyph-name="eight" unicode="8" horiz-adv-x="672" 
d="M474 399q69 -24 107.5 -73.5t38.5 -116.5q0 -99 -75 -164t-209 -65t-209 65t-75 164q0 67 38.5 116.5t107.5 73.5q-108 50 -108 167q0 86 66 145t180 59q115 0 180.5 -58.5t65.5 -145.5q0 -117 -108 -167zM336 688q-59 0 -97 -35t-38 -88q0 -62 36 -96.5t99 -34.5
t99 34.5t36 96.5q0 54 -37.5 88.5t-97.5 34.5zM336 70q69 0 114 40t45 101q0 66 -44 104.5t-115 38.5t-115 -38.5t-44 -104.5q0 -61 45 -101t114 -40z" />
    <glyph glyph-name="nine" unicode="9" horiz-adv-x="662" 
d="M315 770q137 0 214.5 -105.5t77.5 -272.5q0 -192 -77 -302t-216 -110q-102 0 -167.5 53t-75.5 140h117q28 -98 126 -98q157 0 164 311q-25 -54 -78 -82t-121 -28q-94 0 -165.5 75t-71.5 173q0 105 72.5 175.5t200.5 70.5zM309 363q63 0 109 45.5t46 111.5q0 60 -45 107.5
t-105 47.5q-68 0 -110.5 -42.5t-42.5 -111.5q0 -67 44 -112.5t104 -45.5z" />
    <glyph glyph-name="colon" unicode=":" horiz-adv-x="213" 
d="M107 334q-33 0 -55 19.5t-22 48.5t22 48.5t55 19.5t54.5 -19.5t21.5 -48.5t-21.5 -48.5t-54.5 -19.5zM107 -20q-33 0 -55 19.5t-22 48.5t22 48.5t55 19.5t54.5 -19.5t21.5 -48.5t-21.5 -48.5t-54.5 -19.5z" />
    <glyph glyph-name="semicolon" unicode=";" horiz-adv-x="282" 
d="M146 334q-33 0 -55 19.5t-22 48.5t22 48.5t55 19.5t54.5 -19.5t21.5 -48.5t-21.5 -48.5t-54.5 -19.5zM146 116q34 0 55 -22t21 -62q0 -51 -32 -101t-86 -85l-29 24q55 53 69 109q-35 2 -54.5 21.5t-19.5 47.5q0 29 21.5 48.5t54.5 19.5z" />
    <glyph glyph-name="less" unicode="&#x3c;" horiz-adv-x="652" 
d="M592 536v-89l-442 -175l442 -180v-89l-534 230v80z" />
    <glyph glyph-name="equal" unicode="=" horiz-adv-x="654" 
d="M60 467h534v-89h-534v89zM60 235h534v-88h-534v88z" />
    <glyph glyph-name="greater" unicode="&#x3e;" horiz-adv-x="652" 
d="M60 536l534 -223v-80l-534 -230v89l442 180l-442 175v89z" />
    <glyph glyph-name="question" unicode="?" horiz-adv-x="553" 
d="M32 540q0 101 64 165.5t182 64.5q117 0 178 -57t61 -139q0 -46 -15 -81.5t-37 -56t-48.5 -43.5t-48.5 -43.5t-37 -55t-15 -79.5l1 -19h-107q-1 16 -1 29q0 55 18 96.5t43.5 67t51.5 49t44 56t18 74.5q0 16 -4.5 34t-15.5 39.5t-35 35.5t-58 14q-64 0 -92 -46t-28 -105
q0 -5 1 -11v-6h-119q-1 9 -1 17zM270 -20q-33 0 -54.5 19.5t-21.5 48.5t21.5 48.5t54.5 19.5t54.5 -19.5t21.5 -48.5t-21.5 -48.5t-54.5 -19.5z" />
    <glyph glyph-name="at" unicode="@" horiz-adv-x="1036" 
d="M767 523l-73 -294q-11 -44 6.5 -75.5t58.5 -31.5q60 0 104 58t44 162q0 161 -102 257t-266 96q-109 0 -202 -52t-150 -149.5t-57 -219.5q0 -160 108 -266.5t271 -106.5q127 0 212 54l38 -53q-108 -65 -257 -65q-192 0 -318 124t-126 313q0 142 67 254t177.5 171.5
t243.5 59.5q192 0 312.5 -115.5t120.5 -301.5q0 -132 -66.5 -206.5t-172.5 -74.5q-56 0 -91 25.5t-50 63.5q-26 -37 -76 -62t-106 -25q-81 0 -121 70t-16 177q23 106 92.5 168t154.5 62q51 0 85 -21t45 -54l14 58h96zM596 223l38 151q8 42 -15.5 69.5t-67.5 27.5
q-54 0 -99.5 -44t-61.5 -117q-18 -76 3.5 -126.5t73.5 -50.5q42 0 77.5 25t51.5 65z" />
    <glyph glyph-name="A" unicode="A" horiz-adv-x="762" 
d="M671 85h69v-85h-282v85h80l-45 154h-248l-44 -154h78v-85h-257v85h72l210 669h155zM265 308h208l-104 359z" />
    <glyph glyph-name="B" unicode="B" horiz-adv-x="709" 
d="M448 395q208 -17 208 -187q0 -208 -269 -208h-327v85h77v580h-77v85h313q240 0 240 -181q0 -77 -41.5 -122t-123.5 -52zM259 665v-235h105q124 0 124 117q0 58 -32.5 88t-87.5 30h-109zM372 85q74 0 110 31t36 102q0 133 -149 133h-110v-266h113z" />
    <glyph glyph-name="C" unicode="C" horiz-adv-x="739" 
d="M564 267h119q-12 -136 -87.5 -211.5t-207.5 -75.5q-154 0 -242 112t-88 284q0 168 82.5 281t218.5 113q152 0 218 -124l9 104h82v-242h-115q-17 78 -60.5 119.5t-105.5 41.5q-89 0 -139.5 -80t-50.5 -213q0 -131 54 -213t144 -82q133 0 169 186z" />
    <glyph glyph-name="D" unicode="D" horiz-adv-x="758" 
d="M378 750q157 0 239.5 -102.5t82.5 -271.5q0 -171 -82 -273.5t-240 -102.5h-318v85h77v580h-77v85h318zM259 665v-580h102q97 0 149.5 77t52.5 214t-52.5 213t-149.5 76h-102z" />
    <glyph glyph-name="E" unicode="E" horiz-adv-x="660" 
d="M595 515h-72v51q0 59 -14 79t-54 20h-195v-236h181v-83h-181v-261h195q40 0 54 21.5t14 79.5v68h72v-254h-535v85h79v580h-79v85h535v-235z" />
    <glyph glyph-name="F" unicode="F" horiz-adv-x="636" 
d="M60 750h521v-232h-72v51q0 55 -14 75.5t-54 20.5h-180v-256h182v-82h-182v-242h106v-85h-307v85h80v580h-80v85z" />
    <glyph glyph-name="G" unicode="G" horiz-adv-x="777" 
d="M452 347h297v-70h-51v-277h-78l-11 126q-34 -68 -94 -107t-141 -39q-151 0 -233.5 109.5t-82.5 286.5q0 175 83.5 284.5t230.5 109.5q150 0 223 -132l10 112h82v-232h-122q-37 151 -169 151q-95 0 -148 -81t-53 -212t54.5 -213t151.5 -82q77 0 128 51.5t55 144.5h-132v70
z" />
    <glyph glyph-name="H" unicode="H" horiz-adv-x="837" 
d="M777 665h-77v-580h77v-85h-265v85h66v262h-319v-262h66v-85h-265v85h77v580h-77v85h265v-85h-66v-239h319v239h-66v85h265v-85z" />
    <glyph glyph-name="I" unicode="I" horiz-adv-x="401" 
d="M60 0v85h80v580h-80v85h281v-85h-80v-580h80v-85h-281z" />
    <glyph glyph-name="J" unicode="J" horiz-adv-x="593" 
d="M476 241q0 -128 -55 -194.5t-182 -66.5q-125 0 -173 63.5t-48 200.5v40h116v-63q0 -146 105 -146q56 0 85.5 38t29.5 108v444h-86v85h288v-85h-80v-424z" />
    <glyph glyph-name="K" unicode="K" horiz-adv-x="782" 
d="M674 85h72v-85h-278v85h67l-157 288l-113 -115l-4 9v-182h63v-85h-264v85h80v580h-80v85h266v-85h-65v-297l283 297h-83v85h271v-85h-66l-202 -205z" />
    <glyph glyph-name="L" unicode="L" horiz-adv-x="605" 
d="M260 665v-580h150q46 0 61.5 30.5t15.5 120.5v25h72v-261h-499v85h79v580h-79v85h293v-85h-93z" />
    <glyph glyph-name="M" unicode="M" horiz-adv-x="1040" 
d="M980 665h-79v-580h79v-85h-266v85h65v529l-252 -618h-47l-247 603v-514h65v-85h-241v85h80v580h-80v85h235l232 -576l233 576h223v-85z" />
    <glyph glyph-name="N" unicode="N" horiz-adv-x="806" 
d="M512 750h241v-85h-75v-665h-93l-359 553v-468h75v-85h-244v85h80v580h-80v85h175l352 -547v462h-72v85z" />
    <glyph glyph-name="O" unicode="O" horiz-adv-x="786" 
d="M393 770q157 0 246 -112.5t89 -281.5q0 -171 -89 -283.5t-246 -112.5q-158 0 -246.5 112t-88.5 284q0 170 88.5 282t246.5 112zM393 81q92 0 145 81t53 214q0 134 -52.5 213.5t-145.5 79.5t-145.5 -79.5t-52.5 -213.5t52.5 -214.5t145.5 -80.5z" />
    <glyph glyph-name="P" unicode="P" horiz-adv-x="678" 
d="M363 0h-303v85h80v580h-80v85h314q123 0 194.5 -56t71.5 -171q0 -119 -74.5 -179t-197.5 -60h-107v-199h102v-85zM261 366h91q69 0 110 38t41 112q0 76 -40.5 112.5t-110.5 36.5h-91v-299z" />
    <glyph glyph-name="Q" unicode="Q" horiz-adv-x="775" 
d="M555 22q9 -73 92 -73q6 0 14.5 1.5t14.5 2.5l5 1v-90q-30 -9 -68 -9q-133 0 -150 132q-32 -7 -73 -7q-106 0 -182.5 54t-113 142t-36.5 200q0 170 87.5 282t244.5 112t245.5 -112t88.5 -282q0 -119 -43.5 -212.5t-125.5 -141.5zM195 376q0 -136 51 -215.5t144 -79.5
t145 79.5t52 215.5t-52 214.5t-145 78.5t-144 -78t-51 -215z" />
    <glyph glyph-name="R" unicode="R" horiz-adv-x="747" 
d="M685 85h18v-85h-105q-52 0 -75 27.5t-23 90.5v91q0 51 -28 79.5t-79 28.5h-132v-232h68v-85h-269v85h80v580h-80v85h351q131 0 190.5 -49.5t59.5 -146.5q0 -77 -46 -129t-125 -63q69 -9 102.5 -48t33.5 -96v-64q0 -38 13.5 -53.5t45.5 -15.5zM386 401q62 0 101 36.5
t39 97.5q0 130 -138 130h-127v-264h125z" />
    <glyph glyph-name="S" unicode="S" horiz-adv-x="639" 
d="M346 441q44 -18 72.5 -31.5t63.5 -36t54.5 -46t33.5 -58.5t14 -76q0 -99 -63.5 -156t-170.5 -57q-71 0 -126.5 26t-80.5 72l-9 -78h-66v237h88q6 -78 53 -123.5t114 -45.5q56 0 92 30.5t36 82.5q0 53 -39.5 87.5t-122.5 68.5q-50 21 -80.5 37.5t-65 44.5t-51 67t-16.5 91
q0 92 63.5 142.5t153.5 50.5q63 0 112 -23t70 -55l7 58h68v-217h-90q-3 70 -44 112t-96 42q-52 0 -83.5 -27t-31.5 -74q0 -50 35 -83.5t106 -61.5z" />
    <glyph glyph-name="T" unicode="T" horiz-adv-x="703" 
d="M504 0h-304v85h91v593h-120q-29 0 -42 -24t-13 -88v-51h-68v235h607v-235h-68v51q1 64 -12.5 88t-43.5 24h-118v-593h91v-85z" />
    <glyph glyph-name="U" unicode="U" horiz-adv-x="739" 
d="M622 239q0 -120 -61.5 -189.5t-183.5 -69.5q-257 0 -257 259v426h-80v85h271v-85h-69v-434q0 -70 34.5 -113t101.5 -43q68 0 102 43t34 113v434h-63v85h251v-85h-80v-426z" />
    <glyph glyph-name="V" unicode="V" horiz-adv-x="745" 
d="M454 750h270v-85h-81l-200 -669h-140l-202 669h-79v85h282v-85h-76l155 -550l151 550h-80v85z" />
    <glyph glyph-name="W" unicode="W" horiz-adv-x="1152" 
d="M864 750h266v-85h-81l-190 -669h-135l-149 563l-150 -563h-133l-191 669h-79v85h282v-85h-76l144 -543l145 543h-79v85h293v-85h-78l146 -548l141 548h-76v85z" />
    <glyph glyph-name="X" unicode="X" horiz-adv-x="731" 
d="M636 85h70v-85h-276v85h67l-153 234l-140 -234h69v-85h-251v85h67l187 312l-178 268h-72v85h277v-85h-66l148 -229l139 229h-69v85h250v-85h-68l-186 -295z" />
    <glyph glyph-name="Y" unicode="Y" horiz-adv-x="724" 
d="M442 750h261v-85h-75l-204 -379v-201h84v-85h-295v85h84v205l-198 375h-77v85h285v-85h-79l147 -281l141 281h-74v85z" />
    <glyph glyph-name="Z" unicode="Z" horiz-adv-x="598" 
d="M501 257h70v-257h-511v69l356 601h-201q-40 0 -54 -22.5t-14 -78.5v-50h-69v231h478v-67l-353 -603h227q40 0 55.5 24t15.5 82v71z" />
    <glyph glyph-name="bracketleft" unicode="[" horiz-adv-x="311" 
d="M60 -190v990h193v-85h-81v-820h81v-85h-193z" />
    <glyph glyph-name="backslash" unicode="\" horiz-adv-x="545" 
d="M22 800h110l390 -889h-110z" />
    <glyph glyph-name="bracketright" unicode="]" horiz-adv-x="311" 
d="M251 800v-990h-193v85h81v820h-81v85h193z" />
    <glyph glyph-name="asciicircum" unicode="^" horiz-adv-x="371" 
d="M371 495h-79l-106 221l-107 -221h-79l146 298h79z" />
    <glyph glyph-name="underscore" unicode="_" horiz-adv-x="579" 
d="M22 -51h535v-88h-535v88z" />
    <glyph glyph-name="grave" unicode="`" horiz-adv-x="237" 
d="M151 580l-151 179h103l134 -179h-86z" />
    <glyph glyph-name="a" unicode="a" horiz-adv-x="603" 
d="M502 81h63v-83h-176v66q-64 -84 -179 -84q-78 0 -123 38t-45 115q0 162 236 162h109v45q0 106 -103 106q-49 0 -78 -25.5t-29 -64.5v-9h-112v10q0 80 58 126t167 46q112 0 162 -49t50 -145v-254zM263 61q52 0 82 25.5t42 58.5v94h-86q-140 0 -140 -93q0 -40 27.5 -62.5
t74.5 -22.5z" />
    <glyph glyph-name="b" unicode="b" horiz-adv-x="612" 
d="M349 530q94 0 159 -76t65 -199q0 -122 -65.5 -198.5t-158.5 -76.5q-57 0 -102 25t-66 64l-14 -69h-91v673h-64v77h179v-294q24 33 65.5 53.5t92.5 20.5zM311 70q60 0 100 52.5t40 132.5q0 81 -40 133t-100 52q-50 0 -85 -35t-35 -84v-132q0 -49 35 -84t85 -35z" />
    <glyph glyph-name="c" unicode="c" horiz-adv-x="578" 
d="M423 318q-10 60 -44 94.5t-81 34.5q-59 0 -97.5 -54t-38.5 -138t38.5 -138.5t97.5 -54.5q47 0 81 35.5t44 96.5h120q-9 -96 -75 -155t-170 -59q-117 0 -187.5 77.5t-70.5 197.5t70.5 197.5t187.5 77.5q104 0 169.5 -58t75.5 -154h-120z" />
    <glyph glyph-name="d" unicode="d" horiz-adv-x="638" 
d="M537 81h63v-81h-178v54q-55 -74 -158 -74q-94 0 -159 76.5t-65 198.5q0 123 65 199t159 76q104 0 158 -75v218h-73v77h188v-669zM302 70q50 0 85 35t35 84v132q0 49 -35 83.5t-85 34.5q-60 0 -100 -51.5t-40 -132.5q0 -80 40 -132.5t100 -52.5z" />
    <glyph glyph-name="e" unicode="e" horiz-adv-x="592" 
d="M555 262v-33h-392q7 -77 44.5 -122t93.5 -45q47 0 82.5 29.5t47.5 79.5h121q-20 -88 -86 -139.5t-163 -51.5q-117 0 -190 77.5t-73 197.5q0 119 73 197t190 78t184.5 -73.5t67.5 -194.5zM300 455q-55 0 -92 -42.5t-44 -117.5h272q-7 73 -44.5 116.5t-91.5 43.5z" />
    <glyph glyph-name="f" unicode="f" horiz-adv-x="354" 
d="M285 679q-38 0 -53.5 -14.5t-15.5 -44.5v-110h89v-81h-89v-348h86v-81h-264v81h63v348h-63v81h63v139q0 57 34 85.5t110 28.5q38 0 72 -9v-78q-21 3 -32 3z" />
    <glyph glyph-name="g" unicode="g" horiz-adv-x="626" 
d="M553 560q-82 0 -83 -82q55 -47 55 -120q0 -78 -60 -125.5t-160 -47.5q-47 0 -88 11q-44 -13 -44 -46q0 -26 26 -36t86 -10h49q127 0 184.5 -33t57.5 -112q0 -86 -71.5 -129.5t-225.5 -43.5q-239 0 -239 135q0 75 79 111q-45 25 -45 82q0 36 25.5 65.5t60.5 41.5
q-74 48 -74 137q0 76 60 124t159 48q65 0 113 -21q3 128 115 128q43 0 52 -9v-71q-18 3 -32 3zM305 253q51 0 80 27t29 78q0 49 -29 77t-80 28q-50 0 -79 -28t-29 -77q0 -51 28.5 -78t79.5 -27zM333 7h-75q-42 0 -69 4q-57 -28 -57 -80q0 -44 42.5 -66.5t115.5 -22.5h29
q69 0 117 26.5t48 70.5q0 37 -34.5 52.5t-116.5 15.5z" />
    <glyph glyph-name="h" unicode="h" horiz-adv-x="641" 
d="M543 81h61v-81h-228v81h52v251q0 58 -26 87t-69 29q-50 0 -83.5 -33.5t-33.5 -84.5v-249h52v-81h-230v81h63v588h-63v81h178v-303q54 83 165 83q62 0 112 -40.5t50 -125.5v-283z" />
    <glyph glyph-name="i" unicode="i" horiz-adv-x="316" 
d="M145 612q-37 0 -58 18.5t-21 47.5t21 48t58 19q38 0 59 -19t21 -48t-21 -47.5t-59 -18.5zM216 81h63v-81h-241v81h63v347h-63v82h178v-429z" />
    <glyph glyph-name="j" unicode="j" horiz-adv-x="237" 
d="M91 602q-37 0 -58 19t-21 48t21 47.5t58 18.5q38 0 59 -18.5t21 -47.5q0 -30 -21 -48.5t-59 -18.5zM208 -95q0 -56 -28 -80.5t-88 -24.5q-46 0 -73 6v85q14 -3 29 -3q27 0 36 11.5t9 35.5v493h-73v82h188v-605z" />
    <glyph glyph-name="k" unicode="k" horiz-adv-x="645" 
d="M552 81h60v-81h-236v81h52l-118 174l-94 -70v-104h52v-81h-230v81h63v588h-63v81h178v-481l205 160h-59v81h235v-81h-54l-150 -112z" />
    <glyph glyph-name="l" unicode="l" horiz-adv-x="316" 
d="M216 81h63v-81h-241v81h63v588h-63v81h178v-669z" />
    <glyph glyph-name="m" unicode="m" horiz-adv-x="965" 
d="M867 81h60v-81h-227v81h52v251q0 54 -24 85t-70 31q-50 0 -82.5 -34.5t-32.5 -85.5v-247h52v-81h-219v81h52v251q0 55 -25 85.5t-70 30.5q-50 0 -83.5 -34t-33.5 -84v-249h52v-81h-230v81h63v347h-63v82h178v-62q54 82 165 82q54 0 94 -26.5t57 -73.5q23 49 70.5 74.5
t103.5 25.5q72 0 116.5 -46t44.5 -120v-283z" />
    <glyph glyph-name="n" unicode="n" horiz-adv-x="641" 
d="M543 81h61v-81h-228v81h52v251q0 55 -25 85.5t-70 30.5q-50 0 -83.5 -34t-33.5 -84v-249h52v-81h-230v81h63v347h-63v82h178v-62q54 82 165 82q72 0 117 -46t45 -120v-283z" />
    <glyph glyph-name="o" unicode="o" horiz-adv-x="598" 
d="M299 530q115 0 187 -77t72 -198t-72 -198t-187 -77q-114 0 -186.5 77.5t-72.5 197.5t72.5 197.5t186.5 77.5zM299 62q61 0 99 53t38 140t-38 139.5t-99 52.5q-60 0 -98.5 -52.5t-38.5 -139.5q0 -86 38.5 -139.5t98.5 -53.5z" />
    <glyph glyph-name="p" unicode="p" horiz-adv-x="614" 
d="M350 530q95 0 159.5 -74t64.5 -196t-65 -196t-159 -74q-52 0 -93.5 21t-65.5 54v-178h68v-77h-246v77h63v541h-63v82h178v-55q24 33 65.5 54t93.5 21zM312 76q60 0 100 51.5t40 132.5q0 82 -39.5 133t-100.5 51q-50 0 -85 -35t-35 -84l-1 3v-136l1 3q0 -49 35 -84t85 -35
z" />
    <glyph glyph-name="q" unicode="q" horiz-adv-x="614" 
d="M537 -113h63v-77h-246v77h68v177q-55 -74 -158 -74q-94 0 -159 74t-65 196t64.5 196t159.5 74q59 0 104.5 -27t65.5 -68l22 75h81v-623zM302 76q50 0 85 35t35 84v130q0 49 -35 84t-85 35q-61 0 -100.5 -51t-39.5 -133q0 -81 39.5 -132.5t100.5 -51.5z" />
    <glyph glyph-name="r" unicode="r" horiz-adv-x="415" 
d="M352 530q24 0 36 -5v-96q-21 7 -42 7q-61 0 -95.5 -45t-34.5 -134v-176h83v-81h-261v81h63v347h-63v82h178v-62q22 38 58.5 60t77.5 22z" />
    <glyph glyph-name="s" unicode="s" horiz-adv-x="494" 
d="M294 304q75 -23 118.5 -59.5t43.5 -105.5q0 -75 -47 -115t-125 -40q-120 0 -168 67l-5 -51h-66v158h78q5 -48 39 -78.5t83 -30.5q42 0 66 19t24 55q0 38 -29 59t-86 37q-32 11 -51 18.5t-45 22.5t-40.5 31t-25 41t-10.5 56q0 69 47 104.5t115 35.5q100 0 147 -60l5 41h65
v-143h-77q-7 45 -37.5 74.5t-72.5 29.5q-36 0 -58.5 -18.5t-22.5 -50.5q0 -33 31.5 -53t103.5 -44z" />
    <glyph glyph-name="t" unicode="t" horiz-adv-x="359" 
d="M314 0q-36 -14 -99 -14q-79 0 -109 33.5t-30 95.5v314h-64v81h29q43 0 59 24t21 82v52h70v-158h120v-81h-120v-295q0 -56 75 -56q32 0 48 3v-81z" />
    <glyph glyph-name="u" unicode="u" horiz-adv-x="614" 
d="M515 81h63v-81h-178v55q-60 -75 -165 -75q-76 0 -119 47.5t-43 118.5v283h-61v81h176v-333q0 -53 24.5 -84t70.5 -31q51 0 84 33.5t33 84.5v249h-58v81h173v-429z" />
    <glyph glyph-name="v" unicode="v" horiz-adv-x="581" 
d="M570 510v-81h-60l-157 -432h-125l-159 432h-58v81h226v-81h-53l116 -346l115 346h-60v81h215z" />
    <glyph glyph-name="w" unicode="w" horiz-adv-x="896" 
d="M885 510v-81h-59l-146 -432h-114l-118 396l-116 -396h-116l-148 432h-57v81h230v-81h-57l101 -344l120 425h103l124 -424l99 343h-63v81h217z" />
    <glyph glyph-name="x" unicode="x" horiz-adv-x="588" 
d="M503 81h66v-81h-247v81h48l-97 131l-87 -131h36v-81h-209v81h53l145 198l-121 150h-66v81h248v-81h-48l75 -97l83 97h-18v81h196v-81h-57l-143 -164z" />
    <glyph glyph-name="y" unicode="y" horiz-adv-x="584" 
d="M573 510v-81h-58l-188 -492q-27 -70 -66 -107t-101 -37q-27 0 -60 6l5 85q36 -3 52 -3q62 0 81 55l15 42l-181 451h-60v81h233v-81h-57l117 -327l121 327h-62v81h209z" />
    <glyph glyph-name="z" unicode="z" horiz-adv-x="511" 
d="M406 170h61v-170h-434v52l288 397h-159q-33 0 -44.5 -14t-11.5 -52v-25h-61v152h409v-50l-287 -399h180q34 0 46.5 15.5t12.5 54.5v39z" />
    <glyph glyph-name="braceleft" unicode="{" horiz-adv-x="415" 
d="M169 709q0 122 146 122q15 0 43 -6v-85q-9 2 -29 2q-19 0 -29.5 -3.5t-15 -15t-5 -19.5t-0.5 -31v-240q0 -48 -30 -82t-90 -36q60 -2 90 -36t30 -82v-234q0 -23 0.5 -30.5t5 -19.5t15 -15.5t29.5 -3.5q15 0 29 3v-85q-29 -6 -43 -6q-146 0 -146 122v264q0 39 -17.5 60
t-50.5 21h-43v84h43q33 0 50.5 21t17.5 60v271z" />
    <glyph glyph-name="bar" unicode="|" horiz-adv-x="232" 
d="M60 -230v1030h112v-1030h-112z" />
    <glyph glyph-name="braceright" unicode="}" horiz-adv-x="415" 
d="M246 -72q0 -122 -145 -122q-21 0 -43 6v85q12 -3 28 -3q19 0 30 3.5t15.5 15t5 19.5t0.5 31v242q0 47 29.5 81t89.5 36q-60 2 -89.5 36t-29.5 82v233q0 23 -0.5 31t-5 19.5t-15.5 15t-30 3.5q-12 0 -28 -2v85q27 6 43 6q145 0 145 -123v-262q0 -39 17.5 -60.5t50.5 -21.5
h44v-84h-44q-33 0 -50.5 -21t-17.5 -60v-271z" />
    <glyph glyph-name="asciitilde" unicode="~" horiz-adv-x="459" 
d="M337 312q-48 0 -116 23t-90 23q-30 0 -48 -15t-18 -37h-65q0 60 35.5 100.5t89.5 40.5q48 0 115.5 -22.5t90.5 -22.5q28 0 45.5 14.5t17.5 35.5h65q0 -60 -35 -100t-87 -40z" />
    <glyph glyph-name="exclamdown" unicode="&#xa1;" horiz-adv-x="213" 
d="M107 580q33 0 54.5 -19.5t21.5 -48.5t-21.5 -48.5t-54.5 -19.5t-55 19.5t-22 48.5t22 48.5t55 19.5zM164 -190h-116l6 547h106z" />
    <glyph glyph-name="cent" unicode="&#xa2;" horiz-adv-x="614" 
d="M354 61q33 14 56.5 48.5t30.5 84.5h120q-8 -87 -63 -144t-144 -68v-91h-81v92q-99 14 -157 89t-58 183t58 182.5t157 89.5v92h81v-91q88 -10 143 -66.5t64 -143.5h-120q-17 102 -87 130v-387zM180 255q0 -69 25.5 -121t67.5 -71v383q-42 -19 -67.5 -70.5t-25.5 -120.5z
" />
    <glyph glyph-name="sterling" unicode="&#xa3;" horiz-adv-x="668" 
d="M601 206q2 -10 2 -20q0 -98 -54.5 -152t-159.5 -54q-42 0 -96.5 18.5t-89.5 18.5q-39 0 -82 -8.5t-99 -8.5v86q159 0 159 132q0 34 -11 70h-119v61h97q-2 6 -16 38.5t-18.5 44.5t-13 39t-11.5 49.5t-3 46.5q0 93 66 148t155 55q59 0 107 -21t69 -55l8 56h66v-217h-89
q-3 73 -39 113.5t-95 40.5q-51 0 -84.5 -33.5t-33.5 -86.5q0 -29 6 -60.5t12.5 -52t19 -55t17.5 -50.5h187v-61h-170q7 -40 7 -74q0 -64 -36 -108q17 -3 55.5 -17t69.5 -14q55 -1 82 27t27 84q0 18 -1 20h109z" />
    <glyph glyph-name="currency" unicode="&#xa4;" horiz-adv-x="632" 
d="M580 255q0 -126 -82 -205l69 -97h-86l-40 57q-57 -30 -125 -30q-73 0 -129 32l-41 -59h-85l70 100q-79 79 -79 202q0 125 79 202l-71 100h85l41 -59q58 32 130 32q68 0 126 -30l40 57h85l-68 -98q81 -78 81 -204zM316 57q61 0 104 55t43 143q0 89 -43 143.5t-104 54.5
t-104.5 -54.5t-43.5 -143.5q0 -88 43.5 -143t104.5 -55z" />
    <glyph glyph-name="yen" unicode="&#xa5;" horiz-adv-x="725" 
d="M442 750h261v-85h-75l-183 -316h149v-61h-170v-68h170v-61h-170v-74h84v-85h-295v85h84v74h-170v61h170v68h-170v61h148l-176 316h-77v85h285v-85h-79l149 -266l147 266h-82v85z" />
    <glyph glyph-name="brokenbar" unicode="&#xa6;" horiz-adv-x="273" 
d="M80 347v453h113v-453h-113zM80 -230v454h113v-454h-113z" />
    <glyph glyph-name="section" unicode="&#xa7;" horiz-adv-x="661" 
d="M500 118q64 -51 64 -132q0 -91 -62 -142t-168 -51q-64 0 -116 19t-77 56l-7 -57h-66v210h87q4 -67 45.5 -107.5t106.5 -40.5q53 0 89.5 27t36.5 75q0 46 -38.5 76t-114.5 58q-45 17 -76 32.5t-62.5 39.5t-47.5 57t-16 75q0 92 89 137q-73 56 -73 137q0 83 63 132t149 49
q56 0 102 -17t68 -44l5 43h67v-193h-89q-3 64 -37 99.5t-89 35.5q-48 0 -79.5 -27.5t-31.5 -68.5q0 -40 33.5 -68t97.5 -52q44 -17 69 -27.5t60 -30.5t53.5 -40t32 -50.5t13.5 -66.5q0 -95 -81 -143zM188 328q0 -12 3.5 -23t11.5 -20.5t15.5 -17.5t21 -16.5t22 -14
t24.5 -12.5t23.5 -10.5t23.5 -10t19 -7.5q40 -16 72 -32q47 28 47 77q0 46 -37.5 75.5t-114.5 58.5q-46 16 -80 33q-51 -26 -51 -80z" />
    <glyph glyph-name="dieresis" unicode="&#xa8;" horiz-adv-x="314" 
d="M62 621q-26 0 -44 16.5t-18 39.5t18 39.5t44 16.5t44 -16.5t18 -39.5t-18 -39.5t-44 -16.5zM252 621q-26 0 -44 16.5t-18 39.5t18 39.5t44 16.5t44 -16.5t18 -39.5t-18 -39.5t-44 -16.5z" />
    <glyph glyph-name="copyright" unicode="&#xa9;" horiz-adv-x="885" 
d="M443 770q164 0 274.5 -113.5t110.5 -280.5q0 -170 -110 -283t-275 -113t-275 113t-110 283q0 167 110.5 280.5t274.5 113.5zM443 33q138 0 233 99.5t95 243.5t-95 242.5t-233 98.5t-233.5 -98.5t-95.5 -242.5q0 -145 95.5 -244t233.5 -99zM448 221q69 0 90 100h71
q-7 -72 -49 -112t-117 -40q-85 0 -133 58.5t-48 148.5q0 87 46 145.5t121 58.5q80 0 121 -56l5 46h48v-129h-69q-9 41 -32 64t-56 23q-47 0 -74 -41.5t-27 -110.5q0 -70 28 -112.5t75 -42.5z" />
    <glyph glyph-name="ordfeminine" unicode="&#xaa;" horiz-adv-x="313" 
d="M266 556h32v-45h-98v32q-31 -41 -92 -41q-93 0 -93 75q0 40 32.5 60t87.5 20h63v15q0 53 -50 53q-23 0 -37.5 -12t-16.5 -30v-5h-66v5q0 41 32.5 64t91.5 23q114 0 114 -100v-114zM140 546q25 0 41.5 13t16.5 31v37h-50q-63 0 -63 -42q0 -39 55 -39z" />
    <glyph glyph-name="guillemotleft" unicode="&#xab;" horiz-adv-x="550" 
d="M183 41l-153 214l153 214h109l-153 -214l153 -214h-109zM411 41l-153 214l153 214h109l-153 -214l153 -214h-109z" />
    <glyph glyph-name="logicalnot" unicode="&#xac;" horiz-adv-x="838" 
d="M149 351h535v-272h-93v184h-442v88z" />
    <glyph glyph-name="registered" unicode="&#xae;" horiz-adv-x="831" 
d="M415 770q164 0 274.5 -113.5t110.5 -280.5q0 -170 -110 -283t-275 -113t-275 113t-110 283q0 167 110.5 280.5t274.5 113.5zM415 33q138 0 233.5 99t95.5 244q0 144 -95.5 242.5t-233.5 98.5t-233 -98.5t-95 -242.5t95 -243.5t233 -99.5zM551 262q0 -35 32 -35h9v-47h-61
q-30 0 -43 14.5t-13 47.5v52q0 54 -56 54h-64v-121h37v-47h-154v47h44v296h-44v47h192q140 0 140 -100q0 -41 -26 -68t-71 -32q40 -4 59 -24t19 -49v-35zM415 390q33 0 53.5 18.5t20.5 48.5q0 66 -73 66h-61v-133h60z" />
    <glyph glyph-name="macron" unicode="&#xaf;" horiz-adv-x="373" 
d="M0 721h373v-83h-373v83z" />
    <glyph glyph-name="degree" unicode="&#xb0;" horiz-adv-x="407" 
d="M195 770q66 0 109.5 -43.5t43.5 -109.5q0 -67 -43.5 -110.5t-109.5 -43.5t-109 43.5t-43 110.5q0 66 43 109.5t109 43.5zM105 617q0 -48 25.5 -78t64.5 -30q40 0 65.5 29.5t25.5 78.5q0 47 -26 76t-65 29t-64.5 -29t-25.5 -76z" />
    <glyph glyph-name="plusminus" unicode="&#xb1;" horiz-adv-x="1206" 
d="M870 308h-221v-182h221v-88h-534v88h221v182h-221v89h221v205h92v-205h221v-89z" />
    <glyph glyph-name="uni00B2" unicode="&#xb2;" horiz-adv-x="364" 
d="M29 490v30q0 35 23.5 64t56.5 49.5t66 39.5t56 43.5t23 52.5q0 36 -20 55.5t-52 19.5q-34 0 -55 -21.5t-21 -62.5l1 -10h-72q-1 6 -1 10q0 62 41 101.5t108 39.5q70 0 109.5 -33.5t39.5 -92.5q0 -37 -22 -68t-53.5 -51.5t-63 -38t-55.5 -37t-26 -39.5h170v51h53v-102
h-306z" />
    <glyph glyph-name="uni00B3" unicode="&#xb3;" horiz-adv-x="367" 
d="M252 695q36 -9 59.5 -34t23.5 -62q0 -54 -43.5 -87t-114.5 -33q-69 0 -110.5 38t-41.5 99l1 14h78q-1 -9 -1 -14q0 -36 19.5 -57.5t54.5 -21.5q33 0 52.5 19t19.5 52q0 63 -71 63h-28v42h29q69 0 69 62q0 32 -19.5 50.5t-52.5 18.5q-34 0 -52.5 -21.5t-18.5 -56.5v-8h-76
q-1 5 -1 8q0 60 41.5 97.5t108.5 37.5q70 0 111.5 -31.5t41.5 -82.5q0 -35 -23 -59t-56 -33z" />
    <glyph glyph-name="acute" unicode="&#xb4;" horiz-adv-x="237" 
d="M0 580l134 179h103l-151 -179h-86z" />
    <glyph glyph-name="paragraph" unicode="&#xb6;" horiz-adv-x="724" 
d="M58 512q0 103 67.5 170.5t169.5 67.5h371v-81h-73v-809h-91v809h-116v-809h-91v411q-102 0 -169.5 68.5t-67.5 172.5z" />
    <glyph glyph-name="periodcentered" unicode="&#xb7;" horiz-adv-x="272" 
d="M136 307q-33 0 -54.5 19.5t-21.5 48.5t21.5 48.5t54.5 19.5t54.5 -19.5t21.5 -48.5t-21.5 -48.5t-54.5 -19.5z" />
    <glyph glyph-name="cedilla" unicode="&#xb8;" horiz-adv-x="254" 
d="M142 -63q42 0 77 -21.5t35 -69.5q0 -51 -41.5 -75.5t-108.5 -24.5q-49 0 -70 16v41q28 -8 53 -8q43 0 64.5 12t21.5 42q0 21 -15 33.5t-41 12.5q-21 0 -38.5 -6.5t-24.5 -12.5l-6 -7h-48l49 135h49l-33 -87q35 20 77 20z" />
    <glyph glyph-name="uni00B9" unicode="&#xb9;" horiz-adv-x="256" 
d="M171 541h67v-51h-220v51h74v268q-16 -3 -35 -3q-17 0 -38 3v55q10 -2 16 -2q62 0 73 28h63v-349z" />
    <glyph glyph-name="ordmasculine" unicode="&#xba;" horiz-adv-x="311" 
d="M156 770q60 0 98 -37.5t38 -95.5q0 -59 -38 -97t-98 -38q-61 0 -99 38t-38 97q0 58 38.5 95.5t98.5 37.5zM156 547q29 0 46.5 24t17.5 66q0 41 -17.5 64.5t-46.5 23.5t-47 -23.5t-18 -64.5t18 -65.5t47 -24.5z" />
    <glyph glyph-name="guillemotright" unicode="&#xbb;" horiz-adv-x="550" 
d="M183 255l-153 214h109l153 -214l-153 -214h-109zM411 255l-153 214h109l153 -214l-153 -214h-109z" />
    <glyph glyph-name="onequarter" unicode="&#xbc;" horiz-adv-x="859" 
d="M260 401v-51h-220v51h74v268q-16 -3 -35 -3q-17 0 -38 3v55q10 -2 16 -2q62 0 72 28h64v-349h67zM619 750h85l-487 -750h-85zM819 117h-64v-62h49v-54h-186v54h60v62h-188v49l193 235h72v-235h64v-49zM556 166h122v151z" />
    <glyph glyph-name="onehalf" unicode="&#xbd;" horiz-adv-x="900" 
d="M260 401v-51h-220v51h74v268q-16 -3 -35 -3q-17 0 -38 3v55q10 -2 16 -2q62 0 72 28h64v-349h67zM619 750h85l-487 -750h-85zM807 102h53v-102h-306v30q0 35 23 64t56 49.5t66 39.5t56 43.5t23 52.5q0 36 -20 55.5t-52 19.5q-33 0 -54 -21.5t-21 -62.5l1 -10h-72
q-1 6 -1 10q0 62 41 101.5t108 39.5q70 0 109.5 -33.5t39.5 -92.5q0 -37 -22 -68t-53.5 -51.5t-63 -38t-55.5 -37t-26 -39.5h170v51z" />
    <glyph glyph-name="threequarters" unicode="&#xbe;" horiz-adv-x="935" 
d="M340 461q0 -55 -42 -88.5t-110 -33.5q-67 0 -107.5 39t-40.5 100l-1 12h78l1 -12q0 -36 18 -56.5t50 -20.5t50 18t18 51q0 57 -67 57h-28v50h30q64 0 64 56q0 31 -18.5 49t-49.5 18t-48 -21.5t-17 -54.5l-2 -8h-73q-1 5 -1 8q0 62 38.5 99.5t104.5 37.5q69 0 109 -31.5
t40 -82.5q0 -36 -22.5 -60t-54.5 -32q35 -8 58 -32.5t23 -61.5zM694 750h85l-487 -750h-85zM895 117h-64v-62h49v-54h-186v54h60v62h-188v49l193 235h72v-235h64v-49zM632 166h122v152z" />
    <glyph glyph-name="questiondown" unicode="&#xbf;" horiz-adv-x="553" 
d="M279 585q33 0 54.5 -19.5t21.5 -48.5t-21.5 -49t-54.5 -20t-54.5 20t-21.5 49t21.5 48.5t54.5 19.5zM517 25q0 -101 -64 -165.5t-182 -64.5q-117 0 -178 57t-61 139q0 46 15 81.5t37 56t48.5 43.5t48.5 43.5t37 55t15 78.5l-1 20h107q1 -16 1 -29q0 -56 -18 -97.5
t-44 -66.5t-51.5 -48.5t-43.5 -56t-18 -74.5q0 -16 4.5 -34.5t15.5 -40t35 -35t58 -13.5q64 0 92 45.5t28 105.5q0 5 -0.5 10.5t-0.5 6.5h119q1 -9 1 -17z" />
    <glyph glyph-name="Agrave" unicode="&#xc0;" horiz-adv-x="762" 
d="M455 795h-97l-151 179h113zM671 85h69v-85h-282v85h80l-45 154h-248l-44 -154h78v-85h-257v85h72l210 669h155zM265 308h208l-104 359z" />
    <glyph glyph-name="Aacute" unicode="&#xc1;" horiz-adv-x="762" 
d="M520 974l-151 -179h-96l134 179h113zM671 85h69v-85h-282v85h80l-45 154h-248l-44 -154h78v-85h-257v85h72l210 669h155zM265 308h208l-104 359z" />
    <glyph glyph-name="Acircumflex" unicode="&#xc2;" horiz-adv-x="762" 
d="M381 916l-105 -113h-90l146 179h99l146 -179h-91zM671 85h69v-85h-282v85h80l-45 154h-248l-44 -154h78v-85h-257v85h72l210 669h155zM265 308h208l-104 359z" />
    <glyph glyph-name="Atilde" unicode="&#xc3;" horiz-adv-x="762" 
d="M289 876q-55 0 -55 -46h-59q0 57 29 92t82 35q41 0 94 -19.5t75 -19.5q52 0 52 44h60q0 -57 -29 -92t-80 -35q-41 0 -94.5 20.5t-74.5 20.5zM671 85h69v-85h-282v85h80l-45 154h-248l-44 -154h78v-85h-257v85h72l210 669h155zM265 308h208l-104 359z" />
    <glyph glyph-name="Adieresis" unicode="&#xc4;" horiz-adv-x="762" 
d="M271 840q-29 0 -49.5 19t-20.5 45t20.5 45.5t49.5 19.5q30 0 50.5 -19t20.5 -46t-20.5 -45.5t-50.5 -18.5zM485 840q-30 0 -50.5 18.5t-20.5 45.5t20.5 46t50.5 19t50 -19t20 -46t-20 -45.5t-50 -18.5zM671 85h69v-85h-282v85h80l-45 154h-248l-44 -154h78v-85h-257v85
h72l210 669h155zM265 308h208l-104 359z" />
    <glyph glyph-name="Aring" unicode="&#xc5;" horiz-adv-x="762" 
d="M378 780q-57 0 -97 39t-40 97q0 59 39.5 97.5t97.5 38.5t97.5 -38.5t39.5 -97.5q0 -58 -40 -97t-97 -39zM378 987q-31 0 -50.5 -20t-19.5 -51t19.5 -51.5t50.5 -20.5q32 0 51.5 20.5t19.5 51.5t-19.5 51t-51.5 20zM671 85h69v-85h-282v85h80l-45 154h-248l-44 -154h78
v-85h-257v85h72l210 669h155zM265 308h208l-104 359z" />
    <glyph glyph-name="AE" unicode="&#xc6;" horiz-adv-x="975" 
d="M922 515h-72v51q0 59 -13.5 79t-53.5 20h-195v-240h180v-75h-180v-265h195q40 0 53.5 21.5t13.5 79.5v68h72v-254h-535v85h79v154h-204l-71 -154h79v-85h-255v85h71l283 580h-98v85h651v-235zM290 300h176v365h-8z" />
    <glyph glyph-name="Ccedilla" unicode="&#xc7;" horiz-adv-x="724" 
d="M683 267q-12 -136 -87.5 -211.5t-206.5 -75.5l-41 -53q27 9 51 9q44 0 80.5 -22.5t36.5 -72.5q0 -52 -43 -77.5t-112 -25.5q-20 0 -42.5 5.5t-29.5 11.5v42q28 -8 54 -8q44 0 66 12t22 43q0 22 -15.5 34.5t-41.5 12.5q-22 0 -40 -6.5t-24 -13.5l-7 -7l-34 26l72 93
q-133 18 -208 126.5t-75 266.5q0 168 82.5 281t218.5 113q152 0 218 -124l9 104h82v-242h-115q-17 78 -60.5 119.5t-105.5 41.5q-89 0 -139.5 -80t-50.5 -213q0 -131 54 -213t144 -82q133 0 169 186h119z" />
    <glyph glyph-name="Egrave" unicode="&#xc8;" horiz-adv-x="660" 
d="M410 795h-97l-151 179h113zM595 515h-72v51q0 59 -14 79t-54 20h-195v-236h181v-83h-181v-261h195q40 0 54 21.5t14 79.5v68h72v-254h-535v85h79v580h-79v85h535v-235z" />
    <glyph glyph-name="Eacute" unicode="&#xc9;" horiz-adv-x="660" 
d="M475 974l-151 -179h-96l134 179h113zM595 515h-72v51q0 59 -14 79t-54 20h-195v-236h181v-83h-181v-261h195q40 0 54 21.5t14 79.5v68h72v-254h-535v85h79v580h-79v85h535v-235z" />
    <glyph glyph-name="Ecircumflex" unicode="&#xca;" horiz-adv-x="660" 
d="M349 916l-105 -113h-90l146 179h99l146 -179h-91zM595 515h-72v51q0 59 -14 79t-54 20h-195v-236h181v-83h-181v-261h195q40 0 54 21.5t14 79.5v68h72v-254h-535v85h79v580h-79v85h535v-235z" />
    <glyph glyph-name="Edieresis" unicode="&#xcb;" horiz-adv-x="660" 
d="M226 840q-29 0 -49.5 19t-20.5 45t20.5 45.5t49.5 19.5q30 0 50.5 -19t20.5 -46t-20.5 -45.5t-50.5 -18.5zM440 840q-30 0 -50.5 18.5t-20.5 45.5t20.5 46t50.5 19t50 -19t20 -46t-20 -45.5t-50 -18.5zM595 515h-72v51q0 59 -14 79t-54 20h-195v-236h181v-83h-181v-261
h195q40 0 54 21.5t14 79.5v68h72v-254h-535v85h79v580h-79v85h535v-235z" />
    <glyph glyph-name="Igrave" unicode="&#xcc;" horiz-adv-x="401" 
d="M161 795l-151 179h113l135 -179h-97zM60 0v85h80v580h-80v85h281v-85h-80v-580h80v-85h-281z" />
    <glyph glyph-name="Iacute" unicode="&#xcd;" horiz-adv-x="401" 
d="M106 795l134 179h113l-151 -179h-96zM60 0v85h80v580h-80v85h281v-85h-80v-580h80v-85h-281z" />
    <glyph glyph-name="Icircumflex" unicode="&#xce;" horiz-adv-x="401" 
d="M199 916l-105 -113h-90l146 179h99l146 -179h-91zM60 665v85h281v-85h-80v-580h80v-85h-281v85h80v580h-80z" />
    <glyph glyph-name="Idieresis" unicode="&#xcf;" horiz-adv-x="401" 
d="M94 840q-29 0 -49.5 19t-20.5 45t20.5 45.5t49.5 19.5q30 0 50.5 -19t20.5 -46t-20.5 -45.5t-50.5 -18.5zM308 840q-30 0 -50.5 18.5t-20.5 45.5t20.5 46t50.5 19t50 -19t20 -46t-20 -45.5t-50 -18.5zM60 0v85h80v580h-80v85h281v-85h-80v-580h80v-85h-281z" />
    <glyph glyph-name="Eth" unicode="&#xd0;" horiz-adv-x="740" 
d="M366 750q157 0 240 -102.5t83 -271.5q0 -171 -82.5 -273.5t-240.5 -102.5h-318v85h78v247h-71v99h71v234h-78v85h318zM350 85q97 0 149.5 77t52.5 214t-52.5 213t-149.5 76h-103v-234h109v-99h-109v-247h103z" />
    <glyph glyph-name="Ntilde" unicode="&#xd1;" horiz-adv-x="806" 
d="M317 876q-55 0 -55 -46h-59q0 57 29 92t82 35q41 0 94 -19.5t75 -19.5q52 0 52 44h60q0 -57 -29 -92t-80 -35q-41 0 -94.5 20.5t-74.5 20.5zM512 750h241v-85h-75v-665h-93l-359 553v-468h75v-85h-244v85h80v580h-80v85h175l352 -547v462h-72v85z" />
    <glyph glyph-name="Ograve" unicode="&#xd2;" horiz-adv-x="786" 
d="M376 795l-151 179h113l135 -179h-97zM393 770q157 0 246 -112.5t89 -281.5q0 -171 -89 -283.5t-246 -112.5q-158 0 -246.5 112t-88.5 284q0 170 88.5 282t246.5 112zM393 81q92 0 145 81t53 214q0 134 -52.5 213.5t-145.5 79.5t-145.5 -79.5t-52.5 -213.5t52.5 -214.5
t145.5 -80.5z" />
    <glyph glyph-name="Oacute" unicode="&#xd3;" horiz-adv-x="786" 
d="M291 795l134 179h113l-151 -179h-96zM393 770q157 0 246 -112.5t89 -281.5q0 -171 -89 -283.5t-246 -112.5q-158 0 -246.5 112t-88.5 284q0 170 88.5 282t246.5 112zM393 81q92 0 145 81t53 214q0 134 -52.5 213.5t-145.5 79.5t-145.5 -79.5t-52.5 -213.5t52.5 -214.5
t145.5 -80.5z" />
    <glyph glyph-name="Ocircumflex" unicode="&#xd4;" horiz-adv-x="786" 
d="M392 916l-105 -113h-90l146 179h99l146 -179h-91zM393 770q157 0 246 -112.5t89 -281.5q0 -171 -89 -283.5t-246 -112.5q-158 0 -246.5 112t-88.5 284q0 170 88.5 282t246.5 112zM393 81q92 0 145 81t53 214q0 134 -52.5 213.5t-145.5 79.5t-145.5 -79.5t-52.5 -213.5
t52.5 -214.5t145.5 -80.5z" />
    <glyph glyph-name="Otilde" unicode="&#xd5;" horiz-adv-x="786" 
d="M303 957q41 0 94 -19.5t75 -19.5q52 0 52 44h60q0 -57 -29 -92t-80 -35q-41 0 -94.5 20.5t-74.5 20.5q-55 0 -55 -46h-59q0 57 29 92t82 35zM393 770q157 0 246 -112.5t89 -281.5q0 -171 -89 -283.5t-246 -112.5q-158 0 -246.5 112t-88.5 284q0 170 88.5 282t246.5 112z
M393 81q92 0 145 81t53 214q0 134 -52.5 213.5t-145.5 79.5t-145.5 -79.5t-52.5 -213.5t52.5 -214.5t145.5 -80.5z" />
    <glyph glyph-name="Odieresis" unicode="&#xd6;" horiz-adv-x="786" 
d="M289 840q-29 0 -49.5 19t-20.5 45t20.5 45.5t49.5 19.5q30 0 50.5 -19t20.5 -46t-20.5 -45.5t-50.5 -18.5zM503 840q-30 0 -50.5 18.5t-20.5 45.5t20.5 46t50.5 19t50 -19t20 -46t-20 -45.5t-50 -18.5zM393 770q157 0 246 -112.5t89 -281.5q0 -171 -89 -283.5
t-246 -112.5q-158 0 -246.5 112t-88.5 284q0 170 88.5 282t246.5 112zM393 81q92 0 145 81t53 214q0 134 -52.5 213.5t-145.5 79.5t-145.5 -79.5t-52.5 -213.5t52.5 -214.5t145.5 -80.5z" />
    <glyph glyph-name="multiply" unicode="&#xd7;" horiz-adv-x="1130" 
d="M794 473l-166 -166l166 -167l-63 -62l-166 166l-167 -166l-62 62l166 167l-166 166l63 63l166 -166l166 166z" />
    <glyph glyph-name="Oslash" unicode="&#xd8;" horiz-adv-x="771" 
d="M722 791l-92 -131q91 -109 91 -284q0 -171 -89 -283.5t-246 -112.5q-113 0 -193 61l-58 -82h-85l92 130q-91 109 -91 287q0 170 88.5 282t246.5 112q113 0 193 -61l58 82h85zM188 376q0 -103 31 -177l294 416q-51 54 -127 54q-94 0 -146 -78.5t-52 -214.5zM584 376
q0 102 -31 175l-293 -415q49 -55 126 -55q93 0 145.5 79.5t52.5 215.5z" />
    <glyph glyph-name="Ugrave" unicode="&#xd9;" horiz-adv-x="759" 
d="M370 795l-151 179h113l135 -179h-97zM622 239q0 -120 -61.5 -189.5t-183.5 -69.5q-257 0 -257 259v426h-80v85h271v-85h-69v-434q0 -70 34.5 -113t101.5 -43q68 0 102 43t34 113v434h-63v85h251v-85h-80v-426z" />
    <glyph glyph-name="Uacute" unicode="&#xda;" horiz-adv-x="759" 
d="M285 795l134 179h113l-151 -179h-96zM622 239q0 -120 -61.5 -189.5t-183.5 -69.5q-257 0 -257 259v426h-80v85h271v-85h-69v-434q0 -70 34.5 -113t101.5 -43q68 0 102 43t34 113v434h-63v85h251v-85h-80v-426z" />
    <glyph glyph-name="Ucircumflex" unicode="&#xdb;" horiz-adv-x="759" 
d="M396 916l-105 -113h-90l146 179h99l146 -179h-91zM451 750h251v-85h-80v-426q0 -120 -61.5 -189.5t-183.5 -69.5q-257 0 -257 259v426h-80v85h271v-85h-69v-434q0 -70 34.5 -113t101.5 -43q68 0 102 43t34 113v434h-63v85z" />
    <glyph glyph-name="Udieresis" unicode="&#xdc;" horiz-adv-x="759" 
d="M283 840q-29 0 -49.5 19t-20.5 45t20.5 45.5t49.5 19.5q30 0 50.5 -19t20.5 -46t-20.5 -45.5t-50.5 -18.5zM497 840q-30 0 -50.5 18.5t-20.5 45.5t20.5 46t50.5 19t50 -19t20 -46t-20 -45.5t-50 -18.5zM622 239q0 -120 -61.5 -189.5t-183.5 -69.5q-257 0 -257 259v426
h-80v85h271v-85h-69v-434q0 -70 34.5 -113t101.5 -43q68 0 102 43t34 113v434h-63v85h251v-85h-80v-426z" />
    <glyph glyph-name="Yacute" unicode="&#xdd;" horiz-adv-x="724" 
d="M508 974l-151 -179h-96l134 179h113zM442 750h261v-85h-75l-204 -379v-201h84v-85h-295v85h84v205l-198 375h-77v85h285v-85h-79l147 -281l141 281h-74v85z" />
    <glyph glyph-name="Thorn" unicode="&#xde;" horiz-adv-x="661" 
d="M377 579q251 0 251 -195q0 -104 -67.5 -154.5t-189.5 -50.5h-121v-94h79v-85h-281v85h80v580h-80v85h281v-85h-79v-86h127zM341 246q69 0 110 33.5t41 100.5q0 66 -41 98.5t-110 32.5h-91v-265h91z" />
    <glyph glyph-name="germandbls" unicode="&#xdf;" horiz-adv-x="660" 
d="M409 412q0 -22 20.5 -39t49.5 -31.5t58 -34.5t49.5 -57.5t20.5 -89.5q0 -87 -56.5 -133.5t-156.5 -46.5q-77 0 -120 20v77q27 -15 84 -15q117 0 117 98q0 33 -18.5 57.5t-45 41.5l-53 34t-45 44.5t-18.5 63.5q0 26 12 46.5t29 34.5t34 28.5t29 35.5t12 49q0 37 -27 57
t-70 20q-45 0 -71.5 -23.5t-26.5 -62.5v-586h-178v81h63v348h-63v81h63v70q0 76 49 130t157 54q100 0 158.5 -44.5t58.5 -117.5q0 -35 -11.5 -61t-28.5 -40.5t-34 -26.5t-29 -27t-12 -35z" />
    <glyph glyph-name="agrave" unicode="&#xe0;" horiz-adv-x="603" 
d="M281 580l-151 179h103l134 -179h-86zM502 81h63v-83h-176v66q-64 -84 -179 -84q-78 0 -123 38t-45 115q0 162 236 162h109v45q0 106 -103 106q-49 0 -78 -25.5t-29 -64.5v-9h-112v10q0 80 58 126t167 46q112 0 162 -49t50 -145v-254zM263 61q52 0 82 25.5t42 58.5v94h-86
q-140 0 -140 -93q0 -40 27.5 -62.5t74.5 -22.5z" />
    <glyph glyph-name="aacute" unicode="&#xe1;" horiz-adv-x="603" 
d="M196 580l134 179h103l-151 -179h-86zM502 81h63v-83h-176v66q-64 -84 -179 -84q-78 0 -123 38t-45 115q0 162 236 162h109v45q0 106 -103 106q-49 0 -78 -25.5t-29 -64.5v-9h-112v10q0 80 58 126t167 46q112 0 162 -49t50 -145v-254zM263 61q52 0 82 25.5t42 58.5v94h-86
q-140 0 -140 -93q0 -40 27.5 -62.5t74.5 -22.5z" />
    <glyph glyph-name="acircumflex" unicode="&#xe2;" horiz-adv-x="603" 
d="M295 689l-106 -114h-80l146 179h79l146 -179h-80zM502 81h63v-83h-176v66q-64 -84 -179 -84q-78 0 -123 38t-45 115q0 162 236 162h109v45q0 106 -103 106q-49 0 -78 -25.5t-29 -64.5v-9h-112v10q0 80 58 126t167 46q112 0 162 -49t50 -145v-254zM387 145v94h-86
q-140 0 -140 -93q0 -40 27.5 -62.5t74.5 -22.5q52 0 82 25.5t42 58.5z" />
    <glyph glyph-name="atilde" unicode="&#xe3;" horiz-adv-x="603" 
d="M207 731q38 0 88 -19t72 -19q24 0 37 11.5t13 30.5h56q0 -52 -28 -84.5t-76 -32.5q-38 0 -89 19t-71 19q-53 0 -53 -43h-55q0 52 28 85t78 33zM502 81h63v-83h-176v66q-64 -84 -179 -84q-78 0 -123 38t-45 115q0 162 236 162h109v45q0 106 -103 106q-49 0 -78 -25.5
t-29 -64.5v-9h-112v10q0 80 58 126t167 46q112 0 162 -49t50 -145v-254zM263 61q52 0 82 25.5t42 58.5v94h-86q-140 0 -140 -93q0 -40 27.5 -62.5t74.5 -22.5z" />
    <glyph glyph-name="adieresis" unicode="&#xe4;" horiz-adv-x="603" 
d="M206 621q-26 0 -44 16.5t-18 39.5t18 39.5t44 16.5t44 -16.5t18 -39.5t-18 -39.5t-44 -16.5zM396 621q-26 0 -44 16.5t-18 39.5t18 39.5t44 16.5t44 -16.5t18 -39.5t-18 -39.5t-44 -16.5zM502 81h63v-83h-176v66q-64 -84 -179 -84q-78 0 -123 38t-45 115q0 162 236 162
h109v45q0 106 -103 106q-49 0 -78 -25.5t-29 -64.5v-9h-112v10q0 80 58 126t167 46q112 0 162 -49t50 -145v-254zM263 61q52 0 82 25.5t42 58.5v94h-86q-140 0 -140 -93q0 -40 27.5 -62.5t74.5 -22.5z" />
    <glyph glyph-name="aring" unicode="&#xe5;" horiz-adv-x="603" 
d="M297 841q57 0 96 -38.5t39 -96.5q0 -57 -39 -95.5t-96 -38.5t-96 38.5t-39 95.5q0 58 39 96.5t96 38.5zM297 777q-31 0 -50.5 -20t-19.5 -51q0 -30 20 -50.5t50 -20.5q31 0 50.5 20.5t19.5 50.5q0 31 -19 51t-51 20zM502 81h63v-83h-176v66q-64 -84 -179 -84
q-78 0 -123 38t-45 115q0 162 236 162h109v45q0 106 -103 106q-49 0 -78 -25.5t-29 -64.5v-9h-112v10q0 80 58 126t167 46q112 0 162 -49t50 -145v-254zM263 61q52 0 82 25.5t42 58.5v94h-86q-140 0 -140 -93q0 -40 27.5 -62.5t74.5 -22.5z" />
    <glyph glyph-name="ae" unicode="&#xe6;" horiz-adv-x="942" 
d="M906 262v-25h-393q4 -82 42 -128.5t96 -46.5q48 0 83.5 27.5t47.5 79.5h120q-20 -88 -85.5 -138.5t-163.5 -50.5q-73 0 -129 31.5t-88 87.5q-22 -46 -77 -82.5t-125 -36.5q-192 0 -192 151q0 152 226 152h129v44q0 128 -105 128q-50 0 -82.5 -30t-32.5 -74v-9h-112v10
q0 83 61 130.5t172 47.5q128 0 177 -68q70 68 178 68q118 0 185.5 -74t67.5 -194zM650 455q-57 0 -94 -44t-43 -124h273q-4 78 -42 123t-94 45zM276 61q50 0 85.5 35t35.5 76v63h-106q-62 0 -96 -23.5t-34 -67.5q0 -83 115 -83z" />
    <glyph glyph-name="ccedilla" unicode="&#xe7;" horiz-adv-x="578" 
d="M298 62q47 0 81 35.5t44 96.5h120q-9 -94 -72.5 -152.5t-163.5 -61.5l-36 -55q27 12 59 12q42 0 77 -21.5t35 -69.5q0 -51 -41.5 -75.5t-107.5 -24.5q-50 0 -71 16v41q28 -8 53 -8q43 0 64.5 12t21.5 42q0 21 -15 33.5t-41 12.5q-21 0 -38.5 -6.5t-24.5 -12.5l-6 -7
l-33 24l57 89q-101 13 -160.5 88t-59.5 185q0 120 70.5 197.5t187.5 77.5q104 0 169.5 -58t75.5 -154h-120q-10 60 -44 94.5t-81 34.5q-59 0 -97.5 -54t-38.5 -138t38.5 -138.5t97.5 -54.5z" />
    <glyph glyph-name="egrave" unicode="&#xe8;" horiz-adv-x="592" 
d="M370 580h-86l-151 179h103zM555 262v-33h-392q7 -77 44.5 -122t93.5 -45q47 0 82.5 29.5t47.5 79.5h121q-20 -88 -86 -139.5t-163 -51.5q-117 0 -190 77.5t-73 197.5q0 119 73 197t190 78t184.5 -73.5t67.5 -194.5zM300 455q-55 0 -92 -42.5t-44 -117.5h272
q-7 73 -44.5 116.5t-91.5 43.5z" />
    <glyph glyph-name="eacute" unicode="&#xe9;" horiz-adv-x="592" 
d="M436 759l-151 -179h-86l134 179h103zM555 262v-33h-392q7 -77 44.5 -122t93.5 -45q47 0 82.5 29.5t47.5 79.5h121q-20 -88 -86 -139.5t-163 -51.5q-117 0 -190 77.5t-73 197.5q0 119 73 197t190 78t184.5 -73.5t67.5 -194.5zM300 455q-55 0 -92 -42.5t-44 -117.5h272
q-7 73 -44.5 116.5t-91.5 43.5z" />
    <glyph glyph-name="ecircumflex" unicode="&#xea;" horiz-adv-x="592" 
d="M301 689l-106 -114h-80l146 179h79l146 -179h-80zM555 262v-33h-392q7 -77 44.5 -122t93.5 -45q47 0 82.5 29.5t47.5 79.5h121q-20 -88 -86 -139.5t-163 -51.5q-117 0 -190 77.5t-73 197.5q0 119 73 197t190 78t184.5 -73.5t67.5 -194.5zM300 455q-55 0 -92 -42.5
t-44 -117.5h272q-7 73 -44.5 116.5t-91.5 43.5z" />
    <glyph glyph-name="edieresis" unicode="&#xeb;" horiz-adv-x="592" 
d="M208 621q-26 0 -44 16.5t-18 39.5t18 39.5t44 16.5t44 -16.5t18 -39.5t-18 -39.5t-44 -16.5zM398 621q-26 0 -44 16.5t-18 39.5t18 39.5t44 16.5t44 -16.5t18 -39.5t-18 -39.5t-44 -16.5zM555 262v-33h-392q7 -77 44.5 -122t93.5 -45q47 0 82.5 29.5t47.5 79.5h121
q-20 -88 -86 -139.5t-163 -51.5q-117 0 -190 77.5t-73 197.5q0 119 73 197t190 78t184.5 -73.5t67.5 -194.5zM300 455q-55 0 -92 -42.5t-44 -117.5h272q-7 73 -44.5 116.5t-91.5 43.5z" />
    <glyph glyph-name="igrave" unicode="&#xec;" horiz-adv-x="316" 
d="M228 580h-86l-151 179h103zM216 81h63v-81h-241v81h63v347h-63v82h178v-429z" />
    <glyph glyph-name="iacute" unicode="&#xed;" horiz-adv-x="316" 
d="M294 759l-151 -179h-86l134 179h103zM216 510v-429h63v-81h-241v81h63v347h-63v82h178z" />
    <glyph glyph-name="icircumflex" unicode="&#xee;" horiz-adv-x="316" 
d="M159 689l-106 -114h-80l146 179h79l146 -179h-80zM216 510v-429h63v-81h-241v81h63v347h-63v82h178z" />
    <glyph glyph-name="idieresis" unicode="&#xef;" horiz-adv-x="316" 
d="M125 677q0 -23 -18 -39.5t-44 -16.5t-44 16.5t-18 39.5t18 39.5t44 16.5t44 -16.5t18 -39.5zM253 733q26 0 44 -16.5t18 -39.5t-18 -39.5t-44 -16.5t-44 16.5t-18 39.5t18 39.5t44 16.5zM216 510v-429h63v-81h-241v81h63v347h-63v82h178z" />
    <glyph glyph-name="eth" unicode="&#xf0;" horiz-adv-x="598" 
d="M400 678q158 -171 158 -405q0 -133 -71.5 -213t-187.5 -80q-114 0 -186.5 77.5t-72.5 197.5t72.5 197.5t186.5 77.5q49 0 89 -15q-27 57 -69 109l-92 -62v62l58 39q-33 35 -74 66l69 55q42 -30 82 -68l89 60v-63zM299 62q61 0 99 52t38 141t-38 140.5t-99 51.5t-99 -51.5
t-38 -140.5q0 -88 38.5 -140.5t98.5 -52.5z" />
    <glyph glyph-name="ntilde" unicode="&#xf1;" horiz-adv-x="641" 
d="M230 656q-53 0 -53 -43h-55q0 52 28 85t78 33q38 0 88 -19t72 -19q24 0 37 11.5t13 30.5h56q0 -52 -28 -84.5t-76 -32.5q-38 0 -89 19t-71 19zM543 81h61v-81h-228v81h52v251q0 55 -25 85.5t-70 30.5q-50 0 -83.5 -34t-33.5 -84v-249h52v-81h-230v81h63v347h-63v82h178
v-62q54 82 165 82q72 0 117 -46t45 -120v-283z" />
    <glyph glyph-name="ograve" unicode="&#xf2;" horiz-adv-x="598" 
d="M283 580l-151 179h103l134 -179h-86zM299 530q115 0 187 -77t72 -198t-72 -198t-187 -77q-114 0 -186.5 77.5t-72.5 197.5t72.5 197.5t186.5 77.5zM299 62q61 0 99 53t38 140t-38 139.5t-99 52.5q-60 0 -98.5 -52.5t-38.5 -139.5q0 -86 38.5 -139.5t98.5 -53.5z" />
    <glyph glyph-name="oacute" unicode="&#xf3;" horiz-adv-x="598" 
d="M213 580l134 179h103l-151 -179h-86zM299 530q115 0 187 -77t72 -198t-72 -198t-187 -77q-114 0 -186.5 77.5t-72.5 197.5t72.5 197.5t186.5 77.5zM299 62q61 0 99 53t38 140t-38 139.5t-99 52.5q-60 0 -98.5 -52.5t-38.5 -139.5q0 -86 38.5 -139.5t98.5 -53.5z" />
    <glyph glyph-name="ocircumflex" unicode="&#xf4;" horiz-adv-x="598" 
d="M299 689l-106 -114h-80l146 179h79l146 -179h-80zM299 530q115 0 187 -77t72 -198t-72 -198t-187 -77q-114 0 -186.5 77.5t-72.5 197.5t72.5 197.5t186.5 77.5zM299 62q61 0 99 53t38 140t-38 139.5t-99 52.5q-60 0 -98.5 -52.5t-38.5 -139.5q0 -86 38.5 -139.5
t98.5 -53.5z" />
    <glyph glyph-name="otilde" unicode="&#xf5;" horiz-adv-x="598" 
d="M209 731q38 0 88 -19t72 -19q24 0 37 11.5t13 30.5h56q0 -52 -28 -84.5t-76 -32.5q-38 0 -89 19t-71 19q-53 0 -53 -43h-55q0 52 28 85t78 33zM299 530q115 0 187 -77t72 -198t-72 -198t-187 -77q-114 0 -186.5 77.5t-72.5 197.5t72.5 197.5t186.5 77.5zM299 62
q61 0 99 53t38 140t-38 139.5t-99 52.5q-60 0 -98.5 -52.5t-38.5 -139.5q0 -86 38.5 -139.5t98.5 -53.5z" />
    <glyph glyph-name="odieresis" unicode="&#xf6;" horiz-adv-x="598" 
d="M207 621q-26 0 -44 16.5t-18 39.5t18 39.5t44 16.5t44 -16.5t18 -39.5t-18 -39.5t-44 -16.5zM397 621q-26 0 -44 16.5t-18 39.5t18 39.5t44 16.5t44 -16.5t18 -39.5t-18 -39.5t-44 -16.5zM299 530q115 0 187 -77t72 -198t-72 -198t-187 -77q-114 0 -186.5 77.5
t-72.5 197.5t72.5 197.5t186.5 77.5zM299 62q61 0 99 53t38 140t-38 139.5t-99 52.5q-60 0 -98.5 -52.5t-38.5 -139.5q0 -86 38.5 -139.5t98.5 -53.5z" />
    <glyph glyph-name="divide" unicode="&#xf7;" horiz-adv-x="1206" 
d="M603 427q-31 0 -50 17.5t-19 43.5t19.5 43.5t49.5 17.5t49.5 -17.5t19.5 -43.5t-19 -43.5t-50 -17.5zM336 351h534v-88h-534v88zM603 65q-31 0 -50 17.5t-19 43.5t19.5 43.5t49.5 17.5t49.5 -17.5t19.5 -43.5t-19 -43.5t-50 -17.5z" />
    <glyph glyph-name="oslash" unicode="&#xf8;" horiz-adv-x="598" 
d="M462 475q96 -78 96 -220q0 -121 -72 -198t-187 -77q-77 0 -136 36l-37 -56h-43l50 77q-93 79 -93 218q0 120 72.5 197.5t186.5 77.5q76 0 134 -35l36 56h43zM162 255q0 -77 30 -128l188 288q-34 32 -81 32q-61 0 -99 -51.5t-38 -140.5zM299 62q61 0 99 52t38 141
q0 80 -32 131l-189 -289q35 -35 84 -35z" />
    <glyph glyph-name="ugrave" unicode="&#xf9;" horiz-adv-x="614" 
d="M359 580h-86l-151 179h103zM515 81h63v-81h-178v55q-60 -75 -165 -75q-76 0 -119 47.5t-43 118.5v283h-61v81h176v-333q0 -53 24.5 -84t70.5 -31q51 0 84 33.5t33 84.5v249h-58v81h173v-429z" />
    <glyph glyph-name="uacute" unicode="&#xfa;" horiz-adv-x="614" 
d="M425 759l-151 -179h-86l134 179h103zM515 81h63v-81h-178v55q-60 -75 -165 -75q-76 0 -119 47.5t-43 118.5v283h-61v81h176v-333q0 -53 24.5 -84t70.5 -31q51 0 84 33.5t33 84.5v249h-58v81h173v-429z" />
    <glyph glyph-name="ucircumflex" unicode="&#xfb;" horiz-adv-x="614" 
d="M289 689l-106 -114h-80l146 179h79l146 -179h-80zM515 81h63v-81h-178v55q-60 -75 -165 -75q-76 0 -119 47.5t-43 118.5v283h-61v81h176v-333q0 -53 24.5 -84t70.5 -31q51 0 84 33.5t33 84.5v249h-58v81h173v-429z" />
    <glyph glyph-name="udieresis" unicode="&#xfc;" horiz-adv-x="614" 
d="M197 621q-26 0 -44 16.5t-18 39.5t18 39.5t44 16.5t44 -16.5t18 -39.5t-18 -39.5t-44 -16.5zM387 621q-26 0 -44 16.5t-18 39.5t18 39.5t44 16.5t44 -16.5t18 -39.5t-18 -39.5t-44 -16.5zM515 81h63v-81h-178v55q-60 -75 -165 -75q-76 0 -119 47.5t-43 118.5v283h-61v81
h176v-333q0 -53 24.5 -84t70.5 -31q51 0 84 33.5t33 84.5v249h-58v81h173v-429z" />
    <glyph glyph-name="yacute" unicode="&#xfd;" horiz-adv-x="584" 
d="M424 759l-151 -179h-86l134 179h103zM573 510v-81h-58l-188 -492q-27 -70 -66 -107t-101 -37q-27 0 -60 6l5 85q36 -3 52 -3q62 0 81 55l15 42l-181 451h-60v81h233v-81h-57l117 -327l121 327h-62v81h209z" />
    <glyph glyph-name="thorn" unicode="&#xfe;" horiz-adv-x="639" 
d="M375 530q95 0 159.5 -74t64.5 -196t-65 -196t-159 -74q-52 0 -93.5 21t-65.5 54v-178h68v-77h-246v77h63v781h-63v81h178v-294q24 33 65.5 54t93.5 21zM337 76q60 0 100 51.5t40 132.5q0 82 -39.5 133t-100.5 51q-50 0 -85 -35t-35 -84l-1 3v-136l1 3q0 -49 35 -84
t85 -35z" />
    <glyph glyph-name="ydieresis" unicode="&#xff;" horiz-adv-x="584" 
d="M200 621q-26 0 -44 16.5t-18 39.5t18 39.5t44 16.5t44 -16.5t18 -39.5t-18 -39.5t-44 -16.5zM390 621q-26 0 -44 16.5t-18 39.5t18 39.5t44 16.5t44 -16.5t18 -39.5t-18 -39.5t-44 -16.5zM573 510v-81h-58l-188 -492q-27 -70 -66 -107t-101 -37q-27 0 -60 6l5 85
q36 -3 52 -3q62 0 81 55l15 42l-181 451h-60v81h233v-81h-57l117 -327l121 327h-62v81h209z" />
    <glyph glyph-name="Amacron" unicode="&#x100;" horiz-adv-x="762" 
d="M570 933v-88h-383v88h383zM671 85h69v-85h-282v85h80l-45 154h-248l-44 -154h78v-85h-257v85h72l210 669h155zM265 308h208l-104 359z" />
    <glyph glyph-name="amacron" unicode="&#x101;" horiz-adv-x="603" 
d="M110 721h373v-83h-373v83zM502 81h63v-83h-176v66q-64 -84 -179 -84q-78 0 -123 38t-45 115q0 162 236 162h109v45q0 106 -103 106q-49 0 -78 -25.5t-29 -64.5v-9h-112v10q0 80 58 126t167 46q112 0 162 -49t50 -145v-254zM263 61q52 0 82 25.5t42 58.5v94h-86
q-140 0 -140 -93q0 -40 27.5 -62.5t74.5 -22.5z" />
    <glyph glyph-name="Abreve" unicode="&#x102;" horiz-adv-x="762" 
d="M378 788q-84 0 -128.5 46.5t-44.5 122.5h61q1 -53 32 -79.5t80 -26.5t80.5 26.5t32.5 79.5h62q0 -76 -45.5 -122.5t-129.5 -46.5zM671 85h69v-85h-282v85h80l-45 154h-248l-44 -154h78v-85h-257v85h72l210 669h155zM265 308h208l-104 359z" />
    <glyph glyph-name="abreve" unicode="&#x103;" horiz-adv-x="603" 
d="M298 639q49 0 81 26.5t33 79.5h51q0 -77 -41 -122t-124 -45q-82 0 -122.5 44.5t-40.5 122.5h51q1 -53 32 -79.5t80 -26.5zM502 81h63v-83h-176v66q-64 -84 -179 -84q-78 0 -123 38t-45 115q0 162 236 162h109v45q0 106 -103 106q-49 0 -78 -25.5t-29 -64.5v-9h-112v10
q0 80 58 126t167 46q112 0 162 -49t50 -145v-254zM263 61q52 0 82 25.5t42 58.5v94h-86q-140 0 -140 -93q0 -40 27.5 -62.5t74.5 -22.5z" />
    <glyph glyph-name="Aogonek" unicode="&#x104;" horiz-adv-x="762" 
d="M687 0q-35 -5 -62 -31.5t-27 -53.5q0 -18 13 -31.5t34 -13.5q34 0 54 17v-56q-25 -18 -86 -18q-54 0 -83.5 24.5t-29.5 59.5q0 33 29 62t62 41h-133v85h80l-45 154h-248l-44 -154h78v-85h-257v85h72l210 669h155l212 -669h69v-85h-53zM265 308h208l-104 359z" />
    <glyph glyph-name="aogonek" unicode="&#x105;" horiz-adv-x="603" 
d="M541 -2q-33 -7 -54 -29t-21 -47q0 -17 13 -30.5t34 -13.5q32 0 52 16v-54q-22 -17 -83 -17q-53 0 -82 24t-29 59q0 32 23 56t56 36h-61v66q-64 -84 -179 -84q-78 0 -123 38t-45 115q0 162 236 162h109v45q0 106 -103 106q-49 0 -78 -25.5t-29 -64.5v-9h-112v10
q0 80 58 126t167 46q112 0 162 -49t50 -145v-254h63v-83h-24zM387 145v94h-86q-140 0 -140 -93q0 -40 27.5 -62.5t74.5 -22.5q52 0 82 25.5t42 58.5z" />
    <glyph glyph-name="Cacute" unicode="&#x106;" horiz-adv-x="739" 
d="M517 974l-151 -179h-96l134 179h113zM564 267h119q-12 -136 -87.5 -211.5t-207.5 -75.5q-154 0 -242 112t-88 284q0 168 82.5 281t218.5 113q152 0 218 -124l9 104h82v-242h-115q-17 78 -60.5 119.5t-105.5 41.5q-89 0 -139.5 -80t-50.5 -213q0 -131 54 -213t144 -82
q133 0 169 186z" />
    <glyph glyph-name="cacute" unicode="&#x107;" horiz-adv-x="578" 
d="M186 580l134 179h103l-151 -179h-86zM423 318q-10 60 -44 94.5t-81 34.5q-59 0 -97.5 -54t-38.5 -138t38.5 -138.5t97.5 -54.5q47 0 81 35.5t44 96.5h120q-9 -96 -75 -155t-170 -59q-117 0 -187.5 77.5t-70.5 197.5t70.5 197.5t187.5 77.5q104 0 169.5 -58t75.5 -154
h-120z" />
    <glyph glyph-name="Cdotaccent" unicode="&#x10a;" horiz-adv-x="739" 
d="M375 841q-32 0 -53.5 18.5t-21.5 46.5q0 29 21.5 48t53.5 19q31 0 52.5 -19t21.5 -48q0 -28 -21 -46.5t-53 -18.5zM564 267h119q-12 -136 -87.5 -211.5t-207.5 -75.5q-154 0 -242 112t-88 284q0 168 82.5 281t218.5 113q152 0 218 -124l9 104h82v-242h-115
q-17 78 -60.5 119.5t-105.5 41.5q-89 0 -139.5 -80t-50.5 -213q0 -131 54 -213t144 -82q133 0 169 186z" />
    <glyph glyph-name="cdotaccent" unicode="&#x10b;" horiz-adv-x="578" 
d="M296 621q-31 0 -51.5 18t-20.5 45t20.5 45.5t51.5 18.5t51.5 -18.5t20.5 -45.5t-20.5 -45t-51.5 -18zM423 318q-10 60 -44 94.5t-81 34.5q-59 0 -97.5 -54t-38.5 -138t38.5 -138.5t97.5 -54.5q47 0 81 35.5t44 96.5h120q-9 -96 -75 -155t-170 -59q-117 0 -187.5 77.5
t-70.5 197.5t70.5 197.5t187.5 77.5q104 0 169.5 -58t75.5 -154h-120z" />
    <glyph glyph-name="Ccaron" unicode="&#x10c;" horiz-adv-x="739" 
d="M431 796h-99l-143 177h90l102 -111l102 111h91zM564 267h119q-12 -136 -87.5 -211.5t-207.5 -75.5q-154 0 -242 112t-88 284q0 168 82.5 281t218.5 113q152 0 218 -124l9 104h82v-242h-115q-17 78 -60.5 119.5t-105.5 41.5q-89 0 -139.5 -80t-50.5 -213q0 -131 54 -213
t144 -82q133 0 169 186z" />
    <glyph glyph-name="ccaron" unicode="&#x10d;" horiz-adv-x="578" 
d="M336 576h-79l-143 177h80l103 -111l102 111h80zM298 62q47 0 81 35.5t44 96.5h120q-9 -96 -75 -155t-170 -59q-117 0 -187.5 77.5t-70.5 197.5t70.5 197.5t187.5 77.5q104 0 169.5 -58t75.5 -154h-120q-10 60 -44 94.5t-81 34.5q-59 0 -97.5 -54t-38.5 -138t38.5 -138.5
t97.5 -54.5z" />
    <glyph glyph-name="Dcaron" unicode="&#x10e;" horiz-adv-x="758" 
d="M418 796h-99l-143 177h90l102 -111l102 111h91zM378 750q157 0 239.5 -102.5t82.5 -271.5q0 -171 -82 -273.5t-240 -102.5h-318v85h77v580h-77v85h318zM361 85q97 0 149.5 77t52.5 214t-52.5 213t-149.5 76h-102v-580h102z" />
    <glyph glyph-name="dcaron" unicode="&#x10f;" horiz-adv-x="701" 
d="M537 750v-669h63v-81h-178v54q-55 -74 -158 -74q-94 0 -159 76.5t-65 198.5q0 123 65 199t159 76q104 0 158 -75v218h-73v77h188zM613 750h74v-79q0 -40 -18.5 -85t-45.5 -77l-20 16q10 22 10 225zM302 70q50 0 85 35t35 84v132q0 49 -35 83.5t-85 34.5q-60 0 -100 -51.5
t-40 -132.5q0 -80 40 -132.5t100 -52.5z" />
    <glyph glyph-name="Dcroat" unicode="&#x110;" horiz-adv-x="740" 
d="M366 750q157 0 240 -102.5t83 -271.5q0 -171 -82.5 -273.5t-240.5 -102.5h-318v85h78v247h-71v99h71v234h-78v85h318zM350 85q97 0 149.5 77t52.5 214t-52.5 213t-149.5 76h-103v-234h109v-99h-109v-247h103z" />
    <glyph glyph-name="dcroat" unicode="&#x111;" horiz-adv-x="638" 
d="M600 567h-63v-486h63v-81h-178v84q-17 -44 -59.5 -74t-102.5 -30q-94 0 -157 76t-63 199t63 199t157 76q60 0 102.5 -30t59.5 -75v142h-131v55h131v51h-73v77h188v-128h63v-55zM302 62q50 0 85 35t35 84v148q0 49 -35 83.5t-85 34.5q-60 0 -100 -54t-40 -138
q0 -83 40 -138t100 -55z" />
    <glyph glyph-name="Emacron" unicode="&#x112;" horiz-adv-x="660" 
d="M531 933v-88h-383v88h383zM595 515h-72v51q0 59 -14 79t-54 20h-195v-236h181v-83h-181v-261h195q40 0 54 21.5t14 79.5v68h72v-254h-535v85h79v580h-79v85h535v-235z" />
    <glyph glyph-name="emacron" unicode="&#x113;" horiz-adv-x="592" 
d="M488 721v-83h-373v83h373zM555 262v-33h-392q7 -77 44.5 -122t93.5 -45q47 0 82.5 29.5t47.5 79.5h121q-20 -88 -86 -139.5t-163 -51.5q-117 0 -190 77.5t-73 197.5q0 119 73 197t190 78t184.5 -73.5t67.5 -194.5zM300 455q-55 0 -92 -42.5t-44 -117.5h272
q-7 73 -44.5 116.5t-91.5 43.5z" />
    <glyph glyph-name="Ebreve" unicode="&#x114;" horiz-adv-x="660" 
d="M343 788q-84 0 -128.5 46.5t-44.5 122.5h61q1 -53 32 -79.5t80 -26.5t80.5 26.5t32.5 79.5h62q0 -76 -45.5 -122.5t-129.5 -46.5zM595 515h-72v51q0 59 -14 79t-54 20h-195v-236h181v-83h-181v-261h195q40 0 54 21.5t14 79.5v68h72v-254h-535v85h79v580h-79v85h535v-235z
" />
    <glyph glyph-name="ebreve" unicode="&#x115;" horiz-adv-x="592" 
d="M301 578q-82 0 -122.5 44.5t-40.5 122.5h51q1 -53 32 -79.5t80 -26.5t81 26.5t33 79.5h51q0 -77 -41 -122t-124 -45zM555 262v-33h-392q7 -77 44.5 -122t93.5 -45q47 0 82.5 29.5t47.5 79.5h121q-20 -88 -86 -139.5t-163 -51.5q-117 0 -190 77.5t-73 197.5q0 119 73 197
t190 78t184.5 -73.5t67.5 -194.5zM300 455q-55 0 -92 -42.5t-44 -117.5h272q-7 73 -44.5 116.5t-91.5 43.5z" />
    <glyph glyph-name="Edotaccent" unicode="&#x116;" horiz-adv-x="660" 
d="M343 841q-32 0 -53.5 18.5t-21.5 46.5q0 29 21.5 48t53.5 19q31 0 52.5 -19t21.5 -48q0 -28 -21 -46.5t-53 -18.5zM595 515h-72v51q0 59 -14 79t-54 20h-195v-236h181v-83h-181v-261h195q40 0 54 21.5t14 79.5v68h72v-254h-535v85h79v580h-79v85h535v-235z" />
    <glyph glyph-name="edotaccent" unicode="&#x117;" horiz-adv-x="592" 
d="M302 621q-31 0 -51.5 18t-20.5 45t20.5 45.5t51.5 18.5t51.5 -18.5t20.5 -45.5t-20.5 -45t-51.5 -18zM555 262v-33h-392q7 -77 44.5 -122t93.5 -45q47 0 82.5 29.5t47.5 79.5h121q-20 -88 -86 -139.5t-163 -51.5q-117 0 -190 77.5t-73 197.5q0 119 73 197t190 78
t184.5 -73.5t67.5 -194.5zM300 455q-55 0 -92 -42.5t-44 -117.5h272q-7 73 -44.5 116.5t-91.5 43.5z" />
    <glyph glyph-name="Eogonek" unicode="&#x118;" horiz-adv-x="660" 
d="M595 515h-72v51q0 59 -14 79t-54 20h-195v-236h181v-83h-181v-261h195q40 0 54 21.5t14 79.5v68h72v-254h-23q-38 0 -70 -28t-32 -57q0 -18 13 -31.5t34 -13.5q33 0 54 16v-56q-24 -17 -86 -17q-55 0 -84.5 24t-29.5 60q0 33 29 62t63 41h-403v85h79v580h-79v85h535v-235
z" />
    <glyph glyph-name="eogonek" unicode="&#x119;" horiz-adv-x="592" 
d="M555 262v-33h-392q7 -77 44.5 -122t93.5 -45q47 0 82.5 29.5t47.5 79.5h121q-16 -71 -63 -119t-117 -64q-41 -31 -57.5 -53.5t-16.5 -46.5q0 -17 13 -30.5t33 -13.5q32 0 52 16v-54q-22 -17 -83 -17q-52 0 -81 24.5t-29 59.5q0 58 70 108q-105 10 -169 86t-64 188
q0 119 73 197t190 78t184.5 -73.5t67.5 -194.5zM300 455q-55 0 -92 -42.5t-44 -117.5h272q-7 73 -44.5 116.5t-91.5 43.5z" />
    <glyph glyph-name="Ecaron" unicode="&#x11a;" horiz-adv-x="660" 
d="M398 796h-99l-143 177h90l102 -111l102 111h91zM595 515h-72v51q0 59 -14 79t-54 20h-195v-236h181v-83h-181v-261h195q40 0 54 21.5t14 79.5v68h72v-254h-535v85h79v580h-79v85h535v-235z" />
    <glyph glyph-name="ecaron" unicode="&#x11b;" horiz-adv-x="592" 
d="M340 576h-79l-143 177h80l103 -111l102 111h80zM555 262v-33h-392q7 -77 44.5 -122t93.5 -45q47 0 82.5 29.5t47.5 79.5h121q-20 -88 -86 -139.5t-163 -51.5q-117 0 -190 77.5t-73 197.5q0 119 73 197t190 78t184.5 -73.5t67.5 -194.5zM300 455q-55 0 -92 -42.5
t-44 -117.5h272q-7 73 -44.5 116.5t-91.5 43.5z" />
    <glyph glyph-name="Gcircumflex" unicode="&#x11c;" horiz-adv-x="777" 
d="M401 916l-105 -113h-90l146 179h99l146 -179h-91zM452 347h297v-70h-51v-277h-78l-11 126q-34 -68 -94 -107t-141 -39q-151 0 -233.5 109.5t-82.5 286.5q0 175 83.5 284.5t230.5 109.5q150 0 223 -132l10 112h82v-232h-122q-37 151 -169 151q-95 0 -148 -81t-53 -212
t54.5 -213t151.5 -82q77 0 128 51.5t55 144.5h-132v70z" />
    <glyph glyph-name="gcircumflex" unicode="&#x11d;" horiz-adv-x="626" 
d="M307 689l-106 -114h-80l146 179h79l146 -179h-80zM334 104q127 0 184.5 -33t57.5 -112q0 -86 -71.5 -129.5t-225.5 -43.5q-239 0 -239 135q0 75 79 111q-45 25 -45 82q0 36 27 65t64 39q-79 46 -79 140q0 76 60 124t159 48t159.5 -48t60.5 -124q0 -78 -60 -125.5
t-160 -47.5q-47 0 -88 11q-44 -13 -44 -46q0 -26 26 -36t86 -10h49zM305 471q-50 0 -79 -30t-29 -83q0 -54 28.5 -83.5t79.5 -29.5t80 29.5t29 83.5q0 52 -29.5 82.5t-79.5 30.5zM319 -158q69 0 117 26.5t48 70.5q0 37 -34.5 52.5t-116.5 15.5h-75q-42 0 -69 4
q-57 -28 -57 -80q0 -44 42.5 -66.5t115.5 -22.5h29z" />
    <glyph glyph-name="Gbreve" unicode="&#x11e;" horiz-adv-x="777" 
d="M400 788q-84 0 -128.5 46.5t-44.5 122.5h61q1 -53 32 -79.5t80 -26.5t80.5 26.5t32.5 79.5h62q0 -76 -45.5 -122.5t-129.5 -46.5zM452 347h297v-70h-51v-277h-78l-11 126q-34 -68 -94 -107t-141 -39q-151 0 -233.5 109.5t-82.5 286.5q0 175 83.5 284.5t230.5 109.5
q150 0 223 -132l10 112h82v-232h-122q-37 151 -169 151q-95 0 -148 -81t-53 -212t54.5 -213t151.5 -82q77 0 128 51.5t55 144.5h-132v70z" />
    <glyph glyph-name="gbreve" unicode="&#x11f;" horiz-adv-x="626" 
d="M304 578q-82 0 -122.5 44.5t-40.5 122.5h51q1 -53 32 -79.5t80 -26.5t81 26.5t33 79.5h51q0 -77 -41 -122t-124 -45zM334 104q127 0 184.5 -33t57.5 -112q0 -86 -71.5 -129.5t-225.5 -43.5q-239 0 -239 135q0 75 79 111q-45 25 -45 82q0 36 27 65t64 39q-79 46 -79 140
q0 76 60 124t159 48t159.5 -48t60.5 -124q0 -78 -60 -125.5t-160 -47.5q-47 0 -88 11q-44 -13 -44 -46q0 -26 26 -36t86 -10h49zM305 471q-50 0 -79 -30t-29 -83q0 -54 28.5 -83.5t79.5 -29.5t80 29.5t29 83.5q0 52 -29.5 82.5t-79.5 30.5zM319 -158q69 0 117 26.5t48 70.5
q0 37 -34.5 52.5t-116.5 15.5h-75q-42 0 -69 4q-57 -28 -57 -80q0 -44 42.5 -66.5t115.5 -22.5h29z" />
    <glyph glyph-name="Gdotaccent" unicode="&#x120;" horiz-adv-x="777" 
d="M399 841q-32 0 -53.5 18.5t-21.5 46.5q0 29 21.5 48t53.5 19q31 0 52.5 -19t21.5 -48q0 -28 -21 -46.5t-53 -18.5zM452 347h297v-70h-51v-277h-78l-11 126q-34 -68 -94 -107t-141 -39q-151 0 -233.5 109.5t-82.5 286.5q0 175 83.5 284.5t230.5 109.5q150 0 223 -132
l10 112h82v-232h-122q-37 151 -169 151q-95 0 -148 -81t-53 -212t54.5 -213t151.5 -82q77 0 128 51.5t55 144.5h-132v70z" />
    <glyph glyph-name="gdotaccent" unicode="&#x121;" horiz-adv-x="626" 
d="M306 611q-31 0 -51.5 18t-20.5 45t20.5 45.5t51.5 18.5t51.5 -18.5t20.5 -45.5t-20.5 -45t-51.5 -18zM553 560q-82 0 -83 -82q55 -47 55 -120q0 -78 -60 -125.5t-160 -47.5q-47 0 -88 11q-44 -13 -44 -46q0 -26 26 -36t86 -10h49q127 0 184.5 -33t57.5 -112
q0 -86 -71.5 -129.5t-225.5 -43.5q-239 0 -239 135q0 75 79 111q-45 25 -45 82q0 36 25.5 65.5t60.5 41.5q-74 48 -74 137q0 76 60 124t159 48q65 0 113 -21q3 128 115 128q43 0 52 -9v-71q-18 3 -32 3zM305 253q51 0 80 27t29 78q0 49 -29 77t-80 28q-50 0 -79 -28t-29 -77
q0 -51 28.5 -78t79.5 -27zM333 7h-75q-42 0 -69 4q-57 -28 -57 -80q0 -44 42.5 -66.5t115.5 -22.5h29q69 0 117 26.5t48 70.5q0 37 -34.5 52.5t-116.5 15.5z" />
    <glyph glyph-name="Gcommaaccent" unicode="&#x122;" horiz-adv-x="777" 
d="M452 347h297v-70h-51v-277h-78l-11 126q-34 -68 -94 -107t-141 -39q-151 0 -233.5 109.5t-82.5 286.5q0 175 83.5 284.5t230.5 109.5q150 0 223 -132l10 112h82v-232h-122q-37 151 -169 151q-95 0 -148 -81t-53 -212t54.5 -213t151.5 -82q77 0 128 51.5t55 144.5h-132v70
zM397 -68q28 0 45.5 -18.5t17.5 -50.5q0 -44 -26.5 -85t-72.5 -72l-22 20q46 46 58 94q-28 1 -44.5 17.5t-16.5 38.5q0 23 17.5 39.5t43.5 16.5z" />
    <glyph glyph-name="gcommaaccent" unicode="&#x123;" horiz-adv-x="609" 
d="M274 578q-1 0 -1 67q0 31 0.5 83t0.5 69l1 -19q0 -5 -0.5 -34.5t-0.5 -57.5v-9t0.5 -20.5t0.5 -24.5zM553 560q-82 0 -83 -82q55 -47 55 -120q0 -78 -60 -125.5t-160 -47.5q-47 0 -88 11q-44 -13 -44 -46q0 -26 26 -36t86 -10h49q127 0 184.5 -33t57.5 -112
q0 -86 -71.5 -129.5t-225.5 -43.5q-239 0 -239 135q0 75 79 111q-45 25 -45 82q0 36 25.5 65.5t60.5 41.5q-74 48 -74 137q0 76 60 124t159 48q65 0 113 -21q3 128 115 128q43 0 52 -9v-71q-18 3 -32 3zM305 253q51 0 80 27t29 78q0 49 -29 77t-80 28q-50 0 -79 -28t-29 -77
q0 -51 28.5 -78t79.5 -27zM333 7h-75q-42 0 -69 4q-57 -28 -57 -80q0 -44 42.5 -66.5t115.5 -22.5h29q69 0 117 26.5t48 70.5q0 37 -34.5 52.5t-116.5 15.5z" />
    <glyph glyph-name="Hcircumflex" unicode="&#x124;" horiz-adv-x="847" 
d="M431 916l-105 -113h-90l146 179h99l146 -179h-91zM777 665h-77v-580h77v-85h-265v85h66v262h-319v-262h66v-85h-265v85h77v580h-77v85h265v-85h-66v-239h319v239h-66v85h265v-85z" />
    <glyph glyph-name="hcircumflex" unicode="&#x125;" horiz-adv-x="641" 
d="M326 904l-106 -114h-80l146 179h79l146 -179h-80zM543 81h61v-81h-228v81h52v251q0 58 -26 87t-69 29q-50 0 -83.5 -33.5t-33.5 -84.5v-249h52v-81h-230v81h63v588h-63v81h178v-303q54 83 165 83q62 0 112 -40.5t50 -125.5v-283z" />
    <glyph glyph-name="Hbar" unicode="&#x126;" horiz-adv-x="792" 
d="M744 665h-77v-128h59v-56h-59v-396h77v-85h-265v85h66v254h-298v-254h66v-85h-265v85h78v396h-58v56h58v128h-78v85h265v-85h-66v-128h298v128h-66v85h265v-85zM545 410v71h-298v-71h298z" />
    <glyph glyph-name="hbar" unicode="&#x127;" horiz-adv-x="641" 
d="M543 81h61v-81h-228v81h52v251q0 54 -24.5 85t-70.5 31q-51 0 -84 -33.5t-33 -84.5v-249h52v-81h-230v81h63v482h-63v59h63v46h-63v82h178v-128h132v-59h-132v-136q52 103 165 103q76 0 119 -47.5t43 -118.5v-283z" />
    <glyph glyph-name="Itilde" unicode="&#x128;" horiz-adv-x="401" 
d="M112 957q41 0 94 -19.5t75 -19.5q52 0 52 44h60q0 -57 -29 -92t-80 -35q-41 0 -94.5 20.5t-74.5 20.5q-55 0 -55 -46h-59q0 57 29 92t82 35zM60 0v85h80v580h-80v85h281v-85h-80v-580h80v-85h-281z" />
    <glyph glyph-name="itilde" unicode="&#x129;" horiz-adv-x="316" 
d="M278 735h56q0 -52 -28 -84.5t-76 -32.5q-38 0 -89 19t-71 19q-53 0 -53 -43h-55q0 52 28 85t78 33q38 0 88 -19t72 -19q24 0 37 11.5t13 30.5zM216 510v-429h63v-81h-241v81h63v347h-63v82h178z" />
    <glyph glyph-name="Imacron" unicode="&#x12a;" horiz-adv-x="401" 
d="M8 933h383v-88h-383v88zM60 0v85h80v580h-80v85h281v-85h-80v-580h80v-85h-281z" />
    <glyph glyph-name="imacron" unicode="&#x12b;" horiz-adv-x="316" 
d="M-27 721h373v-83h-373v83zM216 510v-429h63v-81h-241v81h63v347h-63v82h178z" />
    <glyph glyph-name="Ibreve" unicode="&#x12c;" horiz-adv-x="401" 
d="M199 851q49 0 80.5 26.5t32.5 79.5h62q0 -76 -45.5 -122.5t-129.5 -46.5t-128.5 46.5t-44.5 122.5h61q1 -53 32 -79.5t80 -26.5zM60 0v85h80v580h-80v85h281v-85h-80v-580h80v-85h-281z" />
    <glyph glyph-name="ibreve" unicode="&#x12d;" horiz-adv-x="316" 
d="M273 745h51q0 -77 -41 -122t-124 -45q-82 0 -122.5 44.5t-40.5 122.5h51q1 -53 32 -79.5t80 -26.5t81 26.5t33 79.5zM216 510v-429h63v-81h-241v81h63v347h-63v82h178z" />
    <glyph glyph-name="Iogonek" unicode="&#x12e;" horiz-adv-x="401" 
d="M341 665h-80v-580h80v-85h-51q-35 -5 -62 -31.5t-27 -53.5q0 -18 13 -31.5t34 -13.5q34 0 54 17v-56q-25 -18 -86 -18q-55 0 -84.5 24.5t-29.5 59.5q0 33 29 62t63 41h-134v85h80v580h-80v85h281v-85z" />
    <glyph glyph-name="iogonek" unicode="&#x12f;" horiz-adv-x="316" 
d="M145 612q-37 0 -58 18.5t-21 47.5t21 48t58 19q38 0 59 -19t21 -48t-21 -47.5t-59 -18.5zM270 0q-40 0 -67.5 -24.5t-27.5 -53.5q0 -17 13 -30.5t33 -13.5q32 0 52 16v-54q-22 -17 -83 -17q-52 0 -81 24t-29 59q0 33 25 58.5t59 35.5h-126v81h63v347h-63v82h178v-429h63
v-81h-9z" />
    <glyph glyph-name="Idotaccent" unicode="&#x130;" horiz-adv-x="401" 
d="M204 841q-32 0 -53.5 18.5t-21.5 46.5q0 29 21.5 48t53.5 19q31 0 52.5 -19t21.5 -48q0 -28 -21 -46.5t-53 -18.5zM60 0v85h80v580h-80v85h281v-85h-80v-580h80v-85h-281z" />
    <glyph glyph-name="dotlessi" unicode="&#x131;" horiz-adv-x="316" 
d="M216 81h63v-81h-241v81h63v347h-63v82h178v-429z" />
    <glyph glyph-name="IJ" unicode="&#x132;" horiz-adv-x="781" 
d="M48 0v85h80v580h-80v85h281v-85h-79v-580h79v-85h-281zM669 241q0 -261 -197 -261q-58 0 -82 11v89q18 -4 42 -4q55 0 85 37.5t30 107.5v444h-86v85h288v-85h-80v-424z" />
    <glyph glyph-name="ij" unicode="&#x133;" horiz-adv-x="594" 
d="M145 612q-37 0 -58 18.5t-21 47.5t21 48t58 19q38 0 59 -19t21 -48t-21 -47.5t-59 -18.5zM460 610q-37 0 -58 18.5t-21 47.5t21 48t58 19q38 0 59 -19t21 -48t-21 -47.5t-59 -18.5zM216 510v-429h63v-81h-241v81h63v347h-63v82h178zM352 428v82h188v-605
q0 -56 -27.5 -80.5t-87.5 -24.5q-46 0 -73 6v85q12 -3 28 -3q27 0 36 11.5t9 35.5v493h-73z" />
    <glyph glyph-name="Jcircumflex" unicode="&#x134;" horiz-adv-x="593" 
d="M415 916l-105 -113h-90l146 179h99l146 -179h-91zM268 665v85h288v-85h-80v-424q0 -128 -55 -194.5t-182 -66.5q-125 0 -173 63.5t-48 200.5v40h116v-63q0 -146 105 -146q56 0 85.5 38t29.5 108v444h-86z" />
    <glyph glyph-name="jcircumflex" unicode="&#x135;" horiz-adv-x="278" 
d="M178 754l146 -179h-80l-105 114l-106 -114h-80l146 179h79zM20 428v82h188v-605q0 -56 -28 -80.5t-88 -24.5q-46 0 -73 6v85q14 -3 29 -3q27 0 36 11.5t9 35.5v493h-73z" />
    <glyph glyph-name="Kcommaaccent" unicode="&#x136;" horiz-adv-x="782" 
d="M674 85h72v-85h-278v85h67l-157 288l-113 -115l-4 9v-182h63v-85h-264v85h80v580h-80v85h266v-85h-65v-297l283 297h-83v85h271v-85h-66l-202 -205zM382 -68q28 0 45.5 -18.5t17.5 -50.5q0 -44 -26.5 -85t-72.5 -72l-22 20q46 46 58 94q-28 1 -44.5 17.5t-16.5 38.5
q0 23 17.5 39.5t43.5 16.5z" />
    <glyph glyph-name="kcommaaccent" unicode="&#x137;" horiz-adv-x="635" 
d="M552 81h60v-81h-236v81h52l-118 174l-94 -70v-104h52v-81h-230v81h63v588h-63v81h178v-481l205 160h-59v81h235v-81h-54l-150 -112zM313 -58q27 0 43.5 -17.5t16.5 -49.5q0 -42 -26 -82.5t-69 -69.5l-22 19q45 45 56 92q-27 2 -42.5 17.5t-15.5 36.5q0 23 17 38.5
t42 15.5z" />
    <glyph glyph-name="Lacute" unicode="&#x139;" horiz-adv-x="605" 
d="M154 795l134 179h113l-151 -179h-96zM260 665v-580h150q46 0 61.5 30.5t15.5 120.5v25h72v-261h-499v85h79v580h-79v85h293v-85h-93z" />
    <glyph glyph-name="lacute" unicode="&#x13a;" horiz-adv-x="316" 
d="M293 979l-151 -179h-86l134 179h103zM216 750v-669h63v-81h-241v81h63v588h-63v81h178z" />
    <glyph glyph-name="Lcommaaccent" unicode="&#x13b;" horiz-adv-x="605" 
d="M487 261h72v-261h-499v85h79v580h-79v85h293v-85h-93v-580h150q46 0 61.5 30.5t15.5 120.5v25zM318 -68q28 0 45.5 -18.5t17.5 -50.5q0 -44 -26.5 -85t-72.5 -72l-22 20q46 46 58 94q-28 1 -44.5 17.5t-16.5 38.5q0 23 17.5 39.5t43.5 16.5z" />
    <glyph glyph-name="lcommaaccent" unicode="&#x13c;" horiz-adv-x="316" 
d="M216 81h63v-81h-241v81h63v588h-63v81h178v-669zM158 -58q27 0 43.5 -17.5t16.5 -49.5q0 -42 -26 -82.5t-69 -69.5l-22 19q45 45 56 92q-27 2 -42.5 17.5t-15.5 36.5q0 23 17 38.5t42 15.5z" />
    <glyph glyph-name="Lcaron" unicode="&#x13d;" horiz-adv-x="605" 
d="M252 796h-99l-143 177h90l102 -111l102 111h91zM487 261h72v-261h-499v85h79v580h-79v85h293v-85h-93v-580h150q46 0 61.5 30.5t15.5 120.5v25z" />
    <glyph glyph-name="lcaron" unicode="&#x13e;" horiz-adv-x="379" 
d="M216 750v-669h63v-81h-241v81h63v588h-63v81h178zM277 750h74v-79q0 -40 -18.5 -85t-45.5 -77l-21 16q11 22 11 225z" />
    <glyph glyph-name="Ldot" unicode="&#x13f;" horiz-adv-x="605" 
d="M260 665v-580h150q46 0 61.5 30.5t15.5 120.5v25h72v-261h-499v85h79v580h-79v85h293v-85h-93zM426 385q-27 0 -45.5 17t-18.5 41t18.5 41t45.5 17q28 0 46.5 -17t18.5 -41t-18.5 -41t-46.5 -17z" />
    <glyph glyph-name="ldot" unicode="&#x140;" horiz-adv-x="396" 
d="M216 750v-669h63v-81h-241v81h63v588h-63v81h178zM334 462q31 0 51.5 -18.5t20.5 -45.5t-20.5 -45t-51.5 -18t-51.5 18t-20.5 45t20.5 45.5t51.5 18.5z" />
    <glyph glyph-name="Lslash" unicode="&#x141;" horiz-adv-x="567" 
d="M475 261h72v-261h-499v85h79v174l-82 -47v126l82 47v280h-79v85h294v-85h-93v-209l118 68v-126l-118 -68v-245h150q46 0 61 30.5t15 120.5v25z" />
    <glyph glyph-name="lslash" unicode="&#x142;" horiz-adv-x="316" 
d="M279 505l-63 -51v-373h63v-81h-241v81h63v281l-63 -51v77l63 51v230h-63v81h178v-219l63 51v-77z" />
    <glyph glyph-name="Nacute" unicode="&#x143;" horiz-adv-x="806" 
d="M551 974l-151 -179h-96l134 179h113zM512 750h241v-85h-75v-665h-93l-359 553v-468h75v-85h-244v85h80v580h-80v85h175l352 -547v462h-72v85z" />
    <glyph glyph-name="nacute" unicode="&#x144;" horiz-adv-x="641" 
d="M457 759l-151 -179h-86l134 179h103zM543 81h61v-81h-228v81h52v251q0 55 -25 85.5t-70 30.5q-50 0 -83.5 -34t-33.5 -84v-249h52v-81h-230v81h63v347h-63v82h178v-62q54 82 165 82q72 0 117 -46t45 -120v-283z" />
    <glyph glyph-name="Ncommaaccent" unicode="&#x145;" horiz-adv-x="806" 
d="M512 750h241v-85h-75v-665h-93l-359 553v-468h75v-85h-244v85h80v580h-80v85h175l352 -547v462h-72v85zM397 -68q28 0 45.5 -18.5t17.5 -50.5q0 -44 -26.5 -85t-72.5 -72l-22 20q46 46 58 94q-28 1 -44.5 17.5t-16.5 38.5q0 23 17.5 39.5t43.5 16.5z" />
    <glyph glyph-name="ncommaaccent" unicode="&#x146;" horiz-adv-x="641" 
d="M543 81h61v-81h-228v81h52v251q0 55 -25 85.5t-70 30.5q-50 0 -83.5 -34t-33.5 -84v-249h52v-81h-230v81h63v347h-63v82h178v-62q54 82 165 82q72 0 117 -46t45 -120v-283zM319 -58q27 0 43.5 -17.5t16.5 -49.5q0 -42 -25.5 -82.5t-69.5 -69.5l-22 19q45 45 56 92
q-27 2 -42.5 17.5t-15.5 36.5q0 23 17 38.5t42 15.5z" />
    <glyph glyph-name="Ncaron" unicode="&#x147;" horiz-adv-x="806" 
d="M451 796h-99l-143 177h90l102 -111l102 111h91zM512 750h241v-85h-75v-665h-93l-359 553v-468h75v-85h-244v85h80v580h-80v85h175l352 -547v462h-72v85z" />
    <glyph glyph-name="ncaron" unicode="&#x148;" horiz-adv-x="641" 
d="M362 576h-79l-143 177h80l103 -111l102 111h80zM543 81h61v-81h-228v81h52v251q0 55 -25 85.5t-70 30.5q-50 0 -83.5 -34t-33.5 -84v-249h52v-81h-230v81h63v347h-63v82h178v-62q54 82 165 82q72 0 117 -46t45 -120v-283z" />
    <glyph glyph-name="Eng" unicode="&#x14a;" horiz-adv-x="765" 
d="M488 750h240v-85h-74v-723q0 -65 -26.5 -93t-94.5 -28q-48 0 -78 9v83q27 -3 34 -3q70 0 70 62v31l-357 550v-468h74v-85h-243v85h79v580h-79v85h175l351 -546v461h-71v85z" />
    <glyph glyph-name="eng" unicode="&#x14b;" horiz-adv-x="580" 
d="M381 530q72 0 117 -46t45 -120v-459q0 -56 -27.5 -80.5t-87.5 -24.5q-46 0 -74 6v85q14 -3 29 -3q27 0 36 11.5t9 35.5v397q0 55 -25 85.5t-70 30.5q-50 0 -83.5 -34t-33.5 -84v-249h58v-81h-236v81h63v347h-63v82h178v-62q54 82 165 82z" />
    <glyph glyph-name="Omacron" unicode="&#x14c;" horiz-adv-x="786" 
d="M199 938h383v-88h-383v88zM393 770q157 0 246 -112.5t89 -281.5q0 -171 -89 -283.5t-246 -112.5q-158 0 -246.5 112t-88.5 284q0 170 88.5 282t246.5 112zM393 81q92 0 145 81t53 214q0 134 -52.5 213.5t-145.5 79.5t-145.5 -79.5t-52.5 -213.5t52.5 -214.5t145.5 -80.5z
" />
    <glyph glyph-name="omacron" unicode="&#x14d;" horiz-adv-x="598" 
d="M113 721h373v-83h-373v83zM299 530q115 0 187 -77t72 -198t-72 -198t-187 -77q-114 0 -186.5 77.5t-72.5 197.5t72.5 197.5t186.5 77.5zM299 62q61 0 99 53t38 140t-38 139.5t-99 52.5q-60 0 -98.5 -52.5t-38.5 -139.5q0 -86 38.5 -139.5t98.5 -53.5z" />
    <glyph glyph-name="Obreve" unicode="&#x14e;" horiz-adv-x="786" 
d="M393 851q49 0 80.5 26.5t32.5 79.5h62q0 -76 -45.5 -122.5t-129.5 -46.5t-128.5 46.5t-44.5 122.5h61q1 -53 32 -79.5t80 -26.5zM393 770q157 0 246 -112.5t89 -281.5q0 -171 -89 -283.5t-246 -112.5q-158 0 -246.5 112t-88.5 284q0 170 88.5 282t246.5 112zM393 81
q92 0 145 81t53 214q0 134 -52.5 213.5t-145.5 79.5t-145.5 -79.5t-52.5 -213.5t52.5 -214.5t145.5 -80.5z" />
    <glyph glyph-name="obreve" unicode="&#x14f;" horiz-adv-x="598" 
d="M299 639q49 0 81 26.5t33 79.5h51q0 -77 -41 -122t-124 -45q-82 0 -122.5 44.5t-40.5 122.5h51q1 -53 32 -79.5t80 -26.5zM299 530q115 0 187 -77t72 -198t-72 -198t-187 -77q-114 0 -186.5 77.5t-72.5 197.5t72.5 197.5t186.5 77.5zM299 62q61 0 99 53t38 140t-38 139.5
t-99 52.5q-60 0 -98.5 -52.5t-38.5 -139.5q0 -86 38.5 -139.5t98.5 -53.5z" />
    <glyph glyph-name="Ohungarumlaut" unicode="&#x150;" horiz-adv-x="786" 
d="M255 800l134 179h113l-151 -179h-96zM425 800l145 179h113l-163 -179h-95zM393 770q157 0 246 -112.5t89 -281.5q0 -171 -89 -283.5t-246 -112.5q-158 0 -246.5 112t-88.5 284q0 170 88.5 282t246.5 112zM393 81q92 0 145 81t53 214q0 134 -52.5 213.5t-145.5 79.5
t-145.5 -79.5t-52.5 -213.5t52.5 -214.5t145.5 -80.5z" />
    <glyph glyph-name="ohungarumlaut" unicode="&#x151;" horiz-adv-x="598" 
d="M172 575l134 179h103l-151 -179h-86zM332 575l146 179h102l-162 -179h-86zM299 530q115 0 187 -77t72 -198t-72 -198t-187 -77q-114 0 -186.5 77.5t-72.5 197.5t72.5 197.5t186.5 77.5zM299 62q61 0 99 53t38 140t-38 139.5t-99 52.5q-60 0 -98.5 -52.5t-38.5 -139.5
q0 -86 38.5 -139.5t98.5 -53.5z" />
    <glyph glyph-name="OE" unicode="&#x152;" horiz-adv-x="948" 
d="M895 515h-73v51q0 59 -13.5 79t-53.5 20h-195v-240h181v-75h-181v-265h195q40 0 53.5 21.5t13.5 79.5v68h73v-254h-509q-159 0 -247 105.5t-88 270.5q0 163 88 268.5t247 105.5h509v-235zM438 85v580h-51q-94 0 -146.5 -78t-52.5 -211t52.5 -212t146.5 -79h51z" />
    <glyph glyph-name="oe" unicode="&#x153;" horiz-adv-x="993" 
d="M956 262v-21h-394q4 -84 42.5 -131.5t97.5 -47.5q47 0 82.5 28.5t47.5 80.5h121q-20 -88 -86 -139.5t-163 -51.5q-134 0 -202 115q-67 -115 -203 -115q-114 0 -186.5 77.5t-72.5 197.5t72.5 197.5t186.5 77.5q68 0 120 -31t83 -85q68 116 203 116q117 0 184 -73.5
t67 -194.5zM701 455q-57 0 -94 -43t-44 -121h273q-6 76 -43.5 120t-91.5 44zM299 62q61 0 99 52t38 141t-38 140.5t-99 51.5t-99 -51.5t-38 -140.5q0 -88 38.5 -140.5t98.5 -52.5z" />
    <glyph glyph-name="Racute" unicode="&#x154;" horiz-adv-x="747" 
d="M512 974l-151 -179h-96l134 179h113zM685 85h18v-85h-105q-52 0 -75 27.5t-23 90.5v91q0 51 -28 79.5t-79 28.5h-132v-232h68v-85h-269v85h80v580h-80v85h351q131 0 190.5 -49.5t59.5 -146.5q0 -77 -46 -129t-125 -63q69 -9 102.5 -48t33.5 -96v-64q0 -38 13.5 -53.5
t45.5 -15.5zM386 401q62 0 101 36.5t39 97.5q0 130 -138 130h-127v-264h125z" />
    <glyph glyph-name="racute" unicode="&#x155;" horiz-adv-x="415" 
d="M347 759l-151 -179h-86l134 179h103zM352 530q24 0 36 -5v-96q-21 7 -42 7q-61 0 -95.5 -45t-34.5 -134v-176h83v-81h-261v81h63v347h-63v82h178v-62q22 38 58.5 60t77.5 22z" />
    <glyph glyph-name="Rcommaaccent" unicode="&#x156;" horiz-adv-x="747" 
d="M685 85h18v-85h-105q-52 0 -75 27.5t-23 90.5v91q0 51 -28 79.5t-79 28.5h-132v-232h68v-85h-269v85h80v580h-80v85h351q131 0 190.5 -49.5t59.5 -146.5q0 -77 -46 -129t-125 -63q69 -9 102.5 -48t33.5 -96v-64q0 -38 13.5 -53.5t45.5 -15.5zM386 401q62 0 101 36.5
t39 97.5q0 130 -138 130h-127v-264h125zM383 -68q28 0 45.5 -18.5t17.5 -50.5q0 -44 -26.5 -85t-72.5 -72l-22 20q46 46 58 94q-28 1 -44.5 17.5t-16.5 38.5q0 23 17.5 39.5t43.5 16.5z" />
    <glyph glyph-name="rcommaaccent" unicode="&#x157;" horiz-adv-x="415" 
d="M352 530q24 0 36 -5v-96q-21 7 -42 7q-61 0 -95.5 -45t-34.5 -134v-176h83v-81h-261v81h63v347h-63v82h178v-62q22 38 58.5 60t77.5 22zM180 -58q27 0 43.5 -17.5t16.5 -49.5q0 -42 -25.5 -82.5t-69.5 -69.5l-22 19q45 45 56 92q-27 2 -42.5 17.5t-15.5 36.5
q0 23 17 38.5t42 15.5z" />
    <glyph glyph-name="Rcaron" unicode="&#x158;" horiz-adv-x="747" 
d="M418 796h-99l-143 177h90l102 -111l102 111h91zM685 85h18v-85h-105q-52 0 -75 27.5t-23 90.5v91q0 51 -28 79.5t-79 28.5h-132v-232h68v-85h-269v85h80v580h-80v85h351q131 0 190.5 -49.5t59.5 -146.5q0 -77 -46 -129t-125 -63q69 -9 102.5 -48t33.5 -96v-64
q0 -38 13.5 -53.5t45.5 -15.5zM386 401q62 0 101 36.5t39 97.5q0 130 -138 130h-127v-264h125z" />
    <glyph glyph-name="rcaron" unicode="&#x159;" horiz-adv-x="415" 
d="M241 576h-79l-143 177h80l103 -111l102 111h80zM352 530q24 0 36 -5v-96q-21 7 -42 7q-61 0 -95.5 -45t-34.5 -134v-176h83v-81h-261v81h63v347h-63v82h178v-62q22 38 58.5 60t77.5 22z" />
    <glyph glyph-name="Sacute" unicode="&#x15a;" horiz-adv-x="639" 
d="M472 974l-151 -179h-96l134 179h113zM346 441q44 -18 72.5 -31.5t63.5 -36t54.5 -46t33.5 -58.5t14 -76q0 -99 -63.5 -156t-170.5 -57q-71 0 -126.5 26t-80.5 72l-9 -78h-66v237h88q6 -78 53 -123.5t114 -45.5q56 0 92 30.5t36 82.5q0 53 -39.5 87.5t-122.5 68.5
q-50 21 -80.5 37.5t-65 44.5t-51 67t-16.5 91q0 92 63.5 142.5t153.5 50.5q63 0 112 -23t70 -55l7 58h68v-217h-90q-3 70 -44 112t-96 42q-52 0 -83.5 -27t-31.5 -74q0 -50 35 -83.5t106 -61.5z" />
    <glyph glyph-name="sacute" unicode="&#x15b;" horiz-adv-x="494" 
d="M379 759l-151 -179h-86l134 179h103zM294 304q75 -23 118.5 -59.5t43.5 -105.5q0 -75 -47 -115t-125 -40q-120 0 -168 67l-5 -51h-66v158h78q5 -48 39 -78.5t83 -30.5q42 0 66 19t24 55q0 38 -29 59t-86 37q-32 11 -51 18.5t-45 22.5t-40.5 31t-25 41t-10.5 56
q0 69 47 104.5t115 35.5q100 0 147 -60l5 41h65v-143h-77q-7 45 -37.5 74.5t-72.5 29.5q-36 0 -58.5 -18.5t-22.5 -50.5q0 -33 31.5 -53t103.5 -44z" />
    <glyph glyph-name="Scircumflex" unicode="&#x15c;" horiz-adv-x="639" 
d="M323 916l-105 -113h-90l146 179h99l146 -179h-91zM346 441q44 -18 72.5 -31.5t63.5 -36t54.5 -46t33.5 -58.5t14 -76q0 -99 -63.5 -156t-170.5 -57q-71 0 -126.5 26t-80.5 72l-9 -78h-66v237h88q6 -78 53 -123.5t114 -45.5q56 0 92 30.5t36 82.5q0 53 -39.5 87.5
t-122.5 68.5q-50 21 -80.5 37.5t-65 44.5t-51 67t-16.5 91q0 92 63.5 142.5t153.5 50.5q63 0 112 -23t70 -55l7 58h68v-217h-90q-3 70 -44 112t-96 42q-52 0 -83.5 -27t-31.5 -74q0 -50 35 -83.5t106 -61.5z" />
    <glyph glyph-name="scircumflex" unicode="&#x15d;" horiz-adv-x="494" 
d="M243 689l-106 -114h-80l146 179h79l146 -179h-80zM294 304q75 -23 118.5 -59.5t43.5 -105.5q0 -75 -47 -115t-125 -40q-120 0 -168 67l-5 -51h-66v158h78q5 -48 39 -78.5t83 -30.5q42 0 66 19t24 55q0 38 -29 59t-86 37q-32 11 -51 18.5t-45 22.5t-40.5 31t-25 41
t-10.5 56q0 69 47 104.5t115 35.5q100 0 147 -60l5 41h65v-143h-77q-7 45 -37.5 74.5t-72.5 29.5q-36 0 -58.5 -18.5t-22.5 -50.5q0 -33 31.5 -53t103.5 -44z" />
    <glyph glyph-name="Scedilla" unicode="&#x15e;" horiz-adv-x="639" 
d="M350 -20h-4l-43 -51q24 8 49 8q43 0 79.5 -22.5t36.5 -72.5q0 -53 -43 -78t-112 -25q-20 0 -42.5 5.5t-29.5 11.5v42q28 -8 54 -8q45 0 67 12t22 43q0 22 -15.5 34.5t-42.5 12.5q-22 0 -39.5 -7t-24.5 -13l-7 -7l-28 29l72 90q-114 17 -156 94l-9 -78h-66v237h88
q6 -78 53 -123.5t114 -45.5q56 0 92 30.5t36 82.5q0 53 -39.5 87.5t-122.5 68.5q-50 21 -80.5 37.5t-65 44.5t-51 67t-16.5 91q0 92 63.5 142.5t153.5 50.5q63 0 112 -23t70 -55l7 58h68v-217h-90q-3 70 -44 112t-96 42q-52 0 -83.5 -27t-31.5 -74q0 -50 35 -83.5t106 -61.5
q44 -18 72.5 -31.5t63.5 -36t54.5 -46t33.5 -58.5t14 -76q0 -99 -63.5 -156t-170.5 -57z" />
    <glyph glyph-name="scedilla" unicode="&#x15f;" horiz-adv-x="494" 
d="M284 -16h-17l-42 -56q27 9 52 9q42 0 77 -21.5t35 -69.5q0 -51 -41.5 -75.5t-108.5 -24.5q-49 0 -70 16v41q28 -8 53 -8q43 0 64.5 12t21.5 42q0 21 -15 33.5t-41 12.5q-21 0 -38.5 -6.5t-23.5 -12.5l-7 -7l-34 27l73 94q-71 13 -106 61l-5 -51h-66v158h78
q5 -48 39 -78.5t83 -30.5q42 0 66 19t24 55q0 32 -29.5 53.5t-71.5 36.5t-84.5 33t-72 54t-29.5 88q0 69 47 104.5t115 35.5q100 0 147 -60l5 41h65v-143h-77q-7 45 -37.5 74.5t-72.5 29.5q-36 0 -58.5 -18.5t-22.5 -50.5q0 -30 30.5 -51t74.5 -35.5t87.5 -32.5t74 -54
t30.5 -89q0 -75 -47 -115t-125 -40z" />
    <glyph glyph-name="Scaron" unicode="&#x160;" horiz-adv-x="639" 
d="M380 796h-99l-143 177h90l102 -111l102 111h91zM346 441q44 -18 72.5 -31.5t63.5 -36t54.5 -46t33.5 -58.5t14 -76q0 -99 -63.5 -156t-170.5 -57q-71 0 -126.5 26t-80.5 72l-9 -78h-66v237h88q6 -78 53 -123.5t114 -45.5q56 0 92 30.5t36 82.5q0 53 -39.5 87.5
t-122.5 68.5q-50 21 -80.5 37.5t-65 44.5t-51 67t-16.5 91q0 92 63.5 142.5t153.5 50.5q63 0 112 -23t70 -55l7 58h68v-217h-90q-3 70 -44 112t-96 42q-52 0 -83.5 -27t-31.5 -74q0 -50 35 -83.5t106 -61.5z" />
    <glyph glyph-name="scaron" unicode="&#x161;" horiz-adv-x="494" 
d="M284 576h-79l-143 177h80l103 -111l102 111h80zM294 304q75 -23 118.5 -59.5t43.5 -105.5q0 -75 -47 -115t-125 -40q-120 0 -168 67l-5 -51h-66v158h78q5 -48 39 -78.5t83 -30.5q42 0 66 19t24 55q0 38 -29 59t-86 37q-32 11 -51 18.5t-45 22.5t-40.5 31t-25 41t-10.5 56
q0 69 47 104.5t115 35.5q100 0 147 -60l5 41h65v-143h-77q-7 45 -37.5 74.5t-72.5 29.5q-36 0 -58.5 -18.5t-22.5 -50.5q0 -33 31.5 -53t103.5 -44z" />
    <glyph glyph-name="Tcaron" unicode="&#x164;" horiz-adv-x="703" 
d="M402 795h-99l-143 177h90l102 -111l102 111h91zM48 750h607v-235h-68v51q1 64 -12.5 88t-43.5 24h-118v-593h91v-85h-304v85h91v593h-120q-29 0 -42 -24t-13 -88v-51h-68v235z" />
    <glyph glyph-name="tcaron" unicode="&#x165;" horiz-adv-x="376" 
d="M330 709q0 -40 -19 -85t-45 -76l-20 16q11 31 11 186h73v-41zM314 0q-36 -14 -99 -14q-79 0 -109 33.5t-30 95.5v314h-64v81h29q43 0 59 24t21 82v52h70v-158h120v-81h-120v-295q0 -56 75 -56q32 0 48 3v-81z" />
    <glyph glyph-name="Tbar" unicode="&#x166;" horiz-adv-x="668" 
d="M38 750h592v-235h-69v51q0 64 -13 88t-42 24h-111v-272h89v-80h-89v-241h84v-85h-289v85h83v241h-89v80h89v272h-112q-29 0 -42 -24t-13 -88v-51h-68v235z" />
    <glyph glyph-name="tbar" unicode="&#x167;" horiz-adv-x="359" 
d="M266 78q32 0 48 3v-81q-36 -14 -99 -14q-79 0 -109 33.5t-30 95.5v314h-64v81h29q43 0 59 24t21 82v52h70v-158h120v-81h-120v-295q0 -56 75 -56z" />
    <glyph glyph-name="Utilde" unicode="&#x168;" horiz-adv-x="759" 
d="M301 957q41 0 94 -19.5t75 -19.5q52 0 52 44h60q0 -57 -29 -92t-80 -35q-41 0 -94.5 20.5t-74.5 20.5q-55 0 -55 -46h-59q0 57 29 92t82 35zM622 239q0 -120 -61.5 -189.5t-183.5 -69.5q-257 0 -257 259v426h-80v85h271v-85h-69v-434q0 -70 34.5 -113t101.5 -43
q68 0 102 43t34 113v434h-63v85h251v-85h-80v-426z" />
    <glyph glyph-name="utilde" unicode="&#x169;" horiz-adv-x="614" 
d="M203 656q-53 0 -53 -43h-55q0 52 28 85t78 33q38 0 88 -19t72 -19q24 0 37 11.5t13 30.5h56q0 -52 -28 -84.5t-76 -32.5q-38 0 -89 19t-71 19zM515 81h63v-81h-178v55q-60 -75 -165 -75q-76 0 -119 47.5t-43 118.5v283h-61v81h176v-333q0 -53 24.5 -84t70.5 -31
q51 0 84 33.5t33 84.5v249h-58v81h173v-429z" />
    <glyph glyph-name="Umacron" unicode="&#x16a;" horiz-adv-x="759" 
d="M188 938h383v-88h-383v88zM622 239q0 -120 -61.5 -189.5t-183.5 -69.5q-257 0 -257 259v426h-80v85h271v-85h-69v-434q0 -70 34.5 -113t101.5 -43q68 0 102 43t34 113v434h-63v85h251v-85h-80v-426z" />
    <glyph glyph-name="umacron" unicode="&#x16b;" horiz-adv-x="614" 
d="M476 721v-83h-373v83h373zM515 81h63v-81h-178v55q-60 -75 -165 -75q-76 0 -119 47.5t-43 118.5v283h-61v81h176v-333q0 -53 24.5 -84t70.5 -31q51 0 84 33.5t33 84.5v249h-58v81h173v-429z" />
    <glyph glyph-name="Ubreve" unicode="&#x16c;" horiz-adv-x="759" 
d="M387 851q49 0 80.5 26.5t32.5 79.5h62q0 -76 -45.5 -122.5t-129.5 -46.5t-128.5 46.5t-44.5 122.5h61q1 -53 32 -79.5t80 -26.5zM622 239q0 -120 -61.5 -189.5t-183.5 -69.5q-257 0 -257 259v426h-80v85h271v-85h-69v-434q0 -70 34.5 -113t101.5 -43q68 0 102 43t34 113
v434h-63v85h251v-85h-80v-426z" />
    <glyph glyph-name="ubreve" unicode="&#x16d;" horiz-adv-x="614" 
d="M289 578q-82 0 -122.5 44.5t-40.5 122.5h51q1 -53 32 -79.5t80 -26.5t81 26.5t33 79.5h51q0 -77 -41 -122t-124 -45zM515 81h63v-81h-178v55q-60 -75 -165 -75q-76 0 -119 47.5t-43 118.5v283h-61v81h176v-333q0 -53 24.5 -84t70.5 -31q51 0 84 33.5t33 84.5v249h-58v81
h173v-429z" />
    <glyph glyph-name="Uring" unicode="&#x16e;" horiz-adv-x="759" 
d="M386 1052q58 0 97.5 -38.5t39.5 -97.5q0 -58 -40 -97t-97 -39t-97 39t-40 97q0 59 39.5 97.5t97.5 38.5zM386 987q-31 0 -50.5 -20t-19.5 -51t19.5 -51.5t50.5 -20.5q32 0 51.5 20.5t19.5 51.5t-19.5 51t-51.5 20zM622 239q0 -120 -61.5 -189.5t-183.5 -69.5
q-257 0 -257 259v426h-80v85h271v-85h-69v-434q0 -70 34.5 -113t101.5 -43q68 0 102 43t34 113v434h-63v85h251v-85h-80v-426z" />
    <glyph glyph-name="uring" unicode="&#x16f;" horiz-adv-x="614" 
d="M289 560q-57 0 -96 38.5t-39 95.5q0 58 39 96.5t96 38.5t96 -38.5t39 -96.5q0 -57 -39 -95.5t-96 -38.5zM289 765q-31 0 -50.5 -20t-19.5 -51q0 -30 20 -50.5t50 -20.5q31 0 50.5 20.5t19.5 50.5q0 31 -19 51t-51 20zM515 81h63v-81h-178v55q-60 -75 -165 -75
q-76 0 -119 47.5t-43 118.5v283h-61v81h176v-333q0 -53 24.5 -84t70.5 -31q51 0 84 33.5t33 84.5v249h-58v81h173v-429z" />
    <glyph glyph-name="Uhungarumlaut" unicode="&#x170;" horiz-adv-x="759" 
d="M252 800l134 179h113l-151 -179h-96zM422 800l145 179h113l-163 -179h-95zM622 239q0 -120 -61.5 -189.5t-183.5 -69.5q-257 0 -257 259v426h-80v85h271v-85h-69v-434q0 -70 34.5 -113t101.5 -43q68 0 102 43t34 113v434h-63v85h251v-85h-80v-426z" />
    <glyph glyph-name="uhungarumlaut" unicode="&#x171;" horiz-adv-x="614" 
d="M385 754l-151 -179h-86l134 179h103zM394 575h-86l146 179h102zM515 81h63v-81h-178v55q-60 -75 -165 -75q-76 0 -119 47.5t-43 118.5v283h-61v81h176v-333q0 -53 24.5 -84t70.5 -31q51 0 84 33.5t33 84.5v249h-58v81h173v-429z" />
    <glyph glyph-name="Uogonek" unicode="&#x172;" horiz-adv-x="759" 
d="M451 750h251v-85h-80v-426q0 -99 -42.5 -164.5t-126.5 -86.5q-47 -35 -65.5 -58t-18.5 -49q0 -18 13 -31.5t34 -13.5q33 0 53 16v-56q-22 -17 -86 -17q-54 0 -84 25.5t-30 60.5q0 62 79 116q-228 13 -228 258v426h-80v85h271v-85h-69v-434q0 -70 34.5 -113t101.5 -43
q68 0 102 43t34 113v434h-63v85z" />
    <glyph glyph-name="uogonek" unicode="&#x173;" horiz-adv-x="614" 
d="M574 0q-40 0 -67.5 -24.5t-27.5 -53.5q0 -17 13 -30.5t34 -13.5q32 0 52 16v-54q-22 -17 -83 -17q-53 0 -82 24t-29 59q0 33 25.5 58.5t59.5 35.5h-69v55q-60 -75 -165 -75q-76 0 -119 47.5t-43 118.5v283h-61v81h176v-333q0 -53 24.5 -84t70.5 -31q51 0 84 33.5t33 84.5
v249h-58v81h173v-429h63v-81h-4z" />
    <glyph glyph-name="Wcircumflex" unicode="&#x174;" horiz-adv-x="1152" 
d="M579 916l-105 -113h-90l146 179h99l146 -179h-91zM864 750h266v-85h-81l-190 -669h-135l-149 563l-150 -563h-133l-191 669h-79v85h282v-85h-76l144 -543l145 543h-79v85h293v-85h-78l146 -548l141 548h-76v85z" />
    <glyph glyph-name="wcircumflex" unicode="&#x175;" horiz-adv-x="896" 
d="M452 689l-106 -114h-80l146 179h79l146 -179h-80zM885 510v-81h-59l-146 -432h-114l-118 396l-116 -396h-116l-148 432h-57v81h230v-81h-57l101 -344l120 425h103l124 -424l99 343h-63v81h217z" />
    <glyph glyph-name="Ycircumflex" unicode="&#x176;" horiz-adv-x="724" 
d="M373 916l-105 -113h-90l146 179h99l146 -179h-91zM442 750h261v-85h-75l-204 -379v-201h84v-85h-295v85h84v205l-198 375h-77v85h285v-85h-79l147 -281l141 281h-74v85z" />
    <glyph glyph-name="ycircumflex" unicode="&#x177;" horiz-adv-x="584" 
d="M295 689l-106 -114h-80l146 179h79l146 -179h-80zM573 510v-81h-58l-188 -492q-27 -70 -66 -107t-101 -37q-27 0 -60 6l5 85q36 -3 52 -3q62 0 81 55l15 42l-181 451h-60v81h233v-81h-57l117 -327l121 327h-62v81h209z" />
    <glyph glyph-name="Ydieresis" unicode="&#x178;" horiz-adv-x="724" 
d="M259 840q-29 0 -49.5 19t-20.5 45t20.5 45.5t49.5 19.5q30 0 50.5 -19t20.5 -46t-20.5 -45.5t-50.5 -18.5zM473 840q-30 0 -50.5 18.5t-20.5 45.5t20.5 46t50.5 19t50 -19t20 -46t-20 -45.5t-50 -18.5zM442 750h261v-85h-75l-204 -379v-201h84v-85h-295v85h84v205
l-198 375h-77v85h285v-85h-79l147 -281l141 281h-74v85z" />
    <glyph glyph-name="Zacute" unicode="&#x179;" horiz-adv-x="678" 
d="M477 974l-151 -179h-96l134 179h113zM501 257h70v-257h-511v69l356 601h-201q-40 0 -54 -22.5t-14 -78.5v-50h-69v231h478v-67l-353 -603h227q40 0 55.5 24t15.5 82v71z" />
    <glyph glyph-name="zacute" unicode="&#x17a;" horiz-adv-x="511" 
d="M391 759l-151 -179h-86l134 179h103zM406 170h61v-170h-434v52l288 397h-159q-33 0 -44.5 -14t-11.5 -52v-25h-61v152h409v-50l-287 -399h180q34 0 46.5 15.5t12.5 54.5v39z" />
    <glyph glyph-name="Zdotaccent" unicode="&#x17b;" horiz-adv-x="678" 
d="M335 841q-32 0 -53.5 18.5t-21.5 46.5q0 29 21.5 48t53.5 19q31 0 52.5 -19t21.5 -48q0 -28 -21 -46.5t-53 -18.5zM501 257h70v-257h-511v69l356 601h-201q-40 0 -54 -22.5t-14 -78.5v-50h-69v231h478v-67l-353 -603h227q40 0 55.5 24t15.5 82v71z" />
    <glyph glyph-name="zdotaccent" unicode="&#x17c;" horiz-adv-x="511" 
d="M256 621q-31 0 -51.5 18t-20.5 45t20.5 45.5t51.5 18.5t51.5 -18.5t20.5 -45.5t-20.5 -45t-51.5 -18zM406 170h61v-170h-434v52l288 397h-159q-33 0 -44.5 -14t-11.5 -52v-25h-61v152h409v-50l-287 -399h180q34 0 46.5 15.5t12.5 54.5v39z" />
    <glyph glyph-name="Zcaron" unicode="&#x17d;" horiz-adv-x="678" 
d="M392 796h-99l-143 177h90l102 -111l102 111h91zM501 257h70v-257h-511v69l356 601h-201q-40 0 -54 -22.5t-14 -78.5v-50h-69v231h478v-67l-353 -603h227q40 0 55.5 24t15.5 82v71z" />
    <glyph glyph-name="zcaron" unicode="&#x17e;" horiz-adv-x="511" 
d="M296 576h-79l-143 177h80l103 -111l102 111h80zM406 170h61v-170h-434v52l288 397h-159q-33 0 -44.5 -14t-11.5 -52v-25h-61v152h409v-50l-287 -399h180q34 0 46.5 15.5t12.5 54.5v39z" />
    <glyph glyph-name="uni018F" unicode="&#x18f;" horiz-adv-x="757" 
d="M372 770q155 0 244.5 -111.5t89.5 -282.5q0 -173 -89.5 -284.5t-244.5 -111.5t-238 106.5t-83 279.5q0 55 1 61h514q-9 116 -58.5 180.5t-133.5 64.5q-64 0 -109 -39.5t-65 -111.5h-136q28 117 108 183t200 66zM375 79q86 0 135.5 68t56.5 188h-382q4 -117 53.5 -186.5
t136.5 -69.5z" />
    <glyph glyph-name="florin" unicode="&#x192;" horiz-adv-x="352" 
d="M143 -84q-16 -115 -161 -115q-37 0 -71 9l11 78q21 -3 32 -3q38 0 55.5 14.5t22.5 44.5l69 485h-59v81h70l20 139q8 57 46 85.5t114 28.5q37 0 71 -9l-11 -78q-21 3 -32 3q-38 0 -56 -14.5t-22 -44.5l-15 -110h81v-81h-92z" />
    <glyph glyph-name="uni01D3" unicode="&#x1d3;" horiz-adv-x="759" 
d="M441 796h-99l-143 177h90l102 -111l102 111h91zM451 750h251v-85h-80v-426q0 -120 -61.5 -189.5t-183.5 -69.5q-257 0 -257 259v426h-80v85h271v-85h-69v-434q0 -70 34.5 -113t101.5 -43q68 0 102 43t34 113v434h-63v85z" />
    <glyph glyph-name="uni01D4" unicode="&#x1d4;" horiz-adv-x="614" 
d="M328 576h-79l-143 177h80l103 -111l102 111h80zM515 81h63v-81h-178v55q-60 -75 -165 -75q-76 0 -119 47.5t-43 118.5v283h-61v81h176v-333q0 -53 24.5 -84t70.5 -31q51 0 84 33.5t33 84.5v249h-58v81h173v-429z" />
    <glyph glyph-name="uni01E2" unicode="&#x1e2;" horiz-adv-x="975" 
d="M769 938v-88h-383v88h383zM922 515h-72v51q0 59 -13.5 79t-53.5 20h-195v-240h180v-75h-180v-265h195q40 0 53.5 21.5t13.5 79.5v68h72v-254h-535v85h79v154h-204l-71 -154h79v-85h-255v85h71l283 580h-98v85h651v-235zM290 300h176v365h-8z" />
    <glyph glyph-name="uni01E3" unicode="&#x1e3;" horiz-adv-x="942" 
d="M663 721v-83h-373v83h373zM906 262v-25h-393q4 -82 42 -128.5t96 -46.5q48 0 83.5 27.5t47.5 79.5h120q-20 -88 -85.5 -138.5t-163.5 -50.5q-73 0 -129 31.5t-88 87.5q-22 -46 -77 -82.5t-125 -36.5q-192 0 -192 151q0 152 226 152h129v44q0 128 -105 128
q-50 0 -82.5 -30t-32.5 -74v-9h-112v10q0 83 61 130.5t172 47.5q128 0 177 -68q70 68 178 68q118 0 185.5 -74t67.5 -194zM650 455q-57 0 -94 -44t-43 -124h273q-4 78 -42 123t-94 45zM276 61q50 0 85.5 35t35.5 76v63h-106q-62 0 -96 -23.5t-34 -67.5q0 -83 115 -83z" />
    <glyph glyph-name="AEacute" unicode="&#x1fc;" horiz-adv-x="975" 
d="M678 974l-151 -179h-96l134 179h113zM922 515h-72v51q0 59 -13.5 79t-53.5 20h-195v-240h180v-75h-180v-265h195q40 0 53.5 21.5t13.5 79.5v68h72v-254h-535v85h79v154h-204l-71 -154h79v-85h-255v85h71l283 580h-98v85h651v-235zM290 300h176v365h-8z" />
    <glyph glyph-name="aeacute" unicode="&#x1fd;" horiz-adv-x="942" 
d="M614 759l-151 -179h-86l134 179h103zM906 262v-25h-393q4 -82 42 -128.5t96 -46.5q48 0 83.5 27.5t47.5 79.5h120q-20 -88 -85.5 -138.5t-163.5 -50.5q-73 0 -129 31.5t-88 87.5q-22 -46 -77 -82.5t-125 -36.5q-192 0 -192 151q0 152 226 152h129v44q0 128 -105 128
q-50 0 -82.5 -30t-32.5 -74v-9h-112v10q0 83 61 130.5t172 47.5q128 0 177 -68q70 68 178 68q118 0 185.5 -74t67.5 -194zM650 455q-57 0 -94 -44t-43 -124h273q-4 78 -42 123t-94 45zM276 61q50 0 85.5 35t35.5 76v63h-106q-62 0 -96 -23.5t-34 -67.5q0 -83 115 -83z" />
    <glyph glyph-name="Oslashacute" unicode="&#x1fe;" horiz-adv-x="771" 
d="M551 974l-151 -179h-96l134 179h113zM722 791l-92 -131q91 -109 91 -284q0 -171 -89 -283.5t-246 -112.5q-113 0 -193 61l-58 -82h-85l92 130q-91 109 -91 287q0 170 88.5 282t246.5 112q113 0 193 -61l58 82h85zM188 376q0 -103 31 -177l294 416q-51 54 -127 54
q-94 0 -146 -78.5t-52 -214.5zM584 376q0 102 -31 175l-293 -415q49 -55 126 -55q93 0 145.5 79.5t52.5 215.5z" />
    <glyph glyph-name="oslashacute" unicode="&#x1ff;" horiz-adv-x="598" 
d="M442 759l-151 -179h-86l134 179h103zM462 475q96 -78 96 -220q0 -121 -72 -198t-187 -77q-77 0 -136 36l-37 -56h-43l50 77q-93 79 -93 218q0 120 72.5 197.5t186.5 77.5q76 0 134 -35l36 56h43zM162 255q0 -77 30 -128l188 288q-34 32 -81 32q-61 0 -99 -51.5
t-38 -140.5zM299 62q61 0 99 52t38 141q0 80 -32 131l-189 -289q35 -35 84 -35z" />
    <glyph glyph-name="Scommaaccent" unicode="&#x218;" horiz-adv-x="637" 
d="M346 441q44 -18 72.5 -31.5t63.5 -36t54.5 -46t33.5 -58.5t14 -76q0 -99 -63.5 -156t-170.5 -57q-71 0 -126.5 26t-80.5 72l-9 -78h-66v237h88q6 -78 53 -123.5t114 -45.5q56 0 92 30.5t36 82.5q0 53 -39.5 87.5t-122.5 68.5q-50 21 -80.5 37.5t-65 44.5t-51 67t-16.5 91
q0 92 63.5 142.5t153.5 50.5q63 0 112 -23t70 -55l7 58h68v-217h-90q-3 70 -44 112t-96 42q-52 0 -83.5 -27t-31.5 -74q0 -50 35 -83.5t106 -61.5zM346 -70q28 0 45.5 -18.5t17.5 -50.5q0 -44 -26.5 -85t-72.5 -72l-22 20q46 46 58 94q-28 1 -44.5 17.5t-16.5 38.5
q0 23 17.5 39.5t43.5 16.5z" />
    <glyph glyph-name="scommaaccent" unicode="&#x219;" horiz-adv-x="494" 
d="M294 304q75 -23 118.5 -59.5t43.5 -105.5q0 -75 -47 -115t-125 -40q-120 0 -168 67l-5 -51h-66v158h78q5 -48 39 -78.5t83 -30.5q42 0 66 19t24 55q0 38 -29 59t-86 37q-32 11 -51 18.5t-45 22.5t-40.5 31t-25 41t-10.5 56q0 69 47 104.5t115 35.5q100 0 147 -60l5 41h65
v-143h-77q-7 45 -37.5 74.5t-72.5 29.5q-36 0 -58.5 -18.5t-22.5 -50.5q0 -33 31.5 -53t103.5 -44zM248 -58q27 0 43.5 -17.5t16.5 -49.5q0 -42 -26 -82.5t-69 -69.5l-22 19q45 45 56 92q-27 2 -42.5 17.5t-15.5 36.5q0 23 17 38.5t42 15.5z" />
    <glyph glyph-name="uni021A" unicode="&#x21a;" horiz-adv-x="703" 
d="M48 750h607v-235h-68v51q1 64 -12.5 88t-43.5 24h-118v-593h91v-85h-304v85h91v593h-120q-29 0 -42 -24t-13 -88v-51h-68v235zM354 -68q28 0 45.5 -18.5t17.5 -50.5q0 -44 -26.5 -85t-72.5 -72l-22 20q46 46 58 94q-28 1 -44.5 17.5t-16.5 38.5q0 23 17.5 39.5t43.5 16.5
z" />
    <glyph glyph-name="uni021B" unicode="&#x21b;" horiz-adv-x="359" 
d="M266 78q32 0 48 3v-81q-36 -14 -99 -14q-79 0 -109 33.5t-30 95.5v314h-64v81h29q43 0 59 24t21 82v52h70v-158h120v-81h-120v-295q0 -56 75 -56zM170 -58q27 0 43.5 -17.5t16.5 -49.5q0 -42 -26 -82.5t-69 -69.5l-22 19q45 45 56 92q-27 2 -42.5 17.5t-15.5 36.5
q0 23 17 38.5t42 15.5z" />
    <glyph glyph-name="uni0232" unicode="&#x232;" horiz-adv-x="724" 
d="M556 938v-88h-383v88h383zM442 750h261v-85h-75l-204 -379v-201h84v-85h-295v85h84v205l-198 375h-77v85h285v-85h-79l147 -281l141 281h-74v85z" />
    <glyph glyph-name="uni0233" unicode="&#x233;" horiz-adv-x="584" 
d="M476 721v-83h-373v83h373zM573 510v-81h-58l-188 -492q-27 -70 -66 -107t-101 -37q-27 0 -60 6l5 85q36 -3 52 -3q62 0 81 55l15 42l-181 451h-60v81h233v-81h-57l117 -327l121 327h-62v81h209z" />
    <glyph glyph-name="uni0237" unicode="&#x237;" horiz-adv-x="265" 
d="M204 -95q0 -56 -28 -80.5t-88 -24.5q-46 0 -73 6v85q13 -3 29 -3q27 0 36 11.5t9 35.5v493h-73v82h188v-605z" />
    <glyph glyph-name="uni0259" unicode="&#x259;" horiz-adv-x="597" 
d="M293 531q118 0 191 -77.5t73 -197.5q0 -119 -73 -197t-191 -78q-117 0 -184.5 73.5t-67.5 194.5v21h394q-4 86 -42.5 136.5t-97.5 50.5q-46 0 -81.5 -32t-48.5 -85h-121q20 88 86 139.5t163 51.5zM296 48q57 0 94 46t44 126h-273q6 -78 43.5 -125t91.5 -47z" />
    <glyph glyph-name="circumflex" unicode="&#x2c6;" horiz-adv-x="371" 
d="M371 575h-80l-105 114l-106 -114h-80l146 179h79z" />
    <glyph glyph-name="caron" unicode="&#x2c7;" horiz-adv-x="365" 
d="M285 753h80l-143 -177h-79l-143 177h80l103 -111z" />
    <glyph glyph-name="breve" unicode="&#x2d8;" horiz-adv-x="328" 
d="M163 639q49 0 81 26.5t33 79.5h51q0 -77 -41 -122t-124 -45q-82 0 -122.5 44.5t-40.5 122.5h51q1 -53 32 -79.5t80 -26.5z" />
    <glyph glyph-name="dotaccent" unicode="&#x2d9;" horiz-adv-x="144" 
d="M72 621q-31 0 -51.5 18t-20.5 45t20.5 45.5t51.5 18.5t51.5 -18.5t20.5 -45.5t-20.5 -45t-51.5 -18z" />
    <glyph glyph-name="ring" unicode="&#x2da;" horiz-adv-x="270" 
d="M135 829q57 0 96 -38.5t39 -96.5q0 -57 -39 -95.5t-96 -38.5t-96 38.5t-39 95.5q0 58 39 96.5t96 38.5zM135 765q-31 0 -50.5 -20t-19.5 -51q0 -30 20 -50.5t50 -20.5q31 0 50.5 20.5t19.5 50.5q0 31 -19 51t-51 20z" />
    <glyph glyph-name="ogonek" unicode="&#x2db;" horiz-adv-x="193" 
d="M0 -123q0 68 103 130h87q-53 -39 -74 -63.5t-21 -51.5q0 -17 13 -30.5t33 -13.5q32 0 52 16v-54q-22 -17 -83 -17q-52 0 -81 24.5t-29 59.5z" />
    <glyph glyph-name="tilde" unicode="&#x2dc;" horiz-adv-x="372" 
d="M106 755q38 0 88 -19t72 -19q24 0 37 11.5t13 30.5h56q0 -52 -28 -84.5t-76 -32.5q-38 0 -89 19t-71 19q-53 0 -53 -43h-55q0 52 28 85t78 33z" />
    <glyph glyph-name="hungarumlaut" unicode="&#x2dd;" horiz-adv-x="408" 
d="M0 575l134 179h103l-151 -179h-86zM160 575l146 179h102l-162 -179h-86z" />
    <glyph glyph-name="uni03BC" unicode="&#x3bc;" horiz-adv-x="614" 
d="M515 81h63v-81h-178v83q-52 -103 -165 -103q-27 0 -50 6l3 -176h-115v619h-61v81h176v-333q0 -53 24.5 -84t70.5 -31q51 0 84 33.5t33 84.5v249h-58v81h173v-429z" />
    <glyph glyph-name="uni0CA0" unicode="&#xca0;" horiz-adv-x="1029" 
d="M1012 701q0 -60 -25 -88t-81 -28h-28q53 -95 53 -211q0 -184 -128 -309t-317 -125t-317 125t-128 309q0 116 52 211h-71v95h843q30 0 44 15.5t14 49.5q0 11 -2 29h85q6 -27 6 -73zM844 374q0 122 -69 211h-580q-68 -90 -68 -211q0 -149 103 -249.5t256 -100.5
t255.5 100.5t102.5 249.5zM487 307q-32 0 -54 19.5t-22 47.5q0 29 22 48.5t54 19.5q33 0 54.5 -19.5t21.5 -48.5t-21.5 -48t-54.5 -19z" />
    <glyph glyph-name="uni1E44" unicode="&#x1e44;" horiz-adv-x="806" 
d="M404 841q-32 0 -53.5 18.5t-21.5 46.5q0 29 21.5 48t53.5 19q31 0 52.5 -19t21.5 -48q0 -28 -21 -46.5t-53 -18.5zM512 750h241v-85h-75v-665h-93l-359 553v-468h75v-85h-244v85h80v580h-80v85h175l352 -547v462h-72v85z" />
    <glyph glyph-name="uni1E45" unicode="&#x1e45;" horiz-adv-x="641" 
d="M322 621q-31 0 -51.5 18t-20.5 45t20.5 45.5t51.5 18.5t51.5 -18.5t20.5 -45.5t-20.5 -45t-51.5 -18zM543 81h61v-81h-228v81h52v251q0 55 -25 85.5t-70 30.5q-50 0 -83.5 -34t-33.5 -84v-249h52v-81h-230v81h63v347h-63v82h178v-62q54 82 165 82q72 0 117 -46t45 -120
v-283z" />
    <glyph glyph-name="uni1E60" unicode="&#x1e60;" horiz-adv-x="639" 
d="M330 841q-32 0 -53.5 18.5t-21.5 46.5q0 29 21.5 48t53.5 19q31 0 52.5 -19t21.5 -48q0 -28 -21 -46.5t-53 -18.5zM346 441q44 -18 72.5 -31.5t63.5 -36t54.5 -46t33.5 -58.5t14 -76q0 -99 -63.5 -156t-170.5 -57q-71 0 -126.5 26t-80.5 72l-9 -78h-66v237h88
q6 -78 53 -123.5t114 -45.5q56 0 92 30.5t36 82.5q0 53 -39.5 87.5t-122.5 68.5q-50 21 -80.5 37.5t-65 44.5t-51 67t-16.5 91q0 92 63.5 142.5t153.5 50.5q63 0 112 -23t70 -55l7 58h68v-217h-90q-3 70 -44 112t-96 42q-52 0 -83.5 -27t-31.5 -74q0 -50 35 -83.5t106 -61.5
z" />
    <glyph glyph-name="uni1E61" unicode="&#x1e61;" horiz-adv-x="494" 
d="M244 621q-31 0 -51.5 18t-20.5 45t20.5 45.5t51.5 18.5t51.5 -18.5t20.5 -45.5t-20.5 -45t-51.5 -18zM294 304q75 -23 118.5 -59.5t43.5 -105.5q0 -75 -47 -115t-125 -40q-120 0 -168 67l-5 -51h-66v158h78q5 -48 39 -78.5t83 -30.5q42 0 66 19t24 55q0 38 -29 59t-86 37
q-32 11 -51 18.5t-45 22.5t-40.5 31t-25 41t-10.5 56q0 69 47 104.5t115 35.5q100 0 147 -60l5 41h65v-143h-77q-7 45 -37.5 74.5t-72.5 29.5q-36 0 -58.5 -18.5t-22.5 -50.5q0 -33 31.5 -53t103.5 -44z" />
    <glyph glyph-name="Wgrave" unicode="&#x1e80;" horiz-adv-x="1152" 
d="M657 795h-97l-151 179h113zM864 750h266v-85h-81l-190 -669h-135l-149 563l-150 -563h-133l-191 669h-79v85h282v-85h-76l144 -543l145 543h-79v85h293v-85h-78l146 -548l141 548h-76v85z" />
    <glyph glyph-name="wgrave" unicode="&#x1e81;" horiz-adv-x="896" 
d="M522 580h-86l-151 179h103zM885 510v-81h-59l-146 -432h-114l-118 396l-116 -396h-116l-148 432h-57v81h230v-81h-57l101 -344l120 425h103l124 -424l99 343h-63v81h217z" />
    <glyph glyph-name="Wacute" unicode="&#x1e82;" horiz-adv-x="1152" 
d="M722 974l-151 -179h-96l134 179h113zM864 750h266v-85h-81l-190 -669h-135l-149 563l-150 -563h-133l-191 669h-79v85h282v-85h-76l144 -543l145 543h-79v85h293v-85h-78l146 -548l141 548h-76v85z" />
    <glyph glyph-name="wacute" unicode="&#x1e83;" horiz-adv-x="896" 
d="M588 759l-151 -179h-86l134 179h103zM885 510v-81h-59l-146 -432h-114l-118 396l-116 -396h-116l-148 432h-57v81h230v-81h-57l101 -344l120 425h103l124 -424l99 343h-63v81h217z" />
    <glyph glyph-name="Wdieresis" unicode="&#x1e84;" horiz-adv-x="1152" 
d="M472 840q-29 0 -49.5 19t-20.5 45t20.5 45.5t49.5 19.5q30 0 50.5 -19t20.5 -46t-20.5 -45.5t-50.5 -18.5zM686 840q-30 0 -50.5 18.5t-20.5 45.5t20.5 46t50.5 19t50 -19t20 -46t-20 -45.5t-50 -18.5zM864 750h266v-85h-81l-190 -669h-135l-149 563l-150 -563h-133
l-191 669h-79v85h282v-85h-76l144 -543l145 543h-79v85h293v-85h-78l146 -548l141 548h-76v85z" />
    <glyph glyph-name="wdieresis" unicode="&#x1e85;" horiz-adv-x="896" 
d="M361 621q-26 0 -44 16.5t-18 39.5t18 39.5t44 16.5t44 -16.5t18 -39.5t-18 -39.5t-44 -16.5zM551 621q-26 0 -44 16.5t-18 39.5t18 39.5t44 16.5t44 -16.5t18 -39.5t-18 -39.5t-44 -16.5zM885 510v-81h-59l-146 -432h-114l-118 396l-116 -396h-116l-148 432h-57v81h230
v-81h-57l101 -344l120 425h103l124 -424l99 343h-63v81h217z" />
    <glyph glyph-name="uni1EBC" unicode="&#x1ebc;" horiz-adv-x="660" 
d="M265 876q-55 0 -55 -46h-59q0 57 29 92t82 35q41 0 94 -19.5t75 -19.5q52 0 52 44h60q0 -57 -29 -92t-80 -35q-41 0 -94.5 20.5t-74.5 20.5zM595 515h-72v51q0 59 -14 79t-54 20h-195v-236h181v-83h-181v-261h195q40 0 54 21.5t14 79.5v68h72v-254h-535v85h79v580h-79v85
h535v-235z" />
    <glyph glyph-name="uni1EBD" unicode="&#x1ebd;" horiz-adv-x="592" 
d="M212 656q-53 0 -53 -43h-55q0 52 28 85t78 33q38 0 88 -19t72 -19q24 0 37 11.5t13 30.5h56q0 -52 -28 -84.5t-76 -32.5q-38 0 -89 19t-71 19zM555 262v-33h-392q7 -77 44.5 -122t93.5 -45q47 0 82.5 29.5t47.5 79.5h121q-20 -88 -86 -139.5t-163 -51.5q-117 0 -190 77.5
t-73 197.5q0 119 73 197t190 78t184.5 -73.5t67.5 -194.5zM300 455q-55 0 -92 -42.5t-44 -117.5h272q-7 73 -44.5 116.5t-91.5 43.5z" />
    <glyph glyph-name="Ygrave" unicode="&#x1ef2;" horiz-adv-x="724" 
d="M443 795h-97l-151 179h113zM442 750h261v-85h-75l-204 -379v-201h84v-85h-295v85h84v205l-198 375h-77v85h285v-85h-79l147 -281l141 281h-74v85z" />
    <glyph glyph-name="ygrave" unicode="&#x1ef3;" horiz-adv-x="584" 
d="M358 580h-86l-151 179h103zM573 510v-81h-58l-188 -492q-27 -70 -66 -107t-101 -37q-27 0 -60 6l5 85q36 -3 52 -3q62 0 81 55l15 42l-181 451h-60v81h233v-81h-57l117 -327l121 327h-62v81h209z" />
    <glyph glyph-name="uni1EF8" unicode="&#x1ef8;" horiz-adv-x="724" 
d="M278 876q-55 0 -55 -46h-59q0 57 29 92t82 35q41 0 94 -19.5t75 -19.5q52 0 52 44h60q0 -57 -29 -92t-80 -35q-41 0 -94.5 20.5t-74.5 20.5zM442 750h261v-85h-75l-204 -379v-201h84v-85h-295v85h84v205l-198 375h-77v85h285v-85h-79l147 -281l141 281h-74v85z" />
    <glyph glyph-name="uni1EF9" unicode="&#x1ef9;" horiz-adv-x="584" 
d="M204 656q-53 0 -53 -43h-55q0 52 28 85t78 33q38 0 88 -19t72 -19q24 0 37 11.5t13 30.5h56q0 -52 -28 -84.5t-76 -32.5q-38 0 -89 19t-71 19zM573 510v-81h-58l-188 -492q-27 -70 -66 -107t-101 -37q-27 0 -60 6l5 85q36 -3 52 -3q62 0 81 55l15 42l-181 451h-60v81h233
v-81h-57l117 -327l121 327h-62v81h209z" />
    <glyph glyph-name="uni2009" unicode="&#x2009;" horiz-adv-x="246" 
 />
    <glyph glyph-name="endash" unicode="&#x2013;" horiz-adv-x="654" 
d="M60 318h534v-88h-534v88z" />
    <glyph glyph-name="emdash" unicode="&#x2014;" horiz-adv-x="978" 
d="M60 318h858v-88h-858v88z" />
    <glyph glyph-name="quoteleft" unicode="&#x2018;" horiz-adv-x="302" 
d="M149 637q34 -3 53.5 -22.5t19.5 -46.5q0 -29 -21 -48.5t-54 -19.5q-34 0 -55.5 22.5t-21.5 62.5q0 50 32.5 99.5t86.5 85.5l28 -24q-55 -53 -68 -109z" />
    <glyph glyph-name="quoteright" unicode="&#x2019;" horiz-adv-x="302" 
d="M155 770q34 0 55.5 -22.5t21.5 -62.5q0 -50 -32 -100t-87 -86l-28 25q17 16 26 25.5t22.5 33t19.5 50.5q-34 3 -53.5 22.5t-19.5 46.5q0 29 21 48.5t54 19.5z" />
    <glyph glyph-name="quotesinglbase" unicode="&#x201a;" horiz-adv-x="302" 
d="M155 116q34 0 55.5 -22.5t21.5 -61.5q0 -51 -32.5 -100.5t-86.5 -85.5l-28 24q55 53 68 109q-34 3 -53.5 22.5t-19.5 46.5q0 29 21 48.5t54 19.5z" />
    <glyph glyph-name="quotedblleft" unicode="&#x201c;" horiz-adv-x="507" 
d="M149 637q34 -3 53.5 -22.5t19.5 -46.5q0 -29 -21 -48.5t-54 -19.5q-34 0 -55.5 22.5t-21.5 62.5q0 50 32.5 99.5t86.5 85.5l28 -24q-55 -53 -68 -109zM353 637q35 -3 54.5 -22.5t19.5 -46.5q0 -29 -21.5 -48.5t-54.5 -19.5q-34 0 -55 22.5t-21 62.5q0 50 32 100t86 85
l28 -24q-55 -55 -68 -109z" />
    <glyph glyph-name="quotedblright" unicode="&#x201d;" horiz-adv-x="507" 
d="M155 770q34 0 55.5 -22.5t21.5 -62.5q0 -50 -32 -100t-87 -86l-28 25q17 16 26 25.5t22.5 33t19.5 50.5q-34 3 -53.5 22.5t-19.5 46.5q0 29 21 48.5t54 19.5zM360 770q34 0 55 -22.5t21 -62.5q0 -50 -32 -100t-86 -86l-28 25q18 18 25.5 26t22 32t20.5 51
q-35 3 -54.5 22.5t-19.5 46.5q0 29 21.5 48.5t54.5 19.5z" />
    <glyph glyph-name="quotedblbase" unicode="&#x201e;" horiz-adv-x="426" 
d="M115 116q34 0 55.5 -22.5t21.5 -61.5q0 -51 -32.5 -100.5t-86.5 -85.5l-28 24q55 53 68 109q-34 3 -53.5 22.5t-19.5 46.5q0 29 21 48.5t54 19.5zM319 116q34 0 55.5 -22.5t21.5 -61.5q0 -51 -32.5 -100.5t-86.5 -85.5l-28 24q55 53 68 109q-34 3 -53.5 22.5t-19.5 46.5
q0 29 21 48.5t54 19.5z" />
    <glyph glyph-name="dagger" unicode="&#x2020;" horiz-adv-x="528" 
d="M311 770v-145l-9 -77l76 10h128v-94h-128l-76 9l9 -77v-243l-18 -293h-58l-17 293v243l9 77l-77 -9h-128v94h128l77 -10l-9 77v145h93z" />
    <glyph glyph-name="daggerdbl" unicode="&#x2021;" horiz-adv-x="604" 
d="M339 157l77 9h127v-94h-127l-77 10l10 -77v-145h-94v145l9 77l-77 -10h-127v94h127l77 -9l-9 77v162l10 77l-77 -9h-127v94h127l77 -10l-10 77v145h94v-145l-9 -77l77 10h127v-94h-127l-77 9l9 -77v-162z" />
    <glyph glyph-name="bullet" unicode="&#x2022;" horiz-adv-x="349" 
d="M174 272q-49 0 -81.5 29.5t-32.5 73.5q0 43 32.5 72.5t81.5 29.5t82 -30t33 -72q0 -44 -33 -73.5t-82 -29.5z" />
    <glyph glyph-name="ellipsis" unicode="&#x2026;" horiz-adv-x="574" 
d="M107 -20q-33 0 -55 19.5t-22 48.5t22 48.5t55 19.5t54.5 -19.5t21.5 -48.5t-21.5 -48.5t-54.5 -19.5zM287 -20q-33 0 -54.5 19.5t-21.5 48.5t21.5 48.5t54.5 19.5t54.5 -19.5t21.5 -48.5t-21.5 -48.5t-54.5 -19.5zM468 -20q-33 0 -55 19.5t-22 48.5t22 48.5t55 19.5
t54.5 -19.5t21.5 -48.5t-21.5 -48.5t-54.5 -19.5z" />
    <glyph glyph-name="perthousand" unicode="&#x2030;" horiz-adv-x="1351" 
d="M223 770q81 0 133 -52t52 -132q0 -81 -51.5 -133t-133.5 -52t-133.5 52t-51.5 133q0 80 52 132t133 52zM710 750h95l-607 -750h-95zM223 457q43 0 70 35t27 94q0 58 -27 93t-70 35t-70 -35t-27 -93t27 -93.5t70 -35.5zM685 349q81 0 133 -51.5t52 -132.5t-51.5 -133
t-133.5 -52t-133.5 52t-51.5 133t52 132.5t133 51.5zM1128 349q82 0 133.5 -51.5t51.5 -132.5t-51.5 -133t-133.5 -52t-133.5 52t-51.5 133t51.5 132.5t133.5 51.5zM685 36q43 0 70 35t27 94q0 58 -27 93t-70 35t-70.5 -35t-27.5 -93t27.5 -93.5t70.5 -35.5zM1128 36
q43 0 70 35t27 94q0 58 -27 93t-70 35q-42 0 -69.5 -35t-27.5 -93t27.5 -93.5t69.5 -35.5z" />
    <glyph glyph-name="guilsinglleft" unicode="&#x2039;" horiz-adv-x="378" 
d="M211 41l-153 214l153 214h109l-153 -214l153 -214h-109z" />
    <glyph glyph-name="guilsinglright" unicode="&#x203a;" horiz-adv-x="378" 
d="M211 255l-153 214h109l153 -214l-153 -214h-109z" />
    <glyph glyph-name="fraction" unicode="&#x2044;" horiz-adv-x="222" 
d="M-175 0l487 750h85l-487 -750h-85z" />
    <glyph glyph-name="uni20A9" unicode="&#x20a9;" horiz-adv-x="1153" 
d="M1130 665h-81l-51 -181h65v-60h-82l-24 -83h106v-61h-123l-81 -284h-135l-75 284h-148l-76 -284h-133l-81 284h-123v61h106l-24 83h-82v60h65l-52 181h-79v85h282v-85h-76l48 -181h199l48 181h-85v85h293v-85h-78l48 -181h197l46 181h-80v85h266v-85zM575 559l-20 -75h40
zM292 424l22 -83h123l22 83h-167zM517 341h116l-22 83h-72zM861 341l21 83h-165l23 -83h121zM375 111l45 169h-90zM801 110l44 170h-89z" />
    <glyph glyph-name="Euro" unicode="&#x20ac;" horiz-adv-x="790" 
d="M607 267h118q-15 -137 -89.5 -212t-205.5 -75q-129 0 -211 80.5t-105 213.5h-56v61h48q-1 13 -1 41t1 41h-48v61h56q23 132 105 212t211 80q127 0 200.5 -70.5t89.5 -198.5h-118q-46 168 -165 168q-71 0 -118.5 -51t-65.5 -140h204v-61h-212q-1 -13 -1 -41t1 -41h212v-61
h-204q18 -90 65.5 -141.5t118.5 -51.5q127 0 170 186z" />
    <glyph glyph-name="uni2116" unicode="&#x2116;" horiz-adv-x="1380" 
d="M1063 220q-114 0 -186.5 77.5t-72.5 198.5q0 120 72.5 197t186.5 77q115 0 187 -77t72 -197q0 -121 -72 -198.5t-187 -77.5zM512 665v85h241v-85h-75v-665h-93l-359 553v-468h75v-85h-244v85h80v580h-80v85h175l352 -547v462h-72zM1063 687q-61 0 -99 -51.5t-38 -139.5
q0 -89 38.5 -141.5t98.5 -52.5q61 0 99 52t38 142q0 88 -38 139.5t-99 51.5zM814 68v86h499v-86h-499z" />
    <glyph glyph-name="uni2120" unicode="&#x2120;" horiz-adv-x="698" 
d="M149 637q23 -8 36 -14t29.5 -17t24 -26t7.5 -35q0 -39 -26.5 -61t-71.5 -22q-58 0 -82 25l-3 -18h-32v91h43q2 -26 18.5 -42.5t41.5 -16.5q20 0 33.5 10.5t13.5 28.5q0 29 -60 51q-40 14 -63.5 33.5t-23.5 55.5t27.5 56.5t64.5 20.5q50 0 72 -20l2 13h33v-84h-44
q-1 25 -15 39.5t-35 14.5q-18 0 -30 -10t-12 -26q0 -26 52 -47zM668 712h-32v-205h32v-38h-115v38h24v179l-96 -219h-22l-93 215v-175h24v-38h-102v38h31v205h-31v38h106l87 -203l87 203h100v-38z" />
    <glyph glyph-name="trademark" unicode="&#x2122;" horiz-adv-x="735" 
d="M30 656v94h249v-94h-32v17q0 26 -6 35.5t-19 9.5h-37v-211h33v-38h-126v38h33v211h-37q-13 0 -19 -9.5t-6 -35.5v-17h-33zM705 712h-32v-205h32v-38h-115v38h24v181l-96 -221h-22l-93 213v-173h23v-38h-102v38h32v205h-32v38h106l87 -203l87 203h101v-38z" />
    <glyph glyph-name="uni2153" unicode="&#x2153;" horiz-adv-x="893" 
d="M260 401v-51h-220v51h74v268q-16 -3 -35 -3q-17 0 -38 3v55q10 -2 16 -2q62 0 72 28h64v-349h67zM602 750h85l-487 -750h-85zM742 205q35 -8 57.5 -32.5t22.5 -61.5q0 -55 -41.5 -88.5t-109.5 -33.5q-67 0 -107.5 39t-40.5 100l-1 12h77l1 -12q0 -35 18.5 -56t50.5 -21
t50 18t18 51q0 57 -67 57h-28v50h29q65 0 65 56q0 31 -18.5 49t-49.5 18t-48.5 -21.5t-17.5 -54.5l-1 -8h-74q-1 5 -1 8q0 62 39 99.5t105 37.5q69 0 108.5 -31.5t39.5 -82.5q0 -35 -22.5 -59t-53.5 -33z" />
    <glyph glyph-name="uni2154" unicode="&#x2154;" horiz-adv-x="962" 
d="M346 452v-102h-306v30q0 35 23.5 64t56.5 49.5t66 39.5t56 43.5t23 52.5q0 36 -20 55.5t-52 19.5q-34 0 -55 -21.5t-21 -62.5l1 -10h-72q-1 6 -1 10q0 62 41 101.5t108 39.5q70 0 109.5 -33.5t39.5 -92.5q0 -37 -22 -68t-53.5 -51.5t-63 -38t-55.5 -37t-26 -39.5h170v51
h53zM702 750h85l-487 -750h-85zM842 205q35 -9 57.5 -33.5t22.5 -60.5q0 -55 -41.5 -88.5t-109.5 -33.5t-108 39t-40 100l-1 12h77l1 -12q0 -35 18.5 -56t50.5 -21t50 18t18 51q0 57 -67 57h-28v50h29q65 0 65 56q0 31 -18.5 49t-49.5 18t-48.5 -21.5t-17.5 -54.5l-1 -8h-74
q-1 5 -1 8q0 62 39 99.5t105 37.5q68 0 108 -31.5t40 -82.5q0 -36 -22.5 -60t-53.5 -32z" />
    <glyph glyph-name="oneeighth" unicode="&#x215b;" horiz-adv-x="875" 
d="M260 401v-51h-220v51h74v268q-16 -3 -35 -3q-17 0 -38 3v55q10 -2 16 -2q62 0 72 28h64v-349h67zM602 750h85l-487 -750h-85zM757 214q78 -29 78 -101q0 -53 -43 -88.5t-120 -35.5t-120.5 36t-43.5 88q0 34 21 60.5t58 40.5q-57 27 -57 87q0 46 37.5 78t104.5 32
t104.5 -32t37.5 -78q0 -60 -57 -87zM672 358q-31 0 -50.5 -16.5t-19.5 -43.5q0 -29 19.5 -46t50.5 -17q32 0 51 16.5t19 46.5q0 27 -19.5 43.5t-50.5 16.5zM672 45q35 0 57.5 20.5t22.5 50.5q0 32 -22 50.5t-58 18.5t-58 -18.5t-22 -50.5q0 -30 22.5 -50.5t57.5 -20.5z" />
    <glyph glyph-name="threeeighths" unicode="&#x215c;" horiz-adv-x="934" 
d="M340 461q0 -55 -42 -88.5t-110 -33.5q-67 0 -107.5 39t-40.5 100l-1 12h78l1 -12q0 -36 18 -56.5t50 -20.5t50 18t18 51q0 57 -67 57h-28v50h30q64 0 64 56q0 31 -18.5 49t-49.5 18t-48 -21.5t-17 -54.5l-2 -8h-73q-1 5 -1 8q0 62 38.5 99.5t104.5 37.5q69 0 109 -31.5
t40 -82.5q0 -36 -22.5 -60t-54.5 -32q35 -8 58 -32.5t23 -61.5zM661 750h85l-487 -750h-85zM816 214q78 -29 78 -101q0 -53 -43 -88.5t-120 -35.5t-120.5 36t-43.5 88q0 34 21 60.5t58 40.5q-57 27 -57 87q0 46 37.5 78t104.5 32t104.5 -32t37.5 -78q0 -60 -57 -87zM731 358
q-31 0 -50.5 -16.5t-19.5 -43.5q0 -29 19.5 -46t50.5 -17q32 0 51 16.5t19 46.5q0 27 -19.5 43.5t-50.5 16.5zM731 45q35 0 57.5 20.5t22.5 50.5q0 32 -22 50.5t-58 18.5t-58 -18.5t-22 -50.5q0 -30 22.5 -50.5t57.5 -20.5z" />
    <glyph glyph-name="fiveeighths" unicode="&#x215d;" horiz-adv-x="926" 
d="M336 484q0 -62 -41 -103.5t-111 -41.5q-66 0 -105.5 39t-38.5 98v7h72v-7q0 -36 18.5 -56t51.5 -20q32 0 52.5 23.5t20.5 64.5q0 37 -19.5 61t-52.5 24q-20 0 -37.5 -9t-24.5 -17t-8 -11l-58 9l22 205h235v-59h-179l-12 -86q33 25 81 25q67 0 100.5 -40.5t33.5 -105.5z
M653 750h85l-487 -750h-85zM807 214q79 -30 79 -101q0 -53 -43 -88.5t-120 -35.5t-120.5 36t-43.5 88q0 34 20.5 60.5t58.5 40.5q-57 27 -57 87q0 46 37.5 78t104.5 32t104.5 -32t37.5 -78q0 -60 -58 -87zM723 358q-31 0 -50.5 -16.5t-19.5 -43.5q0 -29 19.5 -46t50.5 -17
q32 0 51 16.5t19 46.5q0 27 -19.5 43.5t-50.5 16.5zM723 45q35 0 57.5 20.5t22.5 50.5q0 32 -22 50.5t-58 18.5t-58 -18.5t-22 -50.5q0 -30 22.5 -50.5t57.5 -20.5z" />
    <glyph glyph-name="seveneighths" unicode="&#x215e;" horiz-adv-x="855" 
d="M96 699v-60h-56v111h308v-51q-72 -69 -115 -160t-43 -189h-88q0 90 55.5 189.5t122.5 159.5h-184zM582 750h85l-487 -750h-85zM736 214q79 -30 79 -101q0 -53 -43 -88.5t-120 -35.5t-120.5 36t-43.5 88q0 34 20.5 60.5t58.5 40.5q-57 27 -57 87q0 46 37.5 78t104.5 32
t104.5 -32t37.5 -78q0 -60 -58 -87zM652 358q-31 0 -50.5 -16.5t-19.5 -43.5q0 -29 19.5 -46t50.5 -17q32 0 51 16.5t19 46.5q0 27 -19.5 43.5t-50.5 16.5zM652 45q35 0 57.5 20.5t22.5 50.5q0 32 -22 50.5t-58 18.5t-58 -18.5t-22 -50.5q0 -30 22.5 -50.5t57.5 -20.5z" />
    <glyph glyph-name="arrowleft" unicode="&#x2190;" horiz-adv-x="717" 
d="M667 313v-116l-444 10q103 -90 124 -175h-126q-31 123 -191 216v13q86 54 130.5 105.5t60.5 111.5h126q-22 -85 -123 -174z" />
    <glyph glyph-name="arrowup" unicode="&#x2191;" horiz-adv-x="515" 
d="M264 638q54 -86 105 -131t111 -60v-126q-85 21 -174 123l10 -444h-116l9 444q-87 -101 -174 -123v126q122 31 216 191h13z" />
    <glyph glyph-name="arrowright" unicode="&#x2192;" horiz-adv-x="717" 
d="M496 478q31 -121 191 -217v-13q-86 -55 -130.5 -105.5t-60.5 -110.5h-125q20 85 125 175l-446 -10v116l444 -9q-103 90 -123 174h125z" />
    <glyph glyph-name="arrowdown" unicode="&#x2193;" horiz-adv-x="515" 
d="M306 115q89 102 174 123v-126q-121 -31 -216 -191h-13q-55 86 -106 131t-110 60v126q45 -11 92 -46.5t82 -77.5l-9 444h116z" />
    <glyph glyph-name="arrowboth" unicode="&#x2194;" horiz-adv-x="867" 
d="M647 478q29 -121 190 -217v-13q-86 -55 -130.5 -105.5t-59.5 -110.5h-126q11 44 46 91t76 82l-209 -8l-209 8q41 -35 76 -82t46 -91h-126q-31 123 -191 216v13q86 54 130.5 105.5t60.5 111.5h126q-22 -86 -121 -173l208 8l208 -8q-99 87 -121 173h126z" />
    <glyph glyph-name="arrowupdn" unicode="&#x2195;" horiz-adv-x="515" 
d="M480 398q-82 20 -173 121l8 -201l-7 -202q86 100 172 122v-126q-121 -31 -216 -191h-13q-55 86 -106 131t-110 60v126q86 -22 172 -122l-7 202l8 201q-91 -101 -173 -121v126q121 31 216 190h13q54 -86 105 -130.5t111 -59.5v-126z" />
    <glyph glyph-name="uni2196" unicode="&#x2196;" horiz-adv-x="633" 
d="M575 69l-82 -82l-301 314q4 -129 -43 -203l-89 89q65 108 18 287l10 10q99 -22 166.5 -18t120.5 36l89 -89q-74 -47 -202 -43z" />
    <glyph glyph-name="uni2197" unicode="&#x2197;" horiz-adv-x="633" 
d="M544 474q-22 -100 -17.5 -167t36.5 -120l-89 -90q-46 76 -42 205l-302 -315l-82 82l314 301q-128 -4 -203 42l89 90q107 -64 287 -19z" />
    <glyph glyph-name="uni2198" unicode="&#x2198;" horiz-adv-x="633" 
d="M563 324q-64 -108 -19 -288l-9 -9q-100 22 -167 18t-120 -36l-89 89q75 46 204 42l-315 302l82 82l302 -316q-4 129 42 205z" />
    <glyph glyph-name="uni2199" unicode="&#x2199;" horiz-adv-x="633" 
d="M260 140q128 4 204 -42l-89 -89q-109 64 -287 18l-10 9q22 100 18 167t-36 120l89 90q47 -74 43 -203l301 314l82 -82z" />
    <glyph glyph-name="minus" unicode="&#x2212;" horiz-adv-x="654" 
d="M60 351h534v-88h-534v88z" />
    <glyph glyph-name="approxequal" unicode="&#x2248;" horiz-adv-x="833" 
d="M528 338q33 0 72 13t62 27l22 13v-109q-9 -7 -24.5 -17.5t-57 -28.5t-74.5 -18q-43 0 -110 30t-114 30q-14 0 -29.5 -3t-30 -7.5t-29 -10t-26 -11t-20.5 -10l-15 -7.5l-5 -3v109l9 6q10 6 26.5 15.5t35.5 19t42 16t42 6.5q47 0 114 -30t110 -30z" />
    <glyph glyph-name="notequal" unicode="&#x2260;" horiz-adv-x="833" 
d="M684 378h-181l-100 -143h281v-88h-342l-70 -101h-74l70 101h-119v88h181l99 143h-280v89h342l66 94h73l-65 -94h119v-89z" />
    <glyph glyph-name="lessequal" unicode="&#x2264;" horiz-adv-x="833" 
d="M684 530v-70l-448 -141l448 -147v-70l-535 187v62zM149 1v66h535v-66h-535z" />
    <glyph glyph-name="greaterequal" unicode="&#x2265;" horiz-adv-x="833" 
d="M149 530l535 -179v-62l-535 -187v70l448 147l-448 141v70zM149 1v66h535v-66h-535z" />
    <glyph glyph-name="revlogicalnot" unicode="&#x2310;" horiz-adv-x="641" 
d="M146 263v-184h-93v272h535v-88h-442z" />
    <glyph glyph-name="uni24C5" unicode="&#x24c5;" horiz-adv-x="885" 
d="M443 770q164 0 274.5 -113.5t110.5 -280.5q0 -170 -110 -283t-275 -113t-275 113t-110 283q0 167 110.5 280.5t274.5 113.5zM443 33q138 0 233 99.5t95 243.5t-95 242.5t-233 98.5t-233.5 -98.5t-95.5 -242.5q0 -145 95.5 -244t233.5 -99zM471 180h-173v47h44v296h-44v47
h178q149 0 149 -116q0 -62 -41.5 -92.5t-110.5 -30.5h-59v-104h57v-47zM414 372h49q37 0 59 19t22 57t-22 56.5t-59 18.5h-49v-151z" />
    <glyph glyph-name="uni2501" unicode="&#x2501;" horiz-adv-x="638" 
d="M-5 297v112h648v-112h-648z" />
    <glyph glyph-name="uni253B" unicode="&#x253b;" horiz-adv-x="638" 
d="M-5 297v112h273v361h102v-361h273v-112h-648z" />
    <glyph glyph-name="uni256F" unicode="&#x256f;" horiz-adv-x="605" 
d="M454 770q0 -207 -108.5 -331t-278.5 -124v79q91 0 158 53.5t98.5 137.5t31.5 185h99z" />
    <glyph glyph-name="filledbox" unicode="&#x25a0;" horiz-adv-x="582" 
d="M30 521h522v-521h-522v521zM486 458h-203l203 -207v207z" />
    <glyph glyph-name="uni25A1" unicode="&#x25a1;" horiz-adv-x="582" 
d="M30 521h522v-521h-522v521zM496 478h-410v-435h410v435z" />
    <glyph glyph-name="uni261A" unicode="&#x261a;" horiz-adv-x="1567" 
d="M549 96q-18 4 -13 33q-12 14 -21 28q-17 29 -18 57q-33 9 -74 33q-72 41 -72 72q0 18 18 54l3 5q2 4 4 6q-80 -2 -163 -2q-38 0 -76 18q-31 19 -44 41q0 2 -2 4q-51 4 -55 19q0 12 12.5 18t43.5 12q31 3 76 -4q67 4 123 14q110 20 145 40q2 1 14 8q131 71 170 88
q124 55 182 55q46 0 203 -31q10 24 30 24q19 0 92 -25q54 -18 82 -25v11q0 9 6 12q5 5 14 3l257 -72q11 -4 11 -16v-373q0 -6 -4.5 -10.5t-11.5 -4.5h-189q-12 0 -16 11q-13 36 -24 85q-26 -2 -42 -4q-106 -12 -123 -12q-32 0 -62 56q-18 34 -25 73q-105 52 -123 55
q-24 3 -56 9q-29 -79 -120 -118q-12 -4 -37 -41q-16 -21 -43 -76q-8 -20 -26 -57q0 -8 -1 -12q-5 -25 -20 -44t-25 -17zM579 214l12 25q55 118 97 134q60 29 86 70q7 9 11.5 19t5.5 15l1 5q1 7 8 12q5 4 12 2l12 -2q12 -2 29.5 -4.5t28.5 -3.5q15 -3 112 -49q-4 27 -4 68
q0 85 6 128q-166 28 -194 28q-52 0 -169 -53q-81 -36 -166 -85q-7 -5 -15 -8q-37 -21 -121.5 -38t-157.5 -20q-14 -6 -42 -11q1 -1 5.5 -4.5t7.5 -5.5q29 -21 69 -21q102 0 174 4q36 3 93 17q32 9 45 9q15 0 32 -12t26 -22t14 -18q9 -9 -2 -20q-33 -38 -59 -113
q-15 -43 8 -85q3 -3 3 -7q19 36 32 46zM1206 311q14 1 39 5q-30 152 -35 290q-26 5 -94 27q-66 22 -79 23q-4 -4 -9 -31q-6 -54 -6 -120q0 -44 5.5 -81t14 -59t18 -37.5t16.5 -21.5t11 -6q15 0 119 11zM1094 377q0 -17 12 -29t29 -12q18 0 30 12t12 29t-12 29t-30 12
q-17 0 -29 -12t-12 -29zM529 328q6 14 33 56q-23 27 -37 27q-7 0 -11 -1q-3 -42 -17 -66q20 -7 32 -16zM438 276q36 -18 60 -28q0 4 6 23q3 9 10 26q-14 11 -48 22q-8 1 -12 12q-3 8 4 16q18 18 22 55q-50 -11 -68 -13q-6 -18 -13 -32q-14 -28 -14 -38q2 -14 53 -43z
M1373 244q26 0 45 18.5t19 44.5t-19 44.5t-45 18.5q-25 0 -43.5 -19t-18.5 -44q0 -26 18.5 -44.5t43.5 -18.5z" />
    <glyph glyph-name="uni261B" unicode="&#x261b;" horiz-adv-x="1567" 
d="M1018 96q-10 -2 -25 17t-20 44q-1 4 -1 12q-18 37 -26 57q-27 55 -43 76q-25 37 -37 41q-91 39 -120 118q-32 -6 -56 -9q-18 -3 -123 -55q-7 -39 -25 -73q-30 -56 -62 -56q-38 0 -123 12q-16 2 -42 4q-8 -34 -24 -85q-4 -11 -16 -11h-189q-7 0 -11.5 4.5t-4.5 10.5v373
q0 12 11 16l257 72q9 2 14 -3q6 -3 6 -12v-11q28 7 82 25q73 25 92 25q20 0 30 -24q157 31 203 31q69 0 182 -55q66 -32 170 -88q12 -7 14 -8q35 -20 145 -40q56 -10 123 -14q45 7 76 4q31 -6 43.5 -12t12.5 -18q-4 -15 -55 -19q-2 -2 -2 -4q-13 -22 -44 -41
q-38 -18 -76 -18q-83 0 -163 2q1 -1 2.5 -3t2.5 -4.5t2 -3.5q18 -36 18 -54q0 -31 -72 -72q-42 -24 -74 -33q-2 -28 -18 -57q-9 -14 -21 -28q5 -29 -13 -33zM988 214q13 -10 32 -46q0 4 3 7q23 42 8 85q-12 33 -26.5 61.5t-23.5 40.5l-9 11q-11 11 -2 20q5 8 14 18t26 22
t32 12q13 0 45 -9q51 -15 93 -17q72 -4 174 -4q40 0 69 21q3 2 7.5 5.5t5.5 4.5q-28 5 -42 11q-73 3 -157.5 20t-121.5 38q-7 3 -15 8q-85 49 -166 85q-117 53 -169 53q-28 0 -194 -28q6 -44 6 -128q0 -41 -4 -68q97 46 112 49q11 1 28.5 3.5t29.5 4.5l12 2q7 2 12 -2
q7 -5 8 -12q2 -18 18 -39q26 -41 86 -70q37 -15 97 -134zM361 311q23 -2 52 -5t45.5 -4.5t21.5 -1.5q8 1 22 17.5t28.5 66.5t14.5 121q0 66 -6 120q-5 27 -9 31q-13 -1 -79 -23q-68 -22 -94 -27q-5 -138 -35 -290q25 -4 39 -5zM473 377q0 17 -12.5 29t-28.5 12
q-18 0 -30 -12t-12 -29t12 -29t30 -12q16 0 28.5 12t12.5 29zM1038 328q12 9 32 16q-14 24 -17 66q-4 1 -11 1q-14 0 -37 -27q27 -42 33 -56zM1129 276q23 13 36 23.5t15 14.5l2 5q0 10 -14 38q-7 14 -13 32q-18 2 -68 13q4 -37 22 -55q7 -8 4 -16q-4 -11 -12 -12
q-34 -11 -48 -22q7 -17 10 -26q6 -19 6 -23q24 10 60 28zM194 244q25 0 43.5 18.5t18.5 44.5q0 25 -18.5 44t-43.5 19q-26 0 -45 -18.5t-19 -44.5t19 -44.5t45 -18.5z" />
    <glyph glyph-name="uni261C" unicode="&#x261c;" horiz-adv-x="1467" 
d="M1397 50h-395q-3 18 -5 66h-163l-3 28l-1 3q0 3 -1 10l-2 14q-61 -26 -119 -26q-64 0 -124 20q-9 -31 -35 -49q-29 -20 -75 -20q-52 0 -88 17q-60 28 -60 85q0 19 7 36q-7 3 -15 9q-26 22 -26 69q0 12 5 29q-4 2 -12 8q-27 23 -27 69q0 51 57 106q-8 -1 -23 -1
q-33 0 -69 14q-35 -16 -65 -16q-43 0 -70 10q-48 17 -48 65q0 34 48 58q36 19 103 34q131 28 257 28q98 0 242 -49q56 -19 141 -60l3 30h165l3 30h395v-617zM399 142q29 -14 75 -14q39 0 57 15q26 17 26 59q0 34 -8 48q-4 10 -13 10q-39 0 -54 -62h-29q9 43 31.5 68t51.5 25
q53 0 53 -89v-4q54 -21 119 -21q60 0 116 27q-7 96 -7 173q0 106 9 196q-72 36 -146 61q-139 47 -232 47q-137 0 -251 -25q-43 -9 -72.5 -21t-41 -21.5t-11.5 -17.5q0 -44 86 -44q8 0 16.5 1.5t15.5 4t12.5 5t9.5 3.5l3 2l7 4l6 -4l4 -1q4 -1 10.5 -3t14.5 -4t17.5 -3
t17.5 -1q53 0 73 10q38 27 76 43v-31q-37 -19 -77 -52q-73 -58 -73 -108q0 -36 19 -48q21 35 67 74q13 11 27.5 20.5t26 16.5t21 12t16.5 8l6 3v-32q-46 -26 -77 -52q-74 -60 -74 -108q0 -44 25 -50q20 31 64 69q45 37 96 57v-30q-45 -25 -77 -52q-74 -63 -74 -108
q0 -37 42 -56zM996 147q-4 96 -4 212q0 129 5 246h-136q-12 -95 -12 -228q0 -60 3 -117.5t6 -85.5l3 -27h135zM881 208q0 -17 12 -29.5t29 -12.5t29 12.5t12 29.5q0 16 -12 28t-29 12t-29 -11.5t-12 -28.5zM1116 122q26 0 45 18.5t19 44.5t-19 44.5t-45 18.5t-44.5 -18.5
t-18.5 -44.5t18.5 -44.5t44.5 -18.5zM1293 122q26 0 44.5 18.5t18.5 44.5t-18.5 44.5t-44.5 18.5q-27 0 -45 -18.5t-18 -44.5t18 -44.5t45 -18.5z" />
    <glyph glyph-name="uni261E" unicode="&#x261e;" horiz-adv-x="1467" 
d="M70 50v617h395l3 -30h165l3 -30q85 41 141 60q144 49 242 49q133 0 257 -28q67 -15 103 -34q48 -26 48 -58q0 -47 -48 -65q-27 -10 -70 -10q-30 0 -65 16q-36 -14 -69 -14q-15 0 -23 1q57 -56 57 -106q0 -46 -27 -69q-8 -6 -12 -8q5 -17 5 -29q0 -47 -26 -69
q-7 -6 -15 -9q7 -17 7 -36q0 -57 -60 -85q-36 -17 -88 -17q-46 0 -75 20q-26 18 -35 49q-60 -20 -124 -20q-58 0 -119 26q-1 -5 -1.5 -9.5t-1 -7.5t-1 -5t-0.5 -3v-2l-3 -28h-163l-5 -66h-395zM1068 142q42 19 42 56q0 45 -74 108q-32 27 -77 52v30q55 -22 96 -57
q44 -38 64 -69q25 6 25 50q0 48 -74 108q-31 26 -77 52v32l7 -3q6 -3 15.5 -8t21 -12t26 -16.5t27.5 -20.5q46 -39 67 -74q19 12 19 48q0 48 -73 108q-40 33 -77 52v31q38 -16 76 -43q20 -10 73 -10q8 0 17.5 1t17.5 3t14.5 4t10.5 3l4 1l6 4l7 -4l4 -2q3 -1 8.5 -3.5
t12.5 -5t15.5 -4t16.5 -1.5q86 0 86 44q0 8 -11.5 17.5t-41 21.5t-72.5 21q-114 25 -251 25q-93 0 -232 -47q-74 -25 -146 -61q9 -90 9 -196q0 -77 -7 -173q56 -27 116 -27q65 0 119 21v4q0 89 53 89q29 0 51.5 -25t31.5 -68h-29q-15 62 -54 62q-9 0 -13 -10q-8 -14 -8 -48
q0 -42 26 -59q18 -15 57 -15q43 0 75 14zM471 147h135q12 96 12 230q0 59 -3 116t-6 85l-3 27h-136q5 -117 5 -246q0 -116 -4 -212zM174 122q27 0 45 18.5t18 44.5t-18 44.5t-45 18.5q-26 0 -44.5 -18.5t-18.5 -44.5t18.5 -44.5t44.5 -18.5zM351 122q26 0 44.5 18.5
t18.5 44.5t-18.5 44.5t-44.5 18.5t-45 -18.5t-19 -44.5t19 -44.5t45 -18.5zM586 208q0 17 -12 28.5t-29 11.5t-29 -12t-12 -28q0 -17 12 -29.5t29 -12.5t29 12.5t12 29.5z" />
    <glyph glyph-name="uni27B8" unicode="&#x27b8;" horiz-adv-x="1254" 
d="M1003 482q31 -121 191 -217v-12q-86 -54 -130.5 -105.5t-60.5 -111.5h-126q13 55 65.5 114.5t108.5 87.5l-338 -5q-158 -21 -216 -198h-363q28 80 112.5 150t155.5 70v9q-71 0 -155.5 69.5t-112.5 149.5h363q57 -183 225 -198l329 -5q-56 28 -108.5 87.5t-65.5 114.5h126
z" />
    <glyph glyph-name="uni27D1" unicode="&#x27d1;" horiz-adv-x="144" 
d="M72 621q-31 0 -51.5 18t-20.5 45t20.5 45.5t51.5 18.5t51.5 -18.5t20.5 -45.5t-20.5 -45t-51.5 -18z" />
    <glyph glyph-name="uni30C4" unicode="&#x30c4;" horiz-adv-x="1046" 
d="M547 394l-176 349h119l158 -349h-101zM270 331l-176 349h120l157 -349h-101zM977 644q10 -85 0.5 -176t-52 -198t-117.5 -182q-112 -112 -262.5 -155t-279.5 -28l-11 89q39 -3 94 4t120.5 25t135 56t121.5 90t88 123.5t50.5 141.5t19.5 125t2 96z" />
    <glyph glyph-name="uniE000" unicode="&#xe000;" horiz-adv-x="1086" 
d="M543 857q206 0 352 -146t146 -352t-146 -352t-352 -146t-352 146t-146 352t146 352t352 146zM543 -88q121 0 224 60t163 163t60 224t-60 224t-163 163t-224 60t-224 -60t-163 -163t-60 -224t60 -224t163 -163t224 -60zM684 705v-242h121v-363h-80v-40h-363v40h-81v363
h121v242h282zM765 423h-121v242h-202v-242h-121v-283h41v202h40v-242h121v81h-40v40h40v242h-40v161h121v-161h-41v-242h41v-40h-41v-81h121v242h41v-202h40v283zM442 140v41h41v-41h-41zM644 140h-40v41h40v-41z" />
    <glyph glyph-name="uniE132" unicode="&#xe132;" horiz-adv-x="582" 
d="M76 591l135 179h102l-151 -179h-86zM636 770l-152 -179h-86l135 179h103zM216 510v-429h63v-81h-241v81h63v347h-63v82h178zM352 428v82h188v-605q0 -56 -27.5 -80.5t-87.5 -24.5q-46 0 -73 6v85q12 -3 28 -3q27 0 36 11.5t9 35.5v493h-73z" />
    <glyph glyph-name="uniE133" unicode="&#xe133;" horiz-adv-x="781" 
d="M118 838l135 179h102l-151 -179h-86zM526 838l135 179h102l-151 -179h-86zM48 0v85h80v580h-80v85h281v-85h-79v-580h79v-85h-281zM669 241q0 -261 -197 -261q-58 0 -82 11v89q18 -4 42 -4q55 0 85 37.5t30 107.5v444h-86v85h288v-85h-80v-424z" />
    <glyph glyph-name="uniF6C3" unicode="&#xf6c3;" horiz-adv-x="0" 
d="M-60 -58q27 0 43.5 -17.5t16.5 -49.5q0 -42 -26 -82.5t-69 -69.5l-22 19q45 45 56 92q-27 2 -42.5 17.5t-15.5 36.5q0 23 17 38.5t42 15.5z" />
    <glyph glyph-name="uniF8FF" unicode="&#xf8ff;" horiz-adv-x="1266" 
d="M959 223q0 28 27 47.5t61 19.5q46 0 73 -27.5t27 -77.5q0 -69 -59.5 -111.5t-163.5 -42.5q-60 0 -116 13q-127 -168 -284 -168q-72 0 -118 38.5t-46 104.5q0 43 31.5 77t70.5 34q21 0 37 -13q8 -2 16.5 -11.5t8.5 -18.5v-11q-2 -18 -18 -33.5t-33 -15.5q-21 0 -32 14.5
t-11 34.5q0 13 7 23q-19 -4 -32.5 -28t-13.5 -55q0 -46 30.5 -76t84.5 -30q57 0 96 37t88 131q-60 24 -172.5 77.5t-165.5 73.5q-93 -126 -225 -126q-107 0 -107 76q0 43 58 84t178 41h23q39 83 71 184l2 3q-92 15 -130 58t-38 94q0 56 44.5 93t105.5 37q26 0 42.5 -14.5
t16.5 -37.5q0 -25 -17 -40.5t-34 -15.5q-20 0 -32.5 13t-12.5 32q0 27 17 42q-35 0 -70.5 -32.5t-35.5 -76.5q0 -100 152 -133q62 165 152.5 254.5t170.5 89.5q36 0 56.5 -26.5t20.5 -78.5q0 -90 -77 -163.5t-186 -94.5q-63 -143 -99 -201q148 -32 329 -134q20 58 50 113
q33 82 89 158q-79 25 -153 25t-117 -28t-43 -77q0 -31 26 -51t62 -20q45 0 70.5 26.5t17.5 62.5q-2 -10 -19 -23.5t-33 -13.5q-21 0 -33 13t-12 31q0 20 14.5 31t36.5 11q28 0 46.5 -16t18.5 -41q0 -49 -33.5 -75t-73.5 -26q-48 0 -81 27.5t-33 79.5q0 66 68 115.5t172 49.5
q82 0 165 -26q34 32 68.5 56t51.5 32l17 8l5 -12q-28 -19 -65 -98q11 -5 55 -5q67 0 111 24t44 70q0 63 -59.5 102.5t-148.5 39.5q-104 0 -145 -56h6q17 0 30 -11t13 -28q0 -27 -15.5 -41t-37.5 -14q-20 0 -32.5 13.5t-10.5 32.5q0 45 56 84t136 39q107 0 171 -47.5
t64 -121.5q0 -69 -61.5 -122t-164.5 -53q-32 0 -52 5q-2 -5 -34.5 -90.5t-52.5 -127.5q-4 -13 -38 -78q85 -35 139 -35q59 0 100.5 37t41.5 80q0 48 -32.5 71t-71.5 11q20 -10 27 -35q8 -21 -2 -37.5t-34 -20.5q-19 -7 -33.5 3.5t-18.5 32.5v13zM502 513q97 22 166.5 91
t69.5 157q0 38 -12.5 53.5t-27.5 15.5q-77 0 -196 -317zM259 259q-21 3 -59 3q-64 0 -112 -25t-48 -58q0 -53 70 -53q47 0 81.5 31t67.5 102z" />
    <glyph glyph-name="fi" unicode="&#xfb01;" horiz-adv-x="651" 
d="M101 649q0 114 139 114q38 0 72 -9v-78q-21 3 -32 3q-35 0 -49.5 -14.5t-14.5 -44.5v-110h76v-81h-76v-348h76v-81h-254v81h63v348h-63v81h63v139zM480 612q-37 0 -58.5 18.5t-21.5 47.5t21.5 48t58.5 19t58.5 -19t21.5 -48t-21.5 -47.5t-58.5 -18.5zM550 81h63v-81h-241
v81h63v347h-63v82h178v-429z" />
    <glyph glyph-name="fl" unicode="&#xfb02;" horiz-adv-x="651" 
d="M101 649q0 114 139 114q38 0 72 -9v-78q-21 3 -32 3q-35 0 -49.5 -14.5t-14.5 -44.5v-110h76v-81h-76v-348h76v-81h-254v81h63v348h-63v81h63v139zM550 81h63v-81h-241v81h63v588h-63v81h178v-669z" />
    <glyph glyph-name="uniFE35" unicode="&#xfe35;" horiz-adv-x="1013" 
d="M972 -98q-55 64 -184.5 120t-278.5 56q-150 0 -280 -56t-183 -120l-62 78q78 98 216 159.5t309 61.5q169 0 307 -61.5t217 -159.5z" />
    <glyph glyph-name="uniFF08" unicode="&#xff08;" horiz-adv-x="465" 
d="M429 767q-64 -55 -120 -184.5t-56 -278.5q0 -150 56 -280t120 -183l-78 -62q-98 78 -159.5 216t-61.5 309q0 169 61.5 307t159.5 217z" />
    <glyph glyph-name="uniFF09" unicode="&#xff09;" horiz-adv-x="465" 
d="M122 828q98 -79 159.5 -217t61.5 -307q0 -171 -61.5 -309t-159.5 -216l-78 62q64 53 119.5 183.5t55.5 279.5t-55.5 278.5t-119.5 184.5z" />
    <glyph glyph-name="a.alt" horiz-adv-x="636" 
d="M598 428h-63v-347h63v-81h-178v46q-54 -66 -149 -66q-101 0 -166 77t-65 198t65 198t166 77q95 0 149 -66v46h178v-82zM309 70q79 0 111 72v226q-32 72 -111 72q-64 0 -105.5 -52t-41.5 -133t41.5 -133t105.5 -52z" />
    <glyph glyph-name="agrave.alt" horiz-adv-x="636" 
d="M390 580h-86l-151 179h103zM598 428h-63v-347h63v-81h-178v46q-54 -66 -149 -66q-101 0 -166 77t-65 198t65 198t166 77q95 0 149 -66v46h178v-82zM309 70q79 0 111 72v226q-32 72 -111 72q-64 0 -105.5 -52t-41.5 -133t41.5 -133t105.5 -52z" />
    <glyph glyph-name="aacute.alt" horiz-adv-x="636" 
d="M456 759l-151 -179h-86l134 179h103zM598 428h-63v-347h63v-81h-178v46q-54 -66 -149 -66q-101 0 -166 77t-65 198t65 198t166 77q95 0 149 -66v46h178v-82zM309 70q79 0 111 72v226q-32 72 -111 72q-64 0 -105.5 -52t-41.5 -133t41.5 -133t105.5 -52z" />
    <glyph glyph-name="acircumflex.alt" horiz-adv-x="636" 
d="M309 689l-106 -114h-80l146 179h79l146 -179h-80zM598 428h-63v-347h63v-81h-178v46q-54 -66 -149 -66q-101 0 -166 77t-65 198t65 198t166 77q95 0 149 -66v46h178v-82zM309 70q79 0 111 72v226q-32 72 -111 72q-64 0 -105.5 -52t-41.5 -133t41.5 -133t105.5 -52z" />
    <glyph glyph-name="atilde.alt" horiz-adv-x="636" 
d="M222 656q-53 0 -53 -43h-55q0 52 28 85t78 33q38 0 88 -19t72 -19q24 0 37 11.5t13 30.5h56q0 -52 -28 -84.5t-76 -32.5q-38 0 -89 19t-71 19zM598 428h-63v-347h63v-81h-178v46q-54 -66 -149 -66q-101 0 -166 77t-65 198t65 198t166 77q95 0 149 -66v46h178v-82zM309 70
q79 0 111 72v226q-32 72 -111 72q-64 0 -105.5 -52t-41.5 -133t41.5 -133t105.5 -52z" />
    <glyph glyph-name="adieresis.alt" horiz-adv-x="636" 
d="M218 621q-26 0 -44 16.5t-18 39.5t18 39.5t44 16.5t44 -16.5t18 -39.5t-18 -39.5t-44 -16.5zM408 621q-26 0 -44 16.5t-18 39.5t18 39.5t44 16.5t44 -16.5t18 -39.5t-18 -39.5t-44 -16.5zM598 428h-63v-347h63v-81h-178v46q-54 -66 -149 -66q-101 0 -166 77t-65 198
t65 198t166 77q95 0 149 -66v46h178v-82zM309 70q79 0 111 72v226q-32 72 -111 72q-64 0 -105.5 -52t-41.5 -133t41.5 -133t105.5 -52z" />
    <glyph glyph-name="aring.alt" horiz-adv-x="636" 
d="M312 560q-57 0 -96 38.5t-39 95.5q0 58 39 96.5t96 38.5t96 -38.5t39 -96.5q0 -57 -39 -95.5t-96 -38.5zM312 765q-31 0 -50.5 -20t-19.5 -51q0 -30 20 -50.5t50 -20.5q31 0 50.5 20.5t19.5 50.5q0 31 -19 51t-51 20zM598 428h-63v-347h63v-81h-178v46q-54 -66 -149 -66
q-101 0 -166 77t-65 198t65 198t166 77q95 0 149 -66v46h178v-82zM309 70q79 0 111 72v226q-32 72 -111 72q-64 0 -105.5 -52t-41.5 -133t41.5 -133t105.5 -52z" />
    <glyph glyph-name="amacron.alt" horiz-adv-x="636" 
d="M497 721v-83h-373v83h373zM598 428h-63v-347h63v-81h-178v46q-54 -66 -149 -66q-101 0 -166 77t-65 198t65 198t166 77q95 0 149 -66v46h178v-82zM309 70q79 0 111 72v226q-32 72 -111 72q-64 0 -105.5 -52t-41.5 -133t41.5 -133t105.5 -52z" />
    <glyph glyph-name="abreve.alt" horiz-adv-x="636" 
d="M310 578q-82 0 -122.5 44.5t-40.5 122.5h51q1 -53 32 -79.5t80 -26.5t81 26.5t33 79.5h51q0 -77 -41 -122t-124 -45zM598 428h-63v-347h63v-81h-178v46q-54 -66 -149 -66q-101 0 -166 77t-65 198t65 198t166 77q95 0 149 -66v46h178v-82zM309 70q79 0 111 72v226
q-32 72 -111 72q-64 0 -105.5 -52t-41.5 -133t41.5 -133t105.5 -52z" />
    <glyph glyph-name="aogonek.alt" horiz-adv-x="636" 
d="M598 428h-63v-347h63v-81h-8q-40 0 -67.5 -24.5t-27.5 -53.5q0 -17 13 -30.5t33 -13.5q32 0 52 16v-54q-22 -17 -83 -17q-52 0 -81 24t-29 59q0 33 25 58.5t60 35.5h-65v46q-54 -66 -149 -66q-101 0 -166 77t-65 198t65 198t166 77q95 0 149 -66v46h178v-82zM309 70
q79 0 111 72v226q-32 72 -111 72q-64 0 -105.5 -52t-41.5 -133t41.5 -133t105.5 -52z" />
    <glyph glyph-name="f_i" horiz-adv-x="651" 
d="M101 649q0 114 139 114q38 0 72 -9v-78q-21 3 -32 3q-35 0 -49.5 -14.5t-14.5 -44.5v-110h76v-81h-76v-348h76v-81h-254v81h63v348h-63v81h63v139zM480 612q-37 0 -58.5 18.5t-21.5 47.5t21.5 48t58.5 19t58.5 -19t21.5 -48t-21.5 -47.5t-58.5 -18.5zM550 81h63v-81h-241
v81h63v347h-63v82h178v-429z" />
    <glyph glyph-name="f_l" horiz-adv-x="651" 
d="M101 649q0 114 139 114q38 0 72 -9v-78q-21 3 -32 3q-35 0 -49.5 -14.5t-14.5 -44.5v-110h76v-81h-76v-348h76v-81h-254v81h63v348h-63v81h63v139zM550 81h63v-81h-241v81h63v588h-63v81h178v-669z" />
    <glyph glyph-name="g.alt" horiz-adv-x="634" 
d="M421 510h175v-81h-60v-406q0 -109 -59 -169.5t-171 -60.5q-108 0 -167 47t-59 129v8h117v-10q0 -39 31 -67t81 -28q52 0 82 35t30 92v84q-54 -70 -157 -70q-96 0 -160 69t-64 189q0 119 64 189t160 70q51 0 92 -20t65 -52v52zM302 103q47 0 80.5 25.5t38.5 66.5v151
q-5 41 -38.5 67.5t-80.5 26.5q-59 0 -99.5 -51t-40.5 -118t41 -117.5t99 -50.5z" />
    <glyph glyph-name="gcircumflex.alt" horiz-adv-x="634" 
d="M306 689l-106 -114h-80l146 179h79l146 -179h-80zM421 510h175v-81h-60v-406q0 -109 -59 -169.5t-171 -60.5q-108 0 -167 47t-59 129v8h117v-10q0 -39 31 -67t81 -28q52 0 82 35t30 92v84q-54 -70 -157 -70q-96 0 -160 69t-64 189q0 119 64 189t160 70q51 0 92 -20
t65 -52v52zM302 103q47 0 80.5 25.5t38.5 66.5v151q-5 41 -38.5 67.5t-80.5 26.5q-59 0 -99.5 -51t-40.5 -118t41 -117.5t99 -50.5z" />
    <glyph glyph-name="gbreve.alt" horiz-adv-x="634" 
d="M303 578q-82 0 -122.5 44.5t-40.5 122.5h51q1 -53 32 -79.5t80 -26.5t81 26.5t33 79.5h51q0 -77 -41 -122t-124 -45zM421 510h175v-81h-60v-406q0 -109 -59 -169.5t-171 -60.5q-108 0 -167 47t-59 129v8h117v-10q0 -39 31 -67t81 -28q52 0 82 35t30 92v84
q-54 -70 -157 -70q-96 0 -160 69t-64 189q0 119 64 189t160 70q51 0 92 -20t65 -52v52zM302 103q47 0 80.5 25.5t38.5 66.5v151q-5 41 -38.5 67.5t-80.5 26.5q-59 0 -99.5 -51t-40.5 -118t41 -117.5t99 -50.5z" />
    <glyph glyph-name="gdotaccent.alt" horiz-adv-x="634" 
d="M307 621q-31 0 -51.5 18t-20.5 45t20.5 45.5t51.5 18.5t51.5 -18.5t20.5 -45.5t-20.5 -45t-51.5 -18zM421 510h175v-81h-60v-406q0 -109 -59 -169.5t-171 -60.5q-108 0 -167 47t-59 129v8h117v-10q0 -39 31 -67t81 -28q52 0 82 35t30 92v84q-54 -70 -157 -70
q-96 0 -160 69t-64 189q0 119 64 189t160 70q51 0 92 -20t65 -52v52zM302 103q47 0 80.5 25.5t38.5 66.5v151q-5 41 -38.5 67.5t-80.5 26.5q-59 0 -99.5 -51t-40.5 -118t41 -117.5t99 -50.5z" />
    <glyph glyph-name="gcommaaccent.alt" horiz-adv-x="633" 
d="M323 580q-27 0 -43.5 17.5t-16.5 49.5q0 42 26 82.5t69 69.5l22 -19q-45 -45 -56 -92q27 -2 42.5 -17.5t15.5 -36.5q0 -23 -17 -38.5t-42 -15.5zM421 510h175v-81h-60v-406q0 -109 -59 -169.5t-171 -60.5q-108 0 -167 47t-59 129v8h117v-10q0 -39 31 -67t81 -28
q52 0 82 35t30 92v84q-54 -70 -157 -70q-96 0 -160 69t-64 189q0 119 64 189t160 70q51 0 92 -20t65 -52v52zM302 103q47 0 80.5 25.5t38.5 66.5v151q-5 41 -38.5 67.5t-80.5 26.5q-59 0 -99.5 -51t-40.5 -118t41 -117.5t99 -50.5z" />
    <glyph glyph-name="r.alt" horiz-adv-x="521" 
d="M354 530q68 0 101.5 -46t33.5 -125v-87h-107v71q0 107 -72 107q-45 0 -69.5 -34.5t-24.5 -83.5v-251h72v-81h-250v81h63v347h-63v82h178v-47q22 31 59 49t79 18z" />
    <glyph glyph-name="racute.alt" horiz-adv-x="521" 
d="M394 759l-151 -179h-86l134 179h103zM354 530q68 0 101.5 -46t33.5 -125v-87h-107v71q0 107 -72 107q-45 0 -69.5 -34.5t-24.5 -83.5v-251h72v-81h-250v81h63v347h-63v82h178v-47q22 31 59 49t79 18z" />
    <glyph glyph-name="rcaron.alt" horiz-adv-x="521" 
d="M287 576h-79l-143 177h80l103 -111l102 111h80zM354 530q68 0 101.5 -46t33.5 -125v-87h-107v71q0 107 -72 107q-45 0 -69.5 -34.5t-24.5 -83.5v-251h72v-81h-250v81h63v347h-63v82h178v-47q22 31 59 49t79 18z" />
    <glyph glyph-name="y.alt" horiz-adv-x="544" 
d="M508 510v-487q0 -110 -55 -170t-163 -60q-104 0 -160.5 47t-56.5 129v9h117v-9q0 -44 28 -71t75 -27q49 0 74.5 36t25.5 98v70q-52 -69 -159 -69q-76 0 -118.5 46.5t-42.5 117.5v259h-61v81h176v-308q0 -53 23 -84.5t68 -31.5q50 0 82 34t32 84v225h-55v81h170z" />
    <glyph glyph-name="yacute.alt" horiz-adv-x="544" 
d="M416 759l-151 -179h-86l134 179h103zM508 510v-487q0 -110 -55 -170t-163 -60q-104 0 -160.5 47t-56.5 129v9h117v-9q0 -44 28 -71t75 -27q49 0 74.5 36t25.5 98v70q-52 -69 -159 -69q-76 0 -118.5 46.5t-42.5 117.5v259h-61v81h176v-308q0 -53 23 -84.5t68 -31.5
q50 0 82 34t32 84v225h-55v81h170z" />
    <glyph glyph-name="ydieresis.alt" horiz-adv-x="544" 
d="M180 621q-26 0 -44 16.5t-18 39.5t18 39.5t44 16.5t44 -16.5t18 -39.5t-18 -39.5t-44 -16.5zM370 621q-26 0 -44 16.5t-18 39.5t18 39.5t44 16.5t44 -16.5t18 -39.5t-18 -39.5t-44 -16.5zM508 510v-487q0 -110 -55 -170t-163 -60q-104 0 -160.5 47t-56.5 129v9h117v-9
q0 -44 28 -71t75 -27q49 0 74.5 36t25.5 98v70q-52 -69 -159 -69q-76 0 -118.5 46.5t-42.5 117.5v259h-61v81h176v-308q0 -53 23 -84.5t68 -31.5q50 0 82 34t32 84v225h-55v81h170z" />
    <glyph glyph-name="ycircumflex.alt" horiz-adv-x="544" 
d="M278 689l-106 -114h-80l146 179h79l146 -179h-80zM508 510v-487q0 -110 -55 -170t-163 -60q-104 0 -160.5 47t-56.5 129v9h117v-9q0 -44 28 -71t75 -27q49 0 74.5 36t25.5 98v70q-52 -69 -159 -69q-76 0 -118.5 46.5t-42.5 117.5v259h-61v81h176v-308q0 -53 23 -84.5
t68 -31.5q50 0 82 34t32 84v225h-55v81h170z" />
    <glyph glyph-name="uni0233.alt" horiz-adv-x="544" 
d="M468 721v-83h-373v83h373zM508 510v-487q0 -110 -55 -170t-163 -60q-104 0 -160.5 47t-56.5 129v9h117v-9q0 -44 28 -71t75 -27q49 0 74.5 36t25.5 98v70q-52 -69 -159 -69q-76 0 -118.5 46.5t-42.5 117.5v259h-61v81h176v-308q0 -53 23 -84.5t68 -31.5q50 0 82 34t32 84
v225h-55v81h170z" />
    <glyph glyph-name="ygrave.alt" horiz-adv-x="544" 
d="M350 580h-86l-151 179h103zM508 510v-487q0 -110 -55 -170t-163 -60q-104 0 -160.5 47t-56.5 129v9h117v-9q0 -44 28 -71t75 -27q49 0 74.5 36t25.5 98v70q-52 -69 -159 -69q-76 0 -118.5 46.5t-42.5 117.5v259h-61v81h176v-308q0 -53 23 -84.5t68 -31.5q50 0 82 34
t32 84v225h-55v81h170z" />
    <glyph glyph-name="uni1EF9.alt" horiz-adv-x="544" 
d="M203 656q-53 0 -53 -43h-55q0 52 28 85t78 33q38 0 88 -19t72 -19q24 0 37 11.5t13 30.5h56q0 -52 -28 -84.5t-76 -32.5q-38 0 -89 19t-71 19zM508 510v-487q0 -110 -55 -170t-163 -60q-104 0 -160.5 47t-56.5 129v9h117v-9q0 -44 28 -71t75 -27q49 0 74.5 36t25.5 98v70
q-52 -69 -159 -69q-76 0 -118.5 46.5t-42.5 117.5v259h-61v81h176v-308q0 -53 23 -84.5t68 -31.5q50 0 82 34t32 84v225h-55v81h170z" />
    <glyph glyph-name="A.sc" horiz-adv-x="646" 
d="M569 78h57v-78h-253v78h64l-32 110h-192l-32 -110h64v-78h-225v78h59l166 519h155zM228 243l161 1l-81 276z" />
    <glyph glyph-name="Agrave.sc" horiz-adv-x="646" 
d="M403 640h-97l-151 179h113zM569 78h57v-78h-253v78h64l-32 110h-192l-32 -110h64v-78h-225v78h59l166 519h155zM228 243l161 1l-81 276z" />
    <glyph glyph-name="Aacute.sc" horiz-adv-x="646" 
d="M468 819l-151 -179h-96l134 179h113zM569 78h57v-78h-253v78h64l-32 110h-192l-32 -110h64v-78h-225v78h59l166 519h155zM228 243l161 1l-81 276z" />
    <glyph glyph-name="Acircumflex.sc" horiz-adv-x="646" 
d="M324 761l-105 -113h-90l146 179h99l146 -179h-91zM569 78h57v-78h-253v78h64l-32 110h-192l-32 -110h64v-78h-225v78h59l166 519h155zM228 243l161 1l-81 276z" />
    <glyph glyph-name="Atilde.sc" horiz-adv-x="646" 
d="M238 725q-55 0 -55 -46h-59q0 57 29 92t82 35q41 0 94 -19.5t75 -19.5q52 0 52 44h60q0 -57 -29 -92t-80 -35q-41 0 -94.5 20.5t-74.5 20.5zM569 78h57v-78h-253v78h64l-32 110h-192l-32 -110h64v-78h-225v78h59l166 519h155zM228 243l161 1l-81 276z" />
    <glyph glyph-name="Adieresis.sc" horiz-adv-x="646" 
d="M219 685q-29 0 -49.5 19t-20.5 45t20.5 45.5t49.5 19.5q30 0 50.5 -19t20.5 -46t-20.5 -45.5t-50.5 -18.5zM433 685q-30 0 -50.5 18.5t-20.5 45.5t20.5 46t50.5 19t50 -19t20 -46t-20 -45.5t-50 -18.5zM569 78h57v-78h-253v78h64l-32 110h-192l-32 -110h64v-78h-225v78
h59l166 519h155zM228 243l161 1l-81 276z" />
    <glyph glyph-name="Aring.sc" horiz-adv-x="646" 
d="M322 625q-57 0 -97 39t-40 97q0 59 39.5 97.5t97.5 38.5t97.5 -38.5t39.5 -97.5q0 -58 -40 -97t-97 -39zM322 832q-31 0 -50.5 -20t-19.5 -51t19.5 -51.5t50.5 -20.5q32 0 51.5 20.5t19.5 51.5t-19.5 51t-51.5 20zM569 78h57v-78h-253v78h64l-32 110h-192l-32 -110h64
v-78h-225v78h59l166 519h155zM228 243l161 1l-81 276z" />
    <glyph glyph-name="Amacron.sc" horiz-adv-x="646" 
d="M520 788v-88h-383v88h383zM569 78h57v-78h-253v78h64l-32 110h-192l-32 -110h64v-78h-225v78h59l166 519h155zM228 243l161 1l-81 276z" />
    <glyph glyph-name="Abreve.sc" horiz-adv-x="646" 
d="M322 633q-84 0 -128.5 46.5t-44.5 122.5h61q1 -53 32 -79.5t80 -26.5t80.5 26.5t32.5 79.5h62q0 -76 -45.5 -122.5t-129.5 -46.5zM569 78h57v-78h-253v78h64l-32 110h-192l-32 -110h64v-78h-225v78h59l166 519h155zM228 243l161 1l-81 276z" />
    <glyph glyph-name="Aogonek.sc" horiz-adv-x="646" 
d="M590 0q-41 0 -69 -24t-28 -53q0 -18 13 -31.5t34 -13.5q34 0 54 17v-57q-24 -17 -86 -17q-55 0 -85 25t-30 61q0 33 25.5 58t60.5 35h-106v78h64l-32 110h-192l-32 -110h64v-78h-225v78h59l166 519h155l169 -519h57v-78h-36zM228 243l161 1l-81 276z" />
    <glyph glyph-name="AE.sc" horiz-adv-x="843" 
d="M796 398h-71v33q0 50 -13 67t-51 17h-144v-173h143v-70h-143v-193h144q38 0 51 18.5t13 67.5v48h71v-213h-466v79h65v109h-167l-54 -109h62v-79h-223v79h58l229 436h-82v79h578v-196zM255 243h140v272h-7z" />
    <glyph glyph-name="uni01E2.sc" horiz-adv-x="843" 
d="M674 788v-88h-383v88h383zM796 398h-71v33q0 50 -13 67t-51 17h-144v-173h143v-70h-143v-193h144q38 0 51 18.5t13 67.5v48h71v-213h-466v79h65v109h-167l-54 -109h62v-79h-223v79h58l229 436h-82v79h578v-196zM255 243h140v272h-7z" />
    <glyph glyph-name="AEacute.sc" horiz-adv-x="843" 
d="M623 819l-151 -179h-96l134 179h113zM796 398h-71v33q0 50 -13 67t-51 17h-144v-173h143v-70h-143v-193h144q38 0 51 18.5t13 67.5v48h71v-213h-466v79h65v109h-167l-54 -109h62v-79h-223v79h58l229 436h-82v79h578v-196zM255 243h140v272h-7z" />
    <glyph glyph-name="B.sc" horiz-adv-x="628" 
d="M393 312q188 -9 188 -147q0 -165 -235 -165h-292v78h65v438h-65v78h277q215 0 215 -144q0 -63 -38.5 -98.5t-114.5 -39.5zM241 516v-176h83q97 0 97 87q0 44 -25.5 66.5t-69.5 22.5h-85zM331 78q113 0 113 99q0 49 -30.5 74t-84.5 25h-88v-198h90z" />
    <glyph glyph-name="C.sc" horiz-adv-x="644" 
d="M476 219h117q-10 -112 -75 -173.5t-182 -61.5q-134 0 -209 88t-75 226q0 134 71.5 223t187.5 89q137 0 183 -111l10 95h81v-201h-115q-13 61 -47.5 96t-82.5 35q-69 0 -108.5 -61t-39.5 -165t40.5 -166t109.5 -62q102 0 134 149z" />
    <glyph glyph-name="Ccedilla.sc" horiz-adv-x="644" 
d="M593 219q-10 -109 -71.5 -170t-172.5 -65l-46 -56q22 8 48 8q44 0 80 -22.5t36 -72.5q0 -53 -43 -78t-112 -25q-20 0 -42.5 5.5t-29.5 11.5v42q28 -8 54 -8q45 0 67 12t22 43q0 22 -15.5 34.5t-42.5 12.5q-22 0 -39.5 -6.5t-24.5 -13.5l-7 -7l-28 28l75 94
q-118 12 -183.5 98t-65.5 214q0 134 71.5 223t187.5 89q137 0 183 -111l10 95h81v-201h-115q-13 61 -47.5 96t-82.5 35q-69 0 -108.5 -61t-39.5 -165t40.5 -166t109.5 -62q102 0 134 149h117z" />
    <glyph glyph-name="Cacute.sc" horiz-adv-x="644" 
d="M471 819l-151 -179h-96l134 179h113zM476 219h117q-10 -112 -75 -173.5t-182 -61.5q-134 0 -209 88t-75 226q0 134 71.5 223t187.5 89q137 0 183 -111l10 95h81v-201h-115q-13 61 -47.5 96t-82.5 35q-69 0 -108.5 -61t-39.5 -165t40.5 -166t109.5 -62q102 0 134 149z" />
    <glyph glyph-name="Cdotaccent.sc" horiz-adv-x="644" 
d="M329 686q-32 0 -53.5 18.5t-21.5 46.5q0 29 21.5 48t53.5 19q31 0 52.5 -19t21.5 -48q0 -28 -21 -46.5t-53 -18.5zM476 219h117q-10 -112 -75 -173.5t-182 -61.5q-134 0 -209 88t-75 226q0 134 71.5 223t187.5 89q137 0 183 -111l10 95h81v-201h-115q-13 61 -47.5 96
t-82.5 35q-69 0 -108.5 -61t-39.5 -165t40.5 -166t109.5 -62q102 0 134 149z" />
    <glyph glyph-name="Ccaron.sc" horiz-adv-x="644" 
d="M386 641h-99l-143 177h90l102 -111l102 111h91zM476 219h117q-10 -112 -75 -173.5t-182 -61.5q-134 0 -209 88t-75 226q0 134 71.5 223t187.5 89q137 0 183 -111l10 95h81v-201h-115q-13 61 -47.5 96t-82.5 35q-69 0 -108.5 -61t-39.5 -165t40.5 -166t109.5 -62
q102 0 134 149z" />
    <glyph glyph-name="D.sc" horiz-adv-x="665" 
d="M335 594q136 0 206.5 -81t70.5 -215q0 -136 -70.5 -217t-206.5 -81h-281v78h64v438h-64v78h281zM240 516v-438h77q76 0 117 57t41 163t-41 162t-117 56h-77z" />
    <glyph glyph-name="Dcaron.sc" horiz-adv-x="665" 
d="M379 641h-99l-143 177h90l102 -111l102 111h91zM335 594q136 0 206.5 -81t70.5 -215q0 -136 -70.5 -217t-206.5 -81h-281v78h64v438h-64v78h281zM317 78q76 0 117 57t41 163t-41 162t-117 56h-77v-438h77z" />
    <glyph glyph-name="Dcroat.sc" horiz-adv-x="644" 
d="M325 594q134 0 204 -81t70 -215q0 -136 -70 -217t-204 -81h-280v79h64v176h-59v92h59v168h-64v79h280zM307 79q74 0 114.5 56.5t40.5 162.5q0 105 -40 161t-115 56h-76v-168h85v-92h-85v-176h76z" />
    <glyph glyph-name="Eth.sc" horiz-adv-x="644" 
d="M325 594q134 0 204 -81t70 -215q0 -136 -70 -217t-204 -81h-280v79h64v176h-59v92h59v168h-64v79h280zM307 79q74 0 114.5 56.5t40.5 162.5q0 105 -40 161t-115 56h-76v-168h85v-92h-85v-176h76z" />
    <glyph glyph-name="E.sc" horiz-adv-x="582" 
d="M523 399h-72v39q0 46 -12.5 62t-50.5 16h-147v-175h143v-68h-143v-195h147q37 0 50 18.5t13 67.5v48h72v-212h-469v78h66v438h-66v78h469v-195z" />
    <glyph glyph-name="Egrave.sc" horiz-adv-x="582" 
d="M369 640h-97l-151 179h113zM523 399h-72v39q0 46 -12.5 62t-50.5 16h-147v-175h143v-68h-143v-195h147q37 0 50 18.5t13 67.5v48h72v-212h-469v78h66v438h-66v78h469v-195z" />
    <glyph glyph-name="Eacute.sc" horiz-adv-x="582" 
d="M434 819l-151 -179h-96l134 179h113zM523 399h-72v39q0 46 -12.5 62t-50.5 16h-147v-175h143v-68h-143v-195h147q37 0 50 18.5t13 67.5v48h72v-212h-469v78h66v438h-66v78h469v-195z" />
    <glyph glyph-name="Ecircumflex.sc" horiz-adv-x="582" 
d="M308 761l-105 -113h-90l146 179h99l146 -179h-91zM523 399h-72v39q0 46 -12.5 62t-50.5 16h-147v-175h143v-68h-143v-195h147q37 0 50 18.5t13 67.5v48h72v-212h-469v78h66v438h-66v78h469v-195z" />
    <glyph glyph-name="Edieresis.sc" horiz-adv-x="582" 
d="M191 685q-29 0 -49.5 19t-20.5 45t20.5 45.5t49.5 19.5q30 0 50.5 -19t20.5 -46t-20.5 -45.5t-50.5 -18.5zM405 685q-30 0 -50.5 18.5t-20.5 45.5t20.5 46t50.5 19t50 -19t20 -46t-20 -45.5t-50 -18.5zM523 399h-72v39q0 46 -12.5 62t-50.5 16h-147v-175h143v-68h-143
v-195h147q37 0 50 18.5t13 67.5v48h72v-212h-469v78h66v438h-66v78h469v-195z" />
    <glyph glyph-name="Emacron.sc" horiz-adv-x="582" 
d="M492 788v-88h-383v88h383zM523 399h-72v39q0 46 -12.5 62t-50.5 16h-147v-175h143v-68h-143v-195h147q37 0 50 18.5t13 67.5v48h72v-212h-469v78h66v438h-66v78h469v-195z" />
    <glyph glyph-name="Ebreve.sc" horiz-adv-x="582" 
d="M314 633q-84 0 -128.5 46.5t-44.5 122.5h61q1 -53 32 -79.5t80 -26.5t80.5 26.5t32.5 79.5h62q0 -76 -45.5 -122.5t-129.5 -46.5zM523 399h-72v39q0 46 -12.5 62t-50.5 16h-147v-175h143v-68h-143v-195h147q37 0 50 18.5t13 67.5v48h72v-212h-469v78h66v438h-66v78h469
v-195z" />
    <glyph glyph-name="Edotaccent.sc" horiz-adv-x="582" 
d="M305 686q-32 0 -53.5 18.5t-21.5 46.5q0 29 21.5 48t53.5 19q31 0 52.5 -19t21.5 -48q0 -28 -21 -46.5t-53 -18.5zM523 399h-72v39q0 46 -12.5 62t-50.5 16h-147v-175h143v-68h-143v-195h147q37 0 50 18.5t13 67.5v48h72v-212h-469v78h66v438h-66v78h469v-195z" />
    <glyph glyph-name="Eogonek.sc" horiz-adv-x="582" 
d="M523 399h-72v39q0 46 -12.5 62t-50.5 16h-147v-175h143v-68h-143v-195h147q37 0 50 18.5t13 67.5v48h72v-212h-16q-41 0 -69 -24t-28 -53q0 -18 13 -31.5t34 -13.5q34 0 54 17v-57q-24 -17 -86 -17q-55 0 -85 25t-30 61q0 33 25.5 58t60.5 35h-342v78h66v438h-66v78h469
v-195z" />
    <glyph glyph-name="Ecaron.sc" horiz-adv-x="582" 
d="M362 641h-99l-143 177h90l102 -111l102 111h91zM523 399h-72v39q0 46 -12.5 62t-50.5 16h-147v-175h143v-68h-143v-195h147q37 0 50 18.5t13 67.5v48h72v-212h-469v78h66v438h-66v78h469v-195z" />
    <glyph glyph-name="uni1EBC.sc" horiz-adv-x="582" 
d="M225 725q-55 0 -55 -46h-59q0 57 29 92t82 35q41 0 94 -19.5t75 -19.5q52 0 52 44h60q0 -57 -29 -92t-80 -35q-41 0 -94.5 20.5t-74.5 20.5zM523 399h-72v39q0 46 -12.5 62t-50.5 16h-147v-175h143v-68h-143v-195h147q37 0 50 18.5t13 67.5v48h72v-212h-469v78h66v438
h-66v78h469v-195z" />
    <glyph glyph-name="uni018F.sc" horiz-adv-x="655" 
d="M323 610q133 0 210 -88t77 -224q0 -137 -77 -225.5t-210 -88.5t-203.5 83t-70.5 221v52h421q-7 87 -44 133.5t-101 46.5q-48 0 -82.5 -29.5t-49.5 -83.5h-136q24 96 92.5 149.5t173.5 53.5zM326 77q63 0 100 46t44 132h-286q4 -84 41 -131t101 -47z" />
    <glyph glyph-name="F.sc" horiz-adv-x="560" 
d="M54 594h457v-192h-73v40q0 41 -12.5 57.5t-49.5 16.5h-133v-191h143v-69h-143v-178h91v-78h-280v78h67v438h-67v78z" />
    <glyph glyph-name="G.sc" horiz-adv-x="674" 
d="M389 281h259v-64h-40v-217h-76l-14 114q-50 -130 -194 -130q-130 0 -201 86.5t-71 227.5q0 139 72.5 225.5t197.5 86.5q137 0 186 -118l11 102h81v-191h-122q-12 57 -46.5 89t-85.5 32q-73 0 -115 -62t-42 -164t43.5 -165t119.5 -63q59 0 99 40t43 107h-105v64z" />
    <glyph glyph-name="Gcircumflex.sc" horiz-adv-x="674" 
d="M353 761l-105 -113h-90l146 179h99l146 -179h-91zM389 281h259v-64h-40v-217h-76l-14 114q-50 -130 -194 -130q-130 0 -201 86.5t-71 227.5q0 139 72.5 225.5t197.5 86.5q137 0 186 -118l11 102h81v-191h-122q-12 57 -46.5 89t-85.5 32q-73 0 -115 -62t-42 -164
t43.5 -165t119.5 -63q59 0 99 40t43 107h-105v64z" />
    <glyph glyph-name="Gbreve.sc" horiz-adv-x="674" 
d="M350 633q-84 0 -128.5 46.5t-44.5 122.5h61q1 -53 32 -79.5t80 -26.5t80.5 26.5t32.5 79.5h62q0 -76 -45.5 -122.5t-129.5 -46.5zM389 281h259v-64h-40v-217h-76l-14 114q-50 -130 -194 -130q-130 0 -201 86.5t-71 227.5q0 139 72.5 225.5t197.5 86.5q137 0 186 -118
l11 102h81v-191h-122q-12 57 -46.5 89t-85.5 32q-73 0 -115 -62t-42 -164t43.5 -165t119.5 -63q59 0 99 40t43 107h-105v64z" />
    <glyph glyph-name="Gdotaccent.sc" horiz-adv-x="674" 
d="M348 686q-32 0 -53.5 18.5t-21.5 46.5q0 29 21.5 48t53.5 19q31 0 52.5 -19t21.5 -48q0 -28 -21 -46.5t-53 -18.5zM389 281h259v-64h-40v-217h-76l-14 114q-50 -130 -194 -130q-130 0 -201 86.5t-71 227.5q0 139 72.5 225.5t197.5 86.5q137 0 186 -118l11 102h81v-191
h-122q-12 57 -46.5 89t-85.5 32q-73 0 -115 -62t-42 -164t43.5 -165t119.5 -63q59 0 99 40t43 107h-105v64z" />
    <glyph glyph-name="Gcommaaccent.sc" horiz-adv-x="674" 
d="M389 281h259v-64h-40v-217h-76l-14 114q-50 -130 -194 -130q-130 0 -201 86.5t-71 227.5q0 139 72.5 225.5t197.5 86.5q137 0 186 -118l11 102h81v-191h-122q-12 57 -46.5 89t-85.5 32q-73 0 -115 -62t-42 -164t43.5 -165t119.5 -63q59 0 99 40t43 107h-105v64z" />
    <glyph glyph-name="H.sc" horiz-adv-x="714" 
d="M660 516h-64v-438h64v-78h-238v78h52v196h-234v-196h53v-78h-239v78h64v438h-64v78h239v-78h-53v-177h234v177h-52v78h238v-78z" />
    <glyph glyph-name="Hcircumflex.sc" horiz-adv-x="714" 
d="M358 761l-105 -113h-90l146 179h99l146 -179h-91zM660 516h-64v-438h64v-78h-238v78h52v196h-234v-196h53v-78h-239v78h64v438h-64v78h239v-78h-53v-177h234v177h-52v78h238v-78z" />
    <glyph glyph-name="Hbar.sc" horiz-adv-x="690" 
d="M646 515h-64v-87h48v-50h-48v-299h64v-79h-238v79h52v182h-230v-182h52v-79h-238v79h64v299h-47v50h47v87h-64v79h238v-79h-52v-87h230v87h-52v79h238v-79zM460 327v51h-230v-51h230z" />
    <glyph glyph-name="I.sc" horiz-adv-x="363" 
d="M54 0v78h67v438h-67v78h255v-78h-67v-438h67v-78h-255z" />
    <glyph glyph-name="Igrave.sc" horiz-adv-x="363" 
d="M164 640l-151 179h113l135 -179h-97zM54 0v78h67v438h-67v78h255v-78h-67v-438h67v-78h-255z" />
    <glyph glyph-name="Iacute.sc" horiz-adv-x="363" 
d="M79 640l134 179h113l-151 -179h-96zM54 0v78h67v438h-67v78h255v-78h-67v-438h67v-78h-255z" />
    <glyph glyph-name="Icircumflex.sc" horiz-adv-x="363" 
d="M183 761l-105 -113h-90l146 179h99l146 -179h-91zM54 516v78h255v-78h-67v-438h67v-78h-255v78h67v438h-67z" />
    <glyph glyph-name="Idieresis.sc" horiz-adv-x="363" 
d="M74 685q-29 0 -49.5 19t-20.5 45t20.5 45.5t49.5 19.5q30 0 50.5 -19t20.5 -46t-20.5 -45.5t-50.5 -18.5zM288 685q-30 0 -50.5 18.5t-20.5 45.5t20.5 46t50.5 19t50 -19t20 -46t-20 -45.5t-50 -18.5zM54 0v78h67v438h-67v78h255v-78h-67v-438h67v-78h-255z" />
    <glyph glyph-name="Itilde.sc" horiz-adv-x="363" 
d="M95 806q41 0 94 -19.5t75 -19.5q52 0 52 44h60q0 -57 -29 -92t-80 -35q-41 0 -94.5 20.5t-74.5 20.5q-55 0 -55 -46h-59q0 57 29 92t82 35zM54 0v78h67v438h-67v78h255v-78h-67v-438h67v-78h-255z" />
    <glyph glyph-name="Imacron.sc" horiz-adv-x="363" 
d="M-6 788h383v-88h-383v88zM54 0v78h67v438h-67v78h255v-78h-67v-438h67v-78h-255z" />
    <glyph glyph-name="Ibreve.sc" horiz-adv-x="363" 
d="M181 696q49 0 80.5 26.5t32.5 79.5h62q0 -76 -45.5 -122.5t-129.5 -46.5t-128.5 46.5t-44.5 122.5h61q1 -53 32 -79.5t80 -26.5zM54 0v78h67v438h-67v78h255v-78h-67v-438h67v-78h-255z" />
    <glyph glyph-name="Iogonek.sc" horiz-adv-x="363" 
d="M309 516h-67v-438h67v-78h-34q-42 0 -70 -24t-28 -53q0 -17 13.5 -31t34.5 -14q34 0 53 17v-57q-22 -17 -86 -17q-54 0 -84 25.5t-30 60.5q0 34 25.5 58.5t59.5 34.5h-109v78h67v438h-67v78h255v-78z" />
    <glyph glyph-name="Idotaccent.sc" horiz-adv-x="363" 
d="M184 686q-32 0 -53.5 18.5t-21.5 46.5q0 29 21.5 48t53.5 19q31 0 52.5 -19t21.5 -48q0 -28 -21 -46.5t-53 -18.5zM54 0v78h67v438h-67v78h255v-78h-67v-438h67v-78h-255z" />
    <glyph glyph-name="IJ.sc" horiz-adv-x="688" 
d="M44 0v79h67v436h-67v79h255v-79h-67v-436h67v-79h-255zM592 195q0 -211 -168 -211q-52 0 -75 10v82q18 -3 34 -3q43 0 65.5 27t22.5 77v338h-73v79h261v-79h-67v-320z" />
    <glyph glyph-name="uniE133.sc" horiz-adv-x="683" 
d="M81 690l148 188h105l-163 -188h-90zM440 690l147 188h106l-164 -188h-89zM41 0v79h67v436h-67v79h255v-79h-66v-436h66v-79h-255zM590 195q0 -211 -168 -211q-54 0 -76 10v82q21 -3 35 -3q42 0 64.5 27t22.5 77v338h-73v79h262v-79h-67v-320z" />
    <glyph glyph-name="J.sc" horiz-adv-x="506" 
d="M424 195q0 -103 -49 -157t-162 -54q-112 0 -154.5 51.5t-42.5 161.5v35h117v-55q0 -105 79 -105q43 0 66.5 27.5t23.5 77.5v339h-73v78h262v-78h-67v-321z" />
    <glyph glyph-name="Jcircumflex.sc" horiz-adv-x="524" 
d="M309 761l-105 -113h-90l146 179h99l146 -179h-91zM229 516v78h262v-78h-67v-321q0 -103 -49 -157t-162 -54q-112 0 -154.5 51.5t-42.5 161.5v35h117v-55q0 -105 79 -105q43 0 66.5 27.5t23.5 77.5v339h-73z" />
    <glyph glyph-name="K.sc" horiz-adv-x="688" 
d="M596 78h59v-78h-253v78h55l-128 214l-87 -81v-133h50v-78h-238v78h67v438h-67v78h240v-78h-52v-214l225 214h-67v78h242v-78h-70l-157 -145z" />
    <glyph glyph-name="Kcommaaccent.sc" horiz-adv-x="688" 
d="M596 78h59v-78h-253v78h55l-128 214l-87 -81v-133h50v-78h-238v78h67v438h-67v78h240v-78h-52v-214l225 214h-67v78h242v-78h-70l-157 -145z" />
    <glyph glyph-name="L.sc" horiz-adv-x="534" 
d="M241 516v-438h109q42 0 56.5 24t14.5 94v23h71v-219h-438v78h66v438h-66v78h266v-78h-79z" />
    <glyph glyph-name="Lacute.sc" horiz-adv-x="534" 
d="M113 640l134 179h113l-151 -179h-96zM241 516v-438h109q42 0 56.5 24t14.5 94v23h71v-219h-438v78h66v438h-66v78h266v-78h-79z" />
    <glyph glyph-name="Lcaron.sc" horiz-adv-x="534" 
d="M229 641h-99l-143 177h90l102 -111l102 111h91zM421 219h71v-219h-438v78h66v438h-66v78h266v-78h-79v-438h109q42 0 56.5 24t14.5 94v23z" />
    <glyph glyph-name="Ldot.sc" horiz-adv-x="534" 
d="M241 516v-438h115q39 0 52 24t13 94v11h71v-207h-438v78h66v438h-66v78h266v-78h-79zM383 298q-22 0 -37 13.5t-15 33.5t15 33.5t37 13.5t37.5 -13.5t15.5 -33.5t-15.5 -33.5t-37.5 -13.5z" />
    <glyph glyph-name="Lslash.sc" horiz-adv-x="496" 
d="M407 220h71v-220h-435v79h66v184l-68 -33v27l68 33v225h-66v79h254v-79h-66v-165l100 49v-27l-100 -49v-244h107q41 0 55 24t14 93v24z" />
    <glyph glyph-name="Lcommaaccent.sc" horiz-adv-x="534" 
d="M241 516v-438h109q42 0 56.5 24t14.5 94v23h71v-219h-438v78h66v438h-66v78h266v-78h-79z" />
    <glyph glyph-name="M.sc" horiz-adv-x="908" 
d="M853 516h-66v-438h66v-78h-240v78h52v391l-206 -473h-45l-200 457v-375h52v-78h-215v78h67v438h-67v78h221l186 -434l187 434h208v-78z" />
    <glyph glyph-name="N.sc" horiz-adv-x="702" 
d="M440 594h214v-78h-61v-516h-92l-294 411v-333h62v-78h-218v78h67v438h-67v78h161l287 -409v331h-59v78z" />
    <glyph glyph-name="Ntilde.sc" horiz-adv-x="702" 
d="M270 725q-55 0 -55 -46h-59q0 57 29 92t82 35q41 0 94 -19.5t75 -19.5q52 0 52 44h60q0 -57 -29 -92t-80 -35q-41 0 -94.5 20.5t-74.5 20.5zM440 594h214v-78h-61v-516h-92l-294 411v-333h62v-78h-218v78h67v438h-67v78h161l287 -409v331h-59v78z" />
    <glyph glyph-name="Nacute.sc" horiz-adv-x="702" 
d="M500 819l-151 -179h-96l134 179h113zM440 594h214v-78h-61v-516h-92l-294 411v-333h62v-78h-218v78h67v438h-67v78h161l287 -409v331h-59v78z" />
    <glyph glyph-name="Ncaron.sc" horiz-adv-x="702" 
d="M403 641h-99l-143 177h90l102 -111l102 111h91zM440 594h214v-78h-61v-516h-92l-294 411v-333h62v-78h-218v78h67v438h-67v78h161l287 -409v331h-59v78z" />
    <glyph glyph-name="Eng.sc" horiz-adv-x="660" 
d="M415 594h212v-79h-61v-561q0 -56 -21.5 -78t-81.5 -22q-46 0 -73 7v77q16 -2 28 -2q54 0 54 46v21l-288 408v-332h61v-79h-215v79h65v436h-65v79h159l283 -404v325h-57v79z" />
    <glyph glyph-name="Ncommaaccent.sc" horiz-adv-x="702" 
d="M440 594h214v-78h-61v-516h-92l-294 411v-333h62v-78h-218v78h67v438h-67v78h161l287 -409v331h-59v78z" />
    <glyph glyph-name="uni1E44.sc" horiz-adv-x="702" 
d="M364 644q-31 0 -51.5 18t-20.5 45t20.5 45.5t51.5 18.5t51.5 -18.5t20.5 -45.5t-20.5 -45t-51.5 -18zM440 594h214v-78h-61v-516h-92l-294 411v-333h62v-78h-218v78h67v438h-67v78h161l287 -409v331h-59v78z" />
    <glyph glyph-name="O.sc" horiz-adv-x="686" 
d="M343 610q136 0 213 -89t77 -223q0 -136 -77 -225t-213 -89q-138 0 -214.5 89t-76.5 225q0 134 77 223t214 89zM343 70q71 0 112 61.5t41 166.5t-41 165.5t-112 60.5q-72 0 -113 -60.5t-41 -165.5t41 -166.5t113 -61.5z" />
    <glyph glyph-name="Ograve.sc" horiz-adv-x="686" 
d="M326 640l-151 179h113l135 -179h-97zM343 610q136 0 213 -89t77 -223q0 -136 -77 -225t-213 -89q-138 0 -214.5 89t-76.5 225q0 134 77 223t214 89zM343 70q71 0 112 61.5t41 166.5t-41 165.5t-112 60.5q-72 0 -113 -60.5t-41 -165.5t41 -166.5t113 -61.5z" />
    <glyph glyph-name="Oacute.sc" horiz-adv-x="686" 
d="M241 640l134 179h113l-151 -179h-96zM343 610q136 0 213 -89t77 -223q0 -136 -77 -225t-213 -89q-138 0 -214.5 89t-76.5 225q0 134 77 223t214 89zM343 70q71 0 112 61.5t41 166.5t-41 165.5t-112 60.5q-72 0 -113 -60.5t-41 -165.5t41 -166.5t113 -61.5z" />
    <glyph glyph-name="Ocircumflex.sc" horiz-adv-x="686" 
d="M351 761l-105 -113h-90l146 179h99l146 -179h-91zM343 610q136 0 213 -89t77 -223q0 -136 -77 -225t-213 -89q-138 0 -214.5 89t-76.5 225q0 134 77 223t214 89zM343 70q71 0 112 61.5t41 166.5t-41 165.5t-112 60.5q-72 0 -113 -60.5t-41 -165.5t41 -166.5t113 -61.5z
" />
    <glyph glyph-name="Otilde.sc" horiz-adv-x="686" 
d="M260 828q41 0 94 -19.5t75 -19.5q52 0 52 44h60q0 -57 -29 -92t-80 -35q-41 0 -94.5 20.5t-74.5 20.5q-55 0 -55 -46h-59q0 57 29 92t82 35zM343 610q136 0 213 -89t77 -223q0 -136 -77 -225t-213 -89q-138 0 -214.5 89t-76.5 225q0 134 77 223t214 89zM343 70
q71 0 112 61.5t41 166.5t-41 165.5t-112 60.5q-72 0 -113 -60.5t-41 -165.5t41 -166.5t113 -61.5z" />
    <glyph glyph-name="Odieresis.sc" horiz-adv-x="686" 
d="M239 685q-29 0 -49.5 19t-20.5 45t20.5 45.5t49.5 19.5q30 0 50.5 -19t20.5 -46t-20.5 -45.5t-50.5 -18.5zM453 685q-30 0 -50.5 18.5t-20.5 45.5t20.5 46t50.5 19t50 -19t20 -46t-20 -45.5t-50 -18.5zM343 610q136 0 213 -89t77 -223q0 -136 -77 -225t-213 -89
q-138 0 -214.5 89t-76.5 225q0 134 77 223t214 89zM343 70q71 0 112 61.5t41 166.5t-41 165.5t-112 60.5q-72 0 -113 -60.5t-41 -165.5t41 -166.5t113 -61.5z" />
    <glyph glyph-name="Omacron.sc" horiz-adv-x="686" 
d="M156 788h383v-88h-383v88zM343 610q136 0 213 -89t77 -223q0 -136 -77 -225t-213 -89q-138 0 -214.5 89t-76.5 225q0 134 77 223t214 89zM343 70q71 0 112 61.5t41 166.5t-41 165.5t-112 60.5q-72 0 -113 -60.5t-41 -165.5t41 -166.5t113 -61.5z" />
    <glyph glyph-name="Obreve.sc" horiz-adv-x="686" 
d="M343 696q49 0 80.5 26.5t32.5 79.5h62q0 -76 -45.5 -122.5t-129.5 -46.5t-128.5 46.5t-44.5 122.5h61q1 -53 32 -79.5t80 -26.5zM343 610q136 0 213 -89t77 -223q0 -136 -77 -225t-213 -89q-138 0 -214.5 89t-76.5 225q0 134 77 223t214 89zM343 70q71 0 112 61.5
t41 166.5t-41 165.5t-112 60.5q-72 0 -113 -60.5t-41 -165.5t41 -166.5t113 -61.5z" />
    <glyph glyph-name="Ohungarumlaut.sc" horiz-adv-x="686" 
d="M199 645l134 179h113l-151 -179h-96zM369 645l145 179h113l-163 -179h-95zM343 610q136 0 213 -89t77 -223q0 -136 -77 -225t-213 -89q-138 0 -214.5 89t-76.5 225q0 134 77 223t214 89zM343 70q71 0 112 61.5t41 166.5t-41 165.5t-112 60.5q-72 0 -113 -60.5t-41 -165.5
t41 -166.5t113 -61.5z" />
    <glyph glyph-name="Oslash.sc" horiz-adv-x="678" 
d="M635 627l-83 -108q76 -85 76 -221t-77 -225t-211 -89q-94 0 -164 46l-48 -63h-84l82 107q-76 87 -76 224q0 134 77 223t213 89q94 0 162 -46l49 63h84zM189 298q0 -70 18 -119l229 298q-38 40 -96 40q-71 0 -111 -57.5t-40 -161.5zM491 298q0 70 -18 118l-230 -299
q38 -40 97 -40q70 0 110.5 58.5t40.5 162.5z" />
    <glyph glyph-name="Oslashacute.sc" horiz-adv-x="678" 
d="M484 819l-151 -179h-96l134 179h113zM635 627l-83 -108q76 -85 76 -221t-77 -225t-211 -89q-94 0 -164 46l-48 -63h-84l82 107q-76 87 -76 224q0 134 77 223t213 89q94 0 162 -46l49 63h84zM189 298q0 -70 18 -119l229 298q-38 40 -96 40q-71 0 -111 -57.5t-40 -161.5z
M491 298q0 70 -18 118l-230 -299q38 -40 97 -40q70 0 110.5 58.5t40.5 162.5z" />
    <glyph glyph-name="OE.sc" horiz-adv-x="827" 
d="M779 398h-72v33q0 50 -12.5 67t-50.5 17h-143v-173h142v-70h-142v-193h143q38 0 50.5 18t12.5 68v48h72v-213h-444q-137 0 -213 83.5t-76 214.5q0 129 76.5 212.5t212.5 83.5h444v-196zM379 79v436h-44q-71 0 -111 -57t-40 -160q0 -102 40 -160.5t111 -58.5h44z" />
    <glyph glyph-name="P.sc" horiz-adv-x="603" 
d="M330 0h-276v78h67v438h-67v78h284q108 0 169.5 -43t61.5 -135q0 -95 -64.5 -141.5t-172.5 -46.5h-89v-150h87v-78zM243 296h72q54 0 85.5 28t31.5 82q0 56 -31.5 83t-85.5 27h-72v-220z" />
    <glyph glyph-name="Q.sc" horiz-adv-x="675" 
d="M489 21q11 -53 82 -53q4 0 10 1t11 1l5 1v-83q-23 -7 -62 -7q-121 0 -137 108q-30 -5 -58 -5q-137 0 -212.5 89t-75.5 225q0 135 76 223.5t212 88.5t212.5 -89t76.5 -223q0 -92 -36 -165t-104 -112zM189 298q0 -105 40 -166.5t111 -61.5t111.5 61.5t40.5 166.5
q0 106 -40 166t-112 60t-111.5 -60t-39.5 -166z" />
    <glyph glyph-name="R.sc" horiz-adv-x="649" 
d="M595 78h15v-78h-104q-45 0 -65.5 22t-20.5 73v82q0 35 -21 55.5t-60 20.5h-97v-175h55v-78h-243v78h67v438h-67v78h304q115 0 166 -38t51 -115q0 -62 -39 -102.5t-108 -47.5q61 -6 90 -36.5t29 -72.5v-53q0 -28 11 -39.5t37 -11.5zM331 322q48 0 78.5 27t30.5 71
q0 96 -107 96h-91v-194h89z" />
    <glyph glyph-name="Racute.sc" horiz-adv-x="649" 
d="M479 819l-151 -179h-96l134 179h113zM595 78h15v-78h-104q-45 0 -65.5 22t-20.5 73v82q0 35 -21 55.5t-60 20.5h-97v-175h55v-78h-243v78h67v438h-67v78h304q115 0 166 -38t51 -115q0 -62 -39 -102.5t-108 -47.5q61 -6 90 -36.5t29 -72.5v-53q0 -28 11 -39.5t37 -11.5z
M331 322q48 0 78.5 27t30.5 71q0 96 -107 96h-91v-194h89z" />
    <glyph glyph-name="Rcaron.sc" horiz-adv-x="649" 
d="M369 641h-99l-143 177h90l102 -111l102 111h91zM595 78h15v-78h-104q-45 0 -65.5 22t-20.5 73v82q0 35 -21 55.5t-60 20.5h-97v-175h55v-78h-243v78h67v438h-67v78h304q115 0 166 -38t51 -115q0 -62 -39 -102.5t-108 -47.5q61 -6 90 -36.5t29 -72.5v-53q0 -28 11 -39.5
t37 -11.5zM331 322q48 0 78.5 27t30.5 71q0 96 -107 96h-91v-194h89z" />
    <glyph glyph-name="Rcommaaccent.sc" horiz-adv-x="649" 
d="M595 78h15v-78h-104q-45 0 -65.5 22t-20.5 73v82q0 35 -21 55.5t-60 20.5h-97v-175h55v-78h-243v78h67v438h-67v78h304q115 0 166 -38t51 -115q0 -62 -39 -102.5t-108 -47.5q61 -6 90 -36.5t29 -72.5v-53q0 -28 11 -39.5t37 -11.5zM331 322q48 0 78.5 27t30.5 71
q0 96 -107 96h-91v-194h89z" />
    <glyph glyph-name="S.sc" horiz-adv-x="568" 
d="M311 354q41 -15 62 -24t53.5 -27t49 -35.5t29.5 -45.5t13 -62q0 -82 -55.5 -129t-148.5 -47q-65 0 -111 20.5t-67 56.5l-9 -61h-64v185h87q22 -120 136 -120q42 0 70.5 22.5t28.5 63.5q0 38 -32 61.5t-99 47.5q-41 15 -69 28.5t-57 36t-44 54.5t-15 73q0 75 56.5 116.5
t135.5 41.5q54 0 95 -19t59 -45l7 48h67v-170h-90q-7 49 -38.5 79t-74.5 30q-38 0 -63 -21t-25 -55q0 -35 28.5 -58.5t84.5 -44.5z" />
    <glyph glyph-name="Sacute.sc" horiz-adv-x="561" 
d="M435 819l-151 -179h-96l134 179h113zM311 354q41 -15 62 -24t53.5 -27t49 -35.5t29.5 -45.5t13 -62q0 -82 -55.5 -129t-148.5 -47q-65 0 -111 20.5t-67 56.5l-9 -61h-64v185h87q22 -120 136 -120q42 0 70.5 22.5t28.5 63.5q0 38 -32 61.5t-99 47.5q-41 15 -69 28.5
t-57 36t-44 54.5t-15 73q0 75 56.5 116.5t135.5 41.5q54 0 95 -19t59 -45l7 48h67v-170h-90q-7 49 -38.5 79t-74.5 30q-38 0 -63 -21t-25 -55q0 -35 28.5 -58.5t84.5 -44.5z" />
    <glyph glyph-name="Scircumflex.sc" horiz-adv-x="561" 
d="M298 761l-105 -113h-90l146 179h99l146 -179h-91zM311 354q41 -15 62 -24t53.5 -27t49 -35.5t29.5 -45.5t13 -62q0 -82 -55.5 -129t-148.5 -47q-65 0 -111 20.5t-67 56.5l-9 -61h-64v185h87q22 -120 136 -120q42 0 70.5 22.5t28.5 63.5q0 38 -32 61.5t-99 47.5
q-41 15 -69 28.5t-57 36t-44 54.5t-15 73q0 75 56.5 116.5t135.5 41.5q54 0 95 -19t59 -45l7 48h67v-170h-90q-7 49 -38.5 79t-74.5 30q-38 0 -63 -21t-25 -55q0 -35 28.5 -58.5t84.5 -44.5z" />
    <glyph glyph-name="Scedilla.sc" horiz-adv-x="561" 
d="M518 160q0 -81 -54.5 -127.5t-145.5 -48.5l-47 -54q19 6 42 6q44 0 80.5 -22.5t36.5 -72.5q0 -52 -43 -77.5t-112 -25.5q-20 0 -42.5 5.5t-29.5 11.5v42q28 -8 54 -8q44 0 66 12t22 43q0 22 -15.5 34.5t-41.5 12.5q-22 0 -40 -6.5t-24 -13.5l-7 -7l-28 28l82 95
q-100 12 -135 74l-9 -61h-64v185h87q22 -120 136 -120q42 0 70.5 22.5t28.5 63.5q0 38 -32 61.5t-99 47.5q-41 15 -69 28.5t-57 36t-44 54.5t-15 73q0 75 56.5 116.5t135.5 41.5q54 0 95 -19t59 -45l7 48h67v-170h-90q-7 49 -38.5 79t-74.5 30q-38 0 -63 -21t-25 -55
q0 -35 28.5 -58.5t84.5 -44.5q41 -15 62 -24t53.5 -27t49 -35.5t29.5 -45.5t13 -62z" />
    <glyph glyph-name="Scaron.sc" horiz-adv-x="561" 
d="M339 641h-99l-143 177h90l102 -111l102 111h91zM311 354q41 -15 62 -24t53.5 -27t49 -35.5t29.5 -45.5t13 -62q0 -82 -55.5 -129t-148.5 -47q-65 0 -111 20.5t-67 56.5l-9 -61h-64v185h87q22 -120 136 -120q42 0 70.5 22.5t28.5 63.5q0 38 -32 61.5t-99 47.5
q-41 15 -69 28.5t-57 36t-44 54.5t-15 73q0 75 56.5 116.5t135.5 41.5q54 0 95 -19t59 -45l7 48h67v-170h-90q-7 49 -38.5 79t-74.5 30q-38 0 -63 -21t-25 -55q0 -35 28.5 -58.5t84.5 -44.5z" />
    <glyph glyph-name="Scommaaccent.sc" horiz-adv-x="561" 
d="M311 354q41 -15 62 -24t53.5 -27t49 -35.5t29.5 -45.5t13 -62q0 -82 -55.5 -129t-148.5 -47q-65 0 -111 20.5t-67 56.5l-9 -61h-64v185h87q22 -120 136 -120q42 0 70.5 22.5t28.5 63.5q0 38 -32 61.5t-99 47.5q-41 15 -69 28.5t-57 36t-44 54.5t-15 73q0 75 56.5 116.5
t135.5 41.5q54 0 95 -19t59 -45l7 48h67v-170h-90q-7 49 -38.5 79t-74.5 30q-38 0 -63 -21t-25 -55q0 -35 28.5 -58.5t84.5 -44.5zM294 -68q28 0 45.5 -18.5t17.5 -50.5q0 -44 -26.5 -85t-72.5 -72l-22 20q46 46 58 94q-28 1 -44.5 17.5t-16.5 38.5q0 23 17.5 39.5
t43.5 16.5z" />
    <glyph glyph-name="uni1E60.sc" horiz-adv-x="568" 
d="M272 659q-31 0 -51.5 18t-20.5 45t20.5 45.5t51.5 18.5t51.5 -18.5t20.5 -45.5t-20.5 -45t-51.5 -18zM311 354q41 -15 62 -24t53.5 -27t49 -35.5t29.5 -45.5t13 -62q0 -82 -55.5 -129t-148.5 -47q-65 0 -111 20.5t-67 56.5l-9 -61h-64v185h87q22 -120 136 -120
q42 0 70.5 22.5t28.5 63.5q0 38 -32 61.5t-99 47.5q-41 15 -69 28.5t-57 36t-44 54.5t-15 73q0 75 56.5 116.5t135.5 41.5q54 0 95 -19t59 -45l7 48h67v-170h-90q-7 49 -38.5 79t-74.5 30q-38 0 -63 -21t-25 -55q0 -35 28.5 -58.5t84.5 -44.5z" />
    <glyph glyph-name="T.sc" horiz-adv-x="610" 
d="M437 0h-264v78h72v450h-84q-26 0 -38 -20.5t-12 -76.5v-33h-68v196h524v-196h-68v33q1 56 -11.5 76.5t-38.5 20.5h-83v-450h71v-78z" />
    <glyph glyph-name="Tcaron.sc" horiz-adv-x="610" 
d="M355 631h-99l-143 177h90l102 -111l102 111h91zM43 594h524v-196h-68v33q1 56 -11.5 76.5t-38.5 20.5h-83v-450h71v-78h-264v78h72v450h-84q-26 0 -38 -20.5t-12 -76.5v-33h-68v196z" />
    <glyph glyph-name="uni021A.sc" horiz-adv-x="610" 
d="M43 594h524v-196h-68v33q1 56 -11.5 76.5t-38.5 20.5h-83v-450h71v-78h-264v78h72v450h-84q-26 0 -38 -20.5t-12 -76.5v-33h-68v196zM306 -68q28 0 45.5 -18.5t17.5 -50.5q0 -44 -26.5 -85t-72.5 -72l-22 20q46 46 58 94q-28 1 -44.5 17.5t-16.5 38.5q0 23 17.5 39.5
t43.5 16.5z" />
    <glyph glyph-name="Tbar.sc" horiz-adv-x="587" 
d="M34 594h520v-196h-68l-1 33q1 55 -11 75.5t-38 20.5h-82v-204h73v-75h-73v-169h71v-79h-263v79h71v169h-72v75h72v204h-81q-26 0 -38 -20.5t-12 -75.5v-33h-68v196z" />
    <glyph glyph-name="U.sc" horiz-adv-x="656" 
d="M555 192q0 -96 -56.5 -152t-163.5 -56q-232 0 -232 208v324h-67v78h242v-78h-53v-330q0 -50 30 -82t84 -32t83.5 32t29.5 82v330h-51v78h222v-78h-68v-324z" />
    <glyph glyph-name="Ugrave.sc" horiz-adv-x="656" 
d="M315 640l-151 179h113l135 -179h-97zM555 192q0 -96 -56.5 -152t-163.5 -56q-232 0 -232 208v324h-67v78h242v-78h-53v-330q0 -50 30 -82t84 -32t83.5 32t29.5 82v330h-51v78h222v-78h-68v-324z" />
    <glyph glyph-name="Uacute.sc" horiz-adv-x="656" 
d="M230 640l134 179h113l-151 -179h-96zM555 192q0 -96 -56.5 -152t-163.5 -56q-232 0 -232 208v324h-67v78h242v-78h-53v-330q0 -50 30 -82t84 -32t83.5 32t29.5 82v330h-51v78h222v-78h-68v-324z" />
    <glyph glyph-name="Ucircumflex.sc" horiz-adv-x="656" 
d="M341 761l-105 -113h-90l146 179h99l146 -179h-91zM401 594h222v-78h-68v-324q0 -96 -56.5 -152t-163.5 -56q-232 0 -232 208v324h-67v78h242v-78h-53v-330q0 -50 30 -82t84 -32t83.5 32t29.5 82v330h-51v78z" />
    <glyph glyph-name="Udieresis.sc" horiz-adv-x="656" 
d="M228 685q-29 0 -49.5 19t-20.5 45t20.5 45.5t49.5 19.5q30 0 50.5 -19t20.5 -46t-20.5 -45.5t-50.5 -18.5zM442 685q-30 0 -50.5 18.5t-20.5 45.5t20.5 46t50.5 19t50 -19t20 -46t-20 -45.5t-50 -18.5zM555 192q0 -96 -56.5 -152t-163.5 -56q-232 0 -232 208v324h-67v78
h242v-78h-53v-330q0 -50 30 -82t84 -32t83.5 32t29.5 82v330h-51v78h222v-78h-68v-324z" />
    <glyph glyph-name="Utilde.sc" horiz-adv-x="656" 
d="M245 806q41 0 94 -19.5t75 -19.5q52 0 52 44h60q0 -57 -29 -92t-80 -35q-41 0 -94.5 20.5t-74.5 20.5q-55 0 -55 -46h-59q0 57 29 92t82 35zM555 192q0 -96 -56.5 -152t-163.5 -56q-232 0 -232 208v324h-67v78h242v-78h-53v-330q0 -50 30 -82t84 -32t83.5 32t29.5 82v330
h-51v78h222v-78h-68v-324z" />
    <glyph glyph-name="Umacron.sc" horiz-adv-x="656" 
d="M146 788h383v-88h-383v88zM555 192q0 -96 -56.5 -152t-163.5 -56q-232 0 -232 208v324h-67v78h242v-78h-53v-330q0 -50 30 -82t84 -32t83.5 32t29.5 82v330h-51v78h222v-78h-68v-324z" />
    <glyph glyph-name="Ubreve.sc" horiz-adv-x="656" 
d="M342 696q49 0 80.5 26.5t32.5 79.5h62q0 -76 -45.5 -122.5t-129.5 -46.5t-128.5 46.5t-44.5 122.5h61q1 -53 32 -79.5t80 -26.5zM555 192q0 -96 -56.5 -152t-163.5 -56q-232 0 -232 208v324h-67v78h242v-78h-53v-330q0 -50 30 -82t84 -32t83.5 32t29.5 82v330h-51v78h222
v-78h-68v-324z" />
    <glyph glyph-name="Uring.sc" horiz-adv-x="656" 
d="M332 897q58 0 97.5 -38.5t39.5 -97.5q0 -58 -40 -97t-97 -39t-97 39t-40 97q0 59 39.5 97.5t97.5 38.5zM332 832q-31 0 -50.5 -20t-19.5 -51t19.5 -51.5t50.5 -20.5q32 0 51.5 20.5t19.5 51.5t-19.5 51t-51.5 20zM555 192q0 -96 -56.5 -152t-163.5 -56q-232 0 -232 208
v324h-67v78h242v-78h-53v-330q0 -50 30 -82t84 -32t83.5 32t29.5 82v330h-51v78h222v-78h-68v-324z" />
    <glyph glyph-name="Uhungarumlaut.sc" horiz-adv-x="656" 
d="M169 645l134 179h113l-151 -179h-96zM339 645l145 179h113l-163 -179h-95zM555 192q0 -96 -56.5 -152t-163.5 -56q-232 0 -232 208v324h-67v78h242v-78h-53v-330q0 -50 30 -82t84 -32t83.5 32t29.5 82v330h-51v78h222v-78h-68v-324z" />
    <glyph glyph-name="Uogonek.sc" horiz-adv-x="656" 
d="M401 594h222v-78h-68v-324q0 -74 -35 -125.5t-101 -71.5q-50 -36 -69.5 -60t-19.5 -51q0 -18 13 -31.5t34 -13.5q33 0 53 16v-56q-22 -17 -86 -17q-54 0 -84 25t-30 61q0 62 80 117q-207 11 -207 207v324h-67v78h242v-78h-53v-330q0 -50 30 -82t84 -32t83.5 32t29.5 82
v330h-51v78z" />
    <glyph glyph-name="uni01D3.sc" horiz-adv-x="656" 
d="M392 641h-99l-143 177h90l102 -111l102 111h91zM401 594h222v-78h-68v-324q0 -96 -56.5 -152t-163.5 -56q-232 0 -232 208v324h-67v78h242v-78h-53v-330q0 -50 30 -82t84 -32t83.5 32t29.5 82v330h-51v78z" />
    <glyph glyph-name="V.sc" horiz-adv-x="639" 
d="M385 594h235v-78h-69l-161 -519h-140l-164 519h-66v78h254v-78h-61l119 -414l115 414h-62v78z" />
    <glyph glyph-name="W.sc" horiz-adv-x="997" 
d="M740 594h237v-78h-69l-158 -519h-135l-118 423l-119 -423h-133l-159 519h-66v78h256v-78h-63l116 -412l117 412h-65v78h256v-78h-62l117 -413l112 413h-64v78z" />
    <glyph glyph-name="Wcircumflex.sc" horiz-adv-x="997" 
d="M507 761l-105 -113h-90l146 179h99l146 -179h-91zM740 594h237v-78h-69l-158 -519h-135l-118 423l-119 -423h-133l-159 519h-66v78h256v-78h-63l116 -412l117 412h-65v78h256v-78h-62l117 -413l112 413h-64v78z" />
    <glyph glyph-name="Wgrave.sc" horiz-adv-x="997" 
d="M579 640h-97l-151 179h113zM740 594h237v-78h-69l-158 -519h-135l-118 423l-119 -423h-133l-159 519h-66v78h256v-78h-63l116 -412l117 412h-65v78h256v-78h-62l117 -413l112 413h-64v78z" />
    <glyph glyph-name="Wacute.sc" horiz-adv-x="997" 
d="M644 819l-151 -179h-96l134 179h113zM740 594h237v-78h-69l-158 -519h-135l-118 423l-119 -423h-133l-159 519h-66v78h256v-78h-63l116 -412l117 412h-65v78h256v-78h-62l117 -413l112 413h-64v78z" />
    <glyph glyph-name="Wdieresis.sc" horiz-adv-x="997" 
d="M394 685q-29 0 -49.5 19t-20.5 45t20.5 45.5t49.5 19.5q30 0 50.5 -19t20.5 -46t-20.5 -45.5t-50.5 -18.5zM608 685q-30 0 -50.5 18.5t-20.5 45.5t20.5 46t50.5 19t50 -19t20 -46t-20 -45.5t-50 -18.5zM740 594h237v-78h-69l-158 -519h-135l-118 423l-119 -423h-133
l-159 519h-66v78h256v-78h-63l116 -412l117 412h-65v78h256v-78h-62l117 -413l112 413h-64v78z" />
    <glyph glyph-name="X.sc" horiz-adv-x="638" 
d="M558 78h58v-78h-251v78h54l-122 168l-108 -168h56v-78h-225v78h63l151 233l-151 205h-59v78h252v-78h-54l117 -165l109 165h-56v78h223v-78h-63l-150 -218z" />
    <glyph glyph-name="Y.sc" horiz-adv-x="628" 
d="M381 594h228v-78h-63l-170 -295v-143h70v-78h-268v78h71v147l-165 291h-64v78h253v-78h-60l118 -212l112 212h-62v78z" />
    <glyph glyph-name="Yacute.sc" horiz-adv-x="628" 
d="M459 819l-151 -179h-96l134 179h113zM381 594h228v-78h-63l-170 -295v-143h70v-78h-268v78h71v147l-165 291h-64v78h253v-78h-60l118 -212l112 212h-62v78z" />
    <glyph glyph-name="Ycircumflex.sc" horiz-adv-x="628" 
d="M323 761l-105 -113h-90l146 179h99l146 -179h-91zM381 594h228v-78h-63l-170 -295v-143h70v-78h-268v78h71v147l-165 291h-64v78h253v-78h-60l118 -212l112 212h-62v78z" />
    <glyph glyph-name="Ydieresis.sc" horiz-adv-x="628" 
d="M210 685q-29 0 -49.5 19t-20.5 45t20.5 45.5t49.5 19.5q30 0 50.5 -19t20.5 -46t-20.5 -45.5t-50.5 -18.5zM424 685q-30 0 -50.5 18.5t-20.5 45.5t20.5 46t50.5 19t50 -19t20 -46t-20 -45.5t-50 -18.5zM381 594h228v-78h-63l-170 -295v-143h70v-78h-268v78h71v147
l-165 291h-64v78h253v-78h-60l118 -212l112 212h-62v78z" />
    <glyph glyph-name="uni0232.sc" horiz-adv-x="628" 
d="M511 788v-88h-383v88h383zM381 594h228v-78h-63l-170 -295v-143h70v-78h-268v78h71v147l-165 291h-64v78h253v-78h-60l118 -212l112 212h-62v78z" />
    <glyph glyph-name="Ygrave.sc" horiz-adv-x="628" 
d="M394 640h-97l-151 179h113zM381 594h228v-78h-63l-170 -295v-143h70v-78h-268v78h71v147l-165 291h-64v78h253v-78h-60l118 -212l112 212h-62v78z" />
    <glyph glyph-name="uni1EF8.sc" horiz-adv-x="628" 
d="M234 725q-55 0 -55 -46h-59q0 57 29 92t82 35q41 0 94 -19.5t75 -19.5q52 0 52 44h60q0 -57 -29 -92t-80 -35q-41 0 -94.5 20.5t-74.5 20.5zM381 594h228v-78h-63l-170 -295v-143h70v-78h-268v78h71v147l-165 291h-64v78h253v-78h-60l118 -212l112 212h-62v78z" />
    <glyph glyph-name="Z.sc" horiz-adv-x="580" 
d="M458 212h69v-212h-472v62l319 458h-173q-36 0 -49.5 -18t-13.5 -56v-41h-69v189h446v-61l-318 -460h194q37 0 52 21t15 70v48z" />
    <glyph glyph-name="Zacute.sc" horiz-adv-x="580" 
d="M437 819l-151 -179h-96l134 179h113zM458 212h69v-212h-472v62l319 458h-173q-36 0 -49.5 -18t-13.5 -56v-41h-69v189h446v-61l-318 -460h194q37 0 52 21t15 70v48z" />
    <glyph glyph-name="Zdotaccent.sc" horiz-adv-x="580" 
d="M295 686q-32 0 -53.5 18.5t-21.5 46.5q0 29 21.5 48t53.5 19q31 0 52.5 -19t21.5 -48q0 -28 -21 -46.5t-53 -18.5zM458 212h69v-212h-472v62l319 458h-173q-36 0 -49.5 -18t-13.5 -56v-41h-69v189h446v-61l-318 -460h194q37 0 52 21t15 70v48z" />
    <glyph glyph-name="Zcaron.sc" horiz-adv-x="580" 
d="M352 641h-99l-143 177h90l102 -111l102 111h91zM458 212h69v-212h-472v62l319 458h-173q-36 0 -49.5 -18t-13.5 -56v-41h-69v189h446v-61l-318 -460h194q37 0 52 21t15 70v48z" />
    <glyph glyph-name="Thorn.sc" horiz-adv-x="585" 
d="M340 455q216 0 216 -151q0 -160 -222 -160h-102v-65h67v-79h-255v79h67v436h-67v79h255v-79h-67v-60h108zM303 206q54 0 85 23.5t31 70.5q0 92 -116 92h-71v-186h71z" />
    <glyph glyph-name="at.sc" horiz-adv-x="853" 
d="M631 406q-49 -183 -55 -207q-9 -33 2.5 -57t42.5 -24q42 0 76.5 40.5t34.5 116.5q0 117 -77.5 186t-207.5 69q-134 0 -229.5 -87.5t-95.5 -223.5q0 -118 85.5 -195t214.5 -77q104 0 173 44l38 -47q-91 -55 -219 -55q-156 0 -259 92.5t-103 237.5q0 163 117.5 266
t284.5 103q155 0 251 -86.5t96 -226.5q0 -101 -55.5 -156t-143.5 -55q-87 0 -119 64q-20 -27 -59 -44.5t-84 -17.5q-51 0 -81.5 33.5t-30.5 91.5q0 85 55.5 156.5t141.5 71.5q80 0 101 -51l10 38h95zM477 185l30 114q3 25 -12 41.5t-43 16.5q-51 0 -83.5 -50.5t-32.5 -105.5
q0 -33 14.5 -52.5t40.5 -19.5q28 0 51 15.5t35 40.5z" />
    <glyph glyph-name="ampersand.sc" horiz-adv-x="699" 
d="M658 217h-63q-9 -57 -40 -104l17 -18q14 -15 43 -15h42v-80h-111q-49 0 -75 27l-20 22q-66 -64 -182 -64q-104 0 -165.5 44.5t-61.5 121.5q0 53 43 98.5t117 72.5l-27 29q-48 63 -48 114q0 65 56.5 105t149.5 40q81 0 131.5 -39t50.5 -101q0 -46 -35.5 -81.5
t-116.5 -71.5l143 -152q20 40 20 93v35h132v-76zM337 537q-32 -1 -52 -21t-20 -51q0 -36 39 -85l13 -14q40 19 65.5 45.5t25.5 52.5q0 34 -19.5 54t-51.5 19zM285 60q75 -1 118 42l-153 167q-36 -17 -58 -47t-22 -62q0 -46 31 -73.5t84 -26.5z" />
    <glyph glyph-name="registered.alt" horiz-adv-x="517" 
d="M259 760q85 0 142.5 -54t57.5 -133q0 -80 -57.5 -134t-142.5 -54q-86 0 -143.5 54t-57.5 134t58 133.5t143 53.5zM259 419q67 0 114 44.5t47 109.5t-47 109t-114 44q-68 0 -115.5 -44t-47.5 -109t47.5 -109.5t115.5 -44.5zM250 482h-90v29h21v123h-21v30h109q76 0 76 -46
q0 -44 -58 -44v-4q48 0 48 -29v-16q0 -14 15 -14h4v-29h-42q-31 0 -31 29v28q0 17 -18 17h-30v-45h17v-29zM233 583h26q29 0 29 26q0 25 -29 25h-26v-51z" />
    <glyph glyph-name="hyphen.uc" horiz-adv-x="488" 
d="M40 419h408v-88h-408v88z" />
    <glyph glyph-name="endash.uc" horiz-adv-x="615" 
d="M40 419h534v-88h-534v88z" />
    <glyph glyph-name="emdash.uc" horiz-adv-x="938" 
d="M40 419h858v-88h-858v88z" />
    <glyph glyph-name="parenleft.uc" horiz-adv-x="393" 
d="M347 767q-66 -58 -121.5 -167.5t-55.5 -238.5t55.5 -240t121.5 -167l-78 -62q-99 80 -160.5 201.5t-61.5 267.5q0 145 61.5 265.5t160.5 201.5z" />
    <glyph glyph-name="parenright.uc" horiz-adv-x="393" 
d="M124 828q99 -81 161 -201.5t62 -265.5q0 -146 -62 -267.5t-161 -201.5l-77 62q66 56 121.5 167t55.5 240t-55.5 238.5t-121.5 167.5z" />
    <glyph glyph-name="bracketleft.uc" horiz-adv-x="290" 
d="M46 -96v896h198v-85h-86v-726h86v-85h-198z" />
    <glyph glyph-name="bracketright.uc" horiz-adv-x="290" 
d="M46 -11h86v726h-86v85h198v-896h-198v85z" />
    <glyph glyph-name="braceleft.uc" horiz-adv-x="386" 
d="M157 724q0 54 25.5 76.5t84.5 22.5q45 0 74 -6v-85q-13 3 -29 3q-27 0 -36 -11.5t-9 -34.5v-214q0 -48 -29.5 -82t-89.5 -36q60 -2 89.5 -36t29.5 -81v-210q0 -23 9 -34.5t36 -11.5q16 0 29 3v-85q-29 -6 -74 -6q-59 0 -84.5 23t-25.5 76v239q0 81 -67 81h-44v84h44
q32 0 49.5 21.5t17.5 60.5v243z" />
    <glyph glyph-name="braceright.uc" horiz-adv-x="386" 
d="M229 724v-243q0 -39 17.5 -60.5t50.5 -21.5h44v-84h-44q-68 0 -68 -81v-239q0 -53 -25.5 -76t-84.5 -23q-46 0 -73 6v85q12 -3 28 -3q27 0 36 11.5t9 34.5v210q0 47 30 81t90 36q-60 2 -90 36t-30 82v214q0 23 -9 34.5t-36 11.5q-16 0 -28 -3v85q27 6 73 6
q59 0 84.5 -22.5t25.5 -76.5z" />
    <glyph glyph-name="guilsinglleft.uc" horiz-adv-x="322" 
d="M183 161l-153 214l153 214h109l-153 -214l153 -214h-109z" />
    <glyph glyph-name="guilsinglright.uc" horiz-adv-x="322" 
d="M183 375l-153 214h109l153 -214l-153 -214h-109z" />
    <glyph glyph-name="guillemotleft.uc" horiz-adv-x="550" 
d="M183 161l-153 214l153 214h109l-153 -214l153 -214h-109zM411 161l-153 214l153 214h109l-153 -214l153 -214h-109z" />
    <glyph glyph-name="guillemotright.uc" horiz-adv-x="550" 
d="M183 375l-153 214h109l153 -214l-153 -214h-109zM411 375l-153 214h109l153 -214l-153 -214h-109z" />
    <glyph glyph-name="slash.uc" horiz-adv-x="521" 
d="M-4 -89l390 889h110l-390 -889h-110z" />
    <glyph glyph-name="backslash.uc" horiz-adv-x="521" 
d="M25 800h110l390 -889h-110z" />
    <glyph glyph-name="bar.uc" horiz-adv-x="273" 
d="M80 -50v850h113v-850h-113z" />
    <glyph glyph-name="brokenbar.uc" horiz-adv-x="273" 
d="M80 437v363h113v-363h-113zM80 -43v357h113v-357h-113z" />
    <glyph glyph-name="at.uc" horiz-adv-x="1036" 
d="M767 598l-73 -294q-11 -44 6.5 -75.5t58.5 -31.5q60 0 104 58t44 162q0 161 -102 257t-266 96q-109 0 -202 -52t-150 -149.5t-57 -219.5q0 -160 108 -266.5t271 -106.5q127 0 212 54l38 -53q-108 -65 -257 -65q-192 0 -318 124t-126 313q0 142 67 254t177.5 171.5
t243.5 59.5q192 0 312.5 -115.5t120.5 -301.5q0 -132 -66.5 -206.5t-172.5 -74.5q-56 0 -91 25.5t-50 63.5q-26 -37 -76 -62t-106 -25q-81 0 -121 70t-16 177q23 106 92.5 168t154.5 62q51 0 85 -21t45 -54l14 58h96zM596 298l38 151q8 42 -15.5 69.5t-67.5 27.5
q-54 0 -99 -44t-62 -117q-18 -76 3.5 -126.5t73.5 -50.5q42 0 77.5 25t51.5 65z" />
    <glyph glyph-name="exclamdown.uc" horiz-adv-x="205" 
d="M96 770q33 0 54.5 -19.5t21.5 -48.5t-21.5 -48.5t-54.5 -19.5t-54.5 19.5t-21.5 48.5t21.5 48.5t54.5 19.5zM154 0h-116l5 547h106z" />
    <glyph glyph-name="questiondown.uc" horiz-adv-x="532" 
d="M270 770q33 0 54.5 -19.5t21.5 -48.5t-21.5 -48.5t-54.5 -19.5t-55 19.5t-22 48.5t22 48.5t55 19.5zM498 210q0 -102 -59.5 -166t-176.5 -64q-116 0 -172.5 56.5t-56.5 139.5q0 54 20 93.5t48 63.5t56 48.5t48 63t20 90.5l-1 19h104q1 -16 1 -29q0 -55 -18 -96.5t-43 -67
t-50.5 -49t-43.5 -56t-18 -74.5q0 -16 4.5 -34t15.5 -39.5t35 -35.5t58 -14q64 0 91.5 45.5t27.5 105.5q0 15 -1 17h110q1 -9 1 -17z" />
    <glyph glyph-name="uni27D1.uc" horiz-adv-x="149" 
d="M75 621q-32 0 -53.5 18.5t-21.5 46.5q0 29 21.5 48t53.5 19q31 0 52.5 -19t21.5 -48q0 -28 -21 -46.5t-53 -18.5z" />
    <glyph glyph-name="acute.uc" horiz-adv-x="247" 
d="M0 575l134 179h113l-151 -179h-96z" />
    <glyph glyph-name="grave.uc" horiz-adv-x="247" 
d="M151 575l-151 179h113l135 -179h-97z" />
    <glyph glyph-name="hungarumlaut.uc" horiz-adv-x="428" 
d="M0 580l134 179h113l-151 -179h-96zM170 580l145 179h113l-163 -179h-95z" />
    <glyph glyph-name="circumflex.uc" horiz-adv-x="391" 
d="M391 583h-91l-105 113l-105 -113h-90l146 179h99z" />
    <glyph glyph-name="caron.uc" horiz-adv-x="385" 
d="M294 753h91l-143 -177h-99l-143 177h90l102 -111z" />
    <glyph glyph-name="breve.uc" horiz-adv-x="348" 
d="M173 631q49 0 80.5 26.5t32.5 79.5h62q0 -76 -45.5 -122.5t-129.5 -46.5t-128.5 46.5t-44.5 122.5h61q1 -53 32 -79.5t80 -26.5z" />
    <glyph glyph-name="tilde.uc" horiz-adv-x="386" 
d="M108 763q41 0 94 -19.5t75 -19.5q52 0 52 44h60q0 -57 -29 -92t-80 -35q-41 0 -94.5 20.5t-74.5 20.5q-55 0 -55 -46h-59q0 57 29 92t82 35z" />
    <glyph glyph-name="macron.uc" horiz-adv-x="383" 
d="M0 723h383v-88h-383v88z" />
    <glyph glyph-name="dieresis.uc" horiz-adv-x="314" 
d="M50 620q-29 0 -49.5 19t-20.5 45t20.5 45.5t49.5 19.5q30 0 50.5 -19t20.5 -46t-20.5 -45.5t-50.5 -18.5zM264 620q-30 0 -50.5 18.5t-20.5 45.5t20.5 46t50.5 19t50 -19t20 -46t-20 -45.5t-50 -18.5z" />
    <glyph glyph-name="dotaccent.uc" horiz-adv-x="149" 
d="M75 621q-32 0 -53.5 18.5t-21.5 46.5q0 29 21.5 48t53.5 19q31 0 52.5 -19t21.5 -48q0 -28 -21 -46.5t-53 -18.5z" />
    <glyph glyph-name="ring.uc" horiz-adv-x="270" 
d="M135 832q58 0 97.5 -38.5t39.5 -97.5q0 -58 -40 -97t-97 -39t-97 39t-40 97q0 59 39.5 97.5t97.5 38.5zM135 767q-31 0 -50.5 -20t-19.5 -51t19.5 -51.5t50.5 -20.5q32 0 51.5 20.5t19.5 51.5t-19.5 51t-51.5 20z" />
    <glyph glyph-name="cedilla.uc" horiz-adv-x="262" 
d="M146 -64q44 0 80 -22.5t36 -72.5q0 -53 -42.5 -78t-111.5 -25q-50 0 -72 17v42q28 -8 53 -8q45 0 67 12t22 43q0 22 -15.5 34.5t-42.5 12.5q-22 0 -39.5 -6.5t-24.5 -13.5l-6 -7h-50l51 140h50l-33 -90q35 22 78 22z" />
    <glyph glyph-name="ogonek.uc" horiz-adv-x="200" 
d="M0 -126q0 41 28.5 72t77.5 61h91q-55 -39 -76 -64t-21 -53q0 -18 13 -31.5t34 -13.5q33 0 53 16v-56q-22 -17 -86 -17q-54 0 -84 25t-30 61z" />
    <glyph glyph-name="uni0326.uc" horiz-adv-x="0" 
d="M-62 -58q28 0 45.5 -18.5t17.5 -50.5q0 -44 -26.5 -85t-72.5 -72l-22 20q46 46 58 94q-28 1 -44.5 17.5t-16.5 38.5q0 23 17.5 39.5t43.5 16.5z" />
    <glyph glyph-name="space.lintab" 
 />
    <glyph glyph-name="zero.lintab" 
d="M347 770q150 0 241.5 -112t91.5 -282t-92 -283t-241 -113q-150 0 -241.5 113t-91.5 283q0 169 91.5 281.5t241.5 112.5zM347 83q86 0 144.5 80t58.5 213q0 134 -58.5 212.5t-144.5 78.5t-144.5 -79t-58.5 -212t58.5 -213t144.5 -80z" />
    <glyph glyph-name="one.lintab" 
d="M422 85h198v-85h-532v85h212v526q-74 -26 -177 -28v90q174 18 201 77h99l-1 -3v-662z" />
    <glyph glyph-name="two.lintab" 
d="M61 0v50q0 66 43.5 121t105 95t123 78t105 87t43.5 105q0 68 -39 102.5t-107 34.5q-67 0 -109 -41t-42 -121l1 -19h-110q-2 11 -2 19q0 116 72.5 187.5t192.5 71.5q124 0 193.5 -59t69.5 -166q0 -52 -22 -98.5t-57.5 -80t-78.5 -63.5t-86.5 -55.5t-80 -50.5t-60.5 -53.5
t-27 -58.5h339v100h83v-185h-550z" />
    <glyph glyph-name="three.lintab" 
d="M441 383q84 -7 134.5 -53t50.5 -131q0 -103 -76.5 -161t-208.5 -58q-129 0 -201 66t-72 185l1 28h120q-1 -17 -1 -25q0 -74 39.5 -116t112.5 -42q72 0 113.5 37.5t41.5 99.5q0 63 -41.5 97t-116.5 34h-56v70h58q72 0 110 34.5t38 92.5q0 61 -38 97.5t-104 36.5
q-70 1 -110.5 -41t-40.5 -111l1 -15h-117q-1 10 -1 15q0 112 74 180t203 68q119 0 188.5 -56.5t69.5 -151.5q0 -79 -48.5 -125t-122.5 -55z" />
    <glyph glyph-name="four.lintab" 
d="M641 217h-126v-132h98v-85h-334v85h118v132h-367v73l369 460h116v-460h126v-73zM120 290h277v352z" />
    <glyph glyph-name="five.lintab" 
d="M375 506q120 0 183.5 -68t63.5 -186q0 -117 -78 -194.5t-205 -77.5q-121 0 -193.5 73t-72.5 181v9h111v-9q0 -73 41 -116t110 -43q71 0 115.5 50t44.5 130q0 77 -41.5 127t-111.5 50q-44 0 -81.5 -19.5t-51.5 -36t-19 -26.5l-90 16l40 384h436v-94h-356l-25 -224
q82 74 180 74z" />
    <glyph glyph-name="six.lintab" 
d="M647 230q0 -106 -74 -178t-208 -72q-145 0 -227.5 107t-82.5 279q0 187 82 295.5t229 108.5q103 0 170.5 -54t81.5 -141h-119q-36 100 -133 100q-80 0 -130.5 -80t-50.5 -214q0 -41 3 -61q21 58 78.5 94t133.5 36q103 0 175 -62t72 -158zM371 385q-73 0 -122 -44
t-49 -111q0 -60 50 -107.5t116 -47.5q73 0 117 44t44 114q0 67 -45.5 109.5t-110.5 42.5z" />
    <glyph glyph-name="seven.lintab" 
d="M74 750h555v-86q-135 -131 -215 -305.5t-80 -358.5h-135q0 170 99.5 360.5t225.5 303.5h-362v-114h-88v200z" />
    <glyph glyph-name="eight.lintab" 
d="M493 400q73 -25 113 -74.5t40 -116.5q0 -99 -79 -164t-220 -65t-220 65t-79 164q0 67 40 116.5t113 73.5q-113 50 -113 167q0 86 69.5 145t189.5 59q121 0 189.5 -58.5t68.5 -145.5q0 -117 -112 -166zM347 688q-65 0 -106 -35.5t-41 -89.5q0 -63 39 -98t108 -35t108 35
t39 98q0 54 -41 89.5t-106 35.5zM347 70q76 0 124.5 41t48.5 102q0 66 -47.5 105.5t-125.5 39.5t-125.5 -39.5t-47.5 -105.5q0 -61 48.5 -102t124.5 -41z" />
    <glyph glyph-name="nine.lintab" 
d="M53 522q0 106 75.5 177t208.5 71q145 0 227.5 -104.5t82.5 -273.5q0 -194 -82 -303t-229 -109q-106 0 -175.5 52t-80.5 138l119 3q29 -98 137 -98q178 0 181 326q0 12 4 23t3 15q-22 -65 -82 -103t-140 -38q-103 0 -176 64t-73 160zM331 363q72 0 121.5 45t49.5 112
q0 62 -48 108.5t-118 46.5q-73 0 -118 -43t-45 -112q0 -68 46.5 -112.5t111.5 -44.5z" />
    <glyph glyph-name="parenleft.lintab" 
d="M524 767q-44 -29 -90 -83.5t-85 -143.5t-39 -179q0 -70 22 -138.5t56 -120.5t69 -89.5t67 -58.5l-76 -62q-108 74 -184.5 198t-76.5 271q0 146 76.5 269.5t184.5 197.5z" />
    <glyph glyph-name="parenright.lintab" 
d="M224 828q107 -74 184 -197.5t77 -269.5q0 -147 -76.5 -271t-184.5 -198l-76 62q44 29 90 83t84.5 143.5t38.5 180.5q0 69 -22 137.5t-56 120.5t-69 89.5t-66 58.5z" />
    <glyph glyph-name="bracketleft.lintab" 
d="M201 -96v896h333v-85h-220v-726h220v-85h-333z" />
    <glyph glyph-name="bracketright.lintab" 
d="M152 -11h220v726h-220v85h333v-896h-333v85z" />
    <glyph glyph-name="braceleft.lintab" 
d="M276 724q0 54 25.5 76.5t84.5 22.5q46 0 73 -6v-85q-12 3 -28 3q-27 0 -36 -11.5t-9 -34.5v-214q0 -48 -30 -82t-90 -36q60 -2 90 -36t30 -81v-210q0 -23 9 -34.5t36 -11.5q16 0 28 3v-85q-27 -6 -73 -6q-59 0 -84.5 23t-25.5 76v239q0 81 -68 81h-44v84h44
q33 0 50.5 21.5t17.5 60.5v243z" />
    <glyph glyph-name="braceright.lintab" 
d="M395 724v-243q0 -39 17.5 -60.5t50.5 -21.5h43v-84h-43q-68 0 -68 -81v-239q0 -53 -25.5 -76t-84.5 -23q-46 0 -73 6v85q12 -3 28 -3q27 0 36 11.5t9 34.5v210q0 47 29.5 81t89.5 36q-60 2 -89.5 36t-29.5 82v214q0 23 -9 34.5t-36 11.5q-16 0 -28 -3v85q27 6 73 6
q59 0 84.5 -22.5t25.5 -76.5z" />
    <glyph glyph-name="numbersign.lintab" 
d="M649 473h-112l-38 -196h109v-81h-125l-38 -196h-91l38 196h-162l-38 -196h-90l38 196h-97v81h113l38 196h-110v81h126l38 196h90l-38 -196h162l38 196h91l-38 -196h96v-81zM408 277l38 196h-162l-38 -196h162z" />
    <glyph glyph-name="percent.lintab" 
d="M197 770q70 0 114.5 -52t44.5 -132q0 -81 -44.5 -133t-114.5 -52t-114.5 52t-44.5 133q0 80 44.5 132t114.5 52zM144 0l471 750h-58l-472 -750h59zM106 586q0 -60 26 -96.5t65 -36.5t64.5 36.5t25.5 96.5q0 59 -25.5 95.5t-64.5 36.5t-65 -36.5t-26 -95.5zM503 349
q70 0 114.5 -52t44.5 -132q0 -81 -44.5 -133t-114.5 -52t-114.5 52t-44.5 133q0 80 44.5 132t114.5 52zM503 32q40 0 65.5 36.5t25.5 96.5q0 59 -25.5 95.5t-65.5 36.5q-39 0 -65 -36.5t-26 -95.5q0 -60 26 -96.5t65 -36.5z" />
    <glyph glyph-name="period.lintab" 
d="M347 -20q-33 0 -54.5 19.5t-21.5 48.5t21.5 48.5t54.5 19.5t54.5 -19.5t21.5 -48.5t-21.5 -48.5t-54.5 -19.5z" />
    <glyph glyph-name="comma.lintab" 
d="M347 116q34 0 55 -22t21 -62q0 -51 -32 -101t-86 -85l-29 24q55 53 69 109q-35 2 -54.5 21.5t-19.5 47.5q0 29 21.5 48.5t54.5 19.5z" />
    <glyph glyph-name="colon.lintab" 
d="M347 334q-33 0 -54.5 19.5t-21.5 48.5t21.5 48.5t54.5 19.5t54.5 -19.5t21.5 -48.5t-21.5 -48.5t-54.5 -19.5zM347 -20q-33 0 -54.5 19.5t-21.5 48.5t21.5 48.5t54.5 19.5t54.5 -19.5t21.5 -48.5t-21.5 -48.5t-54.5 -19.5z" />
    <glyph glyph-name="semicolon.lintab" 
d="M346 470q33 0 54.5 -19.5t21.5 -48.5t-21.5 -48.5t-54.5 -19.5t-54.5 19.5t-21.5 48.5t21.5 48.5t54.5 19.5zM306 116q34 0 55 -22t21 -62q0 -51 -32 -101t-86 -85l-28 24q54 51 68 109q-34 3 -53.5 22.5t-19.5 46.5q0 29 21 48.5t54 19.5z" />
    <glyph glyph-name="dollar.lintab" 
d="M613 198q0 -99 -61 -156t-165 -62v-89h-82v97q-99 26 -132 107l-10 -95h-67v237h89q3 -76 47.5 -122.5t112.5 -46.5q57 0 96 31.5t39 86.5q0 52 -40.5 86t-122.5 65q-98 38 -154.5 90t-56.5 140q0 87 58 141t141 61v90h82v-97q85 -22 114 -86l10 74h67v-217h-90
q-3 73 -39 113.5t-95 40.5q-51 0 -84.5 -32t-33.5 -79q0 -45 35.5 -77t103.5 -59q45 -18 72.5 -30.5t63 -35t55 -45t33.5 -56.5t14 -75z" />
    <glyph glyph-name="cent.lintab" 
d="M391 61q33 14 56.5 48.5t30.5 84.5h120q-8 -87 -63 -144t-144 -68v-91h-81v92q-99 14 -157 89t-58 183t58 182.5t157 89.5v92h81v-91q88 -10 143 -66.5t64 -143.5h-120q-17 102 -87 130v-387zM217 255q0 -69 25.5 -121t67.5 -71v383q-42 -19 -67.5 -70.5t-25.5 -120.5z
" />
    <glyph glyph-name="sterling.lintab" 
d="M629 206q1 -10 1 -20q0 -206 -206 -206q-42 0 -96 18.5t-89 18.5q-39 0 -79.5 -8.5t-96.5 -8.5v86q158 0 158 132q0 34 -11 70h-118v61h97q-2 6 -11.5 28t-13 30.5t-11 28t-11 32t-8 30.5t-6 35t-1.5 34q0 93 65.5 148t154.5 55q61 0 109 -27.5t65 -66.5l10 74h66v-217
h-89q-3 73 -39 113.5t-95 40.5q-51 0 -84.5 -33.5t-33.5 -86.5q0 -29 6 -60.5t12.5 -52t19 -55t17.5 -50.5h188v-61h-171q7 -40 7 -74q0 -81 -57 -130q25 -2 63.5 -13.5t70.5 -11.5q55 -1 82 30.5t27 96.5q0 5 -1 12v8h109z" />
    <glyph glyph-name="yen.lintab" 
d="M418 750h254v-85h-74l-184 -316h150v-61h-172l1 -68h171v-61h-171l1 -74h84v-85h-263v85h84l-1 74h-169v61h169l-1 68h-168v61h135l-177 316h-63v85h259v-85h-72l145 -260l143 260h-81v85z" />
    <glyph glyph-name="uni20A9.lintab" 
d="M676 665h-57l-28 -181h34v-60h-43l-13 -83h56v-61h-66l-44 -284h-87l-41 284h-76l-41 -284h-89l-45 284h-66v61h57l-13 83h-44v60h34l-28 181h-54v85h201v-85h-60l25 -181h102l26 181h-61v85h197v-85h-57l26 -181h101l25 181h-61v85h190v-85zM349 547l-9 -63h18zM196 424
l12 -83h62l12 83h-86zM320 341h58l-11 83h-36zM503 341l11 83h-85l12 -83h62zM239 120l22 160h-45zM472 120l22 160h-44z" />
    <glyph glyph-name="Euro.lintab" 
d="M544 267h107q-32 -287 -271 -287q-120 0 -195.5 80.5t-97.5 213.5h-55v61h48q-1 13 -1 41t1 41h-48v61h55q23 132 98.5 212t194.5 80q232 0 266 -269h-106q-22 84 -57.5 130t-96.5 46q-69 0 -111 -52.5t-57 -146.5h189v-61h-195q-1 -13 -1 -41t1 -41h195v-61h-189
q15 -94 58 -147.5t110 -53.5q115 0 158 194z" />
    <glyph glyph-name="florin.lintab" 
d="M342 -85q-16 -114 -161 -114q-37 0 -71 9l11 78q9 -3 31 -3q39 0 56.5 14.5t22.5 43.5l68 485h-58v81h70l19 140q16 113 160 113q39 0 71 -9l-11 -78q-9 3 -31 3q-70 0 -78 -58l-15 -111h80v-81h-92z" />
    <glyph glyph-name="space.old" horiz-adv-x="156" 
 />
    <glyph glyph-name="zero.old" horiz-adv-x="646" 
d="M323 612q121 0 195 -89t74 -225q0 -139 -73.5 -227.5t-195.5 -88.5q-121 0 -195 88.5t-74 226.5t74 226.5t195 88.5zM323 69q62 0 101 60t39 169q0 108 -39 167.5t-101 59.5t-100.5 -59t-38.5 -168t38.5 -169t100.5 -60z" />
    <glyph glyph-name="one.old" horiz-adv-x="493" 
d="M321 85h120v-85h-373v85h131v372q-28 -8 -67 -8q-36 0 -62 7v90q16 -2 29 -2q103 0 124 50h98v-509z" />
    <glyph glyph-name="two.old" horiz-adv-x="636" 
d="M60 0v50q0 54 21.5 93.5t56 61.5t76 38t83 29t76 28.5t56 43t21.5 66.5q0 46 -37.5 77.5t-95.5 31.5q-59 0 -96.5 -34.5t-37.5 -92.5l1 -19h-111q-2 11 -2 19q0 98 68 160t181 62q115 0 182.5 -56t67.5 -143q0 -51 -21 -88.5t-54 -58.5t-73.5 -36.5t-81 -28t-74.5 -26
t-55.5 -36.5t-22.5 -56h305v64h83v-149h-516z" />
    <glyph glyph-name="three.old" horiz-adv-x="619" 
d="M420 227q63 -15 107.5 -64t44.5 -120q0 -95 -76 -157t-195 -62q-117 0 -187.5 70.5t-70.5 183.5l1 25h119q-1 -17 -1 -25q0 -71 37.5 -114.5t101.5 -43.5q61 0 100.5 39t39.5 99q0 55 -37.5 90.5t-103.5 35.5h-46v78h48q63 0 97 33t34 91q0 60 -37 96.5t-97 36.5
q-61 0 -97.5 -42.5t-36.5 -109.5l1 -15h-116q-1 10 -1 15q0 109 70 178t182 69q117 0 188 -58.5t71 -150.5q0 -69 -41.5 -115t-98.5 -63z" />
    <glyph glyph-name="four.old" horiz-adv-x="628" 
d="M595 62h-118v-133h92v-85h-319v85h109v133h-347v79l353 453h112v-453h118v-79zM116 141h243v318z" />
    <glyph glyph-name="five.old" horiz-adv-x="643" 
d="M340 366q116 0 178 -75t62 -195q0 -117 -74 -194.5t-194 -77.5q-114 0 -183.5 73t-68.5 181v9h111v-9q-1 -73 36.5 -116t100.5 -43q66 0 105.5 48.5t39.5 131.5q0 76 -38 126.5t-103 50.5q-41 0 -75 -20.5t-47 -37t-16 -24.5l-88 16l38 384h413v-92h-330l-20 -191
q63 55 153 55z" />
    <glyph glyph-name="six.old" horiz-adv-x="662" 
d="M621 225q0 -105 -73 -175t-200 -70q-137 0 -215 105.5t-78 272.5q0 193 77.5 302.5t216.5 109.5q99 0 163 -54t76 -141h-118q-32 100 -121 100q-75 0 -117.5 -74.5t-46.5 -226.5q0 -20 4 -20q21 56 73.5 87t120.5 31q95 0 166.5 -74.5t71.5 -172.5zM354 385
q-64 0 -110 -44.5t-46 -110.5q0 -61 45.5 -108t105.5 -47q67 0 109.5 42t42.5 111q0 67 -43.5 112t-103.5 45z" />
    <glyph glyph-name="seven.old" horiz-adv-x="605" 
d="M49 594h525v-85q-126 -131 -201.5 -306t-75.5 -359h-135q0 169 94.5 359.5t212.5 305.5h-335v-115h-85v200z" />
    </font>
</defs>
</svg>
