<svg xmlns="http://www.w3.org/2000/svg">
<defs>
<font id="DBGinSiamX" horiz-adv-x="0" >
  <font-face 
    font-family="DB Gin Siam X"
    font-weight="400"
    font-stretch="normal"
    units-per-em="4096"
    panose-1="2 0 5 6 0 0 0 2 0 4"
    ascent="3276"
    descent="-820"
    x-height="1517"
    cap-height="2062"
    bbox="-2198 -1313 3279 3320"
    underline-thickness="143"
    underline-position="-687"
    unicode-range="U+0020-F880"
  />
<missing-glyph horiz-adv-x="1526" 
d="M1556 1474v-51h22q26 0 26 33q0 3 -6 10.5t-20 7.5h-22zM1567 1419h-11v-51h-19v125h41q44 0 44 -37q0 -25 -11.5 -31t-25.5 -6l37 -51h-18zM1578 1349q24 0 39.5 7.5t24.5 18.5t13 24t4 24q0 42 -19.5 65t-61.5 23t-63.5 -23t-21.5 -65q0 -31 20 -52.5t65 -21.5z
M1578 1523q47 0 69 -29.5t22 -70.5q0 -15 -5.5 -30.5t-16.5 -27.5t-28 -19.5t-41 -7.5q-22 0 -40 7.5t-30.5 19.5t-19 27.5t-6.5 30.5q0 42 25.5 71t70.5 29zM741 1165q38 -3 87.5 -8.5t102.5 -13.5t106.5 -18t101 -23t85 -27.5t58.5 -31.5q-37 73 -96 130t-131.5 96
t-154 59.5t-163.5 20.5q-62 0 -122.5 -12t-116 -36t-103.5 -60.5t-85 -86.5q66 8 132.5 11t132.5 3q42 0 83 -0.5t83 -2.5zM1382 1456v-524q-88 28 -190 52.5t-214.5 42.5t-233 28.5t-246.5 10.5q-89 0 -175 -6t-172 -17q22 83 70.5 158t122 131.5t170.5 90t216 33.5
q115 0 206.5 -25.5t160.5 -63.5t115.5 -81t69.5 -77q0 -3 0 9.5t-0.5 34t-1 49.5t-1 56.5t-0.5 54v43.5h103zM564 468q0 30 -20 44.5t-43 14.5q-25 0 -44 -14.5t-19 -44.5q0 -31 19 -43t44 -12q23 0 43 12t20 43zM118 512q0 86 33.5 151.5t88.5 109.5t125 66.5t143 22.5
t142 -19.5t121.5 -60.5t84.5 -104.5t32 -150.5v-427h391v744h103v-840h-696v96h107v438q0 55 -21.5 97t-59.5 69.5t-89.5 41.5t-110.5 14q-55 0 -107 -15.5t-92 -45.5t-64 -73.5t-24 -98.5v-395l213 214q-9 4 -22.5 13t-25.5 24t-20.5 36t-8.5 49q0 66 40.5 105t106.5 39
q32 0 58 -11.5t44.5 -31.5t28.5 -46t10 -55q0 -26 -6 -46t-15 -34.5t-18.5 -24.5t-16.5 -17q-4 -4 -21 -20t-42 -40t-56.5 -54.5t-64.5 -62.5q-39 -36 -82 -76.5t-91 -88.5h-118v508z" />
    <glyph glyph-name="plusminus" unicode="&#x2b;&#x2d;" horiz-adv-x="1765" 
d="M184 249h1398v-249h-1398v249zM184 1415h577v592h243v-592h578v-249h-578v-595h-243v595h-577v249z" />
    <glyph glyph-name="ellipsis" unicode="&#x2e;&#x2e;&#x2e;" horiz-adv-x="3023" 
d="M315 192q0 46 17 86t47 70t70 47t86 17t86 -17t70 -47t47 -70t17 -86t-17 -86t-47 -70t-70 -47t-86 -17t-86 17t-70 47t-47 70t-17 86zM2268 192q0 46 17 86t47 70t70 47t86 17t86 -17t70 -47t47 -70t17 -86t-17 -86t-47 -70t-70 -47t-86 -17t-86 17t-70 47t-47 70
t-17 86zM1292 192q0 46 17 86t47 70t70 47t86 17t86 -17t70 -47t47 -70t17 -86t-17 -86t-47 -70t-70 -47t-86 -17t-86 17t-70 47t-47 70t-17 86z" />
    <glyph glyph-name="lessequal" unicode="&#x3c;&#x3d;" horiz-adv-x="1759" 
d="M175 1407l1409 600v-283l-1116 -433v-4l1116 -431v-283l-1409 600v234zM184 249h1398v-249h-1398v249z" />
    <glyph glyph-name="greaterequal" unicode="&#x3e;&#x3d;" horiz-adv-x="1759" 
d="M1584 1173l-1409 -600v283l1116 431v4l-1116 433v283l1409 -600v-234zM1575 0h-1398v249h1398v-249z" />
    <glyph glyph-name="fongmanfunnuthai" unicode="&#xe4f;&#x22;" horiz-adv-x="1796" 
d="M1259 1788h-193l-45 223v364h282v-364zM46 817q0 118 30.5 227t86 203.5t133.5 172.5t172.5 133.5t203.5 86t227 30.5t227 -30.5t203.5 -86t172.5 -133.5t133.5 -172.5t86 -203.5t30.5 -227t-30.5 -227t-86 -203.5t-133.5 -172.5t-172.5 -133.5t-203.5 -86t-227 -30.5
t-227 30.5t-203.5 86t-172.5 133.5t-133.5 172.5t-86 203.5t-30.5 227zM509 817q0 81 30.5 152t83.5 124t124 83.5t152 30.5t152 -30.5t124 -83.5t83.5 -124t30.5 -152t-30.5 -152t-83.5 -124t-124 -83.5t-152 -30.5t-152 30.5t-124 83.5t-83.5 124t-30.5 152zM717 817
q0 -38 14.5 -71t39 -57.5t57.5 -39t71 -14.5q37 0 70.5 14.5t58 39t39 57.5t14.5 71q0 37 -14.5 70.5t-39 58t-58 39t-70.5 14.5q-38 0 -71 -14.5t-57.5 -39t-39 -58t-14.5 -70.5zM267 817q0 -131 49.5 -246t135.5 -201t201 -135.5t246 -49.5t246 49.5t201 135.5t135.5 201
t49.5 246t-49.5 246t-135.5 201t-201 135.5t-246 49.5t-246 -49.5t-201 -135.5t-135.5 -201t-49.5 -246zM746 1788h-193l-45 223v364h282v-364z" />
    <glyph glyph-name="dochadaphinthuthai" unicode="&#xe0e;&#xe3a;" horiz-adv-x="1998" 
d="M1740 -477h-376q-73 65 -162 99t-200 34q-49 0 -103.5 -10.5t-107.5 -28t-100.5 -39.5t-83.5 -46v240q32 22 75 44.5t93 39.5t105.5 28t112.5 11q45 0 95 -3.5t104 -17t110 -39.5t112 -71v1242q0 93 -16.5 160.5t-45.5 114.5t-67.5 76t-81.5 44.5t-89 21t-89 5.5
q-44 0 -89.5 -5.5t-89 -21t-82 -44.5t-67 -76t-45.5 -114.5t-17 -160.5v-1006h-575v245h249v818q0 130 28.5 227.5t78.5 166.5t118.5 114t148 71t167 36t175.5 10t175 -10t166.5 -36t148 -70.5t118.5 -114t78.5 -166.5t28.5 -228v-1540zM1347 -813q0 -45 17.5 -85t47 -70
t69.5 -47.5t85 -17.5t85 17.5t70 47.5t47.5 70t17.5 85t-17.5 85t-47.5 69.5t-70 47t-85 17.5t-85 -17.5t-69.5 -47t-47 -69.5t-17.5 -85z" />
    <glyph glyph-name="topatakphintuthai" unicode="&#xe0f;&#xe3a;" horiz-adv-x="1998" 
d="M1414 1006q0 93 -16.5 160.5t-45.5 114.5t-67.5 76t-81.5 44.5t-89 21t-89 5.5q-44 0 -89.5 -5.5t-89 -21t-82 -44.5t-67 -76t-45.5 -114.5t-17 -160.5v-1006h-575v245h249v818q0 130 28.5 227t78.5 166.5t118.5 114t148 70.5t167 36t175.5 10t175 -10t166.5 -35.5
t148 -70t118.5 -114t78.5 -166.5t28.5 -228v-1541h-376q-50 63 -119.5 100.5t-148.5 37.5q-29 0 -67.5 -6t-79.5 -22t-82 -44.5t-75 -73.5l-465 139v254l455 -143q60 64 144 98.5t170 34.5q29 0 68 -5t82 -18.5t86.5 -37.5t81.5 -62v1232zM1347 -813q0 -45 17.5 -85t47 -70
t69.5 -47.5t85 -17.5t85 17.5t70 47.5t47.5 70t17.5 85t-17.5 85t-47.5 69.5t-70 47t-85 17.5t-85 -17.5t-69.5 -47t-47 -69.5t-17.5 -85z" />
    <glyph glyph-name="dochadasarauthai" unicode="&#xe0e;&#xe38;" horiz-adv-x="1998" 
d="M1740 -477h-376q-73 65 -162 99t-200 34q-49 0 -103.5 -10.5t-107.5 -28t-100.5 -39.5t-83.5 -46v240q32 22 75 44.5t93 39.5t105.5 28t112.5 11q45 0 95 -3.5t104 -17t110 -39.5t112 -71v1242q0 93 -16.5 160.5t-45.5 114.5t-67.5 76t-81.5 44.5t-89 21t-89 5.5
q-44 0 -89.5 -5.5t-89 -21t-82 -44.5t-67 -76t-45.5 -114.5t-17 -160.5v-1006h-575v245h249v818q0 130 28.5 227.5t78.5 166.5t118.5 114t148 71t167 36t175.5 10t175 -10t166.5 -36t148 -70.5t118.5 -114t78.5 -166.5t28.5 -228v-1540zM1248 -632v-255h185v-288h307v543
h-492z" />
    <glyph glyph-name="topataksarauthai" unicode="&#xe0f;&#xe38;" horiz-adv-x="1998" 
d="M1248 -632v-255h185v-288h307v543h-492zM1414 1006q0 93 -16.5 160.5t-45.5 114.5t-67.5 76t-81.5 44.5t-89 21t-89 5.5q-44 0 -89.5 -5.5t-89 -21t-82 -44.5t-67 -76t-45.5 -114.5t-17 -160.5v-1006h-575v245h249v818q0 130 28.5 227t78.5 166.5t118.5 114t148 70.5
t167 36t175.5 10t175 -10t166.5 -35.5t148 -70t118.5 -114t78.5 -166.5t28.5 -228v-1541h-376q-50 63 -119.5 100.5t-148.5 37.5q-29 0 -67.5 -6t-79.5 -22t-82 -44.5t-75 -73.5l-465 139v254l455 -143q60 64 144 98.5t170 34.5q29 0 68 -5t82 -18.5t86.5 -37.5t81.5 -62
v1232z" />
    <glyph glyph-name="dochadasarauuthai" unicode="&#xe0e;&#xe39;" horiz-adv-x="2002" 
d="M1740 -477h-376q-73 65 -162 99t-200 34q-49 0 -103.5 -10.5t-107.5 -28t-100.5 -39.5t-83.5 -46v240q32 22 75 44.5t93 39.5t105.5 28t112.5 11q45 0 95 -3.5t104 -17t110 -39.5t112 -71v1242q0 93 -16.5 160.5t-45.5 114.5t-67.5 76t-81.5 44.5t-89 21t-89 5.5
q-44 0 -89.5 -5.5t-89 -21t-82 -44.5t-67 -76t-45.5 -114.5t-17 -160.5v-1006h-575v245h249v818q0 130 28.5 227.5t78.5 166.5t118.5 114t148 71t167 36t175.5 10t175 -10t166.5 -36t148 -70.5t118.5 -114t78.5 -166.5t28.5 -228v-1540zM926 -936q5 -60 38 -104t85.5 -73.5
t119 -43.5t137.5 -14h37q208 0 303 85t94 250v207h-304l1 -238q0 -41 -30 -65.5t-83 -24.5q-56 0 -88.5 24.5t-32.5 65.5l1 238h-452v-255h175z" />
    <glyph glyph-name="topataksarauuthai" unicode="&#xe0f;&#xe39;" horiz-adv-x="1998" 
d="M926 -936q5 -60 38 -104t85.5 -73.5t119 -43.5t137.5 -14h37q208 0 303 85t94 250v207h-304l1 -238q0 -41 -30 -65.5t-83 -24.5q-56 0 -88.5 24.5t-32.5 65.5l1 238h-452v-255h175zM1414 1006q0 93 -16.5 160.5t-45.5 114.5t-67.5 76t-81.5 44.5t-89 21t-89 5.5
q-44 0 -89.5 -5.5t-89 -21t-82 -44.5t-67 -76t-45.5 -114.5t-17 -160.5v-1006h-575v245h249v818q0 130 28.5 227t78.5 166.5t118.5 114t148 70.5t167 36t175.5 10t175 -10t166.5 -35.5t148 -70t118.5 -114t78.5 -166.5t28.5 -228v-1541h-376q-50 63 -119.5 100.5
t-148.5 37.5q-29 0 -67.5 -6t-79.5 -22t-82 -44.5t-75 -73.5l-465 139v254l455 -143q60 64 144 98.5t170 34.5q29 0 68 -5t82 -18.5t86.5 -37.5t81.5 -62v1232z" />
    <glyph glyph-name=".notdef" horiz-adv-x="1526" 
d="M1556 1474v-51h22q26 0 26 33q0 3 -6 10.5t-20 7.5h-22zM1567 1419h-11v-51h-19v125h41q44 0 44 -37q0 -25 -11.5 -31t-25.5 -6l37 -51h-18zM1578 1349q24 0 39.5 7.5t24.5 18.5t13 24t4 24q0 42 -19.5 65t-61.5 23t-63.5 -23t-21.5 -65q0 -31 20 -52.5t65 -21.5z
M1578 1523q47 0 69 -29.5t22 -70.5q0 -15 -5.5 -30.5t-16.5 -27.5t-28 -19.5t-41 -7.5q-22 0 -40 7.5t-30.5 19.5t-19 27.5t-6.5 30.5q0 42 25.5 71t70.5 29zM741 1165q38 -3 87.5 -8.5t102.5 -13.5t106.5 -18t101 -23t85 -27.5t58.5 -31.5q-37 73 -96 130t-131.5 96
t-154 59.5t-163.5 20.5q-62 0 -122.5 -12t-116 -36t-103.5 -60.5t-85 -86.5q66 8 132.5 11t132.5 3q42 0 83 -0.5t83 -2.5zM1382 1456v-524q-88 28 -190 52.5t-214.5 42.5t-233 28.5t-246.5 10.5q-89 0 -175 -6t-172 -17q22 83 70.5 158t122 131.5t170.5 90t216 33.5
q115 0 206.5 -25.5t160.5 -63.5t115.5 -81t69.5 -77q0 -3 0 9.5t-0.5 34t-1 49.5t-1 56.5t-0.5 54v43.5h103zM564 468q0 30 -20 44.5t-43 14.5q-25 0 -44 -14.5t-19 -44.5q0 -31 19 -43t44 -12q23 0 43 12t20 43zM118 512q0 86 33.5 151.5t88.5 109.5t125 66.5t143 22.5
t142 -19.5t121.5 -60.5t84.5 -104.5t32 -150.5v-427h391v744h103v-840h-696v96h107v438q0 55 -21.5 97t-59.5 69.5t-89.5 41.5t-110.5 14q-55 0 -107 -15.5t-92 -45.5t-64 -73.5t-24 -98.5v-395l213 214q-9 4 -22.5 13t-25.5 24t-20.5 36t-8.5 49q0 66 40.5 105t106.5 39
q32 0 58 -11.5t44.5 -31.5t28.5 -46t10 -55q0 -26 -6 -46t-15 -34.5t-18.5 -24.5t-16.5 -17q-4 -4 -21 -20t-42 -40t-56.5 -54.5t-64.5 -62.5q-39 -36 -82 -76.5t-91 -88.5h-118v508z" />
    <glyph glyph-name=".null" 
 />
    <glyph glyph-name="nonmarkingreturn" horiz-adv-x="1043" 
 />
    <glyph glyph-name="space" unicode=" " horiz-adv-x="922" 
 />
    <glyph glyph-name="exclam" unicode="!" horiz-adv-x="819" 
d="M420 2092q88 0 131 -63t43 -196q0 -86 -6 -186.5t-15.5 -205t-21.5 -207.5t-25 -194t-26 -165.5t-23 -121.5q-7 -34 -15 -53.5t-15.5 -29t-14.5 -12t-12 -2.5t-12 2.5t-14.5 12t-15.5 29t-15 53.5q-10 47 -23 121.5t-26 165.5t-25 194t-21.5 207.5t-15.5 205t-6 186.5
q0 133 43 196t131 63zM201 196q0 46 17 86t47 70t70 47t86 17t86 -17t70 -47t47 -70t17 -86t-17 -86t-47 -70t-70 -47t-86 -17t-86 17t-70 47t-47 70t-17 86z" />
    <glyph glyph-name="quotedbl" unicode="&#x22;" horiz-adv-x="1448" 
d="M1128 1409h-199l-65 392v364h329v-364zM255 2165h328v-364l-65 -392h-198l-65 392v364z" />
    <glyph glyph-name="numbersign" unicode="#" horiz-adv-x="1847" 
d="M96 733h262l107 508h-369v221h416l127 598h251l-127 -598h513l127 598h251l-127 -598h225v-221h-271l-108 -508h379v-221h-425l-127 -600h-252l127 600h-512l-127 -600h-252l127 600h-215v221zM609 733h513l107 508h-512z" />
    <glyph glyph-name="dollar" unicode="$" horiz-adv-x="1638" 
d="M731 2168h165v-191q118 -8 237.5 -39t255.5 -90v-237q-129 63 -254 100t-239 43v-640q71 -30 142.5 -62.5t137.5 -71t123.5 -85t100 -103.5t67 -125.5t24.5 -152.5q0 -118 -44.5 -213.5t-124 -165.5t-188.5 -112t-238 -52v-289h-165v288q-91 5 -167 21t-141 38t-120.5 48
t-106.5 53v239q124 -72 263 -114.5t272 -52.5v680q-11 5 -21.5 9.5t-20.5 9.5q-65 27 -130 55.5t-125.5 62t-112.5 74.5t-91 93t-61 116.5t-22 145.5q0 111 41.5 203.5t117.5 161.5t184 111t241 53v191zM1182 493q0 73 -23.5 125t-63 89.5t-91.5 64t-108 48.5v-615
q137 20 211.5 95.5t74.5 192.5zM436 1479q0 -60 19.5 -102.5t57.5 -75.5t92.5 -60t125.5 -57v561q-66 -10 -120.5 -31.5t-93 -54.5t-60 -78t-21.5 -102z" />
    <glyph glyph-name="percent" unicode="%" horiz-adv-x="2173" 
d="M464 -25h-215l1460 2114h207zM89 1617q0 98 37 184t101.5 150.5t150.5 101.5t184 37t184 -37t150.5 -101.5t101.5 -150.5t37 -184t-37 -184t-101.5 -150.5t-150.5 -101.5t-184 -37t-184 37t-150.5 101.5t-101.5 150.5t-37 184zM295 1619q0 -55 21 -103.5t57 -84.5
t84.5 -57t103.5 -21t103.5 21t84.5 57t57 84.5t21 103.5t-21 103.5t-57 84.5t-84.5 57t-103.5 21t-103.5 -21t-84.5 -57t-57 -84.5t-21 -103.5zM1140 448q0 98 37 184t101.5 150.5t150.5 101.5t184 37t184 -37t150.5 -101.5t101.5 -150.5t37 -184t-37 -184t-101.5 -150.5
t-150.5 -101.5t-184 -37t-184 37t-150.5 101.5t-101.5 150.5t-37 184zM1346 450q0 -55 21 -103.5t57 -84.5t84.5 -57t103.5 -21t103.5 21t84.5 57t57 84.5t21 103.5t-21 103.5t-57 84.5t-84.5 57t-103.5 21t-103.5 -21t-84.5 -57t-57 -84.5t-21 -103.5z" />
    <glyph glyph-name="ampersand" unicode="&#x26;" horiz-adv-x="2267" 
d="M2150 985q-36 -76 -85 -156t-106 -156.5t-120 -146.5t-126 -126l367 -400h-396l-187 212q-101 -72 -186 -118.5t-168 -73.5t-170.5 -37.5t-193.5 -10.5q-129 0 -238 34.5t-188.5 98t-124.5 152.5t-46 197q-2 97 34 184t106 166.5t172 153.5t233 147q-45 57 -90 118
t-81 124t-58.5 126t-22.5 123q0 107 42 198t118 157t180.5 103.5t230.5 37.5q119 0 218 -36t170 -98.5t110.5 -148t39.5 -184.5q0 -140 -116.5 -275.5t-348.5 -285.5l440 -504q36 36 77 79t82.5 95.5t80.5 114.5t70 137zM976 1216q96 60 162.5 115t108.5 106t61 98t19 90
q0 45 -16.5 89.5t-50.5 80t-86.5 57t-124.5 21.5q-66 0 -119.5 -18.5t-91.5 -52.5t-58.5 -81.5t-20.5 -105.5q0 -45 18 -96.5t47 -103.5t66 -100.5t75 -87.5zM873 931q-35 -22 -76.5 -51t-82.5 -63.5t-79.5 -73.5t-68 -81.5t-47.5 -88.5t-18 -93q0 -26 7 -59t21 -62
q23 -47 59 -77t80 -47t93 -23.5t98 -6.5q58 0 123.5 12t131 34.5t126.5 55.5t109 75z" />
    <glyph glyph-name="quotesingle" unicode="'" horiz-adv-x="725" 
d="M198 2165h328v-364l-65 -392h-198l-65 392v364z" />
    <glyph glyph-name="parenleft" unicode="(" horiz-adv-x="1147" 
d="M1000 2552q-128 -168 -223 -360t-159 -398.5t-95.5 -422t-31.5 -430.5q0 -218 32 -436.5t95.5 -427.5t159 -404.5t223.5 -367.5h-129q-98 80 -186.5 185.5t-164.5 231t-137 268t-104 297.5t-66.5 319.5t-23.5 333.5t24.5 331.5t69 315t107.5 292.5t139 263t163 226.5
t181 183.5h126z" />
    <glyph glyph-name="parenright" unicode=")" horiz-adv-x="1147" 
d="M273 2552q94 -80 181 -183.5t163 -226.5t139 -263t107.5 -292.5t69 -315t24.5 -331.5t-23.5 -333.5t-66.5 -319.5t-104 -297.5t-137 -268t-164.5 -231t-186.5 -185.5h-129q127 172 223 367.5t159.5 404.5t95.5 427.5t32 436.5q0 215 -31.5 430.5t-95.5 422t-159.5 398.5
t-222.5 360h126z" />
    <glyph glyph-name="asterisk" unicode="*" horiz-adv-x="1417" 
d="M613 1497q-105 24 -216 48.5t-216 48.5q-23 7 -35.5 23t-12.5 38q0 13 4 26t10 27l59 118q12 26 26.5 42.5t33.5 16.5q16 0 36.5 -12t48.5 -40l280 -288q21 23 51 34l-127 408q-8 24 -8 37q0 27 22.5 41t64.5 14h144q45 0 67 -12.5t22 -41.5q0 -7 -2 -17t-5 -21
l-126 -407q28 -11 51 -34l278 287q23 23 43.5 37t34.5 14q15 0 30.5 -18.5t31.5 -46.5l52 -92q28 -50 28 -81q0 -40 -49 -52l-430 -97v-23l430 -94q23 -6 34 -21.5t11 -35.5q0 -17 -6.5 -36.5t-17.5 -39.5l-49 -85q-19 -35 -35.5 -54.5t-33.5 -19.5q-10 0 -22.5 6.5
t-27.5 22.5l-303 311q-21 -22 -50 -34l126 -407q7 -20 7 -36q0 -29 -21 -43t-58 -14h-154q-38 0 -62.5 11t-24.5 42q0 16 8 40l127 408q-30 11 -51 34l-280 -289q-22 -21 -43 -33.5t-35 -12.5q-18 0 -33 14t-29 40l-58 108q-20 35 -20 65q0 21 12.5 37t35.5 22l432 95v13v9z
" />
    <glyph glyph-name="plus" unicode="+" horiz-adv-x="1765" 
d="M184 1158h577v592h243v-592h578v-250h-578v-594h-243v594h-577v250z" />
    <glyph glyph-name="comma" unicode="," horiz-adv-x="819" 
d="M202 139q0 37 14.5 71t39.5 60.5t59.5 42.5t73.5 16q52 0 95.5 -22t74.5 -62t48 -94.5t17 -120.5q0 -102 -31 -189t-84 -155.5t-125.5 -115t-154.5 -67.5v96q43 18 74 43t51.5 52.5t30.5 57t10 56.5q0 41 -10.5 79t-34.5 69q-32 8 -59 25t-47 41t-31 54t-11 63z" />
    <glyph glyph-name="hyphen" unicode="-" horiz-adv-x="1220" 
d="M1037 900h-854v265h854v-265z" />
    <glyph glyph-name="period" unicode="." horiz-adv-x="819" 
d="M190 191q0 46 17 86t47 70t70 47t86 17t86 -17t70 -47t47 -70t17 -86t-17 -86t-47 -70t-70 -47t-86 -17t-86 17t-70 47t-47 70t-17 86z" />
    <glyph glyph-name="slash" unicode="/" horiz-adv-x="850" 
d="M591 2091h211l-532 -2119h-211z" />
    <glyph glyph-name="zero" unicode="0" horiz-adv-x="1711" 
d="M1590 1003q0 -223 -47.5 -411t-140 -324.5t-227.5 -213.5t-309 -77q-172 0 -310 72.5t-234.5 206t-148.5 321t-52 418.5q0 172 27 314t76 255t117 197.5t150 140.5t176 83.5t194 27.5q166 0 301 -73.5t230 -207t146.5 -319t51.5 -410.5zM1271 1039q0 180 -30.5 311
t-85 215.5t-131 125.5t-167.5 41q-105 0 -183 -52t-130.5 -150.5t-78.5 -239t-26 -317.5q0 -185 31.5 -320t88 -223.5t133.5 -131t169 -42.5q99 0 175.5 52t128.5 152t79 246t27 333z" />
    <glyph glyph-name="one" unicode="1" horiz-adv-x="1711" 
d="M1014 0h-317v1984h317v-1984z" />
    <glyph glyph-name="two" unicode="2" horiz-adv-x="1711" 
d="M1563 0h-1337l1 52q151 165 301.5 335.5t291.5 352.5q83 106 142.5 199.5t97.5 176t56 156t18 138.5q0 90 -23.5 154t-69 105.5t-112.5 61t-153 19.5q-51 0 -116.5 -10.5t-136 -32.5t-142.5 -57.5t-136 -84.5v265q83 53 157.5 88.5t145.5 56.5t142 29.5t148 8.5
q133 0 246 -35.5t194.5 -105t127.5 -172.5t46 -238q0 -114 -33 -233.5t-111 -260t-208 -310t-324 -383.5h787v-275z" />
    <glyph glyph-name="three" unicode="3" horiz-adv-x="1711" 
d="M719 1151q88 2 159 21.5t120.5 57.5t76 95.5t26.5 135.5q0 59 -16 114t-55 97t-103 67.5t-160 25.5q-36 0 -92 -4t-118.5 -13t-126 -24t-115.5 -37v234q52 21 113 38t124 29t125 18t118 6q119 0 211 -19t161 -53t116.5 -80t77.5 -100.5t44.5 -114.5t18.5 -121
q0 -84 -13.5 -155t-49.5 -129.5t-98.5 -104t-161.5 -78.5v-6q111 -18 184 -64.5t116.5 -111.5t61 -143.5t17.5 -161.5q0 -141 -49.5 -253t-144 -189.5t-232 -119t-314.5 -41.5q-58 0 -120.5 6t-125 18t-122 30t-111.5 41v275q89 -52 209 -87t264 -35q94 0 169 26t127.5 72.5
t80.5 111.5t28 142q0 91 -25.5 153.5t-77 102t-130.5 57.5t-187 19v252z" />
    <glyph glyph-name="four" unicode="4" horiz-adv-x="1710" 
d="M1381 736h197v-261h-197v-475h-315v475h-925v295l1059 1232h181v-1266zM435 736h631v736z" />
    <glyph glyph-name="five" unicode="5" horiz-adv-x="1711" 
d="M1425 1696h-761v-530q53 5 102.5 6.5t100.5 1.5q172 0 292 -43t195.5 -118t109.5 -177t34 -220q0 -155 -57.5 -274.5t-155.5 -201t-229.5 -123.5t-279.5 -42q-71 0 -140.5 7t-134 19t-120 28t-97.5 34v265q95 -47 201 -72.5t236 -25.5q49 0 102 9.5t103.5 28.5t96 47
t80 66t54.5 85.5t20 104.5q0 92 -26.5 159.5t-87 111.5t-159 65t-242.5 21q-118 0 -266 -24v1081h1029v-289z" />
    <glyph glyph-name="six" unicode="6" horiz-adv-x="1711" 
d="M693 1182q81 26 139 32t93 6q74 0 147.5 -15.5t141 -47.5t125.5 -80.5t101 -114t67.5 -148.5t24.5 -183q0 -148 -51.5 -268.5t-142 -206t-214 -132.5t-267.5 -47q-149 0 -271.5 47t-210.5 132.5t-136 205.5t-48 265q0 95 24.5 192.5t69 199.5t105.5 211.5t134 228.5
l323 526h342zM1233 612q0 81 -28 148t-77.5 115t-117 74.5t-147.5 26.5q-72 0 -137.5 -24.5t-115.5 -71t-80 -114.5t-30 -155q0 -78 28 -148t77 -122.5t116 -83.5t145 -31q76 0 143 30t117 82.5t78.5 122.5t28.5 151z" />
    <glyph glyph-name="seven" unicode="7" horiz-adv-x="1711" 
d="M1138 1696h-915v289h1358l-829 -1985h-342z" />
    <glyph glyph-name="eight" unicode="8" horiz-adv-x="1711" 
d="M879 1166q64 0 124 22.5t106 64.5t73.5 102t27.5 134q0 72 -27.5 126t-73 91t-105.5 55.5t-125 18.5t-125 -17t-105.5 -53t-73 -91t-27.5 -130q0 -74 27.5 -134t73.5 -102t106 -64.5t124 -22.5zM878 206q84 0 152.5 24.5t117.5 69t75.5 108.5t26.5 144q0 86 -32 151.5
t-84 110t-118.5 67t-136.5 22.5t-136.5 -22.5t-118.5 -67t-84 -110t-32 -151.5q0 -80 29 -144t79 -109t117.5 -69t144.5 -24zM873 -26q-163 0 -290 40.5t-214.5 115.5t-133 180t-45.5 234q0 83 25.5 163.5t76 148.5t126 119t175.5 77q-96 33 -162 82t-106.5 109t-58.5 127.5
t-18 136.5q0 116 45.5 209.5t128.5 159.5t200 101.5t261 35.5q141 0 256.5 -35.5t198 -101.5t127.5 -159.5t45 -209.5q0 -69 -18 -136.5t-58.5 -127.5t-106.5 -109t-162 -82q100 -26 175.5 -77t126 -119t76 -148.5t25.5 -163.5q0 -129 -46.5 -234t-136 -180t-218.5 -115.5
t-294 -40.5z" />
    <glyph glyph-name="nine" unicode="9" horiz-adv-x="1711" 
d="M1025 801q-81 -26 -139 -32t-93 -6q-74 0 -147.5 15.5t-141 47.5t-125.5 80.5t-101 114t-67.5 148.5t-24.5 183q0 148 51.5 268.5t142 206t214 132.5t267.5 47q149 0 271.5 -47t210.5 -132.5t136 -205.5t48 -265q0 -95 -24.5 -192.5t-69 -199.5t-105.5 -211.5
t-134 -228.5l-323 -526h-342zM485 1371q0 -81 28 -148t77.5 -115t117 -74.5t147.5 -26.5q72 0 137.5 24.5t115.5 71t80 114.5t30 155q0 78 -28 148t-77 122.5t-116 83.5t-145 31q-77 0 -143.5 -30t-116.5 -82.5t-78.5 -122.5t-28.5 -151z" />
    <glyph glyph-name="colon" unicode=":" horiz-adv-x="819" 
d="M190 1277q0 46 17 86t47 70t70 47t86 17t86 -17t70 -47t47 -70t17 -86t-17 -86t-47 -70t-70 -47t-86 -17t-86 17t-70 47t-47 70t-17 86zM190 192q0 46 17 86t47 70t70 47t86 17t86 -17t70 -47t47 -70t17 -86t-17 -86t-47 -70t-70 -47t-86 -17t-86 17t-70 47t-47 70
t-17 86z" />
    <glyph glyph-name="semicolon" unicode=";" horiz-adv-x="819" 
d="M190 1277q0 46 17 86t47 70t70 47t86 17t86 -17t70 -47t47 -70t17 -86t-17 -86t-47 -70t-70 -47t-86 -17t-86 17t-70 47t-47 70t-17 86zM202 169q0 37 14.5 71t39.5 60.5t59.5 42.5t73.5 16q52 0 95.5 -22t74.5 -62t48 -94.5t17 -120.5q0 -102 -31 -189t-84 -155.5
t-125.5 -115t-154.5 -67.5v96q43 18 74 43t51.5 52.5t30.5 57t10 56.5q0 41 -10.5 79t-34.5 69q-32 8 -59 25t-47 41t-31 54t-11 63z" />
    <glyph glyph-name="less" unicode="&#x3c;" horiz-adv-x="1765" 
d="M151 1195l1463 633v-294l-1226 -491l1226 -491v-294l-1463 634v303z" />
    <glyph glyph-name="equal" unicode="=" horiz-adv-x="1765" 
d="M173 1437h1419v-249h-1419v249zM173 900h1419v-249h-1419v249z" />
    <glyph glyph-name="greater" unicode="&#x3e;" horiz-adv-x="1765" 
d="M1614 892l-1463 -634v294l1226 491l-1226 491v294l1463 -633v-303z" />
    <glyph glyph-name="question" unicode="?" horiz-adv-x="1134" 
d="M208 2003q42 17 83.5 31.5t86.5 24.5t95.5 15.5t110.5 5.5q90 0 166.5 -27.5t132 -81t85.5 -133t27 -184.5q-2 -68 -23.5 -125t-53 -106t-69 -91.5t-70.5 -81.5q-33 -38 -59.5 -68.5t-48 -57.5t-40 -53t-34.5 -57q-18 -34 -28 -68t-14.5 -68t-5 -68t-0.5 -68q0 -11 1 -26
t2.5 -30t2 -27t-0.5 -16q-3 -13 -18 -22.5t-47 -9.5q-44 0 -54 13q-19 21 -31.5 60.5t-20 84t-10 86t0.5 66.5q3 54 13 105.5t25 98t33 87t37 72.5q28 45 60.5 88.5t60.5 89t46.5 94.5t18.5 105q0 54 -16 90.5t-42 59t-60 32t-70 9.5q-26 0 -64.5 -5.5t-82 -17.5t-88.5 -31
t-82 -45zM296 195q0 46 17 86t47 70t70 47t86 17t86 -17t70 -47t47 -70t17 -86t-17 -86t-47 -70t-70 -47t-86 -17t-86 17t-70 47t-47 70t-17 86z" />
    <glyph glyph-name="at" unicode="@" horiz-adv-x="2959" 
d="M1049 921q-4 -72 9 -131.5t41 -103t70.5 -67.5t98.5 -24q77 0 137 36.5t104.5 94.5t75.5 130t51 144t30.5 136t14.5 105q8 79 -4 143t-41 109t-73 69t-100 24q-68 0 -126 -29.5t-105 -79t-82.5 -116t-58.5 -140t-34 -151t-8 -149.5zM1563 2112q-140 0 -274 -37.5
t-252.5 -106t-218 -166t-171.5 -218t-112 -261t-40 -295.5q0 -184 45.5 -329t123 -255t180 -187.5t216 -126.5t232.5 -71.5t228 -22.5q154 0 284 22.5t242.5 67t210.5 111.5t188 156h314q-45 -75 -111.5 -148.5t-153 -140t-192 -122.5t-227.5 -97.5t-259.5 -64.5t-288.5 -23
q-141 0 -291.5 29t-293.5 91.5t-271 159.5t-224 233.5t-152 314t-56 400.5q0 191 49 363t137.5 318t211.5 263.5t270.5 200t315 127t344.5 44.5q253 0 462.5 -65.5t360.5 -193t234.5 -315.5t83.5 -432q0 -129 -32 -250.5t-90 -229t-139 -197t-178.5 -154t-208.5 -100.5
t-230 -35q-107 1 -167 40.5t-72 131.5q-44 -48 -87 -80.5t-87.5 -53t-91 -29.5t-97.5 -9q-76 0 -137.5 24.5t-110 67.5t-84 101t-58 124.5t-33 139t-8.5 143.5q2 106 26 209t65.5 196.5t100 173t130 137.5t154.5 91t175 33q49 0 95 -10.5t87 -32.5t75.5 -56t60.5 -81l32 147
h247l-220 -1054q-9 -44 -1.5 -70t25.5 -38.5t42.5 -15t50 1t47.5 10t35 11.5q48 19 99 48.5t100.5 72.5t93.5 100t77 129.5t52.5 162t19.5 198.5q0 95 -19 189.5t-62.5 181t-113 161.5t-169.5 130t-233.5 86.5t-305.5 31.5z" />
    <glyph glyph-name="A" unicode="A" horiz-adv-x="2305" 
d="M1296 2062l940 -2062h-372q-29 65 -63 144q-29 67 -68.5 157.5t-84.5 195.5h-995q-45 -105 -84.5 -195.5t-68.5 -157.5q-34 -79 -62 -144h-372l940 2062h290zM1184 1568q-8 18 -14 39.5t-10.5 41t-7 33.5t-2.5 17q-1 -4 -3.5 -18.5t-6.5 -34t-10 -40.5t-13 -38l-351 -812
h770z" />
    <glyph glyph-name="B" unicode="B" horiz-adv-x="2023" 
d="M1105 2061q146 0 255 -40t181.5 -106t108.5 -151.5t36 -176.5q0 -66 -17 -132t-55.5 -125t-99 -106.5t-147.5 -77.5l2 -6q89 -14 159 -45t122.5 -74.5t89.5 -96.5t60 -109.5t33.5 -114.5t10.5 -111q0 -50 -11 -113t-39 -128.5t-75 -128t-119 -111t-171.5 -78.5
t-231.5 -30h-907v2061h815zM619 1223h395q98 0 164 31t106 75.5t57 94t17 87.5q0 51 -15.5 102.5t-52.5 93.5t-99.5 68.5t-156.5 26.5h-415v-579zM619 259h424q134 0 219.5 30.5t135 79.5t68.5 111t19 125q0 93 -31 160.5t-86 112t-130 65.5t-163 21h-456v-705z" />
    <glyph glyph-name="C" unicode="C" horiz-adv-x="2121" 
d="M1914 161q-75 -48 -153 -84.5t-161.5 -61t-174 -36.5t-190.5 -12q-185 0 -334 44t-264.5 120t-199 178.5t-137.5 220t-80 244.5t-26 251q0 140 29.5 274t88.5 254t148 221t209 174.5t271 114.5t333 41q100 0 190 -13.5t168.5 -37t143.5 -55.5t115 -69v-288q-39 29 -93 60
t-125.5 56.5t-161.5 41.5t-201 16q-185 0 -329.5 -61t-244 -166.5t-151.5 -248t-52 -305.5q0 -167 51.5 -309.5t149.5 -246.5t240.5 -163t324.5 -59q98 0 177.5 9.5t151.5 30.5t141 53.5t146 77.5v-266z" />
    <glyph glyph-name="D" unicode="D" horiz-adv-x="2342" 
d="M1109 2061q175 0 320.5 -39t261 -108.5t201.5 -166t143 -211t85 -244t28 -264.5q0 -142 -28 -273.5t-85.5 -246t-146.5 -208t-211 -160.5t-278 -104t-348 -37h-761v2062h819zM620 260h428q149 0 263 33.5t197 91t139 133.5t90 162t48 176t14 175q0 99 -17 194.5
t-54.5 181t-96.5 158.5t-143 125.5t-195 82.5t-251 30h-422v-1543z" />
    <glyph glyph-name="E" unicode="E" horiz-adv-x="1843" 
d="M1621 0h-1331v2062h1309v-261h-979v-607h927v-260h-927v-674h1001v-260z" />
    <glyph glyph-name="F" unicode="F" horiz-adv-x="1750" 
d="M620 0h-330v2062h1274v-261h-944v-607h884v-260h-884v-934z" />
    <glyph glyph-name="G" unicode="G" horiz-adv-x="2327" 
d="M2032 1642q-104 57 -194 91.5t-174.5 52.5t-167 24t-172.5 6q-160 0 -279.5 -34.5t-205.5 -94t-142 -139t-88.5 -169t-45.5 -184.5t-13 -185q0 -158 50 -295.5t146.5 -239.5t239 -160.5t327.5 -58.5q64 0 127.5 7t120 19t103.5 27t77 31v443h-273v261h604v-850
q-142 -117 -334 -171.5t-434 -54.5q-166 0 -313 37.5t-270.5 106t-221 165t-165.5 214t-104 253.5t-36 284q0 243 79.5 441.5t226.5 340t354 218.5t462 77q109 0 211.5 -11t194 -31.5t170 -50t138.5 -65.5z" />
    <glyph glyph-name="H" unicode="H" horiz-adv-x="2420" 
d="M2130 -1h-328v925h-1185v-925h-327v2062h327v-875h1185v875h328v-2062z" />
    <glyph glyph-name="I" unicode="I" horiz-adv-x="949" 
d="M639 0h-329v2062h329v-2062z" />
    <glyph glyph-name="J" unicode="J" horiz-adv-x="975" 
d="M665 191q0 -89 -9 -170.5t-29.5 -153t-54.5 -132.5t-84 -110q-39 -40 -85 -70t-102 -50.5t-124 -31t-151 -10.5q-16 0 -31 -0.5t-29 0.5v256q106 2 177 34.5t114 92.5t61 145t18 191v1880h329v-1871z" />
    <glyph glyph-name="K" unicode="K" horiz-adv-x="2117" 
d="M618 1101l790 962h425l-847 -951l1029 -1112h-451l-946 1099v-1099h-328v2063h328v-962z" />
    <glyph glyph-name="L" unicode="L" horiz-adv-x="1731" 
d="M1635 0h-1345v2061h328v-1801h1017v-260z" />
    <glyph glyph-name="M" unicode="M" horiz-adv-x="2600" 
d="M2003 2062h307v-2062h-327v1583l-20 1l-663 -746l-666 746l-17 -1v-1583h-327v2062h309l701 -807z" />
    <glyph glyph-name="N" unicode="N" horiz-adv-x="2466" 
d="M2176 0h-291l-1255 1591h-10v-1591h-330v2061h332l1216 -1550h10v1550h328v-2061z" />
    <glyph glyph-name="O" unicode="O" horiz-adv-x="2529" 
d="M2335 1031q0 -132 -31 -262t-92 -248t-151.5 -219.5t-209.5 -175.5t-265.5 -116t-319.5 -42q-177 0 -325 42.5t-267 116.5t-209 175.5t-150 219.5t-90.5 248t-30.5 261q0 125 29 252.5t87.5 245.5t147 221t207.5 179.5t269 120.5t332 44t331.5 -44t268.5 -121t207 -180
t146.5 -221.5t87 -245.5t28.5 -251zM1996 1031q0 166 -52 306t-147 242t-230 159t-301 57q-167 0 -302.5 -57t-231.5 -159t-148 -242t-52 -306q0 -167 52 -307t148 -241.5t231.5 -158.5t302.5 -57q166 0 301 57t230 158.5t147 241.5t52 307z" />
    <glyph glyph-name="P" unicode="P" horiz-adv-x="1890" 
d="M1129 2061q107 0 192 -27t150 -72.5t110.5 -106t74.5 -128.5t42.5 -139t13.5 -137q0 -69 -14 -141t-43.5 -139.5t-75.5 -127t-110.5 -104t-148 -70t-188.5 -25.5h-508v-845h-334v2062h839zM618 1106h364q94 0 160.5 14t111.5 39t70.5 58t38.5 71t16.5 78.5t3.5 80.5
q0 47 -6 92t-23.5 84.5t-49.5 72.5t-82.5 57t-123.5 37t-173 13h-307v-697z" />
    <glyph glyph-name="Q" unicode="Q" horiz-adv-x="2526" 
d="M1996 1031q0 166 -52 306t-147 242t-230 159t-301 57q-167 0 -302.5 -57t-231.5 -159t-148 -242t-52 -306q0 -167 52 -307t148 -241.5t231.5 -158.5t302.5 -57q166 0 301 57t230 158.5t147 241.5t52 307zM2335 1031q0 -116 -24 -230.5t-71 -221t-116.5 -201.5
t-161.5 -171.5t-205.5 -132t-247.5 -82.5l2 -1q90 -59 186 -104t190.5 -75t184 -45t166.5 -15h32t31 2l-255 -222q-122 13 -252.5 53t-260.5 100t-256.5 137.5t-240.5 165.5l1 1q-139 25 -255.5 80t-210.5 132t-164.5 173t-117.5 203t-71 222.5t-24 231.5q0 125 29 252.5
t87.5 245.5t147 221t207.5 179.5t269 120.5t332 44t331.5 -44t268.5 -121t207 -180t146.5 -221.5t87 -245.5t28.5 -251z" />
    <glyph glyph-name="R" unicode="R" horiz-adv-x="1994" 
d="M1123 2062q137 0 245.5 -45.5t183.5 -122t115 -176.5t40 -209q0 -90 -22.5 -176t-73 -161.5t-132.5 -136.5t-202 -100q61 -37 108.5 -74.5t85.5 -78.5t68.5 -86.5t59 -98t56.5 -114t60 -133.5q15 -33 32 -75t36.5 -87.5t40.5 -93.5t42 -94h-380q-14 29 -26.5 58.5t-27 66
t-32.5 83t-44 108.5q-48 115 -93.5 213.5t-100.5 170.5t-126.5 112.5t-172.5 40.5h-244v-853h-329v2062h833zM619 1091h339q84 0 159 27.5t130.5 76t88 116t32.5 148.5q0 71 -24 134t-75 109.5t-130.5 73t-190.5 26.5h-329v-711z" />
    <glyph glyph-name="S" unicode="S" horiz-adv-x="1775" 
d="M1506 1723q-87 36 -166 60t-149.5 38.5t-132.5 20t-115 5.5q-89 0 -163 -19t-127 -53.5t-82.5 -83t-29.5 -108.5q0 -71 30.5 -123t86 -94.5t132.5 -81.5t169 -82q82 -39 161.5 -74t151 -73t131.5 -82.5t104 -102t69 -131.5t25 -171q0 -134 -53 -245t-146.5 -190.5
t-222.5 -123t-281 -43.5q-114 0 -206 13.5t-169 36t-145 52.5t-134 64v250q63 -36 135 -67t150 -53.5t161 -35.5t169 -13q95 0 169.5 20.5t126.5 57t79 86t27 108.5q0 83 -34.5 142.5t-92.5 105.5t-134.5 82.5t-159.5 73.5q-68 30 -142.5 62.5t-146.5 71.5t-137 86.5
t-114.5 108.5t-78.5 137t-29 172q0 120 50.5 223.5t143.5 180t223 120.5t289 44q74 0 147 -6.5t148 -21t152.5 -37.5t160.5 -55v-252z" />
    <glyph glyph-name="T" unicode="T" horiz-adv-x="1947" 
d="M1867 1801h-729v-1801h-330v1801h-728v261h1787v-261z" />
    <glyph glyph-name="U" unicode="U" horiz-adv-x="2422" 
d="M2132 2061v-1242q0 -160 -32.5 -285.5t-92 -221t-143 -162.5t-186 -109t-220.5 -61.5t-247 -19.5q-205 0 -374.5 50t-291 154t-188.5 265.5t-67 385.5v1246h329v-1277q0 -133 42.5 -234.5t119.5 -170.5t185 -104.5t239 -35.5q120 0 228 30t190.5 98.5t131 179.5t48.5 273
v1241h329z" />
    <glyph glyph-name="V" unicode="V" horiz-adv-x="2077" 
d="M1106 -23h-90l-933 2085h372l598 -1442h4l573 1442h365z" />
    <glyph glyph-name="W" unicode="W" horiz-adv-x="3361" 
d="M987 -8h-88l-817 2070h358l518 -1361h15l598 1361h212l607 -1361h15l515 1361h359l-816 -2070h-86l-691 1575h-12z" />
    <glyph glyph-name="X" unicode="X" horiz-adv-x="2221" 
d="M75 0l855 1068l-805 994h417l568 -768l569 768h417l-805 -994l855 -1068h-420l-616 819l-615 -819h-420z" />
    <glyph glyph-name="Y" unicode="Y" horiz-adv-x="1936" 
d="M805 947l-755 1115h402l516 -874l528 874h390l-749 -1115l1 -949h-333v949z" />
    <glyph glyph-name="Z" unicode="Z" horiz-adv-x="1917" 
d="M587 259h1161v-258h-1704l1244 1801h-1112v260h1636z" />
    <glyph glyph-name="bracketleft" unicode="[" horiz-adv-x="1279" 
d="M1160 -665h-825v3199h825v-219h-559v-2760h559v-220z" />
    <glyph glyph-name="backslash" unicode="\" horiz-adv-x="850" 
d="M815 -28h-211l-532 2119h211z" />
    <glyph glyph-name="bracketright" unicode="]" horiz-adv-x="1279" 
d="M119 -445h559v2760h-559v219h825v-3199h-825v220z" />
    <glyph glyph-name="asciicircum" unicode="^" horiz-adv-x="1765" 
d="M784 2062h248l523 -1117h-278l-374 880l-374 -880h-281z" />
    <glyph glyph-name="underscore" unicode="_" horiz-adv-x="1511" 
d="M1532 -312v-154h-1553v154h1553z" />
    <glyph glyph-name="grave" unicode="`" horiz-adv-x="1006" 
d="M483 2044l209 -417h-154l-424 417h369z" />
    <glyph glyph-name="a" unicode="a" horiz-adv-x="1730" 
d="M1601 87q-51 -34 -89.5 -56.5t-71 -36t-63 -19.5t-66.5 -6q-100 0 -154.5 37t-74.5 119q-100 -78 -212.5 -117t-216.5 -39q-84 0 -160.5 24.5t-135 72t-93 117t-34.5 159.5q0 80 25 143t68 112.5t99.5 87t119.5 67t129 53.5t127 46l287 95v51q0 71 -17.5 129.5t-53.5 100
t-91.5 64.5t-131.5 23q-62 0 -129 -15t-133.5 -45.5t-130 -78t-117.5 -111.5v287q93 94 230.5 145.5t303.5 51.5q115 0 218.5 -29.5t181.5 -91t124 -156t46 -223.5v-781q0 -43 15 -60.5t43 -17.5q23 0 65.5 21.5t92.5 60.5v-184zM1085 750q-64 -22 -128 -43.5t-122.5 -46
t-108.5 -53t-87 -64t-58 -80.5t-21 -101q0 -78 63 -119t178 -41q72 0 147 33.5t137 92.5v422z" />
    <glyph glyph-name="b" unicode="b" horiz-adv-x="1785" 
d="M560 1409q93 73 195.5 106t223.5 33q142 0 262.5 -57t208 -158t136.5 -240t49 -303q0 -192 -55.5 -344.5t-159.5 -258.5t-253.5 -162t-336.5 -56q-77 0 -155 8t-151.5 23t-141 36t-122.5 48v2169h300v-844zM560 260q44 -17 83.5 -27t76 -14.5t70.5 -5.5t68 0
q113 4 200.5 47.5t147 115.5t90.5 167.5t31 203.5q0 120 -30.5 218t-86 167.5t-133 107t-172.5 37.5t-179.5 -37t-165.5 -118v-862z" />
    <glyph glyph-name="c" unicode="c" horiz-adv-x="1563" 
d="M1339 1141q-48 36 -96 64t-99 46.5t-106 28.5t-118 10q-103 0 -186.5 -40t-143 -111.5t-91.5 -169t-32 -212.5q0 -118 35 -216t100 -168.5t158 -110t210 -39.5q97 0 202 30t201 102v-287q-102 -56 -217.5 -77.5t-235.5 -21.5q-170 0 -311.5 56t-243.5 157t-158.5 241
t-56.5 307q0 187 52.5 338.5t150 258t236 164t311.5 57.5q66 0 121.5 -6t107.5 -20t103 -37t107 -57v-287z" />
    <glyph glyph-name="d" unicode="d" horiz-adv-x="1785" 
d="M1225 2253h300v-2169q-56 -27 -123 -48t-140.5 -36t-151.5 -23t-155 -8q-188 0 -337 56t-253 162t-159.5 258.5t-55.5 344.5q0 164 49 303t136.5 240t208 158t262.5 57q121 0 223.5 -33t195.5 -106v844zM1225 1122q-81 81 -165.5 118t-179.5 37t-172.5 -37.5t-133 -107
t-86 -167.5t-30.5 -218q0 -108 31 -203.5t90.5 -167.5t147 -115.5t200.5 -47.5q34 -1 68 0t70.5 5.5t76 14.5t83.5 27v862z" />
    <glyph glyph-name="e" unicode="e" horiz-adv-x="1683" 
d="M1491 175q-80 -62 -150 -101.5t-141.5 -63t-149.5 -32.5t-174 -9q-118 0 -218 31t-180.5 85.5t-142 130.5t-102.5 165.5t-62 190t-21 205.5q0 172 52 314.5t145.5 243.5t224 157t287.5 56q151 0 273 -51.5t207.5 -155.5t132 -261t46.5 -367h-1058q8 -124 44 -217t96 -155
t142.5 -93t184.5 -31q49 0 115.5 8t141.5 33t154 70.5t153 120.5v-274zM1220 912q-3 86 -29 157t-71.5 122t-109.5 79t-144 28q-86 0 -156.5 -28.5t-122 -79.5t-82.5 -122t-38 -156h753z" />
    <glyph glyph-name="f" unicode="f" horiz-adv-x="958" 
d="M1077 2001q-23 7 -57.5 13t-75.5 6q-91 0 -152.5 -26t-99 -74.5t-53.5 -118t-16 -157.5v-127h274v-270h-274v-1247h-301v1247h-212v270h212v94q0 199 59.5 336.5t168.5 215.5q99 70 232 91t297 -8z" />
    <glyph glyph-name="g" unicode="g" horiz-adv-x="1720" 
d="M1574 1284h-310q44 -44 74.5 -83t49 -78t26.5 -80.5t8 -89.5q0 -47 -12 -96.5t-32 -95t-45 -84.5t-52 -66q-51 -54 -116 -82.5t-133.5 -43t-134 -22t-117 -19t-83 -33.5t-31.5 -67q0 -32 29.5 -54.5t87.5 -42t145 -38t201 -40.5q121 -24 205 -66t136 -97.5t75 -121.5
t23 -138q0 -113 -48.5 -202.5t-141 -152t-225.5 -95.5t-301 -33q-154 0 -282.5 34t-221.5 95t-144.5 145.5t-51.5 184.5q0 167 92 269t290 150q-39 24 -68 44.5t-47.5 40.5t-27.5 41t-9 47q0 37 17 67.5t48 55t75.5 43t98.5 30.5v7q-84 35 -146.5 83.5t-106.5 108.5
q-81 119 -81 284q0 122 46 219t132 165t209 104t276 36h624v-233zM1152 990q0 54 -23.5 102.5t-64 85t-93.5 58t-113 21.5q-62 0 -117 -22t-95.5 -59.5t-64 -87t-23.5 -105.5q0 -62 21.5 -113t61.5 -87.5t96 -56.5t124 -20q64 0 117.5 21t92 58.5t60 90t21.5 114.5z
M1277 -278q0 48 -24 85t-63.5 64t-91 45.5t-106.5 29.5t-110 15.5t-101 4.5q-76 0 -139.5 -17t-109 -47.5t-71 -72.5t-25.5 -93q0 -115 107.5 -174t314.5 -59q99 0 177 15t131.5 43t82 68.5t28.5 92.5z" />
    <glyph glyph-name="h" unicode="h" horiz-adv-x="1797" 
d="M561 1318h7q43 55 95.5 97.5t110.5 72t120.5 45t125.5 15.5q112 0 206.5 -38t163.5 -115.5t108 -193.5t39 -272v-929h-300v940q0 83 -21 151t-59.5 116t-93.5 74.5t-124 26.5q-50 0 -95 -12t-90.5 -38.5t-92.5 -68t-100 -101.5v-1088h-301v2255h301v-937z" />
    <glyph glyph-name="i" unicode="i" horiz-adv-x="825" 
d="M562 0h-302v1517h302v-1517zM592 1977q0 -37 -14.5 -69.5t-39 -57t-57 -38.5t-68.5 -14q-37 0 -69.5 14t-57 38.5t-39 57t-14.5 69.5t14.5 69.5t39 57t57 38.5t69.5 14q36 0 68.5 -14t57 -38.5t39 -57t14.5 -69.5z" />
    <glyph glyph-name="j" unicode="j" horiz-adv-x="859" 
d="M591 -160q0 -122 -19 -212t-56.5 -157.5t-94 -117.5t-131.5 -90l-171 200q57 40 90.5 81t51.5 83.5t23.5 85.5t5.5 88v1716h301v-1677zM621 1977q0 -37 -14 -69.5t-38.5 -57t-57 -38.5t-69.5 -14t-69.5 14t-57 38.5t-38.5 57t-14 69.5t14 69.5t38.5 57t57 38.5t69.5 14
t69.5 -14t57 -38.5t38.5 -57t14 -69.5z" />
    <glyph glyph-name="k" unicode="k" horiz-adv-x="1732" 
d="M960 774l784 -774h-406l-760 774l672 743h358zM564 0h-300v2255h300v-2255z" />
    <glyph glyph-name="l" unicode="l" horiz-adv-x="842" 
d="M572 0h-302v2254h302v-2254z" />
    <glyph glyph-name="m" unicode="m" horiz-adv-x="2716" 
d="M560 1517v-199q118 117 227 173.5t216 56.5q145 0 260.5 -69.5t192.5 -204.5q49 55 104 105t117 87.5t133 59.5t152 22q115 0 208.5 -42.5t159 -120.5t101 -188t35.5 -244v-953h-301v940q0 86 -25 152t-67.5 111t-100 68t-121.5 23q-37 1 -79 -13t-86 -40t-88.5 -62
t-84.5 -78v-1101h-300v943q0 93 -22 159t-59.5 109t-87.5 63t-105 20q-57 0 -106 -9.5t-94 -32t-88.5 -59.5t-90.5 -92v-1101h-300v1517h300z" />
    <glyph glyph-name="n" unicode="n" horiz-adv-x="1787" 
d="M561 1318h7q43 55 95.5 97.5t110.5 72t120.5 45t125.5 15.5q108 0 202.5 -37.5t164 -113t110 -190.5t40.5 -271v-936h-300v940q0 83 -21 151t-59.5 116t-93.5 74.5t-124 26.5q-50 0 -95 -12t-90.5 -38.5t-92.5 -68t-100 -101.5v-1088h-301v1517h301v-199z" />
    <glyph glyph-name="o" unicode="o" horiz-adv-x="1885" 
d="M932 1548q179 0 329.5 -58t260 -161t171 -245t61.5 -310q0 -180 -60 -328.5t-168.5 -254t-259.5 -164t-334 -58.5q-175 0 -322 60t-253.5 167.5t-166 255t-59.5 322.5q0 109 28 208.5t79 185.5t123.5 156t161.5 120t192.5 77t216.5 27zM929 1277q-107 0 -196.5 -38
t-155 -105t-102 -159t-36.5 -201q0 -120 36 -218.5t100.5 -168.5t154.5 -108.5t199 -38.5q119 0 215 37t163 105.5t103 167t36 221.5q0 110 -38.5 202.5t-107 160t-163.5 105.5t-208 38z" />
    <glyph glyph-name="p" unicode="p" horiz-adv-x="1785" 
d="M560 -726h-300v2169q55 27 122.5 48t141 36t151.5 23t155 8q187 0 336.5 -56t253.5 -162t159.5 -258.5t55.5 -344.5q0 -164 -49 -303t-136.5 -240t-208 -158t-262.5 -57q-121 0 -223.5 33t-195.5 106v-844zM560 405q81 -81 165.5 -118t179.5 -37t172.5 37.5t133 107
t86 167.5t30.5 218q0 108 -31 203.5t-90.5 167.5t-147 115.5t-200.5 47.5q-34 1 -68 0t-70.5 -5.5t-76 -14.5t-83.5 -27v-862z" />
    <glyph glyph-name="q" unicode="q" horiz-adv-x="1785" 
d="M1225 118q-93 -73 -195.5 -106t-223.5 -33q-142 0 -262.5 57t-208 158t-136.5 240t-49 303q0 192 55.5 344.5t159.5 258.5t253 162t337 56q77 0 155 -8t151.5 -23t140.5 -36t123 -48v-2169h-300v844zM1225 1267q-44 17 -83.5 27t-76 14.5t-70.5 5.5t-68 0
q-113 -4 -200.5 -47.5t-147 -115.5t-90.5 -167.5t-31 -203.5q0 -120 30.5 -218t86 -167.5t133 -107t172.5 -37.5t179.5 37t165.5 118v862z" />
    <glyph glyph-name="r" unicode="r" horiz-adv-x="1400" 
d="M561 1517v-348h6q57 100 113 172t111 118t109 67.5t107 21.5q91 0 179 -43.5t182 -132.5l-158 -260q-35 33 -73 60.5t-75.5 47t-71.5 30.5t-60 11q-78 0 -145 -36.5t-117 -99.5t-78.5 -148.5t-28.5 -182.5v-794h-301v1517h301z" />
    <glyph glyph-name="s" unicode="s" horiz-adv-x="1355" 
d="M1145 1125q-128 85 -241.5 122t-197.5 37q-46 0 -83 -10t-63 -28.5t-40 -44t-14 -55.5q0 -26 20 -54.5t64 -65t114 -82t170 -103.5q94 -62 159.5 -114.5t106 -102t58.5 -100t18 -108.5q0 -101 -38 -183t-104.5 -141t-158 -91t-199.5 -32q-70 0 -133.5 7.5t-126.5 24
t-128.5 43t-138.5 64.5v324q148 -102 276.5 -150.5t219.5 -48.5q46 3 86.5 15t71 33.5t48 52.5t17.5 72q0 39 -30.5 74.5t-80.5 70t-113.5 70t-130.5 75t-130.5 84.5t-113.5 98.5t-80.5 116.5t-30.5 140q0 97 35.5 173.5t101 129.5t157.5 81.5t206 28.5q107 0 217 -31
t230 -95v-297z" />
    <glyph glyph-name="t" unicode="t" horiz-adv-x="1285" 
d="M627 1517h480v-270h-480v-778q0 -67 21.5 -111t54 -70.5t70 -37t70.5 -10.5q82 0 166 27.5t176 83.5v-280q-39 -22 -87.5 -40.5t-98 -32t-96 -21.5t-83.5 -8q-123 0 -215.5 36t-154.5 99.5t-93 151t-31 190.5v801h-291v33l558 713h34v-476z" />
    <glyph glyph-name="u" unicode="u" horiz-adv-x="1794" 
d="M1233 0v192q-47 -50 -102 -91.5t-113.5 -70.5t-118.5 -45t-115 -16q-116 0 -212 40.5t-165.5 117.5t-108 190t-38.5 257v943h300v-963q0 -160 78 -247.5t233 -87.5q103 0 195.5 54.5t166.5 158.5v1085h301v-1517h-301z" />
    <glyph glyph-name="v" unicode="v" horiz-adv-x="1619" 
d="M81 1517h328l409 -932l399 932h321l-669 -1548h-102z" />
    <glyph glyph-name="w" unicode="w" horiz-adv-x="2464" 
d="M1731 598l395 919h321l-669 -1548h-95l-449 1061l-446 -1061h-95l-676 1548h321l398 -919l386 919h223z" />
    <glyph glyph-name="x" unicode="x" horiz-adv-x="1752" 
d="M1069 771l669 -771h-386l-476 544l-449 -544h-379l639 771l-639 746h379l449 -520l433 520h385z" />
    <glyph glyph-name="y" unicode="y" horiz-adv-x="1619" 
d="M497 -728h-335l496 1052l-588 1193h342l408 -855l392 855h338z" />
    <glyph glyph-name="z" unicode="z" horiz-adv-x="1623" 
d="M649 261h826v-261h-1335l825 1267h-788v250h1294z" />
    <glyph glyph-name="braceleft" unicode="{" horiz-adv-x="1164" 
d="M441 928q84 -39 140.5 -94.5t90 -130.5t47.5 -171.5t14 -217.5v-350q0 -89 3 -154t12.5 -111t27.5 -75.5t48.5 -45.5t75.5 -22t107 -6l45 1v-217h-57q-121 0 -219 24t-167 82.5t-106 158t-37 249.5v462q0 114 -11 205.5t-43.5 159t-93 109t-159.5 53.5v193
q99 12 159.5 53.5t93 109t43.5 159t11 205.5v461q0 150 37 249.5t106 158t167 82.5t219 24h57v-216h-45q-63 0 -107.5 -6t-75 -22t-48.5 -45.5t-27.5 -75.5t-12.5 -111t-3 -154v-349q0 -121 -14 -218t-47.5 -172.5t-90 -131.5t-140.5 -95v-8z" />
    <glyph glyph-name="bar" unicode="|" horiz-adv-x="850" 
d="M311 2531h228v-3193h-228v3193z" />
    <glyph glyph-name="braceright" unicode="}" horiz-adv-x="1164" 
d="M723 936q-84 39 -140.5 95t-90 131.5t-47.5 172.5t-14 218v349q0 89 -3 154t-12.5 111t-27.5 75.5t-48.5 45.5t-75.5 22t-107 6h-45v216h57q121 0 219 -24t167 -82.5t106 -158t37 -249.5v-461q0 -114 11 -205.5t43.5 -159t93 -109t159.5 -53.5v-193q-99 -12 -159.5 -53.5
t-93 -109t-43.5 -159t-11 -205.5v-462q0 -150 -37 -249.5t-106 -158t-167 -82.5t-219 -24h-57v217l45 -1q62 0 107 6t75.5 22t48.5 45.5t27.5 75.5t12.5 111t3 154v350q0 121 14 217.5t47.5 171.5t90 130.5t140.5 94.5v8z" />
    <glyph glyph-name="asciitilde" unicode="~" horiz-adv-x="1765" 
d="M92 910q54 49 110 81t109 50.5t99 26t79 7.5q57 0 111.5 -10t106 -26t100 -36t93.5 -40q53 -23 102.5 -46.5t100.5 -42.5t105 -30.5t116 -11.5q91 0 174 34t175 94l-1 -253q-36 -31 -76.5 -56.5t-86.5 -43.5t-98 -28t-112 -10q-92 0 -189.5 26t-214.5 82
q-60 28 -113 52.5t-102 42t-96 27.5t-95 10q-38 0 -85.5 -9t-99 -27.5t-106 -48.5t-106.5 -72v258z" />
    <glyph glyph-name="saraileftthai" 
d="M-1941 1976v255h1121v-255h-1121z" />
    <glyph glyph-name="saraileftthai" unicode="&#xf701;" 
d="M-1941 1976v255h1121v-255h-1121z" />
    <glyph glyph-name="saraiileftthai" 
d="M-1941 1976v255h793v283h327v-538h-1120z" />
    <glyph glyph-name="saraiileftthai" unicode="&#xf702;" 
d="M-1941 1976v255h793v283h327v-538h-1120z" />
    <glyph glyph-name="saraueleftthai" 
d="M-1164 2285q0 -22 8 -41t22.5 -33.5t33.5 -22.5t41 -8t41 8t33 22.5t22.5 33.5t8.5 41t-8.5 41t-22.5 33t-33 22.5t-41 8.5t-41 -8.5t-33.5 -22.5t-22.5 -33t-8 -41zM-1370 2285q0 64 24.5 121t66.5 99t98.5 66.5t121.5 24.5q64 0 121 -24.5t99 -66.5t66.5 -99t24.5 -121
q0 -65 -24.5 -121.5t-67 -98.5t-99.5 -66t-122 -24h-881v255h577q-2 14 -3.5 27.5t-1.5 27.5z" />
    <glyph glyph-name="saraueleftthai" unicode="&#xf703;" 
d="M-1164 2285q0 -22 8 -41t22.5 -33.5t33.5 -22.5t41 -8t41 8t33 22.5t22.5 33.5t8.5 41t-8.5 41t-22.5 33t-33 22.5t-41 8.5t-41 -8.5t-33.5 -22.5t-22.5 -33t-8 -41zM-1370 2285q0 64 24.5 121t66.5 99t98.5 66.5t121.5 24.5q64 0 121 -24.5t99 -66.5t66.5 -99t24.5 -121
q0 -65 -24.5 -121.5t-67 -98.5t-99.5 -66t-122 -24h-881v255h577q-2 14 -3.5 27.5t-1.5 27.5z" />
    <glyph glyph-name="saraueeleftthai" 
d="M-1941 1976v255h347v283h278v-283h217v283h278v-538h-1120z" />
    <glyph glyph-name="saraueeleftthai" unicode="&#xf704;" 
d="M-1941 1976v255h347v283h278v-283h217v283h278v-538h-1120z" />
    <glyph glyph-name="maieklowleftthai" 
d="M-1137 1976v536h326v-536h-326z" />
    <glyph glyph-name="maieklowleftthai" unicode="&#xf705;" 
d="M-1137 1976v536h326v-536h-326z" />
    <glyph glyph-name="maitholowleftthai" 
d="M-1670 2193q65 22 95 52.5t30 72.5q0 33 -16.5 50.5t-41 24.5t-52 7t-48.5 -2v157q35 10 88.5 17.5t119.5 7.5q61 0 107.5 -13.5t78 -38.5t47 -59t15.5 -74q0 -23 -7.5 -48t-21.5 -49.5t-34 -45.5t-45 -35q33 -6 77.5 -9t87.5 -2q50 0 106 8t110.5 21.5t103.5 33t85 43.5
v-219q-92 -59 -215.5 -91.5t-260.5 -32.5q-116 0 -217.5 14.5t-191.5 45.5v164z" />
    <glyph glyph-name="maitholowleftthai" unicode="&#xf706;" 
d="M-1670 2193q65 22 95 52.5t30 72.5q0 33 -16.5 50.5t-41 24.5t-52 7t-48.5 -2v157q35 10 88.5 17.5t119.5 7.5q61 0 107.5 -13.5t78 -38.5t47 -59t15.5 -74q0 -23 -7.5 -48t-21.5 -49.5t-34 -45.5t-45 -35q33 -6 77.5 -9t87.5 -2q50 0 106 8t110.5 21.5t103.5 33t85 43.5
v-219q-92 -59 -215.5 -91.5t-260.5 -32.5q-116 0 -217.5 14.5t-191.5 45.5v164z" />
    <glyph glyph-name="maitrilowleftthai" 
d="M-1436 2490q42 44 100 64t114 20q73 0 127.5 -19.5t91 -53.5t54.5 -81t17 -102q0 -21 -6 -43.5t-16.5 -43t-24.5 -37t-30 -26.5q185 27 282 94l1 -199q-32 -18 -72 -35t-86 -29.5t-97 -20.5t-106 -8q-22 -1 -54.5 0t-66 3t-63.5 5t-47 5v144q31 1 58 11.5t46.5 29
t30.5 44.5t11 58q0 34 -8 54.5t-21.5 31t-31 14t-36.5 3.5q-36 0 -64.5 -27.5t-36.5 -75.5h-139q-4 51 -28.5 77.5t-67.5 25.5q-37 -1 -64 -24t-27 -79q0 -38 11.5 -65.5t31 -44.5t45.5 -25t54 -8h24v-142q-11 -4 -25.5 -7.5t-30 -5.5t-31 -3.5t-28.5 -1.5q-62 0 -108 14.5
t-79 39t-55 55.5t-35 64.5t-18 66t-5 60.5q0 64 22.5 120t64 97t99.5 65t130 24q27 0 54.5 -5t53 -15t47.5 -25.5t37 -37.5h1z" />
    <glyph glyph-name="maitrilowleftthai" unicode="&#xf707;" 
d="M-1436 2490q42 44 100 64t114 20q73 0 127.5 -19.5t91 -53.5t54.5 -81t17 -102q0 -21 -6 -43.5t-16.5 -43t-24.5 -37t-30 -26.5q185 27 282 94l1 -199q-32 -18 -72 -35t-86 -29.5t-97 -20.5t-106 -8q-22 -1 -54.5 0t-66 3t-63.5 5t-47 5v144q31 1 58 11.5t46.5 29
t30.5 44.5t11 58q0 34 -8 54.5t-21.5 31t-31 14t-36.5 3.5q-36 0 -64.5 -27.5t-36.5 -75.5h-139q-4 51 -28.5 77.5t-67.5 25.5q-37 -1 -64 -24t-27 -79q0 -38 11.5 -65.5t31 -44.5t45.5 -25t54 -8h24v-142q-11 -4 -25.5 -7.5t-30 -5.5t-31 -3.5t-28.5 -1.5q-62 0 -108 14.5
t-79 39t-55 55.5t-35 64.5t-18 66t-5 60.5q0 64 22.5 120t64 97t99.5 65t130 24q27 0 54.5 -5t53 -15t47.5 -25.5t37 -37.5h1z" />
    <glyph glyph-name="maichattawalowleftthai" 
d="M-1560 2390h244v197h322v-197h243v-214h-243v-200h-322v200h-244v214z" />
    <glyph glyph-name="maichattawalowleftthai" unicode="&#xf708;" 
d="M-1560 2390h244v197h322v-197h243v-214h-243v-200h-322v200h-244v214z" />
    <glyph glyph-name="thanthakhatlowleftthai" 
d="M-737 2485q-154 -14 -235.5 -64t-81.5 -144q0 -32 17 -54.5t41.5 -37t52.5 -23t49 -11.5v-176q-15 -1 -19.5 -0.5t-18.5 0.5q-98 0 -174.5 19.5t-129.5 57.5t-81 93.5t-28 127.5q0 102 49 173.5t132.5 116.5t194 66t233.5 22z" />
    <glyph glyph-name="thanthakhatlowleftthai" unicode="&#xf709;" 
d="M-737 2485q-154 -14 -235.5 -64t-81.5 -144q0 -32 17 -54.5t41.5 -37t52.5 -23t49 -11.5v-176q-15 -1 -19.5 -0.5t-18.5 0.5q-98 0 -174.5 19.5t-129.5 57.5t-81 93.5t-28 127.5q0 102 49 173.5t132.5 116.5t194 66t233.5 22z" />
    <glyph glyph-name="maieklowrightthai" 
d="M-584 1975v537h326v-537h-326z" />
    <glyph glyph-name="maieklowrightthai" unicode="&#xf70a;" 
d="M-584 1975v537h326v-537h-326z" />
    <glyph glyph-name="maitholowrightthai" 
d="M-895 2193q65 22 95 52.5t30 72.5q0 33 -16.5 50.5t-41 24.5t-52 7t-48.5 -2v157q35 10 88.5 17.5t119.5 7.5q61 0 107.5 -13.5t78 -38.5t47 -59t15.5 -74q0 -23 -7.5 -48t-21.5 -49.5t-34 -45.5t-45 -35q33 -6 77.5 -9t87.5 -2q50 0 106 8t110.5 21.5t103.5 33t85 43.5
v-219q-92 -59 -215.5 -91.5t-260.5 -32.5q-116 0 -217.5 14.5t-191.5 45.5v164z" />
    <glyph glyph-name="maitholowrightthai" unicode="&#xf70b;" 
d="M-895 2193q65 22 95 52.5t30 72.5q0 33 -16.5 50.5t-41 24.5t-52 7t-48.5 -2v157q35 10 88.5 17.5t119.5 7.5q61 0 107.5 -13.5t78 -38.5t47 -59t15.5 -74q0 -23 -7.5 -48t-21.5 -49.5t-34 -45.5t-45 -35q33 -6 77.5 -9t87.5 -2q50 0 106 8t110.5 21.5t103.5 33t85 43.5
v-219q-92 -59 -215.5 -91.5t-260.5 -32.5q-116 0 -217.5 14.5t-191.5 45.5v164z" />
    <glyph glyph-name="maitrilowrightthai" 
d="M-893 2483q42 45 99 64t112 19q72 0 126 -19t90 -52.5t53.5 -80t16.5 -100.5q-1 -42 -17 -82t-48 -60q101 13 177.5 41.5t138.5 82.5v-204q-25 -23 -67.5 -44.5t-97.5 -39t-119 -28t-131 -10.5q-22 -1 -52 0t-61 3t-59 5t-45 5v142q31 1 57 11.5t45.5 29t30.5 44t11 56.5
q0 34 -8 54t-21.5 30.5t-30.5 14t-36 3.5q-35 0 -63 -27t-36 -75h-137q-4 50 -28.5 76.5t-66.5 25.5q-37 -1 -63.5 -24t-26.5 -78q0 -38 11.5 -64.5t31 -43.5t44.5 -25t53 -8h24v-140q-11 -4 -25 -7.5t-29.5 -5.5t-31 -3.5t-28.5 -1.5q-91 0 -148.5 31t-90.5 76.5t-45 96.5
t-12 92q0 63 22 118.5t63 96t98.5 64t128.5 23.5q27 0 54 -4.5t52 -14.5t47 -25.5t37 -37.5h1z" />
    <glyph glyph-name="maitrilowrightthai" unicode="&#xf70c;" 
d="M-893 2483q42 45 99 64t112 19q72 0 126 -19t90 -52.5t53.5 -80t16.5 -100.5q-1 -42 -17 -82t-48 -60q101 13 177.5 41.5t138.5 82.5v-204q-25 -23 -67.5 -44.5t-97.5 -39t-119 -28t-131 -10.5q-22 -1 -52 0t-61 3t-59 5t-45 5v142q31 1 57 11.5t45.5 29t30.5 44t11 56.5
q0 34 -8 54t-21.5 30.5t-30.5 14t-36 3.5q-35 0 -63 -27t-36 -75h-137q-4 50 -28.5 76.5t-66.5 25.5q-37 -1 -63.5 -24t-26.5 -78q0 -38 11.5 -64.5t31 -43.5t44.5 -25t53 -8h24v-140q-11 -4 -25 -7.5t-29.5 -5.5t-31 -3.5t-28.5 -1.5q-91 0 -148.5 31t-90.5 76.5t-45 96.5
t-12 92q0 63 22 118.5t63 96t98.5 64t128.5 23.5q27 0 54 -4.5t52 -14.5t47 -25.5t37 -37.5h1z" />
    <glyph glyph-name="maichattawalowrightthai" 
d="M-819 2390h244v197h318v-197h243v-214h-243v-200h-318v200h-244v214z" />
    <glyph glyph-name="maichattawalowrightthai" unicode="&#xf70d;" 
d="M-819 2390h244v197h318v-197h243v-214h-243v-200h-318v200h-244v214z" />
    <glyph glyph-name="thanthakhatlowrightthai" 
d="M-153 2483q-154 -14 -235.5 -64t-81.5 -144q0 -32 17 -54.5t41.5 -37t52.5 -23t49 -11.5v-176q-15 -1 -19.5 -0.5t-18.5 0.5q-98 0 -174 20t-128 58.5t-79.5 94t-27.5 127.5q0 102 48.5 173t131.5 116t192.5 65.5t232.5 21.5z" />
    <glyph glyph-name="thanthakhatlowrightthai" unicode="&#xf70e;" 
d="M-153 2483q-154 -14 -235.5 -64t-81.5 -144q0 -32 17 -54.5t41.5 -37t52.5 -23t49 -11.5v-176q-15 -1 -19.5 -0.5t-18.5 0.5q-98 0 -174 20t-128 58.5t-79.5 94t-27.5 127.5q0 102 48.5 173t131.5 116t192.5 65.5t232.5 21.5z" />
    <glyph glyph-name="maihanakatleftthai" 
d="M-1266 1976v485h340v-230h930v-255h-1270z" />
    <glyph glyph-name="maihanakatleftthai" unicode="&#xf710;" 
d="M-1266 1976v485h340v-230h930v-255h-1270z" />
    <glyph glyph-name="nikhahitleftthai" 
d="M-1414 2232q0 67 25.5 126.5t69.5 104t103 70t127 25.5q67 0 126.5 -25.5t104 -70t70 -104t25.5 -126.5q0 -68 -25.5 -127t-70 -103t-104 -69.5t-126.5 -25.5q-68 0 -127 25.5t-103 69.5t-69.5 103t-25.5 127zM-1215 2231q0 -26 10 -49t27 -40t40 -27t49 -10t49 10t40 27
t27 40t10 49t-10 49t-27 40t-40 27t-49 10t-49 -10t-40 -27t-27 -40t-10 -49z" />
    <glyph glyph-name="nikhahitleftthai" unicode="&#xf711;" 
d="M-1414 2232q0 67 25.5 126.5t69.5 104t103 70t127 25.5q67 0 126.5 -25.5t104 -70t70 -104t25.5 -126.5q0 -68 -25.5 -127t-70 -103t-104 -69.5t-126.5 -25.5q-68 0 -127 25.5t-103 69.5t-69.5 103t-25.5 127zM-1215 2231q0 -26 10 -49t27 -40t40 -27t49 -10t49 10t40 27
t27 40t10 49t-10 49t-27 40t-40 27t-49 10t-49 -10t-40 -27t-27 -40t-10 -49z" />
    <glyph glyph-name="maitaikhuleftthai" 
d="M-1003 2151q55 0 91.5 10.5t61.5 26.5t41 34.5t30 35.5v-229q-1 -3 -15.5 -16t-42 -28t-69 -27t-95.5 -12q-94 0 -162 30.5t-102 104.5q-21 -39 -49 -65t-65 -41.5t-82.5 -22t-100.5 -6.5q-116 0 -189 32t-114.5 83t-57 114t-15.5 125q0 78 31.5 142.5t88.5 110.5
t137.5 71.5t178.5 25.5h723v-207h-704q-108 0 -157.5 -36.5t-49.5 -104.5q0 -46 13.5 -75.5t36.5 -46t54 -23t66 -6.5q67 0 102 16.5t52 40.5t21.5 50.5t10.5 46.5h125q6 -20 13.5 -46.5t28 -50.5t59 -40.5t105.5 -16.5z" />
    <glyph glyph-name="maitaikhuleftthai" unicode="&#xf712;" 
d="M-1003 2151q55 0 91.5 10.5t61.5 26.5t41 34.5t30 35.5v-229q-1 -3 -15.5 -16t-42 -28t-69 -27t-95.5 -12q-94 0 -162 30.5t-102 104.5q-21 -39 -49 -65t-65 -41.5t-82.5 -22t-100.5 -6.5q-116 0 -189 32t-114.5 83t-57 114t-15.5 125q0 78 31.5 142.5t88.5 110.5
t137.5 71.5t178.5 25.5h723v-207h-704q-108 0 -157.5 -36.5t-49.5 -104.5q0 -46 13.5 -75.5t36.5 -46t54 -23t66 -6.5q67 0 102 16.5t52 40.5t21.5 50.5t10.5 46.5h125q6 -20 13.5 -46.5t28 -50.5t59 -40.5t105.5 -16.5z" />
    <glyph glyph-name="maiekupperleftthai" 
d="M-1146 2728v470h326v-470h-326z" />
    <glyph glyph-name="maiekupperleftthai" unicode="&#xf713;" 
d="M-1146 2728v470h326v-470h-326z" />
    <glyph glyph-name="maithoupperleftthai" 
d="M-1369 2931q62 20 90.5 50t28.5 69q0 31 -16 48t-39 23.5t-49 6.5t-47 -2v151q34 10 85 17t114 7q119 0 178.5 -49.5t59.5 -127.5q0 -21 -7.5 -45.5t-21 -48t-32.5 -44t-43 -33.5q32 -6 74.5 -9t83.5 -2q48 0 102 7.5t106 21t99 32.5t81 42v-211q-88 -56 -206 -87
t-249 -31q-112 0 -209 14t-183 44v157z" />
    <glyph glyph-name="maithoupperleftthai" unicode="&#xf714;" 
d="M-1369 2931q62 20 90.5 50t28.5 69q0 31 -16 48t-39 23.5t-49 6.5t-47 -2v151q34 10 85 17t114 7q119 0 178.5 -49.5t59.5 -127.5q0 -21 -7.5 -45.5t-21 -48t-32.5 -44t-43 -33.5q32 -6 74.5 -9t83.5 -2q48 0 102 7.5t106 21t99 32.5t81 42v-211q-88 -56 -206 -87
t-249 -31q-112 0 -209 14t-183 44v157z" />
    <glyph glyph-name="maitriupperleftthai" 
d="M-1100 3211q39 41 94 60t108 19q69 0 120.5 -18.5t86 -50.5t51 -76.5t15.5 -96.5q-1 -40 -16 -78t-46 -57q97 12 170 39t132 79v-194q-24 -22 -64.5 -43t-93 -37.5t-113.5 -26.5t-125 -10q-21 -1 -50 0t-59 3t-56.5 4.5t-42.5 4.5v136q29 1 54.5 11t44 27.5t29 42
t10.5 54.5q0 32 -8 51.5t-20.5 29.5t-29 13t-34.5 3q-34 0 -61 -26t-34 -71h-131q-4 48 -27 73t-64 24q-35 -1 -60.5 -22.5t-25.5 -74.5q0 -36 11 -61.5t29.5 -42t42.5 -24t51 -7.5h23v-134q-10 -4 -24 -7t-29 -5.5t-29.5 -3.5t-26.5 -1q-87 0 -142 29.5t-86.5 73t-43 92.5
t-11.5 88q0 61 21 113.5t60 91.5t94 61.5t123 22.5q25 0 51.5 -4.5t50.5 -14t44.5 -24.5t35.5 -35h1z" />
    <glyph glyph-name="maitriupperleftthai" unicode="&#xf715;" 
d="M-1100 3211q39 41 94 60t108 19q69 0 120.5 -18.5t86 -50.5t51 -76.5t15.5 -96.5q-1 -40 -16 -78t-46 -57q97 12 170 39t132 79v-194q-24 -22 -64.5 -43t-93 -37.5t-113.5 -26.5t-125 -10q-21 -1 -50 0t-59 3t-56.5 4.5t-42.5 4.5v136q29 1 54.5 11t44 27.5t29 42
t10.5 54.5q0 32 -8 51.5t-20.5 29.5t-29 13t-34.5 3q-34 0 -61 -26t-34 -71h-131q-4 48 -27 73t-64 24q-35 -1 -60.5 -22.5t-25.5 -74.5q0 -36 11 -61.5t29.5 -42t42.5 -24t51 -7.5h23v-134q-10 -4 -24 -7t-29 -5.5t-29.5 -3.5t-26.5 -1q-87 0 -142 29.5t-86.5 73t-43 92.5
t-11.5 88q0 61 21 113.5t60 91.5t94 61.5t123 22.5q25 0 51.5 -4.5t50.5 -14t44.5 -24.5t35.5 -35h1z" />
    <glyph glyph-name="maichattawaupperleftthai" 
d="M-1339 3133h244v187h283v-187h243v-214h-243v-190h-283v190h-244v214z" />
    <glyph glyph-name="maichattawaupperleftthai" unicode="&#xf716;" 
d="M-1339 3133h244v187h283v-187h243v-214h-243v-190h-283v190h-244v214z" />
    <glyph glyph-name="thanthakhatupperleftthai" 
d="M-662 2940q-146 -14 -223 -61t-77 -136q0 -30 16 -51.5t39 -35.5t49.5 -21.5t46.5 -10.5v-167q-14 -1 -18.5 -0.5t-17.5 0.5q-92 0 -166.5 18t-127 52.5t-80.5 86t-28 119.5q0 97 48.5 165.5t129.5 112.5t187.5 64.5t222.5 21.5z" />
    <glyph glyph-name="thanthakhatupperleftthai" unicode="&#xf717;" 
d="M-662 2940q-146 -14 -223 -61t-77 -136q0 -30 16 -51.5t39 -35.5t49.5 -21.5t46.5 -10.5v-167q-14 -1 -18.5 -0.5t-17.5 0.5q-92 0 -166.5 18t-127 52.5t-80.5 86t-28 119.5q0 97 48.5 165.5t129.5 112.5t187.5 64.5t222.5 21.5z" />
    <glyph glyph-name="uni00A0" unicode="&#xa0;" horiz-adv-x="663" 
 />
    <glyph glyph-name="cent" unicode="&#xa2;" horiz-adv-x="1511" 
d="M1315 1457q-80 57 -161 86.5t-178 36.5v-1106q45 0 92.5 5.5t94.5 18t94 33t92 51.5v-249q-85 -45 -179 -66t-194 -26v-240h-174v246q-145 19 -265.5 84t-207.5 165.5t-135 229.5t-48 276q0 168 46 310.5t131.5 249t207 172.5t271.5 81v247h174v-245q46 -3 88.5 -11
t83 -21.5t81.5 -32.5t86 -46v-249zM433 1029q0 -100 25.5 -187t73.5 -156t116 -118t154 -73v1074q-84 -21 -152 -70.5t-116 -121t-74.5 -160.5t-26.5 -188z" />
    <glyph glyph-name="sterling" unicode="&#xa3;" horiz-adv-x="1575" 
d="M962 939h-272q-15 -48 -29.5 -104t-28 -115t-26.5 -118.5t-24 -114.5q-26 -128 -50 -260q51 15 107.5 26.5t100.5 11.5q20 0 46.5 -3t56 -7.5t59 -11t56.5 -12.5q28 -6 61.5 -12.5t68.5 -11.5t68.5 -8t62.5 -3q62 0 103 8.5t69 19.5l23 -209q-36 -17 -86 -28t-109 -11
q-20 0 -41 2.5t-46 6.5t-55 9.5t-67 12.5q-84 16 -184.5 30t-202.5 14q-114 0 -211 -18t-191 -40q8 51 21 124t29 157.5t34.5 175.5t37.5 179t37.5 168t34.5 142h-182v216h237q38 130 73 239.5t80 209.5q38 85 84 159.5t94 126.5q40 40 87.5 74.5t100.5 59t110.5 38.5
t117.5 14h16l68 -173q-113 0 -207.5 -59t-152.5 -167q-26 -48 -48.5 -99t-45 -113t-46 -137.5t-50.5 -172.5h211v-216z" />
    <glyph glyph-name="yen" unicode="&#xa5;" horiz-adv-x="1669" 
d="M132 529v226h557v237h-557v225h441q-59 101 -120 207.5t-122.5 214.5t-122.5 215t-120 208h311l430 -821l442 821h309l-494 -845h450v-225h-565v-237h565v-226h-565v-529h-282v529h-557z" />
    <glyph glyph-name="copyright" unicode="&#xa9;" horiz-adv-x="2236" 
d="M1596 818q-8 -90 -50 -160.5t-106 -119t-143 -74.5t-162 -26q-123 0 -222.5 41t-170 117t-108.5 184t-38 241q0 139 37.5 250.5t107.5 189.5t170 120t225 42q91 0 168.5 -26t136.5 -75t97 -120.5t50 -162.5h-186q-8 45 -30.5 84.5t-58 69t-83.5 47t-108 17.5
q-74 0 -132 -29.5t-98.5 -84.5t-62 -134t-21.5 -179t22 -179.5t64 -135t103 -85t139 -29.5q47 0 92 15t81.5 43t61.5 68t32 91h193zM37 1029q0 149 38.5 287.5t109 258.5t169.5 219t219 169.5t258.5 109t287.5 38.5t287.5 -38.5t258.5 -109t219 -169.5t169.5 -219
t109 -258.5t38.5 -287.5t-38.5 -287.5t-109 -258.5t-169.5 -219t-219 -169.5t-258.5 -109t-287.5 -38.5t-287.5 38.5t-258.5 109t-219 169.5t-169.5 219t-109 258.5t-38.5 287.5zM233 1029q0 -122 31.5 -235.5t89.5 -211.5t139 -179t179 -139t211.5 -89.5t235.5 -31.5
t235.5 31.5t211.5 89.5t179 139t139 179t89.5 211.5t31.5 235.5t-31.5 235.5t-89.5 211.5t-139 179t-179 139t-211.5 89.5t-235.5 31.5t-235.5 -31.5t-211.5 -89.5t-179 -139t-139 -179t-89.5 -211.5t-31.5 -235.5z" />
    <glyph glyph-name="guillemotleft" unicode="&#xab;" horiz-adv-x="1795" 
d="M998 32h-332l-487 660l487 661h332l-521 -661zM1637 32h-332l-487 660l487 661h332l-521 -661z" />
    <glyph glyph-name="registered" unicode="&#xae;" horiz-adv-x="2236" 
d="M1411 492l-86 174q-32 60 -66 113.5t-69 89.5q-38 37 -86.5 57.5t-103.5 20.5h-95v-455h-189v1091h540q85 0 148.5 -22.5t104.5 -62.5t61.5 -93.5t20.5 -116.5q0 -61 -19.5 -115.5t-58.5 -97t-98 -70.5t-138 -36v-9q38 -14 67.5 -31.5t58 -47.5t59 -75.5t70.5 -115.5
q28 -50 57 -99t58 -99h-236zM1162 1085q64 0 107.5 16.5t70.5 43.5t38.5 60.5t11.5 67.5q0 85 -64.5 129.5t-190.5 44.5h-230v-362h257zM37 1029q0 149 38.5 287.5t109 258.5t169.5 219t219 169.5t258.5 109t287.5 38.5t287.5 -38.5t258.5 -109t219 -169.5t169.5 -219
t109 -258.5t38.5 -287.5t-38.5 -287.5t-109 -258.5t-169.5 -219t-219 -169.5t-258.5 -109t-287.5 -38.5t-287.5 38.5t-258.5 109t-219 169.5t-169.5 219t-109 258.5t-38.5 287.5zM233 1029q0 -122 31.5 -235.5t89.5 -211.5t139 -179t179 -139t211.5 -89.5t235.5 -31.5
t235.5 31.5t211.5 89.5t179 139t139 179t89.5 211.5t31.5 235.5t-31.5 235.5t-89.5 211.5t-139 179t-179 139t-211.5 89.5t-235.5 31.5t-235.5 -31.5t-211.5 -89.5t-179 -139t-139 -179t-89.5 -211.5t-31.5 -235.5z" />
    <glyph glyph-name="guillemotright" unicode="&#xbb;" horiz-adv-x="1795" 
d="M1339 692l-521 661h332l487 -661l-487 -660h-332zM700 692l-521 661h332l487 -661l-487 -660h-332z" />
    <glyph glyph-name="onequarter" unicode="&#xbc;" horiz-adv-x="2708" 
d="M626 903h-244v1086h244v-1086zM2208 402h105v-137h-105v-265h-235v265h-471v151l561 672h145v-686zM1666 402h307v370zM657 -82h-200l1404 2135h202z" />
    <glyph glyph-name="onehalf" unicode="&#xbd;" horiz-adv-x="2708" 
d="M626 903h-244v1086h244v-1086zM617 -82h-200l1404 2135h202zM2419 0h-779v11q128 136 219 247t149.5 202t85.5 163.5t27 130.5q0 77 -41.5 122.5t-122.5 45.5q-23 0 -59.5 -6t-78 -19t-82.5 -33t-73 -48v161q74 49 160.5 78t187.5 29q76 0 139.5 -19.5t109 -57.5
t70.5 -95.5t25 -132.5q0 -120 -90.5 -268t-273.5 -340h427v-171z" />
    <glyph glyph-name="threequarters" unicode="&#xbe;" horiz-adv-x="2708" 
d="M2356 402h105v-137h-105v-265h-235v265h-471v151l561 672h145v-686zM1814 402h307v370zM855 -82h-200l1404 2135h202zM511 1526q50 8 82.5 25t52 39.5t27.5 50.5t8 59t-9.5 60t-30.5 51t-54 35t-80 13q-29 0 -61 -7t-62.5 -17t-57 -22t-45.5 -21v141q19 9 49 19.5
t67 19.5t80 15t87 6q73 0 135.5 -18t108.5 -52t72 -83t26 -110q0 -37 -9.5 -74.5t-31 -70.5t-57 -59t-86.5 -38l1 -8q52 -7 94 -29.5t71 -57t45 -78.5t16 -92q0 -68 -29.5 -127.5t-82 -103.5t-125.5 -69.5t-160 -25.5q-43 0 -80 4.5t-72.5 13t-71.5 21t-78 28.5v155
q57 -36 127 -54t136 -18q45 0 80 13t59.5 35.5t37 54t12.5 67.5t-11 71.5t-34.5 64t-59.5 46t-86 17.5v110z" />
    <glyph glyph-name="multiply" unicode="&#xd7;" horiz-adv-x="1765" 
d="M711 1033l-452 451l173 173l452 -453l450 452l173 -172l-452 -451l452 -451l-173 -173l-450 452l-451 -453l-174 174z" />
    <glyph glyph-name="divide" unicode="&#xf7;" horiz-adv-x="1765" 
d="M173 1158h1419v-249h-1419v249zM711 1661q0 35 13.5 66t36.5 54t54 36.5t66 13.5t66 -13.5t54 -36.5t36.5 -54t13.5 -66t-13.5 -66t-36.5 -54t-54 -36.5t-66 -13.5t-66 13.5t-54 36.5t-36.5 54t-13.5 66zM711 407q0 35 13.5 66t36.5 54t54 36.5t66 13.5t66 -13.5
t54 -36.5t36.5 -54t13.5 -66t-13.5 -66t-36.5 -54t-54 -36.5t-66 -13.5t-66 13.5t-54 36.5t-36.5 54t-13.5 66z" />
    <glyph glyph-name="uni0E00" unicode="&#xe00;" 
 />
    <glyph glyph-name="kokaithai" unicode="&#xe01;" horiz-adv-x="1985" 
d="M1727 0h-326v1010q0 93 -18.5 160.5t-49.5 114t-71.5 74.5t-86 43.5t-92.5 20.5t-90 5t-90 -5t-92.5 -20.5t-86.5 -43.5t-72 -74.5t-49.5 -114t-18.5 -160.5v-1010h-326v1087q0 130 30 225.5t82 162t122.5 108.5t152 65t170.5 31.5t177 8.5t177 -8.5t171 -31.5
t152.5 -64.5t122.5 -108.5t82 -162.5t30 -225.5v-1087z" />
    <glyph glyph-name="khokhaithai" unicode="&#xe02;" horiz-adv-x="1772" 
d="M89 1651h360l437 -1166l440 1166h358q-174 -410 -346.5 -825t-346.5 -825h-205z" />
    <glyph glyph-name="khokhuatthai" unicode="&#xe03;" horiz-adv-x="1886" 
d="M934 -24q-187 0 -315 44t-206.5 122t-113 186t-34.5 236v30q0 72 20.5 127t53 97t71.5 73.5t76 57.5q123 84 182.5 152t59.5 140v161l-302 -192l-308 202v270l309 -208l261 177h314v-402q0 -57 -10 -102.5t-36 -89t-71 -88.5t-115 -102q-37 -30 -69 -52t-56 -48.5
t-37.5 -62t-13.5 -92.5v-30q0 -75 13.5 -140.5t52 -114t107 -76.5t178.5 -28q94 -1 162 20t111 61.5t63.5 100t20.5 134.5v1112h326v-1052q0 -321 -172.5 -472t-521.5 -151z" />
    <glyph glyph-name="khokhwaithai" unicode="&#xe04;" horiz-adv-x="2023" 
d="M584 -1h-326v1068q0 128 30.5 224.5t84 165.5t125.5 114t156 71t175 36.5t182 10.5t182 -10t175 -36.5t156.5 -71t126 -113.5t84 -165t30.5 -225v-1068h-326v1021q0 88 -19 152.5t-51.5 109.5t-75.5 73.5t-90.5 44.5t-96.5 21.5t-94 5.5q-46 0 -95.5 -6t-97 -22
t-90.5 -44t-75.5 -73.5t-51.5 -110t-18 -152.5l1 -223q41 57 90 90t96 49t86.5 20t62.5 4q21 0 49 -3t57.5 -10t57 -17t46.5 -25l-67 -257q-35 17 -70 25t-76 10q-47 1 -98.5 -11t-97.5 -41.5t-82.5 -77.5t-53.5 -118z" />
    <glyph glyph-name="khokhonthai" unicode="&#xe05;" horiz-adv-x="2084" 
d="M584 0h-326v1651h333l450 -343l456 343h329v-1651h-326v1344l-458 -345h-2l-456 346v-750q49 70 105.5 109t108 57t94 21.5t65.5 3.5q42 0 88 -10.5t84 -39.5l-67 -257q-35 17 -63.5 25.5t-69.5 8.5q-38 0 -90 -18.5t-103 -55t-93 -90t-59 -123.5v-226z" />
    <glyph glyph-name="khorakhangthai" unicode="&#xe06;" horiz-adv-x="1997" 
d="M996 1249q0 -57 -10 -102.5t-36 -89t-71 -88.5t-115 -102q-37 -30 -69.5 -52t-56.5 -48.5t-38 -62t-14 -92.5v-71q17 -64 68 -121t121.5 -100t153.5 -68t166 -25q63 0 121 11.5t101.5 49t69.5 108t26 188.5v1067h326v-1074q0 -153 -37.5 -266.5t-106.5 -188t-168 -111
t-222 -36.5q-24 0 -62 1t-86.5 7.5t-105.5 21.5t-118 43t-124.5 71.5t-125.5 107.5v-227h-324v594q0 72 20.5 127t53 97t71.5 73.5t76 57.5q123 84 182.5 152t59.5 140v161l-302 -192l-308 202v270l309 -208l261 177h314v-402z" />
    <glyph glyph-name="ngonguthai" unicode="&#xe07;" horiz-adv-x="1541" 
d="M1283 442q0 -132 -41.5 -221.5t-114 -143.5t-170.5 -77.5t-212 -23.5q-101 0 -192 19t-166 45t-131.5 52.5t-88.5 42.5v269q44 -26 100 -57.5t124.5 -59t150 -46t176.5 -18.5q47 0 90.5 10t76.5 37t52.5 75t19.5 124v938h-278v244h604v-1209z" />
    <glyph glyph-name="chochanthai" unicode="&#xe08;" horiz-adv-x="1638" 
d="M1054 435q-17 70 -53.5 118t-82.5 77.5t-97.5 41.5t-98.5 11q-41 -2 -76 -10t-70 -25l-67 257q19 15 46.5 25t57 17t57.5 10t49 3q22 0 64.5 -6.5t91 -24t96.5 -49.5t83 -83v284q0 71 -5.5 136t-34.5 114.5t-92 79t-178 29.5q-55 0 -122 -5.5t-146 -24.5t-169 -54
t-192 -93v254q84 40 166.5 71.5t166.5 53.5t171.5 33.5t180.5 11.5q159 0 269.5 -26t179.5 -82t100 -145t31 -216v-1218h-326v435z" />
    <glyph glyph-name="chochingthai" unicode="&#xe09;" horiz-adv-x="1954" 
d="M1372 226q-66 -66 -130 -109.5t-124 -71.5t-114 -42t-100 -20t-81.5 -6.5t-58.5 -0.5q-112 0 -204.5 31t-159 94.5t-103 160.5t-36.5 229v452h326v-418q0 -93 22.5 -151.5t63 -91t96.5 -44.5t122 -12q51 0 104 12.5t103.5 34t95.5 51.5t81.5 65t61 73.5t33.5 78.5v538
q0 47 -3.5 92.5t-17 85.5t-40.5 74t-74.5 58.5t-118 38t-170.5 13.5q-61 0 -145 -12t-177 -35.5t-188 -57t-178 -76.5v244q83 41 173 75t185 58t193 37.5t196 13.5q159 0 287 -27.5t217.5 -85.5t138 -149t48.5 -218v-1209h-324v227z" />
    <glyph glyph-name="chochangthai" unicode="&#xe0a;" horiz-adv-x="1930" 
d="M958 -24q-170 0 -305.5 45t-230.5 128.5t-145.5 202t-50.5 265.5q0 131 35.5 232t89.5 175.5t119.5 124t125.5 77.5v183h-434v242h697v-539q-73 -32 -131.5 -70t-99 -93t-62 -131t-21.5 -184q0 -111 36.5 -189t95.5 -126.5t133 -70.5t148 -22t148.5 25t134 79t96.5 138.5
t37 204.5q0 117 -20.5 211.5t-62.5 172.5t-106 140.5t-150 114.5v339h749v-242h-478q110 -73 184 -158t119 -179.5t64.5 -199t19.5 -216.5q0 -152 -51 -277t-146.5 -214.5t-231.5 -139t-306 -49.5z" />
    <glyph glyph-name="sosothai" unicode="&#xe0b;" horiz-adv-x="1981" 
d="M641 1402l-302 -192l-308 202v270l309 -208l261 177h314l-1 -550q-62 -26 -118.5 -60.5t-100 -88t-69.5 -131t-26 -187.5q0 -111 36.5 -189t95.5 -126.5t133 -70.5t148 -22t148.5 25t134 79t96.5 138.5t37 204.5q0 117 -20.5 211.5t-62.5 172.5t-106 140.5t-150 114.5
v339h749v-242h-478q110 -73 184 -158t119 -179.5t64.5 -199t19.5 -216.5q0 -152 -51 -277t-146.5 -214.5t-231.5 -139t-306 -49.5t-305.5 45t-230.5 128.5t-145.5 202t-50.5 265.5q0 87 18 160t47.5 132.5t67 107t77.5 84t79 62.5t71 44v195z" />
    <glyph glyph-name="chochoethai" unicode="&#xe0c;" horiz-adv-x="2949" 
d="M1355 1005q0 98 -19 168t-50 117t-71.5 74.5t-83.5 41.5t-85 18t-76 4q-35 0 -77 -4t-85 -18t-83.5 -41.5t-71.5 -74.5t-50 -117t-19 -168v-760h251v-245h-577v1063q0 130 29.5 227t80.5 166.5t119.5 114t147.5 70.5t164 36t169 10t170 -10t165 -35.5t148.5 -70
t120.5 -114t80 -166.5t29 -228v-521q5 -29 25.5 -64t54 -70t77 -67.5t93.5 -58t104.5 -41t109.5 -15.5q67 0 110 15t67.5 48.5t33.5 86.5t9 130v1145h326v-1159q0 -132 -36.5 -229.5t-101.5 -161t-153.5 -94.5t-192.5 -31q-71 0 -146 20t-145 54.5t-131 80t-103 96.5v-227
h-327v1005z" />
    <glyph glyph-name="yoyingthai" unicode="&#xe0d;" horiz-adv-x="2848" 
d="M1891 149q-144 0 -248 34.5t-172 99.5t-100.5 160t-32.5 215v347q0 98 -19 168t-50.5 116.5t-71.5 74t-82 41.5t-82 18t-72 4t-72 -3.5t-82 -16.5t-82 -40t-71.5 -73.5t-50.5 -117t-19 -171.5v-761l251 1v-246h-577v1068q0 130 28.5 227t79 166t118 113t145.5 70
t162.5 35.5t168.5 9.5t168.5 -9.5t163 -35t146.5 -70t118 -113.5t79 -165.5t29 -227.5v-374q0 -60 9 -113.5t38.5 -94t85 -64t148.5 -23.5q69 0 119 17.5t85.5 46.5t58 66.5t35 77.5t17 78.5t4.5 70.5v896h326v-1559q0 -129 -43.5 -234.5t-132 -180t-223 -115t-317.5 -40.5
q-73 0 -142 7t-136 23.5t-131.5 43.5t-127.5 67v254q53 -31 110.5 -58t123 -46.5t139.5 -31t160 -11.5q106 0 181 21.5t122 65t69 109.5t22 156v170q-41 -44 -90.5 -71.5t-100 -43.5t-98.5 -22t-84 -6z" />
    <glyph glyph-name="dochadathai" unicode="&#xe0e;" horiz-adv-x="1998" 
d="M1740 -622h-376q-73 65 -162 99t-200 34q-49 0 -103.5 -10.5t-107.5 -28t-100.5 -39.5t-83.5 -46v240q32 22 75 44.5t93 39.5t105.5 28t112.5 11q45 0 95 -3.5t104 -17t110 -39.5t112 -71v1387q0 93 -16.5 160.5t-45.5 114.5t-67.5 76t-81.5 44.5t-89 21t-89 5.5
q-44 0 -89.5 -5.5t-89 -21t-82 -44.5t-67 -76t-45.5 -114.5t-17 -160.5v-1006h-575v245h249v818q0 130 28.5 227.5t78.5 166.5t118.5 114t148 71t167 36t175.5 10t175 -10t166.5 -36t148 -70.5t118.5 -114t78.5 -166.5t28.5 -228v-1685z" />
    <glyph glyph-name="topatakthai" unicode="&#xe0f;" horiz-adv-x="1998" 
d="M1414 1006q0 93 -16.5 160.5t-45.5 114.5t-67.5 76t-81.5 44.5t-89 21t-89 5.5q-44 0 -89.5 -5.5t-89 -21t-82 -44.5t-67 -76t-45.5 -114.5t-17 -160.5v-1006h-575v245h249v818q0 130 28.5 227t78.5 166.5t118.5 114t148 70.5t167 36t175.5 10t175 -10t166.5 -35.5
t148 -70t118.5 -114t78.5 -166.5t28.5 -228v-1685h-376q-50 63 -119.5 100.5t-148.5 37.5q-29 0 -67.5 -6t-79.5 -22t-82 -44.5t-75 -73.5l-465 139v254l455 -143q60 64 144 98.5t170 34.5q29 0 68 -5t82 -18.5t86.5 -37.5t81.5 -62v1376z" />
    <glyph glyph-name="thothanthai" unicode="&#xe10;" horiz-adv-x="1638" 
d="M1055 -184h324v-387h-374q-18 20 -40.5 40t-50.5 35.5t-61.5 25.5t-75.5 10q-10 0 -38.5 -3t-64.5 -15.5t-74 -37t-67 -67.5l-243 122v215l226 -107q12 13 34.5 32t55.5 37t75.5 31t92.5 13q31 0 67.5 -4t74 -16.5t73.5 -35.5t66 -60v172zM1054 435q-17 70 -53.5 118
t-82.5 77.5t-97.5 41.5t-98.5 11q-41 -2 -76 -10t-70 -25l-67 257q19 15 46.5 25t57 17t57.5 10t49 3q22 0 61.5 -4.5t86 -21.5t95.5 -51.5t92 -95.5v258q0 71 -5.5 136t-34.5 114.5t-92 79t-178 29.5q-55 0 -122 -5.5t-146 -24.5t-169 -54t-192 -93v254q84 40 166.5 71.5
t166.5 53.5t171.5 33.5t180.5 11.5h776v-228h-323q15 -14 36.5 -39t41.5 -65.5t34.5 -98.5t14.5 -137v-1083h-326v435z" />
    <glyph glyph-name="thonangmonthothai" unicode="&#xe11;" horiz-adv-x="2033" 
d="M641 1402l-302 -192l-308 202v270l309 -208l261 177h314v-219l24 23q75 72 136 115.5t117 66.5t112 30.5t122 7.5q97 0 163.5 -28t108 -88.5t59.5 -156.5t18 -231v-1171h-327v1136q0 75 -7 123.5t-23.5 76.5t-42.5 39t-65 11q-27 0 -71 -22.5t-97 -62t-112 -93
t-116 -115.5t-109 -129.5t-91 -134.5t-62.5 -131t-23.5 -119v-579h-328v579q0 77 13 135t39.5 109t67 100.5t96.5 109.5l125 134v235z" />
    <glyph glyph-name="thophuthaothai" unicode="&#xe12;" horiz-adv-x="3075" 
d="M258 0v1651h333l450 -343l456 343h331v-1109q1 -15 18.5 -44t48 -64t71.5 -72t89 -67t100.5 -49t106.5 -19q64 0 108 15t71 48t38.5 86t11.5 130v1145h326v-1159q0 -132 -31.5 -229.5t-89.5 -161t-141.5 -94.5t-186.5 -31q-138 0 -273.5 61t-266.5 190v-227h-326l-1 1345
l-459 -346h-2l-456 346v-1136q90 48 155.5 101t108.5 103.5t64 96t23 79.5q1 30 -9 46.5t-25.5 24t-35 8.5t-36.5 0l42 190q51 5 101.5 6t96.5 -11q72 -19 111 -78t36 -140q-2 -64 -30.5 -129t-74.5 -127t-104 -119.5t-119 -106.5t-120 -88.5t-108 -64.5h-402z" />
    <glyph glyph-name="nonenthai" unicode="&#xe13;" horiz-adv-x="2884" 
d="M1356 1005q0 98 -19 168t-50 116.5t-71.5 74t-83.5 41.5t-85 18t-77 4t-76.5 -4t-84.5 -18t-83.5 -41.5t-71.5 -74t-50 -116.5t-19 -168v-760h250v-245h-577v1063q0 130 29.5 227.5t80.5 166.5t120 114t148 71t164 36t169 10t170 -10t165.5 -36t148.5 -70.5t120.5 -114
t81 -166.5t28.5 -228v-557q0 -77 10 -130.5t34 -87t65 -48.5t104 -15q53 0 103 19.5t95 50t82.5 67t65 72t42.5 64.5t16 44v1109h326v-1651h-326v227q-60 -66 -118.5 -113.5t-118 -78t-121.5 -45t-131 -14.5q-118 0 -203.5 31t-141 94.5t-82.5 161t-27 229.5z" />
    <glyph glyph-name="dodekthai" unicode="&#xe14;" horiz-adv-x="2079" 
d="M258 0v1063q0 128 31.5 224.5t86.5 166t129.5 115t161.5 72t182 37t190 10.5t190 -10.5t182 -37t162 -72t130 -115t86.5 -165.5t31.5 -225v-1063h-327v1006q0 93 -19.5 160.5t-53 114.5t-78.5 76t-95.5 44.5t-104 21t-103.5 5.5q-51 0 -104.5 -5.5t-104 -21t-95.5 -44.5
t-78.5 -76t-53 -114.5t-19.5 -160.5v-726q93 66 155.5 122.5t101.5 104.5t57.5 89.5t23.5 79.5q3 27 -4.5 43.5t-21 25.5t-30 12t-30.5 3h-21.5t-25.5 -1l43 222q22 3 50.5 6t58 4.5t57.5 1t48 -5.5q40 -9 73.5 -28t57.5 -48.5t37.5 -71t13.5 -95.5q0 -89 -50 -184.5
t-134 -191.5t-193.5 -189.5t-229.5 -178.5h-364z" />
    <glyph glyph-name="totaothai" unicode="&#xe15;" horiz-adv-x="2086" 
d="M258 0v1651h333l450 -343l456 343h331v-1651h-326l-1 1345l-459 -346h-2l-456 346v-1136q74 36 135 76.5t106 82.5t71 83.5t31 79.5q3 27 -5.5 43.5t-22.5 25.5t-31 12t-31 3h-21.5t-25.5 -1l43 212q22 3 50.5 6t58 4.5t57.5 1t48 -5.5q40 -9 73.5 -27t57.5 -45
t37.5 -63.5t13.5 -82.5q0 -60 -25 -118.5t-67 -114.5t-98.5 -109.5t-120 -102t-130 -91t-128.5 -78.5h-402z" />
    <glyph glyph-name="thothungthai" unicode="&#xe16;" horiz-adv-x="1986" 
d="M1728 0h-326v984q0 93 -18.5 160t-50 114t-73 75t-87 43t-93.5 19t-91 3l-405 -13v-1140h250v-245h-576v1646q53 1 104.5 1.5t106 1.5t113 2t127 2t148.5 2.5t176 3.5q85 0 169.5 -10.5t162 -37t143.5 -71.5t115 -113.5t77 -163.5t28 -221v-1042z" />
    <glyph glyph-name="thothahanthai" unicode="&#xe17;" horiz-adv-x="2009" 
d="M258 1651h325v-1214l836 1214h332v-1651h-326v1229l-851 -1229h-316v1651z" />
    <glyph glyph-name="thothongthai" unicode="&#xe18;" horiz-adv-x="1815" 
d="M546 278q112 -33 202.5 -44.5t155.5 -11.5q93 0 167.5 13.5t126.5 43.5t80 77.5t28 115.5q0 69 -35.5 114t-102 78t-161.5 59t-214 56q-78 20 -153 43t-143 52t-125 65.5t-99 83.5t-65.5 105.5t-23.5 131.5q0 109 45.5 189t133.5 132.5t216.5 77.5t294.5 25
q112 0 207.5 -14.5t174 -35t140.5 -43.5t108 -41v-276q-81 33 -154 60.5t-147.5 48t-154 33t-174.5 14.5q-66 1 -133.5 -4t-123 -20.5t-90.5 -43.5t-35 -72q0 -45 26 -78.5t77 -61.5t126 -52.5t174 -51.5q15 -4 33 -8t44.5 -10.5t65.5 -16.5t97 -25q122 -32 217 -70t160 -94
t99 -135t34 -194q0 -95 -27 -170t-74.5 -132.5t-112 -98.5t-139.5 -66.5t-157.5 -37.5t-165.5 -12q-140 0 -259 12t-214 29.5t-164.5 38t-111.5 37.5v652h326v-467z" />
    <glyph glyph-name="nonuthai" unicode="&#xe19;" horiz-adv-x="2006" 
d="M1424 237q-91 -92 -176.5 -144t-164.5 -78t-151 -32.5t-136 -6.5q-117 0 -216 35t-170.5 107.5t-111.5 184t-40 264.5v1084h326v-1077q0 -104 21.5 -171t62.5 -106t100 -54.5t135 -15.5q73 0 155 22.5t155.5 64t130 99t78.5 126.5v1112h326v-1652h-324v238z" />
    <glyph glyph-name="bobaimaithai" unicode="&#xe1a;" horiz-adv-x="1987" 
d="M1729 597q0 -131 -30 -228t-82.5 -166t-123.5 -113t-152.5 -69.5t-171 -35t-177.5 -9.5q-89 0 -177.5 9.5t-170 35t-152 70t-122.5 113.5t-82 165.5t-30 227.5v1055h326v-1017q0 -93 17.5 -160t48 -112.5t71 -72.5t86 -41.5t93 -19t93.5 -4.5q45 0 93.5 4.5t94 19
t86 41.5t71 72.5t48 112.5t17.5 160v1017h326v-1055z" />
    <glyph glyph-name="poplathai" unicode="&#xe1b;" horiz-adv-x="1987" 
d="M1729 597q0 -131 -30 -228t-82.5 -166t-123.5 -113t-152.5 -69.5t-171 -35t-177.5 -9.5q-89 0 -177.5 9.5t-170 35t-152 70t-122.5 113.5t-82 165.5t-30 227.5v1055h326v-1017q0 -93 17.5 -160t48 -112.5t71 -72.5t86 -41.5t93 -19t93.5 -4.5q45 0 93.5 4.5t94 19
t86 41.5t71 72.5t48 112.5t17.5 160v1727h326v-1765z" />
    <glyph glyph-name="phophungthai" unicode="&#xe1c;" horiz-adv-x="2084" 
d="M1048 1023l452 -577v1205h326v-1651h-311l-479 630l-466 -630h-312v1651h576v-244h-250v-969l441 585h23z" />
    <glyph glyph-name="fofathai" unicode="&#xe1d;" horiz-adv-x="2084" 
d="M1048 1023l452 -577v1914h326v-2360h-311l-479 630l-466 -630h-312v1651h576v-244h-250v-969l441 585h23z" />
    <glyph glyph-name="phophanthai" unicode="&#xe1e;" horiz-adv-x="2488" 
d="M1348 1651l401 -1103l319 1103h346l-511 -1650h-237l-420 1148l-421 -1148h-237l-511 1650h346l319 -1103l401 1103h205z" />
    <glyph glyph-name="fofanthai" unicode="&#xe1f;" horiz-adv-x="2392" 
d="M1348 1651l398 -1086l354 1709h317l-514 -2273h-237l-420 1148l-421 -1148h-237l-511 1650h346l319 -1103l401 1103h205z" />
    <glyph glyph-name="phosamphaothai" unicode="&#xe20;" horiz-adv-x="1998" 
d="M1740 0h-326v1006q0 93 -16.5 160.5t-45.5 114.5t-67.5 76t-81.5 44.5t-89 21t-89 5.5q-44 0 -89.5 -5.5t-89 -21t-82 -44.5t-67.5 -76t-46 -114.5t-17 -160.5v-1006h-574v245h249v818q0 130 28.5 227.5t78.5 166.5t118.5 114t148 71t167 36t175.5 10t175 -10t166.5 -36
t148 -70.5t118.5 -114t78.5 -166.5t28.5 -228v-1063z" />
    <glyph glyph-name="momathai" unicode="&#xe21;" horiz-adv-x="2006" 
d="M582 -1h-324v1652h326v-1112q22 -69 78.5 -126.5t130 -99t155.5 -64t155 -22.5q76 0 135 15.5t100 54.5t62.5 106t21.5 171v1077h326v-1084q0 -153 -40 -264.5t-111.5 -184t-170.5 -107.5t-216 -35q-64 0 -136 6.5t-151 32.5t-164.5 78t-176.5 144v-238z" />
    <glyph glyph-name="yoyakthai" unicode="&#xe22;" horiz-adv-x="1898" 
d="M1640 588q0 -133 -30 -230.5t-82 -165.5t-122.5 -110.5t-152.5 -66t-171 -32t-177 -8.5q-161 0 -295.5 29.5t-232 93.5t-151.5 166t-54 247q0 83 26.5 151.5t68 120.5t91.5 85.5t98 47.5v5q-62 16 -114.5 50.5t-90 82.5t-58.5 107.5t-21 125.5q0 96 33 169t92 122.5
t139.5 75t175.5 25.5q59 0 125.5 -12.5t147.5 -42.5v-219q-45 19 -93 29.5t-85 10.5q-55 0 -93.5 -15.5t-62.5 -42.5t-35 -62.5t-11 -75.5q0 -41 16 -80.5t55 -71t103.5 -52.5t161.5 -24q8 0 19 -0.5t25 0.5v-220q-74 -1 -143.5 -16t-123 -47.5t-85.5 -84.5t-32 -126
q0 -92 36.5 -151t94.5 -93t130.5 -47t143.5 -13q44 0 91.5 3.5t93 16.5t86 38t71 68t48.5 107t18 155v1040h326v-1063z" />
    <glyph glyph-name="roruathai" unicode="&#xe23;" horiz-adv-x="1496" 
d="M1241 1315q-78 37 -140.5 58.5t-114.5 33t-95 16t-81 6.5q-21 1 -53 0.5t-67.5 -4.5t-71.5 -13.5t-65 -25.5t-47 -40.5t-18 -59.5q0 -45 27.5 -80t71 -64.5t95.5 -55t102 -51.5q150 -78 252.5 -144.5t166.5 -136.5t92 -152t28 -193q0 -103 -40.5 -184t-117.5 -137.5
t-188 -86t-252 -29.5q-157 0 -287.5 33t-229.5 83v268q115 -62 233.5 -90t237.5 -33q76 -3 137 8t103.5 33.5t65 56.5t22.5 78t-22 85t-69 83.5t-122 88t-180 98.5q-99 52 -180.5 101t-139 104.5t-89.5 123t-32 158.5q0 108 44.5 189t125 135t192.5 81.5t247 27.5
q130 0 241 -25.5t218 -75.5v-268z" />
    <glyph glyph-name="ruthai" unicode="&#xe24;" horiz-adv-x="1986" 
d="M1728 -658h-326v1642q0 93 -18.5 160t-50 114t-73 75t-87 43t-93.5 19t-91 3l-405 -13v-1140h250v-245h-576v1646q53 1 104.5 1.5t106 1.5t113 2t127 2t148.5 2.5t176 3.5q85 0 169.5 -10.5t162 -37t143.5 -71.5t115 -113.5t77 -163.5t28 -221v-1700z" />
    <glyph glyph-name="lolingthai" unicode="&#xe25;" horiz-adv-x="1829" 
d="M1245 0l1 815q-99 -19 -195 -44.5t-181.5 -56.5t-158.5 -67.5t-125.5 -78.5t-82.5 -89.5t-30 -99.5q0 -27 7.5 -58t32.5 -55t72 -37.5t125 -5.5q40 4 69.5 8t52.5 9v-198q-67 -36 -154 -50t-176 -14q-88 0 -156 31t-114.5 82.5t-70.5 118t-24 137.5q0 142 78.5 253.5
t222.5 198t348.5 151.5t456.5 114q0 20 0.5 33t0.5 33q1 65 -12.5 122t-54 99t-114.5 66.5t-194 24.5q-66 0 -147 -12t-167 -36.5t-172 -61.5t-161 -86v269q100 47 188.5 79.5t174 52.5t172 28.5t181.5 8.5q145 0 262 -26t199.5 -82t127 -145t44.5 -216v-1215h-326z" />
    <glyph glyph-name="luthai" unicode="&#xe26;" horiz-adv-x="1998" 
d="M1740 -658h-326v1667q0 93 -16.5 160.5t-45.5 114t-67.5 75t-81.5 44t-89 20.5t-89 5q-44 0 -89.5 -5t-89 -20.5t-82 -44t-67.5 -75t-46 -114t-17 -160.5v-1009h-574v245h249v818q0 130 28.5 227.5t78.5 167t118.5 114.5t148 71t167 36t175.5 10t175 -10t166.5 -36
t148 -71t118.5 -114.5t78.5 -166.5t28.5 -228v-1721z" />
    <glyph glyph-name="wowaenthai" unicode="&#xe27;" horiz-adv-x="1523" 
d="M148 1593q51 24 108.5 41.5t114.5 29t111 16.5t98 5q192 0 344.5 -58.5t258 -168t162 -266.5t56.5 -353q0 -120 -24.5 -231t-72 -207t-116 -174.5t-157 -134.5t-195.5 -86.5t-230 -30.5q-264 0 -433 90v251q80 -44 171 -64t211 -21q126 5 223.5 50t164 123.5t100.5 188
t34 242.5q0 139 -38 248t-109.5 184t-174.5 114.5t-233 39.5q-39 0 -86.5 -4.5t-97 -14.5t-98.5 -26t-92 -40v257z" />
    <glyph glyph-name="sosalathai" unicode="&#xe28;" horiz-adv-x="2023" 
d="M584 -1h-326v1033q0 128 30.5 224t84 164.5t125.5 113t156 70.5t175 36t182 10l940 1v-228h-385q34 -24 69 -63t64 -93t47.5 -123t18.5 -151v-993h-326v986q0 88 -19 152.5t-51.5 109.5t-75.5 73.5t-90.5 44.5t-96.5 21.5t-94 5.5q-46 0 -95.5 -6t-97 -22t-90.5 -44
t-75.5 -73.5t-51.5 -110t-18 -152.5l1 -198q41 57 90 91.5t96 52.5t86.5 23.5t62.5 5.5q21 0 49 -3t57.5 -10t57 -17t46.5 -25l-67 -257q-35 17 -70 25t-76 10q-47 1 -98.5 -11t-97.5 -41.5t-82.5 -77.5t-53.5 -118z" />
    <glyph glyph-name="sorusithai" unicode="&#xe29;" horiz-adv-x="1985" 
d="M1727 587q0 -131 -30 -227t-82 -164t-122.5 -111t-152.5 -67t-170.5 -33t-177.5 -9t-177.5 9t-170 33.5t-152 67.5t-122.5 110.5t-82 164t-30 226.5v1064h327v-1026q0 -93 18.5 -158.5t49.5 -110t71.5 -71t86 -40t92.5 -17.5t90 -4t90 4t92.5 17.5t86 40t71.5 71
t49.5 110t18.5 158.5v276h-293v45l532 719l90 -1v-525h186v-238h-189v-314z" />
    <glyph glyph-name="sosuathai" unicode="&#xe2a;" horiz-adv-x="1829" 
d="M1245 0l1 795q-99 -19 -195 -43t-181.5 -52.5t-158.5 -63t-125.5 -74t-82.5 -85.5t-30 -98q0 -27 7.5 -58t32.5 -55t72 -37.5t125 -5.5q40 4 69.5 8t52.5 9v-198q-67 -36 -154 -50t-176 -14q-88 0 -156 31t-114.5 82.5t-70.5 118t-24 137.5q0 142 78.5 250.5t222.5 191.5
t348.5 144.5t456.5 110.5l1 53q1 65 -12.5 122t-54 99t-114.5 66.5t-194 24.5q-66 0 -147 -12t-167 -36.5t-172 -61.5t-161 -86v269q99 47 187.5 79.5t174 52.5t171.5 28.5t181 8.5h821v-228h-345q25 -15 53 -45t51.5 -75.5t39 -106.5t15.5 -138v-1058h-326z" />
    <glyph glyph-name="hohipthai" unicode="&#xe2b;" horiz-adv-x="1960" 
d="M258 1652h325v-1267q1 3 8 20.5t19 45t28 62t34 70.5t37.5 71.5t39.5 64.5l640 933h389l-384 -530q77 -27 135 -74t96.5 -120.5t57.5 -175t19 -237.5l1 -515h-324v565q0 78 -12 132.5t-33 91.5t-50 59t-64 33l-637 -881h-325v1652z" />
    <glyph glyph-name="lochulathai" unicode="&#xe2c;" horiz-adv-x="2253" 
d="M1502 521l103 577q14 79 -8 141t-70 105t-117 66t-149 23q-23 0 -60.5 -2.5t-72.5 -7.5v213q14 4 37.5 7t50.5 5.5t53.5 3t47.5 -0.5h739v-220h-270q35 -17 64 -54t47.5 -86.5t23.5 -108t-8 -116.5l-229 -1065h-195l-412 769l-433 -769h-195l-338 1650h340l200 -1130
l345 611h171z" />
    <glyph glyph-name="oangthai" unicode="&#xe2d;" horiz-adv-x="1914" 
d="M245 1566q63 25 139 46.5t159 37.5t169.5 24.5t169.5 8.5q210 0 370.5 -65.5t268.5 -181t163 -274.5t55 -346q0 -183 -55 -337t-162 -265.5t-265 -174.5t-365 -63q-178 0 -344.5 48.5t-300.5 145.5v735h563v-234h-237v-378q18 -9 49 -21t72.5 -22t92.5 -17.5t110 -7.5
q129 -1 225.5 44.5t161 124t96.5 183.5t32 224q0 51 -6.5 118t-27 137t-58.5 137.5t-102 120t-157 85t-223 32.5q-74 0 -152.5 -7t-155.5 -21t-149.5 -34t-135.5 -46v243z" />
    <glyph glyph-name="honokhukthai" unicode="&#xe2e;" horiz-adv-x="1904" 
d="M245 1534q55 22 120.5 43.5t137.5 37.5t147 26t150 10h982v-228h-319q69 -47 120.5 -114t86 -148t52 -172.5t17.5 -187.5q0 -183 -55 -334.5t-162 -260.5t-265 -169.5t-365 -60.5q-89 0 -179.5 13.5t-175.5 39t-159.5 61.5t-130.5 80v735h563v-234h-237v-376
q21 -12 52 -24.5t72.5 -23t91.5 -17t108 -6.5q129 0 225.5 43.5t161 119t96.5 178t32 221.5q0 51 -6.5 116.5t-27 134t-58.5 133.5t-102 116t-157 82t-223 31q-74 0 -152.5 -7t-155.5 -21t-149.5 -34t-135.5 -46v243z" />
    <glyph glyph-name="paiyannoithai" unicode="&#xe2f;" horiz-adv-x="1873" 
d="M473 1173q0 -31 5 -67.5t19 -73t40.5 -70.5t69.5 -60.5t104.5 -42.5t147.5 -16q96 0 167 17t122.5 42.5t85.5 56.5t55 59v633h326v-1651h-326v720q-57 -45 -120.5 -70t-128 -37.5t-126 -15.5t-115.5 -3q-160 0 -282 41.5t-205 117t-125.5 180.5t-42.5 232q0 111 31 204
t90 160.5t145.5 105t197.5 37.5q30 0 54 -0.5t46.5 -3.5t45 -9t49.5 -16v-222q-39 8 -70 10t-57 2q-47 0 -84.5 -18.5t-63.5 -52t-40.5 -81.5t-14.5 -108z" />
    <glyph glyph-name="saraathai" unicode="&#xe30;" horiz-adv-x="1039" 
d="M189 1090v422h337v-165h458v-257h-795zM189 219v422h337v-165h458v-257h-795z" />
    <glyph glyph-name="maihanakatthai" unicode="&#xe31;" 
d="M-1239 1976v485h347v-230h871v-255h-1218z" />
    <glyph glyph-name="saraaathai" unicode="&#xe32;" horiz-adv-x="1278" 
d="M1019 1h-326v1202q0 76 -23 122t-61 71t-87.5 32.5t-103.5 7.5q-28 0 -71.5 -6.5t-92.5 -18t-97 -28t-84 -35.5v223q35 18 88 38t119 36.5t142 27t159 10.5q100 0 181.5 -24.5t139.5 -74t88.5 -124.5t28.5 -177v-1282z" />
    <glyph glyph-name="saraamthai" unicode="&#xe33;" horiz-adv-x="1278" 
d="M-746 2212q0 67 25.5 126.5t69.5 104t103 70t127 25.5q67 0 126.5 -25.5t104 -70t70 -104t25.5 -126.5q0 -68 -25.5 -127t-70 -103t-104 -69.5t-126.5 -25.5q-68 0 -127 25.5t-103 69.5t-69.5 103t-25.5 127zM-547 2211q0 -26 10 -49t27 -40t40 -27t49 -10t49 10t40 27
t27 40t10 49t-10 49t-27 40t-40 27t-49 10t-49 -10t-40 -27t-27 -40t-10 -49zM1019 1h-326v1202q0 76 -23 122t-61 71t-87.5 32.5t-103.5 7.5q-28 0 -71.5 -6.5t-92.5 -18t-97 -28t-84 -35.5v223q35 18 88 38t119 36.5t142 27t159 10.5q100 0 181.5 -24.5t139.5 -74
t88.5 -124.5t28.5 -177v-1282z" />
    <glyph glyph-name="saraithai" unicode="&#xe34;" 
d="M-1727 1976v255h1469v-255h-1469z" />
    <glyph glyph-name="saraiithai" unicode="&#xe35;" 
d="M-1728 1976v255h1143v283h327v-538h-1470z" />
    <glyph glyph-name="sarauethai" unicode="&#xe36;" 
d="M-640 2286q0 -22 8 -41t22.5 -33.5t33.5 -22.5t41 -8t41 8t33 22.5t22.5 33.5t8.5 41t-8.5 41t-22.5 33t-33 22.5t-41 8.5t-41 -8.5t-33.5 -22.5t-22.5 -33t-8 -41zM-846 2286q0 64 24.5 121t66.5 99t98.5 66.5t121.5 24.5q64 0 121 -24.5t99 -66.5t66.5 -99t24.5 -121
q0 -65 -24.5 -121.5t-66.5 -98.5t-99 -66t-121 -24h-2h-1190v255h886q-2 14 -3.5 27.5t-1.5 27.5z" />
    <glyph glyph-name="saraueethai" unicode="&#xe37;" 
d="M-1728 1976v255h628v283h308v-283h228v283h307v-538h-1471z" />
    <glyph glyph-name="sarauthai" unicode="&#xe38;" 
d="M-258 -203v-543h-307v288h-185v255h492z" />
    <glyph glyph-name="sarauuthai" unicode="&#xe39;" 
d="M-1070 -458h-175v255h452l-1 -238q0 -41 32.5 -65.5t88.5 -24.5q53 0 83 24.5t30 65.5l-1 238h304v-207q1 -165 -94 -250t-303 -85h-37q-71 0 -137.5 14t-119 43.5t-85.5 73.5t-38 104z" />
    <glyph glyph-name="phinthuthai" unicode="&#xe3a;" 
d="M-648 -403q0 45 17.5 85t47 69.5t69.5 47t85 17.5t85 -17.5t70 -47t47.5 -69.5t17.5 -85t-17.5 -85t-47.5 -70t-70 -47.5t-85 -17.5t-85 17.5t-69.5 47.5t-47 70t-17.5 85z" />
    <glyph glyph-name="uni0E3D" unicode="&#xe3d;" 
 />
    <glyph glyph-name="PUCR2005" unicode="&#xe3e;" 
 />
    <glyph glyph-name="bahtthai" unicode="&#xe3f;" horiz-adv-x="2001" 
d="M895 2167h165v-207h55q138 0 238 -38t164.5 -100t95.5 -143t31 -166q0 -74 -17 -140t-54 -121t-97 -96t-145 -64v-9q84 -13 151.5 -44t119 -73.5t88 -94t59.5 -105.5t34 -107t11 -100q0 -43 -10 -101.5t-35 -120.5t-67.5 -123t-107.5 -109t-154.5 -77.5t-209.5 -29.5
h-150v-317h-165v317h-577v1962h577v207zM1454 559q0 88 -29.5 154t-82 110t-123.5 65.5t-155 21.5h-4v-651q119 3 195.5 28.5t120.5 66t61 93.5t17 112zM629 259h266v651h-266v-651zM629 1169h266v533h-266v-533zM1333 1437q0 45 -13 90.5t-44.5 82t-84 61.5t-131.5 30v-529
q77 9 129 39t84 69t46 81.5t14 75.5z" />
    <glyph glyph-name="saraethai" unicode="&#xe40;" horiz-adv-x="888" 
d="M281 1651h326v-1651h-326v1651z" />
    <glyph glyph-name="saraaethai" unicode="&#xe41;" horiz-adv-x="1580" 
d="M281 1651h326v-1651h-326v1651zM973 1651h326v-1651h-326v1651z" />
    <glyph glyph-name="saraothai" unicode="&#xe42;" horiz-adv-x="985" 
d="M318 1470q0 120 -17.5 210.5t-47 157.5t-68 113.5t-80.5 77.5t-84.5 49.5t-80.5 29.5q22 134 74 223t126 141.5t165.5 73t193.5 19.5q64 -1 138.5 -12.5t144.5 -29.5t128 -40.5t89 -45.5l-86 -210q-53 32 -113.5 52.5t-118.5 32t-106.5 16t-77.5 4.5q-22 0 -53.5 -5.5
t-63 -21.5t-59 -43.5t-42.5 -70.5q37 -14 77.5 -40t80 -67t75 -98t63 -132.5t43.5 -170.5t16 -212v-1225h242v-246h-558v1470z" />
    <glyph glyph-name="saraaimaimuanthai" unicode="&#xe43;" horiz-adv-x="985" 
d="M636 2152q-7 43 -27 75.5t-49.5 54.5t-64.5 32.5t-72 10.5q-25 0 -61.5 -5.5t-72 -22.5t-63 -49.5t-34.5 -87.5h-253q9 112 55 188.5t116 124t155 68t172 20.5q134 0 225.5 -36.5t148.5 -98t83.5 -143t32.5 -171.5q-61 -43 -106 -82t-78 -85t-54.5 -104t-34 -139.5
t-17.5 -192t-5 -260.5v-1003h242v-246h-558v1239q0 137 5.5 243.5t19.5 191.5t37.5 151t59 122t84.5 105t114 100z" />
    <glyph glyph-name="saraaimaimalaithai" unicode="&#xe44;" horiz-adv-x="985" 
d="M315 1319q0 113 1.5 204t9 165.5t24 137.5t45.5 120t74 112.5t110 115.5l-2 5q-26 -8 -57 -13.5t-61 -9t-54.5 -5t-37.5 -1.5q-16 0 -43 -0.5t-63.5 1.5t-80.5 8t-92.5 17.5t-99.5 30.5t-102 48l99 231q63 -37 126.5 -57t117.5 -29.5t92.5 -11t51.5 -1.5q16 0 60 0.5
t107 9t141 29t161 60.5l121 -261q-54 -41 -99 -77t-82 -79.5t-65 -102t-47.5 -144.5t-29 -206t-9.5 -288v-1082h242v-246h-558v1319z" />
    <glyph glyph-name="lakkhangyaothai" unicode="&#xe45;" horiz-adv-x="1278" 
d="M1019 -659h-326v1862q0 76 -23 122t-61 71t-87.5 32.5t-103.5 7.5q-28 0 -71.5 -6.5t-92.5 -18t-97 -28t-84 -35.5v223q35 18 88 38t119 36.5t142 27t159 10.5q100 0 181.5 -24.5t139.5 -74t88.5 -124.5t28.5 -177v-1942z" />
    <glyph glyph-name="maiyamokthai" unicode="&#xe46;" horiz-adv-x="1801" 
d="M892 987h-21l-341 291v-573l-311 -1v948h308l355 -324l353 324h308v-1765q0 -106 -34.5 -192t-94 -154.5t-140.5 -119.5t-174 -87l-118 256q51 23 96.5 51.5t80 66.5t54.5 87t20 114v1369z" />
    <glyph glyph-name="maitaikhuthai" unicode="&#xe47;" 
d="M-606 2151q55 0 94.5 10.5t68 26.5t48 34.5t33.5 35.5v-224q-8 -8 -24.5 -22.5t-45 -29t-71 -25.5t-101.5 -11q-44 0 -85 6.5t-77 22t-67 41.5t-55 65q-27 -39 -59.5 -65t-70.5 -41.5t-82 -22t-95 -6.5q-108 0 -186.5 28.5t-129.5 76.5t-75.5 112.5t-24.5 136.5
q0 90 32 156t92 109t146.5 64t195.5 21h783v-207h-764q-54 0 -96 -7t-71 -23t-44.5 -43.5t-15.5 -67.5q0 -46 19 -75.5t48 -46t64.5 -23t68.5 -6.5q61 0 97 16.5t56.5 40.5t28.5 50.5t14 46.5h125q6 -20 13 -46.5t28.5 -50.5t64.5 -40.5t120 -16.5z" />
    <glyph glyph-name="maiekthai" unicode="&#xe48;" 
d="M-584 2728v470h326v-470h-326z" />
    <glyph glyph-name="maithothai" unicode="&#xe49;" 
d="M-867 2942q62 20 90.5 50t28.5 69q0 31 -16 48t-39 23.5t-49 6.5t-47 -2v151q34 10 85 17t114 7q119 0 178.5 -49.5t59.5 -127.5q0 -21 -7.5 -45.5t-21 -48t-32.5 -44t-43 -33.5q32 -6 74.5 -9t83.5 -2q48 0 102 7.5t106 21t99 32.5t81 42v-211q-88 -56 -206 -87
t-249 -31q-112 0 -209 14t-183 44v157z" />
    <glyph glyph-name="maitrithai" unicode="&#xe4a;" 
d="M-658 3219q39 41 94 60t108 19q69 0 120.5 -18.5t86 -50.5t51 -76.5t15.5 -96.5q-1 -40 -16 -78t-46 -57q97 12 170 39t132 79v-194q-24 -22 -64.5 -43t-93 -37.5t-113.5 -26.5t-125 -10q-21 -1 -50 0t-59 3t-56.5 4.5t-42.5 4.5v136q29 1 54.5 11t44 27.5t29 42
t10.5 54.5q0 32 -8 51.5t-20.5 29.5t-29 13t-34.5 3q-34 0 -61 -26t-34 -71h-131q-4 48 -27 73t-64 24q-35 -1 -60.5 -22.5t-25.5 -74.5q0 -36 11 -61.5t29.5 -42t42.5 -24t51 -7.5h23v-134q-10 -4 -24 -7t-29 -5.5t-29.5 -3.5t-26.5 -1q-87 0 -142 29.5t-86.5 73t-43 92.5
t-11.5 88q0 61 21 113.5t60 91.5t94 61.5t123 22.5q25 0 51.5 -4.5t50.5 -14t44.5 -24.5t35.5 -35h1z" />
    <glyph glyph-name="maichattawathai" unicode="&#xe4b;" 
d="M-797 3132h244v187h296v-187h243v-214h-243v-190h-296v190h-244v214z" />
    <glyph glyph-name="thanthakhatthai" unicode="&#xe4c;" 
d="M-142 2896q-146 -14 -223 -61t-77 -136q0 -30 16 -51.5t39 -35.5t49.5 -21.5t46.5 -10.5v-167q-14 -1 -18.5 -0.5t-17.5 0.5q-92 0 -165.5 18t-124.5 52.5t-78 86t-27 119.5q0 97 47 165.5t127 112.5t185.5 64.5t221.5 21.5z" />
    <glyph glyph-name="nikhahitthai" unicode="&#xe4d;" 
d="M-746 2212q0 67 25.5 126.5t69.5 104t103 70t127 25.5q67 0 126.5 -25.5t104 -70t70 -104t25.5 -126.5q0 -68 -25.5 -127t-70 -103t-104 -69.5t-126.5 -25.5q-68 0 -127 25.5t-103 69.5t-69.5 103t-25.5 127zM-547 2211q0 -26 10 -49t27 -40t40 -27t49 -10t49 10t40 27
t27 40t10 49t-10 49t-27 40t-40 27t-49 10t-49 -10t-40 -27t-27 -40t-10 -49z" />
    <glyph glyph-name="yamakkanthai" unicode="&#xe4e;" 
d="M-424 2445q-35 -12 -63 -26.5t-48 -34t-30.5 -45t-9.5 -60.5q1 -33 17.5 -57t40 -40t50 -25t46.5 -12v-167q-14 -1 -18.5 -0.5t-17.5 0.5q-87 0 -160.5 18t-127.5 52.5t-84 86t-30 119.5q0 78 40 133.5t100 84.5q-60 36 -90.5 84t-30.5 124q0 92 45.5 159t123 111
t181 65.5t219.5 22.5l-1 -157q-72 0 -129.5 -13t-98 -37.5t-62 -60t-21.5 -79.5q0 -26 8 -48t24.5 -38t42.5 -24.5t62 -8.5z" />
    <glyph glyph-name="fongmanthai" unicode="&#xe4f;" horiz-adv-x="1925" 
d="M110 817q0 118 30.5 227t86 203.5t133.5 172.5t172.5 133.5t203.5 86t227 30.5t227 -30.5t203.5 -86t172.5 -133.5t133.5 -172.5t86 -203.5t30.5 -227t-30.5 -227t-86 -203.5t-133.5 -172.5t-172.5 -133.5t-203.5 -86t-227 -30.5t-227 30.5t-203.5 86t-172.5 133.5
t-133.5 172.5t-86 203.5t-30.5 227zM573 817q0 81 30.5 152t83.5 124t124 83.5t152 30.5t152 -30.5t124 -83.5t83.5 -124t30.5 -152t-30.5 -152t-83.5 -124t-124 -83.5t-152 -30.5t-152 30.5t-124 83.5t-83.5 124t-30.5 152zM781 817q0 -38 14.5 -71t39 -57.5t57.5 -39
t71 -14.5q37 0 70.5 14.5t58 39t39 57.5t14.5 71q0 37 -14.5 70.5t-39 58t-58 39t-70.5 14.5q-38 0 -71 -14.5t-57.5 -39t-39 -58t-14.5 -70.5zM331 817q0 -131 49.5 -246t135.5 -201t201 -135.5t246 -49.5t246 49.5t201 135.5t135.5 201t49.5 246t-49.5 246t-135.5 201
t-201 135.5t-246 49.5t-246 -49.5t-201 -135.5t-135.5 -201t-49.5 -246z" />
    <glyph glyph-name="zerothai" unicode="&#xe50;" horiz-adv-x="2327" 
d="M1168 1555q121 0 236.5 -23t218.5 -68.5t189.5 -112t149 -154.5t97.5 -196.5t35 -236.5q0 -119 -32 -224.5t-91 -194t-143 -158.5t-188 -118.5t-225 -74.5t-255 -26q-198 0 -367 57.5t-293.5 162t-195 251t-70.5 325.5q0 128 35 236.5t98 196.5t150 154.5t190.5 112
t220.5 68.5t240 23zM1164 225q66 0 137 9.5t138.5 32.5t128 62.5t106 99.5t72.5 143t27 193q0 96 -24.5 172.5t-67.5 136t-102 102t-127 70t-142.5 40.5t-149.5 13q-73 0 -146 -13t-140.5 -40.5t-125.5 -70t-101 -102t-67.5 -136t-24.5 -172.5q0 -111 27 -193.5t72.5 -142.5
t106 -99.5t128 -62.5t138.5 -32.5t137 -9.5z" />
    <glyph glyph-name="onethai" unicode="&#xe51;" horiz-adv-x="2327" 
d="M273 341q183 -58 363 -91.5t369 -33.5q141 0 251 26.5t192 71t139.5 103t92.5 122t51 128t16 120.5q0 97 -32 188.5t-105 162t-190.5 113t-289.5 42.5q-62 0 -125.5 -7t-120.5 -17.5t-103.5 -23t-74.5 -23.5v-300h203v-236h-528v719q82 31 173 58t189.5 47t204.5 32
t218 13q229 3 399 -57t282.5 -166t168.5 -250t56 -309q0 -112 -33.5 -216.5t-96.5 -195t-154.5 -165.5t-207.5 -128t-255.5 -82.5t-297.5 -29.5q-95 0 -198 9.5t-203 26t-191.5 38.5t-161.5 46v265z" />
    <glyph glyph-name="twothai" unicode="&#xe52;" horiz-adv-x="2327" 
d="M1326 779l-546 409v353l546 -411l487 394h308v-914q0 -116 -41 -209t-111.5 -164t-165 -122t-200 -83.5t-217.5 -48t-218 -15.5t-218.5 15.5t-219.5 48t-202.5 83.5t-167 122.5t-113 164t-41.5 208.5v1332h325v-1290q0 -85 31 -148.5t82 -110t117.5 -77t137 -48.5
t140.5 -25.5t129 -7.5q60 0 130 7.5t139.5 25.5t134 48.5t114 77t79.5 110t30 148.5v503z" />
    <glyph glyph-name="threethai" unicode="&#xe53;" horiz-adv-x="2327" 
d="M2056 1524v-1524h-325v1131l-568 -403l-567 403v-678q0 -60 16.5 -96t48.5 -55t78.5 -25t105.5 -6l-1 -271q-136 0 -242.5 16t-180 62.5t-112 131.5t-38.5 224v1090h293l600 -447l599 447h293z" />
    <glyph glyph-name="fourthai" unicode="&#xe54;" horiz-adv-x="2327" 
d="M1311 527q0 -38 18 -80.5t53.5 -82t87.5 -74t120 -56.5q67 6 128.5 14.5t120 19t116 23.5t116.5 27v-244q-168 -54 -382.5 -78.5t-472.5 -26.5q-240 7 -426.5 70.5t-314 169.5t-194 246.5t-66.5 301.5q0 172 71 320t206 256.5t331.5 170t447.5 61.5q112 0 224.5 -10
t216.5 -26.5t195 -38t162 -45.5v-275q-185 61 -368.5 96t-378.5 35q-151 0 -266 -23.5t-200 -63.5t-142 -92t-91.5 -109.5t-49 -116.5t-14.5 -112q0 -101 36 -194.5t114 -168.5t201 -125.5t298 -65.5q-37 28 -68.5 63t-55 77.5t-37 92.5t-14.5 107q-1 59 22.5 116t71 101.5
t118.5 71.5t165 27q68 0 116.5 -9t89.5 -23v-186q-17 6 -48 9t-59 3q-40 0 -76 -6t-63 -22.5t-43 -46.5t-16 -78z" />
    <glyph glyph-name="fivethai" unicode="&#xe55;" horiz-adv-x="2327" 
d="M1331 527q0 -38 18 -80.5t53.5 -82t87.5 -74t120 -56.5q67 6 128.5 14.5t120 19t116 23.5t116.5 27v-244q-168 -54 -382.5 -78.5t-472.5 -26.5q-240 7 -426.5 70.5t-314 169.5t-194 246.5t-66.5 301.5q0 150 53.5 281t156 234.5t252 174t342.5 99.5q-15 48 -15 100
q0 68 26 127.5t70.5 104t104 70.5t127.5 26t127.5 -26t104 -70.5t70.5 -104t26 -127.5q0 -29 -5 -55.5t-13 -51.5q125 -17 234.5 -41.5t192.5 -52.5v-275q-185 61 -368.5 96t-378.5 35q-151 0 -266 -23.5t-200 -63.5t-142 -92t-91.5 -109.5t-49 -116.5t-14.5 -112
q0 -101 36 -194.5t114 -168.5t201 -125.5t298 -65.5q-37 28 -68.5 63t-55 77.5t-37 92.5t-14.5 107q-1 59 22.5 116t71 101.5t118.5 71.5t165 27q68 0 116.5 -9t89.5 -23v-186q-17 6 -48 9t-59 3q-40 0 -76 -6t-63 -22.5t-43 -46.5t-16 -78zM1239 1646q0 -23 9 -43.5
t24.5 -36t36 -24.5t43.5 -9t43.5 9t36 24.5t24.5 36t9 43.5t-9 43.5t-24.5 36t-36 24.5t-43.5 9t-43.5 -9t-36 -24.5t-24.5 -36t-9 -43.5z" />
    <glyph glyph-name="sixthai" unicode="&#xe56;" horiz-adv-x="2327" 
d="M679 1511q32 7 77.5 14t99 12.5t110.5 9t112 3.5q228 0 400 -56.5t287.5 -159t173.5 -245.5t58 -316q0 -182 -72 -332t-207 -258t-329.5 -167.5t-440.5 -59.5q-101 1 -186.5 14t-158 34.5t-133.5 49.5t-113 59v252q145 -81 292 -117t303 -36q85 0 170.5 15t164.5 45.5
t148 75.5t120 105t80 135t29 164q0 122 -38 221t-120.5 168.5t-212 107.5t-311.5 38q-72 0 -150 -5.5t-158.5 -16t-161.5 -26t-159 -36.5v738h326v-430z" />
    <glyph glyph-name="seventhai" unicode="&#xe57;" horiz-adv-x="2327" 
d="M1246 0v1115l-425 -407l-428 408v-1116h-325v1524h293l460 -447l461 447h269v-1262q108 0 186.5 18.5t129 54.5t74.5 89t24 122v1395h294v-1373q0 -102 -24 -183.5t-66.5 -144.5t-100 -108.5t-124 -74.5t-139.5 -43t-146 -14h-413z" />
    <glyph glyph-name="eightthai" unicode="&#xe58;" horiz-adv-x="2327" 
d="M569 748q0 -48 6.5 -101.5t26.5 -108t58.5 -109.5t103.5 -107l394 351h10l398 -355q55 0 96 14t68 38.5t40.5 58t13.5 72.5q0 63 -18 101t-48 57.5t-69.5 23.5t-83.5 -1v232q5 0 20 0.5t32.5 0.5h32h19.5q93 3 167.5 -19t127 -73t80.5 -132.5t28 -198.5q0 -76 -23.5 -157
t-81.5 -153t-156.5 -127t-247.5 -79l-397 360l-392 -359q-85 16 -158 56t-132.5 96.5t-105.5 127t-77.5 147t-47.5 156.5t-16 156q0 176 69 329t202 266t327.5 178t445.5 65q119 0 234 -9.5t219 -26t194 -38t161 -45.5v-275q-92 30 -185 55t-190 42t-200 25.5t-214 6.5
q-146 -3 -257 -28.5t-192 -66t-135.5 -94t-87 -112.5t-46 -120.5t-13.5 -119.5z" />
    <glyph glyph-name="ninethai" unicode="&#xe59;" horiz-adv-x="2298" 
d="M2136 1240q-59 28 -107.5 43.5t-88.5 20.5t-73 1.5t-60 -11.5q-54 -16 -93.5 -47.5t-67.5 -73t-45 -89.5t-25.5 -97.5t-10.5 -97.5t1 -89l418 -800h-301l-678 1266q-37 8 -82.5 9.5t-92.5 -6.5t-93 -26t-84 -48q-48 -41 -76 -94t-42 -110t-18 -113.5t-4 -104.5
q0 -59 4 -128t19 -137t43.5 -128.5t76.5 -102.5q40 -35 92.5 -49.5t108 -17.5t109 2.5t95.5 11.5v-224q-114 -23 -228 -27.5t-231 27.5q-101 28 -178 92t-129 161.5t-78 228t-26 291.5q0 149 35.5 282t116.5 236t212 168t322 78q81 5 151.5 4.5t151.5 -10.5l184 -354
q33 110 81.5 181.5t109.5 113t130.5 58.5t144.5 19q39 1 79.5 -2.5t80 -11t77 -19t69.5 -26.5v-250z" />
    <glyph glyph-name="angkhankhuthai" unicode="&#xe5a;" horiz-adv-x="2520" 
d="M1936 1651h326v-1651h-326v1651zM473 1173q0 -31 5 -67.5t19 -73t40.5 -70.5t69.5 -60.5t104.5 -42.5t147.5 -16q96 0 167 17t122.5 42.5t85.5 56.5t55 59v633h326v-1651h-326v720q-57 -45 -120.5 -70t-128 -37.5t-126 -15.5t-115.5 -3q-160 0 -282 41.5t-205 117
t-125.5 180.5t-42.5 232q0 111 31 204t90 160.5t145.5 105t197.5 37.5q30 0 54 -0.5t46.5 -3.5t45 -9t49.5 -16v-222q-39 8 -70 10t-57 2q-47 0 -84.5 -18.5t-63.5 -52t-40.5 -81.5t-14.5 -108z" />
    <glyph glyph-name="khomutthai" unicode="&#xe5b;" horiz-adv-x="3309" 
d="M2781 857q-43 -47 -94.5 -117t-109.5 -180h-68l-1 1q-37 78 -74 155.5t-82 149.5q-43 -72 -79.5 -154.5t-75.5 -174.5l-99 1q-17 41 -38 86.5t-45 91.5t-50 90.5t-51 82.5q1 -16 1.5 -29t0 -26.5t-1.5 -29.5t-4 -37q-17 -135 -62.5 -246.5t-112.5 -200.5t-153.5 -155
t-184.5 -110t-205 -65.5t-216 -21.5q-134 0 -245.5 34t-200.5 93t-155.5 138t-111 169.5t-67 188t-22.5 192.5q0 168 44 310t131 244.5t216.5 160t301.5 57.5q149 0 254.5 -45.5t172 -122.5t97 -178.5t30.5 -213.5q0 -92 -34.5 -172t-94.5 -140t-140.5 -96.5t-173.5 -42.5
v225q30 3 65.5 19.5t66 45.5t51 70.5t20.5 95.5q0 78 -22 137.5t-62.5 100t-98 61.5t-127.5 21q-76 0 -149 -33.5t-130 -99t-92 -162.5t-35 -225q0 -120 35.5 -225.5t103.5 -184t168.5 -124t230.5 -45.5q140 0 262.5 49t213.5 146t144 242.5t53 339.5q0 64 -1.5 132.5
t-9.5 139.5h232q81 -101 142.5 -200t106.5 -198q16 31 36 67t41 72.5t42.5 72t39.5 67.5l99 2q36 -65 76 -133t78 -131q27 38 45 62t30.5 39.5t21.5 25.5t19 20q14 14 26 24.5t27.5 17t36.5 9.5t52 3h397v-201h-361q-20 0 -37 -6.5t-34 -25.5z" />
    <glyph glyph-name="uni0E74" unicode="&#xe74;" 
 />
    <glyph glyph-name="ZWSP" unicode="&#x200b;" 
 />
    <glyph glyph-name="endash" unicode="&#x2013;" horiz-adv-x="1511" 
d="M1532 907h-1553v250h1553v-250z" />
    <glyph glyph-name="emdash" unicode="&#x2014;" horiz-adv-x="3023" 
d="M3044 907h-3065v250h3065v-250z" />
    <glyph glyph-name="quoteleft" unicode="&#x2018;" horiz-adv-x="819" 
d="M620 1445q0 -37 -14.5 -71t-39.5 -60.5t-59.5 -42.5t-73.5 -16q-53 0 -96 22t-74 62t-48 94.5t-17 120.5q0 102 31 189t84 155.5t125 115t155 67.5v-96q-43 -18 -74 -43t-51.5 -52.5t-30.5 -57t-10 -56.5q0 -41 10.5 -79t34.5 -69q32 -8 59 -25t47 -41t31 -54t11 -63z
" />
    <glyph glyph-name="quoteright" unicode="&#x2019;" horiz-adv-x="819" 
d="M198 1894q0 37 14.5 71t39.5 60.5t59.5 42.5t73.5 16q52 0 95.5 -22t74.5 -62t48 -94.5t17 -120.5q0 -102 -31 -189t-84 -155.5t-125.5 -115t-154.5 -67.5v96q43 18 74 43t51.5 52.5t30.5 57t10 56.5q0 41 -10.5 79t-34.5 69q-32 8 -59 25t-47 41t-31 54t-11 63z" />
    <glyph glyph-name="quotedblleft" unicode="&#x201c;" horiz-adv-x="1702" 
d="M756 1444q0 -37 -14.5 -71t-39.5 -60.5t-59.5 -42.5t-73.5 -16q-53 0 -96 22t-74 62t-48 94.5t-17 120.5q0 102 31 189t84 155.5t125 115t155 67.5v-96q-43 -18 -74 -43t-51.5 -52.5t-30.5 -57t-10 -56.5q0 -41 10.5 -79t34.5 -69q32 -8 59 -25t47 -41t31 -54t11 -63z
M1366 1444q0 -37 -14.5 -71t-39.5 -60.5t-59.5 -42.5t-73.5 -16q-53 0 -96 22t-74 62t-48 94.5t-17 120.5q0 102 31 189t84 155.5t125 115t155 67.5v-96q-43 -18 -74 -43t-51.5 -52.5t-30.5 -57t-10 -56.5q0 -41 10.5 -79t34.5 -69q32 -8 59 -25t47 -41t31 -54t11 -63z" />
    <glyph glyph-name="quotedblright" unicode="&#x201d;" horiz-adv-x="1702" 
d="M944 1894q0 37 14.5 71t39.5 60.5t59.5 42.5t73.5 16q52 0 95.5 -22t74.5 -62t48 -94.5t17 -120.5q0 -102 -31 -189t-84 -155.5t-125.5 -115t-154.5 -67.5v96q43 18 74 43t51.5 52.5t30.5 57t10 56.5q0 41 -10.5 79t-34.5 69q-32 8 -59 25t-47 41t-31 54t-11 63z
M333 1894q0 37 14.5 71t39.5 60.5t59.5 42.5t73.5 16q52 0 95.5 -22t74.5 -62t48 -94.5t17 -120.5q0 -102 -31 -189t-84 -155.5t-125.5 -115t-154.5 -67.5v96q43 18 74 43t51.5 52.5t30.5 57t10 56.5q0 41 -10.5 79t-34.5 69q-32 8 -59 25t-47 41t-31 54t-11 63z" />
    <glyph glyph-name="bullet" unicode="&#x2022;" horiz-adv-x="1610" 
d="M343 886q0 96 36.5 180t99 146.5t146.5 99t180 36.5t180 -36.5t146.5 -99t99 -146.5t36.5 -180t-36.5 -180t-99 -146.5t-146.5 -99t-180 -36.5t-180 36.5t-146.5 99t-99 146.5t-36.5 180z" />
    <glyph glyph-name="Euro" unicode="&#x20ac;" horiz-adv-x="1895" 
d="M140 1360h222q19 69 51.5 150t82.5 162t119.5 157t162 134t211 93t266.5 35q66 0 123.5 -5t111 -15.5t105 -26.5t105.5 -37l-56 -257q-46 18 -86.5 32.5t-81 25t-85 16t-97.5 5.5q-115 0 -211.5 -38t-172 -102t-128.5 -149.5t-81 -179.5h868l-35 -197h-861
q-3 -42 -4 -72.5t-1 -54.5q0 -9 0.5 -19.5t1.5 -25.5t3.5 -35t6.5 -49h814l-35 -197h-747q27 -119 80 -206.5t120.5 -145.5t144.5 -88.5t152 -34.5q43 -3 92.5 -2t107 11.5t123.5 33t142 64.5v-253q-37 -21 -79.5 -42t-98 -37.5t-128.5 -27t-171 -10.5q-128 0 -234.5 31
t-193.5 85t-155 126t-119 154t-86.5 169.5t-55.5 172.5h-252l39 197h188q-1 12 -1.5 25.5l-1 27t-0.5 25v17.5q0 36 2.5 78t5.5 83h-232z" />
    <glyph glyph-name="trademark" unicode="&#x2122;" horiz-adv-x="3023" 
d="M697 1997h-382v167h950v-167h-373v-1012h-195v1012zM1470 2164h337l258 -894h9l258 894h337v-1179h-193v1025h-11l-318 -1025h-158l-315 1025h-11v-1025h-193v1179z" />
    <glyph glyph-name="uni25CC" unicode="&#x25cc;" horiz-adv-x="1928" 
d="M744 516l-136 -44l48 136q37 -55 88 -92zM895 1187l67 129l63 -125q-30 3 -59 3q-34 0 -71 -7zM1021 450l-59 -122l-58 122q28 -7 62 -7q29 0 55 7zM1338 881l118 -63l-118 -55q4 26 4 55q0 33 -4 63zM598 760l-130 66l130 62q-5 -33 -5 -70q0 -29 5 -58zM663 1043
l-37 133l130 -45q-56 -36 -93 -88zM1264 589l37 -117l-118 36q48 34 81 81zM1180 1131l139 45l-47 -137q-37 52 -92 92z" />
    <glyph glyph-name="thothannobasethai" unicode="&#xf700;" horiz-adv-x="1638" 
d="M1054 435q-17 70 -53.5 118t-82.5 77.5t-97.5 41.5t-98.5 11q-41 -2 -76 -10t-70 -25l-67 257q19 15 46.5 25t57 17t57.5 10t49 3q22 0 61.5 -4.5t86 -21.5t95.5 -51.5t92 -95.5v258q0 71 -5.5 136t-34.5 114.5t-92 79t-178 29.5q-55 0 -122 -5.5t-146 -24.5t-169 -54
t-192 -93v254q84 40 166.5 71.5t166.5 53.5t171.5 33.5t180.5 11.5h776v-228h-323q15 -14 36.5 -39t41.5 -65.5t34.5 -98.5t14.5 -137v-1083h-326v435z" />
    <glyph glyph-name="yoyingnobasethai" unicode="&#xf70f;" horiz-adv-x="2848" 
d="M1972 -24q-174 0 -295 39t-196 110t-109 170.5t-34 219.5v490q0 98 -19 168t-50.5 116.5t-71.5 74t-82 41.5t-82 18t-72 4t-72 -3.5t-82 -16.5t-82 -40t-71.5 -73.5t-50.5 -117t-19 -171.5v-761l251 1v-246h-577v1068q0 130 28.5 227t79 166t118 113t145.5 70t162.5 35.5
t168.5 9.5t168.5 -9.5t163 -35t146.5 -70t118 -113.5t79 -165.5t29 -227.5v-507q0 -40 3.5 -79.5t15 -75.5t32 -67.5t54 -54t82 -35.5t115.5 -13q66 0 114 13t81.5 35.5t53.5 54t31 67.5t14.5 75.5t3.5 79.5v1091h326v-1136q0 -120 -33.5 -219.5t-107.5 -170.5t-191.5 -110
t-285.5 -39z" />
    <glyph glyph-name="saraulowthai" unicode="&#xf718;" 
d="M-258 -770v-543h-307v288h-185v255h492z" />
    <glyph glyph-name="sarauulowthai" unicode="&#xf719;" 
d="M-1070 -1025h-175v255h452l-1 -238q0 -41 32.5 -65.5t88.5 -24.5q53 0 83 24.5t30 65.5l-1 238h304v-207q1 -165 -94 -250t-303 -85h-37q-71 0 -137.5 14t-119 43.5t-85.5 73.5t-38 104z" />
    <glyph glyph-name="phinthulowthai" unicode="&#xf71a;" 
d="M-648 -962q0 45 17.5 85t47 69.5t69.5 47t85 17.5t85 -17.5t70 -47t47.5 -69.5t17.5 -85t-17.5 -85t-47.5 -70t-70 -47.5t-85 -17.5t-85 17.5t-69.5 47.5t-47 70t-17.5 85z" />
    <glyph glyph-name="lochula.short" unicode="&#xf71d;" horiz-adv-x="2098" 
d="M1502 521l103 577q14 79 -8 141t-70 105t-117 66t-149 23q-23 0 -60.5 -2.5t-72.5 -7.5v213q14 4 37.5 7t50.5 5.5t53.5 3t47.5 -0.5h739v-220h-270q35 -17 64 -54t47.5 -86.5t23.5 -108t-8 -116.5l-229 -1065h-195l-412 769l-433 -769h-195l-338 1650h340l200 -1130
l345 611h171z" />
    <glyph glyph-name="yamakkanleftthai" 
d="M-806 2442q-35 -12 -63 -26.5t-48 -34t-30.5 -45t-9.5 -60.5q1 -33 17.5 -57t40 -40t50 -25t46.5 -12v-167q-14 -1 -18.5 -0.5t-17.5 0.5q-87 0 -160.5 18t-127.5 52.5t-84 86t-30 119.5q0 78 40 133.5t100 84.5q-60 36 -90.5 84t-30.5 124q0 92 45.5 159t123 111
t181 65.5t219.5 22.5l-1 -157q-72 0 -129.5 -13t-98 -37.5t-62 -60t-21.5 -79.5q0 -26 8 -48t24.5 -38t42.5 -24.5t62 -8.5z" />
    <glyph glyph-name="saraamleft" horiz-adv-x="1278" 
d="M1019 1h-326v1202q0 76 -23 122t-61 71t-87.5 32.5t-103.5 7.5q-28 0 -71.5 -6.5t-92.5 -18t-97 -28t-84 -35.5v223q35 18 88 38t119 36.5t142 27t159 10.5q100 0 181.5 -24.5t139.5 -74t88.5 -124.5t28.5 -177v-1282zM-1414 2212q0 67 25.5 126.5t69.5 104t103 70
t127 25.5q67 0 126.5 -25.5t104 -70t70 -104t25.5 -126.5q0 -68 -25.5 -127t-70 -103t-104 -69.5t-126.5 -25.5q-68 0 -127 25.5t-103 69.5t-69.5 103t-25.5 127zM-1215 2211q0 -26 10 -49t27 -40t40 -27t49 -10t49 10t40 27t27 40t10 49t-10 49t-27 40t-40 27t-49 10
t-49 -10t-40 -27t-27 -40t-10 -49z" />
    <glyph glyph-name="uni0E33.alt1" horiz-adv-x="1278" 
d="M1019 1h-326v1202q0 76 -23 122t-61 71t-87.5 32.5t-103.5 7.5q-28 0 -71.5 -6.5t-92.5 -18t-97 -28t-84 -35.5v223q35 18 88 38t119 36.5t142 27t159 10.5q100 0 181.5 -24.5t139.5 -74t88.5 -124.5t28.5 -177v-1282zM-1414 2212q0 67 25.5 126.5t69.5 104t103 70
t127 25.5q67 0 126.5 -25.5t104 -70t70 -104t25.5 -126.5q0 -68 -25.5 -127t-70 -103t-104 -69.5t-126.5 -25.5q-68 0 -127 25.5t-103 69.5t-69.5 103t-25.5 127zM-1215 2211q0 -26 10 -49t27 -40t40 -27t49 -10t49 10t40 27t27 40t10 49t-10 49t-27 40t-40 27t-49 10
t-49 -10t-40 -27t-27 -40t-10 -49z" />
    <glyph glyph-name="zero.alt1" horiz-adv-x="1727" 
d="M866 1670q76 0 156.5 -16.5t157 -55t144.5 -102.5t119 -158.5t81 -223t30 -295.5q0 -149 -26 -270t-73 -216t-111.5 -163.5t-140.5 -113.5t-162 -66.5t-175 -21.5q-136 0 -261 49t-221 152.5t-153.5 264.5t-57.5 385q0 167 30 295.5t81 223t119 158.5t144.5 102.5t157 55
t156.5 16.5h5zM862 218q39 0 83 9.5t86.5 34t81.5 67t68.5 109.5t47 160.5t17.5 219.5q0 120 -16 211t-44 157.5t-65 111.5t-80 71.5t-88.5 38t-90.5 11.5q-44 0 -89.5 -11.5t-88 -38t-79.5 -71.5t-64.5 -111.5t-43.5 -157.5t-16 -211q0 -126 17.5 -219.5t47 -160.5
t68 -109.5t81 -67t85.5 -34t82 -9.5z" />
    <glyph glyph-name="one.alt1" horiz-adv-x="926" 
d="M622 0h-317v1635h317v-1635z" />
    <glyph glyph-name="two.alt1" horiz-adv-x="1725" 
d="M1572 0h-1367v64q26 17 48.5 33t48.5 34h1q96 67 195.5 143t192.5 157t175 166.5t143 170.5t96.5 168.5t35.5 161.5q0 69 -19 125.5t-58.5 96.5t-100.5 62t-144 22q-63 0 -136 -17.5t-147.5 -45.5t-146.5 -63.5t-135 -70.5v256q79 48 154 83t152.5 58t160.5 34t178 11
q106 0 207.5 -30t180.5 -90.5t127 -152.5t48 -215q0 -125 -43 -237t-121.5 -218.5t-188 -212t-241.5 -218.5h704v-275z" />
    <glyph glyph-name="three.alt1" horiz-adv-x="1598" 
d="M1037 1099q0 52 -17 106.5t-60 98.5t-117.5 72t-188.5 28q-43 0 -96 -3.5t-108.5 -11t-109 -18.5t-98.5 -27v236q51 18 114.5 32.5t130.5 25t133 16.5t122 6q159 0 273 -43t187.5 -114t108.5 -162t35 -186q0 -41 -3 -86t-12.5 -91.5t-27.5 -92t-48 -86t-74.5 -74.5
t-107.5 -57v-5q79 -17 135 -51.5t95 -80t62 -97.5t35 -105t16 -102.5t4 -88.5q0 -142 -46.5 -260t-139 -203t-231 -132t-323.5 -47q-58 0 -120.5 7.5t-125 21.5t-122 33.5t-111.5 42.5v255q53 -27 111.5 -47t117 -33t115 -19t104.5 -6q88 0 167.5 26t140 75t96.5 119.5
t36 159.5q0 106 -31.5 177.5t-86 115.5t-127.5 63t-156 19q-11 0 -22 0.5t-20 -0.5v261q91 1 163.5 18t123 56t77.5 102t27 156z" />
    <glyph glyph-name="four.alt1" horiz-adv-x="1763" 
d="M1430 261h197v-262h-197v-492h-315v492h-925v266l1063 1387h177v-1391zM481 261h634v812z" />
    <glyph glyph-name="five.alt1" horiz-adv-x="1619" 
d="M1344 1348h-742v-534q20 2 45.5 4t49.5 3.5t45 2t32 0.5q115 0 208 -22t164 -61.5t122.5 -95.5t84.5 -123t48.5 -143.5t15.5 -158.5q0 -107 -26 -203t-73.5 -177.5t-113.5 -147t-146.5 -111.5t-172 -70.5t-190.5 -24.5q-71 0 -141 7t-134 19t-120 28t-98 34v242
q91 -40 191.5 -57t220.5 -17q85 0 169.5 24t151.5 75.5t109 131.5t42 193q0 97 -27.5 173t-88 128.5t-157.5 80t-236 27.5q-67 0 -136.5 -7.5t-126.5 -18.5v1085h1030v-286z" />
    <glyph glyph-name="six.alt1" horiz-adv-x="1709" 
d="M694 1280q17 7 44 13t58.5 10t63.5 6t59 1q123 -3 238.5 -45.5t205.5 -124t144 -202.5t54 -281q0 -104 -25.5 -195t-71.5 -167t-111 -136t-143 -101.5t-168 -63.5t-187 -22q-150 0 -279 49t-224 138.5t-149.5 215t-54.5 278.5q0 94 25.5 191.5t67.5 194t95.5 190
t109.5 181.5l465 717h351zM864 234q69 0 139.5 29.5t127.5 83t93.5 129t37.5 167.5q0 102 -30 179.5t-83.5 130t-127 79.5t-160.5 27q-75 0 -147.5 -25.5t-128.5 -77t-90.5 -130t-34.5 -184.5q0 -91 36.5 -166t94.5 -129t130 -83.5t143 -29.5z" />
    <glyph glyph-name="seven.alt1" horiz-adv-x="1577" 
d="M1039 1349h-895v284h1328l-866 -2124h-326z" />
    <glyph glyph-name="eight.alt1" horiz-adv-x="1711" 
d="M857 2164q138 0 256 -37t205 -106.5t136.5 -170.5t49.5 -229q0 -78 -18.5 -150.5t-60 -135t-107 -113t-158.5 -84.5q108 -32 186 -86.5t128.5 -125.5t74.5 -156t24 -177q0 -137 -50 -251t-143 -196t-226.5 -128t-301.5 -46q-165 0 -297 46t-225 128t-142.5 196t-49.5 251
q0 92 24 177t74.5 156t128.5 125.5t186 86.5q-93 34 -158.5 85t-107 114t-60 135t-18.5 149q0 132 49.5 233t136.5 170t206 104.5t258 35.5zM858 1260q59 0 119 16.5t108.5 54.5t79 100.5t30.5 154.5q0 67 -15.5 118t-42 87.5t-61 60.5t-72 38.5t-75.5 20t-71 5.5
q-35 0 -73.5 -5.5t-76.5 -20t-72.5 -38.5t-61.5 -60.5t-42.5 -87.5t-15.5 -118q0 -92 30.5 -154.5t79.5 -100.5t110 -54.5t122 -16.5zM854 239q86 0 159.5 24.5t127 72t84 117t30.5 159.5q0 97 -35 167.5t-91.5 116.5t-127.5 68t-143 22q-74 0 -146 -22t-129 -68t-92 -116.5
t-35 -167.5q0 -90 30.5 -159.5t84 -117t126 -72t157.5 -24.5z" />
    <glyph glyph-name="nine.alt1" horiz-adv-x="1786" 
d="M1055 353q-17 -7 -44 -13t-58.5 -10t-63.5 -6t-59 -1q-123 3 -238.5 45.5t-205.5 124t-144 202t-54 281.5q0 104 25.5 195t71.5 167t111 136t143 101.5t168 63.5t187 22q150 0 279 -49t224 -138.5t149.5 -215t54.5 -278.5q0 -95 -26 -192t-68 -193.5t-95.5 -190
t-108.5 -181.5l-465 -717h-351zM885 1399q-69 0 -139.5 -29.5t-127.5 -83t-93.5 -129t-37.5 -167.5q0 -102 30 -180t83.5 -130.5t127 -79t160.5 -26.5q75 0 147.5 25.5t128.5 77t90.5 130t34.5 184.5q0 91 -36.5 166t-94.5 129t-130 83.5t-143 29.5z" />
    <glyph glyph-name="maiekupperleftthai.alt3" 
d="M-1247 2727v470h326v-470h-326z" />
    <glyph glyph-name="maichattawaupperleftthai.alt3" 
d="M-1439 3133h244v187h283v-187h243v-214h-243v-190h-283v190h-244v214z" />
    <glyph glyph-name="saraithai.alt1" 
d="M-1529 1976v255h1271v-255h-1271z" />
    <glyph glyph-name="saraiithai.alt1" 
d="M-1529 1976v255h943v283h327v-538h-1270z" />
    <glyph glyph-name="sarauethai.alt1" 
d="M-641 2286q0 -22 8 -41t22.5 -33.5t33.5 -22.5t41 -8t41 8t33 22.5t22.5 33.5t8.5 41t-8.5 41t-22.5 33t-33 22.5t-41 8.5t-41 -8.5t-33.5 -22.5t-22.5 -33t-8 -41zM-847 2286q0 64 24.5 121t66.5 99t98.5 66.5t121.5 24.5q64 0 121 -24.5t99 -66.5t66.5 -99t24.5 -121
q0 -65 -24.5 -121.5t-67 -98.5t-99.5 -66t-122 -24h-991v255h687q-2 14 -3.5 27.5t-1.5 27.5z" />
    <glyph glyph-name="saraueethai.alt1" 
d="M-1530 1976v255h500v283h278v-283h217v283h278v-538h-1273z" />
    <glyph glyph-name="maitaikhuthai.alt1" 
d="M-584 2151q55 0 91.5 10.5t61.5 26.5t41 34.5t30 35.5v-229q-1 -3 -15.5 -16t-42 -28t-69 -27t-95.5 -12q-94 0 -162 30.5t-102 104.5q-21 -39 -49 -65t-65 -41.5t-82.5 -22t-100.5 -6.5q-116 0 -189 32t-114.5 83t-57 114t-15.5 125q0 78 31.5 142.5t88.5 110.5
t137.5 71.5t178.5 25.5h723v-207h-704q-108 0 -157.5 -36.5t-49.5 -104.5q0 -46 13.5 -75.5t36.5 -46t54 -23t66 -6.5q67 0 102 16.5t52 40.5t21.5 50.5t10.5 46.5h125q6 -20 13.5 -46.5t28 -50.5t59 -40.5t105.5 -16.5z" />
    <glyph glyph-name="maiekthai.alt1" 
d="M-584 2588v537h326v-537h-326z" />
    <glyph glyph-name="maithothai.alt1" 
d="M-867 2812q62 20 90.5 50t28.5 69q0 31 -16 48t-39 23.5t-49 6.5t-47 -2v151q34 10 85 17t114 7q119 0 178.5 -49.5t59.5 -127.5q0 -21 -7.5 -45.5t-21 -48t-32.5 -44t-43 -33.5q32 -6 74.5 -9t83.5 -2q48 0 102 7.5t106 21t99 32.5t81 42v-211q-88 -56 -206 -87
t-249 -31q-112 0 -209 14t-183 44v157z" />
    <glyph glyph-name="maitrithai.alt1" 
d="M-658 3089q39 41 94 60t108 19q69 0 120.5 -18.5t86 -50.5t51 -76.5t15.5 -96.5q-1 -40 -16 -78t-46 -57q97 12 170 39t132 79v-194q-24 -22 -64.5 -43t-93 -37.5t-113.5 -26.5t-125 -10q-21 -1 -50 0t-59 3t-56.5 4.5t-42.5 4.5v136q29 1 54.5 11t44 27.5t29 42
t10.5 54.5q0 32 -8 51.5t-20.5 29.5t-29 13t-34.5 3q-34 0 -61 -26t-34 -71h-131q-4 48 -27 73t-64 24q-35 -1 -60.5 -22.5t-25.5 -74.5q0 -36 11 -61.5t29.5 -42t42.5 -24t51 -7.5h23v-134q-10 -4 -24 -7t-29 -5.5t-29.5 -3.5t-26.5 -1q-87 0 -142 29.5t-86.5 73t-43 92.5
t-11.5 88q0 61 21 113.5t60 91.5t94 61.5t123 22.5q25 0 51.5 -4.5t50.5 -14t44.5 -24.5t35.5 -35h1z" />
    <glyph glyph-name="maichattawathai.alt1" 
d="M-797 3002h244v187h296v-187h243v-214h-243v-190h-296v190h-244v214z" />
    <glyph glyph-name="maiekupperleftthai.alt2" 
d="M-1149 2598v537h326v-537h-326z" />
    <glyph glyph-name="maithoupperleftthai.alt2" 
d="M-1369 2811q62 20 90.5 50t28.5 69q0 31 -16 48t-39 23.5t-49 6.5t-47 -2v151q34 10 85 17t114 7q119 0 178.5 -49.5t59.5 -127.5q0 -21 -7.5 -45.5t-21 -48t-32.5 -44t-43 -33.5q32 -6 74.5 -9t83.5 -2q48 0 102 7.5t106 21t99 32.5t81 42v-211q-88 -56 -206 -87
t-249 -31q-112 0 -209 14t-183 44v157z" />
    <glyph glyph-name="maitriupperleftthai.alt2" 
d="M-1100 3081q39 41 94 60t108 19q69 0 120.5 -18.5t86 -50.5t51 -76.5t15.5 -96.5q-1 -40 -16 -78t-46 -57q97 12 170 39t132 79v-194q-24 -22 -64.5 -43t-93 -37.5t-113.5 -26.5t-125 -10q-21 -1 -50 0t-59 3t-56.5 4.5t-42.5 4.5v136q29 1 54.5 11t44 27.5t29 42
t10.5 54.5q0 32 -8 51.5t-20.5 29.5t-29 13t-34.5 3q-34 0 -61 -26t-34 -71h-131q-4 48 -27 73t-64 24q-35 -1 -60.5 -22.5t-25.5 -74.5q0 -36 11 -61.5t29.5 -42t42.5 -24t51 -7.5h23v-134q-10 -4 -24 -7t-29 -5.5t-29.5 -3.5t-26.5 -1q-87 0 -142 29.5t-86.5 73t-43 92.5
t-11.5 88q0 61 21 113.5t60 91.5t94 61.5t123 22.5q25 0 51.5 -4.5t50.5 -14t44.5 -24.5t35.5 -35h1z" />
    <glyph glyph-name="maichattawaupperleftthai.alt2" 
d="M-1339 3003h244v187h283v-187h243v-214h-243v-190h-283v190h-244v214z" />
    <glyph glyph-name="saraithai.alt5" 
d="M-2197 1976v255h1939v-255h-1939z" />
    <glyph glyph-name="saraiithai.alt5" 
d="M-2188 1976v255h1603v283h327v-538h-1930z" />
    <glyph glyph-name="sarauethai.alt5" 
d="M-640 2286q0 -22 8 -41t22.5 -33.5t33.5 -22.5t41 -8t41 8t33 22.5t22.5 33.5t8.5 41t-8.5 41t-22.5 33t-33 22.5t-41 8.5t-41 -8.5t-33.5 -22.5t-22.5 -33t-8 -41zM-846 2286q0 64 24.5 121t66.5 99t98.5 66.5t121.5 24.5q64 0 121 -24.5t99 -66.5t66.5 -99t24.5 -121
q0 -65 -24.5 -121.5t-66.5 -98.5t-99 -66t-121 -24h-2h-1660v255h1356q-2 14 -3.5 27.5t-1.5 27.5z" />
    <glyph glyph-name="saraueethai.alt5" 
d="M-2198 1976v255h1098v283h308v-283h228v283h307v-538h-1941z" />
    <glyph glyph-name="maitaikhuthai.alt5" 
d="M-926 2151q55 0 94.5 10.5t68 26.5t48 34.5t33.5 35.5v-224q-8 -8 -24.5 -22.5t-45 -29t-71 -25.5t-101.5 -11q-44 0 -85 6.5t-77 22t-67 41.5t-55 65q-27 -39 -59.5 -65t-70.5 -41.5t-82 -22t-95 -6.5q-108 0 -186.5 28.5t-129.5 76.5t-75.5 112.5t-24.5 136.5
q0 90 32 156t92 109t146.5 64t195.5 21h783v-207h-764q-54 0 -96 -7t-71 -23t-44.5 -43.5t-15.5 -67.5q0 -46 19 -75.5t48 -46t64.5 -23t68.5 -6.5q61 0 97 16.5t56.5 40.5t28.5 50.5t14 46.5h125q6 -20 13 -46.5t28.5 -50.5t64.5 -40.5t120 -16.5z" />
    <glyph glyph-name="maihanakatleftthai.alt6" 
d="M-1966 1976v485h340v-230h930v-255h-1270z" />
    <glyph glyph-name="saraileftthai.alt6" 
d="M-2141 1976v255h1421v-255h-1421z" />
    <glyph glyph-name="saraiileftthai.alt6" 
d="M-2141 1976v255h1093v283h327v-538h-1420z" />
    <glyph glyph-name="saraueleftthai.alt6" 
d="M-1064 2285q0 -22 8 -41t22.5 -33.5t33.5 -22.5t41 -8t41 8t33 22.5t22.5 33.5t8.5 41t-8.5 41t-22.5 33t-33 22.5t-41 8.5t-41 -8.5t-33.5 -22.5t-22.5 -33t-8 -41zM-1270 2285q0 64 24.5 121t66.5 99t98.5 66.5t121.5 24.5q64 0 121 -24.5t99 -66.5t66.5 -99t24.5 -121
q0 -65 -24.5 -121.5t-67 -98.5t-99.5 -66t-122 -24h-1181v255h877q-2 14 -3.5 27.5t-1.5 27.5z" />
    <glyph glyph-name="saraueeleftthai.alt6" 
d="M-2141 1976v255h647v283h278v-283h217v283h278v-538h-1420z" />
    <glyph glyph-name="maiekthai.alt6" 
d="M-1047 2728v470h326v-470h-326z" />
    <glyph glyph-name="maithothai.alt6" 
d="M-1369 2931q62 20 90.5 50t28.5 69q0 31 -16 48t-39 23.5t-49 6.5t-47 -2v151q34 10 85 17t114 7q119 0 178.5 -49.5t59.5 -127.5q0 -21 -7.5 -45.5t-21 -48t-32.5 -44t-43 -33.5q32 -6 74.5 -9t83.5 -2q48 0 102 7.5t106 21t99 32.5t81 42v-211q-88 -56 -206 -87
t-249 -31q-112 0 -209 14t-183 44v157z" />
    <glyph glyph-name="maitrithai.alt6" 
d="M-1100 3211q39 41 94 60t108 19q69 0 120.5 -18.5t86 -50.5t51 -76.5t15.5 -96.5q-1 -40 -16 -78t-46 -57q97 12 170 39t132 79v-194q-24 -22 -64.5 -43t-93 -37.5t-113.5 -26.5t-125 -10q-21 -1 -50 0t-59 3t-56.5 4.5t-42.5 4.5v136q29 1 54.5 11t44 27.5t29 42
t10.5 54.5q0 32 -8 51.5t-20.5 29.5t-29 13t-34.5 3q-34 0 -61 -26t-34 -71h-131q-4 48 -27 73t-64 24q-35 -1 -60.5 -22.5t-25.5 -74.5q0 -36 11 -61.5t29.5 -42t42.5 -24t51 -7.5h23v-134q-10 -4 -24 -7t-29 -5.5t-29.5 -3.5t-26.5 -1q-87 0 -142 29.5t-86.5 73t-43 92.5
t-11.5 88q0 61 21 113.5t60 91.5t94 61.5t123 22.5q25 0 51.5 -4.5t50.5 -14t44.5 -24.5t35.5 -35h1z" />
    <glyph glyph-name="maichattawathai.alt6" 
d="M-1239 3133h244v187h283v-187h243v-214h-243v-190h-283v190h-244v214z" />
    <glyph glyph-name="maitrithai.alt7" 
d="M-458 3219q39 41 94 60t108 19q69 0 120.5 -18.5t86 -50.5t51 -76.5t15.5 -96.5q-1 -40 -16 -78t-46 -57q97 12 170 39t132 79v-194q-24 -22 -64.5 -43t-93 -37.5t-113.5 -26.5t-125 -10q-21 -1 -50 0t-59 3t-56.5 4.5t-42.5 4.5v136q29 1 54.5 11t44 27.5t29 42
t10.5 54.5q0 32 -8 51.5t-20.5 29.5t-29 13t-34.5 3q-34 0 -61 -26t-34 -71h-131q-4 48 -27 73t-64 24q-35 -1 -60.5 -22.5t-25.5 -74.5q0 -36 11 -61.5t29.5 -42t42.5 -24t51 -7.5h23v-134q-10 -4 -24 -7t-29 -5.5t-29.5 -3.5t-26.5 -1q-87 0 -142 29.5t-86.5 73t-43 92.5
t-11.5 88q0 61 21 113.5t60 91.5t94 61.5t123 22.5q25 0 51.5 -4.5t50.5 -14t44.5 -24.5t35.5 -35h1z" />
    <glyph glyph-name="saraithai.alt8" 
d="M-1359 1976v255h1101v-255h-1101z" />
    <glyph glyph-name="saraiithai.alt8" 
d="M-1359 1976v255h773v283h327v-538h-1100z" />
    <glyph glyph-name="sarauethai.alt8" 
d="M-641 2286q0 -22 8 -41t22.5 -33.5t33.5 -22.5t41 -8t41 8t33 22.5t22.5 33.5t8.5 41t-8.5 41t-22.5 33t-33 22.5t-41 8.5t-41 -8.5t-33.5 -22.5t-22.5 -33t-8 -41zM-847 2286q0 64 24.5 121t66.5 99t98.5 66.5t121.5 24.5q64 0 121 -24.5t99 -66.5t66.5 -99t24.5 -121
q0 -65 -24.5 -121.5t-67 -98.5t-99.5 -66t-122 -24h-821v255h517q-2 14 -3.5 27.5t-1.5 27.5z" />
    <glyph glyph-name="saraueethai.alt8" 
d="M-1360 1976v255h346v283h265v-283h217v283h275v-538h-1103z" />
    <glyph glyph-name="maitaikhuthai.alt8" 
d="M-483 2151q52 0 87 10.5t58.5 26.5t38.5 34.5t29 35.5v-229q-1 -3 -14.5 -16t-40 -28t-65.5 -27t-91 -12q-44 0 -83 7.5t-71 23.5t-56.5 41.5t-40.5 62.5q-20 -39 -46.5 -65t-61.5 -41.5t-78 -22t-96 -6.5q-110 0 -179 32t-109 83t-54.5 114t-14.5 125q0 78 30 142.5
t84 110.5t130.5 71.5t169.5 25.5h687v-207h-669q-102 0 -147 -37t-45 -104q0 -46 12 -75.5t33 -46t50 -23t62 -6.5q63 0 97 16.5t50 40.5t20.5 50.5t9.5 46.5h119q5 -20 12.5 -46.5t27 -50.5t56 -40.5t99.5 -16.5z" />
    <glyph glyph-name="saraithai.alt9" 
d="M-1629 1976v255h1471v-255h-1471z" />
    <glyph glyph-name="saraiithai.alt9" 
d="M-1629 1976v255h1143v283h327v-538h-1470z" />
    <glyph glyph-name="sarauethai.alt9" 
d="M-541 2286q0 -22 8 -41t22.5 -33.5t33.5 -22.5t41 -8t41 8t33 22.5t22.5 33.5t8.5 41t-8.5 41t-22.5 33t-33 22.5t-41 8.5t-41 -8.5t-33.5 -22.5t-22.5 -33t-8 -41zM-747 2286q0 64 24.5 121t66.5 99t98.5 66.5t121.5 24.5q64 0 121 -24.5t99 -66.5t66.5 -99t24.5 -121
q0 -65 -24.5 -121.5t-67 -98.5t-99.5 -66t-122 -24h-1191v255h887q-2 14 -3.5 27.5t-1.5 27.5z" />
    <glyph glyph-name="saraueethai.alt9" 
d="M-1630 1976v255h700v283h278v-283h217v283h278v-538h-1473z" />
    <glyph glyph-name="maiekthai.alt9" 
d="M-484 2728v470h326v-470h-326z" />
    <glyph glyph-name="maithothai.alt9" 
d="M-867 2942q62 20 90.5 50t28.5 69q0 31 -16 48t-39 23.5t-49 6.5t-47 -2v151q34 10 85 17t114 7q119 0 178.5 -49.5t59.5 -127.5q0 -21 -7.5 -45.5t-21 -48t-32.5 -44t-43 -33.5q32 -6 74.5 -9t83.5 -2q48 0 102 7.5t106 21t99 32.5t81 42v-211q-88 -56 -206 -87
t-249 -31q-112 0 -209 14t-183 44v157z" />
    <glyph glyph-name="maitrithai.alt9" 
d="M-558 3219q39 41 94 60t108 19q69 0 120.5 -18.5t86 -50.5t51 -76.5t15.5 -96.5q-1 -40 -16 -78t-46 -57q97 12 170 39t132 79v-194q-24 -22 -64.5 -43t-93 -37.5t-113.5 -26.5t-125 -10q-21 -1 -50 0t-59 3t-56.5 4.5t-42.5 4.5v136q29 1 54.5 11t44 27.5t29 42
t10.5 54.5q0 32 -8 51.5t-20.5 29.5t-29 13t-34.5 3q-34 0 -61 -26t-34 -71h-131q-4 48 -27 73t-64 24q-35 -1 -60.5 -22.5t-25.5 -74.5q0 -36 11 -61.5t29.5 -42t42.5 -24t51 -7.5h23v-134q-10 -4 -24 -7t-29 -5.5t-29.5 -3.5t-26.5 -1q-87 0 -142 29.5t-86.5 73t-43 92.5
t-11.5 88q0 61 21 113.5t60 91.5t94 61.5t123 22.5q25 0 51.5 -4.5t50.5 -14t44.5 -24.5t35.5 -35h1z" />
    <glyph glyph-name="maichattawathai.alt9" 
d="M-697 3132h244v187h296v-187h243v-214h-243v-190h-296v190h-244v214z" />
    <glyph glyph-name="sarauthai.alt10" 
d="M-658 -203v-543h-307v288h-185v255h492z" />
    <glyph glyph-name="sarauuthai.alt10" 
d="M-1270 -458h-175v255h452l-1 -238q0 -41 32.5 -65.5t88.5 -24.5q53 0 83 24.5t30 65.5l-1 238h304v-207q1 -165 -94 -250t-303 -85h-37q-71 0 -137.5 14t-119 43.5t-85.5 73.5t-38 104z" />
    <glyph glyph-name="phinthuthai.alt10" 
d="M-1118 -403q0 45 17.5 85t47 69.5t69.5 47t85 17.5t85 -17.5t70 -47t47.5 -69.5t17.5 -85t-17.5 -85t-47.5 -70t-70 -47.5t-85 -17.5t-85 17.5t-69.5 47.5t-47 70t-17.5 85z" />
    <glyph glyph-name="sarauthai.alt11" 
d="M-568 -203v-543h-307v288h-185v255h492z" />
    <glyph glyph-name="sarauuthai.alt11" 
d="M-1387 -458h-175v255h452l-1 -238q0 -41 32.5 -65.5t88.5 -24.5q53 0 83 24.5t30 65.5l-1 238h304v-207q1 -165 -94 -250t-303 -85h-37q-71 0 -137.5 14t-119 43.5t-85.5 73.5t-38 104z" />
    <glyph glyph-name="phinthuthai.alt11" 
d="M-938 -403q0 45 17.5 85t47 69.5t69.5 47t85 17.5t85 -17.5t70 -47t47.5 -69.5t17.5 -85t-17.5 -85t-47.5 -70t-70 -47.5t-85 -17.5t-85 17.5t-69.5 47.5t-47 70t-17.5 85z" />
    <glyph glyph-name="sarauthai.alt12" 
d="M-478 -203v-543h-307v288h-185v255h492z" />
    <glyph glyph-name="sarauuthai.alt12" 
d="M-1300 -458h-175v255h452l-1 -238q0 -41 32.5 -65.5t88.5 -24.5q53 0 83 24.5t30 65.5l-1 238h304v-207q1 -165 -94 -250t-303 -85h-37q-71 0 -137.5 14t-119 43.5t-85.5 73.5t-38 104z" />
    <glyph glyph-name="phinthuthai.alt12" 
d="M-808 -403q0 45 17.5 85t47 69.5t69.5 47t85 17.5t85 -17.5t70 -47t47.5 -69.5t17.5 -85t-17.5 -85t-47.5 -70t-70 -47.5t-85 -17.5t-85 17.5t-69.5 47.5t-47 70t-17.5 85z" />
    </font>
</defs>
</svg>
