<?xml version="1.0" standalone="no"?>
<!DOCTYPE svg PUBLIC "-//W3C//DTD SVG 1.1//EN" "http://www.w3.org/Graphics/SVG/1.1/DTD/svg11.dtd" >
<svg xmlns="http://www.w3.org/2000/svg" xmlns:xlink="http://www.w3.org/1999/xlink" version="1.1">
<metadata>
Created by FontForge 20170731 at Wed Jun 28 15:41:55 2017
 By Aleksey,,,
Copyright (c) 2017 by Dan Gneiding. All rights reserved.
</metadata>
<defs>
<font id="LehighCommercial-Bold" horiz-adv-x="694" >
  <font-face 
    font-family="Lehigh Commercial"
    font-weight="700"
    font-stretch="normal"
    units-per-em="1200"
    panose-1="2 6 4 3 3 5 3 0 2 3"
    ascent="950"
    descent="-250"
    x-height="515"
    cap-height="750"
    bbox="-178 -325 1531 1100"
    underline-thickness="124"
    underline-position="-348"
    unicode-range="U+0020-FF09"
  />
<missing-glyph horiz-adv-x="1116" 
d="M558 857q206 0 352 -146t146 -352t-146 -352t-352 -146t-352 146t-146 352t146 352t352 146zM558 -88q184 0 315.5 131t131.5 316t-131.5 316t-315.5 131t-315.5 -131t-131.5 -316t131.5 -316t315.5 -131zM699 705v-242h121v-363h-80v-40h-363v40h-81v363h121v242h282z
M780 423h-121v242h-202v-242h-121v-283h41v202h40v-242h121v81h-40v40h40v242h-40v161h121v-161h-41v-242h41v-40h-41v-81h121v242h41v-202h40v283zM457 140v41h41v-41h-41zM659 140h-40v41h40v-41z" />
    <glyph glyph-name=".notdef" horiz-adv-x="1116" 
d="M558 857q206 0 352 -146t146 -352t-146 -352t-352 -146t-352 146t-146 352t146 352t352 146zM558 -88q184 0 315.5 131t131.5 316t-131.5 316t-315.5 131t-315.5 -131t-131.5 -316t131.5 -316t315.5 -131zM699 705v-242h121v-363h-80v-40h-363v40h-81v363h121v242h282z
M780 423h-121v242h-202v-242h-121v-283h41v202h40v-242h121v81h-40v40h40v242h-40v161h121v-161h-41v-242h41v-40h-41v-81h121v242h41v-202h40v283zM457 140v41h41v-41h-41zM659 140h-40v41h40v-41z" />
    <glyph glyph-name=".null" horiz-adv-x="0" 
 />
    <glyph glyph-name="nonmarkingreturn" horiz-adv-x="400" 
 />
    <glyph glyph-name="space" unicode=" " horiz-adv-x="202" 
 />
    <glyph glyph-name="exclam" unicode="!" horiz-adv-x="272" 
d="M60 242l-7 508h166l-6 -508h-153zM136 -20q-44 0 -72.5 25.5t-28.5 63.5t28.5 64t72.5 26t73 -26t29 -64t-29 -63.5t-73 -25.5z" />
    <glyph glyph-name="quotedbl" unicode="&#x22;" horiz-adv-x="468" 
d="M65 526l-10 244h145l-10 -244h-125zM278 526l-11 244h146l-10 -244h-125z" />
    <glyph glyph-name="numbersign" unicode="#" horiz-adv-x="726" 
d="M702 461h-120l-34 -172h111v-115h-133l-34 -174h-129l34 174h-146l-34 -174h-129l34 174h-98v115h120l34 172h-111v115h133l34 174h129l-34 -174h146l34 174h129l-34 -174h98v-115zM419 289l34 172h-146l-34 -172h146z" />
    <glyph glyph-name="dollar" unicode="$" horiz-adv-x="691" 
d="M626 208q0 -102 -62 -162.5t-172 -65.5v-99h-113v114q-75 27 -104 87l-16 -82h-93v249h126q5 -63 43 -103.5t97 -40.5q43 0 73.5 22.5t30.5 61.5q0 42 -35 69t-105 54q-40 16 -65 27.5t-59 33.5t-53.5 45.5t-33.5 60t-14 80.5q0 93 60.5 147t147.5 63v100h113v-113
q67 -25 93 -72l14 66h94v-232h-128q-4 62 -35.5 98t-79.5 36q-41 0 -66.5 -22.5t-25.5 -56.5q0 -38 31 -64t90 -50q112 -45 154 -75q92 -66 93 -176z" />
    <glyph glyph-name="percent" unicode="%" horiz-adv-x="959" 
d="M231 770q88 0 142.5 -51.5t54.5 -132.5q0 -82 -54.5 -133.5t-142.5 -51.5t-142.5 51.5t-54.5 133.5q0 81 54.5 132.5t142.5 51.5zM242 0l607 750h-131l-607 -750h131zM157 586q0 -55 20 -84.5t54 -29.5t54 30t20 84q0 53 -20 82.5t-54 29.5t-54 -29.5t-20 -82.5zM729 349
q88 0 142.5 -51.5t54.5 -132.5q0 -82 -54.5 -133.5t-142.5 -51.5t-142.5 51.5t-54.5 133.5q0 81 54.5 132.5t142.5 51.5zM729 51q34 0 54 30t20 84q0 53 -20 82.5t-54 29.5t-54.5 -29.5t-20.5 -82.5q0 -54 20.5 -84t54.5 -30z" />
    <glyph glyph-name="ampersand" unicode="&#x26;" horiz-adv-x="863" 
d="M819 267h-81q-12 -57 -42 -106l20 -22q18 -18 48 -18h54v-121h-158q-57 0 -88 34l-26 29q-36 -38 -95 -60.5t-124 -22.5q-130 0 -206.5 58.5t-76.5 156.5q0 69 51.5 125.5t140.5 87.5l-30 34q-55 72 -55 138q0 86 72.5 138t192.5 52q103 0 168.5 -51.5t65.5 -132.5
q0 -60 -39.5 -103t-132.5 -86l145 -157q20 42 20 93v51h176v-117zM421 656q-32 -1 -52 -21.5t-20 -55.5q0 -14 6.5 -30t13.5 -26t17.5 -23.5t10.5 -14.5l12 -13q38 18 61.5 46.5t23.5 58.5q0 39 -19.5 59.5t-53.5 19.5zM349 94q78 0 125 49l-162 181q-38 -18 -60.5 -49
t-22.5 -68q0 -52 32 -82.5t88 -30.5z" />
    <glyph glyph-name="quotesingle" unicode="'" horiz-adv-x="255" 
d="M65 526l-10 244h145l-10 -244h-125z" />
    <glyph glyph-name="parenleft" unicode="(" horiz-adv-x="451" 
d="M400 753q-56 -52 -114 -179t-58 -269q0 -143 58.5 -271t113.5 -178l-113 -85q-103 84 -169.5 223.5t-66.5 310.5q0 170 66.5 309t169.5 224z" />
    <glyph glyph-name="parenright" unicode=")" horiz-adv-x="451" 
d="M163 838q104 -85 170.5 -224t66.5 -309q0 -171 -66.5 -310.5t-170.5 -223.5l-112 85q55 50 113.5 178t58.5 271q0 142 -58.5 269t-113.5 179z" />
    <glyph glyph-name="asterisk" unicode="*" horiz-adv-x="598" 
d="M359 749l-11 -171l160 63l19 6l37 -114l-19 -7l-167 -41l110 -132l12 -17l-98 -70l-11 16l-91 146l-92 -145l-12 -17l-98 70l12 17l110 132l-166 42l-19 6l36 114l19 -6l160 -63l-11 171v21h120v-21z" />
    <glyph glyph-name="plus" unicode="+" horiz-adv-x="693" 
d="M632 367v-124h-221v-214h-129v214h-221v124h221v215h129v-215h221z" />
    <glyph glyph-name="comma" unicode="," horiz-adv-x="258" 
d="M122 159q45 0 73 -29.5t28 -81.5q0 -57 -39.5 -118t-107.5 -103l-37 33q18 19 26 28t24.5 35.5t25.5 55.5q-45 5 -70 31t-25 59q0 38 29 64t73 26z" />
    <glyph glyph-name="hyphen" unicode="-" horiz-adv-x="546" 
d="M61 336h424v-124h-424v124z" />
    <glyph glyph-name="period" unicode="." horiz-adv-x="272" 
d="M136 -20q-44 0 -72.5 25.5t-28.5 63.5t28.5 64t72.5 26t73 -26t29 -64t-29 -63.5t-73 -25.5z" />
    <glyph glyph-name="slash" unicode="/" horiz-adv-x="593" 
d="M24 -89l390 889h155l-390 -889h-155z" />
    <glyph glyph-name="zero" unicode="0" horiz-adv-x="732" 
d="M366 770q152 0 238 -110t86 -283q0 -176 -85.5 -286.5t-238.5 -110.5q-154 0 -239 110.5t-85 286.5q0 173 85.5 283t238.5 110zM366 116q63 0 100 66t37 195q0 128 -37 192.5t-100 64.5q-64 0 -100.5 -64.5t-36.5 -192.5q0 -129 36.5 -195t100.5 -66z" />
    <glyph glyph-name="one" unicode="1" horiz-adv-x="527" 
d="M367 121h107v-121h-404v121h122v440q-21 -3 -43 -3q-48 0 -78 8v129q16 -2 26 -2q117 0 131 57h139v-629z" />
    <glyph glyph-name="two" unicode="2" horiz-adv-x="676" 
d="M53 0v71q0 55 28 102.5t70.5 79t92 64.5t92 59.5t70.5 63.5t28 78q0 56 -28 86t-76 30t-79 -35.5t-31 -103.5l1 -18h-158q-2 12 -2 18q0 118 75 196.5t198 78.5q130 0 201 -63t71 -175q0 -70 -36 -127.5t-88.5 -94t-105.5 -67t-93.5 -61t-45.5 -61.5h259v87h115v-208
h-558z" />
    <glyph glyph-name="three" unicode="3" horiz-adv-x="646" 
d="M462 384q60 -19 102.5 -66t42.5 -112q0 -97 -82.5 -161.5t-212.5 -64.5q-127 0 -202.5 75.5t-75.5 192.5v24h171v-25q0 -61 27.5 -95.5t78.5 -34.5q49 0 78 30.5t29 80.5q0 44 -26 71.5t-75 27.5h-55v101h58q94 0 94 98q0 50 -28 79t-75 29q-51 0 -77.5 -35t-26.5 -95
l1 -15h-167q-1 10 -1 15q0 120 74.5 193t196.5 73q131 0 209.5 -62.5t78.5 -154.5q0 -63 -40.5 -106t-96.5 -63z" />
    <glyph glyph-name="four" unicode="4" horiz-adv-x="644" 
d="M612 221h-111v-100h85v-121h-365v121h111v100h-330v104l338 425h161v-425h111v-104zM134 325h198v257z" />
    <glyph glyph-name="five" unicode="5" horiz-adv-x="669" 
d="M368 508q122 0 182.5 -69t60.5 -187q0 -116 -78.5 -194t-207.5 -78q-124 0 -198.5 75.5t-73.5 188.5v12h159v-12q-1 -64 28 -96t79 -32q51 0 80 37t29 104q0 61 -28.5 103t-79.5 42q-32 0 -59.5 -14t-38.5 -26t-13 -18l-127 22l41 384h441v-132h-329l-20 -161
q66 51 153 51z" />
    <glyph glyph-name="six" unicode="6" horiz-adv-x="686" 
d="M651 231q0 -105 -77.5 -178t-217.5 -73q-149 0 -230.5 110t-81.5 283q0 182 81.5 289.5t232.5 107.5q116 0 186.5 -63t75.5 -161h-169q-13 46 -34.5 67t-58.5 21q-116 0 -127 -237q0 -18 2 -22q54 84 178 84q97 0 168.5 -65t71.5 -163zM365 361q-52 0 -88 -34t-36 -89
q0 -48 34.5 -85t82.5 -37q53 0 87.5 33t34.5 86q0 56 -34 91t-81 35z" />
    <glyph glyph-name="seven" unicode="7" horiz-adv-x="637" 
d="M48 750h557v-121q-269 -286 -269 -629h-194q0 88 31.5 185.5t82 181t101 149.5t99.5 113h-286v-105h-122v226z" />
    <glyph glyph-name="eight" unicode="8" horiz-adv-x="702" 
d="M524 401q134 -54 134 -183q0 -101 -80 -169.5t-227 -68.5t-226.5 68.5t-79.5 169.5q0 63 34.5 110t98.5 73q-95 52 -95 156q0 90 70 151.5t198 61.5t198.5 -61.5t70.5 -151.5q0 -104 -96 -156zM351 653q-47 0 -78.5 -28.5t-31.5 -71.5q0 -51 30 -79.5t80 -28.5t80 28.5
t30 79.5q0 43 -31.5 71.5t-78.5 28.5zM351 108q54 0 90 33.5t36 82.5q0 55 -35 86t-91 31t-91 -31t-35 -86q0 -49 36 -82.5t90 -33.5z" />
    <glyph glyph-name="nine" unicode="9" horiz-adv-x="686" 
d="M329 770q149 0 231 -110t82 -283q0 -179 -83 -288t-231 -109q-117 0 -189 61.5t-77 159.5h169q21 -85 97 -85q58 0 90 59t37 191q-58 -79 -180 -79q-96 0 -168 66t-72 164q0 105 77 179t217 74zM320 386q52 0 88.5 35t36.5 91q0 48 -35 85t-82 37q-53 0 -87.5 -33.5
t-34.5 -87.5q0 -56 34 -91.5t80 -35.5z" />
    <glyph glyph-name="colon" unicode=":" horiz-adv-x="272" 
d="M136 305q-44 0 -72.5 26t-28.5 64t28.5 64t72.5 26t73 -26t29 -64t-29 -64t-73 -26zM136 -20q-44 0 -72.5 25.5t-28.5 63.5t28.5 64t72.5 26t73 -26t29 -64t-29 -63.5t-73 -25.5z" />
    <glyph glyph-name="semicolon" unicode=";" horiz-adv-x="286" 
d="M145 305q-44 0 -72.5 26t-28.5 64t28.5 64t72.5 26t73 -26t29 -64t-29 -64t-73 -26zM145 159q45 0 73.5 -29.5t28.5 -81.5q0 -57 -40 -118t-108 -103l-37 33q57 57 77 119q-45 5 -70 31t-25 59q0 38 28.5 64t72.5 26z" />
    <glyph glyph-name="less" unicode="&#x3c;" horiz-adv-x="683" 
d="M622 571v-124l-431 -158l431 -162v-124l-571 230v112z" />
    <glyph glyph-name="equal" unicode="=" horiz-adv-x="693" 
d="M61 491h571v-124h-571v124zM61 243h571v-124h-571v124z" />
    <glyph glyph-name="greater" unicode="&#x3e;" horiz-adv-x="683" 
d="M61 571l571 -226v-112l-571 -230v124l431 162l-431 158v124z" />
    <glyph glyph-name="question" unicode="?" horiz-adv-x="582" 
d="M25 535q0 107 72 171t201 64q126 0 193.5 -55t67.5 -138q0 -52 -21 -90.5t-50.5 -62t-59.5 -45.5t-51 -54.5t-21 -74.5l1 -18h-153q-1 16 -1 29q0 41 12 74t30.5 53t40 41t40 38t30.5 43.5t12 57.5q0 33 -18.5 62t-62.5 29q-91 0 -91 -124q0 -4 0.5 -9.5t0.5 -7.5h-171
q-1 9 -1 17zM289 -20q-44 0 -73 25.5t-29 63.5t29 64t73 26t72.5 -26t28.5 -64t-28.5 -63.5t-72.5 -25.5z" />
    <glyph glyph-name="at" unicode="@" horiz-adv-x="1038" 
d="M776 521q-55 -223 -65 -262q-11 -44 1.5 -75.5t49.5 -31.5q46 0 87 50t41 149q0 153 -92.5 241.5t-250.5 88.5q-163 0 -281 -116t-117 -295q1 -155 104.5 -254.5t261.5 -99.5q125 0 218 65l54 -70q-117 -79 -283 -79q-196 0 -324.5 122.5t-128.5 315.5q0 146 70 260.5
t185 174.5t252 60q194 0 311.5 -114t117.5 -300q0 -137 -71 -209t-183 -72q-59 0 -99 26.5t-58 64.5q-23 -37 -68 -62.5t-101 -25.5q-76 0 -112.5 64t-12.5 172q25 108 87.5 168t139.5 60q49 0 79 -20.5t39 -52.5q13 54 14 57h135zM481 169q31 0 56.5 20t33.5 50
q4 15 14.5 59.5t16.5 67.5q9 32 -5.5 54.5t-47.5 22.5q-36 0 -66 -35.5t-45 -98.5q-15 -64 -3.5 -102t46.5 -38z" />
    <glyph glyph-name="A" unicode="A" horiz-adv-x="782" 
d="M698 121h60v-121h-315v121h66l-31 114h-212l-30 -114h65v-121h-277v121h63l191 631h226zM289 323h165l-84 308z" />
    <glyph glyph-name="B" unicode="B" horiz-adv-x="753" 
d="M490 392q220 -12 220 -181q0 -211 -284 -211h-365v121h72v508h-72v121h343q130 0 198.5 -42.5t68.5 -140.5q0 -162 -181 -175zM308 629v-191h87q96 0 96 95q0 49 -25.5 72.5t-69.5 23.5h-88zM403 121q53 0 80.5 24.5t27.5 82.5q0 54 -29 80.5t-80 26.5h-94v-214h95z" />
    <glyph glyph-name="C" unicode="C" horiz-adv-x="761" 
d="M538 291h169q-5 -149 -85 -230t-227 -81q-160 0 -252 111t-92 285q0 169 86 281.5t219 112.5q154 0 211 -120l12 100h115v-271h-165q-10 73 -45.5 113.5t-84.5 40.5q-68 0 -107 -66.5t-39 -189.5q0 -122 42 -191t110 -69q105 0 133 174z" />
    <glyph glyph-name="D" unicode="D" horiz-adv-x="786" 
d="M406 750q162 0 245.5 -101.5t83.5 -271.5q0 -173 -83.5 -275t-245.5 -102h-345v121h72v508h-72v121h345zM308 629v-508h74q74 0 114.5 64t40.5 192q0 252 -155 252h-74z" />
    <glyph glyph-name="E" unicode="E" horiz-adv-x="690" 
d="M630 486h-101v26q0 70 -16.5 93.5t-67.5 23.5h-133v-187h149v-109h-149v-212h133q50 0 67 25.5t17 94.5v49h101v-290h-569v121h76v508h-76v121h569v-264z" />
    <glyph glyph-name="F" unicode="F" horiz-adv-x="666" 
d="M61 750h552v-260h-101v27q0 65 -17 88.5t-67 23.5h-116v-211h152v-109h-152v-188h109v-121h-360v121h76v508h-76v121z" />
    <glyph glyph-name="G" unicode="G" horiz-adv-x="798" 
d="M442 369h326v-99h-49v-270h-110l-18 123q-65 -143 -220 -143q-152 0 -236 108t-84 289q0 177 86 285t231 108q152 0 213 -128l13 108h116v-256h-175q-10 67 -44.5 103t-85.5 36q-72 0 -114 -68t-42 -188t44 -190t120 -70q59 0 98.5 41t43.5 112h-113v99z" />
    <glyph glyph-name="H" unicode="H" horiz-adv-x="867" 
d="M806 629h-72v-508h72v-121h-303v121h56v213h-251v-213h56v-121h-303v121h72v508h-72v121h303v-121h-56v-191h251v191h-56v121h303v-121z" />
    <glyph glyph-name="I" unicode="I" horiz-adv-x="449" 
d="M61 0v121h76v508h-76v121h327v-121h-76v-508h76v-121h-327z" />
    <glyph glyph-name="J" unicode="J" horiz-adv-x="627" 
d="M519 253q0 -132 -59 -202.5t-203 -70.5q-142 0 -192.5 66.5t-50.5 209.5v53h166v-83q0 -110 77 -110q42 0 64.5 28.5t22.5 81.5v403h-86v121h337v-121h-76v-376z" />
    <glyph glyph-name="K" unicode="K" horiz-adv-x="827" 
d="M728 121h63v-121h-322v121h58l-126 221l-89 -86v-135h50v-121h-301v121h76v508h-76v121h305v-121h-54v-229l230 229h-79v121h312v-121h-76l-173 -167z" />
    <glyph glyph-name="L" unicode="L" horiz-adv-x="638" 
d="M312 629v-508h91q54 0 72.5 30t18.5 114v37h101v-302h-534v121h76v508h-76v121h341v-121h-90z" />
    <glyph glyph-name="M" unicode="M" horiz-adv-x="1082" 
d="M1021 629h-76v-508h76v-121h-305v121h54v433l-222 -561h-62l-213 536v-408h54v-121h-267v121h76v508h-76v121h295l193 -502l196 502h277v-121z" />
    <glyph glyph-name="N" unicode="N" horiz-adv-x="834" 
d="M513 750h266v-121h-68v-629h-133l-317 468v-347h69v-121h-270v121h76v508h-76v121h207l311 -467v346h-65v121z" />
    <glyph glyph-name="O" unicode="O" horiz-adv-x="797" 
d="M399 770q162 0 254.5 -111.5t92.5 -281.5q0 -173 -92.5 -285t-254.5 -112q-164 0 -256 112t-92 285q0 170 92 281.5t256 111.5zM399 117q69 0 109 67.5t40 192.5q0 124 -40 190t-109 66q-70 0 -110 -66t-40 -190q0 -125 40 -192.5t110 -67.5z" />
    <glyph glyph-name="P" unicode="P" horiz-adv-x="727" 
d="M415 0h-354v121h76v508h-76v121h358q131 0 205 -55t74 -173q0 -123 -78 -184t-210 -61h-98v-156h103v-121zM312 386h74q54 0 84.5 31t30.5 91q0 61 -30.5 91t-84.5 30h-74v-243z" />
    <glyph glyph-name="Q" unicode="Q" horiz-adv-x="788" 
d="M585 35q7 -33 30.5 -46t68.5 -13l28 2v-128q-42 -9 -80 -9q-155 0 -176 144q-33 -5 -61 -5q-163 0 -253.5 112t-90.5 285q0 171 90.5 282t253.5 111q162 0 253.5 -111.5t91.5 -281.5q0 -112 -40 -202t-115 -140zM249 377q0 -127 38 -193.5t108 -66.5q69 0 108 67t39 193
q0 125 -39 190.5t-108 65.5q-70 0 -108 -65t-38 -191z" />
    <glyph glyph-name="R" unicode="R" horiz-adv-x="791" 
d="M733 121h17v-121h-150q-52 0 -77.5 29.5t-25.5 93.5v105q0 78 -74 78h-111v-185h58v-121h-309v121h76v508h-76v121h387q141 0 202.5 -49t61.5 -145q0 -78 -44.5 -129t-122.5 -61q70 -7 102 -43.5t32 -84.5v-60q0 -32 12.5 -44.5t41.5 -12.5zM411 415q47 0 76.5 29
t29.5 80q0 105 -105 105h-100v-214h99z" />
    <glyph glyph-name="S" unicode="S" horiz-adv-x="676" 
d="M379 459q113 -46 154 -76q93 -67 93 -177q0 -106 -66.5 -166t-182.5 -60q-71 0 -125.5 25.5t-78.5 70.5l-14 -76h-93v249h126q6 -64 45.5 -104t97.5 -40q43 0 72 22t29 60q0 42 -34.5 69t-105.5 56q-42 17 -65.5 27.5t-59 33.5t-54 46.5t-33 61t-14.5 83.5q0 100 70 153
t166 53q64 0 111.5 -24t69.5 -55l12 59h94v-232h-128q-4 60 -38 97t-80 37q-41 0 -65.5 -20t-24.5 -54q0 -41 30.5 -67.5t91.5 -51.5z" />
    <glyph glyph-name="T" unicode="T" horiz-adv-x="743" 
d="M546 0h-349v121h87v528h-77q-34 0 -49.5 -29t-15.5 -108v-28h-96v266h651v-266h-96v28q0 79 -15.5 108t-49.5 29h-77v-528h87v-121z" />
    <glyph glyph-name="U" unicode="U" horiz-adv-x="764" 
d="M657 249q0 -123 -68 -195.5t-197 -72.5q-151 0 -216 70t-65 198v380h-76v121h313v-121h-62v-388q0 -55 29 -90t82 -35t81 35t28 90v388h-55v121h282v-121h-76v-380z" />
    <glyph glyph-name="V" unicode="V" horiz-adv-x="767" 
d="M450 750h294v-121h-78l-181 -631h-203l-184 631h-74v121h315v-121h-59l121 -463l115 463h-66v121z" />
    <glyph glyph-name="W" unicode="W" horiz-adv-x="1181" 
d="M866 750h293v-121h-79l-176 -631h-195l-120 483l-121 -483h-191l-179 631h-74v121h315v-121h-59l116 -460l117 460h-71v121h322v-121h-63l119 -461l110 461h-64v121z" />
    <glyph glyph-name="X" unicode="X" horiz-adv-x="772" 
d="M742 629h-66l-169 -258l172 -250h62v-121h-319v121h57l-123 177l-108 -177h60v-121h-282v121h65l169 278l-163 230h-65v121h321v-121h-57l118 -174l109 174h-61v121h280v-121z" />
    <glyph glyph-name="Y" unicode="Y" horiz-adv-x="744" 
d="M438 750h285v-121h-69l-192 -358v-150h81v-121h-345v121h81v154l-184 354h-71v121h321v-121h-65l116 -227l106 227h-64v121z" />
    <glyph glyph-name="Z" unicode="Z" horiz-adv-x="661" 
d="M520 295h97v-295h-565v97l348 540h-148q-49 0 -66 -26.5t-17 -93.5v-25h-98v258h532v-94l-345 -543h172q50 0 70 29.5t20 98.5v54z" />
    <glyph glyph-name="bracketleft" unicode="[" horiz-adv-x="360" 
d="M61 -190v990h248v-121h-86v-748h86v-121h-248z" />
    <glyph glyph-name="backslash" unicode="\" horiz-adv-x="593" 
d="M24 800h155l390 -889h-155z" />
    <glyph glyph-name="bracketright" unicode="]" horiz-adv-x="360" 
d="M299 800v-990h-248v121h86v748h-86v121h248z" />
    <glyph glyph-name="asciicircum" unicode="^" horiz-adv-x="404" 
d="M404 456h-114l-87 211l-89 -211h-114l146 325h112z" />
    <glyph glyph-name="underscore" unicode="_" horiz-adv-x="618" 
d="M24 -38h570v-124h-570v124z" />
    <glyph glyph-name="grave" unicode="`" horiz-adv-x="281" 
d="M157 586l-157 183h144l137 -183h-124z" />
    <glyph glyph-name="a" unicode="a" horiz-adv-x="629" 
d="M535 115h58v-116h-220v81q-20 -40 -63 -70t-111 -30q-76 0 -121 37.5t-45 119.5q0 160 242 160h95v43q1 41 -18 63.5t-55 22.5q-35 0 -55.5 -21t-21.5 -52v-9h-161v10q0 86 62.5 133t184.5 47q124 0 176.5 -50.5t52.5 -145.5v-223zM280 93q40 0 62.5 22t27.5 52v63h-60
q-106 0 -106 -73q0 -29 20.5 -46.5t55.5 -17.5z" />
    <glyph glyph-name="b" unicode="b" horiz-adv-x="629" 
d="M384 535q90 0 151 -74.5t61 -202.5t-61 -203t-151 -75q-62 0 -102.5 29t-55.5 72l-24 -82h-131v643h-59v108h224v-294q44 79 148 79zM321 99q45 0 72.5 43t27.5 116t-27.5 115t-72.5 42q-36 0 -60.5 -27t-24.5 -62v-137q0 -35 24.5 -62.5t60.5 -27.5z" />
    <glyph glyph-name="c" unicode="c" horiz-adv-x="593" 
d="M391 305q-4 57 -28 89.5t-59 32.5q-42 0 -68.5 -46t-26.5 -124t26.5 -124t68.5 -46q36 0 59.5 32.5t27.5 89.5h173q-5 -103 -75 -166t-185 -63q-125 0 -198 77t-73 200t73 200.5t198 77.5q115 0 184.5 -63.5t74.5 -166.5h-172z" />
    <glyph glyph-name="d" unicode="d" horiz-adv-x="654" 
d="M559 115h58v-116h-223v59q-45 -78 -148 -78q-91 0 -152 75t-61 203t61 202.5t152 74.5q104 0 148 -79v186h-72v108h237v-635zM308 99q36 0 61 27.5t25 62.5v137q0 35 -25 62t-61 27q-45 0 -72.5 -42t-27.5 -115t27.5 -116t72.5 -43z" />
    <glyph glyph-name="e" unicode="e" horiz-adv-x="604" 
d="M400 175h173q-20 -92 -89 -143.5t-173 -51.5q-126 0 -202 77.5t-76 199.5t76 200t202 78q125 0 193 -72t68 -195v-36h-363q5 -72 31 -108.5t68 -36.5q33 0 58 23t34 65zM307 438q-85 0 -97 -132h191q-5 64 -30.5 98t-63.5 34z" />
    <glyph glyph-name="f" unicode="f" horiz-adv-x="390" 
d="M323 647q-38 0 -51 -15t-13 -42v-75h84v-115h-84v-285h80v-115h-303v115h58v285h-58v115h58v119q0 63 39 97t130 34q44 0 91 -9v-112q-18 3 -31 3z" />
    <glyph glyph-name="g" unicode="g" horiz-adv-x="644" 
d="M571 544q-73 0 -77 -63q57 -48 57 -119q0 -77 -64.5 -125t-170.5 -48q-43 0 -81 8q-31 -10 -31 -36q0 -22 22 -30t76 -8h40q139 0 199 -36t60 -124q0 -94 -71.5 -136t-248.5 -42q-77 0 -129 12t-76.5 33.5t-33.5 43t-9 49.5q0 69 68 99q-36 29 -36 83q0 40 28.5 73
t67.5 47q-80 46 -80 137q0 77 64.5 125t170.5 48q58 0 108 -16q4 133 118 133q43 0 61 -9v-102q-9 3 -32 3zM316 273q37 0 57 23t20 66t-20 66t-57 23t-56.5 -23t-19.5 -66t19.5 -66t56.5 -23zM341 -16h-69q-44 0 -82 5q-28 -18 -28 -51q0 -39 39.5 -58t99.5 -19h35
q58 0 97.5 17.5t39.5 53.5q0 30 -29 41t-103 11z" />
    <glyph glyph-name="h" unicode="h" horiz-adv-x="669" 
d="M578 115h54v-115h-260v115h41v220q0 41 -17.5 62.5t-49.5 21.5q-37 0 -62 -25.5t-25 -62.5v-216h41v-115h-264v115h58v520h-58v115h223v-305q55 90 161 90q68 0 113 -43t45 -114v-263z" />
    <glyph glyph-name="i" unicode="i" horiz-adv-x="353" 
d="M163 589q-51 0 -79 24.5t-28 62.5q0 39 28 63.5t79 24.5t79 -25t28 -63t-28 -62.5t-79 -24.5zM259 115h58v-115h-281v115h58v284h-58v116h223v-400z" />
    <glyph glyph-name="j" unicode="j" horiz-adv-x="298" 
d="M136 585q-51 0 -79 24.5t-28 62.5t28 63t79 25t79 -25t28 -63t-28 -62.5t-79 -24.5zM253 -77q0 -69 -34.5 -98t-108.5 -29q-56 0 -96 8v120q20 -2 30 -2q27 0 35.5 11t8.5 34v432h-73v116h238v-592z" />
    <glyph glyph-name="k" unicode="k" horiz-adv-x="677" 
d="M588 115h56v-115h-272v115h40l-75 114l-78 -54v-60h41v-115h-264v115h58v519h-58v116h223v-462l154 112h-53v115h272v-115h-47l-126 -87z" />
    <glyph glyph-name="l" unicode="l" horiz-adv-x="353" 
d="M259 115h58v-115h-281v115h58v519h-58v116h223v-635z" />
    <glyph glyph-name="m" unicode="m" horiz-adv-x="985" 
d="M894 115h55v-115h-260v115h40v220q0 84 -66 84q-37 0 -61 -25.5t-24 -63.5v-215h41v-115h-247v115h41v220q0 84 -67 84q-37 0 -62 -25.5t-25 -62.5v-216h41v-115h-264v115h58v284h-58v116h223v-70q55 90 161 90q54 0 94 -27t55 -74q51 101 168 101q70 0 113.5 -43.5
t43.5 -113.5v-263z" />
    <glyph glyph-name="n" unicode="n" horiz-adv-x="669" 
d="M578 115h54v-115h-260v115h41v220q0 84 -67 84q-37 0 -62 -25.5t-25 -62.5v-216h41v-115h-264v115h58v284h-58v116h223v-70q55 90 161 90q70 0 114 -43.5t44 -113.5v-263z" />
    <glyph glyph-name="o" unicode="o" horiz-adv-x="606" 
d="M303 535q121 0 195.5 -77.5t74.5 -199.5q0 -123 -74.5 -200.5t-195.5 -77.5t-195.5 78t-74.5 200t74.5 199.5t195.5 77.5zM303 87q44 0 69.5 45t25.5 126t-25.5 125t-69.5 44t-69.5 -44.5t-25.5 -124.5q0 -81 26 -126t69 -45z" />
    <glyph glyph-name="p" unicode="p" horiz-adv-x="629" 
d="M384 535q91 0 151.5 -71.5t60.5 -198.5t-60.5 -198.5t-151.5 -71.5q-104 0 -149 80v-157h65v-108h-289v108h59v481h-59v116h224v-61q44 81 149 81zM321 112q45 0 72.5 40t27.5 113t-27 112.5t-73 39.5q-36 0 -60.5 -27t-24.5 -62l-1 4v-134l1 4q0 -35 24.5 -62.5
t60.5 -27.5z" />
    <glyph glyph-name="q" unicode="q" horiz-adv-x="630" 
d="M559 -82h58v-108h-288v108h65v155q-45 -78 -148 -78q-92 0 -152.5 71.5t-60.5 198.5t60.5 198.5t152.5 71.5q65 0 106.5 -32t54.5 -77l38 89h114v-597zM308 112q36 0 61 27.5t25 62.5v126q0 35 -25 62t-61 27q-46 0 -73 -39.5t-27 -112.5t27.5 -113t72.5 -40z" />
    <glyph glyph-name="r" unicode="r" horiz-adv-x="452" 
d="M391 535q25 0 35 -5v-138q-12 9 -43 9q-124 0 -124 -171v-115h80v-115h-303v115h58v284h-58v116h223v-79q18 46 53.5 72.5t78.5 26.5z" />
    <glyph glyph-name="s" unicode="s" horiz-adv-x="519" 
d="M314 325q38 -11 64 -22.5t54.5 -31t43.5 -50t15 -70.5q0 -78 -49.5 -121.5t-129.5 -43.5q-120 0 -173 70l-8 -56h-91v169h110q6 -41 34 -67t68 -26q64 0 64 51q0 29 -26 46t-80 34q-39 13 -62.5 23.5t-52.5 30.5t-43.5 50.5t-14.5 70.5q0 76 51 113t123 37q100 0 152 -62
l7 44h92v-150h-109q-9 38 -34.5 63.5t-62.5 25.5q-27 0 -43.5 -13.5t-16.5 -37.5q0 -26 28 -42t90 -35z" />
    <glyph glyph-name="t" unicode="t" horiz-adv-x="397" 
d="M354 0q-47 -17 -131 -17q-48 0 -79.5 11.5t-46.5 34t-20.5 47t-5.5 59.5v265h-59v115h15q60 0 82 32.5t31 109.5v26h96v-168h114v-115h-114v-237q0 -49 64 -49q41 0 54 2v-116z" />
    <glyph glyph-name="u" unicode="u" horiz-adv-x="643" 
d="M550 116h58v-116h-223v63q-58 -83 -161 -83q-76 0 -117 46.5t-41 110.5v263h-54v115h219v-336q0 -39 17 -61.5t50 -22.5q38 0 62.5 25.5t24.5 63.5v216h-50v115h215v-399z" />
    <glyph glyph-name="v" unicode="v" horiz-adv-x="612" 
d="M598 515v-115h-52l-151 -401h-177l-153 401h-51v115h257v-115h-42l92 -286l90 286h-52v115h239z" />
    <glyph glyph-name="w" unicode="w" horiz-adv-x="928" 
d="M913 515v-115h-51l-138 -401h-162l-99 358l-95 -358h-164l-140 401h-50v115h264v-115h-50l76 -280l99 395h147l105 -396l73 281h-57v115h242z" />
    <glyph glyph-name="x" unicode="x" horiz-adv-x="631" 
d="M540 115h67v-115h-297v115h39l-70 89l-78 -89h37v-115h-221v115h48l143 154l-116 131h-66v115h297v-115h-39l65 -77l74 77h-34v115h212v-115h-47l-136 -141z" />
    <glyph glyph-name="y" unicode="y" horiz-adv-x="613" 
d="M599 515v-115h-49l-176 -429q-35 -85 -81 -131.5t-121 -46.5q-39 0 -72 7l8 121q48 -3 62 -3q62 0 80 51l1 3l-184 428h-55v115h269v-115h-50l94 -258l100 258h-57v115h231z" />
    <glyph glyph-name="z" unicode="z" horiz-adv-x="534" 
d="M410 200h83v-200h-469v73l267 357h-99q-43 0 -57 -16t-14 -61v-13h-84v175h444v-68l-264 -362h117q43 0 59.5 17.5t16.5 64.5v33z" />
    <glyph glyph-name="braceleft" unicode="{" horiz-adv-x="454" 
d="M160 700q0 69 36.5 98t115.5 29q57 0 91 -7v-121q-9 2 -29 2q-33 0 -45 -13.5t-12 -41.5v-215q0 -46 -33 -80.5t-107 -35.5q74 -1 107 -35.5t33 -80.5v-212q0 -28 12 -42t45 -14q11 0 29 2v-120q-38 -8 -91 -8q-78 0 -115 29.5t-37 98.5v258q0 64 -55 64h-54v120h54
q55 0 55 64v261z" />
    <glyph glyph-name="bar" unicode="|" horiz-adv-x="284" 
d="M61 -230v1030h162v-1030h-162z" />
    <glyph glyph-name="braceright" unicode="}" horiz-adv-x="454" 
d="M294 -67q0 -69 -36.5 -98.5t-115.5 -29.5q-53 0 -91 8v120q18 -2 29 -2q33 0 45 14t12 42v216q0 46 33.5 80t107.5 35q-74 1 -107.5 35.5t-33.5 80.5v212q0 28 -12 41.5t-45 13.5q-11 0 -29 -2v121q34 7 91 7q79 0 115.5 -29t36.5 -99v-256q0 -65 56 -65h53v-119h-53
q-56 0 -56 -65v-261z" />
    <glyph glyph-name="asciitilde" unicode="~" horiz-adv-x="534" 
d="M384 296q-56 0 -130 22.5t-96 22.5q-30 0 -48 -13.5t-18 -37.5h-92q0 81 42.5 130.5t107.5 49.5q56 0 130.5 -22.5t96.5 -22.5q29 0 47 13.5t18 37.5h92q0 -81 -43 -130.5t-107 -49.5z" />
    <glyph glyph-name="exclamdown" unicode="&#xa1;" horiz-adv-x="272" 
d="M136 580q44 0 73 -25.5t29 -63.5t-29 -64t-73 -26t-72.5 26t-28.5 64t28.5 63.5t72.5 25.5zM219 -190h-166l7 508h153z" />
    <glyph glyph-name="cent" unicode="&#xa2;" horiz-adv-x="630" 
d="M582 209q-5 -90 -59.5 -150.5t-147.5 -74.5v-103h-114v104q-98 19 -154 92t-56 180t56 180.5t154 92.5v103h114v-102q93 -14 147.5 -75t58.5 -151h-172q-4 59 -28 92.5t-59 33.5q-42 0 -68.5 -47.5t-26.5 -126.5t26.5 -126.5t68.5 -47.5q36 0 59.5 33.5t27.5 92.5h173z
" />
    <glyph glyph-name="sterling" unicode="&#xa3;" horiz-adv-x="721" 
d="M655 222q1 -9 1 -18q0 -224 -239 -224q-45 0 -99 19.5t-91 19.5q-42 0 -90.5 -9.5t-112.5 -9.5v122q159 0 159 109q0 29 -11 64h-120v84h86q-48 110 -48 180q0 101 71 156t167 55q62 0 109.5 -23.5t68.5 -56.5l12 60h94v-232h-128q-4 62 -35.5 98t-79.5 36
q-42 0 -67 -24.5t-25 -67.5q0 -17 2 -34.5t4 -29.5t7.5 -32t7.5 -27t10 -31t9 -28h177v-83h-155q6 -33 6 -70q0 -62 -40 -107q11 -2 27.5 -7.5t32 -8.5t36.5 -3q50 -1 74.5 24t24.5 81q0 14 -1 18h156z" />
    <glyph glyph-name="currency" unicode="&#xa4;" horiz-adv-x="647" 
d="M596 258q0 -121 -74 -198l80 -111h-119l-39 55q-58 -24 -120 -24q-66 0 -121 25l-40 -56h-120l81 112q-73 78 -73 197t72 196l-80 111h119l40 -55q56 25 122 25q64 0 120 -24l39 54h120l-80 -110q73 -78 73 -197zM324 87q45 0 75 45t30 126q0 80 -30 124.5t-75 44.5
q-46 0 -75.5 -44.5t-29.5 -124.5t30 -125.5t75 -45.5z" />
    <glyph glyph-name="yen" unicode="&#xa5;" horiz-adv-x="747" 
d="M438 750h285v-121h-69l-152 -251h129v-83h-169v-44h169v-84h-169v-46h81v-121h-345v121h81v46h-169v84h169v44h-169v83h128l-143 251h-71v121h321v-121h-65l115 -198l111 198h-68v121z" />
    <glyph glyph-name="brokenbar" unicode="&#xa6;" horiz-adv-x="322" 
d="M80 352v448h162v-448h-162zM80 -230v449h162v-449h-162z" />
    <glyph glyph-name="section" unicode="&#xa7;" horiz-adv-x="699" 
d="M542 125q61 -51 61 -132q0 -94 -64.5 -147t-176.5 -53q-141 0 -191 77l-13 -60h-91v220h124q5 -54 40 -89t90 -35q39 0 67 18.5t28 51.5q0 36 -32 58.5t-97 47.5q-42 16 -62.5 25t-55.5 29t-52.5 40t-31.5 52t-14 71q0 95 90 142q-66 54 -66 141q0 60 34.5 103.5
t84.5 62.5t108 19q59 0 105 -19.5t66 -45.5l10 48h93v-204h-126q-4 52 -33.5 83.5t-73.5 31.5q-38 0 -61.5 -18.5t-23.5 -47.5q0 -33 29.5 -56t84.5 -43q109 -41 148 -67q87 -58 87 -154q0 -102 -85 -150zM227 323q0 -29 24.5 -49.5t73.5 -42.5q18 -8 54.5 -22t49.5 -19
q44 18 44 56q0 36 -32 58.5t-97 46.5q-43 15 -73 29q-44 -17 -44 -57z" />
    <glyph glyph-name="dieresis" unicode="&#xa8;" horiz-adv-x="372" 
d="M80 620q-34 0 -57 20.5t-23 50.5t23 51t57 21t56.5 -21t22.5 -51t-22.5 -50.5t-56.5 -20.5zM292 620q-34 0 -56.5 20.5t-22.5 50.5t22.5 51t56.5 21t57 -21t23 -51t-23 -50.5t-57 -20.5z" />
    <glyph glyph-name="copyright" unicode="&#xa9;" horiz-adv-x="872" 
d="M436 770q164 0 274.5 -113.5t110.5 -280.5q0 -170 -110 -283t-275 -113t-275 113t-110 283q0 167 110.5 280.5t274.5 113.5zM436 51q130 0 220.5 94t90.5 231q0 136 -90.5 229.5t-220.5 93.5t-220.5 -93.5t-90.5 -229.5q0 -137 90.5 -231t220.5 -94zM443 243q55 0 69 90
h96q-3 -78 -47 -119.5t-125 -41.5q-87 0 -137 57t-50 146q0 87 47 144.5t119 57.5q81 0 116 -57l6 47h65v-141h-94q-5 37 -24 58.5t-44 21.5q-35 0 -55.5 -34t-20.5 -97t21.5 -97.5t57.5 -34.5z" />
    <glyph glyph-name="ordfeminine" unicode="&#xaa;" horiz-adv-x="328" 
d="M285 564h30v-61h-121v43q-25 -52 -93 -52q-90 0 -90 79q0 80 128 80h52v19q0 41 -36 41q-17 0 -27.5 -10t-11.5 -24v-5h-91v5q0 43 34 67t101 24q68 0 96.5 -26t28.5 -74v-106zM147 554q21 0 32.5 11t11.5 26v27h-33q-50 0 -50 -35q0 -29 39 -29z" />
    <glyph glyph-name="guillemotleft" unicode="&#xab;" horiz-adv-x="641" 
d="M183 41l-153 216l153 216h153l-153 -216l153 -216h-153zM458 41l-153 216l153 216h153l-153 -216l153 -216h-153z" />
    <glyph glyph-name="logicalnot" unicode="&#xac;" horiz-adv-x="930" 
d="M176 367h570v-323h-129v199h-441v124z" />
    <glyph glyph-name="registered" unicode="&#xae;" horiz-adv-x="839" 
d="M420 770q164 0 274.5 -113.5t110.5 -280.5q0 -170 -110 -283t-275 -113t-275 113t-110 283q0 167 110.5 280.5t274.5 113.5zM420 51q130 0 220.5 94t90.5 231q0 136 -90.5 229.5t-220.5 93.5q-131 0 -221 -93.5t-90 -229.5q0 -137 90 -231t221 -94zM569 276
q0 -16 6.5 -22.5t22.5 -6.5h8v-64h-84q-57 0 -57 63v57q0 37 -38 37h-56v-93h32v-64h-172v64h41v256h-41v64h211q77 0 110.5 -24.5t33.5 -73.5q0 -42 -25 -67.5t-71 -29.5q41 -3 60 -21.5t19 -43.5v-31zM420 397q25 0 40.5 14.5t15.5 39.5q0 52 -55 52h-50v-106h49z" />
    <glyph glyph-name="macron" unicode="&#xaf;" horiz-adv-x="408" 
d="M0 756h408v-119h-408v119z" />
    <glyph glyph-name="degree" unicode="&#xb0;" horiz-adv-x="407" 
d="M196 770q69 0 114 -44.5t45 -112.5t-45 -113t-114 -45q-70 0 -115 45t-45 113t45 112.5t115 44.5zM119 613q0 -45 21 -70.5t56 -25.5q34 0 55.5 25.5t21.5 70.5q0 43 -21.5 68t-55.5 25q-35 0 -56 -25t-21 -68z" />
    <glyph glyph-name="plusminus" unicode="&#xb1;" horiz-adv-x="969" 
d="M770 313h-221v-171h221v-124h-571v124h221v171h-221v125h221v199h129v-199h221v-125z" />
    <glyph glyph-name="uni00B2" unicode="&#xb2;" horiz-adv-x="388" 
d="M29 490v41q0 42 34 76.5t75 54t75 46.5t34 57q0 27 -14.5 42t-39.5 15q-26 0 -42.5 -18t-16.5 -53l1 -9h-100q-1 6 -1 9q0 64 44 107t117 43q77 0 119 -34t42 -94q0 -45 -31 -81t-69 -54.5t-72.5 -39t-38.5 -38.5h141v44h73v-114h-330z" />
    <glyph glyph-name="uni00B3" unicode="&#xb3;" horiz-adv-x="401" 
d="M284 695q35 -10 58 -34t23 -59q0 -54 -48 -88.5t-126 -34.5q-76 0 -120.5 40t-44.5 104l1 14h109l-1 -14q0 -64 56 -64q25 0 39.5 15t14.5 41q0 48 -50 48h-33v56h35q48 0 48 48q0 26 -14.5 40.5t-39.5 14.5q-55 0 -55 -67v-8h-106q-1 5 -1 8q0 66 45 106t119 40
q77 0 122.5 -33t45.5 -84q0 -34 -22.5 -56.5t-54.5 -32.5z" />
    <glyph glyph-name="acute" unicode="&#xb4;" horiz-adv-x="281" 
d="M0 586l137 183h144l-157 -183h-124z" />
    <glyph glyph-name="paragraph" unicode="&#xb6;" horiz-adv-x="769" 
d="M51 512q0 103 67.5 170.5t169.5 67.5h430v-116h-73v-774h-129v774h-99v-774h-129v411q-102 0 -169.5 68.5t-67.5 172.5z" />
    <glyph glyph-name="periodcentered" unicode="&#xb7;" horiz-adv-x="325" 
d="M163 285q-44 0 -73 25.5t-29 63.5t29 64t73 26t72.5 -26t28.5 -64t-28.5 -63.5t-72.5 -25.5z" />
    <glyph glyph-name="cedilla" unicode="&#xb8;" horiz-adv-x="300" 
d="M170 -62q29 0 56 -8t50.5 -33t23.5 -63q0 -58 -49 -85.5t-125 -27.5q-22 0 -45.5 6t-31.5 12v55q28 -8 53 -8q44 0 65 10.5t21 40.5q0 21 -15 33.5t-41 12.5q-21 0 -38.5 -6.5t-23.5 -12.5l-7 -7h-63l56 153h64l-35 -93q40 21 85 21z" />
    <glyph glyph-name="uni00B9" unicode="&#xb9;" horiz-adv-x="271" 
d="M195 560h59v-70h-240v70h70v221q-7 -1 -22 -1q-29 0 -47 4v76q10 -2 14 -2q70 0 77 32h89v-330z" />
    <glyph glyph-name="ordmasculine" unicode="&#xba;" horiz-adv-x="323" 
d="M162 770q65 0 104.5 -38.5t39.5 -98.5q0 -61 -39.5 -100t-104.5 -39t-105.5 39t-40.5 100q0 60 40 98.5t106 38.5zM162 551q45 0 45 82q0 80 -45 80q-22 0 -34.5 -20.5t-12.5 -59.5q0 -40 12.5 -61t34.5 -21z" />
    <glyph glyph-name="guillemotright" unicode="&#xbb;" horiz-adv-x="641" 
d="M183 257l-153 216h153l153 -216l-153 -216h-153zM458 257l-153 216h153l153 -216l-153 -216h-153z" />
    <glyph glyph-name="onequarter" unicode="&#xbc;" horiz-adv-x="895" 
d="M279 420v-70h-239v70h69v221q-7 -1 -21 -1q-28 0 -48 4v76q10 -2 15 -2q70 0 77 32h88v-330h59zM616 750h120l-487 -750h-120zM855 119h-62v-47h47v-72h-217v72h63v47h-184v61l189 220h102v-220h62v-61zM584 180h102v122z" />
    <glyph glyph-name="onehalf" unicode="&#xbd;" horiz-adv-x="923" 
d="M279 420v-70h-239v70h69v221q-7 -1 -21 -1q-28 0 -48 4v76q10 -2 15 -2q70 0 77 32h88v-330h59zM616 750h120l-487 -750h-120zM811 114h72v-114h-330v41q0 42 34 76.5t75 54t75 46.5t34 57q0 27 -14.5 42t-39.5 15q-26 0 -42.5 -18t-16.5 -53l1 -9h-100q-1 6 -1 9
q0 63 44.5 106.5t116.5 43.5q77 0 119 -34t42 -94q0 -45 -31 -81t-69 -54.5t-72 -39t-38 -38.5h141v44z" />
    <glyph glyph-name="threequarters" unicode="&#xbe;" horiz-adv-x="976" 
d="M374 463q0 -55 -47 -89.5t-124 -34.5q-75 0 -119 40t-44 105v13h109v-13q0 -63 53 -63q52 0 52 55q0 45 -48 45h-33v60h35q46 0 46 45q0 25 -14 39.5t-38 14.5q-53 0 -53 -66v-8h-105q-1 5 -1 8q0 67 44 107t117 40q76 0 121 -33t45 -84q0 -64 -76 -89q35 -10 57.5 -33.5
t22.5 -58.5zM697 750h120l-487 -750h-120zM936 119h-62v-47h47v-72h-217v72h63v47h-183v61l188 220h102v-220h62v-61zM665 180h102v122z" />
    <glyph glyph-name="questiondown" unicode="&#xbf;" horiz-adv-x="582" 
d="M296 584q44 0 72.5 -26t28.5 -64t-28.5 -64t-72.5 -26t-73 26t-29 64t29 64t73 26zM559 29q0 -107 -72 -171t-201 -64q-126 0 -193.5 55t-67.5 138q0 52 21 90t51 61.5t60 46t51 54.5t21 75l-1 18h153q1 -16 1 -29q0 -48 -17 -85t-41 -60.5t-48.5 -45t-41.5 -50.5
t-17 -66q0 -33 18.5 -62t61.5 -29q91 0 91 124q0 13 -1 17h171q1 -9 1 -17z" />
    <glyph glyph-name="Agrave" unicode="&#xc0;" horiz-adv-x="782" 
d="M476 799h-140l-157 183h160zM698 121h60v-121h-315v121h66l-31 114h-212l-30 -114h65v-121h-277v121h63l191 631h226zM289 323h165l-84 308z" />
    <glyph glyph-name="Aacute" unicode="&#xc1;" horiz-adv-x="782" 
d="M560 982l-157 -183h-139l137 183h159zM698 121h60v-121h-315v121h66l-31 114h-212l-30 -114h65v-121h-277v121h63l191 631h226zM289 323h165l-84 308z" />
    <glyph glyph-name="Acircumflex" unicode="&#xc2;" horiz-adv-x="782" 
d="M397 903l-87 -92h-131l146 183h143l146 -183h-131zM698 121h60v-121h-315v121h66l-31 114h-212l-30 -114h65v-121h-277v121h63l191 631h226zM289 323h165l-84 308z" />
    <glyph glyph-name="Atilde" unicode="&#xc3;" horiz-adv-x="782" 
d="M293 874q-51 0 -51 -45h-84q0 76 34 119.5t97 43.5q47 0 102.5 -20t77.5 -20q49 0 49 45h85q0 -76 -34.5 -119.5t-96.5 -43.5q-46 0 -102 20t-77 20zM698 121h60v-121h-315v121h66l-31 114h-212l-30 -114h65v-121h-277v121h63l191 631h226zM289 323h165l-84 308z" />
    <glyph glyph-name="Adieresis" unicode="&#xc4;" horiz-adv-x="782" 
d="M265 838q-39 0 -66 24.5t-27 59.5q0 34 27 60t66 26q40 0 66.5 -25.5t26.5 -60.5t-26 -59.5t-67 -24.5zM513 838q-41 0 -67 24.5t-26 59.5t26.5 60.5t66.5 25.5q39 0 66 -26t27 -60q0 -35 -27 -59.5t-66 -24.5zM698 121h60v-121h-315v121h66l-31 114h-212l-30 -114h65
v-121h-277v121h63l191 631h226zM289 323h165l-84 308z" />
    <glyph glyph-name="Aring" unicode="&#xc5;" horiz-adv-x="782" 
d="M389 777q-69 0 -116.5 46.5t-47.5 115.5t47 115t117 46t117 -46t47 -115t-47.5 -115.5t-116.5 -46.5zM389 1009q-32 0 -51.5 -19.5t-19.5 -50.5q0 -30 20 -50.5t51 -20.5t51 20.5t20 50.5q0 31 -19 50.5t-52 19.5zM698 121h60v-121h-315v121h66l-31 114h-212l-30 -114h65
v-121h-277v121h63l191 631h226zM289 323h165l-84 308z" />
    <glyph glyph-name="AE" unicode="&#xc6;" horiz-adv-x="1013" 
d="M964 486h-101v26q0 70 -16.5 93.5t-67.5 23.5h-134v-189h150v-105h-150v-214h134q50 0 67 25.5t17 94.5v49h101v-290h-570v121h76v114h-190l-51 -114h64v-121h-275v121h63l250 508h-91v121h724v-264zM318 319h152v310h-12z" />
    <glyph glyph-name="Ccedilla" unicode="&#xc7;" horiz-adv-x="754" 
d="M707 291q-5 -149 -85 -230t-226 -81l-42 -54q24 9 54 9q22 0 43.5 -5t43.5 -16.5t35.5 -34t13.5 -52.5q0 -61 -50.5 -89.5t-130.5 -28.5q-23 0 -47.5 6t-32.5 12v58q28 -8 54 -8q46 0 68 11t22 41q0 22 -16 35.5t-42 13.5q-23 0 -41 -7t-24 -14l-7 -7l-43 34l80 101
q-133 21 -208 128t-75 263q0 169 86 281.5t219 112.5q154 0 211 -120l12 100h115v-271h-165q-10 73 -45.5 113.5t-84.5 40.5q-68 0 -107 -66.5t-39 -189.5q0 -122 42 -191t110 -69q105 0 133 174h169z" />
    <glyph glyph-name="Egrave" unicode="&#xc8;" horiz-adv-x="690" 
d="M435 799h-140l-157 183h160zM630 486h-101v26q0 70 -16.5 93.5t-67.5 23.5h-133v-187h149v-109h-149v-212h133q50 0 67 25.5t17 94.5v49h101v-290h-569v121h76v508h-76v121h569v-264z" />
    <glyph glyph-name="Eacute" unicode="&#xc9;" horiz-adv-x="690" 
d="M518 982l-157 -183h-139l137 183h159zM630 486h-101v26q0 70 -16.5 93.5t-67.5 23.5h-133v-187h149v-109h-149v-212h133q50 0 67 25.5t17 94.5v49h101v-290h-569v121h76v508h-76v121h569v-264z" />
    <glyph glyph-name="Ecircumflex" unicode="&#xca;" horiz-adv-x="690" 
d="M365 903l-87 -92h-131l146 183h143l146 -183h-131zM630 486h-101v26q0 70 -16.5 93.5t-67.5 23.5h-133v-187h149v-109h-149v-212h133q50 0 67 25.5t17 94.5v49h101v-290h-569v121h76v508h-76v121h569v-264z" />
    <glyph glyph-name="Edieresis" unicode="&#xcb;" horiz-adv-x="690" 
d="M223 838q-39 0 -66 24.5t-27 59.5q0 34 27 60t66 26q40 0 66.5 -25.5t26.5 -60.5t-26 -59.5t-67 -24.5zM471 838q-41 0 -67 24.5t-26 59.5t26.5 60.5t66.5 25.5q39 0 66 -26t27 -60q0 -35 -27 -59.5t-66 -24.5zM630 486h-101v26q0 70 -16.5 93.5t-67.5 23.5h-133v-187
h149v-109h-149v-212h133q50 0 67 25.5t17 94.5v49h101v-290h-569v121h76v508h-76v121h569v-264z" />
    <glyph glyph-name="Igrave" unicode="&#xcc;" horiz-adv-x="449" 
d="M162 799l-157 183h160l137 -183h-140zM61 0v121h76v508h-76v121h327v-121h-76v-508h76v-121h-327z" />
    <glyph glyph-name="Iacute" unicode="&#xcd;" horiz-adv-x="449" 
d="M110 799l137 183h159l-157 -183h-139zM61 0v121h76v508h-76v121h327v-121h-76v-508h76v-121h-327z" />
    <glyph glyph-name="Icircumflex" unicode="&#xce;" horiz-adv-x="449" 
d="M224 903l-87 -92h-131l146 183h143l146 -183h-131zM61 629v121h327v-121h-76v-508h76v-121h-327v121h76v508h-76z" />
    <glyph glyph-name="Idieresis" unicode="&#xcf;" horiz-adv-x="449" 
d="M101 838q-39 0 -66 24.5t-27 59.5q0 34 27 60t66 26q40 0 66.5 -25.5t26.5 -60.5t-26 -59.5t-67 -24.5zM349 838q-41 0 -67 24.5t-26 59.5t26.5 60.5t66.5 25.5q39 0 66 -26t27 -60q0 -35 -27 -59.5t-66 -24.5zM61 0v121h76v508h-76v121h327v-121h-76v-508h76v-121h-327z
" />
    <glyph glyph-name="Eth" unicode="&#xd0;" horiz-adv-x="773" 
d="M396 750q162 0 245 -101.5t83 -271.5q0 -173 -83 -275t-245 -102h-346v121h73v196h-71v123h71v189h-73v121h346zM371 121q74 0 114.5 64t40.5 192q0 252 -155 252h-73v-189h87v-123h-87v-196h73z" />
    <glyph glyph-name="Ntilde" unicode="&#xd1;" horiz-adv-x="834" 
d="M327 874q-51 0 -51 -45h-84q0 76 34 119.5t97 43.5q47 0 102.5 -20t77.5 -20q49 0 49 45h85q0 -76 -34.5 -119.5t-96.5 -43.5q-46 0 -102 20t-77 20zM513 750h266v-121h-68v-629h-133l-317 468v-347h69v-121h-270v121h76v508h-76v121h207l311 -467v346h-65v121z" />
    <glyph glyph-name="Ograve" unicode="&#xd2;" horiz-adv-x="797" 
d="M348 799l-157 183h160l137 -183h-140zM399 770q162 0 254.5 -111.5t92.5 -281.5q0 -173 -92.5 -285t-254.5 -112q-164 0 -256 112t-92 285q0 170 92 281.5t256 111.5zM399 117q69 0 109 67.5t40 192.5q0 124 -40 190t-109 66q-70 0 -110 -66t-40 -190q0 -125 40 -192.5
t110 -67.5z" />
    <glyph glyph-name="Oacute" unicode="&#xd3;" horiz-adv-x="797" 
d="M275 799l137 183h159l-157 -183h-139zM399 770q162 0 254.5 -111.5t92.5 -281.5q0 -173 -92.5 -285t-254.5 -112q-164 0 -256 112t-92 285q0 170 92 281.5t256 111.5zM399 117q69 0 109 67.5t40 192.5q0 124 -40 190t-109 66q-70 0 -110 -66t-40 -190q0 -125 40 -192.5
t110 -67.5z" />
    <glyph glyph-name="Ocircumflex" unicode="&#xd4;" horiz-adv-x="797" 
d="M400 903l-87 -92h-131l146 183h143l146 -183h-131zM399 770q162 0 254.5 -111.5t92.5 -281.5q0 -173 -92.5 -285t-254.5 -112q-164 0 -256 112t-92 285q0 170 92 281.5t256 111.5zM399 117q69 0 109 67.5t40 192.5q0 124 -40 190t-109 66q-70 0 -110 -66t-40 -190
q0 -125 40 -192.5t110 -67.5z" />
    <glyph glyph-name="Otilde" unicode="&#xd5;" horiz-adv-x="797" 
d="M302 992q47 0 102.5 -20t77.5 -20q49 0 49 45h85q0 -76 -34.5 -119.5t-96.5 -43.5q-46 0 -102 20t-77 20q-51 0 -51 -45h-84q0 76 34 119.5t97 43.5zM399 770q162 0 254.5 -111.5t92.5 -281.5q0 -173 -92.5 -285t-254.5 -112q-164 0 -256 112t-92 285q0 170 92 281.5
t256 111.5zM399 117q69 0 109 67.5t40 192.5q0 124 -40 190t-109 66q-70 0 -110 -66t-40 -190q0 -125 40 -192.5t110 -67.5z" />
    <glyph glyph-name="Odieresis" unicode="&#xd6;" horiz-adv-x="797" 
d="M276 838q-39 0 -66 24.5t-27 59.5q0 34 27 60t66 26q40 0 66.5 -25.5t26.5 -60.5t-26 -59.5t-67 -24.5zM524 838q-41 0 -67 24.5t-26 59.5t26.5 60.5t66.5 25.5q39 0 66 -26t27 -60q0 -35 -27 -59.5t-66 -24.5zM399 770q162 0 254.5 -111.5t92.5 -281.5
q0 -173 -92.5 -285t-254.5 -112q-164 0 -256 112t-92 285q0 170 92 281.5t256 111.5zM399 117q69 0 109 67.5t40 192.5q0 124 -40 190t-109 66q-70 0 -110 -66t-40 -190q0 -125 40 -192.5t110 -67.5z" />
    <glyph glyph-name="multiply" unicode="&#xd7;" horiz-adv-x="898" 
d="M699 467l-162 -162l162 -162l-88 -87l-162 162l-162 -162l-88 87l162 162l-162 162l88 88l162 -162l162 162z" />
    <glyph glyph-name="Oslash" unicode="&#xd8;" horiz-adv-x="792" 
d="M762 792l-104 -142q85 -108 85 -273q0 -173 -92.5 -285t-254.5 -112q-108 0 -191 54l-56 -76h-119l104 142q-86 109 -86 277q0 170 92.5 281.5t255.5 111.5q109 0 191 -55l56 77h119zM246 377q0 -58 10 -111l236 320q-38 47 -96 47q-70 0 -110 -65.5t-40 -190.5zM545 377
q0 63 -10 107l-235 -321q38 -46 96 -46q69 0 109 67t40 193z" />
    <glyph glyph-name="Ugrave" unicode="&#xd9;" horiz-adv-x="774" 
d="M347 799l-157 183h160l137 -183h-140zM657 249q0 -123 -68 -195.5t-197 -72.5q-151 0 -216 70t-65 198v380h-76v121h313v-121h-62v-388q0 -55 29 -90t82 -35t81 35t28 90v388h-55v121h282v-121h-76v-380z" />
    <glyph glyph-name="Uacute" unicode="&#xda;" horiz-adv-x="774" 
d="M275 799l137 183h159l-157 -183h-139zM657 249q0 -123 -68 -195.5t-197 -72.5q-151 0 -216 70t-65 198v380h-76v121h313v-121h-62v-388q0 -55 29 -90t82 -35t81 35t28 90v388h-55v121h282v-121h-76v-380z" />
    <glyph glyph-name="Ucircumflex" unicode="&#xdb;" horiz-adv-x="774" 
d="M413 903l-87 -92h-131l146 183h143l146 -183h-131zM451 750h282v-121h-76v-380q0 -123 -68 -195.5t-197 -72.5q-151 0 -216 70t-65 198v380h-76v121h313v-121h-62v-388q0 -55 29 -90t82 -35t81 35t28 90v388h-55v121z" />
    <glyph glyph-name="Udieresis" unicode="&#xdc;" horiz-adv-x="774" 
d="M276 838q-39 0 -66 24.5t-27 59.5q0 34 27 60t66 26q40 0 66.5 -25.5t26.5 -60.5t-26 -59.5t-67 -24.5zM524 838q-41 0 -67 24.5t-26 59.5t26.5 60.5t66.5 25.5q39 0 66 -26t27 -60q0 -35 -27 -59.5t-66 -24.5zM657 249q0 -123 -68 -195.5t-197 -72.5q-151 0 -216 70
t-65 198v380h-76v121h313v-121h-62v-388q0 -55 29 -90t82 -35t81 35t28 90v388h-55v121h282v-121h-76v-380z" />
    <glyph glyph-name="Yacute" unicode="&#xdd;" horiz-adv-x="744" 
d="M546 982l-157 -183h-139l137 183h159zM438 750h285v-121h-69l-192 -358v-150h81v-121h-345v121h81v154l-184 354h-71v121h321v-121h-65l116 -227l106 227h-64v121z" />
    <glyph glyph-name="Thorn" unicode="&#xde;" horiz-adv-x="719" 
d="M431 567q128 0 192 -43.5t64 -140.5q0 -196 -265 -196h-120v-66h75v-121h-327v121h76v508h-76v121h327v-121h-75v-62h129zM375 281q54 0 84.5 24.5t30.5 71.5q0 95 -115 95h-73v-191h73z" />
    <glyph glyph-name="germandbls" unicode="&#xdf;" horiz-adv-x="707" 
d="M471 404q0 -22 20 -37.5t48 -29t56 -31.5t48 -54.5t20 -88.5q0 -85 -58.5 -134t-159.5 -49q-85 0 -130 20v106q24 -11 74 -11q83 0 83 68q0 24 -16 43t-39 33t-45.5 31t-38.5 47t-16 70q0 32 16 57.5t35.5 40.5t35.5 39t16 53q0 30 -21.5 49t-59.5 19t-59 -20t-21 -51
v-574h-223v115h58v285h-58v115h58v52q0 36 10.5 68t34.5 63.5t73.5 50t119.5 18.5q117 0 183 -50t66 -129q0 -41 -17 -70.5t-38 -42.5t-38 -31.5t-17 -39.5z" />
    <glyph glyph-name="agrave" unicode="&#xe0;" horiz-adv-x="629" 
d="M386 586h-124l-157 183h144zM535 115h58v-116h-220v81q-20 -40 -63 -70t-111 -30q-76 0 -121 37.5t-45 119.5q0 160 242 160h95v43q1 41 -18 63.5t-55 22.5q-35 0 -55.5 -21t-21.5 -52v-9h-161v10q0 86 62.5 133t184.5 47q124 0 176.5 -50.5t52.5 -145.5v-223zM280 93
q40 0 62.5 22t27.5 52v63h-60q-106 0 -106 -73q0 -29 20.5 -46.5t55.5 -17.5z" />
    <glyph glyph-name="aacute" unicode="&#xe1;" horiz-adv-x="629" 
d="M470 769l-157 -183h-124l137 183h144zM535 115h58v-116h-220v81q-20 -40 -63 -70t-111 -30q-76 0 -121 37.5t-45 119.5q0 160 242 160h95v43q1 41 -18 63.5t-55 22.5q-35 0 -55.5 -21t-21.5 -52v-9h-161v10q0 86 62.5 133t184.5 47q124 0 176.5 -50.5t52.5 -145.5v-223z
M280 93q40 0 62.5 22t27.5 52v63h-60q-106 0 -106 -73q0 -29 20.5 -46.5t55.5 -17.5z" />
    <glyph glyph-name="acircumflex" unicode="&#xe2;" horiz-adv-x="629" 
d="M308 671l-87 -92h-116l146 183h112l146 -183h-115zM535 115h58v-116h-220v81q-20 -40 -63 -70t-111 -30q-76 0 -121 37.5t-45 119.5q0 160 242 160h95v43q1 41 -18 63.5t-55 22.5q-35 0 -55.5 -21t-21.5 -52v-9h-161v10q0 86 62.5 133t184.5 47q124 0 176.5 -50.5
t52.5 -145.5v-223zM280 93q40 0 62.5 22t27.5 52v63h-60q-106 0 -106 -73q0 -29 20.5 -46.5t55.5 -17.5z" />
    <glyph glyph-name="atilde" unicode="&#xe3;" horiz-adv-x="629" 
d="M214 654q-48 0 -48 -43h-77q0 69 32 109.5t91 40.5q42 0 94.5 -18.5t72.5 -18.5q46 0 46 42h78q0 -69 -32 -109.5t-90 -40.5q-43 0 -95.5 19t-71.5 19zM535 115h58v-116h-220v81q-20 -40 -63 -70t-111 -30q-76 0 -121 37.5t-45 119.5q0 160 242 160h95v43q1 41 -18 63.5
t-55 22.5q-35 0 -55.5 -21t-21.5 -52v-9h-161v10q0 86 62.5 133t184.5 47q124 0 176.5 -50.5t52.5 -145.5v-223zM280 93q40 0 62.5 22t27.5 52v63h-60q-106 0 -106 -73q0 -29 20.5 -46.5t55.5 -17.5z" />
    <glyph glyph-name="adieresis" unicode="&#xe4;" horiz-adv-x="629" 
d="M208 620q-34 0 -57 20.5t-23 50.5t23 51t57 21t56.5 -21t22.5 -51t-22.5 -50.5t-56.5 -20.5zM420 620q-34 0 -56.5 20.5t-22.5 50.5t22.5 51t56.5 21t57 -21t23 -51t-23 -50.5t-57 -20.5zM535 115h58v-116h-220v81q-20 -40 -63 -70t-111 -30q-76 0 -121 37.5t-45 119.5
q0 160 242 160h95v43q1 41 -18 63.5t-55 22.5q-35 0 -55.5 -21t-21.5 -52v-9h-161v10q0 86 62.5 133t184.5 47q124 0 176.5 -50.5t52.5 -145.5v-223zM280 93q40 0 62.5 22t27.5 52v63h-60q-106 0 -106 -73q0 -29 20.5 -46.5t55.5 -17.5z" />
    <glyph glyph-name="aring" unicode="&#xe5;" horiz-adv-x="629" 
d="M312 576q-68 0 -114.5 46t-46.5 113q0 69 46 114t115 45t115 -45t46 -114q0 -67 -46.5 -113t-114.5 -46zM312 804q-31 0 -50.5 -19t-19.5 -50q0 -29 20 -49t50 -20q31 0 50.5 19.5t19.5 49.5q0 31 -19 50t-51 19zM535 115h58v-116h-220v81q-20 -40 -63 -70t-111 -30
q-76 0 -121 37.5t-45 119.5q0 160 242 160h95v43q1 41 -18 63.5t-55 22.5q-35 0 -55.5 -21t-21.5 -52v-9h-161v10q0 86 62.5 133t184.5 47q124 0 176.5 -50.5t52.5 -145.5v-223zM280 93q40 0 62.5 22t27.5 52v63h-60q-106 0 -106 -73q0 -29 20.5 -46.5t55.5 -17.5z" />
    <glyph glyph-name="ae" unicode="&#xe6;" horiz-adv-x="935" 
d="M904 268v-36h-364q5 -72 31.5 -108.5t68.5 -36.5q34 0 58.5 21.5t32.5 63.5h173q-19 -91 -88 -141.5t-174 -50.5q-146 0 -219 105q-27 -42 -81.5 -73.5t-120.5 -31.5q-92 0 -140 36.5t-48 119.5q0 156 238 156h103v44q0 94 -74 94q-36 0 -58 -23t-22 -56v-9h-161v9
q0 87 64 135.5t186 48.5q116 0 172 -47q66 47 161 47q126 0 194 -72t68 -195zM638 438q-88 0 -98 -140h193q-4 69 -29.5 104.5t-65.5 35.5zM286 93q39 0 63.5 26.5t24.5 60.5v49h-69q-101 0 -101 -73q0 -30 21.5 -46.5t60.5 -16.5z" />
    <glyph glyph-name="ccedilla" unicode="&#xe7;" horiz-adv-x="593" 
d="M564 209q-5 -102 -73 -164.5t-180 -64.5l-37 -53q33 11 61 11q29 0 56 -8t50.5 -33t23.5 -63q0 -58 -49 -85.5t-125 -27.5q-22 0 -45.5 6t-31.5 12v55q28 -8 53 -8q44 0 65 10.5t21 40.5q0 21 -15 33.5t-41 12.5q-21 0 -38.5 -6.5t-24.5 -12.5l-6 -7l-43 32l65 95
q-102 17 -159.5 91t-57.5 182q0 123 73 200.5t198 77.5q115 0 184.5 -63.5t74.5 -166.5h-172q-4 57 -28 89.5t-59 32.5q-42 0 -68.5 -46t-26.5 -124t26.5 -124t68.5 -46q36 0 59.5 32.5t27.5 89.5h173z" />
    <glyph glyph-name="egrave" unicode="&#xe8;" horiz-adv-x="604" 
d="M380 586h-124l-157 183h144zM400 175h173q-20 -92 -89 -143.5t-173 -51.5q-126 0 -202 77.5t-76 199.5t76 200t202 78q125 0 193 -72t68 -195v-36h-363q5 -72 31 -108.5t68 -36.5q33 0 58 23t34 65zM307 438q-85 0 -97 -132h191q-5 64 -30.5 98t-63.5 34z" />
    <glyph glyph-name="eacute" unicode="&#xe9;" horiz-adv-x="604" 
d="M464 769l-157 -183h-124l137 183h144zM400 175h173q-20 -92 -89 -143.5t-173 -51.5q-126 0 -202 77.5t-76 199.5t76 200t202 78q125 0 193 -72t68 -195v-36h-363q5 -72 31 -108.5t68 -36.5q33 0 58 23t34 65zM307 438q-85 0 -97 -132h191q-5 64 -30.5 98t-63.5 34z" />
    <glyph glyph-name="ecircumflex" unicode="&#xea;" horiz-adv-x="604" 
d="M306 671l-87 -92h-116l146 183h112l146 -183h-115zM400 175h173q-20 -92 -89 -143.5t-173 -51.5q-126 0 -202 77.5t-76 199.5t76 200t202 78q125 0 193 -72t68 -195v-36h-363q5 -72 31 -108.5t68 -36.5q33 0 58 23t34 65zM307 438q-85 0 -97 -132h191q-5 64 -30.5 98
t-63.5 34z" />
    <glyph glyph-name="edieresis" unicode="&#xeb;" horiz-adv-x="604" 
d="M202 620q-34 0 -57 20.5t-23 50.5t23 51t57 21t56.5 -21t22.5 -51t-22.5 -50.5t-56.5 -20.5zM414 620q-34 0 -56.5 20.5t-22.5 50.5t22.5 51t56.5 21t57 -21t23 -51t-23 -50.5t-57 -20.5zM400 175h173q-20 -92 -89 -143.5t-173 -51.5q-126 0 -202 77.5t-76 199.5t76 200
t202 78q125 0 193 -72t68 -195v-36h-363q5 -72 31 -108.5t68 -36.5q33 0 58 23t34 65zM307 438q-85 0 -97 -132h191q-5 64 -30.5 98t-63.5 34z" />
    <glyph glyph-name="igrave" unicode="&#xec;" horiz-adv-x="353" 
d="M250 586h-124l-157 183h144zM259 115h58v-115h-281v115h58v284h-58v116h223v-400z" />
    <glyph glyph-name="iacute" unicode="&#xed;" horiz-adv-x="353" 
d="M335 769l-157 -183h-124l137 183h144zM259 515v-400h58v-115h-281v115h58v284h-58v116h223z" />
    <glyph glyph-name="icircumflex" unicode="&#xee;" horiz-adv-x="353" 
d="M177 671l-87 -92h-116l146 183h112l146 -183h-115zM259 515v-400h58v-115h-281v115h58v284h-58v116h223z" />
    <glyph glyph-name="idieresis" unicode="&#xef;" horiz-adv-x="353" 
d="M150 691q0 -30 -22.5 -50.5t-56.5 -20.5t-57 20.5t-23 50.5t23 51t57 21t56.5 -21t22.5 -51zM283 763q34 0 57 -21t23 -51t-23 -50.5t-57 -20.5t-56.5 20.5t-22.5 50.5t22.5 51t56.5 21zM259 515v-400h58v-115h-281v115h58v284h-58v116h223z" />
    <glyph glyph-name="eth" unicode="&#xf0;" horiz-adv-x="606" 
d="M426 680q147 -179 147 -396q0 -140 -73.5 -222t-196.5 -82q-121 0 -195.5 78t-74.5 200t74.5 199.5t195.5 77.5q23 0 44 -3q-18 37 -44 76l-89 -52v82l46 27q-27 32 -50 52l100 76q38 -32 67 -60l92 54v-82zM303 87q44 0 69.5 44.5t25.5 126.5t-25.5 125.5t-69.5 43.5
t-69.5 -43.5t-25.5 -125.5t25.5 -126.5t69.5 -44.5z" />
    <glyph glyph-name="ntilde" unicode="&#xf1;" horiz-adv-x="669" 
d="M234 654q-48 0 -48 -43h-77q0 69 32 109.5t91 40.5q42 0 94.5 -18.5t72.5 -18.5q46 0 46 42h78q0 -69 -32 -109.5t-90 -40.5q-43 0 -95.5 19t-71.5 19zM578 115h54v-115h-260v115h41v220q0 84 -67 84q-37 0 -62 -25.5t-25 -62.5v-216h41v-115h-264v115h58v284h-58v116
h223v-70q55 90 161 90q70 0 114 -43.5t44 -113.5v-263z" />
    <glyph glyph-name="ograve" unicode="&#xf2;" horiz-adv-x="606" 
d="M252 586l-157 183h144l137 -183h-124zM303 535q121 0 195.5 -77.5t74.5 -199.5q0 -123 -74.5 -200.5t-195.5 -77.5t-195.5 78t-74.5 200t74.5 199.5t195.5 77.5zM303 87q44 0 69.5 45t25.5 126t-25.5 125t-69.5 44t-69.5 -44.5t-25.5 -124.5q0 -81 26 -126t69 -45z" />
    <glyph glyph-name="oacute" unicode="&#xf3;" horiz-adv-x="606" 
d="M195 586l137 183h144l-157 -183h-124zM303 535q121 0 195.5 -77.5t74.5 -199.5q0 -123 -74.5 -200.5t-195.5 -77.5t-195.5 78t-74.5 200t74.5 199.5t195.5 77.5zM303 87q44 0 69.5 45t25.5 126t-25.5 125t-69.5 44t-69.5 -44.5t-25.5 -124.5q0 -81 26 -126t69 -45z" />
    <glyph glyph-name="ocircumflex" unicode="&#xf4;" horiz-adv-x="606" 
d="M303 671l-87 -92h-116l146 183h112l146 -183h-115zM303 535q121 0 195.5 -77.5t74.5 -199.5q0 -123 -74.5 -200.5t-195.5 -77.5t-195.5 78t-74.5 200t74.5 199.5t195.5 77.5zM303 87q44 0 69.5 45t25.5 126t-25.5 125t-69.5 44t-69.5 -44.5t-25.5 -124.5q0 -81 26 -126
t69 -45z" />
    <glyph glyph-name="otilde" unicode="&#xf5;" horiz-adv-x="606" 
d="M202 761q42 0 94.5 -18.5t72.5 -18.5q46 0 46 42h78q0 -69 -32 -109.5t-90 -40.5q-43 0 -95.5 19t-71.5 19q-48 0 -48 -43h-77q0 69 32 109.5t91 40.5zM303 535q121 0 195.5 -77.5t74.5 -199.5q0 -123 -74.5 -200.5t-195.5 -77.5t-195.5 78t-74.5 200t74.5 199.5
t195.5 77.5zM303 87q44 0 69.5 45t25.5 126t-25.5 125t-69.5 44t-69.5 -44.5t-25.5 -124.5q0 -81 26 -126t69 -45z" />
    <glyph glyph-name="odieresis" unicode="&#xf6;" horiz-adv-x="606" 
d="M199 620q-34 0 -57 20.5t-23 50.5t23 51t57 21t56.5 -21t22.5 -51t-22.5 -50.5t-56.5 -20.5zM411 620q-34 0 -56.5 20.5t-22.5 50.5t22.5 51t56.5 21t57 -21t23 -51t-23 -50.5t-57 -20.5zM303 535q121 0 195.5 -77.5t74.5 -199.5q0 -123 -74.5 -200.5t-195.5 -77.5
t-195.5 78t-74.5 200t74.5 199.5t195.5 77.5zM303 87q44 0 69.5 45t25.5 126t-25.5 125t-69.5 44t-69.5 -44.5t-25.5 -124.5q0 -81 26 -126t69 -45z" />
    <glyph glyph-name="divide" unicode="&#xf7;" horiz-adv-x="969" 
d="M484 424q-40 0 -65 22.5t-25 56.5t25 56.5t65 22.5t65.5 -22.5t25.5 -56.5t-25.5 -56.5t-65.5 -22.5zM199 367h571v-124h-571v124zM484 28q-40 0 -65 22.5t-25 56.5t25 56.5t65 22.5t65.5 -22.5t25.5 -56.5t-25.5 -56.5t-65.5 -22.5z" />
    <glyph glyph-name="oslash" unicode="&#xf8;" horiz-adv-x="606" 
d="M475 479q98 -77 98 -221q0 -123 -74.5 -200.5t-195.5 -77.5q-76 0 -134 32l-34 -52h-55l50 77q-97 78 -97 221q0 122 74.5 199.5t195.5 77.5q74 0 133 -31l35 53h55zM208 258q0 -47 10 -87l147 224q-24 32 -62 32q-44 0 -69.5 -43.5t-25.5 -125.5zM303 87q44 0 69.5 44.5
t25.5 126.5q0 48 -10 88l-148 -225q26 -34 63 -34z" />
    <glyph glyph-name="ugrave" unicode="&#xf9;" horiz-adv-x="643" 
d="M380 586h-124l-157 183h144zM550 116h58v-116h-223v63q-58 -83 -161 -83q-76 0 -117 46.5t-41 110.5v263h-54v115h219v-336q0 -39 17 -61.5t50 -22.5q38 0 62.5 25.5t24.5 63.5v216h-50v115h215v-399z" />
    <glyph glyph-name="uacute" unicode="&#xfa;" horiz-adv-x="643" 
d="M465 769l-157 -183h-124l137 183h144zM550 116h58v-116h-223v63q-58 -83 -161 -83q-76 0 -117 46.5t-41 110.5v263h-54v115h219v-336q0 -39 17 -61.5t50 -22.5q38 0 62.5 25.5t24.5 63.5v216h-50v115h215v-399z" />
    <glyph glyph-name="ucircumflex" unicode="&#xfb;" horiz-adv-x="643" 
d="M307 671l-87 -92h-116l146 183h112l146 -183h-115zM550 116h58v-116h-223v63q-58 -83 -161 -83q-76 0 -117 46.5t-41 110.5v263h-54v115h219v-336q0 -39 17 -61.5t50 -22.5q38 0 62.5 25.5t24.5 63.5v216h-50v115h215v-399z" />
    <glyph glyph-name="udieresis" unicode="&#xfc;" horiz-adv-x="643" 
d="M203 620q-34 0 -57 20.5t-23 50.5t23 51t57 21t56.5 -21t22.5 -51t-22.5 -50.5t-56.5 -20.5zM415 620q-34 0 -56.5 20.5t-22.5 50.5t22.5 51t56.5 21t57 -21t23 -51t-23 -50.5t-57 -20.5zM550 116h58v-116h-223v63q-58 -83 -161 -83q-76 0 -117 46.5t-41 110.5v263h-54
v115h219v-336q0 -39 17 -61.5t50 -22.5q38 0 62.5 25.5t24.5 63.5v216h-50v115h215v-399z" />
    <glyph glyph-name="yacute" unicode="&#xfd;" horiz-adv-x="613" 
d="M462 769l-157 -183h-124l137 183h144zM599 515v-115h-49l-176 -429q-35 -85 -81 -131.5t-121 -46.5q-39 0 -72 7l8 121q48 -3 62 -3q62 0 80 51l1 3l-184 428h-55v115h269v-115h-50l94 -258l100 258h-57v115h231z" />
    <glyph glyph-name="thorn" unicode="&#xfe;" horiz-adv-x="654" 
d="M409 535q91 0 151.5 -71.5t60.5 -198.5t-60.5 -198.5t-151.5 -71.5q-104 0 -149 80v-157h65v-108h-289v108h59v716h-59v116h224v-296q44 81 149 81zM346 112q45 0 72.5 40t27.5 113t-27 112.5t-73 39.5q-36 0 -60.5 -27t-24.5 -62l-1 4v-134l1 4q0 -35 24.5 -62.5
t60.5 -27.5z" />
    <glyph glyph-name="ydieresis" unicode="&#xff;" horiz-adv-x="613" 
d="M201 620q-34 0 -57 20.5t-23 50.5t23 51t57 21t56.5 -21t22.5 -51t-22.5 -50.5t-56.5 -20.5zM413 620q-34 0 -56.5 20.5t-22.5 50.5t22.5 51t56.5 21t57 -21t23 -51t-23 -50.5t-57 -20.5zM599 515v-115h-49l-176 -429q-35 -85 -81 -131.5t-121 -46.5q-39 0 -72 7l8 121
q48 -3 62 -3q62 0 80 51l1 3l-184 428h-55v115h269v-115h-50l94 -258l100 258h-57v115h231z" />
    <glyph glyph-name="Amacron" unicode="&#x100;" horiz-adv-x="782" 
d="M600 965v-127h-423v127h423zM698 121h60v-121h-315v121h66l-31 114h-212l-30 -114h65v-121h-277v121h63l191 631h226zM289 323h165l-84 308z" />
    <glyph glyph-name="amacron" unicode="&#x101;" horiz-adv-x="629" 
d="M515 756v-119h-408v119h408zM535 115h58v-116h-220v81q-20 -40 -63 -70t-111 -30q-76 0 -121 37.5t-45 119.5q0 160 242 160h95v43q1 41 -18 63.5t-55 22.5q-35 0 -55.5 -21t-21.5 -52v-9h-161v10q0 86 62.5 133t184.5 47q124 0 176.5 -50.5t52.5 -145.5v-223zM280 93
q40 0 62.5 22t27.5 52v63h-60q-106 0 -106 -73q0 -29 20.5 -46.5t55.5 -17.5z" />
    <glyph glyph-name="Abreve" unicode="&#x102;" horiz-adv-x="782" 
d="M388 790q-90 0 -138.5 51.5t-48.5 135.5h85q2 -52 31.5 -75.5t70.5 -23.5t71 23.5t31 75.5h86q0 -84 -49 -135.5t-139 -51.5zM698 121h60v-121h-315v121h66l-31 114h-212l-30 -114h65v-121h-277v121h63l191 631h226zM289 323h165l-84 308z" />
    <glyph glyph-name="abreve" unicode="&#x103;" horiz-adv-x="629" 
d="M312 585q-86 0 -128.5 49t-42.5 134h70q2 -52 31 -75t70 -23q42 0 72 23t31 75h71q0 -84 -43.5 -133.5t-130.5 -49.5zM535 115h58v-116h-220v81q-20 -40 -63 -70t-111 -30q-76 0 -121 37.5t-45 119.5q0 160 242 160h95v43q1 41 -18 63.5t-55 22.5q-35 0 -55.5 -21
t-21.5 -52v-9h-161v10q0 86 62.5 133t184.5 47q124 0 176.5 -50.5t52.5 -145.5v-223zM280 93q40 0 62.5 22t27.5 52v63h-60q-106 0 -106 -73q0 -29 20.5 -46.5t55.5 -17.5z" />
    <glyph glyph-name="Aogonek" unicode="&#x104;" horiz-adv-x="782" 
d="M698 121h60v-121h-24q-37 0 -66.5 -24.5t-29.5 -49.5q0 -15 10.5 -26.5t30.5 -11.5q35 0 54 17v-78q-23 -18 -104 -18q-66 0 -99.5 25.5t-33.5 63.5q0 33 33 63t68 39h-154v121h66l-31 114h-212l-30 -114h65v-121h-277v121h63l191 631h226zM289 323h165l-84 308z" />
    <glyph glyph-name="aogonek" unicode="&#x105;" horiz-adv-x="629" 
d="M542 -107q32 0 52 16v-74q-22 -17 -100 -17q-62 0 -95 26.5t-33 62.5q0 32 26.5 57t63.5 35h-83v81q-20 -40 -63 -70t-111 -30q-76 0 -121 37.5t-45 119.5q0 160 242 160h95v43q1 41 -18 63.5t-55 22.5q-35 0 -55.5 -21t-21.5 -52v-9h-161v10q0 86 62.5 133t184.5 47
q124 0 176.5 -50.5t52.5 -145.5v-223h58v-116h-17q-32 -4 -52.5 -25t-20.5 -44q0 -14 10 -25.5t29 -11.5zM280 93q40 0 62.5 22t27.5 52v63h-60q-106 0 -106 -73q0 -29 20.5 -46.5t55.5 -17.5z" />
    <glyph glyph-name="Cacute" unicode="&#x106;" horiz-adv-x="761" 
d="M548 982l-157 -183h-139l137 183h159zM538 291h169q-5 -149 -85 -230t-227 -81q-160 0 -252 111t-92 285q0 169 86 281.5t219 112.5q154 0 211 -120l12 100h115v-271h-165q-10 73 -45.5 113.5t-84.5 40.5q-68 0 -107 -66.5t-39 -189.5q0 -122 42 -191t110 -69
q105 0 133 174z" />
    <glyph glyph-name="cacute" unicode="&#x107;" horiz-adv-x="593" 
d="M172 586l137 183h144l-157 -183h-124zM391 305q-4 57 -28 89.5t-59 32.5q-42 0 -68.5 -46t-26.5 -124t26.5 -124t68.5 -46q36 0 59.5 32.5t27.5 89.5h173q-5 -103 -75 -166t-185 -63q-125 0 -198 77t-73 200t73 200.5t198 77.5q115 0 184.5 -63.5t74.5 -166.5h-172z" />
    <glyph glyph-name="Cdotaccent" unicode="&#x10a;" horiz-adv-x="761" 
d="M380 838q-43 0 -72 25t-29 63t29 63.5t72 25.5t72 -25.5t29 -63.5t-29 -63t-72 -25zM538 291h169q-5 -149 -85 -230t-227 -81q-160 0 -252 111t-92 285q0 169 86 281.5t219 112.5q154 0 211 -120l12 100h115v-271h-165q-10 73 -45.5 113.5t-84.5 40.5q-68 0 -107 -66.5
t-39 -189.5q0 -122 42 -191t110 -69q105 0 133 174z" />
    <glyph glyph-name="cdotaccent" unicode="&#x10b;" horiz-adv-x="593" 
d="M298 618q-41 0 -68.5 24.5t-27.5 59.5q0 36 27.5 61t68.5 25t69 -25t28 -61t-27.5 -60t-69.5 -24zM391 305q-4 57 -28 89.5t-59 32.5q-42 0 -68.5 -46t-26.5 -124t26.5 -124t68.5 -46q36 0 59.5 32.5t27.5 89.5h173q-5 -103 -75 -166t-185 -63q-125 0 -198 77t-73 200
t73 200.5t198 77.5q115 0 184.5 -63.5t74.5 -166.5h-172z" />
    <glyph glyph-name="Ccaron" unicode="&#x10c;" horiz-adv-x="761" 
d="M463 800h-143l-143 182h131l84 -91l83 91h131zM538 291h169q-5 -149 -85 -230t-227 -81q-160 0 -252 111t-92 285q0 169 86 281.5t219 112.5q154 0 211 -120l12 100h115v-271h-165q-10 73 -45.5 113.5t-84.5 40.5q-68 0 -107 -66.5t-39 -189.5q0 -122 42 -191t110 -69
q105 0 133 174z" />
    <glyph glyph-name="ccaron" unicode="&#x10d;" horiz-adv-x="593" 
d="M356 580h-112l-143 182h116l84 -91l83 91h115zM391 209h173q-5 -103 -75 -166t-185 -63q-125 0 -198 77t-73 200t73 200.5t198 77.5q115 0 184.5 -63.5t74.5 -166.5h-172q-4 57 -28 89.5t-59 32.5q-42 0 -68.5 -46t-26.5 -124t26.5 -124t68.5 -46q36 0 59.5 32.5
t27.5 89.5z" />
    <glyph glyph-name="Dcaron" unicode="&#x10e;" horiz-adv-x="786" 
d="M463 800h-143l-143 182h131l84 -91l83 91h131zM406 750q162 0 245.5 -101.5t83.5 -271.5q0 -173 -83.5 -275t-245.5 -102h-345v121h72v508h-72v121h345zM382 121q74 0 114.5 64t40.5 192q0 252 -155 252h-74v-508h74z" />
    <glyph glyph-name="dcaron" unicode="&#x10f;" horiz-adv-x="750" 
d="M559 750v-635h58v-116h-223v59q-45 -78 -148 -78q-91 0 -152 75t-61 203t61 202.5t152 74.5q104 0 148 -79v186h-72v108h237zM626 750h103v-90q0 -41 -26 -90t-61 -83l-26 23q10 18 10 240zM308 99q36 0 61 27.5t25 62.5v137q0 35 -25 62t-61 27q-45 0 -72.5 -42
t-27.5 -115t27.5 -116t72.5 -43z" />
    <glyph glyph-name="Dcroat" unicode="&#x110;" horiz-adv-x="773" 
d="M396 750q162 0 245 -101.5t83 -271.5q0 -173 -83 -275t-245 -102h-346v121h73v196h-71v123h71v189h-73v121h346zM371 121q74 0 114.5 64t40.5 192q0 252 -155 252h-73v-189h87v-123h-87v-196h73z" />
    <glyph glyph-name="dcroat" unicode="&#x111;" horiz-adv-x="654" 
d="M617 575h-58v-460h58v-116h-223v59q-45 -78 -148 -78q-91 0 -152 75t-61 203t61 202.5t152 74.5q104 0 148 -79v119h-136v98h136v77h165v-77h58v-98zM308 99q36 0 61 27.5t25 62.5v137q0 35 -25 62t-61 27q-45 0 -72.5 -42t-27.5 -115t27.5 -116t72.5 -43z" />
    <glyph glyph-name="Emacron" unicode="&#x112;" horiz-adv-x="690" 
d="M567 965v-127h-423v127h423zM630 486h-101v26q0 70 -16.5 93.5t-67.5 23.5h-133v-187h149v-109h-149v-212h133q50 0 67 25.5t17 94.5v49h101v-290h-569v121h76v508h-76v121h569v-264z" />
    <glyph glyph-name="emacron" unicode="&#x113;" horiz-adv-x="604" 
d="M511 756v-119h-408v119h408zM400 175h173q-20 -92 -89 -143.5t-173 -51.5q-126 0 -202 77.5t-76 199.5t76 200t202 78q125 0 193 -72t68 -195v-36h-363q5 -72 31 -108.5t68 -36.5q33 0 58 23t34 65zM307 438q-85 0 -97 -132h191q-5 64 -30.5 98t-63.5 34z" />
    <glyph glyph-name="Ebreve" unicode="&#x114;" horiz-adv-x="690" 
d="M360 790q-90 0 -138.5 51.5t-48.5 135.5h85q2 -52 31.5 -75.5t70.5 -23.5t71 23.5t31 75.5h86q0 -84 -49 -135.5t-139 -51.5zM630 486h-101v26q0 70 -16.5 93.5t-67.5 23.5h-133v-187h149v-109h-149v-212h133q50 0 67 25.5t17 94.5v49h101v-290h-569v121h76v508h-76v121
h569v-264z" />
    <glyph glyph-name="ebreve" unicode="&#x115;" horiz-adv-x="604" 
d="M306 585q-86 0 -128.5 49t-42.5 134h70q2 -52 31 -75t70 -23q42 0 72 23t31 75h71q0 -84 -43.5 -133.5t-130.5 -49.5zM400 175h173q-20 -92 -89 -143.5t-173 -51.5q-126 0 -202 77.5t-76 199.5t76 200t202 78q125 0 193 -72t68 -195v-36h-363q5 -72 31 -108.5t68 -36.5
q33 0 58 23t34 65zM307 438q-85 0 -97 -132h191q-5 64 -30.5 98t-63.5 34z" />
    <glyph glyph-name="Edotaccent" unicode="&#x116;" horiz-adv-x="690" 
d="M355 838q-43 0 -72 25t-29 63t29 63.5t72 25.5t72 -25.5t29 -63.5t-29 -63t-72 -25zM630 486h-101v26q0 70 -16.5 93.5t-67.5 23.5h-133v-187h149v-109h-149v-212h133q50 0 67 25.5t17 94.5v49h101v-290h-569v121h76v508h-76v121h569v-264z" />
    <glyph glyph-name="edotaccent" unicode="&#x117;" horiz-adv-x="604" 
d="M306 618q-41 0 -68.5 24.5t-27.5 59.5q0 36 27.5 61t68.5 25t69 -25t28 -61t-27.5 -60t-69.5 -24zM400 175h173q-20 -92 -89 -143.5t-173 -51.5q-126 0 -202 77.5t-76 199.5t76 200t202 78q125 0 193 -72t68 -195v-36h-363q5 -72 31 -108.5t68 -36.5q33 0 58 23t34 65z
M307 438q-85 0 -97 -132h191q-5 64 -30.5 98t-63.5 34z" />
    <glyph glyph-name="Eogonek" unicode="&#x118;" horiz-adv-x="690" 
d="M630 486h-101v26q0 70 -16.5 93.5t-67.5 23.5h-133v-187h149v-109h-149v-212h133q50 0 67 25.5t17 94.5v49h101v-290h-15q-37 0 -67 -25t-30 -50q0 -14 10.5 -25.5t30.5 -11.5q34 0 55 16v-78q-24 -17 -105 -17q-66 0 -99.5 25.5t-33.5 63.5q0 32 33.5 62t68.5 40h-417
v121h76v508h-76v121h569v-264z" />
    <glyph glyph-name="eogonek" unicode="&#x119;" horiz-adv-x="604" 
d="M399 -9q-40 -30 -55 -49t-15 -39q0 -14 10.5 -25.5t29.5 -11.5q32 0 52 16v-74q-22 -17 -101 -17q-62 0 -95 26.5t-33 62.5q0 55 69 104q-105 15 -166.5 89.5t-61.5 183.5q0 122 76 200t202 78q125 0 193 -72t68 -195v-36h-363q5 -72 31 -108.5t68 -36.5q33 0 58 23
t34 65h173q-15 -70 -60 -117.5t-114 -66.5zM307 438q-85 0 -97 -132h191q-5 64 -30.5 98t-63.5 34z" />
    <glyph glyph-name="Ecaron" unicode="&#x11a;" horiz-adv-x="690" 
d="M437 800h-143l-143 182h131l84 -91l83 91h131zM630 486h-101v26q0 70 -16.5 93.5t-67.5 23.5h-133v-187h149v-109h-149v-212h133q50 0 67 25.5t17 94.5v49h101v-290h-569v121h76v508h-76v121h569v-264z" />
    <glyph glyph-name="ecaron" unicode="&#x11b;" horiz-adv-x="604" 
d="M362 580h-112l-143 182h116l84 -91l83 91h115zM400 175h173q-20 -92 -89 -143.5t-173 -51.5q-126 0 -202 77.5t-76 199.5t76 200t202 78q125 0 193 -72t68 -195v-36h-363q5 -72 31 -108.5t68 -36.5q33 0 58 23t34 65zM307 438q-85 0 -97 -132h191q-5 64 -30.5 98
t-63.5 34z" />
    <glyph glyph-name="Gcircumflex" unicode="&#x11c;" horiz-adv-x="798" 
d="M412 903l-87 -92h-131l146 183h143l146 -183h-131zM442 369h326v-99h-49v-270h-110l-18 123q-65 -143 -220 -143q-152 0 -236 108t-84 289q0 177 86 285t231 108q152 0 213 -128l13 108h116v-256h-175q-10 67 -44.5 103t-85.5 36q-72 0 -114 -68t-42 -188t44 -190
t120 -70q59 0 98.5 41t43.5 112h-113v99z" />
    <glyph glyph-name="gcircumflex" unicode="&#x11d;" horiz-adv-x="644" 
d="M318 671l-87 -92h-116l146 183h112l146 -183h-115zM342 123q139 0 199 -36t60 -124q0 -94 -71.5 -136t-248.5 -42q-77 0 -129 12t-76.5 33.5t-33.5 43t-9 49.5q0 69 68 99q-36 29 -36 83q0 41 29.5 73.5t69.5 44.5q-83 48 -83 139q0 77 64.5 125t170.5 48t170.5 -48
t64.5 -125t-64.5 -125t-170.5 -48q-43 0 -81 8q-31 -10 -31 -36q0 -22 22 -30t76 -8h40zM316 455q-37 0 -56.5 -24.5t-19.5 -68.5t19.5 -68.5t56.5 -24.5t57 24.5t20 68.5t-20 68.5t-57 24.5zM336 -139q58 0 97.5 17.5t39.5 53.5q0 30 -29 41t-103 11h-69q-44 0 -82 5
q-28 -18 -28 -51q0 -39 39.5 -58t99.5 -19h35z" />
    <glyph glyph-name="Gbreve" unicode="&#x11e;" horiz-adv-x="798" 
d="M410 790q-90 0 -138.5 51.5t-48.5 135.5h85q2 -52 31.5 -75.5t70.5 -23.5t71 23.5t31 75.5h86q0 -84 -49 -135.5t-139 -51.5zM442 369h326v-99h-49v-270h-110l-18 123q-65 -143 -220 -143q-152 0 -236 108t-84 289q0 177 86 285t231 108q152 0 213 -128l13 108h116v-256
h-175q-10 67 -44.5 103t-85.5 36q-72 0 -114 -68t-42 -188t44 -190t120 -70q59 0 98.5 41t43.5 112h-113v99z" />
    <glyph glyph-name="gbreve" unicode="&#x11f;" horiz-adv-x="644" 
d="M314 585q-86 0 -128.5 49t-42.5 134h70q2 -52 31 -75t70 -23q42 0 72 23t31 75h71q0 -84 -43.5 -133.5t-130.5 -49.5zM342 123q139 0 199 -36t60 -124q0 -94 -71.5 -136t-248.5 -42q-77 0 -129 12t-76.5 33.5t-33.5 43t-9 49.5q0 69 68 99q-36 29 -36 83q0 41 29.5 73.5
t69.5 44.5q-83 48 -83 139q0 77 64.5 125t170.5 48t170.5 -48t64.5 -125t-64.5 -125t-170.5 -48q-43 0 -81 8q-31 -10 -31 -36q0 -22 22 -30t76 -8h40zM316 455q-37 0 -56.5 -24.5t-19.5 -68.5t19.5 -68.5t56.5 -24.5t57 24.5t20 68.5t-20 68.5t-57 24.5zM336 -139
q58 0 97.5 17.5t39.5 53.5q0 30 -29 41t-103 11h-69q-44 0 -82 5q-28 -18 -28 -51q0 -39 39.5 -58t99.5 -19h35z" />
    <glyph glyph-name="Gdotaccent" unicode="&#x120;" horiz-adv-x="798" 
d="M408 838q-43 0 -72 25t-29 63t29 63.5t72 25.5t72 -25.5t29 -63.5t-29 -63t-72 -25zM442 369h326v-99h-49v-270h-110l-18 123q-65 -143 -220 -143q-152 0 -236 108t-84 289q0 177 86 285t231 108q152 0 213 -128l13 108h116v-256h-175q-10 67 -44.5 103t-85.5 36
q-72 0 -114 -68t-42 -188t44 -190t120 -70q59 0 98.5 41t43.5 112h-113v99z" />
    <glyph glyph-name="gdotaccent" unicode="&#x121;" horiz-adv-x="644" 
d="M309 602q-41 0 -68.5 24.5t-27.5 59.5q0 36 27.5 61t68.5 25t69 -25t28 -61t-27.5 -60t-69.5 -24zM571 544q-73 0 -77 -63q57 -48 57 -119q0 -77 -64.5 -125t-170.5 -48q-43 0 -81 8q-31 -10 -31 -36q0 -22 22 -30t76 -8h40q139 0 199 -36t60 -124q0 -94 -71.5 -136
t-248.5 -42q-77 0 -129 12t-76.5 33.5t-33.5 43t-9 49.5q0 69 68 99q-36 29 -36 83q0 40 28.5 73t67.5 47q-80 46 -80 137q0 77 64.5 125t170.5 48q58 0 108 -16q4 133 118 133q43 0 61 -9v-102q-9 3 -32 3zM316 273q37 0 57 23t20 66t-20 66t-57 23t-56.5 -23t-19.5 -66
t19.5 -66t56.5 -23zM341 -16h-69q-44 0 -82 5q-28 -18 -28 -51q0 -39 39.5 -58t99.5 -19h35q58 0 97.5 17.5t39.5 53.5q0 30 -29 41t-103 11z" />
    <glyph glyph-name="Gcommaaccent" unicode="&#x122;" horiz-adv-x="798" 
d="M442 369h326v-99h-49v-270h-110l-18 123q-65 -143 -220 -143q-152 0 -236 108t-84 289q0 177 86 285t231 108q152 0 213 -128l13 108h116v-256h-175q-10 67 -44.5 103t-85.5 36q-72 0 -114 -68t-42 -188t44 -190t120 -70q59 0 98.5 41t43.5 112h-113v99zM409 -59
q36 0 58.5 -23t22.5 -64q0 -46 -32 -94.5t-86 -81.5l-27 25l10 11q10 12 14 17.5t12.5 17.5t14 24.5t9.5 26.5q-35 4 -55 24.5t-20 46.5q0 30 22.5 50t56.5 20z" />
    <glyph glyph-name="gcommaaccent" unicode="&#x123;" horiz-adv-x="618" 
d="M247 640q0 25 10 44.5t27 23.5q-7 40 -30 93l14 24q27 -32 42.5 -78.5t15.5 -90.5q0 -39 -11 -61t-29 -22q-17 0 -28 19.5t-11 47.5zM571 544q-73 0 -77 -63q57 -48 57 -119q0 -77 -64.5 -125t-170.5 -48q-43 0 -81 8q-31 -10 -31 -36q0 -22 22 -30t76 -8h40
q139 0 199 -36t60 -124q0 -94 -71.5 -136t-248.5 -42q-77 0 -129 12t-76.5 33.5t-33.5 43t-9 49.5q0 69 68 99q-36 29 -36 83q0 40 28.5 73t67.5 47q-80 46 -80 137q0 77 64.5 125t170.5 48q58 0 108 -16q4 133 118 133q43 0 61 -9v-102q-9 3 -32 3zM316 273q37 0 57 23
t20 66t-20 66t-57 23t-56.5 -23t-19.5 -66t19.5 -66t56.5 -23zM341 -16h-69q-44 0 -82 5q-28 -18 -28 -51q0 -39 39.5 -58t99.5 -19h35q58 0 97.5 17.5t39.5 53.5q0 30 -29 41t-103 11z" />
    <glyph glyph-name="Hcircumflex" unicode="&#x124;" horiz-adv-x="872" 
d="M449 903l-87 -92h-131l146 183h143l146 -183h-131zM806 629h-72v-508h72v-121h-303v121h56v213h-251v-213h56v-121h-303v121h72v508h-72v121h303v-121h-56v-191h251v191h-56v121h303v-121z" />
    <glyph glyph-name="hcircumflex" unicode="&#x125;" horiz-adv-x="669" 
d="M338 883l-87 -92h-116l146 183h112l146 -183h-115zM578 115h54v-115h-260v115h41v220q0 41 -17.5 62.5t-49.5 21.5q-37 0 -62 -25.5t-25 -62.5v-216h41v-115h-264v115h58v520h-58v115h223v-305q55 90 161 90q68 0 113 -43t45 -114v-263z" />
    <glyph glyph-name="Hbar" unicode="&#x126;" horiz-adv-x="833" 
d="M782 629h-72v-82h51v-75h-51v-351h72v-121h-302v121h55v196h-237v-196h55v-121h-303v121h73v351h-51v75h51v82h-73v121h303v-121h-55v-82h237v82h-55v121h302v-121zM535 417v55h-237v-55h237z" />
    <glyph glyph-name="hbar" unicode="&#x127;" horiz-adv-x="669" 
d="M578 115h54v-115h-219v335q0 84 -67 84q-37 0 -62 -25.5t-25 -62.5v-216h50v-115h-273v115h58v460h-57v98h57v77h165v-77h138v-98h-138v-129q55 89 161 89q76 0 117 -46t41 -111v-263z" />
    <glyph glyph-name="Itilde" unicode="&#x128;" horiz-adv-x="449" 
d="M127 992q47 0 102.5 -20t77.5 -20q49 0 49 45h85q0 -76 -34.5 -119.5t-96.5 -43.5q-46 0 -102 20t-77 20q-51 0 -51 -45h-84q0 76 34 119.5t97 43.5zM61 0v121h76v508h-76v121h327v-121h-76v-508h76v-121h-327z" />
    <glyph glyph-name="itilde" unicode="&#x129;" horiz-adv-x="353" 
d="M289 766h78q0 -69 -32 -109.5t-90 -40.5q-43 0 -95.5 19t-71.5 19q-48 0 -48 -43h-77q0 69 32 109.5t91 40.5q42 0 94.5 -18.5t72.5 -18.5q46 0 46 42zM259 515v-400h58v-115h-281v115h58v284h-58v116h223z" />
    <glyph glyph-name="Imacron" unicode="&#x12a;" horiz-adv-x="449" 
d="M13 965h423v-127h-423v127zM61 0v121h76v508h-76v121h327v-121h-76v-508h76v-121h-327z" />
    <glyph glyph-name="imacron" unicode="&#x12b;" horiz-adv-x="353" 
d="M-26 756h408v-119h-408v119zM259 515v-400h58v-115h-281v115h58v284h-58v116h223z" />
    <glyph glyph-name="Ibreve" unicode="&#x12c;" horiz-adv-x="449" 
d="M223 878q41 0 71 23.5t31 75.5h86q0 -84 -49 -135.5t-139 -51.5t-138.5 51.5t-48.5 135.5h85q2 -52 31.5 -75.5t70.5 -23.5zM61 0v121h76v508h-76v121h327v-121h-76v-508h76v-121h-327z" />
    <glyph glyph-name="ibreve" unicode="&#x12d;" horiz-adv-x="353" 
d="M176 585q-86 0 -128.5 49t-42.5 134h70q2 -52 31 -75t70 -23q42 0 72 23t31 75h71q0 -84 -43.5 -133.5t-130.5 -49.5zM259 515v-400h58v-115h-281v115h58v284h-58v116h223z" />
    <glyph glyph-name="Iogonek" unicode="&#x12e;" horiz-adv-x="449" 
d="M388 629h-76v-508h76v-121h-22q-37 0 -66.5 -24.5t-29.5 -49.5q0 -15 10.5 -26.5t30.5 -11.5q35 0 54 17v-78q-23 -18 -104 -18q-66 0 -99.5 25.5t-33.5 63.5q0 33 33 63t68 39h-168v121h76v508h-76v121h327v-121z" />
    <glyph glyph-name="iogonek" unicode="&#x12f;" horiz-adv-x="353" 
d="M163 589q-51 0 -79 24.5t-28 62.5q0 39 28 63.5t79 24.5t79 -25t28 -63t-28 -62.5t-79 -24.5zM312 0q-39 0 -64 -22.5t-25 -47.5q0 -14 10.5 -25.5t29.5 -11.5q32 0 52 16v-74q-22 -17 -100 -17q-62 0 -95 26.5t-33 62.5q0 33 27.5 58.5t66.5 34.5h-145v115h58v284h-58
v116h223v-400h58v-115h-5z" />
    <glyph glyph-name="Idotaccent" unicode="&#x130;" horiz-adv-x="449" 
d="M229 838q-43 0 -72 25t-29 63t29 63.5t72 25.5t72 -25.5t29 -63.5t-29 -63t-72 -25zM61 0v121h76v508h-76v121h327v-121h-76v-508h76v-121h-327z" />
    <glyph glyph-name="dotlessi" unicode="&#x131;" horiz-adv-x="353" 
d="M259 115h58v-115h-281v115h58v284h-58v116h223v-400z" />
    <glyph glyph-name="IJ" unicode="&#x132;" horiz-adv-x="841" 
d="M50 0v121h76v508h-76v121h327v-121h-75v-508h75v-121h-327zM736 253q0 -132 -46.5 -202.5t-154.5 -70.5q-76 0 -101 15v126q12 -4 40 -4q42 0 64.5 28t22.5 81v403h-86v121h337v-121h-76v-376z" />
    <glyph glyph-name="ij" unicode="&#x133;" horiz-adv-x="674" 
d="M163 589q-51 0 -79 24.5t-28 62.5q0 39 28 63.5t79 24.5t79 -25t28 -63t-28 -62.5t-79 -24.5zM514 586q-51 0 -79 24.5t-28 62.5q0 39 28 63.5t79 24.5t79 -25t28 -63t-28 -62.5t-79 -24.5zM259 515v-400h58v-115h-281v115h58v284h-58v116h223zM387 515h238v-592
q0 -69 -34.5 -98t-108.5 -29q-56 0 -96 8v120q20 -2 30 -2q27 0 35.5 11t8.5 34v432h-73v116z" />
    <glyph glyph-name="Jcircumflex" unicode="&#x134;" horiz-adv-x="627" 
d="M434 903l-87 -92h-131l146 183h143l146 -183h-131zM258 629v121h337v-121h-76v-376q0 -132 -59 -202.5t-203 -70.5q-142 0 -192.5 66.5t-50.5 209.5v53h166v-83q0 -110 77 -110q42 0 64.5 28.5t22.5 81.5v403h-86z" />
    <glyph glyph-name="jcircumflex" unicode="&#x135;" horiz-adv-x="310" 
d="M154 671l-87 -92h-116l146 183h112l146 -183h-115zM15 399v116h238v-592q0 -69 -34.5 -98t-107.5 -29q-57 0 -97 8v120q20 -2 30 -2q27 0 35.5 11t8.5 34v432h-73z" />
    <glyph glyph-name="Kcommaaccent" unicode="&#x136;" horiz-adv-x="827" 
d="M728 121h63v-121h-322v121h58l-126 221l-89 -86v-135h50v-121h-301v121h76v508h-76v121h305v-121h-54v-229l230 229h-79v121h312v-121h-76l-173 -167zM406 -59q36 0 58.5 -23t22.5 -64q0 -46 -32 -94.5t-86 -81.5l-27 25l10 11q10 12 14 17.5t12.5 17.5t14 24.5t9.5 26.5
q-35 4 -55 24.5t-20 46.5q0 30 22.5 50t56.5 20z" />
    <glyph glyph-name="kcommaaccent" unicode="&#x137;" horiz-adv-x="672" 
d="M588 115h56v-115h-272v115h40l-75 114l-78 -54v-60h41v-115h-264v115h58v519h-58v116h223v-462l154 112h-53v115h272v-115h-47l-126 -87zM333 -44q35 0 56 -22t21 -61q0 -44 -30 -90.5t-82 -78.5l-28 24q45 48 59 93q-34 4 -53 23t-19 45q0 28 21.5 47.5t54.5 19.5z" />
    <glyph glyph-name="Lacute" unicode="&#x139;" horiz-adv-x="638" 
d="M155 799l137 183h159l-157 -183h-139zM312 629v-508h91q54 0 72.5 30t18.5 114v37h101v-302h-534v121h76v508h-76v121h341v-121h-90z" />
    <glyph glyph-name="lacute" unicode="&#x13a;" horiz-adv-x="353" 
d="M334 989l-157 -183h-124l137 183h144zM259 750v-635h58v-115h-281v115h58v519h-58v116h223z" />
    <glyph glyph-name="Lcommaaccent" unicode="&#x13b;" horiz-adv-x="638" 
d="M494 302h101v-302h-534v121h76v508h-76v121h341v-121h-90v-508h91q54 0 72.5 30t18.5 114v37zM334 -59q36 0 58.5 -23t22.5 -64q0 -46 -32 -94.5t-86 -81.5l-27 25l10 11q10 12 14 17.5t12.5 17.5t14 24.5t9.5 26.5q-35 4 -55 24.5t-20 46.5q0 30 22.5 50t56.5 20z" />
    <glyph glyph-name="lcommaaccent" unicode="&#x13c;" horiz-adv-x="353" 
d="M259 115h58v-115h-281v115h58v519h-58v116h223v-635zM179 -44q35 0 56 -22t21 -61q0 -44 -30 -90.5t-82 -78.5l-28 24q45 48 59 93q-34 4 -53 23t-19 45q0 28 21.5 47.5t54.5 19.5z" />
    <glyph glyph-name="Lcaron" unicode="&#x13d;" horiz-adv-x="638" 
d="M299 800h-143l-143 182h131l84 -91l83 91h131zM494 302h101v-302h-534v121h76v508h-76v121h341v-121h-90v-508h91q54 0 72.5 30t18.5 114v37z" />
    <glyph glyph-name="lcaron" unicode="&#x13e;" horiz-adv-x="450" 
d="M259 750v-635h58v-115h-281v115h58v519h-58v116h223zM323 750h104v-90q0 -41 -26 -90t-61 -83l-26 23q3 6 5.5 23.5t3 49t0.5 53v63v51.5z" />
    <glyph glyph-name="Ldot" unicode="&#x13f;" horiz-adv-x="638" 
d="M312 629v-508h91q54 0 72.5 30t18.5 114v37h101v-302h-534v121h76v508h-76v121h341v-121h-90zM480 386q-37 0 -61.5 21.5t-24.5 53.5t24.5 54t61.5 22q36 0 61 -22t25 -54t-24.5 -53.5t-61.5 -21.5z" />
    <glyph glyph-name="ldot" unicode="&#x140;" horiz-adv-x="475" 
d="M259 750v-635h58v-115h-281v115h58v519h-58v116h223zM403 488q41 0 69 -25t28 -61t-27.5 -60t-69.5 -24q-41 0 -68.5 24.5t-27.5 59.5q0 36 27.5 61t68.5 25z" />
    <glyph glyph-name="Lslash" unicode="&#x141;" horiz-adv-x="606" 
d="M483 302h101v-302h-534v121h76v137l-77 -35v135l77 35v236h-76v121h341v-121h-90v-156l119 55v-135l-119 -55v-217h91q54 0 72.5 30t18.5 114v37z" />
    <glyph glyph-name="lslash" unicode="&#x142;" horiz-adv-x="353" 
d="M317 477l-58 -44v-318h58v-115h-281v115h58v192l-58 -44v103l58 44v224h-58v116h223v-214l58 44v-103z" />
    <glyph glyph-name="Nacute" unicode="&#x143;" horiz-adv-x="834" 
d="M595 982l-157 -183h-139l137 183h159zM513 750h266v-121h-68v-629h-133l-317 468v-347h69v-121h-270v121h76v508h-76v121h207l311 -467v346h-65v121z" />
    <glyph glyph-name="nacute" unicode="&#x144;" horiz-adv-x="669" 
d="M493 769l-157 -183h-124l137 183h144zM578 115h54v-115h-260v115h41v220q0 84 -67 84q-37 0 -62 -25.5t-25 -62.5v-216h41v-115h-264v115h58v284h-58v116h223v-70q55 90 161 90q70 0 114 -43.5t44 -113.5v-263z" />
    <glyph glyph-name="Ncommaaccent" unicode="&#x145;" horiz-adv-x="834" 
d="M513 750h266v-121h-68v-629h-133l-317 468v-347h69v-121h-270v121h76v508h-76v121h207l311 -467v346h-65v121zM413 -59q36 0 58.5 -23t22.5 -64q0 -46 -32 -94.5t-86 -81.5l-27 25l10 11q10 12 14 17.5t12.5 17.5t14 24.5t9.5 26.5q-35 4 -55 24.5t-20 46.5q0 30 22.5 50
t56.5 20z" />
    <glyph glyph-name="ncommaaccent" unicode="&#x146;" horiz-adv-x="669" 
d="M578 115h54v-115h-260v115h41v220q0 84 -67 84q-37 0 -62 -25.5t-25 -62.5v-216h41v-115h-264v115h58v284h-58v116h223v-70q55 90 161 90q70 0 114 -43.5t44 -113.5v-263zM334 -44q35 0 56 -22t21 -61q0 -44 -30 -90.5t-82 -78.5l-28 24q45 48 59 93q-34 4 -53 23t-19 45
q0 28 21.5 47.5t54.5 19.5z" />
    <glyph glyph-name="Ncaron" unicode="&#x147;" horiz-adv-x="834" 
d="M487 800h-143l-143 182h131l84 -91l83 91h131zM513 750h266v-121h-68v-629h-133l-317 468v-347h69v-121h-270v121h76v508h-76v121h207l311 -467v346h-65v121z" />
    <glyph glyph-name="ncaron" unicode="&#x148;" horiz-adv-x="669" 
d="M391 580h-112l-143 182h116l84 -91l83 91h115zM578 115h54v-115h-260v115h41v220q0 84 -67 84q-37 0 -62 -25.5t-25 -62.5v-216h41v-115h-264v115h58v284h-58v116h223v-70q55 90 161 90q70 0 114 -43.5t44 -113.5v-263z" />
    <glyph glyph-name="Eng" unicode="&#x14a;" horiz-adv-x="779" 
d="M480 750h266v-121h-69v-689q0 -76 -24.5 -104.5t-98.5 -28.5q-66 0 -98 9v119q18 -2 31 -2q33 0 45 13t12 39v16l-316 466v-346h69v-121h-271v121h76v508h-76v121h208l310 -465v344h-64v121z" />
    <glyph glyph-name="eng" unicode="&#x14b;" horiz-adv-x="615" 
d="M420 535q70 0 114 -43.5t44 -113.5v-455q0 -69 -34.5 -98t-107.5 -29q-58 0 -96 8v120q18 -2 29 -2q27 0 35.5 11t8.5 34v368q0 84 -67 84q-37 0 -62 -25.5t-25 -62.5v-216h50v-115h-273v115h58v284h-58v116h223v-70q55 90 161 90z" />
    <glyph glyph-name="Omacron" unicode="&#x14c;" horiz-adv-x="797" 
d="M185 972h423v-127h-423v127zM399 770q162 0 254.5 -111.5t92.5 -281.5q0 -173 -92.5 -285t-254.5 -112q-164 0 -256 112t-92 285q0 170 92 281.5t256 111.5zM399 117q69 0 109 67.5t40 192.5q0 124 -40 190t-109 66q-70 0 -110 -66t-40 -190q0 -125 40 -192.5t110 -67.5z
" />
    <glyph glyph-name="omacron" unicode="&#x14d;" horiz-adv-x="606" 
d="M100 756h408v-119h-408v119zM303 535q121 0 195.5 -77.5t74.5 -199.5q0 -123 -74.5 -200.5t-195.5 -77.5t-195.5 78t-74.5 200t74.5 199.5t195.5 77.5zM303 87q44 0 69.5 45t25.5 126t-25.5 125t-69.5 44t-69.5 -44.5t-25.5 -124.5q0 -81 26 -126t69 -45z" />
    <glyph glyph-name="Obreve" unicode="&#x14e;" horiz-adv-x="797" 
d="M399 878q41 0 71 23.5t31 75.5h86q0 -84 -49 -135.5t-139 -51.5t-138.5 51.5t-48.5 135.5h85q2 -52 31.5 -75.5t70.5 -23.5zM399 770q162 0 254.5 -111.5t92.5 -281.5q0 -173 -92.5 -285t-254.5 -112q-164 0 -256 112t-92 285q0 170 92 281.5t256 111.5zM399 117
q69 0 109 67.5t40 192.5q0 124 -40 190t-109 66q-70 0 -110 -66t-40 -190q0 -125 40 -192.5t110 -67.5z" />
    <glyph glyph-name="obreve" unicode="&#x14f;" horiz-adv-x="606" 
d="M303 670q42 0 72 23t31 75h71q0 -84 -43.5 -133.5t-130.5 -49.5q-86 0 -128.5 49t-42.5 134h70q2 -52 31 -75t70 -23zM303 535q121 0 195.5 -77.5t74.5 -199.5q0 -123 -74.5 -200.5t-195.5 -77.5t-195.5 78t-74.5 200t74.5 199.5t195.5 77.5zM303 87q44 0 69.5 45
t25.5 126t-25.5 125t-69.5 44t-69.5 -44.5t-25.5 -124.5q0 -81 26 -126t69 -45z" />
    <glyph glyph-name="Ohungarumlaut" unicode="&#x150;" horiz-adv-x="797" 
d="M216 806l137 183h159l-157 -183h-139zM429 806l154 183h159l-174 -183h-139zM399 770q162 0 254.5 -111.5t92.5 -281.5q0 -173 -92.5 -285t-254.5 -112q-164 0 -256 112t-92 285q0 170 92 281.5t256 111.5zM399 117q69 0 109 67.5t40 192.5q0 124 -40 190t-109 66
q-70 0 -110 -66t-40 -190q0 -125 40 -192.5t110 -67.5z" />
    <glyph glyph-name="ohungarumlaut" unicode="&#x151;" horiz-adv-x="606" 
d="M137 579l137 183h144l-157 -183h-124zM334 579l155 183h144l-175 -183h-124zM303 535q121 0 195.5 -77.5t74.5 -199.5q0 -123 -74.5 -200.5t-195.5 -77.5t-195.5 78t-74.5 200t74.5 199.5t195.5 77.5zM303 87q44 0 69.5 45t25.5 126t-25.5 125t-69.5 44t-69.5 -44.5
t-25.5 -124.5q0 -81 26 -126t69 -45z" />
    <glyph glyph-name="OE" unicode="&#x152;" horiz-adv-x="991" 
d="M942 486h-102v26q0 70 -16 93.5t-67 23.5h-134v-189h150v-105h-150v-214h134q50 0 66.5 25.5t16.5 94.5v49h102v-290h-546q-164 0 -256 105t-92 272q0 164 92 268.5t256 104.5h546v-264zM448 121v508h-52q-70 0 -110 -64t-40 -188t40 -190t110 -66h52z" />
    <glyph glyph-name="oe" unicode="&#x153;" horiz-adv-x="977" 
d="M771 175h173q-20 -92 -89 -143.5t-173 -51.5q-121 0 -189 90q-70 -90 -190 -90q-121 0 -195.5 78t-74.5 200t74.5 199.5t195.5 77.5q122 0 190 -91q69 91 190 91q125 0 192.5 -72t67.5 -195v-30h-363q4 -75 30 -113t69 -38q34 0 58.5 22.5t33.5 65.5zM678 438
q-87 0 -97 -134h192q-6 66 -31 100t-64 34zM303 87q44 0 69.5 44.5t25.5 126.5t-25.5 125.5t-69.5 43.5t-69.5 -43.5t-25.5 -125.5t25.5 -126.5t69.5 -44.5z" />
    <glyph glyph-name="Racute" unicode="&#x154;" horiz-adv-x="791" 
d="M566 982l-157 -183h-139l137 183h159zM733 121h17v-121h-150q-52 0 -77.5 29.5t-25.5 93.5v105q0 78 -74 78h-111v-185h58v-121h-309v121h76v508h-76v121h387q141 0 202.5 -49t61.5 -145q0 -78 -44.5 -129t-122.5 -61q70 -7 102 -43.5t32 -84.5v-60q0 -32 12.5 -44.5
t41.5 -12.5zM411 415q47 0 76.5 29t29.5 80q0 105 -105 105h-100v-214h99z" />
    <glyph glyph-name="racute" unicode="&#x155;" horiz-adv-x="452" 
d="M385 769l-157 -183h-124l137 183h144zM391 535q25 0 35 -5v-138q-12 9 -43 9q-124 0 -124 -171v-115h80v-115h-303v115h58v284h-58v116h223v-79q18 46 53.5 72.5t78.5 26.5z" />
    <glyph glyph-name="Rcommaaccent" unicode="&#x156;" horiz-adv-x="791" 
d="M733 121h17v-121h-150q-52 0 -77.5 29.5t-25.5 93.5v105q0 78 -74 78h-111v-185h58v-121h-309v121h76v508h-76v121h387q141 0 202.5 -49t61.5 -145q0 -78 -44.5 -129t-122.5 -61q70 -7 102 -43.5t32 -84.5v-60q0 -32 12.5 -44.5t41.5 -12.5zM411 415q47 0 76.5 29
t29.5 80q0 105 -105 105h-100v-214h99zM405 -59q36 0 58.5 -23t22.5 -64q0 -46 -32 -94.5t-86 -81.5l-27 25l10 11q10 12 14 17.5t12.5 17.5t14 24.5t9.5 26.5q-35 4 -55 24.5t-20 46.5q0 30 22.5 50t56.5 20z" />
    <glyph glyph-name="rcommaaccent" unicode="&#x157;" horiz-adv-x="452" 
d="M391 535q25 0 35 -5v-138q-12 9 -43 9q-124 0 -124 -171v-115h80v-115h-303v115h58v284h-58v116h223v-79q18 46 53.5 72.5t78.5 26.5zM210 -44q35 0 56 -22t21 -61q0 -44 -30 -90.5t-82 -78.5l-28 24q45 48 59 93q-34 4 -53 23t-19 45q0 28 21.5 47.5t54.5 19.5z" />
    <glyph glyph-name="Rcaron" unicode="&#x158;" horiz-adv-x="791" 
d="M467 800h-143l-143 182h131l84 -91l83 91h131zM733 121h17v-121h-150q-52 0 -77.5 29.5t-25.5 93.5v105q0 78 -74 78h-111v-185h58v-121h-309v121h76v508h-76v121h387q141 0 202.5 -49t61.5 -145q0 -78 -44.5 -129t-122.5 -61q70 -7 102 -43.5t32 -84.5v-60
q0 -32 12.5 -44.5t41.5 -12.5zM411 415q47 0 76.5 29t29.5 80q0 105 -105 105h-100v-214h99z" />
    <glyph glyph-name="rcaron" unicode="&#x159;" horiz-adv-x="452" 
d="M278 580h-112l-143 182h116l84 -91l83 91h115zM391 535q25 0 35 -5v-138q-12 9 -43 9q-124 0 -124 -171v-115h80v-115h-303v115h58v284h-58v116h223v-79q18 46 53.5 72.5t78.5 26.5z" />
    <glyph glyph-name="Sacute" unicode="&#x15a;" horiz-adv-x="676" 
d="M519 982l-157 -183h-139l137 183h159zM379 459q113 -46 154 -76q93 -67 93 -177q0 -106 -66.5 -166t-182.5 -60q-71 0 -125.5 25.5t-78.5 70.5l-14 -76h-93v249h126q6 -64 45.5 -104t97.5 -40q43 0 72 22t29 60q0 42 -34.5 69t-105.5 56q-42 17 -65.5 27.5t-59 33.5
t-54 46.5t-33 61t-14.5 83.5q0 100 70 153t166 53q64 0 111.5 -24t69.5 -55l12 59h94v-232h-128q-4 60 -38 97t-80 37q-41 0 -65.5 -20t-24.5 -54q0 -41 30.5 -67.5t91.5 -51.5z" />
    <glyph glyph-name="sacute" unicode="&#x15b;" horiz-adv-x="519" 
d="M414 769l-157 -183h-124l137 183h144zM314 325q38 -11 64 -22.5t54.5 -31t43.5 -50t15 -70.5q0 -78 -49.5 -121.5t-129.5 -43.5q-120 0 -173 70l-8 -56h-91v169h110q6 -41 34 -67t68 -26q64 0 64 51q0 29 -26 46t-80 34q-39 13 -62.5 23.5t-52.5 30.5t-43.5 50.5
t-14.5 70.5q0 76 51 113t123 37q100 0 152 -62l7 44h92v-150h-109q-9 38 -34.5 63.5t-62.5 25.5q-27 0 -43.5 -13.5t-16.5 -37.5q0 -26 28 -42t90 -35z" />
    <glyph glyph-name="Scircumflex" unicode="&#x15c;" horiz-adv-x="676" 
d="M347 903l-87 -92h-131l146 183h143l146 -183h-131zM379 459q113 -46 154 -76q93 -67 93 -177q0 -106 -66.5 -166t-182.5 -60q-71 0 -125.5 25.5t-78.5 70.5l-14 -76h-93v249h126q6 -64 45.5 -104t97.5 -40q43 0 72 22t29 60q0 42 -34.5 69t-105.5 56q-42 17 -65.5 27.5
t-59 33.5t-54 46.5t-33 61t-14.5 83.5q0 100 70 153t166 53q64 0 111.5 -24t69.5 -55l12 59h94v-232h-128q-4 60 -38 97t-80 37q-41 0 -65.5 -20t-24.5 -54q0 -41 30.5 -67.5t91.5 -51.5z" />
    <glyph glyph-name="scircumflex" unicode="&#x15d;" horiz-adv-x="519" 
d="M256 671l-87 -92h-116l146 183h112l146 -183h-115zM314 325q38 -11 64 -22.5t54.5 -31t43.5 -50t15 -70.5q0 -78 -49.5 -121.5t-129.5 -43.5q-120 0 -173 70l-8 -56h-91v169h110q6 -41 34 -67t68 -26q64 0 64 51q0 29 -26 46t-80 34q-39 13 -62.5 23.5t-52.5 30.5
t-43.5 50.5t-14.5 70.5q0 76 51 113t123 37q100 0 152 -62l7 44h92v-150h-109q-9 38 -34.5 63.5t-62.5 25.5q-27 0 -43.5 -13.5t-16.5 -37.5q0 -26 28 -42t90 -35z" />
    <glyph glyph-name="Scedilla" unicode="&#x15e;" horiz-adv-x="676" 
d="M377 -20h-5l-43 -52q26 8 50 8q30 0 59 -8.5t53.5 -34.5t24.5 -66q0 -60 -51 -88.5t-130 -29.5q-23 0 -48 6.5t-33 12.5v57q28 -8 55 -8q46 0 67.5 11t21.5 42q0 22 -15.5 35t-42.5 13q-22 0 -40 -7t-25 -13l-7 -7l-36 38l80 97q-102 20 -139 90l-14 -76h-93v249h126
q6 -64 45.5 -104t97.5 -40q43 0 72 22t29 60q0 42 -34.5 69t-105.5 56q-42 17 -65.5 27.5t-59 33.5t-54 46.5t-33 61t-14.5 83.5q0 100 70 153t166 53q64 0 111.5 -24t69.5 -55l12 59h94v-232h-128q-4 60 -38 97t-80 37q-41 0 -65.5 -20t-24.5 -54q0 -41 30.5 -67.5
t91.5 -51.5q113 -46 154 -76q93 -67 93 -177q0 -106 -66.5 -166t-182.5 -60z" />
    <glyph glyph-name="scedilla" unicode="&#x15f;" horiz-adv-x="519" 
d="M312 -14q-18 0 -26 1l-47 -56q28 7 49 7q29 0 56 -8t50.5 -33t23.5 -63q0 -58 -49 -85.5t-125 -27.5q-22 0 -45.5 6t-31.5 12v55q28 -8 53 -8q44 0 65 10.5t21 40.5q0 21 -15 33.5t-41 12.5q-21 0 -38.5 -6.5t-23.5 -12.5l-7 -7l-43 37l91 102q-58 17 -90 60l-8 -56h-91
v169h110q6 -41 34 -67t68 -26q64 0 64 51q0 29 -26 46t-80 34q-39 13 -62.5 23.5t-52.5 30.5t-43.5 50.5t-14.5 70.5q0 76 51 113t123 37q100 0 152 -62l7 44h92v-150h-109q-9 38 -34.5 63.5t-62.5 25.5q-27 0 -43.5 -13.5t-16.5 -37.5q0 -26 28 -42t90 -35q38 -11 64 -22.5
t54.5 -31t43.5 -50t15 -70.5q0 -78 -49.5 -121.5t-129.5 -43.5z" />
    <glyph glyph-name="Scaron" unicode="&#x160;" horiz-adv-x="676" 
d="M431 800h-143l-143 182h131l84 -91l83 91h131zM379 459q113 -46 154 -76q93 -67 93 -177q0 -106 -66.5 -166t-182.5 -60q-71 0 -125.5 25.5t-78.5 70.5l-14 -76h-93v249h126q6 -64 45.5 -104t97.5 -40q43 0 72 22t29 60q0 42 -34.5 69t-105.5 56q-42 17 -65.5 27.5
t-59 33.5t-54 46.5t-33 61t-14.5 83.5q0 100 70 153t166 53q64 0 111.5 -24t69.5 -55l12 59h94v-232h-128q-4 60 -38 97t-80 37q-41 0 -65.5 -20t-24.5 -54q0 -41 30.5 -67.5t91.5 -51.5z" />
    <glyph glyph-name="scaron" unicode="&#x161;" horiz-adv-x="519" 
d="M313 580h-112l-143 182h116l84 -91l83 91h115zM314 325q38 -11 64 -22.5t54.5 -31t43.5 -50t15 -70.5q0 -78 -49.5 -121.5t-129.5 -43.5q-120 0 -173 70l-8 -56h-91v169h110q6 -41 34 -67t68 -26q64 0 64 51q0 29 -26 46t-80 34q-39 13 -62.5 23.5t-52.5 30.5t-43.5 50.5
t-14.5 70.5q0 76 51 113t123 37q100 0 152 -62l7 44h92v-150h-109q-9 38 -34.5 63.5t-62.5 25.5q-27 0 -43.5 -13.5t-16.5 -37.5q0 -26 28 -42t90 -35z" />
    <glyph glyph-name="Tcaron" unicode="&#x164;" horiz-adv-x="743" 
d="M443 800h-143l-143 182h131l84 -91l83 91h131zM46 750h651v-266h-96v28q0 79 -15.5 108t-49.5 29h-77v-528h87v-121h-349v121h87v528h-77q-34 0 -49.5 -29t-15.5 -108v-28h-96v266z" />
    <glyph glyph-name="tcaron" unicode="&#x165;" horiz-adv-x="422" 
d="M389 720q0 -41 -26.5 -90.5t-60.5 -83.5l-27 23q11 26 11 181h103v-30zM354 0q-47 -17 -131 -17q-48 0 -79.5 11.5t-46.5 34t-20.5 47t-5.5 59.5v265h-59v115h15q60 0 82 32.5t31 109.5v26h96v-168h114v-115h-114v-237q0 -49 64 -49q41 0 54 2v-116z" />
    <glyph glyph-name="Tbar" unicode="&#x166;" horiz-adv-x="716" 
d="M36 750h643v-266h-96v28q0 78 -15.5 107.5t-48.5 29.5h-73v-238h78v-114h-78v-176h83v-121h-342v121h83v176h-78v114h78v238h-73q-34 0 -49.5 -29t-15.5 -108v-28h-96v266z" />
    <glyph glyph-name="tbar" unicode="&#x167;" horiz-adv-x="397" 
d="M300 114q41 0 54 2v-116q-47 -17 -131 -17q-48 0 -79.5 11.5t-46.5 34t-20.5 47t-5.5 59.5v265h-59v115h15q60 0 82 32.5t31 109.5v26h96v-168h114v-115h-114v-61h34v-88h-34v-88q0 -49 64 -49z" />
    <glyph glyph-name="Utilde" unicode="&#x168;" horiz-adv-x="774" 
d="M301 992q47 0 102.5 -20t77.5 -20q49 0 49 45h85q0 -76 -34.5 -119.5t-96.5 -43.5q-46 0 -102 20t-77 20q-51 0 -51 -45h-84q0 76 34 119.5t97 43.5zM657 249q0 -123 -68 -195.5t-197 -72.5q-151 0 -216 70t-65 198v380h-76v121h313v-121h-62v-388q0 -55 29 -90t82 -35
t81 35t28 90v388h-55v121h282v-121h-76v-380z" />
    <glyph glyph-name="utilde" unicode="&#x169;" horiz-adv-x="643" 
d="M210 654q-48 0 -48 -43h-77q0 69 32 109.5t91 40.5q42 0 94.5 -18.5t72.5 -18.5q46 0 46 42h78q0 -69 -32 -109.5t-90 -40.5q-43 0 -95.5 19t-71.5 19zM550 116h58v-116h-223v63q-58 -83 -161 -83q-76 0 -117 46.5t-41 110.5v263h-54v115h219v-336q0 -39 17 -61.5
t50 -22.5q38 0 62.5 25.5t24.5 63.5v216h-50v115h215v-399z" />
    <glyph glyph-name="Umacron" unicode="&#x16a;" horiz-adv-x="774" 
d="M176 972h423v-127h-423v127zM657 249q0 -123 -68 -195.5t-197 -72.5q-151 0 -216 70t-65 198v380h-76v121h313v-121h-62v-388q0 -55 29 -90t82 -35t81 35t28 90v388h-55v121h282v-121h-76v-380z" />
    <glyph glyph-name="umacron" unicode="&#x16b;" horiz-adv-x="643" 
d="M512 756v-119h-408v119h408zM550 116h58v-116h-223v63q-58 -83 -161 -83q-76 0 -117 46.5t-41 110.5v263h-54v115h219v-336q0 -39 17 -61.5t50 -22.5q38 0 62.5 25.5t24.5 63.5v216h-50v115h215v-399z" />
    <glyph glyph-name="Ubreve" unicode="&#x16c;" horiz-adv-x="774" 
d="M398 878q41 0 71 23.5t31 75.5h86q0 -84 -49 -135.5t-139 -51.5t-138.5 51.5t-48.5 135.5h85q2 -52 31.5 -75.5t70.5 -23.5zM657 249q0 -123 -68 -195.5t-197 -72.5q-151 0 -216 70t-65 198v380h-76v121h313v-121h-62v-388q0 -55 29 -90t82 -35t81 35t28 90v388h-55v121
h282v-121h-76v-380z" />
    <glyph glyph-name="ubreve" unicode="&#x16d;" horiz-adv-x="643" 
d="M307 585q-86 0 -128.5 49t-42.5 134h70q2 -52 31 -75t70 -23q42 0 72 23t31 75h71q0 -84 -43.5 -133.5t-130.5 -49.5zM550 116h58v-116h-223v63q-58 -83 -161 -83q-76 0 -117 46.5t-41 110.5v263h-54v115h219v-336q0 -39 17 -61.5t50 -22.5q38 0 62.5 25.5t24.5 63.5v216
h-50v115h215v-399z" />
    <glyph glyph-name="Uring" unicode="&#x16e;" horiz-adv-x="774" 
d="M398 1100q70 0 117 -46t47 -115t-47.5 -115.5t-116.5 -46.5t-116.5 46.5t-47.5 115.5t47 115t117 46zM398 1009q-32 0 -51.5 -19.5t-19.5 -50.5q0 -30 20 -50.5t51 -20.5t51 20.5t20 50.5q0 31 -19 50.5t-52 19.5zM657 249q0 -123 -68 -195.5t-197 -72.5q-151 0 -216 70
t-65 198v380h-76v121h313v-121h-62v-388q0 -55 29 -90t82 -35t81 35t28 90v388h-55v121h282v-121h-76v-380z" />
    <glyph glyph-name="uring" unicode="&#x16f;" horiz-adv-x="643" 
d="M307 557q-68 0 -114.5 46t-46.5 113q0 69 46 114t115 45t115 -45t46 -114q0 -67 -46.5 -113t-114.5 -46zM307 785q-31 0 -50.5 -19t-19.5 -50q0 -30 19.5 -49.5t50.5 -19.5t50.5 19.5t19.5 49.5q0 31 -19 50t-51 19zM550 116h58v-116h-223v63q-58 -83 -161 -83
q-76 0 -117 46.5t-41 110.5v263h-54v115h219v-336q0 -39 17 -61.5t50 -22.5q38 0 62.5 25.5t24.5 63.5v216h-50v115h215v-399z" />
    <glyph glyph-name="Uhungarumlaut" unicode="&#x170;" horiz-adv-x="774" 
d="M222 806l137 183h159l-157 -183h-139zM435 806l154 183h159l-174 -183h-139zM657 249q0 -123 -68 -195.5t-197 -72.5q-151 0 -216 70t-65 198v380h-76v121h313v-121h-62v-388q0 -55 29 -90t82 -35t81 35t28 90v388h-55v121h282v-121h-76v-380z" />
    <glyph glyph-name="uhungarumlaut" unicode="&#x171;" horiz-adv-x="643" 
d="M408 762l-157 -183h-124l137 183h144zM448 579h-124l155 183h144zM550 116h58v-116h-223v63q-58 -83 -161 -83q-76 0 -117 46.5t-41 110.5v263h-54v115h219v-336q0 -39 17 -61.5t50 -22.5q38 0 62.5 25.5t24.5 63.5v216h-50v115h215v-399z" />
    <glyph glyph-name="Uogonek" unicode="&#x172;" horiz-adv-x="774" 
d="M451 750h282v-121h-76v-380q0 -102 -47 -170t-137 -89q-42 -32 -57.5 -51.5t-15.5 -41.5q0 -14 10.5 -25.5t30.5 -11.5q33 0 54 16v-78q-24 -17 -104 -17q-66 0 -100.5 27.5t-34.5 64.5q0 34 20.5 60t57.5 51q-119 14 -171 82t-52 183v380h-76v121h313v-121h-62v-388
q0 -55 29 -90t82 -35t81 35t28 90v388h-55v121z" />
    <glyph glyph-name="uogonek" unicode="&#x173;" horiz-adv-x="643" 
d="M604 0q-38 0 -63 -22.5t-25 -47.5q0 -14 10 -25.5t29 -11.5q32 0 52 16v-74q-22 -17 -100 -17q-62 0 -95 26.5t-33 62.5q0 33 27.5 58.5t66.5 34.5h-88v63q-58 -83 -161 -83q-76 0 -117 46.5t-41 110.5v263h-54v115h219v-336q0 -39 17 -61.5t50 -22.5q38 0 62.5 25.5
t24.5 63.5v216h-50v115h215v-399h58v-116h-4z" />
    <glyph glyph-name="Wcircumflex" unicode="&#x174;" horiz-adv-x="1181" 
d="M597 903l-87 -92h-131l146 183h143l146 -183h-131zM866 750h293v-121h-79l-176 -631h-195l-120 483l-121 -483h-191l-179 631h-74v121h315v-121h-59l116 -460l117 460h-71v121h322v-121h-63l119 -461l110 461h-64v121z" />
    <glyph glyph-name="wcircumflex" unicode="&#x175;" horiz-adv-x="928" 
d="M471 671l-87 -92h-116l146 183h112l146 -183h-115zM913 515v-115h-51l-138 -401h-162l-99 358l-95 -358h-164l-140 401h-50v115h264v-115h-50l76 -280l99 395h147l105 -396l73 281h-57v115h242z" />
    <glyph glyph-name="Ycircumflex" unicode="&#x176;" horiz-adv-x="744" 
d="M390 903l-87 -92h-131l146 183h143l146 -183h-131zM438 750h285v-121h-69l-192 -358v-150h81v-121h-345v121h81v154l-184 354h-71v121h321v-121h-65l116 -227l106 227h-64v121z" />
    <glyph glyph-name="ycircumflex" unicode="&#x177;" horiz-adv-x="613" 
d="M307 671l-87 -92h-116l146 183h112l146 -183h-115zM599 515v-115h-49l-176 -429q-35 -85 -81 -131.5t-121 -46.5q-39 0 -72 7l8 121q48 -3 62 -3q62 0 80 51l1 3l-184 428h-55v115h269v-115h-50l94 -258l100 258h-57v115h231z" />
    <glyph glyph-name="Ydieresis" unicode="&#x178;" horiz-adv-x="744" 
d="M251 838q-39 0 -66 24.5t-27 59.5q0 34 27 60t66 26q40 0 66.5 -25.5t26.5 -60.5t-26 -59.5t-67 -24.5zM499 838q-41 0 -67 24.5t-26 59.5t26.5 60.5t66.5 25.5q39 0 66 -26t27 -60q0 -35 -27 -59.5t-66 -24.5zM438 750h285v-121h-69l-192 -358v-150h81v-121h-345v121h81
v154l-184 354h-71v121h321v-121h-65l116 -227l106 227h-64v121z" />
    <glyph glyph-name="Zacute" unicode="&#x179;" horiz-adv-x="701" 
d="M512 982l-157 -183h-139l137 183h159zM520 295h97v-295h-565v97l348 540h-148q-49 0 -66 -26.5t-17 -93.5v-25h-98v258h532v-94l-345 -543h172q50 0 70 29.5t20 98.5v54z" />
    <glyph glyph-name="zacute" unicode="&#x17a;" horiz-adv-x="534" 
d="M425 769l-157 -183h-124l137 183h144zM410 200h83v-200h-469v73l267 357h-99q-43 0 -57 -16t-14 -61v-13h-84v175h444v-68l-264 -362h117q43 0 59.5 17.5t16.5 64.5v33z" />
    <glyph glyph-name="Zdotaccent" unicode="&#x17b;" horiz-adv-x="701" 
d="M344 838q-43 0 -72 25t-29 63t29 63.5t72 25.5t72 -25.5t29 -63.5t-29 -63t-72 -25zM520 295h97v-295h-565v97l348 540h-148q-49 0 -66 -26.5t-17 -93.5v-25h-98v258h532v-94l-345 -543h172q50 0 70 29.5t20 98.5v54z" />
    <glyph glyph-name="zdotaccent" unicode="&#x17c;" horiz-adv-x="534" 
d="M267 618q-41 0 -68.5 24.5t-27.5 59.5q0 36 27.5 61t68.5 25t69 -25t28 -61t-27.5 -60t-69.5 -24zM410 200h83v-200h-469v73l267 357h-99q-43 0 -57 -16t-14 -61v-13h-84v175h444v-68l-264 -362h117q43 0 59.5 17.5t16.5 64.5v33z" />
    <glyph glyph-name="Zcaron" unicode="&#x17d;" horiz-adv-x="701" 
d="M427 800h-143l-143 182h131l84 -91l83 91h131zM520 295h97v-295h-565v97l348 540h-148q-49 0 -66 -26.5t-17 -93.5v-25h-98v258h532v-94l-345 -543h172q50 0 70 29.5t20 98.5v54z" />
    <glyph glyph-name="zcaron" unicode="&#x17e;" horiz-adv-x="534" 
d="M324 580h-112l-143 182h116l84 -91l83 91h115zM410 200h83v-200h-469v73l267 357h-99q-43 0 -57 -16t-14 -61v-13h-84v175h444v-68l-264 -362h117q43 0 59.5 17.5t16.5 64.5v33z" />
    <glyph glyph-name="uni018F" unicode="&#x18f;" horiz-adv-x="769" 
d="M375 770q159 0 252.5 -110.5t93.5 -283.5q0 -174 -93.5 -285t-252.5 -111t-242.5 103t-83.5 278v56h472q-12 217 -143 217q-47 0 -81 -33.5t-48 -94.5h-196q26 125 110.5 194.5t211.5 69.5zM380 116q123 0 140 200h-277q5 -98 40.5 -149t96.5 -51z" />
    <glyph glyph-name="florin" unicode="&#x192;" horiz-adv-x="389" 
d="M194 -71q-18 -132 -188 -132q-43 0 -90 9l16 112q9 -3 31 -3q38 0 53 15t19 42l61 428h-52v115h68l17 119q9 63 52.5 97t134.5 34q43 0 90 -9l-16 -112q-18 3 -30 3q-39 0 -54.5 -15t-18.5 -42l-10 -75h73v-115h-89z" />
    <glyph glyph-name="uni01D3" unicode="&#x1d3;" horiz-adv-x="774" 
d="M476 800h-143l-143 182h131l84 -91l83 91h131zM451 750h282v-121h-76v-380q0 -123 -68 -195.5t-197 -72.5q-151 0 -216 70t-65 198v380h-76v121h313v-121h-62v-388q0 -55 29 -90t82 -35t81 35t28 90v388h-55v121z" />
    <glyph glyph-name="uni01D4" unicode="&#x1d4;" horiz-adv-x="643" 
d="M362 580h-112l-143 182h116l84 -91l83 91h115zM550 116h58v-116h-223v63q-58 -83 -161 -83q-76 0 -117 46.5t-41 110.5v263h-54v115h219v-336q0 -39 17 -61.5t50 -22.5q38 0 62.5 25.5t24.5 63.5v216h-50v115h215v-399z" />
    <glyph glyph-name="uni01E2" unicode="&#x1e2;" horiz-adv-x="1013" 
d="M767 972v-127h-423v127h423zM964 486h-101v26q0 70 -16.5 93.5t-67.5 23.5h-134v-189h150v-105h-150v-214h134q50 0 67 25.5t17 94.5v49h101v-290h-570v121h76v114h-190l-51 -114h64v-121h-275v121h63l250 508h-91v121h724v-264zM318 319h152v310h-12z" />
    <glyph glyph-name="uni01E3" unicode="&#x1e3;" horiz-adv-x="935" 
d="M680 756v-119h-408v119h408zM904 268v-36h-364q5 -72 31.5 -108.5t68.5 -36.5q34 0 58.5 21.5t32.5 63.5h173q-19 -91 -88 -141.5t-174 -50.5q-146 0 -219 105q-27 -42 -81.5 -73.5t-120.5 -31.5q-92 0 -140 36.5t-48 119.5q0 156 238 156h103v44q0 94 -74 94
q-36 0 -58 -23t-22 -56v-9h-161v9q0 87 64 135.5t186 48.5q116 0 172 -47q66 47 161 47q126 0 194 -72t68 -195zM638 438q-88 0 -98 -140h193q-4 69 -29.5 104.5t-65.5 35.5zM286 93q39 0 63.5 26.5t24.5 60.5v49h-69q-101 0 -101 -73q0 -30 21.5 -46.5t60.5 -16.5z" />
    <glyph glyph-name="AEacute" unicode="&#x1fc;" horiz-adv-x="1013" 
d="M713 982l-157 -183h-139l137 183h159zM964 486h-101v26q0 70 -16.5 93.5t-67.5 23.5h-134v-189h150v-105h-150v-214h134q50 0 67 25.5t17 94.5v49h101v-290h-570v121h76v114h-190l-51 -114h64v-121h-275v121h63l250 508h-91v121h724v-264zM318 319h152v310h-12z" />
    <glyph glyph-name="aeacute" unicode="&#x1fd;" horiz-adv-x="935" 
d="M634 769l-157 -183h-124l137 183h144zM904 268v-36h-364q5 -72 31.5 -108.5t68.5 -36.5q34 0 58.5 21.5t32.5 63.5h173q-19 -91 -88 -141.5t-174 -50.5q-146 0 -219 105q-27 -42 -81.5 -73.5t-120.5 -31.5q-92 0 -140 36.5t-48 119.5q0 156 238 156h103v44q0 94 -74 94
q-36 0 -58 -23t-22 -56v-9h-161v9q0 87 64 135.5t186 48.5q116 0 172 -47q66 47 161 47q126 0 194 -72t68 -195zM638 438q-88 0 -98 -140h193q-4 69 -29.5 104.5t-65.5 35.5zM286 93q39 0 63.5 26.5t24.5 60.5v49h-69q-101 0 -101 -73q0 -30 21.5 -46.5t60.5 -16.5z" />
    <glyph glyph-name="Oslashacute" unicode="&#x1fe;" horiz-adv-x="792" 
d="M593 982l-157 -183h-139l137 183h159zM762 792l-104 -142q85 -108 85 -273q0 -173 -92.5 -285t-254.5 -112q-108 0 -191 54l-56 -76h-119l104 142q-86 109 -86 277q0 170 92.5 281.5t255.5 111.5q109 0 191 -55l56 77h119zM246 377q0 -58 10 -111l236 320q-38 47 -96 47
q-70 0 -110 -65.5t-40 -190.5zM545 377q0 63 -10 107l-235 -321q38 -46 96 -46q69 0 109 67t40 193z" />
    <glyph glyph-name="oslashacute" unicode="&#x1ff;" horiz-adv-x="606" 
d="M465 769l-157 -183h-124l137 183h144zM475 479q98 -77 98 -221q0 -123 -74.5 -200.5t-195.5 -77.5q-76 0 -134 32l-34 -52h-55l50 77q-97 78 -97 221q0 122 74.5 199.5t195.5 77.5q74 0 133 -31l35 53h55zM208 258q0 -47 10 -87l147 224q-24 32 -62 32q-44 0 -69.5 -43.5
t-25.5 -125.5zM303 87q44 0 69.5 44.5t25.5 126.5q0 48 -10 88l-148 -225q26 -34 63 -34z" />
    <glyph glyph-name="Scommaaccent" unicode="&#x218;" horiz-adv-x="674" 
d="M379 459q113 -46 154 -76q93 -67 93 -177q0 -106 -66.5 -166t-182.5 -60q-71 0 -125.5 25.5t-78.5 70.5l-14 -76h-93v249h126q6 -64 45.5 -104t97.5 -40q43 0 72 22t29 60q0 42 -34.5 69t-105.5 56q-42 17 -65.5 27.5t-59 33.5t-54 46.5t-33 61t-14.5 83.5q0 100 70 153
t166 53q64 0 111.5 -24t69.5 -55l12 59h94v-232h-128q-4 60 -38 97t-80 37q-41 0 -65.5 -20t-24.5 -54q0 -41 30.5 -67.5t91.5 -51.5zM368 -62q36 0 58.5 -23t22.5 -64q0 -46 -32 -94.5t-86 -81.5l-27 25l10 12q10 11 14 16.5t12.5 17.5t14 24.5t9.5 26.5q-35 4 -55 24.5
t-20 46.5q0 30 22.5 50t56.5 20z" />
    <glyph glyph-name="scommaaccent" unicode="&#x219;" horiz-adv-x="519" 
d="M314 325q38 -11 64 -22.5t54.5 -31t43.5 -50t15 -70.5q0 -78 -49.5 -121.5t-129.5 -43.5q-120 0 -173 70l-8 -56h-91v169h110q6 -41 34 -67t68 -26q64 0 64 51q0 29 -26 46t-80 34q-39 13 -62.5 23.5t-52.5 30.5t-43.5 50.5t-14.5 70.5q0 76 51 113t123 37q100 0 152 -62
l7 44h92v-150h-109q-9 38 -34.5 63.5t-62.5 25.5q-27 0 -43.5 -13.5t-16.5 -37.5q0 -26 28 -42t90 -35zM257 -44q35 0 56 -22t21 -61q0 -44 -30 -90.5t-82 -78.5l-28 24q45 48 59 93q-34 4 -53 23t-19 45q0 28 21.5 47.5t54.5 19.5z" />
    <glyph glyph-name="uni021A" unicode="&#x21a;" horiz-adv-x="743" 
d="M46 750h651v-266h-96v28q0 79 -15.5 108t-49.5 29h-77v-528h87v-121h-349v121h87v528h-77q-34 0 -49.5 -29t-15.5 -108v-28h-96v266zM375 -59q36 0 58.5 -23t22.5 -64q0 -46 -32 -94.5t-86 -81.5l-27 25l10 11q10 12 14 17.5t12.5 17.5t14 24.5t9.5 26.5q-35 4 -55 24.5
t-20 46.5q0 30 22.5 50t56.5 20z" />
    <glyph glyph-name="uni021B" unicode="&#x21b;" horiz-adv-x="397" 
d="M300 114q41 0 54 2v-116q-47 -17 -131 -17q-48 0 -79.5 11.5t-46.5 34t-20.5 47t-5.5 59.5v265h-59v115h15q60 0 82 32.5t31 109.5v26h96v-168h114v-115h-114v-237q0 -49 64 -49zM187 -44q35 0 56 -22t21 -61q0 -44 -30 -90.5t-82 -78.5l-28 24q45 48 59 93q-34 4 -53 23
t-19 45q0 28 21.5 47.5t54.5 19.5z" />
    <glyph glyph-name="uni0232" unicode="&#x232;" horiz-adv-x="744" 
d="M588 972v-127h-423v127h423zM438 750h285v-121h-69l-192 -358v-150h81v-121h-345v121h81v154l-184 354h-71v121h321v-121h-65l116 -227l106 227h-64v121z" />
    <glyph glyph-name="uni0233" unicode="&#x233;" horiz-adv-x="613" 
d="M509 756v-119h-408v119h408zM599 515v-115h-49l-176 -429q-35 -85 -81 -131.5t-121 -46.5q-39 0 -72 7l8 121q48 -3 62 -3q62 0 80 51l1 3l-184 428h-55v115h269v-115h-50l94 -258l100 258h-57v115h231z" />
    <glyph glyph-name="uni0237" unicode="&#x237;" horiz-adv-x="301" 
d="M251 -77q0 -69 -34.5 -98t-107.5 -29q-57 0 -97 8v120q20 -2 30 -2q27 0 35.5 11t8.5 34v432h-73v116h238v-592z" />
    <glyph glyph-name="uni0259" unicode="&#x259;" horiz-adv-x="608" 
d="M297 536q126 0 202 -77.5t76 -199.5t-76 -200t-202 -78t-194 71.5t-68 194.5v30h364q-4 77 -30.5 116t-69.5 39q-33 0 -58 -24t-33 -67h-173q20 92 88.5 143.5t173.5 51.5zM301 74q41 0 66.5 35t31.5 103h-193q5 -67 30.5 -102.5t64.5 -35.5z" />
    <glyph glyph-name="circumflex" unicode="&#x2c6;" horiz-adv-x="404" 
d="M404 579h-115l-86 92l-87 -92h-116l146 183h112z" />
    <glyph glyph-name="caron" unicode="&#x2c7;" horiz-adv-x="398" 
d="M283 762h115l-143 -182h-112l-143 182h116l84 -91z" />
    <glyph glyph-name="breve" unicode="&#x2d8;" horiz-adv-x="345" 
d="M171 670q42 0 72 23t31 75h71q0 -84 -43.5 -133.5t-130.5 -49.5q-86 0 -128.5 49t-42.5 134h70q2 -52 31 -75t70 -23z" />
    <glyph glyph-name="dotaccent" unicode="&#x2d9;" horiz-adv-x="193" 
d="M96 618q-41 0 -68.5 24.5t-27.5 59.5q0 36 27.5 61t68.5 25t69 -25t28 -61t-27.5 -60t-69.5 -24z" />
    <glyph glyph-name="ring" unicode="&#x2da;" horiz-adv-x="322" 
d="M161 875q69 0 115 -45t46 -114q0 -67 -46.5 -113t-114.5 -46t-114.5 46t-46.5 113q0 69 46 114t115 45zM161 785q-31 0 -50.5 -19t-19.5 -50q0 -30 19.5 -49.5t50.5 -19.5t50.5 19.5t19.5 49.5q0 31 -19 50t-51 19z" />
    <glyph glyph-name="ogonek" unicode="&#x2db;" horiz-adv-x="229" 
d="M0 -118q0 40 26.5 67.5t76.5 57.5h123q-52 -38 -70.5 -59t-18.5 -43q0 -14 10.5 -25.5t29.5 -11.5q32 0 52 16v-74q-22 -17 -101 -17q-62 0 -95 26.5t-33 62.5z" />
    <glyph glyph-name="tilde" unicode="&#x2dc;" horiz-adv-x="414" 
d="M123 772q42 0 94.5 -18.5t72.5 -18.5q46 0 46 42h78q0 -69 -32 -109.5t-90 -40.5q-43 0 -95.5 19t-71.5 19q-48 0 -48 -43h-77q0 69 32 109.5t91 40.5z" />
    <glyph glyph-name="hungarumlaut" unicode="&#x2dd;" horiz-adv-x="496" 
d="M0 579l137 183h144l-157 -183h-124zM197 579l155 183h144l-175 -183h-124z" />
    <glyph glyph-name="uni03BC" unicode="&#x3bc;" horiz-adv-x="643" 
d="M550 116h58v-116h-223v77q-56 -94 -154 -97v-169h-165v589h-54v115h219v-336q0 -39 17 -61.5t50 -22.5q38 0 62.5 25.5t24.5 63.5v216h-50v115h215v-399z" />
    <glyph glyph-name="uni0CA0" unicode="&#xca0;" horiz-adv-x="1035" 
d="M1025 716q0 -74 -29.5 -108.5t-97.5 -34.5h-16q45 -92 45 -199q0 -184 -128 -309t-317 -125t-317 125t-128 309q0 107 47 199h-66v133h817q34 0 49 18.5t15 58.5q0 15 -3 29h121q8 -38 8 -96zM807 374q0 114 -67 199h-514q-69 -83 -69 -199q0 -135 93.5 -226t231.5 -91
t231.5 91t93.5 226zM483 285q-43 0 -72.5 25.5t-29.5 63.5t29.5 64t72.5 26t72.5 -26t29.5 -64t-29.5 -63.5t-72.5 -25.5z" />
    <glyph glyph-name="uni1E44" unicode="&#x1e44;" horiz-adv-x="834" 
d="M420 838q-43 0 -72 25t-29 63t29 63.5t72 25.5t72 -25.5t29 -63.5t-29 -63t-72 -25zM513 750h266v-121h-68v-629h-133l-317 468v-347h69v-121h-270v121h76v508h-76v121h207l311 -467v346h-65v121z" />
    <glyph glyph-name="uni1E45" unicode="&#x1e45;" horiz-adv-x="669" 
d="M334 618q-41 0 -68.5 24.5t-27.5 59.5q0 36 27.5 61t68.5 25t69 -25t28 -61t-27.5 -60t-69.5 -24zM578 115h54v-115h-260v115h41v220q0 84 -67 84q-37 0 -62 -25.5t-25 -62.5v-216h41v-115h-264v115h58v284h-58v116h223v-70q55 90 161 90q70 0 114 -43.5t44 -113.5v-263z
" />
    <glyph glyph-name="uni1E60" unicode="&#x1e60;" horiz-adv-x="676" 
d="M351 838q-43 0 -72 25t-29 63t29 63.5t72 25.5t72 -25.5t29 -63.5t-29 -63t-72 -25zM379 459q113 -46 154 -76q93 -67 93 -177q0 -106 -66.5 -166t-182.5 -60q-71 0 -125.5 25.5t-78.5 70.5l-14 -76h-93v249h126q6 -64 45.5 -104t97.5 -40q43 0 72 22t29 60
q0 42 -34.5 69t-105.5 56q-42 17 -65.5 27.5t-59 33.5t-54 46.5t-33 61t-14.5 83.5q0 100 70 153t166 53q64 0 111.5 -24t69.5 -55l12 59h94v-232h-128q-4 60 -38 97t-80 37q-41 0 -65.5 -20t-24.5 -54q0 -41 30.5 -67.5t91.5 -51.5z" />
    <glyph glyph-name="uni1E61" unicode="&#x1e61;" horiz-adv-x="519" 
d="M256 618q-41 0 -68.5 24.5t-27.5 59.5q0 36 27.5 61t68.5 25t69 -25t28 -61t-27.5 -60t-69.5 -24zM314 325q38 -11 64 -22.5t54.5 -31t43.5 -50t15 -70.5q0 -78 -49.5 -121.5t-129.5 -43.5q-120 0 -173 70l-8 -56h-91v169h110q6 -41 34 -67t68 -26q64 0 64 51
q0 29 -26 46t-80 34q-39 13 -62.5 23.5t-52.5 30.5t-43.5 50.5t-14.5 70.5q0 76 51 113t123 37q100 0 152 -62l7 44h92v-150h-109q-9 38 -34.5 63.5t-62.5 25.5q-27 0 -43.5 -13.5t-16.5 -37.5q0 -26 28 -42t90 -35z" />
    <glyph glyph-name="Wgrave" unicode="&#x1e80;" horiz-adv-x="1181" 
d="M680 799h-140l-157 183h160zM866 750h293v-121h-79l-176 -631h-195l-120 483l-121 -483h-191l-179 631h-74v121h315v-121h-59l116 -460l117 460h-71v121h322v-121h-63l119 -461l110 461h-64v121z" />
    <glyph glyph-name="wgrave" unicode="&#x1e81;" horiz-adv-x="928" 
d="M545 586h-124l-157 183h144zM913 515v-115h-51l-138 -401h-162l-99 358l-95 -358h-164l-140 401h-50v115h264v-115h-50l76 -280l99 395h147l105 -396l73 281h-57v115h242z" />
    <glyph glyph-name="Wacute" unicode="&#x1e82;" horiz-adv-x="1181" 
d="M764 982l-157 -183h-139l137 183h159zM866 750h293v-121h-79l-176 -631h-195l-120 483l-121 -483h-191l-179 631h-74v121h315v-121h-59l116 -460l117 460h-71v121h322v-121h-63l119 -461l110 461h-64v121z" />
    <glyph glyph-name="wacute" unicode="&#x1e83;" horiz-adv-x="928" 
d="M629 769l-157 -183h-124l137 183h144zM913 515v-115h-51l-138 -401h-162l-99 358l-95 -358h-164l-140 401h-50v115h264v-115h-50l76 -280l99 395h147l105 -396l73 281h-57v115h242z" />
    <glyph glyph-name="Wdieresis" unicode="&#x1e84;" horiz-adv-x="1181" 
d="M470 838q-39 0 -66 24.5t-27 59.5q0 34 27 60t66 26q40 0 66.5 -25.5t26.5 -60.5t-26 -59.5t-67 -24.5zM718 838q-41 0 -67 24.5t-26 59.5t26.5 60.5t66.5 25.5q39 0 66 -26t27 -60q0 -35 -27 -59.5t-66 -24.5zM866 750h293v-121h-79l-176 -631h-195l-120 483l-121 -483
h-191l-179 631h-74v121h315v-121h-59l116 -460l117 460h-71v121h322v-121h-63l119 -461l110 461h-64v121z" />
    <glyph glyph-name="wdieresis" unicode="&#x1e85;" horiz-adv-x="928" 
d="M367 620q-34 0 -57 20.5t-23 50.5t23 51t57 21t56.5 -21t22.5 -51t-22.5 -50.5t-56.5 -20.5zM579 620q-34 0 -56.5 20.5t-22.5 50.5t22.5 51t56.5 21t57 -21t23 -51t-23 -50.5t-57 -20.5zM913 515v-115h-51l-138 -401h-162l-99 358l-95 -358h-164l-140 401h-50v115h264
v-115h-50l76 -280l99 395h147l105 -396l73 281h-57v115h242z" />
    <glyph glyph-name="uni1EBC" unicode="&#x1ebc;" horiz-adv-x="690" 
d="M268 874q-51 0 -51 -45h-84q0 76 34 119.5t97 43.5q47 0 102.5 -20t77.5 -20q49 0 49 45h85q0 -76 -34.5 -119.5t-96.5 -43.5q-46 0 -102 20t-77 20zM630 486h-101v26q0 70 -16.5 93.5t-67.5 23.5h-133v-187h149v-109h-149v-212h133q50 0 67 25.5t17 94.5v49h101v-290
h-569v121h76v508h-76v121h569v-264z" />
    <glyph glyph-name="uni1EBD" unicode="&#x1ebd;" horiz-adv-x="604" 
d="M208 654q-48 0 -48 -43h-77q0 69 32 109.5t91 40.5q42 0 94.5 -18.5t72.5 -18.5q46 0 46 42h78q0 -69 -32 -109.5t-90 -40.5q-43 0 -95.5 19t-71.5 19zM400 175h173q-20 -92 -89 -143.5t-173 -51.5q-126 0 -202 77.5t-76 199.5t76 200t202 78q125 0 193 -72t68 -195v-36
h-363q5 -72 31 -108.5t68 -36.5q33 0 58 23t34 65zM307 438q-85 0 -97 -132h191q-5 64 -30.5 98t-63.5 34z" />
    <glyph glyph-name="Ygrave" unicode="&#x1ef2;" horiz-adv-x="744" 
d="M462 799h-140l-157 183h160zM438 750h285v-121h-69l-192 -358v-150h81v-121h-345v121h81v154l-184 354h-71v121h321v-121h-65l116 -227l106 227h-64v121z" />
    <glyph glyph-name="ygrave" unicode="&#x1ef3;" horiz-adv-x="613" 
d="M377 586h-124l-157 183h144zM599 515v-115h-49l-176 -429q-35 -85 -81 -131.5t-121 -46.5q-39 0 -72 7l8 121q48 -3 62 -3q62 0 80 51l1 3l-184 428h-55v115h269v-115h-50l94 -258l100 258h-57v115h231z" />
    <glyph glyph-name="uni1EF8" unicode="&#x1ef8;" horiz-adv-x="744" 
d="M281 874q-51 0 -51 -45h-84q0 76 34 119.5t97 43.5q47 0 102.5 -20t77.5 -20q49 0 49 45h85q0 -76 -34.5 -119.5t-96.5 -43.5q-46 0 -102 20t-77 20zM438 750h285v-121h-69l-192 -358v-150h81v-121h-345v121h81v154l-184 354h-71v121h321v-121h-65l116 -227l106 227h-64
v121z" />
    <glyph glyph-name="uni1EF9" unicode="&#x1ef9;" horiz-adv-x="613" 
d="M207 654q-48 0 -48 -43h-77q0 69 32 109.5t91 40.5q42 0 94.5 -18.5t72.5 -18.5q46 0 46 42h78q0 -69 -32 -109.5t-90 -40.5q-43 0 -95.5 19t-71.5 19zM599 515v-115h-49l-176 -429q-35 -85 -81 -131.5t-121 -46.5q-39 0 -72 7l8 121q48 -3 62 -3q62 0 80 51l1 3
l-184 428h-55v115h269v-115h-50l94 -258l100 258h-57v115h231z" />
    <glyph glyph-name="uni2009" unicode="&#x2009;" horiz-adv-x="211" 
 />
    <glyph glyph-name="endash" unicode="&#x2013;" horiz-adv-x="693" 
d="M61 336h571v-124h-571v124z" />
    <glyph glyph-name="emdash" unicode="&#x2014;" horiz-adv-x="1009" 
d="M61 336h887v-124h-887v124z" />
    <glyph glyph-name="quoteleft" unicode="&#x2018;" horiz-adv-x="317" 
d="M163 618q45 -4 70 -29.5t25 -59.5q0 -39 -29 -65t-73 -26q-45 0 -73 29.5t-28 82.5q0 57 39.5 118t107.5 103l37 -33q-57 -57 -76 -120z" />
    <glyph glyph-name="quoteright" unicode="&#x2019;" horiz-adv-x="317" 
d="M160 770q46 0 74 -29.5t28 -81.5q0 -57 -40 -118t-108 -103l-37 32q59 59 77 120q-45 5 -70 30.5t-25 59.5q0 38 28.5 64t72.5 26z" />
    <glyph glyph-name="quotesinglbase" unicode="&#x201a;" horiz-adv-x="317" 
d="M160 159q46 0 74 -29.5t28 -81.5q0 -57 -40 -118t-108 -103l-37 33q57 57 77 119q-45 5 -70 31t-25 59q0 38 28.5 64t72.5 26z" />
    <glyph glyph-name="quotedblleft" unicode="&#x201c;" horiz-adv-x="573" 
d="M163 618q45 -4 70 -29.5t25 -59.5q0 -39 -29 -65t-73 -26q-45 0 -73 29.5t-28 82.5q0 57 39.5 118t107.5 103l37 -33q-57 -57 -76 -120zM419 618q44 -4 69.5 -30t25.5 -59q0 -39 -28.5 -65t-72.5 -26q-46 0 -74 29.5t-28 82.5q0 57 40 118t108 103l37 -33
q-59 -59 -77 -120z" />
    <glyph glyph-name="quotedblright" unicode="&#x201d;" horiz-adv-x="573" 
d="M160 770q46 0 74 -29.5t28 -81.5q0 -57 -40 -118t-108 -103l-37 32q59 59 77 120q-45 5 -70 30.5t-25 59.5q0 38 28.5 64t72.5 26zM417 770q45 0 73 -29.5t28 -81.5q0 -57 -39.5 -118t-107.5 -103l-37 32q59 61 76 120q-45 5 -70 30.5t-25 59.5q0 38 29 64t73 26z" />
    <glyph glyph-name="quotedblbase" unicode="&#x201e;" horiz-adv-x="533" 
d="M140 159q46 0 74 -29.5t28 -81.5q0 -57 -40 -118t-108 -103l-37 33q57 57 77 119q-45 5 -70 31t-25 59q0 38 28.5 64t72.5 26zM396 159q46 0 74 -29.5t28 -81.5q0 -57 -40 -118t-108 -103l-37 33q57 57 77 119q-45 5 -70 31t-25 59q0 38 28.5 64t72.5 26z" />
    <glyph glyph-name="dagger" unicode="&#x2020;" horiz-adv-x="555" 
d="M343 770v-132l-13 -82l82 13h119v-132h-119l-82 13l13 -82v-215l-25 -293h-81l-25 293v215l12 82l-81 -13h-119v132h119l81 -13l-12 82v132h131z" />
    <glyph glyph-name="daggerdbl" unicode="&#x2021;" horiz-adv-x="630" 
d="M368 180l81 13h119v-132h-119l-81 13l13 -82v-132h-131v132l11 82l-81 -13h-119v132h119l81 -13l-11 82v106l12 82l-82 -13h-118v132h118l82 -13l-12 82v132h131v-132l-13 -82l82 13h119v-132h-119l-82 13l13 -82v-106z" />
    <glyph glyph-name="bullet" unicode="&#x2022;" horiz-adv-x="427" 
d="M214 240q-66 0 -109.5 38.5t-43.5 95.5t43.5 96t109.5 39q65 0 108.5 -39t43.5 -96t-43.5 -95.5t-108.5 -38.5z" />
    <glyph glyph-name="ellipsis" unicode="&#x2026;" horiz-adv-x="787" 
d="M136 -20q-44 0 -72.5 25.5t-28.5 63.5t28.5 64t72.5 26t73 -26t29 -64t-29 -63.5t-73 -25.5zM394 -20q-45 0 -73.5 25.5t-28.5 63.5t29 64t73 26t72.5 -26t28.5 -64t-28.5 -63.5t-72.5 -25.5zM651 -20q-44 0 -73 25.5t-29 63.5t29 64t73 26t72.5 -26t28.5 -64
t-28.5 -63.5t-72.5 -25.5z" />
    <glyph glyph-name="perthousand" unicode="&#x2030;" horiz-adv-x="1424" 
d="M231 770q88 0 142.5 -51.5t54.5 -132.5q0 -82 -54.5 -133.5t-142.5 -51.5t-142.5 51.5t-54.5 133.5q0 81 54.5 132.5t142.5 51.5zM718 750h131l-607 -750h-131zM231 472q34 0 54 30t20 84q0 53 -20 82.5t-54 29.5t-54 -29.5t-20 -82.5q0 -55 20 -84.5t54 -29.5zM729 349
q88 0 142.5 -51.5t54.5 -132.5q0 -82 -54.5 -133.5t-142.5 -51.5t-142.5 51.5t-54.5 133.5q0 81 54.5 132.5t142.5 51.5zM1194 349q88 0 142.5 -51.5t54.5 -132.5q0 -82 -54.5 -133.5t-142.5 -51.5t-142.5 51.5t-54.5 133.5q0 81 54.5 132.5t142.5 51.5zM729 51q34 0 54 30
t20 84q0 53 -20 82.5t-54 29.5t-54.5 -29.5t-20.5 -82.5q0 -54 20.5 -84t54.5 -30zM1194 51q34 0 54 30t20 84q0 53 -20 82.5t-54 29.5t-54.5 -29.5t-20.5 -82.5q0 -54 20.5 -84t54.5 -30z" />
    <glyph glyph-name="guilsinglleft" unicode="&#x2039;" horiz-adv-x="409" 
d="M204 41l-153 216l153 216h153l-153 -216l153 -216h-153z" />
    <glyph glyph-name="guilsinglright" unicode="&#x203a;" horiz-adv-x="409" 
d="M204 257l-153 216h153l153 -216l-153 -216h-153z" />
    <glyph glyph-name="fraction" unicode="&#x2044;" horiz-adv-x="251" 
d="M-178 0l487 750h120l-487 -750h-120z" />
    <glyph glyph-name="uni20A9" unicode="&#x20a9;" horiz-adv-x="1182" 
d="M1159 629h-79l-35 -127h59v-83h-83l-18 -66h101v-84h-124l-76 -271h-195l-67 271h-106l-68 -271h-191l-77 271h-124v84h100l-18 66h-82v83h58l-36 127h-74v121h315v-121h-59l32 -127h172l32 127h-74v121h322v-121h-63l33 -127h168l30 127h-66v121h293v-121zM333 419
l16 -66h97l16 66h-129zM557 353h64l-17 66h-31zM866 353l16 66h-127l17 -66h94zM397 163l27 106h-53zM821 164l25 105h-52z" />
    <glyph glyph-name="Euro" unicode="&#x20ac;" horiz-adv-x="811" 
d="M582 291h169q-7 -149 -86.5 -230t-225.5 -81q-131 0 -216 75.5t-113 203.5h-59v84h48q-1 11 -1 33t1 33h-48v84h59q28 127 113 202t216 75q144 0 223 -78.5t87 -224.5h-169q-32 166 -131 166q-49 0 -85 -36t-52 -104h155v-84h-167q-1 -11 -1 -33t1 -33h167v-84h-156
q17 -69 53 -105.5t85 -36.5q103 0 133 174z" />
    <glyph glyph-name="uni2116" unicode="&#x2116;" horiz-adv-x="1424" 
d="M1102 215q-120 0 -195 78t-75 200t75 199.5t195 77.5q121 0 196 -77.5t75 -199.5t-75 -200t-196 -78zM513 629v121h266v-121h-68v-629h-133l-317 468v-347h69v-121h-270v121h76v508h-76v121h207l311 -467v346h-65zM1102 662q-44 0 -69 -43.5t-25 -125.5t25 -126t69 -44
t69.5 44t25.5 126t-25.5 125.5t-69.5 43.5zM841 32v123h524v-123h-524z" />
    <glyph glyph-name="uni2120" unicode="&#x2120;" horiz-adv-x="756" 
d="M169 641q61 -23 80 -41q23 -23 23 -57q0 -41 -28 -65t-77 -24q-62 0 -83 31l-6 -23h-43v97h58q2 -22 17 -37t37 -15q16 0 26.5 7.5t10.5 20.5q0 24 -53 43q-22 8 -34 13.5t-28.5 17t-24.5 28t-8 38.5q0 40 30 61.5t71 21.5q51 0 75 -26l4 18h43v-91h-59q-1 22 -13.5 35
t-30.5 13q-34 0 -34 -26q0 -22 47 -40zM722 698h-31v-185h31v-51h-132v51h21v152l-87 -206h-28l-83 197v-143h20v-51h-114v51h31v185h-31v52h131l74 -182l75 182h123v-52z" />
    <glyph glyph-name="trademark" unicode="&#x2122;" horiz-adv-x="791" 
d="M35 643v107h272v-107h-43v9q0 32 -7 43.5t-22 11.5h-23v-194h33v-51h-148v51h34v194h-24q-15 0 -22 -11.5t-7 -43.5v-9h-43zM756 698h-31v-185h31v-51h-132v51h21v152l-87 -206h-28l-83 197v-143h21v-51h-115v51h31v185h-31v52h131l74 -182l75 182h123v-52z" />
    <glyph glyph-name="uni2153" unicode="&#x2153;" horiz-adv-x="930" 
d="M279 420v-70h-239v70h69v221q-7 -1 -21 -1q-28 0 -48 4v76q10 -2 15 -2q70 0 77 32h88v-330h59zM608 750h120l-487 -750h-120zM795 205q35 -10 58 -33.5t23 -58.5q0 -55 -47 -89.5t-125 -34.5q-74 0 -118 40t-44 105v13h108v-13q0 -63 53 -63q25 0 39 14.5t14 40.5
q0 45 -48 45h-33v60h35q46 0 46 45q0 25 -14.5 39.5t-38.5 14.5q-52 0 -52 -66v-8h-105q-1 5 -1 8q0 67 44 107t117 40q76 0 121 -33t45 -84q0 -34 -22 -56.5t-55 -32.5z" />
    <glyph glyph-name="uni2154" unicode="&#x2154;" horiz-adv-x="1021" 
d="M370 464v-114h-330v41q0 42 34 76.5t75 54t75 46.5t34 57q0 27 -14.5 42t-39.5 15q-26 0 -42.5 -18t-16.5 -53l1 -9h-100q-1 6 -1 9q0 64 44 107t117 43q77 0 119 -34t42 -94q0 -45 -31 -81t-69 -54.5t-72.5 -39t-38.5 -38.5h141v44h73zM713 750h120l-487 -750h-120z
M901 205q35 -10 57.5 -33.5t22.5 -58.5q0 -55 -47 -89.5t-124 -34.5q-75 0 -119 40t-44 105v13h109v-13q0 -63 53 -63q52 0 52 55q0 45 -48 45h-33v60h35q46 0 46 45q0 25 -14 39.5t-38 14.5q-53 0 -53 -66v-8h-105q-1 5 -1 8q0 67 44 107t117 40q76 0 121 -33t45 -84
q0 -64 -76 -89z" />
    <glyph glyph-name="oneeighth" unicode="&#x215b;" horiz-adv-x="929" 
d="M279 420v-70h-239v70h69v221q-7 -1 -21 -1q-28 0 -48 4v76q10 -2 15 -2q70 0 77 32h88v-330h59zM608 750h120l-487 -750h-120zM815 214q74 -28 74 -96q0 -54 -46.5 -91.5t-133.5 -37.5q-85 0 -132 37.5t-47 91.5q0 66 74 96q-52 28 -52 82q0 48 41 81.5t116 33.5
q76 0 117 -33.5t41 -81.5q0 -54 -52 -82zM709 341q-24 0 -40.5 -14t-16.5 -35q0 -24 16 -38t41 -14t41.5 14t16.5 38q0 22 -16.5 35.5t-41.5 13.5zM709 65q27 0 46 16.5t19 40.5q0 27 -18 42t-47 15q-28 0 -46 -15t-18 -42q0 -23 18.5 -40t45.5 -17z" />
    <glyph glyph-name="threeeighths" unicode="&#x215c;" horiz-adv-x="1002" 
d="M374 463q0 -55 -47 -89.5t-124 -34.5q-75 0 -119 40t-44 105v13h109v-13q0 -63 53 -63q52 0 52 55q0 45 -48 45h-33v60h35q46 0 46 45q0 25 -14 39.5t-38 14.5q-53 0 -53 -66v-8h-105q-1 5 -1 8q0 67 44 107t117 40q76 0 121 -33t45 -84q0 -64 -76 -89q35 -10 57.5 -33.5
t22.5 -58.5zM681 750h120l-487 -750h-120zM888 214q74 -28 74 -96q0 -54 -46.5 -91.5t-132.5 -37.5t-133 37.5t-47 91.5q0 66 74 96q-52 28 -52 82q0 48 41 81.5t117 33.5q75 0 116 -33.5t41 -81.5q0 -54 -52 -82zM783 341q-25 0 -41.5 -13.5t-16.5 -35.5q0 -24 16.5 -38
t41.5 -14t41 14t16 38q0 21 -16.5 35t-40.5 14zM783 65q27 0 45.5 17t18.5 40q0 27 -18 42t-46 15q-29 0 -46.5 -15t-17.5 -42q0 -24 18.5 -40.5t45.5 -16.5z" />
    <glyph glyph-name="fiveeighths" unicode="&#x215d;" horiz-adv-x="984" 
d="M365 484q0 -61 -45 -103t-121 -42q-73 0 -116 40.5t-43 102.5v7h101v-7q-1 -62 54 -62t55 68q0 29 -14.5 49.5t-40.5 20.5q-16 0 -30 -6t-20 -11.5t-7 -8.5l-81 13l24 205h258v-79h-185l-10 -68q37 22 79 22q72 0 107 -38.5t35 -102.5zM664 750h119l-487 -750h-119z
M870 214q74 -30 74 -96q0 -54 -46.5 -91.5t-132.5 -37.5t-132.5 37.5t-46.5 91.5q0 68 74 96q-52 28 -52 82q0 48 41 81.5t116 33.5q76 0 117 -33.5t41 -81.5q0 -54 -53 -82zM765 341q-24 0 -40.5 -14t-16.5 -35q0 -24 16 -38t41 -14t41 14t16 38q0 22 -16 35.5t-41 13.5z
M765 65q27 0 45.5 16.5t18.5 40.5q0 27 -17.5 42t-46.5 15q-28 0 -46 -15t-18 -42q0 -23 18.5 -40t45.5 -17z" />
    <glyph glyph-name="seveneighths" unicode="&#x215e;" horiz-adv-x="911" 
d="M91 350q0 89 59 180t124 150h-157v-55h-77v125h328v-70q-153 -151 -153 -330h-124zM591 750h119l-487 -750h-119zM797 214q74 -30 74 -96q0 -54 -46.5 -91.5t-132.5 -37.5t-132.5 37.5t-46.5 91.5q0 68 74 96q-52 28 -52 82q0 48 41 81.5t116 33.5q76 0 117 -33.5
t41 -81.5q0 -54 -53 -82zM692 341q-24 0 -40.5 -14t-16.5 -35q0 -24 16 -38t41 -14t41 14t16 38q0 22 -16 35.5t-41 13.5zM692 65q27 0 45.5 17t18.5 40q0 27 -17.5 42t-46.5 15q-28 0 -46 -15t-18 -42q0 -23 18.5 -40t45.5 -17z" />
    <glyph glyph-name="arrowleft" unicode="&#x2190;" horiz-adv-x="745" 
d="M695 340v-165l-415 12q109 -91 131 -166h-182q-17 64 -64.5 118.5t-134.5 109.5v16q93 65 137.5 116.5t61.5 111.5h182q-22 -74 -129 -165z" />
    <glyph glyph-name="arrowup" unicode="&#x2191;" horiz-adv-x="547" 
d="M281 666q65 -93 116.5 -137.5t111.5 -61.5v-182q-73 21 -164 129l12 -413h-166l12 415q-91 -109 -165 -131v182q63 17 117.5 64.5t110.5 134.5h15z" />
    <glyph glyph-name="arrowright" unicode="&#x2192;" horiz-adv-x="745" 
d="M517 493q17 -63 63.5 -117t134.5 -111v-16q-93 -65 -137.5 -116.5t-60.5 -111.5h-183q21 73 131 166l-415 -12v165l414 -12q-109 92 -130 165h183z" />
    <glyph glyph-name="arrowdown" unicode="&#x2193;" horiz-adv-x="547" 
d="M345 165q93 109 164 129v-182q-63 -17 -117 -64.5t-111 -134.5h-15q-65 93 -116.5 137.5t-111.5 61.5v182q71 -20 165 -130l-12 415h166z" />
    <glyph glyph-name="arrowboth" unicode="&#x2194;" horiz-adv-x="958" 
d="M730 493q17 -63 63.5 -117t134.5 -111v-16q-93 -65 -137.5 -116.5t-60.5 -111.5h-183q20 72 128 164l-196 -10l-196 10q108 -92 128 -164h-182q-17 64 -64.5 118.5t-134.5 109.5v16q93 65 137.5 116.5t61.5 111.5h182q-20 -72 -127 -163l195 10l195 -10q-107 91 -127 163
h183z" />
    <glyph glyph-name="arrowupdn" unicode="&#x2195;" horiz-adv-x="547" 
d="M509 403q-71 20 -162 127l9 -181l-9 -181q92 106 162 126v-182q-63 -17 -117 -64.5t-111 -134.5h-15q-65 93 -116.5 137.5t-111.5 61.5v182q72 -20 162 -127l-9 182l9 181q-90 -107 -162 -127v182q63 17 117.5 64.5t110.5 134.5h15q65 -93 116.5 -137.5t111.5 -61.5v-182
z" />
    <glyph glyph-name="uni2196" unicode="&#x2196;" horiz-adv-x="705" 
d="M638 80l-117 -117l-283 300q10 -141 -27 -207l-129 129q64 111 21 301l11 11q112 -19 180 -14.5t121 35.5l129 -129q-67 -37 -204 -27z" />
    <glyph glyph-name="uni2197" unicode="&#x2197;" horiz-adv-x="705" 
d="M597 486q-19 -113 -14.5 -180.5t36.5 -121.5l-130 -129q-38 68 -26 207l-283 -300l-118 117l300 283q-141 -10 -206 27l129 129q110 -63 302 -21z" />
    <glyph glyph-name="uni2198" unicode="&#x2198;" horiz-adv-x="705" 
d="M619 330q-63 -110 -22 -302l-10 -10q-113 19 -180.5 14.5t-121.5 -36.5l-129 130q66 37 206 27l-299 282l117 118l282 -300q-10 141 27 206z" />
    <glyph glyph-name="uni2199" unicode="&#x2199;" horiz-adv-x="705" 
d="M338 153q140 10 206 -28l-129 -129q-111 64 -301 21l-11 11q19 112 14.5 180t-35.5 121l129 130q37 -68 27 -205l282 298l117 -117z" />
    <glyph glyph-name="minus" unicode="&#x2212;" horiz-adv-x="693" 
d="M61 367h571v-124h-571v124z" />
    <glyph glyph-name="approxequal" unicode="&#x2248;" horiz-adv-x="922" 
d="M176 410l10 6q10 7 27.5 16.5t38 19t45 16t44.5 6.5q50 0 122 -30t118 -30q35 0 76.5 12t64.5 24l24 13v-116q-10 -6 -26.5 -15.5t-60 -25.5t-78.5 -16q-46 0 -118 30t-122 30q-15 0 -32 -3t-32.5 -8t-30.5 -11t-27.5 -12t-22 -11t-14.5 -8l-6 -3v116zM176 265l10 5
q10 6 27.5 14.5t38 17t45 14.5t44.5 6q50 0 122 -30t118 -30q35 0 76.5 14t64.5 28l24 14v-116q-10 -7 -26.5 -17.5t-60 -28.5t-78.5 -18q-46 0 -118 30t-122 30q-15 0 -32 -2.5t-32.5 -7t-30.5 -9.5t-27.5 -10.5t-22 -10t-14.5 -6.5l-6 -3v116z" />
    <glyph glyph-name="notequal" unicode="&#x2260;" horiz-adv-x="922" 
d="M746 367h-193l-84 -124h277v-124h-362l-66 -97h-101l66 97h-107v124h192l85 124h-277v124h361l61 89h100l-61 -89h109v-124z" />
    <glyph glyph-name="lessequal" unicode="&#x2264;" horiz-adv-x="922" 
d="M746 573v-95l-440 -128l440 -132v-94l-570 184v84zM176 2v90h570v-90h-570z" />
    <glyph glyph-name="greaterequal" unicode="&#x2265;" horiz-adv-x="922" 
d="M176 573l570 -181v-84l-570 -184v94l440 132l-440 128v95zM176 2v90h570v-90h-570z" />
    <glyph glyph-name="revlogicalnot" unicode="&#x2310;" horiz-adv-x="686" 
d="M188 243v-199h-130v323h571v-124h-441z" />
    <glyph glyph-name="uni24C5" unicode="&#x24c5;" horiz-adv-x="872" 
d="M436 770q164 0 274.5 -113.5t110.5 -280.5q0 -170 -110 -283t-275 -113t-275 113t-110 283q0 167 110.5 280.5t274.5 113.5zM436 51q130 0 220.5 94t90.5 231q0 136 -90.5 229.5t-220.5 93.5t-220.5 -93.5t-90.5 -229.5q0 -137 90.5 -231t220.5 -94zM478 183h-197v64h42
v256h-42v64h199q153 0 153 -116q0 -63 -43 -94t-115 -31h-53v-79h56v-64zM422 382h39q60 0 60 61q0 60 -60 60h-39v-121z" />
    <glyph glyph-name="uni2501" unicode="&#x2501;" horiz-adv-x="638" 
d="M-5 251v158h648v-158h-648z" />
    <glyph glyph-name="uni253B" unicode="&#x253b;" horiz-adv-x="638" 
d="M-5 251v158h252v361h144v-361h252v-158h-648z" />
    <glyph glyph-name="uni256F" unicode="&#x256f;" horiz-adv-x="604" 
d="M479 770q0 -228 -122.5 -357.5t-303.5 -129.5v111q91 0 158 53.5t98.5 137.5t31.5 185h138z" />
    <glyph glyph-name="filledbox" unicode="&#x25a0;" horiz-adv-x="582" 
d="M30 521h522v-521h-522v521zM463 433h-98l98 -99v99z" />
    <glyph glyph-name="uni25A1" unicode="&#x25a1;" horiz-adv-x="582" 
d="M30 521h522v-521h-522v521zM468 443h-354v-365h354v365z" />
    <glyph glyph-name="uni261A" unicode="&#x261a;" horiz-adv-x="1567" 
d="M549 96q-18 4 -13 33q-12 14 -21 28q-17 29 -18 57q-33 9 -74 33q-72 41 -72 72q0 18 18 54l3 5q2 4 4 6q-80 -2 -163 -2q-38 0 -76 18q-31 19 -44 41q0 2 -2 4q-51 4 -55 19q0 12 12.5 18t43.5 12q31 3 76 -4q67 4 123 14q110 20 145 40q2 1 14 8q131 71 170 88
q124 55 182 55q46 0 203 -31q10 24 30 24q19 0 92 -25q54 -18 82 -25v11q0 9 6 12q5 5 14 3l257 -72q11 -4 11 -16v-373q0 -6 -4.5 -10.5t-11.5 -4.5h-189q-12 0 -16 11q-13 36 -24 85q-26 -2 -42 -4q-106 -12 -123 -12q-32 0 -62 56q-18 34 -25 73q-105 52 -123 55
q-24 3 -56 9q-29 -79 -120 -118q-12 -4 -37 -41q-16 -21 -43 -76q-8 -20 -26 -57q0 -8 -1 -12q-5 -25 -20 -44t-25 -17zM579 214l12 25q55 118 97 134q60 29 86 70q7 9 11.5 19t5.5 15l1 5q1 7 8 12q5 4 12 2l12 -2q12 -2 29.5 -4.5t28.5 -3.5q15 -3 112 -49q-4 27 -4 68
q0 85 6 128q-166 28 -194 28q-52 0 -169 -53q-81 -36 -166 -85q-7 -5 -15 -8q-37 -21 -121.5 -38t-157.5 -20q-14 -6 -42 -11q1 -1 5.5 -4.5t7.5 -5.5q29 -21 69 -21q102 0 174 4q36 3 93 17q32 9 45 9q15 0 32 -12t26 -22t14 -18q9 -9 -2 -20q-33 -38 -59 -113
q-15 -43 8 -85q3 -3 3 -7q19 36 32 46zM1206 311q14 1 39 5q-30 152 -35 290q-26 5 -94 27q-66 22 -79 23q-4 -4 -9 -31q-6 -54 -6 -120q0 -44 5.5 -81t14 -59t18 -37.5t16.5 -21.5t11 -6q15 0 119 11zM1094 377q0 -17 12 -29t29 -12q18 0 30 12t12 29t-12 29t-30 12
q-17 0 -29 -12t-12 -29zM529 328q6 14 33 56q-23 27 -37 27q-7 0 -11 -1q-3 -42 -17 -66q20 -7 32 -16zM438 276q36 -18 60 -28q0 4 6 23q3 9 10 26q-14 11 -48 22q-8 1 -12 12q-3 8 4 16q18 18 22 55q-50 -11 -68 -13q-6 -18 -13 -32q-14 -28 -14 -38q2 -14 53 -43z
M1373 244q26 0 45 18.5t19 44.5t-19 44.5t-45 18.5q-25 0 -43.5 -19t-18.5 -44q0 -26 18.5 -44.5t43.5 -18.5z" />
    <glyph glyph-name="uni261B" unicode="&#x261b;" horiz-adv-x="1567" 
d="M1018 96q-10 -2 -25 17t-20 44q-1 4 -1 12q-18 37 -26 57q-27 55 -43 76q-25 37 -37 41q-91 39 -120 118q-32 -6 -56 -9q-18 -3 -123 -55q-7 -39 -25 -73q-30 -56 -62 -56q-38 0 -123 12q-16 2 -42 4q-8 -34 -24 -85q-4 -11 -16 -11h-189q-7 0 -11.5 4.5t-4.5 10.5v373
q0 12 11 16l257 72q9 2 14 -3q6 -3 6 -12v-11q28 7 82 25q73 25 92 25q20 0 30 -24q157 31 203 31q69 0 182 -55q66 -32 170 -88q12 -7 14 -8q35 -20 145 -40q56 -10 123 -14q45 7 76 4q31 -6 43.5 -12t12.5 -18q-4 -15 -55 -19q-2 -2 -2 -4q-13 -22 -44 -41
q-38 -18 -76 -18q-83 0 -163 2q1 -1 2.5 -3t2.5 -4.5t2 -3.5q18 -36 18 -54q0 -31 -72 -72q-42 -24 -74 -33q-2 -28 -18 -57q-9 -14 -21 -28q5 -29 -13 -33zM988 214q13 -10 32 -46q0 4 3 7q23 42 8 85q-12 33 -26.5 61.5t-23.5 40.5l-9 11q-11 11 -2 20q5 8 14 18t26 22
t32 12q13 0 45 -9q51 -15 93 -17q72 -4 174 -4q40 0 69 21q3 2 7.5 5.5t5.5 4.5q-28 5 -42 11q-73 3 -157.5 20t-121.5 38q-7 3 -15 8q-85 49 -166 85q-117 53 -169 53q-28 0 -194 -28q6 -44 6 -128q0 -41 -4 -68q97 46 112 49q11 1 28.5 3.5t29.5 4.5l12 2q7 2 12 -2
q7 -5 8 -12q2 -18 18 -39q26 -41 86 -70q37 -15 97 -134zM361 311q23 -2 52 -5t45.5 -4.5t21.5 -1.5q8 1 22 17.5t28.5 66.5t14.5 121q0 66 -6 120q-5 27 -9 31q-13 -1 -79 -23q-68 -22 -94 -27q-5 -138 -35 -290q25 -4 39 -5zM473 377q0 17 -12.5 29t-28.5 12
q-18 0 -30 -12t-12 -29t12 -29t30 -12q16 0 28.5 12t12.5 29zM1038 328q12 9 32 16q-14 24 -17 66q-4 1 -11 1q-14 0 -37 -27q27 -42 33 -56zM1129 276q23 13 36 23.5t15 14.5l2 5q0 10 -14 38q-7 14 -13 32q-18 2 -68 13q4 -37 22 -55q7 -8 4 -16q-4 -11 -12 -12
q-34 -11 -48 -22q7 -17 10 -26q6 -19 6 -23q24 10 60 28zM194 244q25 0 43.5 18.5t18.5 44.5q0 25 -18.5 44t-43.5 19q-26 0 -45 -18.5t-19 -44.5t19 -44.5t45 -18.5z" />
    <glyph glyph-name="uni261C" unicode="&#x261c;" horiz-adv-x="1467" 
d="M1397 50h-395q-3 18 -5 66h-163l-3 28l-1 3q0 3 -1 10l-2 14q-61 -26 -119 -26q-64 0 -124 20q-9 -31 -35 -49q-29 -20 -75 -20q-52 0 -88 17q-60 28 -60 85q0 19 7 36q-7 3 -15 9q-26 22 -26 69q0 12 5 29q-4 2 -12 8q-27 23 -27 69q0 51 57 106q-8 -1 -23 -1
q-33 0 -69 14q-35 -16 -65 -16q-43 0 -70 10q-48 17 -48 65q0 34 48 58q36 19 103 34q131 28 257 28q98 0 242 -49q56 -19 141 -60l3 30h165l3 30h395v-617zM399 142q29 -14 75 -14q39 0 57 15q26 17 26 59q0 34 -8 48q-4 10 -13 10q-39 0 -54 -62h-29q9 43 31.5 68t51.5 25
q53 0 53 -89v-4q54 -21 119 -21q60 0 116 27q-7 96 -7 173q0 106 9 196q-72 36 -146 61q-139 47 -232 47q-137 0 -251 -25q-43 -9 -72.5 -21t-41 -21.5t-11.5 -17.5q0 -44 86 -44q8 0 16.5 1.5t15.5 4t12.5 5t9.5 3.5l3 2l7 4l6 -4l4 -1q4 -1 10.5 -3t14.5 -4t17.5 -3
t17.5 -1q53 0 73 10q38 27 76 43v-31q-37 -19 -77 -52q-73 -58 -73 -108q0 -36 19 -48q21 35 67 74q13 11 27.5 20.5t26 16.5t21 12t16.5 8l6 3v-32q-46 -26 -77 -52q-74 -60 -74 -108q0 -44 25 -50q20 31 64 69q45 37 96 57v-30q-45 -25 -77 -52q-74 -63 -74 -108
q0 -37 42 -56zM996 147q-4 96 -4 212q0 129 5 246h-136q-12 -95 -12 -228q0 -60 3 -117.5t6 -85.5l3 -27h135zM881 208q0 -17 12 -29.5t29 -12.5t29 12.5t12 29.5q0 16 -12 28t-29 12t-29 -11.5t-12 -28.5zM1116 122q26 0 45 18.5t19 44.5t-19 44.5t-45 18.5t-44.5 -18.5
t-18.5 -44.5t18.5 -44.5t44.5 -18.5zM1293 122q26 0 44.5 18.5t18.5 44.5t-18.5 44.5t-44.5 18.5q-27 0 -45 -18.5t-18 -44.5t18 -44.5t45 -18.5z" />
    <glyph glyph-name="uni261E" unicode="&#x261e;" horiz-adv-x="1467" 
d="M70 50v617h395l3 -30h165l3 -30q85 41 141 60q144 49 242 49q133 0 257 -28q67 -15 103 -34q48 -26 48 -58q0 -47 -48 -65q-27 -10 -70 -10q-30 0 -65 16q-36 -14 -69 -14q-15 0 -23 1q57 -56 57 -106q0 -46 -27 -69q-8 -6 -12 -8q5 -17 5 -29q0 -47 -26 -69
q-7 -6 -15 -9q7 -17 7 -36q0 -57 -60 -85q-36 -17 -88 -17q-46 0 -75 20q-26 18 -35 49q-60 -20 -124 -20q-58 0 -119 26q-1 -5 -1.5 -9.5t-1 -7.5t-1 -5t-0.5 -3v-2l-3 -28h-163l-5 -66h-395zM1068 142q42 19 42 56q0 45 -74 108q-32 27 -77 52v30q55 -22 96 -57
q44 -38 64 -69q25 6 25 50q0 48 -74 108q-31 26 -77 52v32l7 -3q6 -3 15.5 -8t21 -12t26 -16.5t27.5 -20.5q46 -39 67 -74q19 12 19 48q0 48 -73 108q-40 33 -77 52v31q38 -16 76 -43q20 -10 73 -10q8 0 17.5 1t17.5 3t14.5 4t10.5 3l4 1l6 4l7 -4l4 -2q3 -1 8.5 -3.5
t12.5 -5t15.5 -4t16.5 -1.5q86 0 86 44q0 8 -11.5 17.5t-41 21.5t-72.5 21q-114 25 -251 25q-93 0 -232 -47q-74 -25 -146 -61q9 -90 9 -196q0 -77 -7 -173q56 -27 116 -27q65 0 119 21v4q0 89 53 89q29 0 51.5 -25t31.5 -68h-29q-15 62 -54 62q-9 0 -13 -10q-8 -14 -8 -48
q0 -42 26 -59q18 -15 57 -15q43 0 75 14zM471 147h135q12 96 12 230q0 59 -3 116t-6 85l-3 27h-136q5 -117 5 -246q0 -116 -4 -212zM174 122q27 0 45 18.5t18 44.5t-18 44.5t-45 18.5q-26 0 -44.5 -18.5t-18.5 -44.5t18.5 -44.5t44.5 -18.5zM351 122q26 0 44.5 18.5
t18.5 44.5t-18.5 44.5t-44.5 18.5t-45 -18.5t-19 -44.5t19 -44.5t45 -18.5zM586 208q0 17 -12 28.5t-29 11.5t-29 -12t-12 -28q0 -17 12 -29.5t29 -12.5t29 12.5t12 29.5z" />
    <glyph glyph-name="uni27B8" unicode="&#x27b8;" horiz-adv-x="1254" 
d="M80 22q28 84 117.5 158t165.5 74v10q-76 0 -165.5 74t-117.5 158h417q59 -201 233 -204l278 -5q-57 31 -110.5 92t-68.5 116h182q16 -63 63.5 -117t135.5 -111v-16q-93 -64 -137.5 -115.5t-61.5 -112.5h-182q15 55 68.5 116t110.5 92l-281 -5q-86 -1 -144 -55.5
t-86 -148.5h-417z" />
    <glyph glyph-name="uni27D1" unicode="&#x27d1;" horiz-adv-x="193" 
d="M96 618q-41 0 -68.5 24.5t-27.5 59.5q0 36 27.5 61t68.5 25t69 -25t28 -61t-27.5 -60t-69.5 -24z" />
    <glyph glyph-name="uni30C4" unicode="&#x30c4;" horiz-adv-x="1060" 
d="M522 408l-176 349h163l155 -349h-142zM242 351l-176 349h163l155 -349h-142zM1005 641q8 -87 -1.5 -179t-53 -199t-117.5 -182q-112 -112 -260 -159t-276 -33l-18 127q74 -5 209 40.5t229 139.5q50 50 85 121t50 139t20 118t4 84z" />
    <glyph glyph-name="uniE000" unicode="&#xe000;" horiz-adv-x="1086" 
d="M543 857q206 0 352 -146t146 -352t-146 -352t-352 -146t-352 146t-146 352t146 352t352 146zM543 -88q121 0 224 60t163 163t60 224t-60 224t-163 163t-224 60t-224 -60t-163 -163t-60 -224t60 -224t163 -163t224 -60zM684 705v-242h121v-363h-80v-40h-363v40h-81v363
h121v242h282zM765 423h-121v242h-202v-242h-121v-283h41v202h40v-242h121v81h-40v40h40v242h-40v161h121v-161h-41v-242h41v-40h-41v-81h121v242h41v-202h40v283zM442 140v41h41v-41h-41zM644 140h-40v41h40v-41z" />
    <glyph glyph-name="uniE132" unicode="&#xe132;" horiz-adv-x="663" 
d="M87 586l137 183h144l-157 -183h-124zM734 769l-158 -183h-124l138 183h144zM259 515v-400h58v-115h-281v115h58v284h-58v116h223zM387 399v116h238v-592q0 -69 -34.5 -98t-108.5 -29q-56 0 -96 8v120q20 -2 30 -2q27 0 35.5 11t8.5 34v432h-73z" />
    <glyph glyph-name="uniE133" unicode="&#xe133;" horiz-adv-x="841" 
d="M129 823l137 183h144l-157 -183h-124zM556 823l137 183h144l-157 -183h-124zM50 0v121h76v508h-76v121h327v-121h-75v-508h75v-121h-327zM736 253q0 -132 -46.5 -202.5t-154.5 -70.5q-76 0 -101 15v126q12 -4 40 -4q42 0 64.5 28t22.5 81v403h-86v121h337v-121h-76v-376z
" />
    <glyph glyph-name="uniF6C3" unicode="&#xf6c3;" horiz-adv-x="0" 
d="M-77 -44q35 0 56 -22t21 -61q0 -44 -30 -90.5t-82 -78.5l-28 24q45 48 59 93q-34 4 -53 23t-19 45q0 28 21.5 47.5t54.5 19.5z" />
    <glyph glyph-name="uniF8FF" unicode="&#xf8ff;" horiz-adv-x="1266" 
d="M959 223q0 28 27 47.5t61 19.5q46 0 73 -27.5t27 -77.5q0 -69 -59.5 -111.5t-163.5 -42.5q-60 0 -116 13q-127 -168 -284 -168q-72 0 -118 38.5t-46 104.5q0 43 31.5 77t70.5 34q21 0 37 -13q8 -2 16.5 -11.5t8.5 -18.5v-11q-2 -18 -18 -33.5t-33 -15.5q-21 0 -32 14.5
t-11 34.5q0 13 7 23q-19 -4 -32.5 -28t-13.5 -55q0 -46 30.5 -76t84.5 -30q57 0 96 37t88 131q-60 24 -172.5 77.5t-165.5 73.5q-93 -126 -225 -126q-107 0 -107 76q0 43 58 84t178 41h23q39 83 71 184l2 3q-92 15 -130 58t-38 94q0 56 44.5 93t105.5 37q26 0 42.5 -14.5
t16.5 -37.5q0 -25 -17 -40.5t-34 -15.5q-20 0 -32.5 13t-12.5 32q0 27 17 42q-35 0 -70.5 -32.5t-35.5 -76.5q0 -100 152 -133q62 165 152.5 254.5t170.5 89.5q36 0 56.5 -26.5t20.5 -78.5q0 -90 -77 -163.5t-186 -94.5q-63 -143 -99 -201q148 -32 329 -134q20 58 50 113
q33 82 89 158q-79 25 -153 25t-117 -28t-43 -77q0 -31 26 -51t62 -20q45 0 70.5 26.5t17.5 62.5q-2 -10 -19 -23.5t-33 -13.5q-21 0 -33 13t-12 31q0 20 14.5 31t36.5 11q28 0 46.5 -16t18.5 -41q0 -49 -33.5 -75t-73.5 -26q-48 0 -81 27.5t-33 79.5q0 66 68 115.5t172 49.5
q82 0 165 -26q34 32 68.5 56t51.5 32l17 8l5 -12q-28 -19 -65 -98q11 -5 55 -5q67 0 111 24t44 70q0 63 -59.5 102.5t-148.5 39.5q-104 0 -145 -56h6q17 0 30 -11t13 -28q0 -27 -15.5 -41t-37.5 -14q-20 0 -32.5 13.5t-10.5 32.5q0 45 56 84t136 39q107 0 171 -47.5
t64 -121.5q0 -69 -61.5 -122t-164.5 -53q-32 0 -52 5q-2 -5 -34.5 -90.5t-52.5 -127.5q-4 -13 -38 -78q85 -35 139 -35q59 0 100.5 37t41.5 80q0 48 -32.5 71t-71.5 11q20 -10 27 -35q8 -21 -2 -37.5t-34 -20.5q-19 -7 -33.5 3.5t-18.5 32.5v13zM502 513q97 22 166.5 91
t69.5 157q0 38 -12.5 53.5t-27.5 15.5q-77 0 -196 -317zM259 259q-21 3 -59 3q-64 0 -112 -25t-48 -58q0 -53 70 -53q47 0 81.5 31t67.5 102z" />
    <glyph glyph-name="fi" unicode="&#xfb01;" horiz-adv-x="720" 
d="M94 634q0 131 162 131q43 0 90 -9v-112q-18 3 -30 3q-57 0 -57 -57v-75h64v-115h-64v-285h64v-115h-287v115h58v285h-58v115h58v119zM530 589q-51 0 -79 24.5t-28 62.5t28 63t79 25t79 -25t28 -63t-28 -62.5t-79 -24.5zM626 115h58v-115h-281v115h58v284h-58v116h223
v-400z" />
    <glyph glyph-name="fl" unicode="&#xfb02;" horiz-adv-x="720" 
d="M94 634q0 131 162 131q43 0 90 -9v-112q-18 3 -30 3q-57 0 -57 -57v-75h64v-115h-64v-285h64v-115h-287v115h58v285h-58v115h58v119zM626 115h58v-115h-281v115h58v519h-58v116h223v-635z" />
    <glyph glyph-name="uniFE35" unicode="&#xfe35;" horiz-adv-x="1013" 
d="M958 -141q-52 56 -179 114t-269 58q-143 0 -271 -58.5t-178 -113.5l-85 113q84 103 223.5 169.5t310.5 66.5q170 0 309 -66.5t224 -169.5z" />
    <glyph glyph-name="uniFF08" unicode="&#xff08;" horiz-adv-x="528" 
d="M483 753q-56 -52 -114 -179t-58 -269q0 -143 58.5 -271t113.5 -178l-113 -85q-103 84 -169.5 223.5t-66.5 310.5q0 170 66.5 309t169.5 224z" />
    <glyph glyph-name="uniFF09" unicode="&#xff09;" horiz-adv-x="528" 
d="M156 838q104 -85 170.5 -224t66.5 -309q0 -171 -66.5 -310.5t-170.5 -223.5l-112 85q55 50 113.5 178t58.5 271q0 142 -58.5 269t-113.5 179z" />
    <glyph glyph-name="a.alt" horiz-adv-x="646" 
d="M608 399h-59v-284h59v-116h-224v41q-48 -60 -135 -60q-91 0 -153.5 75t-62.5 203q0 127 62.5 202t153.5 75q89 0 135 -60v40h224v-116zM308 99q49 0 76 46v225q-26 45 -76 45q-47 0 -76 -42t-29 -115t29 -116t76 -43z" />
    <glyph glyph-name="agrave.alt" horiz-adv-x="646" 
d="M395 586h-124l-157 183h144zM608 399h-59v-284h59v-116h-224v41q-48 -60 -135 -60q-91 0 -153.5 75t-62.5 203q0 127 62.5 202t153.5 75q89 0 135 -60v40h224v-116zM308 99q49 0 76 46v225q-26 45 -76 45q-47 0 -76 -42t-29 -115t29 -116t76 -43z" />
    <glyph glyph-name="aacute.alt" horiz-adv-x="646" 
d="M479 769l-157 -183h-124l137 183h144zM608 399h-59v-284h59v-116h-224v41q-48 -60 -135 -60q-91 0 -153.5 75t-62.5 203q0 127 62.5 202t153.5 75q89 0 135 -60v40h224v-116zM308 99q49 0 76 46v225q-26 45 -76 45q-47 0 -76 -42t-29 -115t29 -116t76 -43z" />
    <glyph glyph-name="acircumflex.alt" horiz-adv-x="646" 
d="M317 671l-87 -92h-116l146 183h112l146 -183h-115zM608 399h-59v-284h59v-116h-224v41q-48 -60 -135 -60q-91 0 -153.5 75t-62.5 203q0 127 62.5 202t153.5 75q89 0 135 -60v40h224v-116zM308 99q49 0 76 46v225q-26 45 -76 45q-47 0 -76 -42t-29 -115t29 -116t76 -43z
" />
    <glyph glyph-name="atilde.alt" horiz-adv-x="646" 
d="M218 654q-48 0 -48 -43h-77q0 69 32 109.5t91 40.5q42 0 94.5 -18.5t72.5 -18.5q46 0 46 42h78q0 -69 -32 -109.5t-90 -40.5q-43 0 -95.5 19t-71.5 19zM608 399h-59v-284h59v-116h-224v41q-48 -60 -135 -60q-91 0 -153.5 75t-62.5 203q0 127 62.5 202t153.5 75
q89 0 135 -60v40h224v-116zM308 99q49 0 76 46v225q-26 45 -76 45q-47 0 -76 -42t-29 -115t29 -116t76 -43z" />
    <glyph glyph-name="adieresis.alt" horiz-adv-x="646" 
d="M212 620q-34 0 -57 20.5t-23 50.5t23 51t57 21t56.5 -21t22.5 -51t-22.5 -50.5t-56.5 -20.5zM424 620q-34 0 -56.5 20.5t-22.5 50.5t22.5 51t56.5 21t57 -21t23 -51t-23 -50.5t-57 -20.5zM608 399h-59v-284h59v-116h-224v41q-48 -60 -135 -60q-91 0 -153.5 75t-62.5 203
q0 127 62.5 202t153.5 75q89 0 135 -60v40h224v-116zM308 99q49 0 76 46v225q-26 45 -76 45q-47 0 -76 -42t-29 -115t29 -116t76 -43z" />
    <glyph glyph-name="aring.alt" horiz-adv-x="646" 
d="M317 557q-68 0 -114.5 46t-46.5 113q0 69 46 114t115 45t115 -45t46 -114q0 -67 -46.5 -113t-114.5 -46zM317 785q-31 0 -50.5 -19t-19.5 -50q0 -30 19.5 -49.5t50.5 -19.5t50.5 19.5t19.5 49.5q0 31 -19 50t-51 19zM608 399h-59v-284h59v-116h-224v41q-48 -60 -135 -60
q-91 0 -153.5 75t-62.5 203q0 127 62.5 202t153.5 75q89 0 135 -60v40h224v-116zM308 99q49 0 76 46v225q-26 45 -76 45q-47 0 -76 -42t-29 -115t29 -116t76 -43z" />
    <glyph glyph-name="amacron.alt" horiz-adv-x="646" 
d="M521 756v-119h-408v119h408zM608 399h-59v-284h59v-116h-224v41q-48 -60 -135 -60q-91 0 -153.5 75t-62.5 203q0 127 62.5 202t153.5 75q89 0 135 -60v40h224v-116zM308 99q49 0 76 46v225q-26 45 -76 45q-47 0 -76 -42t-29 -115t29 -116t76 -43z" />
    <glyph glyph-name="abreve.alt" horiz-adv-x="646" 
d="M316 585q-86 0 -128.5 49t-42.5 134h70q2 -52 31 -75t70 -23q42 0 72 23t31 75h71q0 -84 -43.5 -133.5t-130.5 -49.5zM608 399h-59v-284h59v-116h-224v41q-48 -60 -135 -60q-91 0 -153.5 75t-62.5 203q0 127 62.5 202t153.5 75q89 0 135 -60v40h224v-116zM308 99
q49 0 76 46v225q-26 45 -76 45q-47 0 -76 -42t-29 -115t29 -116t76 -43z" />
    <glyph glyph-name="aogonek.alt" horiz-adv-x="646" 
d="M608 399h-59v-284h59v-116h-22q-33 -4 -53.5 -25t-20.5 -44q0 -14 10.5 -25.5t29.5 -11.5q32 0 52 16v-74q-22 -17 -100 -17q-62 0 -95.5 26.5t-33.5 62.5q0 32 26.5 57t63.5 35h-81v41q-48 -60 -135 -60q-91 0 -153.5 75t-62.5 203q0 127 62.5 202t153.5 75
q89 0 135 -60v40h224v-116zM308 99q49 0 76 46v225q-26 45 -76 45q-47 0 -76 -42t-29 -115t29 -116t76 -43z" />
    <glyph glyph-name="f_i" horiz-adv-x="720" 
d="M94 634q0 131 162 131q43 0 90 -9v-112q-18 3 -30 3q-57 0 -57 -57v-75h64v-115h-64v-285h64v-115h-287v115h58v285h-58v115h58v119zM530 589q-51 0 -79 24.5t-28 62.5t28 63t79 25t79 -25t28 -63t-28 -62.5t-79 -24.5zM626 115h58v-115h-281v115h58v284h-58v116h223
v-400z" />
    <glyph glyph-name="f_l" horiz-adv-x="720" 
d="M94 634q0 131 162 131q43 0 90 -9v-112q-18 3 -30 3q-57 0 -57 -57v-75h64v-115h-64v-285h64v-115h-287v115h58v285h-58v115h58v119zM626 115h58v-115h-281v115h58v519h-58v116h223v-635z" />
    <glyph glyph-name="g.alt" horiz-adv-x="647" 
d="M393 515h218v-115h-53v-378q0 -110 -62 -169.5t-183 -59.5q-119 0 -179 46.5t-60 133.5v9h168v-18q0 -30 20 -48.5t56 -18.5t55.5 25t19.5 66v111q-43 -76 -147 -76q-93 0 -153 65.5t-60 190.5t59.5 190.5t153.5 65.5q103 0 147 -77v57zM308 142q33 0 56.5 20.5
t28.5 50.5v130q-5 30 -28.5 51t-56.5 21q-45 0 -72.5 -35.5t-27.5 -100.5t27.5 -101t72.5 -36z" />
    <glyph glyph-name="gcircumflex.alt" horiz-adv-x="647" 
d="M315 671l-87 -92h-116l146 183h112l146 -183h-115zM393 515h218v-115h-53v-378q0 -110 -62 -169.5t-183 -59.5q-119 0 -179 46.5t-60 133.5v9h168v-18q0 -30 20 -48.5t56 -18.5t55.5 25t19.5 66v111q-43 -76 -147 -76q-93 0 -153 65.5t-60 190.5t59.5 190.5t153.5 65.5
q103 0 147 -77v57zM308 142q33 0 56.5 20.5t28.5 50.5v130q-5 30 -28.5 51t-56.5 21q-45 0 -72.5 -35.5t-27.5 -100.5t27.5 -101t72.5 -36z" />
    <glyph glyph-name="gbreve.alt" horiz-adv-x="647" 
d="M313 585q-86 0 -128.5 49t-42.5 134h70q2 -52 31 -75t70 -23q42 0 72 23t31 75h71q0 -84 -43.5 -133.5t-130.5 -49.5zM393 515h218v-115h-53v-378q0 -110 -62 -169.5t-183 -59.5q-119 0 -179 46.5t-60 133.5v9h168v-18q0 -30 20 -48.5t56 -18.5t55.5 25t19.5 66v111
q-43 -76 -147 -76q-93 0 -153 65.5t-60 190.5t59.5 190.5t153.5 65.5q103 0 147 -77v57zM308 142q33 0 56.5 20.5t28.5 50.5v130q-5 30 -28.5 51t-56.5 21q-45 0 -72.5 -35.5t-27.5 -100.5t27.5 -101t72.5 -36z" />
    <glyph glyph-name="gdotaccent.alt" horiz-adv-x="647" 
d="M315 618q-41 0 -68.5 24.5t-27.5 59.5q0 36 27.5 61t68.5 25t69 -25t28 -61t-27.5 -60t-69.5 -24zM393 515h218v-115h-53v-378q0 -110 -62 -169.5t-183 -59.5q-119 0 -179 46.5t-60 133.5v9h168v-18q0 -30 20 -48.5t56 -18.5t55.5 25t19.5 66v111q-43 -76 -147 -76
q-93 0 -153 65.5t-60 190.5t59.5 190.5t153.5 65.5q103 0 147 -77v57zM308 142q33 0 56.5 20.5t28.5 50.5v130q-5 30 -28.5 51t-56.5 21q-45 0 -72.5 -35.5t-27.5 -100.5t27.5 -101t72.5 -36z" />
    <glyph glyph-name="gcommaaccent.alt" horiz-adv-x="646" 
d="M323 586q-35 0 -56 22t-21 61q0 44 30 90.5t82 78.5l28 -24q-45 -48 -59 -93q34 -4 53 -23t19 -45q0 -28 -21.5 -47.5t-54.5 -19.5zM393 515h218v-115h-53v-378q0 -110 -62 -169.5t-183 -59.5q-119 0 -179 46.5t-60 133.5v9h168v-18q0 -30 20 -48.5t56 -18.5t55.5 25
t19.5 66v111q-43 -76 -147 -76q-93 0 -153 65.5t-60 190.5t59.5 190.5t153.5 65.5q103 0 147 -77v57zM308 142q33 0 56.5 20.5t28.5 50.5v130q-5 30 -28.5 51t-56.5 21q-45 0 -72.5 -35.5t-27.5 -100.5t27.5 -101t72.5 -36z" />
    <glyph glyph-name="r.alt" horiz-adv-x="557" 
d="M395 535q67 0 99.5 -44t32.5 -120v-107h-153v88q0 70 -48 70q-34 0 -50.5 -25.5t-16.5 -62.5v-219h68v-115h-291v115h58v284h-58v116h223v-60q41 80 136 80z" />
    <glyph glyph-name="racute.alt" horiz-adv-x="557" 
d="M433 769l-157 -183h-124l137 183h144zM395 535q67 0 99.5 -44t32.5 -120v-107h-153v88q0 70 -48 70q-34 0 -50.5 -25.5t-16.5 -62.5v-219h68v-115h-291v115h58v284h-58v116h223v-60q41 80 136 80z" />
    <glyph glyph-name="rcaron.alt" horiz-adv-x="557" 
d="M313 580h-112l-143 182h116l84 -91l83 91h115zM395 535q67 0 99.5 -44t32.5 -120v-107h-153v88q0 70 -48 70q-34 0 -50.5 -25.5t-16.5 -62.5v-219h68v-115h-291v115h58v284h-58v116h223v-60q41 80 136 80z" />
    <glyph glyph-name="y.alt" horiz-adv-x="575" 
d="M540 515v-492q0 -110 -60 -169.5t-179 -59.5q-117 0 -176 46.5t-59 133.5v9h168v-17q0 -33 18.5 -51.5t53.5 -18.5q69 0 69 96v104q-44 -76 -152 -76q-76 0 -116.5 45t-40.5 109v226h-54v115h219v-299q0 -84 62 -84q36 0 59 26.5t23 62.5v179h-45v115h210z" />
    <glyph glyph-name="yacute.alt" horiz-adv-x="575" 
d="M447 769l-157 -183h-124l137 183h144zM540 515v-492q0 -110 -60 -169.5t-179 -59.5q-117 0 -176 46.5t-59 133.5v9h168v-17q0 -33 18.5 -51.5t53.5 -18.5q69 0 69 96v104q-44 -76 -152 -76q-76 0 -116.5 45t-40.5 109v226h-54v115h219v-299q0 -84 62 -84q36 0 59 26.5
t23 62.5v179h-45v115h210z" />
    <glyph glyph-name="ydieresis.alt" horiz-adv-x="575" 
d="M180 620q-34 0 -57 20.5t-23 50.5t23 51t57 21t56.5 -21t22.5 -51t-22.5 -50.5t-56.5 -20.5zM392 620q-34 0 -56.5 20.5t-22.5 50.5t22.5 51t56.5 21t57 -21t23 -51t-23 -50.5t-57 -20.5zM540 515v-492q0 -110 -60 -169.5t-179 -59.5q-117 0 -176 46.5t-59 133.5v9h168
v-17q0 -33 18.5 -51.5t53.5 -18.5q69 0 69 96v104q-44 -76 -152 -76q-76 0 -116.5 45t-40.5 109v226h-54v115h219v-299q0 -84 62 -84q36 0 59 26.5t23 62.5v179h-45v115h210z" />
    <glyph glyph-name="ycircumflex.alt" horiz-adv-x="575" 
d="M287 671l-87 -92h-116l146 183h112l146 -183h-115zM540 515v-492q0 -110 -60 -169.5t-179 -59.5q-117 0 -176 46.5t-59 133.5v9h168v-17q0 -33 18.5 -51.5t53.5 -18.5q69 0 69 96v104q-44 -76 -152 -76q-76 0 -116.5 45t-40.5 109v226h-54v115h219v-299q0 -84 62 -84
q36 0 59 26.5t23 62.5v179h-45v115h210z" />
    <glyph glyph-name="uni0233.alt" horiz-adv-x="575" 
d="M494 756v-119h-408v119h408zM540 515v-492q0 -110 -60 -169.5t-179 -59.5q-117 0 -176 46.5t-59 133.5v9h168v-17q0 -33 18.5 -51.5t53.5 -18.5q69 0 69 96v104q-44 -76 -152 -76q-76 0 -116.5 45t-40.5 109v226h-54v115h219v-299q0 -84 62 -84q36 0 59 26.5t23 62.5v179
h-45v115h210z" />
    <glyph glyph-name="ygrave.alt" horiz-adv-x="575" 
d="M362 586h-124l-157 183h144zM540 515v-492q0 -110 -60 -169.5t-179 -59.5q-117 0 -176 46.5t-59 133.5v9h168v-17q0 -33 18.5 -51.5t53.5 -18.5q69 0 69 96v104q-44 -76 -152 -76q-76 0 -116.5 45t-40.5 109v226h-54v115h219v-299q0 -84 62 -84q36 0 59 26.5t23 62.5v179
h-45v115h210z" />
    <glyph glyph-name="uni1EF9.alt" horiz-adv-x="575" 
d="M213 654q-48 0 -48 -43h-77q0 69 32 109.5t91 40.5q42 0 94.5 -18.5t72.5 -18.5q46 0 46 42h78q0 -69 -32 -109.5t-90 -40.5q-43 0 -95.5 19t-71.5 19zM540 515v-492q0 -110 -60 -169.5t-179 -59.5q-117 0 -176 46.5t-59 133.5v9h168v-17q0 -33 18.5 -51.5t53.5 -18.5
q69 0 69 96v104q-44 -76 -152 -76q-76 0 -116.5 45t-40.5 109v226h-54v115h219v-299q0 -84 62 -84q36 0 59 26.5t23 62.5v179h-45v115h210z" />
    <glyph glyph-name="A.sc" horiz-adv-x="676" 
d="M607 111h47v-111h-286v111h50l-20 73h-161l-19 -73h50v-111h-246v111h50l152 484h227zM258 261h119l-61 222z" />
    <glyph glyph-name="Agrave.sc" horiz-adv-x="676" 
d="M427 644h-140l-157 183h160zM607 111h47v-111h-286v111h50l-20 73h-161l-19 -73h50v-111h-246v111h50l152 484h227zM258 261h119l-61 222z" />
    <glyph glyph-name="Aacute.sc" horiz-adv-x="676" 
d="M511 827l-157 -183h-139l137 183h159zM607 111h47v-111h-286v111h50l-20 73h-161l-19 -73h50v-111h-246v111h50l152 484h227zM258 261h119l-61 222z" />
    <glyph glyph-name="Acircumflex.sc" horiz-adv-x="676" 
d="M341 748l-87 -92h-131l146 183h143l146 -183h-131zM607 111h47v-111h-286v111h50l-20 73h-161l-19 -73h50v-111h-246v111h50l152 484h227zM258 261h119l-61 222z" />
    <glyph glyph-name="Atilde.sc" horiz-adv-x="676" 
d="M244 722q-51 0 -51 -45h-84q0 76 34 119.5t97 43.5q47 0 102.5 -20t77.5 -20q49 0 49 45h85q0 -76 -34.5 -119.5t-96.5 -43.5q-46 0 -102 20t-77 20zM607 111h47v-111h-286v111h50l-20 73h-161l-19 -73h50v-111h-246v111h50l152 484h227zM258 261h119l-61 222z" />
    <glyph glyph-name="Adieresis.sc" horiz-adv-x="676" 
d="M216 683q-39 0 -66 24.5t-27 59.5q0 34 27 60t66 26q40 0 66.5 -25.5t26.5 -60.5t-26 -59.5t-67 -24.5zM464 683q-41 0 -67 24.5t-26 59.5t26.5 60.5t66.5 25.5q39 0 66 -26t27 -60q0 -35 -27 -59.5t-66 -24.5zM607 111h47v-111h-286v111h50l-20 73h-161l-19 -73h50v-111
h-246v111h50l152 484h227zM258 261h119l-61 222z" />
    <glyph glyph-name="Aring.sc" horiz-adv-x="676" 
d="M338 622q-69 0 -116.5 46.5t-47.5 115.5t47 115t117 46t117 -46t47 -115t-47.5 -115.5t-116.5 -46.5zM338 854q-32 0 -51.5 -19.5t-19.5 -50.5q0 -30 20 -50.5t51 -20.5t51 20.5t20 50.5q0 31 -19 50.5t-52 19.5zM607 111h47v-111h-286v111h50l-20 73h-161l-19 -73h50
v-111h-246v111h50l152 484h227zM258 261h119l-61 222z" />
    <glyph glyph-name="Amacron.sc" horiz-adv-x="676" 
d="M558 825v-127h-423v127h423zM607 111h47v-111h-286v111h50l-20 73h-161l-19 -73h50v-111h-246v111h50l152 484h227zM258 261h119l-61 222z" />
    <glyph glyph-name="Abreve.sc" horiz-adv-x="676" 
d="M337 635q-90 0 -138.5 51.5t-48.5 135.5h85q2 -52 31.5 -75.5t70.5 -23.5t71 23.5t31 75.5h86q0 -84 -49 -135.5t-139 -51.5zM607 111h47v-111h-286v111h50l-20 73h-161l-19 -73h50v-111h-246v111h50l152 484h227zM258 261h119l-61 222z" />
    <glyph glyph-name="Aogonek.sc" horiz-adv-x="676" 
d="M634 0q-41 0 -66.5 -22t-25.5 -46q0 -15 10.5 -26.5t30.5 -11.5q35 0 55 17v-78q-25 -18 -105 -18q-66 0 -100.5 27.5t-34.5 65.5q0 34 29.5 58.5t66.5 33.5h-126v111h50l-20 73h-161l-19 -73h50v-111h-246v111h50l152 484h227l156 -484h47v-111h-20zM258 261h119
l-61 222z" />
    <glyph glyph-name="AE.sc" horiz-adv-x="881" 
d="M837 371h-100v9q0 61 -15.5 81t-64.5 20h-83v-125h112v-98h-112v-145h83q48 0 64 22t16 82v31h100v-248h-500v113h62v71h-153l-34 -71h48v-113h-244v113h49l196 368h-74v113h650v-223zM283 261h116v220h-11z" />
    <glyph glyph-name="uni01E2.sc" horiz-adv-x="881" 
d="M686 825v-127h-423v127h423zM837 371h-100v9q0 61 -15.5 81t-64.5 20h-83v-125h112v-98h-112v-145h83q48 0 64 22t16 82v31h100v-248h-500v113h62v71h-153l-34 -71h48v-113h-244v113h49l196 368h-74v113h650v-223zM283 261h116v220h-11z" />
    <glyph glyph-name="AEacute.sc" horiz-adv-x="881" 
d="M639 827l-157 -183h-139l137 183h159zM837 371h-100v9q0 61 -15.5 81t-64.5 20h-83v-125h112v-98h-112v-145h83q48 0 64 22t16 82v31h100v-248h-500v113h62v71h-153l-34 -71h48v-113h-244v113h49l196 368h-74v113h650v-223zM283 261h116v220h-11z" />
    <glyph glyph-name="B.sc" horiz-adv-x="673" 
d="M362 594q119 0 180 -32.5t61 -112.5q0 -137 -184 -138v-4q107 0 161.5 -32.5t54.5 -106.5q0 -168 -250 -168h-330v111h60v372h-60v111h307zM290 483v-134h64q70 0 70 66q0 68 -70 68h-64zM362 111q74 0 74 74t-75 74h-71v-148h72z" />
    <glyph glyph-name="C.sc" horiz-adv-x="670" 
d="M452 242h169q-2 -125 -72.5 -191.5t-202.5 -66.5q-140 0 -220 87.5t-80 226.5q0 134 74.5 223t187.5 89q134 0 178 -95l11 79h116v-228h-167q-4 56 -31.5 89t-62.5 33q-48 0 -76 -48t-28 -141q0 -94 30 -143.5t78 -49.5q76 0 96 136z" />
    <glyph glyph-name="Ccedilla.sc" horiz-adv-x="670" 
d="M621 242q-1 -120 -67 -186.5t-188 -71.5l-50 -55q21 6 45 6q50 0 93 -25.5t43 -82.5q0 -61 -51 -89.5t-130 -28.5q-23 0 -48.5 6t-32.5 12v58q28 -8 55 -8q46 0 68 11t22 41q0 22 -16 35.5t-43 13.5q-22 0 -40 -7t-25 -14l-7 -7l-34 38l86 99q-120 14 -187.5 99.5
t-67.5 211.5q0 134 74.5 223t187.5 89q134 0 178 -95l11 79h116v-228h-167q-4 56 -31.5 89t-62.5 33q-48 0 -76 -48t-28 -141q0 -94 30 -143.5t78 -49.5q76 0 96 136h169z" />
    <glyph glyph-name="Cacute.sc" horiz-adv-x="670" 
d="M503 827l-157 -183h-139l137 183h159zM452 242h169q-2 -125 -72.5 -191.5t-202.5 -66.5q-140 0 -220 87.5t-80 226.5q0 134 74.5 223t187.5 89q134 0 178 -95l11 79h116v-228h-167q-4 56 -31.5 89t-62.5 33q-48 0 -76 -48t-28 -141q0 -94 30 -143.5t78 -49.5q76 0 96 136
z" />
    <glyph glyph-name="Cdotaccent.sc" horiz-adv-x="670" 
d="M335 683q-43 0 -72 25t-29 63t29 63.5t72 25.5t72 -25.5t29 -63.5t-29 -63t-72 -25zM452 242h169q-2 -125 -72.5 -191.5t-202.5 -66.5q-140 0 -220 87.5t-80 226.5q0 134 74.5 223t187.5 89q134 0 178 -95l11 79h116v-228h-167q-4 56 -31.5 89t-62.5 33q-48 0 -76 -48
t-28 -141q0 -94 30 -143.5t78 -49.5q76 0 96 136z" />
    <glyph glyph-name="Ccaron.sc" horiz-adv-x="670" 
d="M418 645h-143l-143 182h131l84 -91l83 91h131zM452 242h169q-2 -125 -72.5 -191.5t-202.5 -66.5q-140 0 -220 87.5t-80 226.5q0 134 74.5 223t187.5 89q134 0 178 -95l11 79h116v-228h-167q-4 56 -31.5 89t-62.5 33q-48 0 -76 -48t-28 -141q0 -94 30 -143.5t78 -49.5
q76 0 96 136z" />
    <glyph glyph-name="D.sc" horiz-adv-x="693" 
d="M363 594q140 0 212 -80t72 -215q0 -138 -72 -218.5t-212 -80.5h-308v111h59v372h-59v111h308zM289 483v-372h49q111 0 111 188q0 184 -111 184h-49z" />
    <glyph glyph-name="Dcaron.sc" horiz-adv-x="693" 
d="M421 645h-143l-143 182h131l84 -91l83 91h131zM363 594q140 0 212 -80t72 -215q0 -138 -72 -218.5t-212 -80.5h-308v111h59v372h-59v111h308zM338 111q111 0 111 188q0 184 -111 184h-49v-372h49z" />
    <glyph glyph-name="Dcroat.sc" horiz-adv-x="678" 
d="M354 594q139 0 210 -80t71 -215q0 -138 -71 -218.5t-210 -80.5h-307v113h59v128h-59v115h59v125h-59v113h307zM329 113q108 0 108 186q0 182 -108 182h-47v-125h62v-115h-62v-128h47z" />
    <glyph glyph-name="Eth.sc" horiz-adv-x="678" 
d="M354 594q139 0 210 -80t71 -215q0 -138 -71 -218.5t-210 -80.5h-307v113h59v128h-59v115h59v125h-59v113h307zM329 113q108 0 108 186q0 182 -108 182h-47v-125h62v-115h-62v-128h47z" />
    <glyph glyph-name="E.sc" horiz-adv-x="613" 
d="M558 372h-101v20q0 53 -15.5 72t-63.5 19h-85v-128h110v-96h-110v-148h85q47 0 63 22t16 82v31h101v-246h-503v111h63v372h-63v111h503v-222z" />
    <glyph glyph-name="Egrave.sc" horiz-adv-x="613" 
d="M394 644h-140l-157 183h160zM558 372h-101v20q0 53 -15.5 72t-63.5 19h-85v-128h110v-96h-110v-148h85q47 0 63 22t16 82v31h101v-246h-503v111h63v372h-63v111h503v-222z" />
    <glyph glyph-name="Eacute.sc" horiz-adv-x="613" 
d="M477 827l-157 -183h-139l137 183h159zM558 372h-101v20q0 53 -15.5 72t-63.5 19h-85v-128h110v-96h-110v-148h85q47 0 63 22t16 82v31h101v-246h-503v111h63v372h-63v111h503v-222z" />
    <glyph glyph-name="Ecircumflex.sc" horiz-adv-x="613" 
d="M324 748l-87 -92h-131l146 183h143l146 -183h-131zM558 372h-101v20q0 53 -15.5 72t-63.5 19h-85v-128h110v-96h-110v-148h85q47 0 63 22t16 82v31h101v-246h-503v111h63v372h-63v111h503v-222z" />
    <glyph glyph-name="Edieresis.sc" horiz-adv-x="613" 
d="M185 683q-39 0 -66 24.5t-27 59.5q0 34 27 60t66 26q40 0 66.5 -25.5t26.5 -60.5t-26 -59.5t-67 -24.5zM433 683q-41 0 -67 24.5t-26 59.5t26.5 60.5t66.5 25.5q39 0 66 -26t27 -60q0 -35 -27 -59.5t-66 -24.5zM558 372h-101v20q0 53 -15.5 72t-63.5 19h-85v-128h110v-96
h-110v-148h85q47 0 63 22t16 82v31h101v-246h-503v111h63v372h-63v111h503v-222z" />
    <glyph glyph-name="Emacron.sc" horiz-adv-x="613" 
d="M524 825v-127h-423v127h423zM558 372h-101v20q0 53 -15.5 72t-63.5 19h-85v-128h110v-96h-110v-148h85q47 0 63 22t16 82v31h101v-246h-503v111h63v372h-63v111h503v-222z" />
    <glyph glyph-name="Ebreve.sc" horiz-adv-x="613" 
d="M327 635q-90 0 -138.5 51.5t-48.5 135.5h85q2 -52 31.5 -75.5t70.5 -23.5t71 23.5t31 75.5h86q0 -84 -49 -135.5t-139 -51.5zM558 372h-101v20q0 53 -15.5 72t-63.5 19h-85v-128h110v-96h-110v-148h85q47 0 63 22t16 82v31h101v-246h-503v111h63v372h-63v111h503v-222z
" />
    <glyph glyph-name="Edotaccent.sc" horiz-adv-x="613" 
d="M315 683q-43 0 -72 25t-29 63t29 63.5t72 25.5t72 -25.5t29 -63.5t-29 -63t-72 -25zM558 372h-101v20q0 53 -15.5 72t-63.5 19h-85v-128h110v-96h-110v-148h85q47 0 63 22t16 82v31h101v-246h-503v111h63v372h-63v111h503v-222z" />
    <glyph glyph-name="Eogonek.sc" horiz-adv-x="613" 
d="M558 372h-101v20q0 53 -15.5 72t-63.5 19h-85v-128h110v-96h-110v-148h85q47 0 63 22t16 82v31h101v-246h-11q-41 0 -66.5 -22t-25.5 -46q0 -15 11 -26.5t31 -11.5q34 0 54 17v-78q-25 -18 -105 -18q-66 0 -100 27.5t-34 65.5q0 34 29.5 58.5t66.5 33.5h-353v111h63v372
h-63v111h503v-222z" />
    <glyph glyph-name="Ecaron.sc" horiz-adv-x="613" 
d="M398 645h-143l-143 182h131l84 -91l83 91h131zM558 372h-101v20q0 53 -15.5 72t-63.5 19h-85v-128h110v-96h-110v-148h85q47 0 63 22t16 82v31h101v-246h-503v111h63v372h-63v111h503v-222z" />
    <glyph glyph-name="uni1EBC.sc" horiz-adv-x="613" 
d="M230 722q-51 0 -51 -45h-84q0 76 34 119.5t97 43.5q47 0 102.5 -20t77.5 -20q49 0 49 45h85q0 -76 -34.5 -119.5t-96.5 -43.5q-46 0 -102 20t-77 20zM558 372h-101v20q0 53 -15.5 72t-63.5 19h-85v-128h110v-96h-110v-148h85q47 0 63 22t16 82v31h101v-246h-503v111h63
v372h-63v111h503v-222z" />
    <glyph glyph-name="uni018F.sc" horiz-adv-x="668" 
d="M327 610q137 0 217.5 -87t80.5 -225q0 -139 -80.5 -226.5t-217.5 -87.5q-136 0 -207.5 79.5t-71.5 219.5v48h378q-8 153 -96 153q-31 0 -54 -23.5t-32 -67.5h-196q21 103 94 160t185 57zM332 111q79 0 92 127h-182q10 -127 90 -127z" />
    <glyph glyph-name="F.sc" horiz-adv-x="589" 
d="M55 594h488v-217h-102v21q0 46 -16 65.5t-63 19.5h-68v-148h111v-97h-111v-127h94v-111h-333v111h63v372h-63v111z" />
    <glyph glyph-name="G.sc" horiz-adv-x="698" 
d="M379 301h292v-91h-41v-210h-109l-19 98q-49 -114 -180 -114t-203.5 85t-72.5 230q0 142 74.5 226.5t198.5 84.5q130 0 177 -101l12 85h116v-214h-175q-4 51 -29.5 79.5t-63.5 28.5q-50 0 -81 -49.5t-31 -139.5q0 -91 32.5 -142t87.5 -51q42 0 69.5 28.5t31.5 75.5h-86v91
z" />
    <glyph glyph-name="Gcircumflex.sc" horiz-adv-x="698" 
d="M368 748l-87 -92h-131l146 183h143l146 -183h-131zM379 301h292v-91h-41v-210h-109l-19 98q-49 -114 -180 -114t-203.5 85t-72.5 230q0 142 74.5 226.5t198.5 84.5q130 0 177 -101l12 85h116v-214h-175q-4 51 -29.5 79.5t-63.5 28.5q-50 0 -81 -49.5t-31 -139.5
q0 -91 32.5 -142t87.5 -51q42 0 69.5 28.5t31.5 75.5h-86v91z" />
    <glyph glyph-name="Gbreve.sc" horiz-adv-x="698" 
d="M361 635q-90 0 -138.5 51.5t-48.5 135.5h85q2 -52 31.5 -75.5t70.5 -23.5t71 23.5t31 75.5h86q0 -84 -49 -135.5t-139 -51.5zM379 301h292v-91h-41v-210h-109l-19 98q-49 -114 -180 -114t-203.5 85t-72.5 230q0 142 74.5 226.5t198.5 84.5q130 0 177 -101l12 85h116v-214
h-175q-4 51 -29.5 79.5t-63.5 28.5q-50 0 -81 -49.5t-31 -139.5q0 -91 32.5 -142t87.5 -51q42 0 69.5 28.5t31.5 75.5h-86v91z" />
    <glyph glyph-name="Gdotaccent.sc" horiz-adv-x="698" 
d="M358 683q-43 0 -72 25t-29 63t29 63.5t72 25.5t72 -25.5t29 -63.5t-29 -63t-72 -25zM379 301h292v-91h-41v-210h-109l-19 98q-49 -114 -180 -114t-203.5 85t-72.5 230q0 142 74.5 226.5t198.5 84.5q130 0 177 -101l12 85h116v-214h-175q-4 51 -29.5 79.5t-63.5 28.5
q-50 0 -81 -49.5t-31 -139.5q0 -91 32.5 -142t87.5 -51q42 0 69.5 28.5t31.5 75.5h-86v91z" />
    <glyph glyph-name="Gcommaaccent.sc" horiz-adv-x="698" 
d="M379 301h292v-91h-41v-210h-109l-19 98q-49 -114 -180 -114t-203.5 85t-72.5 230q0 142 74.5 226.5t198.5 84.5q130 0 177 -101l12 85h116v-214h-175q-4 51 -29.5 79.5t-63.5 28.5q-50 0 -81 -49.5t-31 -139.5q0 -91 32.5 -142t87.5 -51q42 0 69.5 28.5t31.5 75.5h-86v91
z" />
    <glyph glyph-name="H.sc" horiz-adv-x="753" 
d="M698 483h-59v-372h59v-111h-277v111h43v149h-175v-149h43v-111h-277v111h59v372h-59v111h277v-111h-43v-131h175v131h-43v111h277v-111z" />
    <glyph glyph-name="Hcircumflex.sc" horiz-adv-x="753" 
d="M379 748l-87 -92h-131l146 183h143l146 -183h-131zM698 483h-59v-372h59v-111h-277v111h43v149h-175v-149h43v-111h-277v111h59v372h-59v111h277v-111h-43v-131h175v131h-43v111h277v-111z" />
    <glyph glyph-name="Hbar.sc" horiz-adv-x="730" 
d="M685 481h-60v-43h41v-69h-41v-256h60v-113h-276v113h41v128h-170v-128h41v-113h-275v113h59v256h-40v69h40v43h-59v113h275v-113h-41v-43h170v43h-41v113h276v-113zM450 334v35h-170v-35h170z" />
    <glyph glyph-name="I.sc" horiz-adv-x="411" 
d="M55 0v111h63v372h-63v111h301v-111h-63v-372h63v-111h-301z" />
    <glyph glyph-name="Igrave.sc" horiz-adv-x="411" 
d="M155 644l-157 183h160l137 -183h-140zM55 0v111h63v372h-63v111h301v-111h-63v-372h63v-111h-301z" />
    <glyph glyph-name="Iacute.sc" horiz-adv-x="411" 
d="M82 644l137 183h159l-157 -183h-139zM55 0v111h63v372h-63v111h301v-111h-63v-372h63v-111h-301z" />
    <glyph glyph-name="Icircumflex.sc" horiz-adv-x="411" 
d="M210 748l-87 -92h-131l146 183h143l146 -183h-131zM55 483v111h301v-111h-63v-372h63v-111h-301v111h63v372h-63z" />
    <glyph glyph-name="Idieresis.sc" horiz-adv-x="411" 
d="M82 683q-39 0 -66 24.5t-27 59.5q0 34 27 60t66 26q40 0 66.5 -25.5t26.5 -60.5t-26 -59.5t-67 -24.5zM330 683q-41 0 -67 24.5t-26 59.5t26.5 60.5t66.5 25.5q39 0 66 -26t27 -60q0 -35 -27 -59.5t-66 -24.5zM55 0v111h63v372h-63v111h301v-111h-63v-372h63v-111h-301z
" />
    <glyph glyph-name="Itilde.sc" horiz-adv-x="411" 
d="M111 840q47 0 102.5 -20t77.5 -20q49 0 49 45h85q0 -76 -34.5 -119.5t-96.5 -43.5q-46 0 -102 20t-77 20q-51 0 -51 -45h-84q0 76 34 119.5t97 43.5zM55 0v111h63v372h-63v111h301v-111h-63v-372h63v-111h-301z" />
    <glyph glyph-name="Imacron.sc" horiz-adv-x="411" 
d="M2 825h423v-127h-423v127zM55 0v111h63v372h-63v111h301v-111h-63v-372h63v-111h-301z" />
    <glyph glyph-name="Ibreve.sc" horiz-adv-x="411" 
d="M205 723q41 0 71 23.5t31 75.5h86q0 -84 -49 -135.5t-139 -51.5t-138.5 51.5t-48.5 135.5h85q2 -52 31.5 -75.5t70.5 -23.5zM55 0v111h63v372h-63v111h301v-111h-63v-372h63v-111h-301z" />
    <glyph glyph-name="Iogonek.sc" horiz-adv-x="411" 
d="M356 483h-63v-372h63v-111h-19q-41 0 -66.5 -22t-25.5 -46q0 -15 10.5 -26.5t30.5 -11.5q35 0 55 17v-78q-25 -18 -105 -18q-66 0 -100.5 27.5t-34.5 65.5q0 34 29.5 58.5t66.5 33.5h-142v111h63v372h-63v111h301v-111z" />
    <glyph glyph-name="Idotaccent.sc" horiz-adv-x="411" 
d="M209 683q-43 0 -72 25t-29 63t29 63.5t72 25.5t72 -25.5t29 -63.5t-29 -63t-72 -25zM55 0v111h63v372h-63v111h301v-111h-63v-372h63v-111h-301z" />
    <glyph glyph-name="IJ.sc" horiz-adv-x="748" 
d="M46 0v113h63v368h-63v113h301v-113h-63v-368h63v-113h-301zM659 205q0 -105 -39 -163t-133 -58q-74 0 -94 14v116q9 -3 32 -3q59 0 59 71v299h-73v113h312v-113h-64v-276z" />
    <glyph glyph-name="uniE133.sc" horiz-adv-x="743" 
d="M90 696l158 197h148l-176 -197h-130zM464 696l157 197h149l-176 -197h-130zM43 0v113h63v368h-63v113h301v-113h-62v-368h62v-113h-301zM657 205q0 -105 -39 -163t-133 -58q-73 0 -95 14v116q12 -3 33 -3q59 0 59 71v299h-73v113h311v-113h-63v-276z" />
    <glyph glyph-name="J.sc" horiz-adv-x="550" 
d="M467 205q0 -106 -53 -163.5t-183 -57.5q-67 0 -111 14.5t-67.5 45.5t-32 69t-8.5 95v48h167v-74q0 -73 51 -73q30 0 46 19t16 54v301h-74v111h313v-111h-64v-278z" />
    <glyph glyph-name="Jcircumflex.sc" horiz-adv-x="559" 
d="M356 748l-87 -92h-131l146 183h143l146 -183h-131zM218 483v111h313v-111h-64v-278q0 -106 -53 -163.5t-183 -57.5q-67 0 -111 14.5t-67.5 45.5t-32 69t-8.5 95v48h167v-74q0 -73 51 -73q30 0 46 19t16 54v301h-74z" />
    <glyph glyph-name="K.sc" horiz-adv-x="733" 
d="M650 111h50v-111h-297v111h46l-94 148l-62 -54v-94h37v-111h-275v111h63v372h-63v111h279v-111h-41v-154l172 154h-62v111h282v-111h-72l-133 -116z" />
    <glyph glyph-name="Kcommaaccent.sc" horiz-adv-x="733" 
d="M650 111h50v-111h-297v111h46l-94 148l-62 -54v-94h37v-111h-275v111h63v372h-63v111h279v-111h-41v-154l172 154h-62v111h282v-111h-72l-133 -116z" />
    <glyph glyph-name="L.sc" horiz-adv-x="567" 
d="M293 483v-372h50q50 0 67.5 24t17.5 88v34h100v-257h-473v111h63v372h-63v111h314v-111h-76z" />
    <glyph glyph-name="Lacute.sc" horiz-adv-x="567" 
d="M134 644l137 183h159l-157 -183h-139zM293 483v-372h50q50 0 67.5 24t17.5 88v34h100v-257h-473v111h63v372h-63v111h314v-111h-76z" />
    <glyph glyph-name="Lcaron.sc" horiz-adv-x="567" 
d="M274 645h-143l-143 182h131l84 -91l83 91h131zM428 257h100v-257h-473v111h63v372h-63v111h314v-111h-76v-372h50q50 0 67.5 24t17.5 88v34z" />
    <glyph glyph-name="Ldot.sc" horiz-adv-x="567" 
d="M293 483v-372h59q45 0 60.5 24t15.5 88v14h100v-237h-473v111h63v372h-63v111h314v-111h-76zM437 298q-28 0 -47.5 17t-19.5 42t19.5 42t47.5 17t47.5 -17t19.5 -42t-19.5 -42t-47.5 -17z" />
    <glyph glyph-name="Lslash.sc" horiz-adv-x="534" 
d="M415 258h100v-258h-470v113h63v119l-63 -24v80l63 24v169h-63v113h307v-113h-69v-104l101 38v-80l-101 -38v-184h48q49 0 66.5 23.5t17.5 87.5v34z" />
    <glyph glyph-name="Lcommaaccent.sc" horiz-adv-x="567" 
d="M293 483v-372h50q50 0 67.5 24t17.5 88v34h100v-257h-473v111h63v372h-63v111h314v-111h-76z" />
    <glyph glyph-name="M.sc" horiz-adv-x="950" 
d="M894 483h-63v-372h63v-111h-279v111h41v303l-176 -420h-60l-166 394v-277h41v-111h-241v111h63v372h-63v111h281l146 -363l151 363h262v-111z" />
    <glyph glyph-name="N.sc" horiz-adv-x="729" 
d="M441 594h240v-111h-56v-483h-131l-251 333v-222h56v-111h-245v111h63v372h-63v111h192l247 -335v224h-52v111z" />
    <glyph glyph-name="Ntilde.sc" horiz-adv-x="729" 
d="M277 722q-51 0 -51 -45h-84q0 76 34 119.5t97 43.5q47 0 102.5 -20t77.5 -20q49 0 49 45h85q0 -76 -34.5 -119.5t-96.5 -43.5q-46 0 -102 20t-77 20zM441 594h240v-111h-56v-483h-131l-251 333v-222h56v-111h-245v111h63v372h-63v111h192l247 -335v224h-52v111z" />
    <glyph glyph-name="Nacute.sc" horiz-adv-x="729" 
d="M544 827l-157 -183h-139l137 183h159zM441 594h240v-111h-56v-483h-131l-251 333v-222h56v-111h-245v111h63v372h-63v111h192l247 -335v224h-52v111z" />
    <glyph glyph-name="Ncaron.sc" horiz-adv-x="729" 
d="M440 645h-143l-143 182h131l84 -91l83 91h131zM441 594h240v-111h-56v-483h-131l-251 333v-222h56v-111h-245v111h63v372h-63v111h192l247 -335v224h-52v111z" />
    <glyph glyph-name="Eng.sc" horiz-adv-x="675" 
d="M407 594h238v-113h-55v-529q0 -66 -19.5 -89t-85.5 -23q-60 0 -94 7v112q18 -2 26 -2q25 0 33 9t8 29v5l-248 333v-220h57v-113h-243v113h62v368h-62v113h191l243 -332v219h-51v113z" />
    <glyph glyph-name="Ncommaaccent.sc" horiz-adv-x="729" 
d="M441 594h240v-111h-56v-483h-131l-251 333v-222h56v-111h-245v111h63v372h-63v111h192l247 -335v224h-52v111z" />
    <glyph glyph-name="uni1E44.sc" horiz-adv-x="729" 
d="M367 638q-41 0 -68.5 24.5t-27.5 59.5q0 36 27.5 61t68.5 25t69 -25t28 -61t-27.5 -60t-69.5 -24zM441 594h240v-111h-56v-483h-131l-251 333v-222h56v-111h-245v111h63v372h-63v111h192l247 -335v224h-52v111z" />
    <glyph glyph-name="O.sc" horiz-adv-x="699" 
d="M350 610q140 0 221 -88.5t81 -222.5q0 -137 -80.5 -226t-221.5 -89q-143 0 -223.5 88.5t-80.5 226.5q0 135 81 223t223 88zM350 106q47 0 75.5 49t28.5 144q0 94 -28.5 141.5t-75.5 47.5q-49 0 -77.5 -47t-28.5 -142t28.5 -144t77.5 -49z" />
    <glyph glyph-name="Ograve.sc" horiz-adv-x="699" 
d="M298 644l-157 183h160l137 -183h-140zM350 610q140 0 221 -88.5t81 -222.5q0 -137 -80.5 -226t-221.5 -89q-143 0 -223.5 88.5t-80.5 226.5q0 135 81 223t223 88zM350 106q47 0 75.5 49t28.5 144q0 94 -28.5 141.5t-75.5 47.5q-49 0 -77.5 -47t-28.5 -142t28.5 -144
t77.5 -49z" />
    <glyph glyph-name="Oacute.sc" horiz-adv-x="699" 
d="M226 644l137 183h159l-157 -183h-139zM350 610q140 0 221 -88.5t81 -222.5q0 -137 -80.5 -226t-221.5 -89q-143 0 -223.5 88.5t-80.5 226.5q0 135 81 223t223 88zM350 106q47 0 75.5 49t28.5 144q0 94 -28.5 141.5t-75.5 47.5q-49 0 -77.5 -47t-28.5 -142t28.5 -144
t77.5 -49z" />
    <glyph glyph-name="Ocircumflex.sc" horiz-adv-x="699" 
d="M364 748l-87 -92h-131l146 183h143l146 -183h-131zM350 610q140 0 221 -88.5t81 -222.5q0 -137 -80.5 -226t-221.5 -89q-143 0 -223.5 88.5t-80.5 226.5q0 135 81 223t223 88zM350 106q47 0 75.5 49t28.5 144q0 94 -28.5 141.5t-75.5 47.5q-49 0 -77.5 -47t-28.5 -142
t28.5 -144t77.5 -49z" />
    <glyph glyph-name="Otilde.sc" horiz-adv-x="699" 
d="M260 850q47 0 102.5 -20t77.5 -20q49 0 49 45h85q0 -76 -34.5 -119.5t-96.5 -43.5q-46 0 -102 20t-77 20q-51 0 -51 -45h-84q0 76 34 119.5t97 43.5zM350 610q140 0 221 -88.5t81 -222.5q0 -137 -80.5 -226t-221.5 -89q-143 0 -223.5 88.5t-80.5 226.5q0 135 81 223
t223 88zM350 106q47 0 75.5 49t28.5 144q0 94 -28.5 141.5t-75.5 47.5q-49 0 -77.5 -47t-28.5 -142t28.5 -144t77.5 -49z" />
    <glyph glyph-name="Odieresis.sc" horiz-adv-x="699" 
d="M227 683q-39 0 -66 24.5t-27 59.5q0 34 27 60t66 26q40 0 66.5 -25.5t26.5 -60.5t-26 -59.5t-67 -24.5zM475 683q-41 0 -67 24.5t-26 59.5t26.5 60.5t66.5 25.5q39 0 66 -26t27 -60q0 -35 -27 -59.5t-66 -24.5zM350 610q140 0 221 -88.5t81 -222.5q0 -137 -80.5 -226
t-221.5 -89q-143 0 -223.5 88.5t-80.5 226.5q0 135 81 223t223 88zM350 106q47 0 75.5 49t28.5 144q0 94 -28.5 141.5t-75.5 47.5q-49 0 -77.5 -47t-28.5 -142t28.5 -144t77.5 -49z" />
    <glyph glyph-name="Omacron.sc" horiz-adv-x="699" 
d="M146 825h423v-127h-423v127zM350 610q140 0 221 -88.5t81 -222.5q0 -137 -80.5 -226t-221.5 -89q-143 0 -223.5 88.5t-80.5 226.5q0 135 81 223t223 88zM350 106q47 0 75.5 49t28.5 144q0 94 -28.5 141.5t-75.5 47.5q-49 0 -77.5 -47t-28.5 -142t28.5 -144t77.5 -49z" />
    <glyph glyph-name="Obreve.sc" horiz-adv-x="699" 
d="M350 723q41 0 71 23.5t31 75.5h86q0 -84 -49 -135.5t-139 -51.5t-138.5 51.5t-48.5 135.5h85q2 -52 31.5 -75.5t70.5 -23.5zM350 610q140 0 221 -88.5t81 -222.5q0 -137 -80.5 -226t-221.5 -89q-143 0 -223.5 88.5t-80.5 226.5q0 135 81 223t223 88zM350 106
q47 0 75.5 49t28.5 144q0 94 -28.5 141.5t-75.5 47.5q-49 0 -77.5 -47t-28.5 -142t28.5 -144t77.5 -49z" />
    <glyph glyph-name="Ohungarumlaut.sc" horiz-adv-x="699" 
d="M162 651l137 183h159l-157 -183h-139zM375 651l154 183h159l-174 -183h-139zM350 610q140 0 221 -88.5t81 -222.5q0 -137 -80.5 -226t-221.5 -89q-143 0 -223.5 88.5t-80.5 226.5q0 135 81 223t223 88zM350 106q47 0 75.5 49t28.5 144q0 94 -28.5 141.5t-75.5 47.5
q-49 0 -77.5 -47t-28.5 -142t28.5 -144t77.5 -49z" />
    <glyph glyph-name="Oslash.sc" horiz-adv-x="704" 
d="M678 628l-95 -118q70 -85 70 -211q0 -137 -81 -226t-220 -89q-92 0 -160 40l-47 -58h-119l95 118q-70 85 -70 215q0 135 80 223t221 88q90 0 160 -40l47 58h119zM250 299q0 -28 3 -52l164 205q-27 31 -65 31q-47 0 -74.5 -45t-27.5 -139zM455 299q0 19 -2 49l-166 -205
q25 -32 65 -32q46 0 74.5 47t28.5 141z" />
    <glyph glyph-name="Oslashacute.sc" horiz-adv-x="704" 
d="M524 827l-157 -183h-139l137 183h159zM678 628l-95 -118q70 -85 70 -211q0 -137 -81 -226t-220 -89q-92 0 -160 40l-47 -58h-119l95 118q-70 85 -70 215q0 135 80 223t221 88q90 0 160 -40l47 58h119zM250 299q0 -28 3 -52l164 205q-27 31 -65 31q-47 0 -74.5 -45
t-27.5 -139zM455 299q0 19 -2 49l-166 -205q25 -32 65 -32q46 0 74.5 47t28.5 141z" />
    <glyph glyph-name="OE.sc" horiz-adv-x="871" 
d="M826 371h-101v9q0 61 -15.5 81t-63.5 20h-82v-125h111v-98h-111v-145h82q48 0 63.5 22t15.5 82v31h101v-248h-481q-142 0 -222 83t-80 216q0 131 80 213t222 82h481v-223zM389 113v368h-45q-102 0 -102 -182q0 -94 27.5 -140t74.5 -46h45z" />
    <glyph glyph-name="P.sc" horiz-adv-x="653" 
d="M382 0h-327v111h63v372h-63v111h328q244 0 244 -181q0 -99 -68.5 -147t-184.5 -48h-80v-107h88v-111zM294 314h54q39 0 60 22t21 62q0 85 -81 85h-54v-169z" />
    <glyph glyph-name="Q.sc" horiz-adv-x="690" 
d="M522 34q6 -25 26 -33.5t60 -8.5q9 0 21 1v-118q-33 -7 -74 -7q-143 0 -163 119q-22 -3 -47 -3q-142 0 -220.5 88.5t-78.5 226.5q0 135 79 223t220 88t221 -88t80 -223q0 -85 -32 -154t-92 -111zM244 299q0 -96 26.5 -144.5t74.5 -48.5q47 0 75 49t28 144t-27.5 142
t-75.5 47q-101 0 -101 -189z" />
    <glyph glyph-name="R.sc" horiz-adv-x="701" 
d="M650 111h14v-111h-150q-46 0 -68 23.5t-22 76.5v90q0 48 -48 48h-83v-127h45v-111h-283v111h63v372h-63v111h346q125 0 178.5 -38.5t53.5 -113.5q0 -63 -38 -102.5t-107 -46.5q63 -4 90.5 -31.5t27.5 -62.5v-47q0 -23 10.5 -32t33.5 -9zM363 335q34 0 54.5 20t20.5 56
q0 72 -74 72h-71v-148h70z" />
    <glyph glyph-name="Racute.sc" horiz-adv-x="701" 
d="M527 827l-157 -183h-139l137 183h159zM650 111h14v-111h-150q-46 0 -68 23.5t-22 76.5v90q0 48 -48 48h-83v-127h45v-111h-283v111h63v372h-63v111h346q125 0 178.5 -38.5t53.5 -113.5q0 -63 -38 -102.5t-107 -46.5q63 -4 90.5 -31.5t27.5 -62.5v-47q0 -23 10.5 -32
t33.5 -9zM363 335q34 0 54.5 20t20.5 56q0 72 -74 72h-71v-148h70z" />
    <glyph glyph-name="Rcaron.sc" horiz-adv-x="701" 
d="M422 645h-143l-143 182h131l84 -91l83 91h131zM650 111h14v-111h-150q-46 0 -68 23.5t-22 76.5v90q0 48 -48 48h-83v-127h45v-111h-283v111h63v372h-63v111h346q125 0 178.5 -38.5t53.5 -113.5q0 -63 -38 -102.5t-107 -46.5q63 -4 90.5 -31.5t27.5 -62.5v-47
q0 -23 10.5 -32t33.5 -9zM363 335q34 0 54.5 20t20.5 56q0 72 -74 72h-71v-148h70z" />
    <glyph glyph-name="Rcommaaccent.sc" horiz-adv-x="701" 
d="M650 111h14v-111h-150q-46 0 -68 23.5t-22 76.5v90q0 48 -48 48h-83v-127h45v-111h-283v111h63v372h-63v111h346q125 0 178.5 -38.5t53.5 -113.5q0 -63 -38 -102.5t-107 -46.5q63 -4 90.5 -31.5t27.5 -62.5v-47q0 -23 10.5 -32t33.5 -9zM363 335q34 0 54.5 20t20.5 56
q0 72 -74 72h-71v-148h70z" />
    <glyph glyph-name="S.sc" horiz-adv-x="606" 
d="M345 371q99 -37 131 -57q86 -53 86 -145q0 -86 -59 -135.5t-161 -49.5q-62 0 -108 19.5t-67 52.5l-13 -56h-92v194h126q19 -94 112 -94q29 0 50 14t21 41q0 20 -16.5 36t-34 23t-57.5 22q-37 14 -56 22t-51 26.5t-48.5 37.5t-30 50.5t-13.5 69.5q0 83 62 125.5t148 42.5
q55 0 95.5 -19t59.5 -43l11 46h94v-181h-128q-6 39 -32.5 64t-61.5 25q-28 0 -45 -14.5t-17 -37.5q0 -26 23.5 -43t71.5 -36z" />
    <glyph glyph-name="Sacute.sc" horiz-adv-x="597" 
d="M483 827l-157 -183h-139l137 183h159zM345 371q99 -37 131 -57q86 -53 86 -145q0 -86 -59 -135.5t-161 -49.5q-62 0 -108 19.5t-67 52.5l-13 -56h-92v194h126q19 -94 112 -94q29 0 50 14t21 41q0 20 -16.5 36t-34 23t-57.5 22q-37 14 -56 22t-51 26.5t-48.5 37.5
t-30 50.5t-13.5 69.5q0 83 62 125.5t148 42.5q55 0 95.5 -19t59.5 -43l11 46h94v-181h-128q-6 39 -32.5 64t-61.5 25q-28 0 -45 -14.5t-17 -37.5q0 -26 23.5 -43t71.5 -36z" />
    <glyph glyph-name="Scircumflex.sc" horiz-adv-x="597" 
d="M325 748l-87 -92h-131l146 183h143l146 -183h-131zM345 371q99 -37 131 -57q86 -53 86 -145q0 -86 -59 -135.5t-161 -49.5q-62 0 -108 19.5t-67 52.5l-13 -56h-92v194h126q19 -94 112 -94q29 0 50 14t21 41q0 20 -16.5 36t-34 23t-57.5 22q-37 14 -56 22t-51 26.5
t-48.5 37.5t-30 50.5t-13.5 69.5q0 83 62 125.5t148 42.5q55 0 95.5 -19t59.5 -43l11 46h94v-181h-128q-6 39 -32.5 64t-61.5 25q-28 0 -45 -14.5t-17 -37.5q0 -26 23.5 -43t71.5 -36z" />
    <glyph glyph-name="Scedilla.sc" horiz-adv-x="597" 
d="M562 169q0 -84 -56.5 -133.5t-155.5 -51.5l-52 -53q24 4 37 4q31 0 59.5 -8.5t53 -34t24.5 -65.5q0 -61 -51 -89.5t-131 -28.5q-23 0 -47.5 6t-32.5 12v58q28 -8 54 -8q46 0 68 11t22 41q0 22 -16 35.5t-42 13.5q-23 0 -41 -7t-25 -14l-6 -7l-35 38l99 100
q-88 15 -121 68l-13 -56h-92v194h126q19 -94 112 -94q29 0 50 14t21 41q0 20 -16.5 36t-34 23t-57.5 22q-37 14 -56 22t-51 26.5t-48.5 37.5t-30 50.5t-13.5 69.5q0 83 62 125.5t148 42.5q55 0 95.5 -19t59.5 -43l11 46h94v-181h-128q-6 39 -32.5 64t-61.5 25
q-28 0 -45 -14.5t-17 -37.5q0 -27 24 -44t71 -35q5 -2 28 -10.5t31 -11.5t29 -12.5t29.5 -14.5t25.5 -16t25 -20t19.5 -22.5t16.5 -27t9 -31t4 -36.5z" />
    <glyph glyph-name="Scaron.sc" horiz-adv-x="597" 
d="M382 645h-143l-143 182h131l84 -91l83 91h131zM345 371q99 -37 131 -57q86 -53 86 -145q0 -86 -59 -135.5t-161 -49.5q-62 0 -108 19.5t-67 52.5l-13 -56h-92v194h126q19 -94 112 -94q29 0 50 14t21 41q0 20 -16.5 36t-34 23t-57.5 22q-37 14 -56 22t-51 26.5t-48.5 37.5
t-30 50.5t-13.5 69.5q0 83 62 125.5t148 42.5q55 0 95.5 -19t59.5 -43l11 46h94v-181h-128q-6 39 -32.5 64t-61.5 25q-28 0 -45 -14.5t-17 -37.5q0 -26 23.5 -43t71.5 -36z" />
    <glyph glyph-name="Scommaaccent.sc" horiz-adv-x="597" 
d="M345 371q99 -37 131 -57q86 -53 86 -145q0 -86 -59 -135.5t-161 -49.5q-62 0 -108 19.5t-67 52.5l-13 -56h-92v194h126q19 -94 112 -94q29 0 50 14t21 41q0 20 -16.5 36t-34 23t-57.5 22q-37 14 -56 22t-51 26.5t-48.5 37.5t-30 50.5t-13.5 69.5q0 83 62 125.5t148 42.5
q55 0 95.5 -19t59.5 -43l11 46h94v-181h-128q-6 39 -32.5 64t-61.5 25q-28 0 -45 -14.5t-17 -37.5q0 -26 23.5 -43t71.5 -36zM318 -59q36 0 58.5 -23t22.5 -64q0 -46 -32 -94.5t-86 -81.5l-27 25l10 11q10 12 14 17.5t12.5 17.5t14 24.5t9.5 26.5q-35 4 -55 24.5t-20 46.5
q0 30 22.5 50t56.5 20z" />
    <glyph glyph-name="uni1E60.sc" horiz-adv-x="606" 
d="M311 638q-41 0 -68.5 24.5t-27.5 59.5q0 36 27.5 61t68.5 25t69 -25t28 -61t-27.5 -60t-69.5 -24zM345 371q99 -37 131 -57q86 -53 86 -145q0 -86 -59 -135.5t-161 -49.5q-62 0 -108 19.5t-67 52.5l-13 -56h-92v194h126q19 -94 112 -94q29 0 50 14t21 41q0 20 -16.5 36
t-34 23t-57.5 22q-37 14 -56 22t-51 26.5t-48.5 37.5t-30 50.5t-13.5 69.5q0 83 62 125.5t148 42.5q55 0 95.5 -19t59.5 -43l11 46h94v-181h-128q-6 39 -32.5 64t-61.5 25q-28 0 -45 -14.5t-17 -37.5q0 -26 23.5 -43t71.5 -36z" />
    <glyph glyph-name="T.sc" horiz-adv-x="658" 
d="M488 0h-317v111h71v390h-45q-31 0 -45.5 -25.5t-14.5 -93.5v-12h-95v224h574v-224h-95v12q0 68 -14.5 93.5t-45.5 25.5h-44v-390h71v-111z" />
    <glyph glyph-name="Tcaron.sc" horiz-adv-x="658" 
d="M402 630h-143l-143 182h131l84 -91l83 91h131zM42 594h574v-224h-95v12q0 68 -14.5 93.5t-45.5 25.5h-44v-390h71v-111h-317v111h71v390h-45q-31 0 -45.5 -25.5t-14.5 -93.5v-12h-95v224z" />
    <glyph glyph-name="uni021A.sc" horiz-adv-x="658" 
d="M42 594h574v-224h-95v12q0 68 -14.5 93.5t-45.5 25.5h-44v-390h71v-111h-317v111h71v390h-45q-31 0 -45.5 -25.5t-14.5 -93.5v-12h-95v224zM331 -59q36 0 58.5 -23t22.5 -64q0 -46 -32 -94.5t-86 -81.5l-27 25l10 11q10 12 14 17.5t12.5 17.5t14 24.5t9.5 26.5
q-35 4 -55 24.5t-20 46.5q0 30 22.5 50t56.5 20z" />
    <glyph glyph-name="Tbar.sc" horiz-adv-x="635" 
d="M33 594h570v-225h-95v11q0 69 -14.5 94.5t-45.5 25.5h-43v-173h61v-106h-61v-108h71v-113h-316v113h70v108h-60v106h60v173h-42q-31 0 -45.5 -25.5t-14.5 -94.5v-11h-95v225z" />
    <glyph glyph-name="U.sc" horiz-adv-x="670" 
d="M578 201q0 -99 -60 -157.5t-173 -58.5q-136 0 -193 56t-57 160v282h-64v111h283v-111h-44v-288q0 -37 21 -61.5t59 -24.5q39 0 59.5 24.5t20.5 61.5v288h-39v111h251v-111h-64v-282z" />
    <glyph glyph-name="Ugrave.sc" horiz-adv-x="670" 
d="M289 644l-157 183h160l137 -183h-140zM578 201q0 -99 -60 -157.5t-173 -58.5q-136 0 -193 56t-57 160v282h-64v111h283v-111h-44v-288q0 -37 21 -61.5t59 -24.5q39 0 59.5 24.5t20.5 61.5v288h-39v111h251v-111h-64v-282z" />
    <glyph glyph-name="Uacute.sc" horiz-adv-x="670" 
d="M217 644l137 183h159l-157 -183h-139zM578 201q0 -99 -60 -157.5t-173 -58.5q-136 0 -193 56t-57 160v282h-64v111h283v-111h-44v-288q0 -37 21 -61.5t59 -24.5q39 0 59.5 24.5t20.5 61.5v288h-39v111h251v-111h-64v-282z" />
    <glyph glyph-name="Ucircumflex.sc" horiz-adv-x="670" 
d="M355 748l-87 -92h-131l146 183h143l146 -183h-131zM391 594h251v-111h-64v-282q0 -99 -60 -157.5t-173 -58.5q-136 0 -193 56t-57 160v282h-64v111h283v-111h-44v-288q0 -37 21 -61.5t59 -24.5q39 0 59.5 24.5t20.5 61.5v288h-39v111z" />
    <glyph glyph-name="Udieresis.sc" horiz-adv-x="670" 
d="M218 683q-39 0 -66 24.5t-27 59.5q0 34 27 60t66 26q40 0 66.5 -25.5t26.5 -60.5t-26 -59.5t-67 -24.5zM466 683q-41 0 -67 24.5t-26 59.5t26.5 60.5t66.5 25.5q39 0 66 -26t27 -60q0 -35 -27 -59.5t-66 -24.5zM578 201q0 -99 -60 -157.5t-173 -58.5q-136 0 -193 56
t-57 160v282h-64v111h283v-111h-44v-288q0 -37 21 -61.5t59 -24.5q39 0 59.5 24.5t20.5 61.5v288h-39v111h251v-111h-64v-282z" />
    <glyph glyph-name="Utilde.sc" horiz-adv-x="670" 
d="M243 840q47 0 102.5 -20t77.5 -20q49 0 49 45h85q0 -76 -34.5 -119.5t-96.5 -43.5q-46 0 -102 20t-77 20q-51 0 -51 -45h-84q0 76 34 119.5t97 43.5zM578 201q0 -99 -60 -157.5t-173 -58.5q-136 0 -193 56t-57 160v282h-64v111h283v-111h-44v-288q0 -37 21 -61.5
t59 -24.5q39 0 59.5 24.5t20.5 61.5v288h-39v111h251v-111h-64v-282z" />
    <glyph glyph-name="Umacron.sc" horiz-adv-x="670" 
d="M137 825h423v-127h-423v127zM578 201q0 -99 -60 -157.5t-173 -58.5q-136 0 -193 56t-57 160v282h-64v111h283v-111h-44v-288q0 -37 21 -61.5t59 -24.5q39 0 59.5 24.5t20.5 61.5v288h-39v111h251v-111h-64v-282z" />
    <glyph glyph-name="Ubreve.sc" horiz-adv-x="670" 
d="M356 723q41 0 71 23.5t31 75.5h86q0 -84 -49 -135.5t-139 -51.5t-138.5 51.5t-48.5 135.5h85q2 -52 31.5 -75.5t70.5 -23.5zM578 201q0 -99 -60 -157.5t-173 -58.5q-136 0 -193 56t-57 160v282h-64v111h283v-111h-44v-288q0 -37 21 -61.5t59 -24.5q39 0 59.5 24.5
t20.5 61.5v288h-39v111h251v-111h-64v-282z" />
    <glyph glyph-name="Uring.sc" horiz-adv-x="670" 
d="M340 945q70 0 117 -46t47 -115t-47.5 -115.5t-116.5 -46.5t-116.5 46.5t-47.5 115.5t47 115t117 46zM340 854q-32 0 -51.5 -19.5t-19.5 -50.5q0 -30 20 -50.5t51 -20.5t51 20.5t20 50.5q0 31 -19 50.5t-52 19.5zM578 201q0 -99 -60 -157.5t-173 -58.5q-136 0 -193 56
t-57 160v282h-64v111h283v-111h-44v-288q0 -37 21 -61.5t59 -24.5q39 0 59.5 24.5t20.5 61.5v288h-39v111h251v-111h-64v-282z" />
    <glyph glyph-name="Uhungarumlaut.sc" horiz-adv-x="670" 
d="M118 651l137 183h159l-157 -183h-139zM331 651l154 183h159l-174 -183h-139zM578 201q0 -99 -60 -157.5t-173 -58.5q-136 0 -193 56t-57 160v282h-64v111h283v-111h-44v-288q0 -37 21 -61.5t59 -24.5q39 0 59.5 24.5t20.5 61.5v288h-39v111h251v-111h-64v-282z" />
    <glyph glyph-name="Uogonek.sc" horiz-adv-x="670" 
d="M391 594h251v-111h-64v-282q0 -74 -34.5 -126.5t-100.5 -74.5q-50 -37 -67.5 -58t-17.5 -44q0 -14 10.5 -25.5t30.5 -11.5q33 0 54 16v-78q-24 -17 -104 -17q-66 0 -100.5 27.5t-34.5 64.5q0 61 81 113q-108 11 -154 66t-46 148v282h-64v111h283v-111h-44v-288
q0 -37 21 -61.5t59 -24.5q39 0 59.5 24.5t20.5 61.5v288h-39v111z" />
    <glyph glyph-name="uni01D3.sc" horiz-adv-x="670" 
d="M428 645h-143l-143 182h131l84 -91l83 91h131zM391 594h251v-111h-64v-282q0 -99 -60 -157.5t-173 -58.5q-136 0 -193 56t-57 160v282h-64v111h283v-111h-44v-288q0 -37 21 -61.5t59 -24.5q39 0 59.5 24.5t20.5 61.5v288h-39v111z" />
    <glyph glyph-name="V.sc" horiz-adv-x="665" 
d="M385 594h260v-111h-66l-145 -484h-202l-149 484h-61v111h288v-111h-45l86 -328l81 328h-47v111z" />
    <glyph glyph-name="W.sc" horiz-adv-x="1026" 
d="M742 594h264v-111h-67l-144 -484h-195l-89 345l-90 -345h-191l-147 484h-61v111h292v-111h-49l86 -330l88 330h-51v111h282v-111h-47l89 -329l80 329h-50v111z" />
    <glyph glyph-name="Wcircumflex.sc" horiz-adv-x="1026" 
d="M528 748l-87 -92h-131l146 183h143l146 -183h-131zM742 594h264v-111h-67l-144 -484h-195l-89 345l-90 -345h-191l-147 484h-61v111h292v-111h-49l86 -330l88 330h-51v111h282v-111h-47l89 -329l80 329h-50v111z" />
    <glyph glyph-name="Wgrave.sc" horiz-adv-x="1026" 
d="M602 644h-140l-157 183h160zM742 594h264v-111h-67l-144 -484h-195l-89 345l-90 -345h-191l-147 484h-61v111h292v-111h-49l86 -330l88 330h-51v111h282v-111h-47l89 -329l80 329h-50v111z" />
    <glyph glyph-name="Wacute.sc" horiz-adv-x="1026" 
d="M686 827l-157 -183h-139l137 183h159zM742 594h264v-111h-67l-144 -484h-195l-89 345l-90 -345h-191l-147 484h-61v111h292v-111h-49l86 -330l88 330h-51v111h282v-111h-47l89 -329l80 329h-50v111z" />
    <glyph glyph-name="Wdieresis.sc" horiz-adv-x="1026" 
d="M391 683q-39 0 -66 24.5t-27 59.5q0 34 27 60t66 26q40 0 66.5 -25.5t26.5 -60.5t-26 -59.5t-67 -24.5zM639 683q-41 0 -67 24.5t-26 59.5t26.5 60.5t66.5 25.5q39 0 66 -26t27 -60q0 -35 -27 -59.5t-66 -24.5zM742 594h264v-111h-67l-144 -484h-195l-89 345l-90 -345
h-191l-147 484h-61v111h292v-111h-49l86 -330l88 330h-51v111h282v-111h-47l89 -329l80 329h-50v111z" />
    <glyph glyph-name="X.sc" horiz-adv-x="678" 
d="M652 483h-57l-135 -188l140 -184h51v-111h-295v111h45l-92 117l-77 -117h48v-111h-256v111h57l134 204l-134 168h-52v111h296v-111h-44l87 -115l79 115h-48v111h253v-111z" />
    <glyph glyph-name="Y.sc" horiz-adv-x="648" 
d="M379 594h250v-111h-57l-158 -275v-97h67v-111h-318v111h68v100l-151 272h-58v111h287v-111h-44l84 -158l76 158h-46v111z" />
    <glyph glyph-name="Yacute.sc" horiz-adv-x="648" 
d="M497 827l-157 -183h-139l137 183h159zM379 594h250v-111h-57l-158 -275v-97h67v-111h-318v111h68v100l-151 272h-58v111h287v-111h-44l84 -158l76 158h-46v111z" />
    <glyph glyph-name="Ycircumflex.sc" horiz-adv-x="648" 
d="M339 748l-87 -92h-131l146 183h143l146 -183h-131zM379 594h250v-111h-57l-158 -275v-97h67v-111h-318v111h68v100l-151 272h-58v111h287v-111h-44l84 -158l76 158h-46v111z" />
    <glyph glyph-name="Ydieresis.sc" horiz-adv-x="648" 
d="M202 683q-39 0 -66 24.5t-27 59.5q0 34 27 60t66 26q40 0 66.5 -25.5t26.5 -60.5t-26 -59.5t-67 -24.5zM450 683q-41 0 -67 24.5t-26 59.5t26.5 60.5t66.5 25.5q39 0 66 -26t27 -60q0 -35 -27 -59.5t-66 -24.5zM379 594h250v-111h-57l-158 -275v-97h67v-111h-318v111h68
v100l-151 272h-58v111h287v-111h-44l84 -158l76 158h-46v111z" />
    <glyph glyph-name="uni0232.sc" horiz-adv-x="648" 
d="M544 825v-127h-423v127h423zM379 594h250v-111h-57l-158 -275v-97h67v-111h-318v111h68v100l-151 272h-58v111h287v-111h-44l84 -158l76 158h-46v111z" />
    <glyph glyph-name="Ygrave.sc" horiz-adv-x="648" 
d="M414 644h-140l-157 183h160zM379 594h250v-111h-57l-158 -275v-97h67v-111h-318v111h68v100l-151 272h-58v111h287v-111h-44l84 -158l76 158h-46v111z" />
    <glyph glyph-name="uni1EF8.sc" horiz-adv-x="648" 
d="M233 722q-51 0 -51 -45h-84q0 76 34 119.5t97 43.5q47 0 102.5 -20t77.5 -20q49 0 49 45h85q0 -76 -34.5 -119.5t-96.5 -43.5q-46 0 -102 20t-77 20zM379 594h250v-111h-57l-158 -275v-97h67v-111h-318v111h68v100l-151 272h-58v111h287v-111h-44l84 -158l76 158h-46v111
z" />
    <glyph glyph-name="Z.sc" horiz-adv-x="593" 
d="M452 245h98v-245h-502v87l286 402h-96q-46 0 -62.5 -21.5t-16.5 -63.5v-22h-96v212h474v-86l-283 -404h113q47 0 66 25.5t19 85.5v30z" />
    <glyph glyph-name="Zacute.sc" horiz-adv-x="593" 
d="M472 827l-157 -183h-139l137 183h159zM452 245h98v-245h-502v87l286 402h-96q-46 0 -62.5 -21.5t-16.5 -63.5v-22h-96v212h474v-86l-283 -404h113q47 0 66 25.5t19 85.5v30z" />
    <glyph glyph-name="Zdotaccent.sc" horiz-adv-x="593" 
d="M304 683q-43 0 -72 25t-29 63t29 63.5t72 25.5t72 -25.5t29 -63.5t-29 -63t-72 -25zM452 245h98v-245h-502v87l286 402h-96q-46 0 -62.5 -21.5t-16.5 -63.5v-22h-96v212h474v-86l-283 -404h113q47 0 66 25.5t19 85.5v30z" />
    <glyph glyph-name="Zcaron.sc" horiz-adv-x="593" 
d="M387 645h-143l-143 182h131l84 -91l83 91h131zM452 245h98v-245h-502v87l286 402h-96q-46 0 -62.5 -21.5t-16.5 -63.5v-22h-96v212h474v-86l-283 -404h113q47 0 66 25.5t19 85.5v30z" />
    <glyph glyph-name="Thorn.sc" horiz-adv-x="643" 
d="M394 443q113 0 167 -32.5t54 -107.5q0 -152 -230 -152h-101v-38h63v-113h-301v113h63v368h-63v113h301v-113h-63v-38h110zM338 239q79 0 79 59q0 58 -79 58h-54v-117h54z" />
    <glyph glyph-name="at.sc" horiz-adv-x="885" 
d="M663 410l-50 -189q-11 -31 -3.5 -57.5t37.5 -26.5q32 0 64.5 35.5t32.5 110.5q0 114 -72.5 179.5t-201.5 65.5q-134 0 -231 -88.5t-97 -226.5q0 -118 85 -192.5t215 -74.5q108 0 186 55l54 -63q-104 -69 -252 -69q-166 0 -275 95t-109 249q0 175 127.5 283.5t308.5 108.5
q163 0 260.5 -88.5t97.5 -233.5q0 -110 -62 -165t-159 -55q-99 0 -139 70q-18 -28 -54 -48t-83 -20q-62 0 -90.5 48t-8.5 133q21 85 70 131t110 46q79 0 94 -53l11 40h134zM418 154q37 0 53 40l27 98q4 17 -4 30.5t-27 13.5q-22 0 -41 -23.5t-31 -67.5q-11 -45 -4.5 -68
t27.5 -23z" />
    <glyph glyph-name="ampersand.sc" horiz-adv-x="777" 
d="M737 207h-76q-12 -37 -31 -66l18 -17q14 -11 40 -11h49v-113h-156q-47 0 -77 27l-23 23q-33 -30 -83.5 -48t-105.5 -18q-116 0 -184 45.5t-68 124.5q0 54 46.5 97t126.5 66l-32 32l-3 3q-4 4 -7.5 9t-8.5 12t-9.5 15.5t-8 18.5t-6 22t-2.5 24q0 72 66.5 114.5t178.5 42.5
q94 0 153.5 -42.5t59.5 -109.5q0 -47 -33 -78t-115 -64l113 -107q12 27 12 60v45h166v-107zM388 508q-23 -1 -38 -16.5t-15 -38.5q0 -25 34 -64l12 -11q26 11 43 30.5t17 40.5q0 27 -15 43.5t-38 15.5zM315 90q58 0 95 31l-129 128q-25 -12 -40.5 -34t-15.5 -48
q0 -35 24.5 -56t65.5 -21z" />
    <glyph glyph-name="registered.alt" horiz-adv-x="519" 
d="M260 760q88 0 148 -56.5t60 -139.5q0 -85 -59.5 -141t-148.5 -56t-149 56t-60 141q0 83 60 139.5t149 56.5zM260 406q68 0 116 45.5t48 112.5q0 66 -47.5 111.5t-116.5 45.5t-117 -45.5t-48 -111.5t48 -112t117 -46zM252 469h-97v35h21v120h-21v35h118q80 0 80 -49
q0 -22 -15.5 -34t-42.5 -12v-4q48 0 48 -28v-15q0 -13 15 -13h4v-35h-49q-32 0 -32 31v30q0 15 -16 15h-29v-41h16v-35zM236 576h24q26 0 26 24t-26 24h-24v-48z" />
    <glyph glyph-name="hyphen.uc" horiz-adv-x="499" 
d="M37 437h424v-124h-424v124z" />
    <glyph glyph-name="endash.uc" horiz-adv-x="646" 
d="M37 437h571v-124h-571v124z" />
    <glyph glyph-name="emdash.uc" horiz-adv-x="962" 
d="M37 437h887v-124h-887v124z" />
    <glyph glyph-name="parenleft.uc" horiz-adv-x="445" 
d="M395 753q-24 -24 -50 -57.5t-55.5 -84.5t-48 -119t-18.5 -139t18.5 -139t48 -119.5t55.5 -86t50 -56.5l-112 -86q-106 86 -171.5 209t-65.5 278q0 289 237 485z" />
    <glyph glyph-name="parenright.uc" horiz-adv-x="445" 
d="M159 838q236 -197 236 -485q0 -154 -65.5 -277.5t-170.5 -209.5l-113 86q24 22 50.5 56.5t56 86t48 119.5t18.5 139t-18.5 139t-48.5 119t-55.5 85t-50.5 57z" />
    <glyph glyph-name="bracketleft.uc" horiz-adv-x="339" 
d="M49 -121v921h241v-121h-79v-679h79v-121h-241z" />
    <glyph glyph-name="bracketright.uc" horiz-adv-x="339" 
d="M49 0h79v679h-79v121h241v-921h-241v121z" />
    <glyph glyph-name="braceleft.uc" horiz-adv-x="438" 
d="M158 707q0 65 31 91t104 26q58 0 96 -8v-120q-18 2 -29 2q-28 0 -36.5 -11t-8.5 -34v-187q0 -46 -33 -80.5t-107 -35.5q74 -1 107 -35t33 -80v-186q0 -22 8.5 -33t36.5 -11q11 0 29 2v-121q-34 -7 -96 -7q-73 0 -104 26t-31 91v230q0 65 -55 65h-54v119h54q55 0 55 65
v232z" />
    <glyph glyph-name="braceright.uc" horiz-adv-x="438" 
d="M280 707v-232q0 -65 55 -65h54v-119h-54q-55 0 -55 -65v-230q0 -65 -31 -91t-104 -26q-62 0 -96 7v121q18 -2 29 -2q28 0 36.5 11t8.5 33v186q0 46 33 80t107 35q-74 1 -107 35.5t-33 80.5v187q0 23 -8.5 34t-36.5 11q-11 0 -29 -2v120q38 8 96 8q73 0 104 -26t31 -91z
" />
    <glyph glyph-name="guilsinglleft.uc" horiz-adv-x="366" 
d="M183 159l-153 216l153 216h153l-153 -216l153 -216h-153z" />
    <glyph glyph-name="guilsinglright.uc" horiz-adv-x="366" 
d="M183 375l-153 216h153l153 -216l-153 -216h-153z" />
    <glyph glyph-name="guillemotleft.uc" horiz-adv-x="641" 
d="M183 159l-153 216l153 216h153l-153 -216l153 -216h-153zM458 159l-153 216l153 216h153l-153 -216l153 -216h-153z" />
    <glyph glyph-name="guillemotright.uc" horiz-adv-x="641" 
d="M183 375l-153 216h153l153 -216l-153 -216h-153zM458 375l-153 216h153l153 -216l-153 -216h-153z" />
    <glyph glyph-name="slash.uc" horiz-adv-x="562" 
d="M-4 -89l390 889h156l-390 -889h-156z" />
    <glyph glyph-name="backslash.uc" horiz-adv-x="562" 
d="M20 800h156l390 -889h-156z" />
    <glyph glyph-name="bar.uc" horiz-adv-x="322" 
d="M80 -50v850h162v-850h-162z" />
    <glyph glyph-name="brokenbar.uc" horiz-adv-x="322" 
d="M80 442v358h162v-358h-162zM80 -47v356h162v-356h-162z" />
    <glyph glyph-name="at.uc" horiz-adv-x="1038" 
d="M776 595q-56 -223 -65 -262q-10 -45 2 -76t49 -31q46 0 87 50t41 149q0 153 -92.5 241.5t-250.5 88.5q-163 0 -281 -116t-117 -295q1 -155 104.5 -254.5t261.5 -99.5q125 0 218 65l54 -70q-117 -79 -283 -79q-196 0 -324.5 122.5t-128.5 315.5q0 146 70 260.5t185 174.5
t252 60q194 0 311.5 -114t117.5 -300q0 -137 -71 -209t-183 -72q-59 0 -99 26.5t-58 64.5q-23 -37 -68 -62.5t-101 -25.5q-77 0 -113.5 64.5t-11.5 171.5q25 108 87.5 168t139.5 60q49 0 79 -20.5t39 -52.5q13 54 14 57h135zM481 243q31 0 56.5 20t33.5 50q3 11 13.5 56
t17.5 71q9 32 -5.5 54.5t-47.5 22.5q-36 0 -66 -35.5t-45 -98.5q-15 -64 -3.5 -102t46.5 -38z" />
    <glyph glyph-name="exclamdown.uc" horiz-adv-x="257" 
d="M122 770q44 0 72.5 -25.5t28.5 -63.5t-28.5 -64t-72.5 -26t-73 26t-29 64t29 63.5t73 25.5zM204 0h-165l6 508h153z" />
    <glyph glyph-name="questiondown.uc" horiz-adv-x="550" 
d="M281 770q44 0 73 -25.5t29 -63.5t-29 -64t-73 -26t-72.5 26t-28.5 64t28.5 63.5t72.5 25.5zM530 215q0 -109 -65.5 -172t-192.5 -63q-125 0 -185.5 54t-60.5 139q0 38 10.5 69t27.5 51.5t37.5 38t40.5 34t37 34.5t27.5 43.5t10.5 56.5l-1 18h148q1 -16 1 -29
q0 -48 -17 -85t-41 -60t-47.5 -44.5t-40.5 -51t-17 -66.5q0 -33 18.5 -62t62.5 -29q91 0 91 124q0 4 -0.5 9.5t-0.5 7.5h156q1 -9 1 -17z" />
    <glyph glyph-name="uni27D1.uc" horiz-adv-x="202" 
d="M101 618q-43 0 -72 25t-29 63t29 63.5t72 25.5t72 -25.5t29 -63.5t-29 -63t-72 -25z" />
    <glyph glyph-name="acute.uc" horiz-adv-x="296" 
d="M0 579l137 183h159l-157 -183h-139z" />
    <glyph glyph-name="grave.uc" horiz-adv-x="296" 
d="M157 579l-157 183h160l137 -183h-140z" />
    <glyph glyph-name="hungarumlaut.uc" horiz-adv-x="526" 
d="M0 586l137 183h159l-157 -183h-139zM213 586l154 183h159l-174 -183h-139z" />
    <glyph glyph-name="circumflex.uc" horiz-adv-x="435" 
d="M435 591h-131l-86 92l-87 -92h-131l146 183h143z" />
    <glyph glyph-name="caron.uc" horiz-adv-x="429" 
d="M298 762h131l-143 -182h-143l-143 182h131l84 -91z" />
    <glyph glyph-name="breve.uc" horiz-adv-x="375" 
d="M187 658q41 0 71 23.5t31 75.5h86q0 -84 -49 -135.5t-139 -51.5t-138.5 51.5t-48.5 135.5h85q2 -52 31.5 -75.5t70.5 -23.5z" />
    <glyph glyph-name="tilde.uc" horiz-adv-x="435" 
d="M126 785q47 0 102.5 -20t77.5 -20q49 0 49 45h85q0 -76 -34.5 -119.5t-96.5 -43.5q-46 0 -102 20t-77 20q-51 0 -51 -45h-84q0 76 34 119.5t97 43.5z" />
    <glyph glyph-name="macron.uc" horiz-adv-x="423" 
d="M0 760h423v-127h-423v127z" />
    <glyph glyph-name="dieresis.uc" horiz-adv-x="372" 
d="M62 618q-39 0 -66 24.5t-27 59.5q0 34 27 60t66 26q40 0 66.5 -25.5t26.5 -60.5t-26 -59.5t-67 -24.5zM310 618q-41 0 -67 24.5t-26 59.5t26.5 60.5t66.5 25.5q39 0 66 -26t27 -60q0 -35 -27 -59.5t-66 -24.5z" />
    <glyph glyph-name="dotaccent.uc" horiz-adv-x="202" 
d="M101 618q-43 0 -72 25t-29 63t29 63.5t72 25.5t72 -25.5t29 -63.5t-29 -63t-72 -25z" />
    <glyph glyph-name="ring.uc" horiz-adv-x="322" 
d="M161 880q70 0 117 -46t47 -115t-47.5 -115.5t-116.5 -46.5t-116.5 46.5t-47.5 115.5t47 115t117 46zM161 789q-32 0 -51.5 -19.5t-19.5 -50.5q0 -30 20 -50.5t51 -20.5t51 20.5t20 50.5q0 31 -19 50.5t-52 19.5z" />
    <glyph glyph-name="cedilla.uc" horiz-adv-x="314" 
d="M177 -65q31 0 59.5 -8.5t53 -34t24.5 -65.5q0 -61 -51 -89.5t-131 -28.5q-22 0 -47.5 6t-32.5 12v58q28 -8 54 -8q46 0 68 11t22 41q0 23 -15.5 36t-42.5 13q-22 0 -40 -7t-25 -14l-7 -7h-66l59 160h67l-38 -98q42 23 89 23z" />
    <glyph glyph-name="ogonek.uc" horiz-adv-x="239" 
d="M0 -123q0 41 27.5 69.5t80.5 60.5h127q-54 -39 -72.5 -60.5t-18.5 -45.5q0 -14 10.5 -25.5t30.5 -11.5q33 0 54 16v-78q-24 -17 -104 -17q-66 0 -100.5 27.5t-34.5 64.5z" />
    <glyph glyph-name="uni0326.uc" horiz-adv-x="0" 
d="M-81 -44q36 0 58.5 -23t22.5 -64q0 -46 -32 -94.5t-86 -81.5l-27 25l10 12q10 11 14 16.5t12.5 17.5t14 24.5t9.5 26.5q-35 4 -55 24.5t-20 46.5q0 30 22.5 50t56.5 20z" />
    <glyph glyph-name="space.lintab" 
 />
    <glyph glyph-name="zero.lintab" 
d="M347 770q154 0 242 -111t88 -282q0 -174 -87.5 -285.5t-242.5 -111.5q-156 0 -243 111.5t-87 285.5q0 171 87.5 282t242.5 111zM347 120q65 0 104.5 66t39.5 191q0 124 -39.5 188.5t-104.5 64.5q-66 0 -105 -64t-39 -189t39 -191t105 -66z" />
    <glyph glyph-name="one.lintab" 
d="M449 121h185v-121h-563v121h203v440q-77 -16 -166 -9v129q68 0 129.5 15.5t72.5 53.5h139v-629z" />
    <glyph glyph-name="two.lintab" 
d="M53 0v71q0 65 40.5 119t98 91.5t115.5 72t98.5 77.5t40.5 92q0 54 -29 82t-80 28t-83 -35t-32 -103l1 -18h-158q-2 12 -2 18q0 118 76 196.5t202 78.5q133 0 205 -61.5t72 -171.5q0 -71 -37.5 -129t-91.5 -95.5t-109 -68t-96.5 -61.5t-46.5 -62h273v87h115v-208h-572z
" />
    <glyph glyph-name="three.lintab" 
d="M470 384q174 -16 174 -178q0 -106 -81 -166t-220 -60q-135 0 -210.5 67.5t-75.5 195.5v29h172v-25q0 -62 29 -96t84 -34q54 0 83.5 29.5t29.5 81.5q0 48 -27.5 74.5t-81.5 26.5h-59v97h62q102 0 102 100q0 50 -28.5 79t-78.5 29q-55 1 -83.5 -34t-28.5 -96l1 -15h-167
q-1 10 -1 15q0 122 77.5 194t216.5 72q125 0 199 -56t74 -155q0 -78 -45.5 -122t-116.5 -53z" />
    <glyph glyph-name="four.lintab" 
d="M645 221h-115v-100h88v-121h-372v121h115v100h-339v101l345 428h163v-428h115v-101zM145 322h216v275z" />
    <glyph glyph-name="five.lintab" 
d="M389 506q123 0 184 -68t61 -186q0 -116 -80.5 -194t-212.5 -78q-127 0 -203 75.5t-76 188.5v12h159v-12q0 -64 30.5 -96t82.5 -32q54 0 85.5 37.5t31.5 103.5q0 61 -30 103t-84 42q-34 0 -62.5 -13.5t-40 -25.5t-15.5 -19l-127 22l42 384h452v-133h-340l-22 -168
q77 57 165 57z" />
    <glyph glyph-name="six.lintab" 
d="M662 234q0 -106 -78 -180t-221 -74q-102 0 -175.5 53t-109.5 141t-36 202q0 180 84 287t238 107q118 0 190.5 -63t78.5 -161h-170q-13 45 -36 66.5t-63 21.5q-124 0 -134 -234q-1 -21 1 -42q27 43 77 66.5t109 23.5q102 0 173.5 -59t71.5 -155zM372 361q-56 0 -94 -33.5
t-38 -89.5q0 -48 37 -85t87 -37q56 0 91.5 34t35.5 88q0 56 -34.5 89.5t-84.5 33.5z" />
    <glyph glyph-name="seven.lintab" 
d="M65 750h571v-121q-277 -283 -277 -629h-195q0 88 32.5 185.5t84 181t104 149.5t103.5 113h-300v-105h-123v226z" />
    <glyph glyph-name="eight.lintab" 
d="M524 402q137 -55 137 -184q0 -101 -82 -169.5t-232 -68.5t-232 68.5t-82 169.5q0 129 137 184q-97 50 -97 155q0 90 71.5 151.5t202.5 61.5t202.5 -61.5t71.5 -151.5q0 -105 -97 -155zM347 653q-49 0 -82.5 -29t-33.5 -72q0 -51 32 -80t84 -29t84 29t32 80q0 43 -33.5 72
t-82.5 29zM347 108q57 0 95 34t38 83q0 55 -37 86.5t-96 31.5t-96 -31.5t-37 -86.5q0 -49 38 -83t95 -34z" />
    <glyph glyph-name="nine.lintab" 
d="M342 770q152 0 236 -110t84 -283q0 -180 -85 -288.5t-237 -108.5q-120 0 -193.5 61.5t-78.5 159.5h170q12 -45 36.5 -65t65.5 -20q64 0 98 63t38 205q-62 -86 -189 -86q-101 0 -173.5 60.5t-72.5 157.5q0 105 79 179.5t222 74.5zM333 386q56 0 94 35t38 91
q0 49 -36.5 85.5t-88.5 36.5q-56 0 -91.5 -34t-35.5 -87q0 -57 35.5 -92t84.5 -35z" />
    <glyph glyph-name="parenleft.lintab" 
d="M555 753q-25 -20 -54 -54t-61.5 -85t-53.5 -120t-21 -141t21 -141.5t53.5 -120t61.5 -85t54 -54.5l-111 -86q-110 84 -182.5 208.5t-72.5 278.5t72.5 277t182.5 209z" />
    <glyph glyph-name="parenright.lintab" 
d="M239 839q111 -86 183.5 -209t72.5 -277t-72.5 -278.5t-183.5 -208.5l-111 86q25 20 54 54.5t61.5 85t53.5 120t21 141.5t-21 141t-53.5 120t-61.5 85t-54 54z" />
    <glyph glyph-name="bracketleft.lintab" 
d="M200 -121v921h360v-121h-198v-679h198v-121h-360z" />
    <glyph glyph-name="bracketright.lintab" 
d="M125 0h198v679h-198v121h359v-921h-359v121z" />
    <glyph glyph-name="braceleft.lintab" 
d="M261 707q0 65 31 91t104 26q56 0 96 -8v-120q-18 2 -29 2q-28 0 -36.5 -11t-8.5 -34v-187q0 -46 -33 -80.5t-107 -35.5q74 -1 107 -35t33 -80v-186q0 -22 8.5 -33t36.5 -11q11 0 29 2v-121q-35 -7 -96 -7q-73 0 -104 26t-31 91v230q0 65 -56 65h-53v119h53q56 0 56 65
v232z" />
    <glyph glyph-name="braceright.lintab" 
d="M422 707v-232q0 -65 55 -65h54v-119h-54q-55 0 -55 -65v-230q0 -65 -31 -91t-104 -26q-62 0 -96 7v121q18 -2 29 -2q28 0 36.5 11t8.5 33v186q0 46 33 80t107 35q-74 1 -107 35.5t-33 80.5v187q0 23 -8.5 34t-36.5 11q-11 0 -29 -2v120q38 8 96 8q73 0 104 -26t31 -91z
" />
    <glyph glyph-name="numbersign.lintab" 
d="M657 461h-105l-34 -172h96v-115h-118l-34 -174h-129l34 174h-121l-34 -174h-129l34 174h-83v115h105l34 172h-96v115h118l34 174h129l-34 -174h121l34 174h129l-34 -174h83v-115zM389 289l34 172h-121l-34 -172h121z" />
    <glyph glyph-name="percent.lintab" 
d="M191 770q70 0 113.5 -51.5t43.5 -132.5q0 -82 -43.5 -133.5t-113.5 -51.5t-113.5 51.5t-43.5 133.5q0 81 43.5 132.5t113.5 51.5zM158 0l462 750h-75l-462 -750h75zM127 586q0 -55 17.5 -85.5t46.5 -30.5t46.5 30.5t17.5 85.5q0 54 -18 84t-46 30q-29 0 -46.5 -30
t-17.5 -84zM512 349q70 0 113.5 -51.5t43.5 -132.5q0 -82 -43.5 -133.5t-113.5 -51.5t-113.5 51.5t-43.5 133.5q0 81 43.5 132.5t113.5 51.5zM512 49q29 0 46.5 30.5t17.5 85.5q0 54 -17.5 84t-46.5 30t-46.5 -30t-17.5 -84q0 -55 17.5 -85.5t46.5 -30.5z" />
    <glyph glyph-name="period.lintab" 
d="M347 -20q-44 0 -73 25.5t-29 63.5t29 64t73 26t73 -26t29 -64t-29 -63.5t-73 -25.5z" />
    <glyph glyph-name="comma.lintab" 
d="M346 159q45 0 73.5 -29.5t28.5 -81.5q0 -57 -40 -118t-108 -103l-37 33q57 57 77 119q-45 5 -70 31t-25 59q0 38 28.5 64t72.5 26z" />
    <glyph glyph-name="colon.lintab" 
d="M347 305q-44 0 -73 26t-29 64t29 64t73 26t73 -26t29 -64t-29 -64t-73 -26zM347 -20q-44 0 -73 25.5t-29 63.5t29 64t73 26t73 -26t29 -64t-29 -63.5t-73 -25.5z" />
    <glyph glyph-name="semicolon.lintab" 
d="M346 305q-44 0 -73 26t-29 64t29 64t73 26t73 -26t29 -64t-29 -64t-73 -26zM326 159q45 0 73 -29.5t28 -81.5q0 -57 -39.5 -118t-107.5 -103l-37 33q18 19 26 28t24.5 35.5t25.5 55.5q-45 5 -70 31t-25 59q0 38 29 64t73 26z" />
    <glyph glyph-name="dollar.lintab" 
d="M636 208q0 -102 -62.5 -162.5t-171.5 -65.5v-99h-113v114q-75 27 -104 87l-16 -82h-93v249h126q5 -63 43 -103.5t97 -40.5q43 0 73.5 22.5t30.5 61.5q0 42 -35 69t-105 54q-40 16 -65 27.5t-59 33.5t-53.5 45.5t-33.5 60t-14 80.5q0 93 60.5 147t147.5 63v100h113v-113
q67 -25 93 -72l14 66h94v-232h-128q-4 62 -35.5 98t-79.5 36q-41 0 -66.5 -22.5t-25.5 -56.5q0 -38 31 -64t90 -50q112 -45 154 -75q92 -66 93 -176z" />
    <glyph glyph-name="cent.lintab" 
d="M613 209q-5 -90 -59.5 -150.5t-147.5 -74.5v-103h-114v104q-98 19 -154 92t-56 180t56 180.5t154 92.5v103h114v-102q93 -14 147.5 -75t58.5 -151h-172q-4 59 -28 92.5t-59 33.5q-42 0 -68.5 -47.5t-26.5 -126.5t26.5 -126.5t68.5 -47.5q36 0 59.5 33.5t27.5 92.5h173z
" />
    <glyph glyph-name="sterling.lintab" 
d="M654 222q2 -9 2 -18q0 -110 -53.5 -167t-173.5 -57q-44 0 -98 19.5t-91 19.5q-42 0 -87.5 -9.5t-108.5 -9.5v122q158 0 158 109q0 29 -11 64h-120v84h87q-48 110 -48 180q0 101 71 156t166 55q64 0 110.5 -26t66.5 -61l13 67h94v-232h-128q-4 62 -35 98t-79 36
q-42 0 -67.5 -24.5t-25.5 -67.5q0 -17 2 -34.5t4 -29.5t7.5 -32t7.5 -27t10 -31t9 -28h177v-83h-155q6 -33 6 -70q0 -72 -50 -117q12 -2 28 -6.5t31.5 -7.5t36.5 -3q48 -1 68.5 25t20.5 88q0 14 -1 18h156z" />
    <glyph glyph-name="yen.lintab" 
d="M405 750h269v-121h-69l-152 -251h129v-83h-170v-44h170v-84h-170v-46h81v-121h-295v121h81v46h-169v84h169v44h-169v83h108l-144 251h-49v121h287v-121h-61l110 -189l106 189h-62v121z" />
    <glyph glyph-name="uni20A9.lintab" 
d="M675 629h-41l-20 -127h33v-83h-45l-10 -66h55v-84h-68l-42 -271h-121l-37 271h-59l-37 -271h-123l-43 271h-68v84h55l-10 66h-45v83h32l-20 127h-37v121h202v-121h-46l17 -127h91l18 127h-48v121h196v-121h-42l18 -127h89l17 127h-47v121h186v-121zM208 419l9 -66h50
l10 66h-69zM332 353h35l-9 66h-17zM500 353l9 66h-68l10 -66h49zM242 169l14 100h-28zM476 170l13 99h-27z" />
    <glyph glyph-name="Euro.lintab" 
d="M502 291h153q-16 -311 -277 -311q-117 0 -193 75.5t-100 203.5h-57v84h47q-1 11 -1 33t1 33h-47v84h57q25 127 101 202t192 75q258 0 274 -303h-152q-15 82 -39.5 126t-72.5 44q-92 0 -115 -144h133v-84h-140q-1 -11 -1 -33t1 -33h140v-84h-132q23 -146 114 -146
q49 0 74.5 47t39.5 131z" />
    <glyph glyph-name="florin.lintab" 
d="M372 -71q-18 -132 -188 -132q-43 0 -90 9l16 112q9 -3 31 -3q38 0 53.5 15t18.5 42l61 428h-52v115h68l17 119q9 63 52.5 97t134.5 34q43 0 90 -9l-16 -112q-18 3 -30 3q-39 0 -54.5 -15t-18.5 -42l-10 -75h73v-115h-89z" />
    <glyph glyph-name="space.old" horiz-adv-x="156" 
 />
    <glyph glyph-name="zero.old" horiz-adv-x="655" 
d="M328 611q129 0 207 -88.5t78 -223.5q0 -138 -78 -227t-207 -89q-130 0 -208 89t-78 226q0 136 78.5 224.5t207.5 88.5zM328 106q42 0 70 48.5t28 144.5q0 95 -28 142t-70 47q-44 0 -71.5 -46.5t-27.5 -142.5q0 -97 27.5 -145t71.5 -48z" />
    <glyph glyph-name="one.old" horiz-adv-x="527" 
d="M367 121h107v-121h-404v121h122v284q-21 -3 -43 -3q-48 0 -78 8v129q16 -2 26 -2q117 0 131 57h139v-473z" />
    <glyph glyph-name="two.old" horiz-adv-x="666" 
d="M55 0v71q0 62 28 104.5t70 61.5t91 35t91 27t70 35.5t28 62.5q0 33 -28.5 57t-73.5 24q-47 0 -77 -26.5t-30 -71.5l1 -18h-159q-2 12 -2 18q0 101 74 167.5t196 66.5q128 0 199.5 -58t71.5 -151q0 -56 -26.5 -96t-66.5 -59t-87 -34t-88 -24t-68.5 -27t-29.5 -44h256v31
h116v-152h-556z" />
    <glyph glyph-name="three.old" horiz-adv-x="646" 
d="M462 228q60 -19 102.5 -66t42.5 -112q0 -97 -82.5 -161.5t-212.5 -64.5q-127 0 -202.5 75.5t-75.5 192.5v24h171v-25q0 -61 27.5 -95.5t78.5 -34.5q49 0 78 30.5t29 80.5q0 44 -26 71.5t-75 27.5h-55v101h58q94 0 94 98q0 50 -28 79t-75 29q-51 0 -77.5 -35t-26.5 -95
l1 -15h-167q-1 10 -1 15q0 120 74.5 193t196.5 73q131 0 209.5 -62.5t78.5 -154.5q0 -63 -40.5 -106t-96.5 -63z" />
    <glyph glyph-name="four.old" horiz-adv-x="644" 
d="M612 66h-111v-101h85v-121h-365v121h111v101h-330v103l338 425h161v-425h111v-103zM132 169h200v258z" />
    </font>
</defs>
</svg>
